<?xml version="1.0" standalone="no"?>
<!DOCTYPE svg PUBLIC "-//W3C//DTD SVG 1.1//EN" "http://www.w3.org/Graphics/SVG/1.1/DTD/svg11.dtd" >
<svg xmlns="http://www.w3.org/2000/svg" xmlns:xlink="http://www.w3.org/1999/xlink" version="1.1">
<metadata>
Created by FontForge 20230101 at Wed Jul 26 10:39:03 2017
 By Pablo Velazquez
Copyright (c) 2017 by Emil Bertell. All rights reserved.
</metadata>
<defs>
<font id="Karu-ExtraLight" horiz-adv-x="0" >
  <font-face 
    font-family="Karu ExtraLight"
    font-weight="100"
    font-stretch="normal"
    units-per-em="2048"
    panose-1="0 0 3 0 0 0 0 0 0 0"
    ascent="1638"
    descent="-410"
    x-height="971"
    cap-height="1419"
    bbox="-756 -623 2425 2089"
    underline-thickness="0"
    underline-position="0"
    unicode-range="U+000D-FB02"
  />
<missing-glyph horiz-adv-x="1011" 
d="M829 1522v-2022h-641v2022h641zM674 1386h-334v-67h131v-74h-133v-67h336v67h-133v74h133v67zM541 1126h-203v-211h336v68h-133v143zM471 1057v-74h-68v74h68zM674 860h-336v-65h133v-76h-133v-66h203v142h133v65zM674 739h-68v-133h-268v-69h336v202zM674 494h-203v-115
h70v47h65v-94h-203v162h-65v-230h336v230zM674 143h-336v-229h336v229zM606 76v-94h-203v94h203zM674 -131h-336v-68h141l-141 -94v-67h336v67h-207l141 94h66v68z" />
    <glyph glyph-name="uniFB01" unicode="fi" horiz-adv-x="1036" 
d="M303 1219v-248h334v-51h-334v-920h-57v920h-178v51h178v248q0 174 79 253q78 78 205 78q173 0 289 -86l-35 -43q-112 76 -254 76q-104 0 -165.5 -67.5t-61.5 -210.5zM776 971h58v-971h-58v971z" />
    <glyph glyph-name="uniFB02" unicode="fl" horiz-adv-x="993" 
d="M561 1550q134 0 266 -53v-1497h-57v1462q-90 35 -209 35q-105 0 -182 -71q-76 -72 -76 -224v-231h334v-51h-334v-920h-57v920h-178v51h178v231q0 97 27.5 167.5t75.5 108.5t100 55t112 17z" />
    <glyph glyph-name="f_b.liga" unicode="fb" horiz-adv-x="1746" 
d="M1231 999q182 0 305 -136t123 -377q0 -242 -127 -378q-128 -137 -318 -137q-136 0 -233 64t-154 178v-213h-57v1462q-96 35 -207 35q-110 0 -184 -70q-76 -70 -76 -217v-239h334v-51h-334v-920h-57v920h-178v51h178v239q0 93 28 161.5t76 106.5t100.5 55t112.5 17
q146 0 264 -53v-747q27 57 68 103.5t93 78.5t113 49.5t130 17.5zM1214 27q75 0 141 26t122 80t88 144.5t32 208.5q0 117 -31 207.5t-85 144.5t-117.5 80t-132.5 26q-138 0 -239.5 -78.5t-164.5 -220.5v-321q55 -142 154 -219.5t233 -77.5z" />
    <glyph glyph-name="f_f_i.liga" unicode="ffi" horiz-adv-x="1660" 
d="M303 1260v-289h334v-51h-334v-920h-57v920h-178v51h178v289q0 292 248 290q163 0 264 -82l-35 -47q-82 76 -229 76q-191 2 -191 -237zM850 1260q0 292 248 290q163 0 264 -82l-35 -47q-82 76 -229 76q-189 0 -191 -237v-289h334v-51h-334v-920h-57v920h-178v51h178v289z
M1436 1393q25 0 42 -17.5t17 -43.5q0 -27 -17.5 -44.5t-41.5 -17.5q-27 0 -44.5 17.5t-17.5 44.5q0 26 17.5 43.5t44.5 17.5zM1407 0v971h57v-971h-57z" />
    <glyph glyph-name="f_f_l.liga" unicode="ffl" horiz-adv-x="1597" 
d="M303 1260v-289h334v-51h-334v-920h-57v920h-178v51h178v289q0 292 248 290q163 0 264 -82l-35 -47q-82 76 -229 76q-191 2 -191 -237zM1165 1550q134 0 267 -53v-1497h-58v1462q-90 35 -209 35q-105 0 -182 -71q-76 -72 -76 -224v-231h334v-51h-334v-920h-57v920h-178v51
h178v231q0 97 27.5 167.5t75.5 108.5t100 55t112 17z" />
    <glyph glyph-name="f_h.liga" unicode="fh" horiz-adv-x="1683" 
d="M1186 999q152 0 245 -96t93 -285v-618h-58v616q0 170 -79 249t-201 79q-120 0 -210.5 -66t-148.5 -184v-694h-57v1460q-75 37 -192 37q-121 0 -198 -71q-77 -72 -77 -228v-227h334v-51h-334v-920h-57v920h-178v51h178v227q0 99 27.5 169.5t75.5 109.5t104 56t125 17
q135 0 249 -51v-715q27 48 64 87.5t82.5 68t99 44t113.5 15.5z" />
    <glyph glyph-name="f_k.liga" unicode="fk" horiz-adv-x="1523" 
d="M1432 0l-351 571l-254 -272v-299h-57v1462q-79 35 -197 35q-128 0 -199 -72t-71 -206v-248h334v-51h-334v-920h-57v920h-178v51h178v248q0 166 89 249q88 82 238 82q146 0 254 -53v-1112l549 586h76l-330 -355l383 -616h-73z" />
    <glyph glyph-name=".notdef" horiz-adv-x="1011" 
d="M829 1522v-2022h-641v2022h641zM674 1386h-334v-67h131v-74h-133v-67h336v67h-133v74h133v67zM541 1126h-203v-211h336v68h-133v143zM471 1057v-74h-68v74h68zM674 860h-336v-65h133v-76h-133v-66h203v142h133v65zM674 739h-68v-133h-268v-69h336v202zM674 494h-203v-115
h70v47h65v-94h-203v162h-65v-230h336v230zM674 143h-336v-229h336v229zM606 76v-94h-203v94h203zM674 -131h-336v-68h141l-141 -94v-67h336v67h-207l141 94h66v68z" />
    <glyph glyph-name=".null" 
 />
    <glyph glyph-name="nonmarkingreturn" unicode="&#xd;" horiz-adv-x="512" 
 />
    <glyph glyph-name="space" unicode=" " horiz-adv-x="481" 
 />
    <glyph glyph-name="exclam" unicode="!" horiz-adv-x="514" 
d="M293 1419l-8 -1083h-58l-10 1083h76zM191 -3q-27 25 -27 67q0 40 27 67q26 27 67 27q39 0 65.5 -28t26.5 -66q0 -39 -26.5 -66t-65.5 -27q-41 0 -67 26z" />
    <glyph glyph-name="quotedbl" unicode="&#x22;" horiz-adv-x="548" 
d="M195 1522v-578h-52l-20 578h72zM426 1522l-20 -578h-52v578h72z" />
    <glyph glyph-name="numbersign" unicode="#" horiz-adv-x="1236" 
d="M1200 1034h-227l-121 -555h254v-51h-264l-94 -428h-60l94 428h-510l-94 -428h-59l94 428h-176v51h186l121 555h-213v51h223l74 334h59l-73 -334h510l73 334h60l-74 -334h217v-51zM793 479l120 555h-510l-120 -555h510z" />
    <glyph glyph-name="dollar" unicode="$" horiz-adv-x="1026" 
d="M948 365q0 -154 -105 -241q-106 -86 -276 -97v-129h-55v127q-241 2 -453 165l27 58q187 -165 426 -166v620l-16 5q-173 52 -268 141t-95 239q0 141 101 224t278 84v135h55v-137q190 -11 359 -125l-29 -49q-149 106 -330 118v-587q45 -14 81.5 -28t67.5 -28
q59 -28 118 -72q57 -45 85.5 -107.5t28.5 -149.5zM195 1090q0 -133 82 -205q82 -73 235 -119v573q-151 -2 -234 -66.5t-83 -182.5zM567 84q145 11 232 83q88 73 88 198q0 138 -95 211q-49 36 -99 60q-49 23 -126 48v-600z" />
    <glyph glyph-name="percent" unicode="%" horiz-adv-x="1648" 
d="M159 864q-93 95 -93 246t92 245q92 93 238 93t237 -93q92 -94 92 -245t-93 -246q-93 -94 -236 -94q-144 0 -237 94zM1137 1419l-553 -1419h-60l553 1419h60zM595 908q75 86 75 202t-77 202q-76 85 -198 85q-121 0 -197 -85q-77 -86 -77 -202t75 -202q73 -85 199 -85
q125 0 200 85zM1017 66q-93 95 -93 246q0 150 92 244q92 93 238 93t237 -93q92 -94 92 -244q0 -151 -93 -246t-236 -95q-144 0 -237 95zM1453 110q75 86 75 202q0 115 -77 201q-76 85 -197 85q-122 0 -198 -85q-77 -86 -77 -201q0 -116 75 -202q73 -85 199 -85q125 0 200 85
z" />
    <glyph glyph-name="ampersand" unicode="&#x26;" horiz-adv-x="1245" 
d="M1192 696q0 -153 -52 -290t-151 -240l150 -166h-84l-113 125q-181 -154 -448 -154q-174 0 -281 92t-107 246q0 143 82 235.5t242 151.5q-105 120 -157 220q-54 101 -54 214q0 145 92 232q92 86 264 86q165 0 262 -88t97 -242q0 -72 -27.5 -135.5t-67.5 -108.5t-100 -85
q-31 -20 -57.5 -36.5t-49.5 -28.5q-48 -25 -106 -48l424 -469q182 182 183 489h59zM573 1391q-132 0 -212 -71t-80 -185q0 -185 198 -406l10 -12q174 68 279 168q104 101 104 233q0 123 -78 198t-221 75zM502 29q233 0 403 137l-440 491q-159 -61 -227 -141t-68 -209
q0 -127 93 -202q91 -76 239 -76z" />
    <glyph glyph-name="quotesingle" unicode="'" horiz-adv-x="317" 
d="M195 1522l-11 -578h-51l-10 578h72z" />
    <glyph glyph-name="parenleft" unicode="(" horiz-adv-x="485" 
d="M391 1706l47 -29q-256 -430 -256 -1032t256 -1032l-47 -29q-132 209 -200 493q-70 283 -70 568t70 569q69 284 200 492z" />
    <glyph glyph-name="parenright" unicode=")" horiz-adv-x="485" 
d="M94 -416l-47 29q256 430 256 1032t-256 1032l47 29q131 -207 201 -492q70 -284 70 -569t-70 -568q-70 -286 -201 -493z" />
    <glyph glyph-name="asterisk" unicode="*" horiz-adv-x="919" 
d="M821 1225l-317 -113l194 -293l-47 -26l-180 301l-182 -301l-47 26l194 291l-323 115l18 51l320 -129l-13 336h56l-7 -336l316 129z" />
    <glyph glyph-name="plus" unicode="+" horiz-adv-x="1087" 
d="M983 719v-51h-412v-451h-55v451h-412v51h412v422h55v-422h412z" />
    <glyph glyph-name="comma" unicode="," horiz-adv-x="440" 
d="M209 150q106 0 106 -168q0 -135 -60 -243q-59 -107 -167 -157l-29 45q197 102 201 367q-23 -23 -59 -23q-33 0 -55.5 22t-22.5 64t25.5 67.5t60.5 25.5z" />
    <glyph glyph-name="hyphen" unicode="-" horiz-adv-x="800" 
d="M63 549v51h674v-51h-674z" />
    <glyph glyph-name="period" unicode="." horiz-adv-x="440" 
d="M154 -3q-27 25 -27 67q0 40 27 67q26 27 67 27q39 0 65.5 -28t26.5 -66q0 -39 -26.5 -66t-65.5 -27q-41 0 -67 26z" />
    <glyph glyph-name="slash" unicode="/" horiz-adv-x="860" 
d="M784 1661l-647 -1890h-61l647 1890h61z" />
    <glyph glyph-name="zero" unicode="0" horiz-adv-x="1277" 
d="M649 -29q-254 0 -402 202q-149 203 -149 552q0 332 153 528q152 195 398 195t389 -191q142 -191 142 -532q0 -357 -140 -556q-141 -198 -391 -198zM649 29q221 0 345 186q124 185 124 510q0 309 -125 488q-124 178 -344 178q-222 0 -356 -180q-133 -181 -133 -486
q0 -322 133 -509t356 -187z" />
    <glyph glyph-name="one" unicode="1" horiz-adv-x="407" 
d="M244 1419v-1419h-60v1368h-123v51h183z" />
    <glyph glyph-name="two" unicode="2" horiz-adv-x="1011" 
d="M170 53h829v-53h-905v51l320 326q91 94 162.5 180t123.5 167q103 160 103 331q0 152 -93 243q-94 91 -235 91q-209 0 -412 -164l-34 47q215 174 448 174q166 0 277 -105q110 -107 110 -286q0 -100 -32.5 -198t-98.5 -193q-34 -48 -65.5 -88t-60.5 -73q-60 -67 -150 -159z
" />
    <glyph glyph-name="three" unicode="3" horiz-adv-x="1005" 
d="M616 735q144 -18 248 -116q103 -99 103 -263q0 -192 -125 -290q-124 -97 -320 -97q-253 0 -465 183l37 47q57 -48 108.5 -80.5t99.5 -52.5q95 -39 222 -39q161 0 270 82q109 81 109 245q0 178 -118 262t-304 84h-90l2 62h88q154 0 264 95q109 94 109 253q0 71 -22.5 124
t-64.5 89t-101.5 54t-133.5 18q-231 0 -403 -166l-35 43q185 178 441 178q161 0 270 -82q110 -83 110 -258q0 -138 -85 -241q-86 -106 -214 -134z" />
    <glyph glyph-name="four" unicode="4" horiz-adv-x="1159" 
d="M1120 360v-55h-241v-305h-60v305h-737v62l692 1069h105v-1076h241zM145 360h674v1031z" />
    <glyph glyph-name="five" unicode="5" horiz-adv-x="1107" 
d="M586 842q176 0 287 -105q110 -107 110 -307q0 -222 -133 -340q-134 -119 -336 -119q-133 0 -246 53q-58 26 -105.5 58t-84.5 70l31 51q180 -174 407 -174q167 0 286 104q118 103 118 295q0 185 -94 270q-95 86 -246 86q-116 0 -205 -49q-91 -50 -137 -114l-50 18v780h699
v-53h-639v-659q29 30 66 54.5t80.5 42.5t92 28t99.5 10z" />
    <glyph glyph-name="six" unicode="6" horiz-adv-x="1214" 
d="M705 1393q-219 0 -361 -178q-143 -179 -143 -513q0 -38 2 -78t6 -83q45 145 165 232t314 87q202 0 317 -111q115 -112 115 -321q0 -203 -130 -330t-349 -127q-238 0 -370 179t-132 546q0 355 152 555q151 199 416 199q203 0 364 -152l-47 -51q-134 148 -319 146zM684 801
q-187 0 -312 -105q-124 -106 -124 -270q0 -162 111 -279q109 -118 282 -118q183 0 299 110q115 109 115 291q0 186 -100 279q-101 92 -271 92z" />
    <glyph glyph-name="seven" unicode="7" horiz-adv-x="983" 
d="M29 1417h817l-481 -1417h-70l473 1364h-739v53z" />
    <glyph glyph-name="eight" unicode="8" horiz-adv-x="1224" 
d="M772 731q145 -25 236 -119q90 -94 90 -241q0 -197 -135 -298q-136 -102 -351 -102t-350 102q-135 101 -135 298q0 148 88 242t236 118q-115 31 -193 121t-78 229q0 166 111 268q110 101 321 101q210 0 322 -101q110 -102 110 -266q0 -140 -79 -229q-79 -90 -193 -123z
M983 1085q0 145 -99 227q-100 81 -272 81q-173 0 -271 -82q-99 -82 -99 -228q0 -150 104 -240q103 -91 266 -91q159 0 266 92q105 92 105 241zM305 615q-117 -85 -117 -243q0 -159 114 -249t311 -90q196 0 310 90q113 90 113 248q0 159 -118 244t-306 85q-191 0 -307 -85z
" />
    <glyph glyph-name="nine" unicode="9" horiz-adv-x="1214" 
d="M555 29q220 0 363 173q141 173 141 511q0 42 -2.5 86t-7.5 92q-45 -143 -165 -230q-119 -88 -298 -88q-189 0 -305 112q-117 113 -117 314t125 326t336 125q231 0 363 -179q132 -178 132 -546t-149 -561q-150 -193 -418 -193q-237 0 -422 172l47 52q56 -72 156 -120
q99 -48 221 -46zM590 631q167 0 295 104q127 103 127 260q0 162 -108 280q-109 118 -279 118q-173 0 -285 -107q-111 -108 -111 -289q0 -182 102 -274q101 -92 259 -92z" />
    <glyph glyph-name="colon" unicode=":" horiz-adv-x="641" 
d="M154 712q-27 26 -27 66q0 41 27 68q26 26 67 26q39 0 65.5 -27.5t26.5 -66.5t-26.5 -65.5t-65.5 -26.5q-41 0 -67 26zM154 3q-27 25 -27 67q0 41 27 68q26 26 67 26q39 0 65.5 -27.5t26.5 -66.5t-26.5 -66t-65.5 -27q-41 0 -67 26z" />
    <glyph glyph-name="semicolon" unicode=";" horiz-adv-x="602" 
d="M217 686q-42 0 -68 25t-26 67t26 68t68 26q39 0 65.5 -27.5t26.5 -66.5t-26.5 -65.5t-65.5 -26.5zM209 150q106 0 106 -168q0 -135 -60 -243q-59 -107 -167 -157l-29 45q197 102 201 367q-23 -23 -59 -23q-33 0 -55.5 22t-22.5 64t25.5 67.5t60.5 25.5z" />
    <glyph glyph-name="less" unicode="&#x3c;" horiz-adv-x="960" 
d="M852 1094v-62l-746 -352l746 -354v-62l-791 381v68z" />
    <glyph glyph-name="equal" unicode="=" horiz-adv-x="1101" 
d="M104 907h893v-51h-893v51zM104 457h893v-51h-893v51z" />
    <glyph glyph-name="greater" unicode="&#x3e;" horiz-adv-x="960" 
d="M109 1094l790 -381v-68l-790 -381v62l745 354l-745 352v62z" />
    <glyph glyph-name="question" unicode="?" horiz-adv-x="1011" 
d="M489 1448q165 0 277 -96q113 -98 113 -275q0 -180 -112 -289t-288 -120l-4 -271h-57l-8 324h32q162 0 269 95q106 94 106 259q0 154 -95 235q-94 81 -235 81q-223 0 -393 -174l-31 45q34 38 79.5 70.5t102.5 60.5q111 55 244 55zM444 158q39 0 66 -28t27 -66
q0 -39 -27 -66t-66 -27q-42 0 -68 26t-26 67t26 67.5t68 26.5z" />
    <glyph glyph-name="at" unicode="@" horiz-adv-x="1867" 
d="M1231 940h43v-491q0 -238 145 -238q51 0 93 24t72 72t46.5 120.5t16.5 168.5q0 189 -55 335.5t-152 236.5t-217 135t-260 45q-138 0 -265.5 -54t-230.5 -156q-101 -101 -163 -263q-62 -163 -62 -359q0 -163 43.5 -298t131.5 -241q88 -105 225 -163t314 -58q297 0 517 117
l18 -55q-247 -119 -535 -119q-350 0 -563 215t-213 604q0 204 65 375q32 85 75 155t98 125q109 110 248.5 170t296.5 60q153 0 283 -46.5t236 -142.5q106 -97 166 -254.5t60 -363.5q0 -118 -29 -213t-98 -161q-67 -66 -164 -66q-81 0 -132.5 49.5t-63.5 136.5
q-39 -103 -127 -161q-88 -60 -193 -60q-150 0 -241 109q-91 107 -91 305t97 310q96 113 256 113q54 0 100 -15t83.5 -43t65.5 -66.5t46 -85.5v8zM901 176q128 0 222 91t94 253v8q-1 192 -84 284q-82 91 -209 91t-210 -96q-83 -97 -83 -268q0 -169 77 -266q76 -97 193 -97z
" />
    <glyph glyph-name="A" unicode="A" horiz-adv-x="1222" 
d="M1098 0l-144 393h-692l-141 -393h-60l508 1419h72l520 -1419h-63zM281 446h655l-332 904z" />
    <glyph glyph-name="B" unicode="B" horiz-adv-x="1277" 
d="M895 754q138 -18 221 -111q82 -94 82 -242q0 -184 -114 -292q-115 -109 -314 -109h-545v1419h500q191 0 290 -82.5t99 -242.5q0 -120 -58 -209t-161 -131zM727 1366h-442v-596h456q128 0 220 88q92 89 92 238q0 270 -326 270zM772 53q167 0 267 92q98 92 98 256
q0 80 -25 139.5t-72.5 98.5t-115.5 58.5t-154 19.5h-485v-664h487z" />
    <glyph glyph-name="C" unicode="C" horiz-adv-x="1380" 
d="M711 -29q-287 0 -458 198t-171 540q0 335 197 537q197 200 495 200q304 0 506 -193l-43 -43q-183 177 -463 179q-276 0 -453 -185q-178 -185 -178 -495q0 -311 157 -495q158 -185 411 -185q196 0 327 73q130 72 228 215l47 -38q-212 -308 -602 -308z" />
    <glyph glyph-name="D" unicode="D" horiz-adv-x="1443" 
d="M596 1419q339 0 535 -171t196 -513q0 -347 -198 -541q-200 -194 -533 -194h-371v1419h371zM596 53q305 0 488 184q182 184 182 498q0 309 -179 470q-181 161 -491 161h-311v-1313h311z" />
    <glyph glyph-name="E" unicode="E" horiz-adv-x="1202" 
d="M1090 1366h-826v-586h674v-53h-674v-674h826v-53h-885v1419h885v-53z" />
    <glyph glyph-name="F" unicode="F" horiz-adv-x="1181" 
d="M1090 1366h-805v-586h653v-53h-653v-727h-60v1419h865v-53z" />
    <glyph glyph-name="G" unicode="G" horiz-adv-x="1386" 
d="M723 707v53h541v-682q-257 -105 -519 -107q-304 0 -486 198q-181 197 -181 540q0 335 191 538q191 201 479 201q329 0 522 -199l-43 -43q-178 184 -479 185q-266 0 -437 -186q-172 -187 -172 -496q0 -312 167 -496q166 -184 444 -184q255 0 452 88v590h-479z" />
    <glyph glyph-name="H" unicode="H" horiz-adv-x="1443" 
d="M1180 1419h59v-1419h-59v725h-916v-725h-59v1419h59v-641h916v641z" />
    <glyph glyph-name="I" unicode="I" horiz-adv-x="468" 
d="M264 1419v-1419h-59v1419h59z" />
    <glyph glyph-name="J" unicode="J" horiz-adv-x="905" 
d="M367 -29q-215 0 -347 166l23 78q45 -81 127 -133q85 -53 197 -53q313 0 313 448v942h59v-944q2 -504 -372 -504z" />
    <glyph glyph-name="K" unicode="K" horiz-adv-x="1243" 
d="M1114 0l-528 850l-301 -309v-541h-60v1419h60v-798l776 798h76l-508 -522l557 -897h-72z" />
    <glyph glyph-name="L" unicode="L" horiz-adv-x="966" 
d="M205 1419h59v-1366h682v-53h-741v1419z" />
    <glyph glyph-name="M" unicode="M" horiz-adv-x="1705" 
d="M1436 1419h65v-1419h-61v1278l-555 -1217h-64l-559 1219v-1280h-57v1419h59l590 -1286z" />
    <glyph glyph-name="N" unicode="N" horiz-adv-x="1402" 
d="M1141 1419h57v-1419h-63l-873 1313v-1313h-57v1419h59l877 -1319v1319z" />
    <glyph glyph-name="O" unicode="O" horiz-adv-x="1503" 
d="M752 -29q-298 0 -486 204q-188 205 -188 550q0 331 192 527q190 196 482 196q289 0 481 -194q192 -195 192 -529q0 -352 -186 -553t-487 -201zM752 29q274 0 443 189q169 187 169 507q0 304 -172 485t-440 181q-269 0 -441 -181t-172 -485q0 -316 173 -506
q172 -190 440 -190z" />
    <glyph glyph-name="P" unicode="P" horiz-adv-x="1193" 
d="M715 1419q211 0 322.5 -96.5t111.5 -286.5t-113 -295q-113 -106 -321 -106h-430v-635h-60v1419h490zM717 688q171 0 271 92q99 92 99 256q0 163 -96.5 246.5t-273.5 83.5h-432v-678h432z" />
    <glyph glyph-name="Q" unicode="Q" horiz-adv-x="1503" 
d="M752 -29q-298 0 -486 204q-188 205 -188 550q0 331 192 527q190 196 482 196q289 0 481 -194q192 -195 192 -529q0 -352 -186 -553t-487 -201zM752 29q274 0 443 189q169 187 169 507q0 304 -172 485t-440 181q-269 0 -441 -181t-172 -485q0 -316 173 -506
q172 -190 440 -190zM1303 -262h-711v49h711v-49z" />
    <glyph glyph-name="R" unicode="R" horiz-adv-x="1337" 
d="M1116 0l-430 655h-401v-655h-60v1419h527q99 0 176.5 -24t131 -71t81.5 -116t28 -159q0 -181 -110 -288q-110 -106 -305 -106l434 -655h-72zM285 1366v-657h469q159 0 257 89q97 88 97 251q0 160 -96 239q-97 78 -258 78h-469z" />
    <glyph glyph-name="S" unicode="S" horiz-adv-x="1056" 
d="M520 -29q-254 0 -442 125l26 58q164 -125 416 -125q174 0 280 84q105 84 105 237q0 66 -22.5 117t-52.5 84q-32 33 -89 64q-61 31 -104 47q-23 8 -53.5 18t-69.5 22q-186 57 -284 152q-99 95 -99 258q0 159 108 247q107 89 298 89q220 0 407 -127l-29 -49
q-169 121 -378 121q-81 0 -145 -18.5t-108 -54.5t-67.5 -88t-23.5 -118q0 -145 87 -223t252 -129q42 -13 75.5 -24t60.5 -21q26 -11 55 -24.5t61 -30.5q62 -35 98 -74t60.5 -100.5t24.5 -137.5q0 -186 -124 -282q-124 -97 -323 -97z" />
    <glyph glyph-name="T" unicode="T" horiz-adv-x="1005" 
d="M1018 1419v-53h-465v-1366h-59v1366h-465v53h989z" />
    <glyph glyph-name="U" unicode="U" horiz-adv-x="1443" 
d="M723 -29q-229 0 -373 160q-145 160 -145 430v858h59v-858q0 -242 129 -386t330 -144q205 0 331 143t126 387v858h59v-858q0 -275 -142 -432q-143 -158 -374 -158z" />
    <glyph glyph-name="V" unicode="V" horiz-adv-x="1320" 
d="M1184 1419h59l-553 -1419h-72l-516 1419h64l424 -1171q20 -57 36.5 -104.5t28.5 -86.5q19 54 39 107.5t43 109.5z" />
    <glyph glyph-name="W" unicode="W" horiz-adv-x="1822" 
d="M1702 1419h59l-393 -1419h-72l-321 1106q-57 195 -66 231q-13 -42 -30.5 -99.5t-40.5 -133.5l-355 -1104h-71l-351 1419h62l299 -1224q10 -38 18 -69t13 -56l7.5 27.5t11.5 38.5q7 21 11 34.5t6 19.5l385 1209h74l350 -1192l18 -66t17 -65q6 23 15 56.5t22 78.5z" />
    <glyph glyph-name="X" unicode="X" horiz-adv-x="1196" 
d="M1126 0h-73l-455 713l-455 -713h-73l483 748l-463 671h72l436 -635l436 635h72l-463 -669z" />
    <glyph glyph-name="Y" unicode="Y" horiz-adv-x="1073" 
d="M1044 1419l-483 -794v-625h-59v633l-473 786h71l437 -731l436 731h71z" />
    <glyph glyph-name="Z" unicode="Z" horiz-adv-x="1048" 
d="M145 53h875v-53h-944v51l801 1315h-834v53h903v-51z" />
    <glyph glyph-name="bracketleft" unicode="[" horiz-adv-x="389" 
d="M338 1618h-156v-1950h156v-57h-213v2064h213v-57z" />
    <glyph glyph-name="backslash" unicode="\" horiz-adv-x="860" 
d="M784 -229h-61l-647 1890h61z" />
    <glyph glyph-name="bracketright" unicode="]" horiz-adv-x="389" 
d="M51 1675h213v-2064h-213v57h156v1950h-156v57z" />
    <glyph glyph-name="asciicircum" unicode="^" horiz-adv-x="1005" 
d="M918 733h-62l-352 746l-354 -746h-62l381 791h68z" />
    <glyph glyph-name="underscore" unicode="_" horiz-adv-x="966" 
d="M63 -117v51h840v-51h-840z" />
    <glyph glyph-name="grave" unicode="`" horiz-adv-x="1228" 
d="M322 1128h-48l-233 416h76z" />
    <glyph glyph-name="a" unicode="a" horiz-adv-x="997" 
d="M479 999q163 0 261 -95q96 -94 96 -281v-623h-58v178q-52 -89 -150 -148q-96 -59 -220 -59q-138 0 -233 77t-95 224q0 157 97 233q98 77 245 77q53 0 103.5 -10t96 -27t85.5 -41t71 -51v168q0 168 -83 246q-83 77 -216 77q-184 0 -319 -90l-29 45q145 100 348 100z
M408 29q137 0 231 70q93 68 139 173v113q-61 63 -154 103t-202 40q-118 0 -201 -65q-82 -66 -82 -191q0 -113 78 -178q79 -65 191 -65z" />
    <glyph glyph-name="b" unicode="b" horiz-adv-x="1142" 
d="M627 999q182 0 305 -136t123 -377q0 -242 -127 -378q-128 -137 -318 -137q-136 0 -233 64t-154 178v-213h-57v1522h57v-772q27 57 68 103.5t93 78.5t113 49.5t130 17.5zM610 27q75 0 141 26t122 80t88 144.5t32 208.5q0 117 -31 207.5t-85 144.5t-117.5 80t-132.5 26
q-138 0 -239.5 -78.5t-164.5 -220.5v-321q55 -142 154 -219.5t233 -77.5z" />
    <glyph glyph-name="c" unicode="c" horiz-adv-x="983" 
d="M911 129q-152 -158 -379 -158q-203 0 -323 137q-121 136 -121 377q0 231 130 373q131 141 327 141t356 -139l-41 -45q-34 31 -68.5 54.5t-69.5 40.5q-69 34 -179 34q-161 0 -277 -119q-116 -121 -116 -340q0 -228 109 -341q108 -115 273 -115q195 0 340 145z" />
    <glyph glyph-name="d" unicode="d" horiz-adv-x="1142" 
d="M920 1522h57v-1522h-57v221q-55 -115 -164 -182q-108 -68 -246 -68q-186 0 -304 136q-118 134 -118 378q0 241 128 378q127 136 316 136q132 0 231.5 -57.5t156.5 -157.5v738zM510 27q140 0 243.5 78t166.5 223v348q-54 130 -153.5 199t-234.5 69q-157 0 -269 -115
q-113 -116 -113 -344q0 -230 103 -343q103 -115 257 -115z" />
    <glyph glyph-name="e" unicode="e" horiz-adv-x="1015" 
d="M895 154l37 -48q-36 -29 -80 -53.5t-98 -43.5q-108 -38 -224 -38q-205 0 -322 137q-118 136 -118 377q0 231 126 373q126 141 319 141q176 0 286 -125q109 -125 109 -370v-12h-778v-7q0 -227 105 -341q105 -115 273 -115q210 0 365 125zM532 944q-144 0 -253 -104
q-108 -104 -125 -295h714q-11 205 -104 301q-95 98 -232 98z" />
    <glyph glyph-name="f" unicode="f" horiz-adv-x="604" 
d="M494 1497q-189 0 -191 -237v-289h334v-51h-334v-920h-57v920h-178v51h178v289q0 292 248 290q163 0 264 -82l-35 -47q-82 76 -229 76z" />
    <glyph glyph-name="g" unicode="g" horiz-adv-x="894" 
d="M610 35q69 0 123.5 -17.5t92.5 -50.5t58.5 -80.5t20.5 -107.5q0 -145 -124 -226t-328 -81q-99 0 -178 18t-133.5 53.5t-83.5 87.5t-29 121q0 82 43 142.5t121 93.5q-72 20 -106 71t-34 117q0 57 36 112.5t97 88.5q-106 97 -106 266q0 166 101 261t257 95q87 0 156 -28
h293v-51h-205q117 -97 117 -277q0 -165 -101 -263q-101 -97 -260 -97q-124 0 -213 61q-114 -59 -112 -166q0 -143 166 -143h331zM141 643q0 -145 85 -224t212 -79q129 0 214 78t85 225q0 145 -87 223t-212 78q-123 0 -210 -78t-87 -223zM453 -471q173 0 283 62
q108 63 108 188q0 96 -65 147q-66 51 -169 51h-262q-58 -5 -106 -22.5t-81.5 -46t-52 -68t-18.5 -88.5q0 -113 99 -168q97 -55 264 -55z" />
    <glyph glyph-name="h" unicode="h" horiz-adv-x="1079" 
d="M582 999q152 0 245 -96t93 -285v-618h-58v616q0 169 -80 249q-79 79 -200 79t-211.5 -66t-147.5 -184v-694h-57v1522h57v-738q51 96 146 156q95 59 213 59z" />
    <glyph glyph-name="i" unicode="i" horiz-adv-x="452" 
d="M227 1270q-27 0 -44 17.5t-17 44.5q0 26 17.5 43.5t43.5 17.5q25 0 42.5 -17.5t17.5 -43.5q0 -27 -17.5 -44.5t-42.5 -17.5zM199 0v971h57v-971h-57z" />
    <glyph glyph-name="j" unicode="j" horiz-adv-x="405" 
d="M153 1288q-14 13 -17 32t4 35.5t21.5 28t35.5 9.5q25 0 42 -17.5t17 -43.5q0 -27 -17.5 -44.5t-41.5 -17.5q-27 0 -44 18zM168 -231v1202h57v-1202q0 -258 -202 -295l-19 51q164 26 164 244z" />
    <glyph glyph-name="k" unicode="k" horiz-adv-x="919" 
d="M827 0l-350 571l-254 -272v-299h-57v1522h57v-1137l549 586h76l-330 -355l383 -616h-74z" />
    <glyph glyph-name="l" unicode="l" horiz-adv-x="389" 
d="M223 1522v-1522h-57v1522h57z" />
    <glyph glyph-name="m" unicode="m" horiz-adv-x="1710" 
d="M1229 999q145 0 233 -96q88 -95 88 -285v-618h-57v616q0 170 -75 249t-189 79q-120 0 -209 -78q-88 -78 -129 -204q1 -10 1.5 -21t0.5 -23v-618h-57v616q0 169 -77 249q-76 79 -196 79q-220 0 -332 -250v-694h-57v971h57v-189q21 49 54.5 89t76 68.5t93.5 44t108 15.5
q121 0 205 -64t113 -190q39 110 131 183q92 71 217 71z" />
    <glyph glyph-name="n" unicode="n" horiz-adv-x="1093" 
d="M598 999q150 0 243 -97t93 -284v-618h-57v616q0 170 -79 249t-200 79q-60 0 -114.5 -17.5t-101 -50t-85 -79t-66.5 -103.5v-694h-57v971h57v-189q53 98 150 158q97 59 217 59z" />
    <glyph glyph-name="o" unicode="o" horiz-adv-x="1105" 
d="M887 110q-130 -139 -334 -139t-334 139q-131 139 -131 376q0 236 131 375q131 138 334 138q204 0 334 -138q131 -139 131 -375q0 -237 -131 -376zM268 145q118 -116 285 -116q168 0 286 120q117 119 117 336q0 218 -117 339q-118 121 -286 120q-171 -1 -287 -117
t-116 -341q0 -226 118 -341z" />
    <glyph glyph-name="p" unicode="p" horiz-adv-x="1142" 
d="M623 999q184 0 308 -136t124 -377t-125 -378t-312 -137q-136 0 -240 69t-155 183v-723h-57v1471h57v-234q27 60 67.5 108.5t91.5 82.5t111.5 52.5t129.5 18.5zM618 27q147 0 257 106q56 54 87 144.5t31 207.5q0 228 -109 343q-110 116 -261 116q-136 0 -236.5 -78.5
t-163.5 -220.5v-313q27 -70 66.5 -126.5t89.5 -96.5t110 -61t129 -21z" />
    <glyph glyph-name="q" unicode="q" horiz-adv-x="1142" 
d="M920 971h57v-1471h-57v723q-57 -115 -168 -183q-111 -69 -242 -69q-186 0 -304 136q-118 134 -118 378q0 242 129 378t320 136q130 0 228 -57.5t155 -157.5v187zM510 27q140 0 243.5 78t166.5 223v348q-54 130 -151.5 199t-231.5 69q-151 0 -263 -106
q-57 -54 -90.5 -144.5t-33.5 -208.5q0 -230 103 -343q103 -115 257 -115z" />
    <glyph glyph-name="r" unicode="r" horiz-adv-x="653" 
d="M580 997q9 0 21.5 -1t29.5 -3v-59q-137 18 -249 -73t-151 -290v-571h-57v971h57v-277q34 140 130 222q95 81 219 81z" />
    <glyph glyph-name="s" unicode="s" horiz-adv-x="827" 
d="M395 469q-163 47 -239 111q-78 63 -78 182q0 114 83.5 175.5t239.5 61.5q178 0 324 -77l-31 -52q-127 76 -293 76q-264 0 -264 -184q0 -84 64.5 -139.5t206.5 -90.5q38 -10 69 -19.5t58 -20t51.5 -23t49.5 -28.5q99 -65 99 -201q0 -128 -96 -199q-95 -70 -252 -70
q-204 0 -326 76l27 53q120 -74 299 -73q68 0 121 15t90 43t56.5 67.5t19.5 87.5q0 31 -10.5 58.5t-21.5 47.5q-10 19 -39 37q-14 9 -25 16t-19 12q-16 9 -54 24q-19 7 -32 11.5t-21 6.5t-22.5 6t-34.5 10z" />
    <glyph glyph-name="t" unicode="t" horiz-adv-x="724" 
d="M682 100l31 -47q-115 -82 -246 -82q-242 0 -242 314v635h-162v51h162v323h58v-323h358v-51h-358v-635q0 -260 184 -260q119 -2 215 75z" />
    <glyph glyph-name="u" unicode="u" horiz-adv-x="1077" 
d="M846 971h57v-971h-57v186q-27 -48 -64 -87.5t-82.5 -68t-99 -44t-113.5 -15.5q-150 0 -240 97q-91 95 -91 284v619h57v-617q0 -170 78 -248q78 -79 196 -79q60 0 113 17.5t98.5 50t83 78.5t64.5 103v695z" />
    <glyph glyph-name="v" unicode="v" horiz-adv-x="944" 
d="M856 971h66l-433 -971h-63l-403 971h61l375 -903z" />
    <glyph glyph-name="w" unicode="w" horiz-adv-x="1292" 
d="M1200 971h66l-283 -971h-63l-275 885l-287 -885h-63l-268 971h61l242 -889l284 889h60l278 -889z" />
    <glyph glyph-name="x" unicode="x" horiz-adv-x="815" 
d="M791 0h-66l-307 455l-326 -455h-65l352 494l-342 477h65l316 -443l297 443h65l-321 -479z" />
    <glyph glyph-name="y" unicode="y" horiz-adv-x="913" 
d="M825 971h66l-617 -1471h-61l215 510l-405 961h61l375 -889z" />
    <glyph glyph-name="z" unicode="z" horiz-adv-x="712" 
d="M98 51h590v-51h-653v53l549 867h-566v51h633v-53z" />
    <glyph glyph-name="braceleft" unicode="{" horiz-adv-x="608" 
d="M358 1671q-70 0 -125 -49t-55 -154q0 -77 74 -278q74 -202 74 -324q0 -163 -125 -198q125 -35 125 -199q0 -122 -74 -323q-74 -202 -74 -279q0 -104 56 -154q55 -49 124 -49q106 0 179 33v-59q-92 -29 -175 -29q-103 0 -173 67q-72 67 -72 201q0 83 74 290q73 204 73 300
q0 91 -47.5 130.5t-153.5 39.5v61q105 0 153 39.5t48 130.5q0 96 -73 300q-74 207 -74 290q0 134 72 201q70 67 173 67q85 0 175 -28v-60q-73 33 -179 33z" />
    <glyph glyph-name="bar" unicode="|" horiz-adv-x="401" 
d="M229 1642v-1853h-57v1853h57z" />
    <glyph glyph-name="braceright" unicode="}" horiz-adv-x="608" 
d="M545 637q-105 0 -153 -39.5t-48 -130.5q0 -93 74 -300t74 -290q0 -133 -71 -201q-70 -67 -175 -67q-82 0 -174 29v59q72 -33 178 -33q70 0 125 49t55 154q0 79 -73 279q-74 201 -74 323q0 164 125 199q-125 35 -125 198q0 122 74 324q73 200 73 278q0 105 -55 154
t-125 49q-106 0 -178 -33v60q45 14 88.5 21.5t85.5 6.5q105 0 175 -67q71 -68 71 -201q0 -82 -74 -289t-74 -301q0 -91 47.5 -130.5t153.5 -39.5v-61z" />
    <glyph glyph-name="asciitilde" unicode="~" horiz-adv-x="950" 
d="M285 766q-89 0 -219 -125v72q102 116 221 114q74 0 195 -76q121 -77 190 -77q91 0 213 125v-76q-96 -111 -228 -111q-80 0 -196 77q-118 77 -176 77z" />
    <glyph glyph-name="exclamdown" unicode="&#xa1;" horiz-adv-x="514" 
d="M258 1012q39 0 65.5 -27t26.5 -65q0 -39 -26.5 -67t-65.5 -28q-42 0 -68 26.5t-26 68.5t26 67t68 25zM293 -436h-76l10 1083h58z" />
    <glyph glyph-name="cent" unicode="&#xa2;" horiz-adv-x="929" 
d="M891 397q-56 -59 -151 -96q-97 -37 -195 -39v-262h-56v264q-184 13 -292 150q-109 134 -109 362q0 208 113 347q113 138 288 163v244h56v-240h16q181 0 326 -116l-33 -48q-139 109 -295 109h-14v-916q197 5 317 132zM150 776q0 -210 95 -325q94 -115 244 -129v907
q-144 -25 -242 -141q-97 -116 -97 -312z" />
    <glyph glyph-name="sterling" unicode="&#xa3;" horiz-adv-x="1112" 
d="M446 55h619v-55h-973v55h291q-1 2 -17.5 64t-48.5 187q-64 248 -90 396h-174v56h166q-18 131 -18 246q0 219 121 331q120 111 317 111q203 0 383 -123l-35 -51q-157 117 -356 117q-179 0 -273 -103q-96 -103 -96 -280q0 -59 4.5 -120.5t14.5 -127.5h581v-56h-573
q14 -85 45 -218t82 -318z" />
    <glyph glyph-name="currency" unicode="&#xa4;" horiz-adv-x="1163" 
d="M1087 739q0 -250 -174 -393l146 -190l-45 -31l-144 188q-127 -82 -288 -82q-155 0 -277 76l-139 -182l-45 31l139 182q-184 142 -184 401q0 254 182 400l-137 180l45 31l137 -181q125 78 279 78q162 0 288 -84l144 187l45 -31l-146 -189q174 -145 174 -391zM135 739
q0 -212 131 -331t316 -119q182 0 314 123t132 328q0 204 -133 328t-313 124q-118 0 -216.5 -49t-164.5 -155t-66 -249z" />
    <glyph glyph-name="yen" unicode="&#xa5;" horiz-adv-x="1286" 
d="M1106 1419l-406 -651h383v-55h-415v-281h415v-55h-415v-377h-60v377h-415v55h415v281h-415v55h389l-410 651h72l397 -645l393 645h72z" />
    <glyph glyph-name="brokenbar" unicode="&#xa6;" horiz-adv-x="401" 
d="M229 1642v-839h-57v839h57zM229 629v-840h-57v840h57z" />
    <glyph glyph-name="section" unicode="&#xa7;" horiz-adv-x="1136" 
d="M850 225q82 -42 122 -99.5t40 -145.5q0 -55 -24 -104.5t-77 -92.5t-148.5 -67.5t-223.5 -24.5q-221 0 -385 92l26 53q140 -90 369 -90q115 0 200 20t142 74t57 140q0 108 -98 173q-95 63 -342 119q-373 84 -373 365q0 49 14.5 92t42 77t66 58.5t86.5 36.5
q-147 89 -147 256q0 131 96 210q95 79 315 79q243 0 447 -92l-27 -54q-169 89 -430 91q-338 0 -338 -234q0 -90 45 -146q44 -56 158 -100h2q33 -13 72.5 -24.5t85.5 -22.5q234 -56 345 -133q111 -78 111 -237q0 -103 -64 -176q-64 -75 -165 -93zM201 641q0 -111 72 -188
q71 -78 259 -125q66 -17 116 -31t85 -25q122 -19 201 48q80 68 80 172q0 119 -87 191q-87 70 -329 126q-100 25 -172 51q-112 -6 -168.5 -65.5t-56.5 -153.5z" />
    <glyph glyph-name="dieresis" unicode="&#xa8;" horiz-adv-x="1228" 
d="M58 1331q-14 13 -16.5 32t4.5 35.5t21.5 28t34.5 9.5q25 0 42.5 -17.5t17.5 -43.5q0 -27 -17.5 -44.5t-42.5 -17.5q-27 0 -44 18zM468 1331q-17 17 -17 43.5t17 44.5q17 17 44 17t44 -17q17 -18 17 -44.5t-17 -43.5q-17 -18 -44 -18t-44 18z" />
    <glyph glyph-name="copyright" unicode="&#xa9;" horiz-adv-x="1832" 
d="M121 762q0 350 216 576q216 225 578 225q360 0 579 -231q218 -233 218 -570q0 -341 -217 -568q-217 -229 -580 -229q-367 0 -580 222q-214 220 -214 575zM1651 762q0 336 -215 540q-215 203 -521 203q-303 0 -518 -203q-215 -204 -215 -540q0 -340 210 -538
q209 -199 524 -199q313 0 524 199q211 198 211 538zM1255 424q-140 -105 -321 -107q-184 0 -294 120q-110 121 -110 333q0 204 119 329q118 124 297 124q161 0 291 -88l-37 -45q-107 78 -256 77q-144 0 -248 -104q-104 -106 -104 -293q0 -198 97 -296q98 -99 245 -99
q168 0 287 98z" />
    <glyph glyph-name="guillemotleft" unicode="&#xab;" horiz-adv-x="989" 
d="M522 940l-424 -360l424 -377v-66l-477 418v45l477 406v-66zM961 1006v-66l-406 -360l406 -377v-66l-457 418v45z" />
    <glyph glyph-name="logicalnot" unicode="&#xac;" horiz-adv-x="1122" 
d="M1012 770v-428h-56v377h-854v51h910z" />
    <glyph glyph-name="registered" unicode="&#xae;" horiz-adv-x="1126" 
d="M201 1446q133 139 363 139q229 0 362 -139t133 -360q0 -223 -133 -359q-134 -137 -362 -137q-229 0 -363 137q-133 136 -133 359q0 221 133 360zM563 641q190 0 316 120q125 120 125 325q0 204 -125 326t-315 122q-191 0 -316 -122t-125 -326q0 -205 126 -325t314 -120z
M776 1202q0 -120 -123 -155l125 -207h-57l-119 198q-8 -1 -16.5 -1.5t-16.5 -0.5h-129v-196h-51v528h203q184 0 184 -166zM559 1083q162 0 162 119q0 63 -32.5 91t-104.5 28h-144v-238h119z" />
    <glyph glyph-name="macron" unicode="&#xaf;" horiz-adv-x="1228" 
d="M41 1393h674v-52h-674v52z" />
    <glyph glyph-name="degree" unicode="&#xb0;" horiz-adv-x="749" 
d="M600 905q-84 -88 -225 -88q-143 0 -225 88q-84 89 -84 228t84 227q82 88 225 88q141 0 225 -88t84 -227t-84 -228zM195 944q69 -72 180 -72q110 0 180 72q70 71 70 189q0 117 -70 188q-70 72 -180 72q-111 0 -180 -72q-70 -71 -70 -188q0 -118 70 -189z" />
    <glyph glyph-name="plusminus" unicode="&#xb1;" horiz-adv-x="1091" 
d="M518 502v340h-412v51h412v338h55v-338h412v-51h-412v-340h-55zM104 238h883v-52h-883v52z" />
    <glyph glyph-name="acute" unicode="&#xb4;" horiz-adv-x="1228" 
d="M322 1544l-234 -416h-47l205 416h76z" />
    <glyph glyph-name="paragraph" unicode="&#xb6;" horiz-adv-x="880" 
d="M596 1419h98v-1618h-57v742h-43q-111 0 -198.5 28t-147.5 84.5t-91.5 140.5t-31.5 195q0 428 471 428z" />
    <glyph glyph-name="periodcentered" unicode="&#xb7;" horiz-adv-x="440" 
d="M154 632q-27 26 -27 66q0 41 27 68q26 27 67 27q39 0 65.5 -28t26.5 -67t-26.5 -65.5t-65.5 -26.5q-41 0 -67 26z" />
    <glyph glyph-name="cedilla" unicode="&#xb8;" horiz-adv-x="1228" 
d="M393 -182q91 0 144 -50t53 -141q0 -105 -75 -160q-74 -55 -187 -55q-138 0 -226 70l25 51q77 -68 201 -68q93 0 148.5 42.5t55.5 123.5q0 60 -37.5 96.5t-103.5 36.5q-105 0 -166 -61l-53 25l121 286h63l-104 -231q64 35 141 35z" />
    <glyph glyph-name="guillemotright" unicode="&#xbb;" horiz-adv-x="989" 
d="M485 600v-45l-456 -418v66l403 377l-403 360v66zM467 1006l477 -406v-45l-477 -418v66l424 377l-424 360v66z" />
    <glyph glyph-name="questiondown" unicode="&#xbf;" horiz-adv-x="1011" 
d="M567 825q-39 0 -65.5 28t-26.5 67q0 38 26.5 65t65.5 27q42 0 68.5 -25t26.5 -67t-26.5 -68.5t-68.5 -26.5zM918 -233l30 -46q-34 -38 -79 -70.5t-102 -60.5q-113 -55 -245 -55q-163 0 -276 96q-113 98 -113 275q0 181 112 290q110 108 287 119l5 271h57l8 -324h-33
q-161 0 -268 -95q-106 -94 -106 -259q0 -154 95 -235t234 -81q225 2 394 175z" />
    <glyph glyph-name="Agrave" unicode="&#xc0;" horiz-adv-x="1222" 
d="M623 1571h-56l-276 418h76zM1098 0l-144 393h-692l-141 -393h-60l508 1419h72l520 -1419h-63zM281 446h655l-332 904z" />
    <glyph glyph-name="Aacute" unicode="&#xc1;" horiz-adv-x="1222" 
d="M905 1989l-276 -418h-56l256 418h76zM1098 0l-144 393h-692l-141 -393h-60l508 1419h72l520 -1419h-63zM281 446h655l-332 904z" />
    <glyph glyph-name="Acircumflex" unicode="&#xc2;" horiz-adv-x="1222" 
d="M600 1939l-240 -385h-57l258 435h74l260 -435h-57zM1098 0l-144 393h-692l-141 -393h-60l508 1419h72l520 -1419h-63zM281 446h655l-332 904z" />
    <glyph glyph-name="Atilde" unicode="&#xc3;" horiz-adv-x="1222" 
d="M307 1571h-49q-13 375 145 375q20 0 42 -8.5t37 -17.5q15 -10 36 -31q11 -11 18.5 -20l12.5 -15q5 -7 13.5 -17.5t20.5 -24.5q11 -15 19 -25l12 -15t12.5 -15.5t21.5 -27.5t22.5 -28t14.5 -17q5 -7 13 -14.5t19 -17.5q20 -20 36.5 -27t34.5 -7q109 0 103 326h49
q6 -199 -34 -289t-124 -90q-20 0 -41.5 9t-36.5 20q-15 10 -38 34l-20 20t-14 15t-14.5 17t-22.5 27t-21.5 26.5t-12.5 15.5l-12 15t-20 26q-13 16 -21.5 26.5t-13.5 15.5l-12.5 12.5t-16.5 17.5q-19 18 -34 24t-30 6q-53 0 -74.5 -76.5t-19.5 -244.5zM1098 0l-144 393h-692
l-141 -393h-60l508 1419h72l520 -1419h-63zM281 446h655l-332 904z" />
    <glyph glyph-name="Adieresis" unicode="&#xc4;" horiz-adv-x="1222" 
d="M430 1638q-29 0 -47 19.5t-18 47.5t18 46t47 18q27 0 45.5 -18t18.5 -46t-18.5 -47.5t-45.5 -19.5zM778 1638q-29 0 -47 19.5t-18 47.5t18.5 46t46.5 18q29 0 47.5 -18t18.5 -46t-18.5 -47.5t-47.5 -19.5zM1098 0l-144 393h-692l-141 -393h-60l508 1419h72l520 -1419h-63
zM281 446h655l-332 904z" />
    <glyph glyph-name="Aring" unicode="&#xc5;" horiz-adv-x="1222" 
d="M761 1629q-62 -62 -157 -62q-96 0 -156 62q-61 61 -61 155q0 96 62 158q61 61 155 61t156 -62q61 -62 61 -157q0 -93 -60 -155zM720 1906q-44 44 -116 44q-73 0 -116 -46q-44 -47 -44 -120q0 -76 44 -119t116 -43t116 43t44 119q0 78 -44 122zM1098 0l-144 393h-692
l-141 -393h-60l508 1419h72l520 -1419h-63zM281 446h655l-332 904z" />
    <glyph glyph-name="AE" unicode="&#xc6;" horiz-adv-x="1671" 
d="M1559 1366h-680l26 -586h502v-53h-500l31 -674h621v-53h-680l-17 393h-581l-172 -393h-60l617 1419h893v-53zM860 446l-41 920h-110l-404 -920h555z" />
    <glyph glyph-name="Ccedilla" unicode="&#xc7;" horiz-adv-x="1380" 
d="M1313 279q-195 -284 -541 -306l-82 -186q62 37 141 37q91 0 144 -50t53 -141q0 -105 -74 -161q-75 -54 -188 -54q-137 0 -225 70l24 51q78 -68 201 -67q92 0 148.5 42t56.5 124q0 57 -38 95t-104 38q-103 0 -165 -62l-54 25l101 237q-287 0 -458 198t-171 540
q0 335 197 537q197 200 495 200q304 0 506 -193l-43 -43q-183 177 -463 179q-276 0 -453 -185q-178 -185 -178 -495q0 -311 157 -495q158 -185 411 -185q196 0 327 73q130 72 228 215z" />
    <glyph glyph-name="Egrave" unicode="&#xc8;" horiz-adv-x="1202" 
d="M610 1571h-55l-276 418h75zM1090 1366h-826v-586h674v-53h-674v-674h826v-53h-885v1419h885v-53z" />
    <glyph glyph-name="Eacute" unicode="&#xc9;" horiz-adv-x="1202" 
d="M893 1989l-277 -418h-55l256 418h76zM1090 1366h-826v-586h674v-53h-674v-674h826v-53h-885v1419h885v-53z" />
    <glyph glyph-name="Ecircumflex" unicode="&#xca;" horiz-adv-x="1202" 
d="M588 1939l-240 -385h-57l258 435h74l260 -435h-58zM1090 1366h-826v-586h674v-53h-674v-674h826v-53h-885v1419h885v-53z" />
    <glyph glyph-name="Edieresis" unicode="&#xcb;" horiz-adv-x="1202" 
d="M418 1638q-29 0 -47.5 19.5t-18.5 47.5t18.5 46t47.5 18q27 0 45 -18t18 -46t-18 -47.5t-45 -19.5zM766 1638q-29 0 -47.5 19.5t-18.5 47.5t18.5 46t47.5 18t47 -18t18 -46t-18 -47.5t-47 -19.5zM1090 1366h-826v-586h674v-53h-674v-674h826v-53h-885v1419h885v-53z" />
    <glyph glyph-name="Igrave" unicode="&#xcc;" horiz-adv-x="468" 
d="M199 1571l-277 418h76l256 -418h-55zM264 1419v-1419h-59v1419h59z" />
    <glyph glyph-name="Iacute" unicode="&#xcd;" horiz-adv-x="468" 
d="M537 1989l-277 -418h-55l256 418h76zM264 1419v-1419h-59v1419h59z" />
    <glyph glyph-name="Icircumflex" unicode="&#xce;" horiz-adv-x="468" 
d="M266 1989l260 -435h-57l-238 385l-239 -385h-58l259 435h73zM205 0v1419h59v-1419h-59z" />
    <glyph glyph-name="Idieresis" unicode="&#xcf;" horiz-adv-x="468" 
d="M61 1638q-29 0 -47 19.5t-18 47.5t18.5 46t46.5 18q27 0 45.5 -18t18.5 -46t-18.5 -47.5t-45.5 -19.5zM410 1638q-29 0 -47.5 19.5t-18.5 47.5t18.5 46t47.5 18t47 -18t18 -46t-18 -47.5t-47 -19.5zM264 1419v-1419h-59v1419h59z" />
    <glyph glyph-name="Eth" unicode="&#xd0;" horiz-adv-x="1443" 
d="M596 1419q339 0 535 -171t196 -513q0 -347 -198 -541q-200 -194 -533 -194h-371v705h-188v51h188v663h371zM596 53q305 0 488 184q182 184 182 498q0 309 -179 470q-181 161 -491 161h-311v-610h426v-51h-426v-652h311z" />
    <glyph glyph-name="Ntilde" unicode="&#xd1;" horiz-adv-x="1402" 
d="M406 1571h-50q-13 375 146 375q20 0 41.5 -8.5t36.5 -17.5q15 -10 36 -31q11 -11 18.5 -20l12.5 -15q5 -7 13.5 -17.5t20.5 -24.5l20 -25l12 -15t12.5 -15.5t21.5 -27.5t22 -28t15 -17q5 -7 13 -14.5t19 -17.5q20 -20 36 -27t35 -7q110 0 102 326h49q6 -199 -33.5 -289
t-123.5 -90q-20 0 -42 9t-37 20q-15 10 -38 34l-20 20t-14 15t-14 17t-22 27t-21.5 26.5t-12.5 15.5q-5 5 -13 15t-20 26q-13 16 -21.5 26.5t-13.5 15.5t-12 12.5t-16 17.5q-19 18 -34.5 24t-29.5 6q-53 0 -74.5 -76.5t-19.5 -244.5zM1141 1419h57v-1419h-63l-873 1313
v-1313h-57v1419h59l877 -1319v1319z" />
    <glyph glyph-name="Ograve" unicode="&#xd2;" horiz-adv-x="1503" 
d="M715 1571l-277 418h76l256 -418h-55zM752 -29q-298 0 -486 204q-188 205 -188 550q0 331 192 527q190 196 482 196q289 0 481 -194q192 -195 192 -529q0 -352 -186 -553t-487 -201zM752 29q274 0 443 189q169 187 169 507q0 304 -172 485t-440 181q-269 0 -441 -181
t-172 -485q0 -316 173 -506q172 -190 440 -190z" />
    <glyph glyph-name="Oacute" unicode="&#xd3;" horiz-adv-x="1503" 
d="M1053 1989l-277 -418h-55l256 418h76zM752 -29q-298 0 -486 204q-188 205 -188 550q0 331 192 527q190 196 482 196q289 0 481 -194q192 -195 192 -529q0 -352 -186 -553t-487 -201zM752 29q274 0 443 189q169 187 169 507q0 304 -172 485t-440 181q-269 0 -441 -181
t-172 -485q0 -316 173 -506q172 -190 440 -190z" />
    <glyph glyph-name="Ocircumflex" unicode="&#xd4;" horiz-adv-x="1503" 
d="M748 1939l-240 -385h-57l258 435h73l260 -435h-57zM752 1448q140 0 262.5 -48.5t213.5 -139.5t144 -228.5t53 -306.5q0 -352 -186 -553t-487 -201q-298 0 -486 204q-188 205 -188 550q0 331 192 527q190 196 482 196zM752 29q274 0 443 189q169 187 169 507
q0 304 -172 485t-440 181q-269 0 -441 -181t-172 -485q0 -316 173 -506q172 -190 440 -190z" />
    <glyph glyph-name="Otilde" unicode="&#xd5;" horiz-adv-x="1503" 
d="M549 1892q-53 0 -74.5 -76.5t-19.5 -244.5h-49q-13 375 145 375q20 0 41.5 -8.5t36.5 -17.5q15 -10 36 -31q22 -24 32 -35q5 -7 13.5 -17.5t20.5 -24.5q11 -15 19 -25l12 -15t12.5 -15.5t21.5 -27.5t22 -28t15 -17q5 -7 13 -14.5t19 -17.5q20 -20 36.5 -27t34.5 -7
q110 0 102 326h49q6 -199 -33.5 -289t-123.5 -90q-20 0 -42 9t-37 20q-15 10 -37 34l-20 20t-14 15q-6 6 -15 17t-22 27t-21.5 26.5t-12.5 15.5q-5 5 -13 15t-20 26q-13 16 -21.5 26.5t-13.5 15.5t-12 12.5t-16 17.5q-19 18 -34.5 24t-29.5 6zM752 -29q-298 0 -486 204
q-188 205 -188 550q0 331 192 527q190 196 482 196q140 0 261 -48.5t214 -139.5t145.5 -228.5t52.5 -306.5q0 -352 -186 -553t-487 -201zM752 29q274 0 443 189q169 187 169 507q0 304 -172 485t-440 181q-269 0 -441 -181t-172 -485q0 -316 173 -506q172 -190 440 -190z
" />
    <glyph glyph-name="Odieresis" unicode="&#xd6;" horiz-adv-x="1503" 
d="M578 1638q-29 0 -47.5 19.5t-18.5 47.5t18.5 46t47.5 18q27 0 45 -18t18 -46t-18 -47.5t-45 -19.5zM926 1638q-29 0 -47.5 19.5t-18.5 47.5t18.5 46t47.5 18t47 -18t18 -46t-18 -47.5t-47 -19.5zM752 -29q-298 0 -486 204q-188 205 -188 550q0 331 192 527
q190 196 482 196q289 0 481 -194q192 -195 192 -529q0 -352 -186 -553t-487 -201zM752 29q274 0 443 189q169 187 169 507q0 304 -172 485t-440 181q-269 0 -441 -181t-172 -485q0 -316 173 -506q172 -190 440 -190z" />
    <glyph glyph-name="multiply" unicode="&#xd7;" horiz-adv-x="1028" 
d="M897 1075l-348 -370l348 -373l-37 -35l-346 369l-346 -369l-37 35l348 373l-348 370l37 35l346 -369l346 369z" />
    <glyph glyph-name="Oslash" unicode="&#xd8;" horiz-adv-x="1503" 
d="M1430 1370l-156 -164q152 -195 151 -481q0 -352 -186 -553t-487 -201q-287 0 -471 187l-158 -168l-45 41l164 172q-164 203 -164 522q0 331 192 527q190 196 482 196q295 0 483 -197l151 160zM139 725q0 -287 146 -475l907 958q-169 181 -440 183q-268 0 -440 -181
q-173 -182 -173 -485zM1364 725q0 261 -133 436l-905 -956q168 -176 426 -176q274 0 443 189q169 187 169 507z" />
    <glyph glyph-name="Ugrave" unicode="&#xd9;" horiz-adv-x="1443" 
d="M686 1571l-276 418h75l256 -418h-55zM723 -29q-229 0 -373 160q-145 160 -145 430v858h59v-858q0 -242 129 -386t330 -144q205 0 331 143t126 387v858h59v-858q0 -275 -142 -432q-143 -158 -374 -158z" />
    <glyph glyph-name="Uacute" unicode="&#xda;" horiz-adv-x="1443" 
d="M1024 1989l-276 -418h-56l256 418h76zM723 -29q-229 0 -373 160q-145 160 -145 430v858h59v-858q0 -242 129 -386t330 -144q205 0 331 143t126 387v858h59v-858q0 -275 -142 -432q-143 -158 -374 -158z" />
    <glyph glyph-name="Ucircumflex" unicode="&#xdb;" horiz-adv-x="1443" 
d="M719 1939l-240 -385h-57l258 435h74l260 -435h-58zM1180 1419h59v-858q0 -275 -142 -432q-143 -158 -373 -158t-374 160q-145 160 -145 430v858h59v-858q0 -242 129 -386t330 -144q205 0 331 143t126 387v858z" />
    <glyph glyph-name="Udieresis" unicode="&#xdc;" horiz-adv-x="1443" 
d="M549 1638q-29 0 -47.5 19.5t-18.5 47.5t18.5 46t47.5 18q27 0 45 -18t18 -46t-18 -47.5t-45 -19.5zM897 1638q-29 0 -47.5 19.5t-18.5 47.5t18.5 46t47.5 18t47.5 -18t18.5 -46t-18.5 -47.5t-47.5 -19.5zM723 -29q-229 0 -373 160q-145 160 -145 430v858h59v-858
q0 -242 129 -386t330 -144q205 0 331 143t126 387v858h59v-858q0 -275 -142 -432q-143 -158 -374 -158z" />
    <glyph glyph-name="Yacute" unicode="&#xdd;" horiz-adv-x="1073" 
d="M838 1989l-277 -418h-55l256 418h76zM1044 1419l-483 -794v-625h-59v633l-473 786h71l437 -731l436 731h71z" />
    <glyph glyph-name="Thorn" unicode="&#xde;" horiz-adv-x="1153" 
d="M604 1112q213 0 328 -97t115 -286q0 -190 -116 -295q-115 -106 -327 -106h-340v-328h-59v1419h59v-307h340zM606 381q173 0 277 92q102 92 102 256q0 81 -26 142.5t-74.5 103.5t-119 63t-159.5 21h-342v-678h342z" />
    <glyph glyph-name="germandbls" unicode="&#xdf;" horiz-adv-x="1058" 
d="M641 772q140 -33 228 -144q89 -113 89 -268q0 -186 -99 -282q-100 -97 -267 -101q-54 -1 -106.5 7.5t-106.5 27.5l10 62q90 -39 203 -39q150 0 227.5 86t77.5 239q0 172 -105 278q-106 105 -290 105h-49v52h69q127 0 229 102q101 103 101 270q0 157 -90 242
q-91 86 -225 86q-72 0 -126.5 -18.5t-102.5 -64.5t-73.5 -136.5t-25.5 -224.5v-1051h-57v1026q0 301 106 417q54 59 122 83t161 24q147 0 257 -89q54 -45 84.5 -121.5t30.5 -178.5q0 -143 -83 -253q-82 -110 -189 -136z" />
    <glyph glyph-name="agrave" unicode="&#xe0;" horiz-adv-x="997" 
d="M522 1128h-47l-233 416h75zM479 999q163 0 261 -95q96 -94 96 -281v-623h-58v178q-52 -89 -150 -148q-96 -59 -220 -59q-138 0 -233 77t-95 224q0 157 97 233q98 77 245 77q53 0 103.5 -10t96 -27t85.5 -41t71 -51v168q0 168 -83 246q-83 77 -216 77q-184 0 -319 -90
l-29 45q145 100 348 100zM408 29q137 0 231 70q93 68 139 173v113q-61 63 -154 103t-202 40q-118 0 -201 -65q-82 -66 -82 -191q0 -113 78 -178q79 -65 191 -65z" />
    <glyph glyph-name="aacute" unicode="&#xe1;" horiz-adv-x="997" 
d="M762 1544l-234 -416h-47l205 416h76zM479 999q163 0 261 -95q96 -94 96 -281v-623h-58v178q-52 -89 -150 -148q-96 -59 -220 -59q-138 0 -233 77t-95 224q0 157 97 233q98 77 245 77q53 0 103.5 -10t96 -27t85.5 -41t71 -51v168q0 168 -83 246q-83 77 -216 77
q-184 0 -319 -90l-29 45q145 100 348 100zM408 29q137 0 231 70q93 68 139 173v113q-61 63 -154 103t-202 40q-118 0 -201 -65q-82 -66 -82 -191q0 -113 78 -178q79 -65 191 -65z" />
    <glyph glyph-name="acircumflex" unicode="&#xe2;" horiz-adv-x="997" 
d="M500 1524l-242 -396h-53l258 435h74l258 -435h-54zM479 999q163 0 261 -95q96 -94 96 -281v-623h-58v178q-52 -89 -150 -148q-96 -59 -220 -59q-138 0 -233 77t-95 224q0 157 97 233q98 77 245 77q53 0 103.5 -10t96 -27t85.5 -41t71 -51v168q0 168 -83 246
q-83 77 -216 77q-184 0 -319 -90l-29 45q145 100 348 100zM408 29q137 0 231 70q93 68 139 173v113q-61 63 -154 103t-202 40q-118 0 -201 -65q-82 -66 -82 -191q0 -113 78 -178q79 -65 191 -65z" />
    <glyph glyph-name="atilde" unicode="&#xe3;" horiz-adv-x="997" 
d="M209 1157h-49q-8 197 29.5 286t121.5 89q27 0 52.5 -12t55.5 -44q15 -16 25.5 -28.5t17.5 -20.5q7 -9 19 -25.5t31 -39.5q20 -26 34.5 -46t25.5 -34q19 -26 54 -52q34 -26 62 -26q110 0 105 326h49q10 -379 -160 -379q-31 0 -59.5 13.5t-61.5 48.5q-17 17 -28.5 30
t-18.5 23q-7 9 -20 26t-33 43q-17 25 -30.5 43t-23.5 30q-18 22 -47 48q-29 23 -51 23q-57 0 -80.5 -77t-19.5 -245zM479 999q163 0 261 -95q96 -94 96 -281v-623h-58v178q-52 -89 -150 -148q-96 -59 -220 -59q-138 0 -233 77t-95 224q0 157 97 233q98 77 245 77
q53 0 103.5 -10t96 -27t85.5 -41t71 -51v168q0 168 -83 246q-83 77 -216 77q-184 0 -319 -90l-29 45q145 100 348 100zM408 29q137 0 231 70q93 68 139 173v113q-61 63 -154 103t-202 40q-118 0 -201 -65q-82 -66 -82 -191q0 -113 78 -178q79 -65 191 -65z" />
    <glyph glyph-name="adieresis" unicode="&#xe4;" horiz-adv-x="997" 
d="M295 1313q-27 0 -44.5 17.5t-17.5 44.5q0 26 17.5 43.5t44.5 17.5q25 0 42 -17.5t17 -43.5q0 -27 -17 -44.5t-42 -17.5zM749 1331q-18 -18 -44.5 -18t-43.5 18q-18 17 -18 43.5t18 44.5q17 17 43.5 17t44.5 -17q17 -18 17 -44.5t-17 -43.5zM479 999q163 0 261 -95
q96 -94 96 -281v-623h-58v178q-52 -89 -150 -148q-96 -59 -220 -59q-138 0 -233 77t-95 224q0 157 97 233q98 77 245 77q53 0 103.5 -10t96 -27t85.5 -41t71 -51v168q0 168 -83 246q-83 77 -216 77q-184 0 -319 -90l-29 45q145 100 348 100zM408 29q137 0 231 70
q93 68 139 173v113q-61 63 -154 103t-202 40q-118 0 -201 -65q-82 -66 -82 -191q0 -113 78 -178q79 -65 191 -65z" />
    <glyph glyph-name="aring" unicode="&#xe5;" horiz-adv-x="997" 
d="M657 1266q-62 -62 -157 -62q-97 0 -157 62t-60 155q0 96 62 158q61 61 155 61t156 -62q61 -61 61 -156q0 -94 -60 -156zM615 1543q-44 44 -115 44q-73 0 -116 -46q-44 -47 -44 -120q0 -76 44 -118.5t116 -42.5t115.5 43t43.5 118q0 78 -44 122zM479 999q163 0 261 -95
q96 -94 96 -281v-623h-58v178q-52 -89 -150 -148q-96 -59 -220 -59q-138 0 -233 77t-95 224q0 157 97 233q98 77 245 77q53 0 103.5 -10t96 -27t85.5 -41t71 -51v168q0 168 -83 246q-83 77 -216 77q-184 0 -319 -90l-29 45q145 100 348 100zM408 29q137 0 231 70
q93 68 139 173v113q-61 63 -154 103t-202 40q-118 0 -201 -65q-82 -66 -82 -191q0 -113 78 -178q79 -65 191 -65z" />
    <glyph glyph-name="ae" unicode="&#xe6;" horiz-adv-x="1693" 
d="M1573 154l37 -48q-36 -29 -80 -53.5t-97 -43.5q-108 -38 -219 -38q-146 0 -247 68.5t-150 196.5q-50 -122 -161 -193q-112 -72 -248 -72q-138 0 -233 77t-95 224q0 157 97 233q98 77 245 77q53 0 103.5 -10t96 -27t85.5 -41t71 -51v168q0 168 -83 246q-83 77 -216 77
q-184 0 -319 -90l-29 45q145 100 348 100q136 0 227 -66t119 -196q54 124 154.5 193t232.5 69q176 0 286 -125q110 -127 110 -370v-12h-770v-7q0 -230 103 -342q104 -114 273 -114q204 0 359 125zM1210 944q-148 0 -251 -103q-105 -104 -119 -296h704q-8 204 -102 301
q-95 98 -232 98zM408 29q137 0 231 70q93 68 139 173v113q-61 63 -154 103t-202 40q-118 0 -201 -65q-82 -66 -82 -191q0 -113 78 -178q79 -65 191 -65z" />
    <glyph glyph-name="ccedilla" unicode="&#xe7;" horiz-adv-x="983" 
d="M911 129q-143 -150 -358 -158l-86 -188q67 35 141 35q93 0 145 -50t52 -141q0 -104 -74 -160q-73 -55 -188 -55q-138 0 -226 70l25 51q79 -68 201 -68q94 0 149.5 42.5t55.5 123.5q0 60 -36.5 96.5t-105.5 36.5q-105 0 -166 -61l-53 25l105 245q-185 13 -295 150
q-109 134 -109 362q0 231 130 373q131 141 327 141t356 -139l-41 -45q-34 31 -68.5 54.5t-69.5 40.5q-69 34 -179 34q-161 0 -277 -119q-116 -121 -116 -340q0 -228 109 -341q108 -115 273 -115q195 0 340 145z" />
    <glyph glyph-name="egrave" unicode="&#xe8;" horiz-adv-x="1015" 
d="M553 1128h-47l-234 416h76zM895 154l37 -48q-36 -29 -80 -53.5t-98 -43.5q-108 -38 -224 -38q-205 0 -322 137q-118 136 -118 377q0 231 126 373q126 141 319 141q176 0 286 -125q109 -125 109 -370v-12h-778v-7q0 -227 105 -341q105 -115 273 -115q210 0 365 125z
M532 944q-144 0 -253 -104q-108 -104 -125 -295h714q-11 205 -104 301q-95 98 -232 98z" />
    <glyph glyph-name="eacute" unicode="&#xe9;" horiz-adv-x="1015" 
d="M793 1544l-234 -416h-47l205 416h76zM895 154l37 -48q-36 -29 -80 -53.5t-98 -43.5q-108 -38 -224 -38q-205 0 -322 137q-118 136 -118 377q0 231 126 373q126 141 319 141q176 0 286 -125q109 -125 109 -370v-12h-778v-7q0 -227 105 -341q105 -115 273 -115
q210 0 365 125zM532 944q-144 0 -253 -104q-108 -104 -125 -295h714q-11 205 -104 301q-95 98 -232 98z" />
    <glyph glyph-name="ecircumflex" unicode="&#xea;" horiz-adv-x="1015" 
d="M530 1524l-239 -396h-58l259 435h73l262 -435h-57zM895 154l37 -48q-36 -29 -80 -53.5t-98 -43.5q-108 -38 -224 -38q-205 0 -322 137q-118 136 -118 377q0 231 126 373q126 141 319 141q176 0 286 -125q109 -125 109 -370v-12h-778v-7q0 -227 105 -341
q105 -115 273 -115q210 0 365 125zM532 944q-144 0 -253 -104q-108 -104 -125 -295h714q-11 205 -104 301q-95 98 -232 98z" />
    <glyph glyph-name="edieresis" unicode="&#xeb;" horiz-adv-x="1015" 
d="M326 1313q-27 0 -44.5 17.5t-17.5 44.5q0 26 17.5 43.5t44.5 17.5q25 0 42 -17.5t17 -43.5q0 -27 -17 -44.5t-42 -17.5zM780 1331q-18 -18 -44.5 -18t-43.5 18q-18 17 -18 43.5t18 44.5q17 17 43.5 17t44.5 -17q17 -18 17 -44.5t-17 -43.5zM895 154l37 -48
q-36 -29 -80 -53.5t-98 -43.5q-108 -38 -224 -38q-205 0 -322 137q-118 136 -118 377q0 231 126 373q126 141 319 141q176 0 286 -125q109 -125 109 -370v-12h-778v-7q0 -227 105 -341q105 -115 273 -115q210 0 365 125zM532 944q-144 0 -253 -104q-108 -104 -125 -295h714
q-11 205 -104 301q-95 98 -232 98z" />
    <glyph glyph-name="igrave" unicode="&#xec;" horiz-adv-x="450" 
d="M248 1128h-47l-234 416h76zM254 971v-971h-57v971h57z" />
    <glyph glyph-name="iacute" unicode="&#xed;" horiz-adv-x="450" 
d="M487 1544l-233 -416h-47l205 416h75zM254 971v-971h-57v971h57z" />
    <glyph glyph-name="icircumflex" unicode="&#xee;" horiz-adv-x="450" 
d="M262 1563l258 -435h-53l-242 396l-241 -396h-54l258 435h74zM197 0v971h57v-971h-57z" />
    <glyph glyph-name="idieresis" unicode="&#xef;" horiz-adv-x="450" 
d="M-24 1331q-14 13 -16.5 32t4.5 35.5t21.5 28t34.5 9.5q25 0 42.5 -17.5t17.5 -43.5q0 -27 -17.5 -44.5t-42.5 -17.5q-28 0 -44 18zM386 1331q-17 17 -17 43.5t17 44.5q17 17 44 17t45 -17q17 -18 17 -44.5t-17 -43.5q-18 -18 -45 -18t-44 18zM254 971v-971h-57v971h57z
" />
    <glyph glyph-name="eth" unicode="&#xf0;" horiz-adv-x="1056" 
d="M788 1235q175 -207 177 -533q0 -373 -125 -552t-348 -179q-185 0 -298 128q-112 127 -112 329q0 196 113 315q113 117 305 117q147 0 252 -87q104 -88 143 -228q4 42 6 81t2 76q0 310 -166 500l-409 -262l-29 45l401 258q-208 201 -575 201l-2 57q399 0 627 -225l182 117
l31 -45zM492 29q163 0 263 118q101 118 101 279q0 163 -106 269t-250 106q-157 0 -255 -98q-98 -100 -98 -273q0 -175 98 -288t247 -113z" />
    <glyph glyph-name="ntilde" unicode="&#xf1;" horiz-adv-x="1093" 
d="M256 1157h-49q-8 197 29.5 286t121.5 89q27 0 52.5 -12t55.5 -44q15 -16 25.5 -28.5t17.5 -20.5q7 -9 19 -25.5t31 -39.5q20 -26 34.5 -46t25.5 -34q19 -26 54 -52t62 -26q110 0 105 326h49q10 -379 -160 -379q-31 0 -59.5 13.5t-61.5 48.5q-17 17 -28.5 30t-18.5 23
q-7 9 -20 26t-33 43q-17 25 -30.5 43t-23.5 30q-18 22 -47 48q-29 23 -51 23q-57 0 -80.5 -77t-19.5 -245zM598 999q150 0 243 -96t93 -285v-618h-57v616q0 169 -80 249q-79 79 -199 79q-60 0 -114.5 -17.5t-101 -50t-85 -79t-66.5 -103.5v-694h-57v971h57v-189
q53 98 150 158q97 59 217 59z" />
    <glyph glyph-name="ograve" unicode="&#xf2;" horiz-adv-x="1105" 
d="M575 1128h-47l-233 416h76zM887 110q-130 -139 -334 -139t-334 139q-131 139 -131 376q0 236 131 375q131 138 334 138q204 0 334 -138q131 -139 131 -375q0 -237 -131 -376zM268 145q118 -116 285 -116q168 0 286 120q117 119 117 336q0 218 -117 339q-118 121 -286 120
q-171 -1 -287 -117t-116 -341q0 -226 118 -341z" />
    <glyph glyph-name="oacute" unicode="&#xf3;" horiz-adv-x="1105" 
d="M815 1544l-233 -416h-47l204 416h76zM887 110q-130 -139 -334 -139t-334 139q-131 139 -131 376q0 236 131 375q131 138 334 138q204 0 334 -138q131 -139 131 -375q0 -237 -131 -376zM268 145q118 -116 285 -116q168 0 286 120q117 119 117 336q0 218 -117 339
q-118 121 -286 120q-171 -1 -287 -117t-116 -341q0 -226 118 -341z" />
    <glyph glyph-name="ocircumflex" unicode="&#xf4;" horiz-adv-x="1105" 
d="M553 1524l-242 -396h-53l258 435h74l258 -435h-53zM219 861q131 138 334 138q204 0 334 -138q131 -139 131 -375q0 -237 -131 -376q-130 -139 -334 -139t-334 139q-131 139 -131 376q0 236 131 375zM268 145q118 -116 285 -116q168 0 286 120q117 119 117 336
q0 218 -117 339q-118 121 -286 120q-171 -1 -287 -117t-116 -341q0 -226 118 -341z" />
    <glyph glyph-name="otilde" unicode="&#xf5;" horiz-adv-x="1105" 
d="M362 1479q-57 0 -80.5 -77t-19.5 -245h-49q-8 197 30 286t122 89q27 0 52 -12t55 -44q15 -16 25.5 -28.5t17.5 -20.5q7 -9 19 -25.5t31 -39.5q20 -26 34.5 -46t25.5 -34q19 -26 54 -52t62 -26q110 0 105 326h49q10 -379 -160 -379q-31 0 -59.5 13.5t-60.5 48.5
q-17 17 -28.5 30t-18.5 23q-15 18 -54 69q-17 25 -30.5 43t-23.5 30q-18 22 -47 48q-29 23 -51 23zM887 110q-130 -139 -334 -139t-334 139q-131 139 -131 376q0 236 131 375q131 138 334 138q204 0 334 -138q131 -139 131 -375q0 -237 -131 -376zM553 29q168 0 286 120
q117 119 117 336q0 218 -117 339q-118 121 -286 120q-171 -1 -287 -117t-116 -342q0 -115 33.5 -204.5t91.5 -143.5q116 -108 278 -108z" />
    <glyph glyph-name="odieresis" unicode="&#xf6;" horiz-adv-x="1105" 
d="M304 1331q-14 13 -16.5 32t4.5 35.5t21.5 28t34.5 9.5q25 0 42.5 -17.5t17.5 -43.5q0 -27 -17.5 -44.5t-42.5 -17.5q-27 0 -44 18zM714 1331q-18 17 -18 43.5t18 44.5q17 17 43.5 17t44.5 -17q17 -18 17 -44.5t-17 -43.5q-18 -18 -44.5 -18t-43.5 18zM887 110
q-130 -139 -334 -139t-334 139q-131 139 -131 376q0 236 131 375q131 138 334 138q204 0 334 -138q131 -139 131 -375q0 -237 -131 -376zM268 145q118 -116 285 -116q168 0 286 120q117 119 117 336q0 218 -117 339q-118 121 -286 120q-171 -1 -287 -117t-116 -341
q0 -226 118 -341z" />
    <glyph glyph-name="divide" unicode="&#xf7;" horiz-adv-x="1142" 
d="M512 1007q-27 26 -27 66q0 41 27 68q28 26 68 26q39 0 65.5 -27.5t26.5 -66.5t-27 -65.5t-65 -26.5q-40 0 -68 26zM84 733h975v-51h-975v51zM512 272q-27 26 -27 66q0 41 27 68q28 26 68 26q39 0 65.5 -27.5t26.5 -66.5t-27 -65.5t-65 -26.5q-40 0 -68 26z" />
    <glyph glyph-name="oslash" unicode="&#xf8;" horiz-adv-x="1105" 
d="M858 889q160 -141 160 -404q0 -237 -131 -376q-130 -138 -334 -138q-145 0 -256 72l-92 -141l-45 32l94 142q-166 141 -166 409q0 237 131 376q131 138 334 138q147 0 262 -75l88 133l45 -31zM150 485q0 -236 137 -358l495 747q-100 72 -229 70q-170 -1 -287 -118
q-116 -116 -116 -341zM553 29q168 0 286 120q117 119 117 336q0 225 -131 353l-495 -746q98 -63 223 -63z" />
    <glyph glyph-name="ugrave" unicode="&#xf9;" horiz-adv-x="1077" 
d="M561 1128h-47l-233 416h75zM846 971h57v-971h-57v186q-27 -48 -64 -87.5t-82.5 -68t-99 -44t-113.5 -15.5q-150 0 -240 97q-91 95 -91 284v619h57v-617q0 -170 78 -248q78 -79 196 -79q60 0 113 17.5t98.5 50t83 78.5t64.5 103v695z" />
    <glyph glyph-name="uacute" unicode="&#xfa;" horiz-adv-x="1077" 
d="M801 1544l-234 -416h-47l205 416h76zM846 971h57v-971h-57v186q-27 -48 -64 -87.5t-82.5 -68t-99 -44t-113.5 -15.5q-150 0 -240 97q-91 95 -91 284v619h57v-617q0 -170 78 -248q78 -79 196 -79q60 0 113 17.5t98.5 50t83 78.5t64.5 103v695z" />
    <glyph glyph-name="ucircumflex" unicode="&#xfb;" horiz-adv-x="1077" 
d="M539 1524l-240 -396h-57l258 435h73l263 -435h-58zM846 971h57v-971h-57v186q-27 -48 -64 -87.5t-82.5 -68t-99 -44t-113.5 -15.5q-150 0 -240 97q-91 95 -91 284v619h57v-617q0 -170 78 -248q78 -79 196 -79q60 0 113 17.5t98.5 50t83 78.5t64.5 103v695z" />
    <glyph glyph-name="udieresis" unicode="&#xfc;" horiz-adv-x="1077" 
d="M334 1313q-27 0 -44.5 17.5t-17.5 44.5q0 26 17.5 43.5t44.5 17.5q25 0 42 -17.5t17 -43.5q0 -27 -17 -44.5t-42 -17.5zM788 1331q-18 -18 -44.5 -18t-43.5 18q-18 17 -18 43.5t18 44.5q17 17 43.5 17t44.5 -17q17 -18 17 -44.5t-17 -43.5zM846 971h57v-971h-57v186
q-27 -48 -64 -87.5t-82.5 -68t-99 -44t-113.5 -15.5q-150 0 -240 97q-91 95 -91 284v619h57v-617q0 -170 78 -248q78 -79 196 -79q60 0 113 17.5t98.5 50t83 78.5t64.5 103v695z" />
    <glyph glyph-name="yacute" unicode="&#xfd;" horiz-adv-x="913" 
d="M719 1544l-234 -416h-47l205 416h76zM825 971h66l-617 -1471h-61l215 510l-405 961h61l375 -889z" />
    <glyph glyph-name="thorn" unicode="&#xfe;" horiz-adv-x="1142" 
d="M623 999q184 0 308 -136t124 -377t-125 -378t-312 -137q-136 0 -240 69t-155 183v-723h-57v2022h57v-785q27 60 67.5 108.5t91.5 82.5t111.5 52.5t129.5 18.5zM618 27q147 0 257 106q56 54 87 144.5t31 207.5q0 228 -109 343q-110 116 -261 116q-136 0 -236.5 -78.5
t-163.5 -220.5v-313q27 -70 66.5 -126.5t89.5 -96.5t110 -61t129 -21z" />
    <glyph glyph-name="ydieresis" unicode="&#xff;" horiz-adv-x="913" 
d="M252 1313q-27 0 -44.5 17.5t-17.5 44.5q0 26 17.5 43.5t44.5 17.5q25 0 42 -17.5t17 -43.5q0 -27 -17 -44.5t-42 -17.5zM706 1331q-18 -18 -44.5 -18t-43.5 18q-18 17 -18 43.5t18 44.5q17 17 43.5 17t44.5 -17q17 -18 17 -44.5t-17 -43.5zM825 971h66l-617 -1471h-61
l215 510l-405 961h61l375 -889z" />
    <glyph glyph-name="Amacron" unicode="&#x100;" horiz-adv-x="1222" 
d="M946 1800v-51h-674v51h674zM1098 0l-144 393h-692l-141 -393h-60l508 1419h72l520 -1419h-63zM281 446h655l-332 904z" />
    <glyph glyph-name="amacron" unicode="&#x101;" horiz-adv-x="997" 
d="M164 1393h672v-52h-672v52zM479 999q163 0 261 -95q96 -94 96 -281v-623h-58v178q-52 -89 -150 -148q-96 -59 -220 -59q-138 0 -233 77t-95 224q0 157 97 233q98 77 245 77q53 0 103.5 -10t96 -27t85.5 -41t71 -51v168q0 168 -83 246q-83 77 -216 77q-184 0 -319 -90
l-29 45q145 100 348 100zM408 29q137 0 231 70q93 68 139 173v113q-61 63 -154 103t-202 40q-118 0 -201 -65q-82 -66 -82 -191q0 -113 78 -178q79 -65 191 -65z" />
    <glyph glyph-name="Abreve" unicode="&#x102;" horiz-adv-x="1222" 
d="M838 1694q-82 -97 -233 -97q-152 0 -236 98t-74 275h51q-8 -148 53 -235q60 -88 203 -88t204 88q60 88 52 235h51q10 -179 -71 -276zM1098 0l-144 393h-692l-141 -393h-60l508 1419h72l520 -1419h-63zM281 446h655l-332 904z" />
    <glyph glyph-name="abreve" unicode="&#x103;" horiz-adv-x="997" 
d="M502 1186q-152 0 -236 97t-73 276h51q-8 -147 52 -235q60 -89 204 -89q143 0 204 88q59 88 52 236h51q5 -90 -13.5 -159.5t-58 -117t-98.5 -72t-135 -24.5zM479 999q163 0 261 -95q96 -94 96 -281v-623h-58v178q-52 -89 -150 -148q-96 -59 -220 -59q-138 0 -233 77
t-95 224q0 157 97 233q98 77 245 77q53 0 103.5 -10t96 -27t85.5 -41t71 -51v168q0 168 -83 246q-83 77 -216 77q-184 0 -319 -90l-29 45q145 100 348 100zM408 29q137 0 231 70q93 68 139 173v113q-61 63 -154 103t-202 40q-118 0 -201 -65q-82 -66 -82 -191
q0 -113 78 -178q79 -65 191 -65z" />
    <glyph glyph-name="Aogonek" unicode="&#x104;" horiz-adv-x="1222" 
d="M897 -526q120 0 227 61l19 -55q-122 -62 -248 -64q-105 0 -157 55.5t-52 149.5q0 124 104 228.5t300 173.5l-136 370h-692l-141 -393h-60l508 1419h72l520 -1419h-20q-393 -167 -393 -377q0 -72 37 -110.5t112 -38.5zM281 446h655l-332 904z" />
    <glyph glyph-name="aogonek" unicode="&#x105;" horiz-adv-x="997" 
d="M862 -465l19 -55q-109 -62 -226 -64q-94 0 -141 46t-47 128q0 227 313 410h-2v178q-52 -89 -150 -148q-96 -59 -220 -59q-138 0 -233 77t-95 224q0 157 97 233q98 77 245 77q53 0 103.5 -10t96 -27t85.5 -41t71 -51v168q0 168 -83 246q-83 77 -216 77q-184 0 -319 -90
l-29 45q145 100 348 100q163 0 261 -95q96 -94 96 -281v-623h2q-5 -3 -12 -8t-17 -12q-29 -25 -51.5 -43t-37.5 -31t-33.5 -29.5t-41.5 -38.5q-47 -45 -65 -76q-21 -32 -37.5 -78t-16.5 -94q0 -118 129 -116q112 0 207 61zM408 29q137 0 231 70q93 68 139 173v113
q-61 63 -154 103t-202 40q-118 0 -201 -65q-82 -66 -82 -191q0 -113 78 -178q79 -65 191 -65z" />
    <glyph glyph-name="Cacute" unicode="&#x106;" horiz-adv-x="1380" 
d="M1032 1993l-233 -416h-47l204 416h76zM711 -29q-287 0 -458 198t-171 540q0 335 197 537q197 200 495 200q304 0 506 -193l-43 -43q-183 177 -463 179q-276 0 -453 -185q-178 -185 -178 -495q0 -311 157 -495q158 -185 411 -185q196 0 327 73q130 72 228 215l47 -38
q-212 -308 -602 -308z" />
    <glyph glyph-name="cacute" unicode="&#x107;" horiz-adv-x="983" 
d="M795 1544l-234 -416h-47l205 416h76zM911 129q-152 -158 -379 -158q-203 0 -323 137q-121 136 -121 377q0 231 130 373q131 141 327 141t356 -139l-41 -45q-34 31 -68.5 54.5t-69.5 40.5q-69 34 -179 34q-161 0 -277 -119q-116 -121 -116 -340q0 -228 109 -341
q108 -115 273 -115q195 0 340 145z" />
    <glyph glyph-name="Cdotaccent" unicode="&#x10a;" horiz-adv-x="1380" 
d="M731 1645q-18 17 -21 41t5.5 45.5t27.5 36t45 12.5q33 0 55.5 -22.5t22.5 -56.5t-22.5 -56.5t-55.5 -22.5q-34 0 -57 23zM711 -29q-287 0 -458 198t-171 540q0 335 197 537q197 200 495 200q304 0 506 -193l-43 -43q-183 177 -463 179q-276 0 -453 -185
q-178 -185 -178 -495q0 -311 157 -495q158 -185 411 -185q196 0 327 73q130 72 228 215l47 -38q-212 -308 -602 -308z" />
    <glyph glyph-name="cdotaccent" unicode="&#x10b;" horiz-adv-x="983" 
d="M493 1197q-17 17 -20.5 40.5t4.5 45t26.5 36t45.5 12.5q35 0 57.5 -22.5t22.5 -55.5q0 -34 -22.5 -56.5t-57.5 -22.5t-56 23zM911 129q-152 -158 -379 -158q-203 0 -323 137q-121 136 -121 377q0 231 130 373q131 141 327 141t356 -139l-41 -45q-34 31 -68.5 54.5
t-69.5 40.5q-69 34 -179 34q-161 0 -277 -119q-116 -121 -116 -340q0 -228 109 -341q108 -115 273 -115q195 0 340 145z" />
    <glyph glyph-name="Ccaron" unicode="&#x10c;" horiz-adv-x="1380" 
d="M801 1571h-74l-258 434h57l240 -385l238 385h57zM1266 317l47 -38q-211 -307 -602 -308q-287 0 -458 198t-171 540q0 335 197 537q197 200 495 200q304 0 506 -193l-43 -43q-183 177 -463 179q-276 0 -453 -185q-178 -185 -178 -495q0 -311 157 -495q158 -185 411 -185
q98 0 178.5 18t148.5 54t124 90t104 126z" />
    <glyph glyph-name="ccaron" unicode="&#x10d;" horiz-adv-x="983" 
d="M569 1128h-73l-258 435h53l241 -396l242 396h53zM872 174l39 -45q-152 -158 -379 -158q-203 0 -323 137q-121 136 -121 377q0 231 130 373q131 141 327 141t356 -139l-41 -45q-34 31 -68.5 54.5t-69.5 40.5q-69 34 -179 34q-161 0 -277 -119q-116 -121 -116 -340
q0 -228 109 -341q108 -115 273 -115q195 0 340 145z" />
    <glyph glyph-name="Dcaron" unicode="&#x10e;" horiz-adv-x="1443" 
d="M723 1571h-74l-258 434h58l239 -385l238 385h57zM596 1419q339 0 535 -171t196 -513q0 -347 -198 -541q-200 -194 -533 -194h-371v1419h371zM596 53q305 0 488 184q182 184 182 498q0 309 -179 470q-181 161 -491 161h-311v-1313h311z" />
    <glyph glyph-name="dcaron" unicode="&#x10f;" horiz-adv-x="1163" 
d="M1120 1532h76l-86 -606h-47zM920 784v738h57v-1522h-57v221q-55 -115 -164 -182q-108 -68 -246 -68q-186 0 -304 136q-118 134 -118 378q0 241 128 378q127 136 316 136q132 0 232.5 -58t155.5 -157zM510 27q140 0 243.5 78t166.5 223v348q-54 130 -153.5 199t-234.5 69
q-157 0 -269 -115q-113 -116 -113 -344q0 -230 103 -343q103 -115 257 -115z" />
    <glyph glyph-name="Dcroat" unicode="&#x110;" horiz-adv-x="1443" 
d="M596 1419q339 0 535 -171t196 -513q0 -347 -198 -541q-200 -194 -533 -194h-371v705h-188v51h188v663h371zM596 53q305 0 488 184q182 184 182 498q0 309 -179 470q-181 161 -491 161h-311v-610h426v-51h-426v-652h311z" />
    <glyph glyph-name="dcroat" unicode="&#x111;" horiz-adv-x="1142" 
d="M1110 1329v-51h-133v-1278h-57v221q-55 -115 -164 -182q-108 -68 -246 -68q-186 0 -304 136q-118 134 -118 378q0 241 128 378q127 136 316 136q132 0 231.5 -57.5t156.5 -157.5v494h-506v51h506v193h57v-193h133zM510 27q140 0 243.5 78t166.5 223v348
q-54 130 -153.5 199t-234.5 69q-157 0 -269 -115q-113 -116 -113 -344q0 -230 103 -343q103 -115 257 -115z" />
    <glyph glyph-name="Emacron" unicode="&#x112;" horiz-adv-x="1202" 
d="M934 1800v-51h-674v51h674zM1090 1366h-826v-586h674v-53h-674v-674h826v-53h-885v1419h885v-53z" />
    <glyph glyph-name="emacron" unicode="&#x113;" horiz-adv-x="1015" 
d="M868 1393v-52h-675v52h675zM895 154l37 -48q-36 -29 -80 -53.5t-98 -43.5q-108 -38 -224 -38q-205 0 -322 137q-118 136 -118 377q0 231 126 373q126 141 319 141q176 0 286 -125q109 -125 109 -370v-12h-778v-7q0 -227 105 -341q105 -115 273 -115q210 0 365 125z
M532 944q-144 0 -253 -104q-108 -104 -125 -295h714q-11 205 -104 301q-95 98 -232 98z" />
    <glyph glyph-name="Edotaccent" unicode="&#x116;" horiz-adv-x="1202" 
d="M608 1622q-35 0 -56.5 22.5t-21.5 56.5t21.5 56.5t56.5 22.5t57.5 -22.5t22.5 -56.5t-22.5 -56.5t-57.5 -22.5zM1090 1366h-826v-586h674v-53h-674v-674h826v-53h-885v1419h885v-53z" />
    <glyph glyph-name="edotaccent" unicode="&#x117;" horiz-adv-x="1015" 
d="M547 1174q-35 0 -56.5 22.5t-21.5 56.5q0 33 21.5 55.5t56.5 22.5t57.5 -22.5t22.5 -55.5q0 -34 -22.5 -56.5t-57.5 -22.5zM895 154l37 -48q-36 -29 -80 -53.5t-98 -43.5q-108 -38 -224 -38q-205 0 -322 137q-118 136 -118 377q0 231 126 373q126 141 319 141
q176 0 286 -125q109 -125 109 -370v-12h-778v-7q0 -227 105 -341q105 -115 273 -115q210 0 365 125zM532 944q-144 0 -253 -104q-108 -104 -125 -295h714q-11 205 -104 301q-95 98 -232 98z" />
    <glyph glyph-name="Eogonek" unicode="&#x118;" horiz-adv-x="1202" 
d="M1090 1366h-826v-586h674v-53h-674v-674h797q3 1 6.5 2t7.5 2v-4h15v-53h-58q-346 -157 -346 -356q0 -150 150 -150q118 0 227 62l18 -56q-123 -63 -247 -63q-105 0 -157 54.5t-52 150.5q0 105 76 197t221 161h-717v1419h885v-53z" />
    <glyph glyph-name="eogonek" unicode="&#x119;" horiz-adv-x="1015" 
d="M958 -358l19 -56q-109 -63 -225 -63q-94 0 -141.5 46t-47.5 128q0 162 162 303q-98 -29 -195 -29q-205 0 -322 137q-118 136 -118 377q0 231 126 373q126 141 319 141q176 0 286 -125q109 -125 109 -370v-12h-778v-7q0 -227 105 -341q105 -115 273 -115q210 0 365 125
l37 -48h2q-5 -3 -12 -8t-17 -12q-29 -25 -51.5 -43l-37.5 -30q-15 -13 -33.5 -29.5t-41.5 -38.5q-47 -45 -65 -76q-21 -33 -37 -78.5t-16 -93.5q0 -117 129 -117q112 2 206 62zM532 944q-144 0 -253 -104q-108 -104 -125 -295h714q-11 205 -104 301q-95 98 -232 98z" />
    <glyph glyph-name="Ecaron" unicode="&#x11a;" horiz-adv-x="1202" 
d="M623 1571h-74l-258 434h57l240 -385l237 385h58zM1090 1366h-826v-586h674v-53h-674v-674h826v-53h-885v1419h885v-53z" />
    <glyph glyph-name="ecaron" unicode="&#x11b;" horiz-adv-x="1015" 
d="M565 1128h-73l-259 435h58l239 -396l240 396h57zM895 154l37 -48q-36 -29 -80 -53.5t-98 -43.5q-108 -38 -224 -38q-205 0 -322 137q-118 136 -118 377q0 231 126 373q126 141 319 141q176 0 286 -125q109 -125 109 -370v-12h-778v-7q0 -227 105 -341q105 -115 273 -115
q210 0 365 125zM532 944q-144 0 -253 -104q-108 -104 -125 -295h714q-11 205 -104 301q-95 98 -232 98z" />
    <glyph glyph-name="Gbreve" unicode="&#x11e;" horiz-adv-x="1386" 
d="M752 1634q-152 0 -236 98t-74 275h52q-8 -147 52 -235q60 -89 204 -89q142 0 204 89q60 88 52 235h51q5 -90 -13.5 -159.5t-58 -117t-98.5 -72t-135 -24.5zM723 707v53h541v-682q-257 -105 -519 -107q-304 0 -486 198q-181 197 -181 540q0 335 191 538q191 201 479 201
q329 0 522 -199l-43 -43q-178 184 -479 185q-266 0 -437 -186q-172 -187 -172 -496q0 -312 167 -496q166 -184 444 -184q255 0 452 88v590h-479z" />
    <glyph glyph-name="gbreve" unicode="&#x11f;" horiz-adv-x="894" 
d="M469 1186q-153 0 -235 97q-84 98 -74 276h51q-8 -148 53 -235q60 -89 203 -89t204 88q59 88 52 236h51q5 -90 -13.5 -159.5t-58 -117t-98.5 -72t-135 -24.5zM610 35q69 0 123.5 -17.5t92.5 -50.5t58.5 -80.5t20.5 -107.5q0 -145 -124 -226t-328 -81q-99 0 -178 18
t-133.5 53.5t-83.5 87.5t-29 121q0 82 43 142.5t121 93.5q-72 20 -106 71t-34 117q0 57 36 112.5t97 88.5q-106 97 -106 266q0 166 101 261t257 95q87 0 156 -28h293v-51h-205q117 -97 117 -277q0 -165 -101 -263q-101 -97 -260 -97q-124 0 -213 61q-114 -59 -112 -166
q0 -143 166 -143h331zM141 643q0 -145 85 -224t212 -79q129 0 214 78t85 225q0 145 -87 223t-212 78q-123 0 -210 -78t-87 -223zM453 -471q173 0 283 62q108 63 108 188q0 96 -65 147q-66 51 -169 51h-262q-58 -5 -106 -22.5t-81.5 -46t-52 -68t-18.5 -88.5q0 -113 99 -168
q97 -55 264 -55z" />
    <glyph glyph-name="Gdotaccent" unicode="&#x120;" horiz-adv-x="1386" 
d="M766 1622q-35 0 -56.5 22.5t-21.5 56.5t21.5 56.5t56.5 22.5t57.5 -22.5t22.5 -56.5t-22.5 -56.5t-57.5 -22.5zM723 707v53h541v-682q-257 -105 -519 -107q-304 0 -486 198q-181 197 -181 540q0 335 191 538q191 201 479 201q329 0 522 -199l-43 -43q-178 184 -479 185
q-266 0 -437 -186q-172 -187 -172 -496q0 -312 167 -496q166 -184 444 -184q255 0 452 88v590h-479z" />
    <glyph glyph-name="gdotaccent" unicode="&#x121;" horiz-adv-x="894" 
d="M483 1174q-35 0 -56 22.5t-21 56.5q0 33 21.5 55.5t55.5 22.5q35 0 57.5 -22.5t22.5 -55.5q0 -34 -22.5 -56.5t-57.5 -22.5zM610 35q69 0 123.5 -17.5t92.5 -50.5t58.5 -80.5t20.5 -107.5q0 -145 -124 -226t-328 -81q-99 0 -178 18t-133.5 53.5t-83.5 87.5t-29 121
q0 82 43 142.5t121 93.5q-72 20 -106 71t-34 117q0 57 36 112.5t97 88.5q-106 97 -106 266q0 166 101 261t257 95q87 0 156 -28h293v-51h-205q117 -97 117 -277q0 -165 -101 -263q-101 -97 -260 -97q-124 0 -213 61q-114 -59 -112 -166q0 -143 166 -143h331zM141 643
q0 -145 85 -224t212 -79q129 0 214 78t85 225q0 145 -87 223t-212 78q-123 0 -210 -78t-87 -223zM453 -471q173 0 283 62q108 63 108 188q0 96 -65 147q-66 51 -169 51h-262q-58 -5 -106 -22.5t-81.5 -46t-52 -68t-18.5 -88.5q0 -113 99 -168q97 -55 264 -55z" />
    <glyph glyph-name="uni0122" unicode="&#x122;" horiz-adv-x="1386" 
d="M723 707v53h541v-682q-257 -105 -519 -107q-304 0 -486 198q-181 197 -181 540q0 335 191 538q191 201 479 201q329 0 522 -199l-43 -43q-178 184 -479 185q-266 0 -437 -186q-172 -187 -172 -496q0 -312 167 -496q166 -184 444 -184q255 0 452 88v590h-479zM696 -131
q49 0 78 -43t29 -121q0 -216 -187 -301l-28 45q162 72 160 264q-23 -23 -60 -22q-35 0 -56.5 22t-21.5 64t24.5 67t61.5 25z" />
    <glyph glyph-name="uni0123" unicode="&#x123;" horiz-adv-x="894" 
d="M467 1196q-51 0 -79 41.5t-28 122.5q0 216 187 301l24 -43q-164 -77 -161 -272q23 29 65 28q33 0 55.5 -22t22.5 -64t-25.5 -67t-60.5 -25zM610 35q69 0 123.5 -17.5t92.5 -50.5t58.5 -80.5t20.5 -107.5q0 -145 -124 -226t-328 -81q-99 0 -178 18t-133.5 53.5t-83.5 87.5
t-29 121q0 82 43 142.5t121 93.5q-72 20 -106 71t-34 117q0 29 9.5 57.5t26.5 55t42 49t55 37.5q-106 100 -106 268q0 166 101 261t257 95q87 0 156 -28h293v-51h-205q117 -97 117 -277q0 -165 -101 -263q-101 -97 -260 -97q-124 0 -213 61q-114 -59 -112 -166
q0 -143 166 -143h331zM141 643q0 -145 85 -224t212 -79q129 0 214 78t85 225q0 145 -87 223t-212 78q-123 0 -210 -78t-87 -223zM453 -471q173 0 283 62q108 63 108 188q0 96 -65 147q-66 51 -169 51h-262q-58 -5 -106 -22.5t-81.5 -46t-52 -68t-18.5 -88.5q0 -113 99 -168
q97 -55 264 -55z" />
    <glyph glyph-name="Hbar" unicode="&#x126;" horiz-adv-x="1443" 
d="M1380 1133v-52h-141v-1081h-59v705h-916v-705h-59v1081h-142v52h142v286h59v-286h916v286h59v-286h141zM1180 758v323h-916v-323h916z" />
    <glyph glyph-name="hbar" unicode="&#x127;" horiz-adv-x="1079" 
d="M582 999q152 0 245 -96t93 -285v-618h-58v616q0 169 -80 249q-79 79 -200 79t-211.5 -66t-147.5 -184v-694h-57v1241h-121v47h121v234h57v-234h518v-47h-518v-457q51 96 146 156q95 59 213 59z" />
    <glyph glyph-name="Imacron" unicode="&#x12a;" horiz-adv-x="468" 
d="M-96 1749v51h674v-51h-674zM264 1419v-1419h-59v1419h59z" />
    <glyph glyph-name="imacron" unicode="&#x12b;" horiz-adv-x="450" 
d="M-111 1393h672v-52h-672v52zM254 971v-971h-57v971h57z" />
    <glyph glyph-name="Iogonek" unicode="&#x12e;" horiz-adv-x="468" 
d="M248 -465l18 -55q-122 -62 -248 -64q-105 0 -156.5 55.5t-51.5 149.5q0 121 102 226q102 106 293 171v1401h59v-1419q-393 -167 -393 -377q0 -151 149 -149q119 0 228 61z" />
    <glyph glyph-name="iogonek" unicode="&#x12f;" horiz-adv-x="450" 
d="M242 1331q35 0 57.5 -22.5t22.5 -55.5q0 -34 -23 -56.5t-57 -22.5q-35 0 -56.5 22.5t-21.5 56.5q0 33 21.5 55.5t56.5 22.5zM74 -526q112 0 207 61l18 -55q-109 -62 -225 -64q-94 0 -141.5 46t-47.5 128q0 227 314 410h-2v971h57v-971h2q-5 -3 -12 -8t-17 -12
q-29 -25 -51.5 -43t-36.5 -31q-15 -13 -33.5 -29.5t-41.5 -38.5q-46 -43 -67 -76q-20 -32 -36 -78t-16 -94q0 -116 129 -116z" />
    <glyph glyph-name="Idotaccent" unicode="&#x130;" horiz-adv-x="468" 
d="M196 1645q-17 17 -20.5 41t4.5 45.5t26.5 36t45.5 12.5q35 0 57.5 -22.5t22.5 -56.5t-22.5 -56.5t-57.5 -22.5t-56 23zM264 1419v-1419h-59v1419h59z" />
    <glyph glyph-name="dotlessi" unicode="&#x131;" horiz-adv-x="450" 
d="M254 971v-971h-57v971h57z" />
    <glyph glyph-name="uni0136" unicode="&#x136;" horiz-adv-x="1243" 
d="M629 897l557 -897h-72l-528 850l-301 -309v-541h-60v1419h60v-798l776 798h76zM623 -131q51 0 78.5 -43t27.5 -121q0 -216 -184 -301l-29 45q162 72 160 264q-23 -23 -62 -22q-33 0 -55 22t-22 64t25.5 67t60.5 25z" />
    <glyph glyph-name="uni0137" unicode="&#x137;" horiz-adv-x="919" 
d="M518 616l383 -616h-74l-350 571l-254 -272v-299h-57v1522h57v-1137l549 586h76zM463 -131q49 0 77.5 -43t28.5 -121q0 -215 -188 -301l-29 45q164 72 162 264q-23 -23 -59 -22q-35 0 -56.5 22t-21.5 64t24.5 67t61.5 25z" />
    <glyph glyph-name="Lacute" unicode="&#x139;" horiz-adv-x="966" 
d="M496 1993l-234 -416h-47l205 416h76zM205 1419h59v-1366h682v-53h-741v1419z" />
    <glyph glyph-name="lacute" unicode="&#x13a;" horiz-adv-x="389" 
d="M457 2013l-234 -416h-47l205 416h76zM223 1522v-1522h-57v1522h57z" />
    <glyph glyph-name="uni013B" unicode="&#x13b;" horiz-adv-x="966" 
d="M264 53h682v-53h-741v1419h59v-1366zM586 -131q51 0 78.5 -43t27.5 -121q0 -216 -184 -301l-29 45q162 72 160 264q-23 -24 -61 -22q-33 0 -55.5 22t-22.5 64t25.5 67t60.5 25z" />
    <glyph glyph-name="uni013C" unicode="&#x13c;" horiz-adv-x="389" 
d="M223 1522v-1522h-57v1522h57zM197 -131q49 0 77.5 -43t28.5 -121q0 -215 -188 -301l-29 45q164 72 162 264q-23 -23 -60 -22q-35 0 -56 22t-21 64t24.5 67t61.5 25z" />
    <glyph glyph-name="Lcaron" unicode="&#x13d;" horiz-adv-x="966" 
d="M524 2005l-260 -434h-74l-258 434h58l239 -385l238 385h57zM264 53h682v-53h-741v1419h59v-1366z" />
    <glyph glyph-name="lcaron" unicode="&#x13e;" horiz-adv-x="450" 
d="M518 1522l-86 -607h-47l57 607h76zM223 1522v-1522h-57v1522h57z" />
    <glyph glyph-name="Lslash" unicode="&#x141;" horiz-adv-x="966" 
d="M264 53h682v-53h-741v578l-217 -152l-29 43l246 172v778h59v-741l467 326l29 -43l-496 -347v-561z" />
    <glyph glyph-name="lslash" unicode="&#x142;" horiz-adv-x="593" 
d="M588 1077l-262 -178v-899h-58v860l-248 -170l-28 43l276 189v600h58v-561l233 159z" />
    <glyph glyph-name="Nacute" unicode="&#x143;" horiz-adv-x="1402" 
d="M965 1993l-234 -416h-47l205 416h76zM1141 1419h57v-1419h-63l-873 1313v-1313h-57v1419h59l877 -1319v1319z" />
    <glyph glyph-name="nacute" unicode="&#x144;" horiz-adv-x="1093" 
d="M809 1544l-234 -416h-47l205 416h76zM598 999q150 0 243 -97t93 -284v-618h-57v616q0 170 -79 249t-200 79q-60 0 -114.5 -17.5t-101 -50t-85 -79t-66.5 -103.5v-694h-57v971h57v-189q53 98 150 158q97 59 217 59z" />
    <glyph glyph-name="uni0145" unicode="&#x145;" horiz-adv-x="1402" 
d="M1141 1419h57v-1419h-63l-873 1313v-1313h-57v1419h59l877 -1319v1319zM705 -131q49 0 77.5 -43t28.5 -121q0 -215 -188 -301l-29 45q164 72 162 264q-23 -23 -60 -22q-35 0 -56.5 22t-21.5 64t25 67t62 25z" />
    <glyph glyph-name="uni0146" unicode="&#x146;" horiz-adv-x="1093" 
d="M598 999q150 0 243 -97t93 -284v-618h-57v616q0 170 -79 249t-200 79q-60 0 -114.5 -17.5t-101 -50t-85 -79t-66.5 -103.5v-694h-57v971h57v-189q53 98 150 158q97 59 217 59zM549 -131q49 0 77.5 -43t28.5 -121q0 -216 -186 -301l-29 45q162 72 160 264q-23 -23 -59 -22
q-35 0 -56.5 22t-21.5 64t24.5 67t61.5 25z" />
    <glyph glyph-name="Ncaron" unicode="&#x147;" horiz-adv-x="1402" 
d="M733 1571h-74l-258 434h58l239 -385l238 385h57zM1141 1419h57v-1419h-63l-873 1313v-1313h-57v1419h59l877 -1319v1319z" />
    <glyph glyph-name="ncaron" unicode="&#x148;" horiz-adv-x="1093" 
d="M582 1128h-74l-258 435h57l240 -396l239 396h58zM598 999q150 0 243 -97t93 -284v-618h-57v616q0 170 -79 249t-200 79q-60 0 -114.5 -17.5t-101 -50t-85 -79t-66.5 -103.5v-694h-57v971h57v-189q53 98 150 158q97 59 217 59z" />
    <glyph glyph-name="Eng" unicode="&#x14a;" horiz-adv-x="1402" 
d="M1198 1419v-1364q0 -469 -356 -469q-130 0 -242 58l16 65q92 -67 226 -65q276 0 297 350l-877 1319v-1313h-57v1419h59l877 -1319v1319h57z" />
    <glyph glyph-name="eng" unicode="&#x14b;" horiz-adv-x="1093" 
d="M598 999q153 0 244 -97q92 -98 92 -296v-565q0 -102 -20.5 -182t-58.5 -137.5t-91 -92.5t-119 -47l-18 51q118 18 184 121.5t66 286.5v563q0 181 -79 260q-80 80 -200 80q-60 0 -114.5 -17.5t-101 -50t-85 -79t-66.5 -103.5v-694h-57v971h57v-189q53 98 150 158
q97 59 217 59z" />
    <glyph glyph-name="Omacron" unicode="&#x14c;" horiz-adv-x="1503" 
d="M420 1749v51h674v-51h-674zM752 -29q-298 0 -486 204q-188 205 -188 550q0 331 192 527q190 196 482 196q289 0 481 -194q192 -195 192 -529q0 -352 -186 -553t-487 -201zM752 29q274 0 443 189q169 187 169 507q0 304 -172 485t-440 181q-269 0 -441 -181t-172 -485
q0 -316 173 -506q172 -190 440 -190z" />
    <glyph glyph-name="omacron" unicode="&#x14d;" horiz-adv-x="1105" 
d="M217 1393h672v-52h-672v52zM887 110q-130 -139 -334 -139t-334 139q-131 139 -131 376q0 236 131 375q131 138 334 138q204 0 334 -138q131 -139 131 -375q0 -237 -131 -376zM268 145q118 -116 285 -116q168 0 286 120q117 119 117 336q0 218 -117 339q-118 121 -286 120
q-171 -1 -287 -117t-116 -341q0 -226 118 -341z" />
    <glyph glyph-name="Ohungarumlaut" unicode="&#x150;" horiz-adv-x="1503" 
d="M829 1987l-198 -416h-47l170 416h75zM1180 1987l-318 -416h-51l293 416h76zM752 -29q-298 0 -486 204q-188 205 -188 550q0 331 192 527q190 196 482 196q289 0 481 -194q192 -195 192 -529q0 -352 -186 -553t-487 -201zM752 29q274 0 443 189q169 187 169 507
q0 304 -172 485t-440 181q-269 0 -441 -181t-172 -485q0 -316 173 -506q172 -190 440 -190z" />
    <glyph glyph-name="ohungarumlaut" unicode="&#x151;" horiz-adv-x="1105" 
d="M631 1544l-199 -416h-47l170 416h76zM985 1544l-317 -416h-47l288 416h76zM887 110q-130 -139 -334 -139t-334 139q-131 139 -131 376q0 236 131 375q131 138 334 138q204 0 334 -138q131 -139 131 -375q0 -237 -131 -376zM268 145q118 -116 285 -116q168 0 286 120
q117 119 117 336q0 218 -117 339q-118 121 -286 120q-171 -1 -287 -117t-116 -341q0 -226 118 -341z" />
    <glyph glyph-name="OE" unicode="&#x152;" horiz-adv-x="2084" 
d="M1972 1366h-784v-586h633v-53h-633v-674h784v-53h-844v39q-163 -68 -376 -68q-298 0 -486 204q-188 205 -188 550q0 331 192 527q190 196 482 196q211 0 376 -72v43h844v-53zM752 29q222 0 376 88v1188q-158 86 -376 86q-268 0 -440 -181q-173 -182 -173 -485
q0 -316 173 -506q172 -190 440 -190z" />
    <glyph glyph-name="oe" unicode="&#x153;" horiz-adv-x="1888" 
d="M1767 154l37 -48q-36 -29 -80 -53.5t-98 -43.5q-108 -38 -223 -38q-159 0 -266 80.5t-150 233.5q-46 -149 -162 -232q-115 -82 -272 -82q-204 0 -334 139q-131 139 -131 376q0 236 131 375q131 138 334 138q156 0 273 -84q117 -85 163 -235q46 149 159 235q113 84 259 84
q176 0 286 -125q109 -125 109 -370v-12h-778v-7q0 -228 106 -341q105 -115 273 -115q209 0 364 125zM553 29q168 0 286 120q117 119 117 336q0 218 -117 339q-118 121 -286 120q-171 -1 -287 -117t-116 -342q0 -115 33.5 -204.5t91.5 -143.5q116 -108 278 -108zM1405 944
q-144 0 -254 -104q-108 -104 -125 -295h715q-11 205 -104 301q-95 98 -232 98z" />
    <glyph glyph-name="Racute" unicode="&#x154;" horiz-adv-x="1337" 
d="M932 1993l-234 -416h-47l205 416h76zM1116 0l-430 655h-401v-655h-60v1419h527q99 0 176.5 -24t131 -71t81.5 -116t28 -159q0 -181 -110 -288q-110 -106 -305 -106l434 -655h-72zM285 1366v-657h469q159 0 257 89q97 88 97 251q0 160 -96 239q-97 78 -258 78h-469z" />
    <glyph glyph-name="racute" unicode="&#x155;" horiz-adv-x="653" 
d="M590 1544l-234 -416h-47l205 416h76zM580 997q9 0 21.5 -1t29.5 -3v-59q-137 18 -249 -73t-151 -290v-571h-57v971h57v-277q34 140 130 222q95 81 219 81z" />
    <glyph glyph-name="uni0156" unicode="&#x156;" horiz-adv-x="1337" 
d="M754 655l434 -655h-72l-430 655h-401v-655h-60v1419h527q99 0 176.5 -24t131 -71t81.5 -116t28 -159q0 -181 -110 -288q-109 -106 -305 -106zM285 1366v-657h469q159 0 257 89q97 88 97 251q0 160 -96 239q-97 78 -258 78h-469zM672 -131q49 0 77.5 -43t28.5 -121
q0 -215 -188 -301l-29 45q164 72 162 264q-23 -23 -59 -22q-35 0 -56.5 22t-21.5 64t24.5 67t61.5 25z" />
    <glyph glyph-name="uni0157" unicode="&#x157;" horiz-adv-x="653" 
d="M580 997q9 0 21.5 -1t29.5 -3v-59q-137 18 -249 -73t-151 -290v-571h-57v971h57v-277q34 140 130 222q95 81 219 81zM207 -131q49 0 77.5 -43t28.5 -121q0 -216 -186 -301l-29 45q162 72 160 264q-23 -23 -59 -22q-35 0 -56.5 22t-21.5 64t24.5 67t61.5 25z" />
    <glyph glyph-name="Rcaron" unicode="&#x158;" horiz-adv-x="1337" 
d="M700 1571h-73l-258 434h57l240 -385l237 385h58zM1116 0l-430 655h-401v-655h-60v1419h527q99 0 176.5 -24t131 -71t81.5 -116t28 -159q0 -181 -110 -288q-110 -106 -305 -106l434 -655h-72zM285 1366v-657h469q159 0 257 89q97 88 97 251q0 160 -96 239q-97 78 -258 78
h-469z" />
    <glyph glyph-name="rcaron" unicode="&#x159;" horiz-adv-x="653" 
d="M365 1128h-74l-258 435h53l242 -396l241 396h54zM580 997q9 0 21.5 -1t29.5 -3v-59q-137 18 -249 -73t-151 -290v-571h-57v971h57v-277q34 140 130 222q95 81 219 81z" />
    <glyph glyph-name="Sacute" unicode="&#x15a;" horiz-adv-x="1056" 
d="M791 1993l-234 -416h-47l205 416h76zM520 -29q-254 0 -442 125l26 58q164 -125 416 -125q174 0 280 84q105 84 105 237q0 66 -22.5 117t-52.5 84q-32 33 -89 64q-61 31 -104 47q-23 8 -53.5 18t-69.5 22q-186 57 -284 152q-99 95 -99 258q0 159 108 247q107 89 298 89
q220 0 407 -127l-29 -49q-169 121 -378 121q-81 0 -145 -18.5t-108 -54.5t-67.5 -88t-23.5 -118q0 -145 87 -223t252 -129q42 -13 75.5 -24t60.5 -21q26 -11 55 -24.5t61 -30.5q62 -35 98 -74t60.5 -100.5t24.5 -137.5q0 -186 -124 -282q-124 -97 -323 -97z" />
    <glyph glyph-name="sacute" unicode="&#x15b;" horiz-adv-x="827" 
d="M672 1544l-234 -416h-47l205 416h76zM395 469q-163 47 -239 111q-78 63 -78 182q0 114 83.5 175.5t239.5 61.5q178 0 324 -77l-31 -52q-127 76 -293 76q-264 0 -264 -184q0 -84 64.5 -139.5t206.5 -90.5q38 -10 69 -19.5t58 -20t51.5 -23t49.5 -28.5q99 -65 99 -201
q0 -128 -96 -199q-95 -70 -252 -70q-204 0 -326 76l27 53q120 -74 299 -73q68 0 121 15t90 43t56.5 67.5t19.5 87.5q0 31 -10.5 58.5t-21.5 47.5q-10 19 -39 37q-14 9 -25 16t-19 12q-16 9 -54 24q-19 7 -32 11.5t-21 6.5t-22.5 6t-34.5 10z" />
    <glyph glyph-name="Scedilla" unicode="&#x15e;" horiz-adv-x="1056" 
d="M967 350q0 -174 -108 -269q-109 -95 -288 -108l-86 -190q64 35 142 35q91 0 143.5 -50t52.5 -141q0 -104 -74 -160q-74 -55 -188 -55q-137 0 -225 70l24 51q77 -68 201 -68q92 0 148.5 43t56.5 123q0 60 -37 96.5t-104 36.5q-105 0 -166 -61l-53 25l102 243
q-250 5 -430 125l26 58q164 -125 416 -125q174 0 280 84q105 84 105 237q0 66 -22.5 117t-52.5 84q-32 33 -89 64q-61 31 -104 47q-23 8 -53.5 18t-69.5 22q-186 57 -284 152q-99 95 -99 258q0 159 108 247q107 89 298 89q220 0 407 -127l-29 -49q-169 121 -378 121
q-81 0 -145 -18.5t-108 -54.5t-67.5 -88t-23.5 -118q0 -145 87 -223t252 -129q42 -13 75.5 -24t60.5 -21q26 -11 55 -24.5t61 -30.5q62 -35 98 -74t60.5 -100.5t24.5 -137.5z" />
    <glyph glyph-name="scedilla" unicode="&#x15f;" horiz-adv-x="827" 
d="M479 -182q93 0 145 -50t52 -141q0 -104 -74 -160q-73 -55 -188 -55q-138 0 -226 70l25 51q79 -68 201 -68q94 0 149 42.5t55 123.5q0 60 -36 96.5t-105 36.5q-105 0 -166 -61l-53 25l102 243q-187 6 -299 76l27 53q120 -74 299 -73q68 0 121 15t90 43t56.5 67.5
t19.5 87.5q0 31 -10.5 58.5t-21.5 47.5q-10 19 -39 37q-14 9 -25 16t-19 12q-16 9 -54 24q-19 7 -32 11.5t-21 6.5t-22.5 6t-34.5 10q-163 47 -239 111q-78 63 -78 182q0 114 83.5 175.5t239.5 61.5q178 0 324 -77l-31 -52q-127 76 -293 76q-130 0 -197 -46.5t-67 -137.5
q0 -84 64.5 -139.5t206.5 -90.5q38 -10 69 -19.5t58 -20t51.5 -23t49.5 -28.5q99 -65 99 -201q0 -122 -85 -189q-86 -69 -226 -78l-86 -190q65 35 141 35z" />
    <glyph glyph-name="Scaron" unicode="&#x160;" horiz-adv-x="1056" 
d="M559 1571h-74l-258 434h58l239 -385l238 385h57zM532 762q42 -13 75.5 -24t60.5 -21q26 -11 55 -24.5t61 -30.5q62 -35 98 -74t60.5 -100.5t24.5 -137.5q0 -186 -124 -282q-124 -97 -323 -97q-254 0 -442 125l26 58q164 -125 416 -125q174 0 280 84q105 84 105 237
q0 66 -22.5 117t-52.5 84q-32 33 -89 64q-61 31 -104 47q-23 8 -53.5 18t-69.5 22q-186 57 -284 152q-99 95 -99 258q0 159 108 247q107 89 298 89q220 0 407 -127l-29 -49q-169 121 -378 121q-81 0 -145 -18.5t-108 -54.5t-67.5 -88t-23.5 -118q0 -145 87 -223
q86 -78 252 -129z" />
    <glyph glyph-name="scaron" unicode="&#x161;" horiz-adv-x="827" 
d="M446 1128h-73l-258 435h55l240 -396l241 396h56zM408 532q38 -10 69 -19.5t58 -20t51.5 -23t49.5 -28.5q99 -65 99 -201q0 -128 -96 -199q-95 -70 -252 -70q-204 0 -326 76l27 53q120 -74 299 -73q68 0 121 15t90 43t56.5 67.5t19.5 87.5q0 31 -10.5 58.5t-21.5 47.5
q-10 19 -39 37q-14 9 -25 16t-19 12q-16 9 -54 24q-19 7 -32 11.5t-21 6.5t-22.5 6t-34.5 10q-163 47 -239 111q-78 63 -78 182q0 114 83.5 175.5t239.5 61.5q178 0 324 -77l-31 -52q-127 76 -293 76q-264 0 -264 -184q0 -84 65 -139.5t206 -90.5z" />
    <glyph glyph-name="uni0162" unicode="&#x162;" horiz-adv-x="1005" 
d="M1018 1366h-465v-1352h10l-104 -231q67 35 141 35q93 0 145 -50t52 -141q0 -104 -74 -160q-73 -55 -188 -55q-138 0 -226 70l25 51q79 -68 201 -68q94 0 149 42.5t55 123.5q0 60 -36 96.5t-105 36.5q-105 0 -166 -61l-53 25l115 272v1366h-465v53h989v-53z" />
    <glyph glyph-name="uni0163" unicode="&#x163;" horiz-adv-x="724" 
d="M440 -182q93 0 145 -50t52 -141q0 -104 -74 -160q-73 -55 -188 -55q-137 0 -225 70l24 51q79 -68 201 -68q94 0 149.5 42.5t55.5 123.5q0 60 -36.5 96.5t-105.5 36.5q-105 0 -166 -61l-53 25l117 276q-111 72 -111 281v635h-162v51h162v323h58v-323h358v-51h-358v-635
q0 -260 184 -260q119 0 215 75l31 -47q-115 -82 -246 -82q-42 0 -78 11l-90 -199q65 35 141 35z" />
    <glyph glyph-name="Tcaron" unicode="&#x164;" horiz-adv-x="1005" 
d="M555 1571h-74l-258 434h58l239 -385l238 385h57zM1018 1419v-53h-465v-1366h-59v1366h-465v53h989z" />
    <glyph glyph-name="tcaron" unicode="&#x165;" horiz-adv-x="727" 
d="M526 1622l-82 -504h-47l54 504h75zM682 100l31 -47q-115 -82 -246 -82q-242 0 -242 314v635h-162v51h162v323h58v-323h358v-51h-358v-635q0 -260 184 -260q119 -2 215 75z" />
    <glyph glyph-name="Tbar" unicode="&#x166;" horiz-adv-x="1005" 
d="M1018 1366h-465v-707h319v-51h-319v-608h-59v608h-318v51h318v707h-465v53h989v-53z" />
    <glyph glyph-name="tbar" unicode="&#x167;" horiz-adv-x="727" 
d="M682 100l31 -47q-115 -82 -246 -82q-242 0 -242 314v209h-162v51h162v375h-162v51h162v323h58v-323h358v-51h-358v-375h348v-51h-348v-209q0 -260 184 -260q119 -2 215 75z" />
    <glyph glyph-name="Umacron" unicode="&#x16a;" horiz-adv-x="1443" 
d="M391 1749v51h674v-51h-674zM723 -29q-229 0 -373 160q-145 160 -145 430v858h59v-858q0 -242 129 -386t330 -144q205 0 331 143t126 387v858h59v-858q0 -275 -142 -432q-143 -158 -374 -158z" />
    <glyph glyph-name="umacron" unicode="&#x16b;" horiz-adv-x="1077" 
d="M877 1393v-52h-676v52h676zM846 971h57v-971h-57v186q-27 -48 -64 -87.5t-82.5 -68t-99 -44t-113.5 -15.5q-150 0 -240 97q-91 95 -91 284v619h57v-617q0 -170 78 -248q78 -79 196 -79q60 0 113 17.5t98.5 50t83 78.5t64.5 103v695z" />
    <glyph glyph-name="Uring" unicode="&#x16e;" horiz-adv-x="1443" 
d="M506 1870q0 96 62 158q61 61 155 61t156 -62q61 -62 61 -157q0 -93 -60 -155q-62 -62 -157 -62q-96 0 -156 62q-61 61 -61 155zM883 1870q0 78 -44 122t-116 44t-116 -45.5t-44 -120.5q0 -76 44 -119t116 -43t116 43t44 119zM723 -29q-229 0 -373 160q-145 160 -145 430
v858h59v-858q0 -242 129 -386t330 -144q205 0 331 143t126 387v858h59v-858q0 -275 -142 -432q-143 -158 -374 -158z" />
    <glyph glyph-name="uring" unicode="&#x16f;" horiz-adv-x="1077" 
d="M696 1266q-62 -62 -157 -62q-97 0 -157 62t-60 155q0 97 61 158t156 61q94 0 156 -62q61 -61 61 -156q0 -94 -60 -156zM654 1543q-44 44 -115 44q-73 0 -116 -46q-44 -47 -44 -120q0 -76 44 -118.5t116 -42.5t115.5 43t43.5 118q0 78 -44 122zM846 971h57v-971h-57v186
q-27 -48 -64 -87.5t-82.5 -68t-99 -44t-113.5 -15.5q-150 0 -240 97q-91 95 -91 284v619h57v-617q0 -170 78 -248q78 -79 196 -79q60 0 113 17.5t98.5 50t83 78.5t64.5 103v695z" />
    <glyph glyph-name="Uhungarumlaut" unicode="&#x170;" horiz-adv-x="1443" 
d="M801 1987l-199 -416h-47l170 416h76zM1151 1987l-317 -416h-52l293 416h76zM723 -29q-229 0 -373 160q-145 160 -145 430v858h59v-858q0 -242 129 -386t330 -144q205 0 331 143t126 387v858h59v-858q0 -275 -142 -432q-143 -158 -374 -158z" />
    <glyph glyph-name="uhungarumlaut" unicode="&#x171;" horiz-adv-x="1077" 
d="M616 1544l-198 -416h-47l170 416h75zM653 1128h-47l289 416h76zM846 276v695h57v-971h-57v186q-27 -48 -64 -87.5t-82.5 -68t-99 -44t-113.5 -15.5q-150 0 -240 97q-91 95 -91 284v619h57v-617q0 -170 78 -248q78 -79 196 -79q120 0 212 67t147 182z" />
    <glyph glyph-name="Uogonek" unicode="&#x172;" horiz-adv-x="1443" 
d="M1180 1419h59v-858q0 -223 -95 -369q-94 -147 -259 -198q-334 -156 -334 -350q0 -72 38 -111t111 -39q118 0 228 62l18 -56q-123 -63 -248 -63q-105 0 -157 54.5t-52 149.5t61 179.5t181 150.5h-8q-229 0 -373 160q-145 160 -145 430v858h59v-858q0 -242 129 -386
t330 -144q205 0 331 143t126 387v858z" />
    <glyph glyph-name="uogonek" unicode="&#x173;" horiz-adv-x="1077" 
d="M930 -465l18 -55q-109 -62 -225 -64q-94 0 -141 46t-47 128q0 227 313 410h-2v186q-27 -48 -64 -87.5t-82.5 -68t-99 -44t-113.5 -15.5q-150 0 -240 97q-91 95 -91 284v619h57v-617q0 -170 78 -248q78 -79 196 -79q60 0 113 17.5t98.5 50t83 78.5t64.5 103v695h57v-971h2
q-5 -3 -12 -8t-16 -12q-29 -25 -51.5 -43t-37.5 -31t-33.5 -29.5t-41.5 -38.5q-47 -45 -65 -76q-21 -32 -37.5 -78t-16.5 -94q0 -118 129 -116q112 0 207 61z" />
    <glyph glyph-name="Wcircumflex" unicode="&#x174;" horiz-adv-x="1822" 
d="M907 1939l-239 -385h-58l258 435h74l260 -435h-57zM1702 1419h59l-393 -1419h-72l-321 1106q-57 195 -66 231q-13 -42 -30.5 -99.5t-40.5 -133.5l-355 -1104h-71l-351 1419h62l299 -1224q10 -38 18 -69t13 -56l7.5 27.5t11.5 38.5q7 21 11 34.5t6 19.5l385 1209h74
l350 -1192l18 -66t17 -65q6 23 15 56.5t22 78.5z" />
    <glyph glyph-name="wcircumflex" unicode="&#x175;" horiz-adv-x="1292" 
d="M647 1524l-241 -396h-54l258 435h74l258 -435h-53zM1200 971h66l-283 -971h-63l-275 885l-287 -885h-63l-268 971h61l242 -889l284 889h60l278 -889z" />
    <glyph glyph-name="Ycircumflex" unicode="&#x176;" horiz-adv-x="1073" 
d="M532 1939l-239 -385h-57l258 435h73l260 -435h-57zM1044 1419l-483 -794v-625h-59v633l-473 786h71l437 -731l436 731h71z" />
    <glyph glyph-name="ycircumflex" unicode="&#x177;" horiz-adv-x="913" 
d="M457 1524l-240 -396h-57l258 435h74l262 -435h-58zM825 971h66l-617 -1471h-61l215 510l-405 961h61l375 -889z" />
    <glyph glyph-name="Ydieresis" unicode="&#x178;" horiz-adv-x="1073" 
d="M362 1638q-29 0 -47 19.5t-18 47.5t18.5 46t46.5 18q27 0 45.5 -18t18.5 -46t-18.5 -47.5t-45.5 -19.5zM711 1638q-29 0 -47.5 19.5t-18.5 47.5t18.5 46t47.5 18t47 -18t18 -46t-18 -47.5t-47 -19.5zM1044 1419l-483 -794v-625h-59v633l-473 786h71l437 -731l436 731h71z
" />
    <glyph glyph-name="Zacute" unicode="&#x179;" horiz-adv-x="1048" 
d="M850 1993l-234 -416h-47l205 416h76zM145 53h875v-53h-944v51l801 1315h-834v53h903v-51z" />
    <glyph glyph-name="zacute" unicode="&#x17a;" horiz-adv-x="712" 
d="M618 1544l-233 -416h-47l205 416h75zM98 51h590v-51h-653v53l549 867h-566v51h633v-53z" />
    <glyph glyph-name="Zdotaccent" unicode="&#x17b;" horiz-adv-x="1048" 
d="M604 1622q-35 0 -56.5 22.5t-21.5 56.5t21.5 56.5t56.5 22.5t57.5 -22.5t22.5 -56.5t-22.5 -56.5t-57.5 -22.5zM145 53h875v-53h-944v51l801 1315h-834v53h903v-51z" />
    <glyph glyph-name="zdotaccent" unicode="&#x17c;" horiz-adv-x="712" 
d="M373 1174q-35 0 -56.5 22.5t-21.5 56.5q0 33 21.5 55.5t56.5 22.5t57.5 -22.5t22.5 -55.5q0 -34 -22.5 -56.5t-57.5 -22.5zM98 51h590v-51h-653v53l549 867h-566v51h633v-53z" />
    <glyph glyph-name="Zcaron" unicode="&#x17d;" horiz-adv-x="1048" 
d="M618 1571h-73l-258 434h57l240 -385l237 385h58zM145 53h875v-53h-944v51l801 1315h-834v53h903v-51z" />
    <glyph glyph-name="zcaron" unicode="&#x17e;" horiz-adv-x="712" 
d="M393 1128h-74l-258 435h54l241 -396l242 396h53zM98 51h590v-51h-653v53l549 867h-566v51h633v-53z" />
    <glyph glyph-name="uni01CD" unicode="&#x1cd;" horiz-adv-x="1222" 
d="M635 1571h-74l-258 434h57l240 -385l238 385h57zM1098 0l-144 393h-692l-141 -393h-60l508 1419h72l520 -1419h-63zM281 446h655l-332 904z" />
    <glyph glyph-name="uni01CE" unicode="&#x1ce;" horiz-adv-x="997" 
d="M537 1128h-74l-258 435h53l242 -396l241 396h54zM479 999q163 0 261 -95q96 -94 96 -281v-623h-58v178q-52 -89 -150 -148q-96 -59 -220 -59q-138 0 -233 77t-95 224q0 157 97 233q98 77 245 77q53 0 103.5 -10t96 -27t85.5 -41t71 -51v168q0 168 -83 246q-83 77 -216 77
q-184 0 -319 -90l-29 45q145 100 348 100zM408 29q137 0 231 70q93 68 139 173v113q-61 63 -154 103t-202 40q-118 0 -201 -65q-82 -66 -82 -191q0 -113 78 -178q79 -65 191 -65z" />
    <glyph glyph-name="uni01CF" unicode="&#x1cf;" horiz-adv-x="468" 
d="M469 2005h57l-260 -434h-73l-259 434h58l239 -385zM205 0v1419h59v-1419h-59z" />
    <glyph glyph-name="uni01D0" unicode="&#x1d0;" horiz-adv-x="450" 
d="M467 1563h53l-258 -435h-74l-258 435h54l241 -396zM197 0v971h57v-971h-57z" />
    <glyph glyph-name="uni01D1" unicode="&#x1d1;" horiz-adv-x="1503" 
d="M782 1571h-73l-258 434h57l240 -385l237 385h57zM752 1448q289 0 481 -194q192 -195 192 -529q0 -352 -186 -553t-487 -201q-298 0 -486 204q-188 205 -188 550q0 331 192 527q190 196 482 196zM752 29q274 0 443 189q169 187 169 507q0 304 -172 485t-440 181
q-269 0 -441 -181t-172 -485q0 -316 173 -506q172 -190 440 -190z" />
    <glyph glyph-name="uni01D2" unicode="&#x1d2;" horiz-adv-x="1105" 
d="M590 1128h-74l-258 435h53l242 -396l242 396h53zM219 861q131 138 334 138q204 0 334 -138q131 -139 131 -375q0 -237 -131 -376q-130 -139 -334 -139t-334 139q-131 139 -131 376q0 236 131 375zM268 145q118 -116 285 -116q168 0 286 120q117 119 117 336
q0 218 -117 339q-118 121 -286 120q-171 -1 -287 -117t-116 -341q0 -226 118 -341z" />
    <glyph glyph-name="uni01D3" unicode="&#x1d3;" horiz-adv-x="1443" 
d="M754 1571h-74l-258 434h57l240 -385l237 385h58zM1180 1419h59v-858q0 -275 -142 -432q-143 -158 -374 -158q-229 0 -373 160q-145 160 -145 430v858h59v-858q0 -242 129 -386t330 -144q205 0 331 143t126 387v858z" />
    <glyph glyph-name="uni01D4" unicode="&#x1d4;" horiz-adv-x="1077" 
d="M573 1128h-73l-258 435h57l240 -396l239 396h58zM846 971h57v-971h-57v186q-27 -48 -64 -87.5t-82.5 -68t-99 -44t-113.5 -15.5q-150 0 -240 97q-91 95 -91 284v619h57v-617q0 -170 78 -248q78 -79 196 -79q60 0 113 17.5t98.5 50t83 78.5t64.5 103v695z" />
    <glyph glyph-name="uni0218" unicode="&#x218;" horiz-adv-x="1056" 
d="M532 762q42 -13 75.5 -24t60.5 -21q26 -11 55 -24.5t61 -30.5q62 -35 98 -74t60.5 -100.5t24.5 -137.5q0 -186 -124 -282q-124 -97 -323 -97q-254 0 -442 125l26 58q164 -125 416 -125q174 0 280 84q105 84 105 237q0 66 -22.5 117t-52.5 84q-32 33 -89 64
q-61 31 -104 47q-23 8 -53.5 18t-69.5 22q-186 57 -284 152q-99 95 -99 258q0 159 108 247q107 89 298 89q220 0 407 -127l-29 -49q-169 121 -378 121q-81 0 -145 -18.5t-108 -54.5t-67.5 -88t-23.5 -118q0 -145 87 -223q86 -78 252 -129zM551 -131q51 0 78.5 -43t27.5 -121
q0 -216 -186 -301l-29 45q162 72 162 264q-23 -24 -61 -22q-33 0 -55.5 22t-22.5 64t25.5 67t60.5 25z" />
    <glyph glyph-name="uni0219" unicode="&#x219;" horiz-adv-x="827" 
d="M408 532q38 -10 69 -19.5t58 -20t51.5 -23t49.5 -28.5q99 -65 99 -201q0 -128 -96 -199q-95 -70 -252 -70q-204 0 -326 76l27 53q120 -74 299 -73q68 0 121 15t90 43t56.5 67.5t19.5 87.5q0 31 -10.5 58.5t-21.5 47.5q-10 19 -39 37q-14 9 -25 16t-19 12q-16 9 -54 24
q-19 7 -32 11.5t-21 6.5t-22.5 6t-34.5 10q-163 47 -239 111q-78 63 -78 182q0 114 83.5 175.5t239.5 61.5q178 0 324 -77l-31 -52q-127 76 -293 76q-264 0 -264 -184q0 -84 65 -139.5t206 -90.5zM406 -131q49 0 77.5 -43t28.5 -121q0 -215 -188 -301l-29 45q164 72 162 264
q-23 -23 -60 -22q-35 0 -56.5 22t-21.5 64t25 67t62 25z" />
    <glyph glyph-name="uni021A" unicode="&#x21a;" horiz-adv-x="1005" 
d="M29 1419h989v-53h-465v-1366h-59v1366h-465v53zM524 -131q51 0 79 -43t28 -121q0 -215 -185 -301l-28 45q162 72 160 264q-23 -23 -62 -22q-33 0 -55.5 22t-22.5 64t25.5 67t60.5 25z" />
    <glyph glyph-name="uni021B" unicode="&#x21b;" horiz-adv-x="724" 
d="M467 -29q-242 0 -242 314v635h-162v51h162v323h58v-323h358v-51h-358v-635q0 -260 184 -260q119 0 215 75l31 -47q-115 -82 -246 -82zM365 -131q51 0 78.5 -43t27.5 -121q0 -216 -184 -301l-29 45q162 72 160 264q-23 -23 -62 -22q-33 0 -55 22t-22 64t25.5 67t60.5 25z
" />
    <glyph glyph-name="circumflex" unicode="&#x2c6;" horiz-adv-x="1228" 
d="M616 1128h-55l-242 396l-239 -396h-55l258 435h73z" />
    <glyph glyph-name="caron" unicode="&#x2c7;" horiz-adv-x="1228" 
d="M578 1563h55l-260 -435h-74l-258 435h55l240 -396z" />
    <glyph glyph-name="breve" unicode="&#x2d8;" horiz-adv-x="1228" 
d="M43 1559h51q-8 -148 53 -235q60 -89 204 -89q143 0 203 88q59 88 52 236h51q5 -90 -13.5 -159.5t-58 -117t-98 -72t-134.5 -24.5q-152 0 -236 98t-74 275z" />
    <glyph glyph-name="dotaccent" unicode="&#x2d9;" horiz-adv-x="1228" 
d="M63 1197q-17 17 -20.5 40.5t4.5 45t26.5 36t45.5 12.5q35 0 57.5 -22.5t22.5 -55.5q0 -34 -22.5 -56.5t-57.5 -22.5t-56 23z" />
    <glyph glyph-name="ring" unicode="&#x2da;" horiz-adv-x="1228" 
d="M41 1421q0 96 62 158q61 61 155 61t156 -62q61 -61 61 -156q0 -94 -60 -156q-62 -62 -157 -62q-96 0 -156 62q-61 61 -61 155zM418 1421q0 78 -44 122t-116 44t-116 -45.5t-44 -120.5q0 -76 44 -118.5t116 -42.5t116 42.5t44 118.5z" />
    <glyph glyph-name="ogonek" unicode="&#x2db;" horiz-adv-x="1228" 
d="M250 -537q-94 0 -141.5 46.5t-47.5 128.5q0 230 326 415l45 -6q-87 -69 -142 -117t-81 -77q-88 -101 -88 -215q0 -117 129 -117q113 0 207 61l18 -55q-107 -64 -225 -64z" />
    <glyph glyph-name="tilde" unicode="&#x2dc;" horiz-adv-x="1228" 
d="M193 1479q-57 0 -81 -77t-20 -245h-49q-8 197 31 286t121 89q29 0 54 -12t55 -44q15 -16 25.5 -28.5t17.5 -20.5q7 -9 19 -25.5t29 -39.5q20 -26 34.5 -46t25.5 -34q19 -26 54 -52t62 -26q111 0 105 326h49q12 -379 -160 -379q-31 0 -59.5 13.5t-60.5 48.5
q-17 17 -28.5 30t-18.5 23q-8 9 -20.5 26t-31.5 43q-19 25 -32.5 43l-22.5 30q-10 12 -21.5 24t-25.5 24q-29 23 -51 23z" />
    <glyph glyph-name="hungarumlaut" unicode="&#x2dd;" horiz-adv-x="1228" 
d="M246 1544l-199 -416h-47l170 416h76zM600 1544l-317 -416h-47l288 416h76z" />
    <glyph glyph-name="gravecomb" unicode="&#x300;" 
d="M-41 1128h-47l-234 416h76z" />
    <glyph glyph-name="acutecomb" unicode="&#x301;" 
d="M-41 1544l-233 -416h-48l205 416h76z" />
    <glyph glyph-name="uni0302" unicode="&#x302;" 
d="M-25 1128h-55l-242 396l-239 -396h-55l258 435h73z" />
    <glyph glyph-name="tildecomb" unicode="&#x303;" 
d="M-573 1479q-57 0 -81 -77t-20 -245h-49q-8 197 30 286t122 89q27 0 52 -12t55 -44q15 -16 25.5 -28.5t17.5 -20.5q7 -9 19 -25.5t31 -39.5q20 -26 34.5 -46t24.5 -34q21 -27 55 -52q35 -26 62 -26q110 0 105 326h49q10 -379 -160 -379q-31 0 -59.5 13.5t-61.5 48.5
q-16 17 -27.5 30t-19.5 23q-7 9 -20 26t-33 43q-17 25 -31 43t-24 30q-21 26 -46 48q-28 23 -50 23z" />
    <glyph glyph-name="uni0304" unicode="&#x304;" 
d="M-715 1393h674v-52h-674v52z" />
    <glyph glyph-name="uni0306" unicode="&#x306;" 
d="M-657 1559h51q-8 -147 52 -235q60 -89 203 -89q144 0 205 88q62 90 52 236h51q6 -90 -12 -159.5t-58 -117t-99.5 -72t-135.5 -24.5q-152 0 -236 98q-83 99 -73 275z" />
    <glyph glyph-name="uni0307" unicode="&#x307;" 
d="M-143 1197q-17 17 -20 40.5t5 45t26.5 36t45.5 12.5q35 0 57.5 -22.5t22.5 -55.5q0 -34 -22.5 -56.5t-57.5 -22.5q-34 0 -57 23z" />
    <glyph glyph-name="uni0308" unicode="&#x308;" 
d="M-556 1331q-14 13 -16.5 32t4 35.5t21 28t35.5 9.5q25 0 42 -17.5t17 -43.5q0 -27 -17 -44.5t-42 -17.5q-28 0 -44 18zM-147 1331q-17 17 -17 43.5t17 44.5q18 17 44.5 17t43.5 -17q18 -18 18 -44.5t-18 -43.5q-17 -18 -43.5 -18t-44.5 18z" />
    <glyph glyph-name="uni030A" unicode="&#x30a;" 
d="M-475 1421q0 97 61 158t156 61q93 0 155 -62t62 -156q0 -95 -61 -156q-60 -62 -156 -62q-95 0 -157 62q-60 62 -60 155zM-98 1421q0 78 -44 122t-116 44t-116 -45.5t-44 -120.5q0 -76 44 -118.5t116 -42.5t116 42.5t44 118.5z" />
    <glyph glyph-name="uni030B" unicode="&#x30b;" 
d="M-375 1544l-198 -416h-48l170 416h76zM-20 1544l-318 -416h-47l289 416h76z" />
    <glyph glyph-name="uni030C" unicode="&#x30c;" 
d="M-96 1563h55l-260 -435h-74l-258 435h55l240 -396z" />
    <glyph glyph-name="uni0312" unicode="&#x312;" 
d="M-141 1374q33 0 55.5 -22t22.5 -64t-26 -67t-61 -25q-51 0 -78.5 41.5t-27.5 122.5q0 216 186 301l25 -43q-163 -76 -162 -272q22 28 66 28z" />
    <glyph glyph-name="uni0326" unicode="&#x326;" 
d="M-231 -131q51 0 78.5 -43t27.5 -121q0 -216 -186 -301l-29 45q162 72 162 264q-23 -23 -62 -22q-33 0 -55 22t-22 64t25.5 67t60.5 25z" />
    <glyph glyph-name="uni0327" unicode="&#x327;" 
d="M-313 -182q91 0 143.5 -50t52.5 -141q0 -105 -75 -160q-73 -55 -187 -55q-137 0 -225 70l24 51q77 -68 201 -68q92 0 148.5 43t56.5 123q0 60 -37.5 96.5t-103.5 36.5q-105 0 -166 -61l-54 25l121 286h64l-105 -231q65 35 142 35z" />
    <glyph glyph-name="uni0328" unicode="&#x328;" 
d="M-287 -537q-94 0 -141 46.5t-47 128.5q0 231 325 415l46 -6q-87 -69 -142.5 -117t-81.5 -77q-88 -101 -88 -215q0 -117 129 -117q113 0 207 61l19 -55q-109 -64 -226 -64z" />
    <glyph glyph-name="uni0335" unicode="&#x335;" 
d="M-739 549v51h698v-51h-698z" />
    <glyph glyph-name="uni0336" unicode="&#x336;" 
 />
    <glyph glyph-name="uni0337" unicode="&#x337;" 
d="M-717 264l-39 35l676 756l39 -35z" />
    <glyph glyph-name="uni0338" unicode="&#x338;" 
 />
    <glyph glyph-name="Wgrave" unicode="&#x1e80;" horiz-adv-x="1822" 
d="M930 1571h-56l-276 418h76zM1702 1419h59l-393 -1419h-72l-321 1106q-57 195 -66 231q-13 -42 -30.5 -99.5t-40.5 -133.5l-355 -1104h-71l-351 1419h62l299 -1224q10 -38 18 -69t13 -56l7.5 27.5t11.5 38.5q7 21 11 34.5t6 19.5l385 1209h74l350 -1192l18 -66t17 -65
q6 23 15 56.5t22 78.5z" />
    <glyph glyph-name="wgrave" unicode="&#x1e81;" horiz-adv-x="1292" 
d="M670 1128h-47l-234 416h76zM1200 971h66l-283 -971h-63l-275 885l-287 -885h-63l-268 971h61l242 -889l284 889h60l278 -889z" />
    <glyph glyph-name="Wacute" unicode="&#x1e82;" horiz-adv-x="1822" 
d="M1212 1989l-276 -418h-55l256 418h75zM1702 1419h59l-393 -1419h-72l-321 1106q-57 195 -66 231q-13 -42 -30.5 -99.5t-40.5 -133.5l-355 -1104h-71l-351 1419h62l299 -1224q10 -38 18 -69t13 -56l7.5 27.5t11.5 38.5q7 21 11 34.5t6 19.5l385 1209h74l350 -1192l18 -66
t17 -65q6 23 15 56.5t22 78.5z" />
    <glyph glyph-name="wacute" unicode="&#x1e83;" horiz-adv-x="1292" 
d="M909 1544l-233 -416h-47l205 416h75zM1200 971h66l-283 -971h-63l-275 885l-287 -885h-63l-268 971h61l242 -889l284 889h60l278 -889z" />
    <glyph glyph-name="Wdieresis" unicode="&#x1e84;" horiz-adv-x="1822" 
d="M737 1638q-29 0 -47 19.5t-18 47.5t18.5 46t46.5 18q27 0 45.5 -18t18.5 -46t-18.5 -47.5t-45.5 -19.5zM1085 1638q-29 0 -47 19.5t-18 47.5t18.5 46t46.5 18q29 0 47.5 -18t18.5 -46t-18.5 -47.5t-47.5 -19.5zM1702 1419h59l-393 -1419h-72l-321 1106q-57 195 -66 231
q-13 -42 -30.5 -99.5t-40.5 -133.5l-355 -1104h-71l-351 1419h62l299 -1224q10 -38 18 -69t13 -56l7.5 27.5t11.5 38.5q7 21 11 34.5t6 19.5l385 1209h74l350 -1192l18 -66t17 -65q6 23 15 56.5t22 78.5z" />
    <glyph glyph-name="wdieresis" unicode="&#x1e85;" horiz-adv-x="1292" 
d="M442 1313q-27 0 -44 17.5t-17 44.5q0 26 17.5 43.5t43.5 17.5q25 0 42.5 -17.5t17.5 -43.5q0 -27 -17.5 -44.5t-42.5 -17.5zM896 1331q-17 -18 -44 -18t-44 18q-17 17 -17 43.5t17 44.5q17 17 44 17t44 -17q17 -18 17 -44.5t-17 -43.5zM1200 971h66l-283 -971h-63
l-275 885l-287 -885h-63l-268 971h61l242 -889l284 889h60l278 -889z" />
    <glyph glyph-name="Ygrave" unicode="&#x1ef2;" horiz-adv-x="1073" 
d="M555 1571h-55l-277 418h76zM1044 1419l-483 -794v-625h-59v633l-473 786h71l437 -731l436 731h71z" />
    <glyph glyph-name="ygrave" unicode="&#x1ef3;" horiz-adv-x="913" 
d="M479 1128h-47l-233 416h75zM825 971h66l-617 -1471h-61l215 510l-405 961h61l375 -889z" />
    <glyph glyph-name="endash" unicode="&#x2013;" horiz-adv-x="1089" 
d="M63 549v51h963v-51h-963z" />
    <glyph glyph-name="emdash" unicode="&#x2014;" horiz-adv-x="1316" 
d="M63 549v51h1190v-51h-1190z" />
    <glyph glyph-name="quoteleft" unicode="&#x2018;" horiz-adv-x="438" 
d="M244 1092q31 0 50 -20.5t19 -55.5t-22.5 -56.5t-54.5 -21.5q-55 0 -87 55t-32 154q0 123 60 226q58 102 161 147l27 -41q-85 -29 -140 -123q-57 -94 -57 -207q0 -53 12 -88q21 31 64 31z" />
    <glyph glyph-name="quoteright" unicode="&#x2019;" horiz-adv-x="438" 
d="M203 1526q55 0 87 -55t32 -154q0 -122 -59 -225q-60 -103 -163 -148l-26 41q85 29 140 123q56 95 56 207q0 54 -12 88q-19 -31 -63 -31q-31 0 -50.5 20.5t-19.5 55.5t22.5 56.5t55.5 21.5z" />
    <glyph glyph-name="quotesinglbase" unicode="&#x201a;" horiz-adv-x="1228" 
d="M209 150q106 0 106 -168q0 -135 -60 -243q-59 -107 -167 -157l-29 45q197 102 201 367q-23 -23 -59 -23q-33 0 -55.5 22t-22.5 64t25.5 67.5t60.5 25.5z" />
    <glyph glyph-name="quotedblleft" unicode="&#x201c;" horiz-adv-x="1228" 
d="M244 1092q31 0 50 -20.5t19 -55.5t-22.5 -56.5t-54.5 -21.5q-55 0 -87 55t-32 154q0 123 60 226q58 102 161 147l27 -41q-85 -29 -140 -123q-57 -94 -57 -207q0 -53 12 -88q21 31 64 31z" />
    <glyph glyph-name="quotedblright" unicode="&#x201d;" horiz-adv-x="1228" 
d="M203 1526q55 0 87 -55t32 -154q0 -122 -59 -225q-60 -103 -163 -148l-26 41q85 29 140 123q56 95 56 207q0 54 -12 88q-19 -31 -63 -31q-31 0 -50.5 20.5t-19.5 55.5t22.5 56.5t55.5 21.5z" />
    <glyph glyph-name="quotedblbase" unicode="&#x201e;" horiz-adv-x="1228" 
d="M209 150q106 0 106 -168q0 -135 -60 -243q-59 -107 -167 -157l-29 45q197 102 201 367q-23 -23 -59 -23q-33 0 -55.5 22t-22.5 64t25.5 67.5t60.5 25.5z" />
    <glyph glyph-name="dagger" unicode="&#x2020;" horiz-adv-x="686" 
d="M662 971v-51h-289v-1282h-58v1282h-290v51h290v448h58v-448h289z" />
    <glyph glyph-name="daggerdbl" unicode="&#x2021;" horiz-adv-x="686" 
d="M662 920h-289v-781h289v-51h-289v-450h-58v450h-290v51h290v781h-290v51h290v448h58v-448h289v-51z" />
    <glyph glyph-name="bullet" unicode="&#x2022;" horiz-adv-x="481" 
d="M131 590q-43 43 -43 109q0 65 44 109t110 44q64 0 107 -45q44 -46 44 -109q0 -64 -44 -108q-43 -43 -107 -43q-68 0 -111 43z" />
    <glyph glyph-name="ellipsis" unicode="&#x2026;" horiz-adv-x="1026" 
d="M154 -3q-27 25 -27 67q0 40 27 67q26 27 67 27q39 0 65.5 -28t26.5 -66q0 -39 -26.5 -66t-65.5 -27q-41 0 -67 26zM447 -3q-27 25 -27 67q0 40 27 67q26 27 67 27q39 0 65.5 -28t26.5 -66q0 -39 -26.5 -66t-65.5 -27q-41 0 -67 26zM740 -3q-27 25 -27 67q0 40 27 67
q26 27 67 27q39 0 65.5 -28t26.5 -66q0 -39 -26.5 -66t-65.5 -27q-41 0 -67 26z" />
    <glyph glyph-name="perthousand" unicode="&#x2030;" horiz-adv-x="2353" 
d="M159 864q-93 95 -93 246t92 245q92 93 238 93t237 -93q92 -94 92 -245t-93 -246q-93 -94 -236 -94q-144 0 -237 94zM1137 1419l-553 -1419h-60l553 1419h60zM595 908q75 86 75 202t-77 202q-76 85 -198 85q-121 0 -197 -85q-77 -86 -77 -202t75 -202q73 -85 199 -85
q125 0 200 85zM1017 66q-93 95 -93 246q0 150 92 244q92 93 238 93t237 -93q92 -94 92 -244q0 -151 -93 -246t-236 -95q-144 0 -237 95zM1720 66q-92 95 -92 246q0 150 92 244q92 93 237 93q144 0 238 -93q93 -93 93 -244t-93 -246q-95 -95 -238 -95q-145 0 -237 95z
M1453 110q75 86 75 202q0 115 -77 201q-76 85 -197 85q-122 0 -198 -85q-77 -86 -77 -201q0 -116 75 -202q73 -85 199 -85q125 0 200 85zM2232 311q0 117 -76 202t-199 85q-122 0 -198 -85t-76 -202t75 -201q75 -85 199 -85t200 85q75 84 75 201z" />
    <glyph glyph-name="guilsinglleft" unicode="&#x2039;" horiz-adv-x="679" 
d="M590 1006v-66l-488 -360l488 -377v-66l-543 418v45z" />
    <glyph glyph-name="guilsinglright" unicode="&#x203a;" horiz-adv-x="677" 
d="M90 1006l543 -406v-41l-543 -422v66l488 377l-488 360v66z" />
    <glyph glyph-name="fraction" unicode="&#x2044;" horiz-adv-x="790" 
d="M750 1419l-648 -1419h-61l647 1419h62z" />
    <glyph glyph-name="Euro" unicode="&#x20ac;" horiz-adv-x="1380" 
d="M1266 317l47 -38q-211 -307 -602 -308q-243 0 -404 156q-159 155 -194 432h-191v51h184q-2 23 -3 48t-1 51q0 64 9 125h-189v51h197q46 259 227 411q180 150 428 150q304 0 506 -193l-43 -43q-183 177 -463 179q-225 0 -386 -135q-162 -138 -208 -369h658v-51h-666
q-4 -29 -6 -60.5t-2 -64.5q0 -26 1 -50.5t3 -48.5h670v-51h-664q35 -248 180 -389q144 -141 357 -141q98 0 178.5 18t148.5 54t124 90t104 126z" />
    <glyph glyph-name="trademark" unicode="&#x2122;" horiz-adv-x="1413" 
d="M20 1376v43h549v-43h-258v-661h-49v661h-242zM1307 1419h61v-704h-53v420q0 36 1 83t3 105l-272 -578h-46l-276 578q2 -58 3 -104.5t1 -83.5v-420h-47v704h55l289 -604z" />
    <glyph glyph-name="partialdiff" unicode="&#x2202;" horiz-adv-x="1228" 
 />
    <glyph glyph-name="emptyset" unicode="&#x2205;" horiz-adv-x="1228" 
 />
    <glyph glyph-name="product" unicode="&#x220f;" horiz-adv-x="1228" 
 />
    <glyph glyph-name="summation" unicode="&#x2211;" horiz-adv-x="1228" 
 />
    <glyph glyph-name="minus" unicode="&#x2212;" horiz-adv-x="1101" 
d="M104 705h893v-52h-893v52z" />
    <glyph glyph-name="radical" unicode="&#x221a;" horiz-adv-x="1228" 
 />
    <glyph glyph-name="infinity" unicode="&#x221e;" horiz-adv-x="1228" 
 />
    <glyph glyph-name="integral" unicode="&#x222b;" horiz-adv-x="1228" 
 />
    <glyph glyph-name="approxequal" unicode="&#x2248;" horiz-adv-x="1228" 
 />
    <glyph glyph-name="notequal" unicode="&#x2260;" horiz-adv-x="1101" 
d="M997 856h-280l-258 -399h538v-51h-571l-121 -189l-43 27l105 162h-263v51h295l258 399h-553v51h586l105 164l43 -29l-88 -135h247v-51z" />
    <glyph glyph-name="lessequal" unicode="&#x2264;" horiz-adv-x="1228" 
 />
    <glyph glyph-name="greaterequal" unicode="&#x2265;" horiz-adv-x="1228" 
 />
    <glyph glyph-name="lozenge" unicode="&#x25ca;" horiz-adv-x="1228" 
 />
    <glyph glyph-name="A.c2sc" horiz-adv-x="1116" 
d="M979 0l-123 283h-602l-121 -283h-59l442 1051h72l454 -1051h-63zM274 336h560l-283 651z" />
    <glyph glyph-name="A.swash" horiz-adv-x="1568" 
d="M1444 0l-144 393h-692l-141 -393h-59l489 1368h-276q-252 0 -377 -90t-125 -256q0 -146 88.5 -226.5t253.5 -84.5l-17 -49q-188 5 -285 106q-98 103 -98 252q0 81 29 149t90 127q60 59 167 91t253 32h315h72l520 -1419h-63zM627 446h655l-332 904z" />
    <glyph glyph-name="AE.aalt" horiz-adv-x="1372" 
d="M1280 997h-535l21 -415h393v-52h-391l23 -477h489v-53h-547l-14 283h-459l-133 -283h-59l491 1051h721v-54zM717 336l-31 661h-88l-313 -661h432z" />
    <glyph glyph-name="Aacute.c2sc" horiz-adv-x="1116" 
d="M813 1624l-233 -416h-48l205 416h76zM979 0l-123 283h-602l-121 -283h-59l442 1051h72l454 -1051h-63zM274 336h560l-283 651z" />
    <glyph glyph-name="Aacute.swash" horiz-adv-x="1568" 
d="M1255 1989l-276 -418h-55l256 418h75zM1444 0l-144 393h-692l-141 -393h-59l489 1368h-276q-252 0 -377 -90t-125 -256q0 -146 88.5 -226.5t253.5 -84.5l-17 -49q-188 5 -285 106q-98 103 -98 252q0 81 29 149t90 127q60 59 167 91t253 32h315h72l520 -1419h-63zM627 446
h655l-332 904z" />
    <glyph glyph-name="Abreve.c2sc" horiz-adv-x="1116" 
d="M553 1266q-152 0 -236 97q-83 97 -73 275h51q-8 -148 53 -235q60 -88 203 -88t204 88q60 88 52 235h51q5 -90 -13.5 -159.5t-58 -116.5t-98.5 -71.5t-135 -24.5zM979 0l-123 283h-602l-121 -283h-59l442 1051h72l454 -1051h-63zM274 336h560l-283 651z" />
    <glyph glyph-name="Abreve.swash" horiz-adv-x="1568" 
d="M954 1597q-77 0 -136.5 25t-99.5 72.5t-59 117t-14 158.5h51q-8 -148 53 -235q60 -88 204 -88q143 0 204 88q60 88 51 235h52q5 -90 -13.5 -159.5t-58.5 -117t-99 -72t-135 -24.5zM1444 0l-144 393h-692l-141 -393h-59l489 1368h-276q-252 0 -377 -90t-125 -256
q0 -146 88.5 -226.5t253.5 -84.5l-17 -49q-188 5 -285 106q-98 103 -98 252q0 81 29 149t90 127q60 59 167 91t253 32h315h72l520 -1419h-63zM627 446h655l-332 904z" />
    <glyph glyph-name="Acircumflex.c2sc" horiz-adv-x="1116" 
d="M551 1604l-240 -396h-55l258 434h74l260 -434h-55zM979 0l-123 283h-602l-121 -283h-59l442 1051h72l454 -1051h-63zM274 336h560l-283 651z" />
    <glyph glyph-name="Acircumflex.swash" horiz-adv-x="1568" 
d="M950 1939l-239 -385h-58l258 435h74l260 -435h-57zM1444 0l-144 393h-692l-141 -393h-59l489 1368h-276q-252 0 -377 -90t-125 -256q0 -146 88.5 -226.5t253.5 -84.5l-17 -49q-188 5 -285 106q-98 103 -98 252q0 81 29 149t90 127q60 59 167 91t253 32h315h72l520 -1419
h-63zM627 446h655l-332 904z" />
    <glyph glyph-name="Adieresis.c2sc" horiz-adv-x="1116" 
d="M346 1393q-27 0 -44 17t-17 44t17 44.5t44 17.5q25 0 42.5 -17.5t17.5 -44.5t-17.5 -44t-42.5 -17zM756 1393q-27 0 -44.5 17t-17.5 44t17.5 44.5t44.5 17.5t44 -17.5t17 -44.5t-17 -44t-44 -17zM979 0l-123 283h-602l-121 -283h-59l442 1051h72l454 -1051h-63zM274 336
h560l-283 651z" />
    <glyph glyph-name="Adieresis.swash" horiz-adv-x="1568" 
d="M778 1638q-29 0 -46 19.5t-17 47.5t17.5 46t45.5 18q27 0 45.5 -18t18.5 -46t-18.5 -47.5t-45.5 -19.5zM1128 1638q-29 0 -47 19.5t-18 47.5t18.5 46t46.5 18q27 0 46.5 -18t19.5 -46t-19.5 -47.5t-46.5 -19.5zM1444 0l-144 393h-692l-141 -393h-59l489 1368h-276
q-252 0 -377 -90t-125 -256q0 -146 88.5 -226.5t253.5 -84.5l-17 -49q-188 5 -285 106q-98 103 -98 252q0 81 29 149t90 127q60 59 167 91t253 32h315h72l520 -1419h-63zM627 446h655l-332 904z" />
    <glyph glyph-name="Agrave.c2sc" horiz-adv-x="1116" 
d="M573 1208h-47l-233 416h76zM979 0l-123 283h-602l-121 -283h-59l442 1051h72l454 -1051h-63zM274 336h560l-283 651z" />
    <glyph glyph-name="Agrave.swash" horiz-adv-x="1568" 
d="M971 1571h-56l-276 418h76zM1444 0l-144 393h-692l-141 -393h-59l489 1368h-276q-252 0 -377 -90t-125 -256q0 -146 88.5 -226.5t253.5 -84.5l-17 -49q-188 5 -285 106q-98 103 -98 252q0 81 29 149t90 127q60 59 167 91t253 32h315h72l520 -1419h-63zM627 446h655
l-332 904z" />
    <glyph glyph-name="Amacron.c2sc" horiz-adv-x="1116" 
d="M889 1473v-52h-674v52h674zM979 0l-123 283h-602l-121 -283h-59l442 1051h72l454 -1051h-63zM274 336h560l-283 651z" />
    <glyph glyph-name="Amacron.swash" horiz-adv-x="1568" 
d="M1296 1800v-51h-673v51h673zM1444 0l-144 393h-692l-141 -393h-59l489 1368h-276q-252 0 -377 -90t-125 -256q0 -146 88.5 -226.5t253.5 -84.5l-17 -49q-188 5 -285 106q-98 103 -98 252q0 81 29 149t90 127q60 59 167 91t253 32h315h72l520 -1419h-63zM627 446h655
l-332 904z" />
    <glyph glyph-name="Aogonek.c2sc" horiz-adv-x="1116" 
d="M795 -502q106 0 200 60l19 -56q-103 -61 -219 -61q-97 0 -146 50t-49 144q0 115 108 225q105 110 259 169l-111 254h-602l-121 -283h-59l442 1051h72l454 -1051h-57q-34 -21 -63.5 -39.5t-55.5 -37.5t-51 -39t-50 -44q-51 -48 -77 -99.5t-26 -105.5q0 -137 133 -137z
M274 336h560l-283 651z" />
    <glyph glyph-name="Aogonek.swash" horiz-adv-x="1568" 
d="M1245 -526q122 0 228 61l18 -55q-122 -62 -248 -64q-105 0 -157 55.5t-52 149.5q0 61 26.5 119t78 109.5t126.5 95.5t171 78l-136 370h-692l-141 -393h-59l489 1368h-276q-252 0 -377 -90t-125 -256q0 -146 88.5 -226.5t253.5 -84.5l-17 -49q-188 5 -285 106
q-98 103 -98 252q0 81 29 149t90 127q60 59 167 91t253 32h315h72l520 -1419h-18q-393 -167 -393 -377q0 -72 37 -110.5t112 -38.5zM627 446h655l-332 904z" />
    <glyph glyph-name="Aring.c2sc" horiz-adv-x="1116" 
d="M709 1346q-60 -62 -157 -62t-157 62q-61 61 -61 155q0 96 62 158q61 61 155 61t156 -62q61 -62 61 -157q0 -93 -59 -155zM551 1667q-35 0 -64.5 -12t-50.5 -34t-33 -52.5t-12 -67.5q0 -76 44 -119t117 -43t116 43t43 119q0 78 -44 122t-116 44zM979 0l-123 283h-602
l-121 -283h-59l442 1051h72l454 -1051h-63zM274 336h560l-283 651z" />
    <glyph glyph-name="Aring.swash" horiz-adv-x="1568" 
d="M1111 1629q-60 -62 -157 -62q-98 0 -157 62q-60 62 -60 155q0 97 61 158q60 61 156 61q94 0 156 -62q61 -62 61 -157q0 -93 -60 -155zM954 1950q-72 0 -115.5 -45.5t-43.5 -120.5q0 -76 44 -119t116 -43t115.5 43t43.5 119q0 78 -44 122t-116 44zM1444 0l-144 393h-692
l-141 -393h-59l489 1368h-276q-252 0 -377 -90t-125 -256q0 -146 88.5 -226.5t253.5 -84.5l-17 -49q-188 5 -285 106q-98 103 -98 252q0 81 29 149t90 127q60 59 167 91t253 32h315h72l520 -1419h-63zM627 446h655l-332 904z" />
    <glyph glyph-name="Atilde.c2sc" horiz-adv-x="1116" 
d="M260 1237h-49q-8 197 30 286t121 89q27 0 52.5 -12t56.5 -44q16 -16 26.5 -28.5t17.5 -20.5q7 -9 19 -25.5t29 -39.5q20 -26 34.5 -46t25.5 -34q19 -26 54 -52t62 -26q111 0 105 326h49q10 -379 -160 -379q-31 0 -59.5 13t-60.5 48q-35 36 -47 54q-8 9 -20.5 26t-31.5 43
q-19 25 -32.5 43l-22.5 30q-10 11 -21.5 23t-25.5 24q-28 24 -52 24q-57 0 -80.5 -77t-19.5 -245zM979 0l-123 283h-602l-121 -283h-59l442 1051h72l454 -1051h-63zM274 336h560l-283 651z" />
    <glyph glyph-name="Atilde.swash" horiz-adv-x="1568" 
d="M657 1571h-49q-13 375 146 375q20 0 40.5 -8.5t36.5 -17.5q15 -9 37 -31q11 -11 18.5 -20l12.5 -15q5 -7 13.5 -17.5t20.5 -24.5q11 -15 19 -25t13 -15q4 -5 12.5 -15.5t21.5 -27.5t22 -28t15 -17q5 -7 12.5 -14.5l17.5 -17.5q19 -20 36.5 -27t36.5 -7q110 0 102 326h49
q6 -199 -33.5 -289t-123.5 -90q-20 0 -42 9t-37 20q-18 11 -39 34q-12 11 -20.5 20t-13.5 15t-13.5 17t-21.5 27t-21.5 26.5t-12.5 15.5q-5 5 -13 15t-21 26t-21.5 26.5t-13.5 15.5q-9 11 -27 30q-19 18 -34.5 24t-29.5 6q-53 0 -76 -76.5t-19 -244.5zM1444 0l-144 393h-692
l-141 -393h-59l489 1368h-276q-252 0 -377 -90t-125 -256q0 -146 88.5 -226.5t253.5 -84.5l-17 -49q-188 5 -285 106q-98 103 -98 252q0 81 29 149t90 127q60 59 167 91t253 32h315h72l520 -1419h-63zM627 446h655l-332 904z" />
    <glyph glyph-name="B.swash" horiz-adv-x="1675" 
d="M1294 754q139 -18 220 -111q81 -94 81 -242q0 -184 -114 -292q-115 -109 -314 -109h-544v1368h-43q-264 0 -394.5 -94t-130.5 -273q0 -162 96 -254q95 -92 261 -92v-55q-105 0 -186 34t-129 91t-72.5 126.5t-24.5 147.5q0 87 28.5 159.5t91.5 133.5q63 60 174 93.5
t265 33.5h64h499q191 0 290 -82.5t99 -242.5q0 -60 -15 -112.5t-43.5 -96.5t-68.5 -77t-90 -54zM1124 1366h-442v-596h457q128 0 219 88q92 89 92 238q0 270 -326 270zM1169 53q167 0 267 92q98 92 98 256q0 80 -25 139.5t-72.5 98.5t-115.5 58.5t-154 19.5h-485v-664h487z
" />
    <glyph glyph-name="C.swash" horiz-adv-x="1380" 
d="M688 -70q-278 0 -442 198q-164 199 -164 519q0 364 191 582q190 217 481 217q258 0 378 -181q119 -182 68 -503h-59q50 303 -57 465q-106 162 -330 162q-268 0 -439 -202q-172 -202 -172 -540q0 -290 149 -475q148 -184 396 -184q347 0 574 278l30 -57
q-235 -279 -604 -279z" />
    <glyph glyph-name="Cacute.swash" horiz-adv-x="1380" 
d="M1061 1989l-277 -418h-55l256 418h76zM688 -70q-278 0 -442 198q-164 199 -164 519q0 364 191 582q190 217 481 217q258 0 378 -181q119 -182 68 -503h-59q50 303 -57 465q-106 162 -330 162q-268 0 -439 -202q-172 -202 -172 -540q0 -290 149 -475q148 -184 396 -184
q347 0 574 278l30 -57q-235 -279 -604 -279z" />
    <glyph glyph-name="Ccaron.swash" horiz-adv-x="1380" 
d="M791 1571h-74l-258 434h57l240 -385l237 385h58zM1262 266l30 -57q-235 -279 -604 -279q-278 0 -442 198q-164 199 -164 519q0 364 191 582q190 217 481 217q258 0 378 -181q119 -182 68 -503h-59q50 303 -57 465q-106 162 -330 162q-268 0 -439 -202
q-172 -202 -172 -540q0 -290 149 -475q148 -184 396 -184q349 -1 574 278z" />
    <glyph glyph-name="Ccedilla.swash" horiz-adv-x="1380" 
d="M1292 209q-217 -256 -549 -277l-84 -184q67 35 142 35q93 0 144.5 -50t51.5 -141q0 -105 -73 -160t-189 -55q-137 0 -225 70l25 51q79 -68 200 -67q94 0 149.5 42.5t55.5 123.5q0 57 -37 95t-104 38q-104 0 -166 -62l-53 25l100 237q-277 5 -437 201q-161 197 -161 516
q0 364 191 582q190 217 481 217q258 0 378 -181q119 -182 68 -503h-59q50 303 -57 465q-106 162 -330 162q-268 0 -439 -202q-172 -202 -172 -540q0 -290 149 -475q148 -184 396 -184q347 0 574 278z" />
    <glyph glyph-name="Cdotaccent.swash" horiz-adv-x="1380" 
d="M710 1660q-16 15 -19 36.5t4.5 41.5t24.5 33t42 11q29 0 49 -20.5t20 -50.5t-20 -50.5t-49 -20.5q-32 0 -52 20zM688 -70q-278 0 -442 198q-164 199 -164 519q0 364 191 582q190 217 481 217q258 0 378 -181q119 -182 68 -503h-59q50 303 -57 465q-106 162 -330 162
q-268 0 -439 -202q-172 -202 -172 -540q0 -290 149 -475q148 -184 396 -184q347 0 574 278l30 -57q-235 -279 -604 -279z" />
    <glyph glyph-name="D.swash" horiz-adv-x="1814" 
d="M967 1419q339 0 535 -171t196 -513q0 -348 -199 -541q-200 -194 -532 -194h-371v1368h-16q-264 0 -394.5 -94t-130.5 -273q0 -162 96 -254q95 -92 261 -92v-55q-105 0 -186 34t-129 91t-72.5 126.5t-24.5 147.5q0 87 28.5 159.5t91.5 133.5q63 60 174 93.5t265 33.5h37
h371zM967 53q306 0 487 184q182 184 182 498q0 309 -179 470t-490 161h-312v-1313h312z" />
    <glyph glyph-name="Dcaron.swash" horiz-adv-x="1814" 
d="M1096 1571h-74l-258 434h57l238 -385l239 385h58zM967 1419q339 0 535 -171t196 -513q0 -348 -199 -541q-200 -194 -532 -194h-371v1368h-16q-264 0 -394.5 -94t-130.5 -273q0 -162 96 -254q95 -92 261 -92v-55q-105 0 -186 34t-129 91t-72.5 126.5t-24.5 147.5
q0 87 28.5 159.5t91.5 133.5q63 60 174 93.5t265 33.5h37h371zM967 53q306 0 487 184q182 184 182 498q0 309 -179 470t-490 161h-312v-1313h312z" />
    <glyph glyph-name="Dcroat.swash" horiz-adv-x="1896" 
d="M1049 1419q339 0 535 -171t196 -513q0 -348 -199 -541q-200 -194 -532 -194h-371v684h-211v53h211v631h-16q-305 0 -456 -115.5t-151 -332.5q0 -118 39.5 -212t132.5 -155q91 -61 226 -61v-56q-115 0 -203.5 41t-142.5 111q-107 137 -107 330q0 105 33 190.5t105 157.5
t199 112.5t304 40.5h37h371zM1049 53q306 0 487 184q182 184 182 498q0 309 -179 470t-490 161h-312v-629h428v-53h-428v-631h312z" />
    <glyph glyph-name="E.swash" horiz-adv-x="1656" 
d="M1524 1366h-826v-586h674v-53h-674v-674h826v-53h-885v1368h-59q-264 0 -394.5 -94t-130.5 -273q0 -162 96 -254q95 -92 261 -92v-55q-105 0 -186 34t-129 91t-72.5 126.5t-24.5 147.5q0 87 28.5 159.5t91.5 133.5q63 60 174 93.5t265 33.5h80h885v-53z" />
    <glyph glyph-name="Eacute.swash" horiz-adv-x="1656" 
d="M1284 1989l-276 -418h-56l256 418h76zM1524 1366h-826v-586h674v-53h-674v-674h826v-53h-885v1368h-59q-264 0 -394.5 -94t-130.5 -273q0 -162 96 -254q95 -92 261 -92v-55q-105 0 -186 34t-129 91t-72.5 126.5t-24.5 147.5q0 87 28.5 159.5t91.5 133.5q63 60 174 93.5
t265 33.5h80h885v-53z" />
    <glyph glyph-name="Ecaron.swash" horiz-adv-x="1656" 
d="M1014 1571h-74l-258 434h57l240 -385l238 385h57zM1524 1366h-826v-586h674v-53h-674v-674h826v-53h-885v1368h-59q-264 0 -394.5 -94t-130.5 -273q0 -162 96 -254q95 -92 261 -92v-55q-105 0 -186 34t-129 91t-72.5 126.5t-24.5 147.5q0 87 28.5 159.5t91.5 133.5
q63 60 174 93.5t265 33.5h80h885v-53z" />
    <glyph glyph-name="Ecircumflex.swash" horiz-adv-x="1656" 
d="M979 1939l-240 -385h-57l258 435h74l260 -435h-57zM1524 1366h-826v-586h674v-53h-674v-674h826v-53h-885v1368h-59q-264 0 -394.5 -94t-130.5 -273q0 -162 96 -254q95 -92 261 -92v-55q-105 0 -186 34t-129 91t-72.5 126.5t-24.5 147.5q0 87 28.5 159.5t91.5 133.5
q63 60 174 93.5t265 33.5h80h885v-53z" />
    <glyph glyph-name="Edieresis.swash" horiz-adv-x="1656" 
d="M809 1638q-33 -1 -49 20t-16 47t16 46.5t49 17.5q25 0 43 -18t18 -46t-18 -47.5t-43 -19.5zM1157 1638q-29 0 -47 19.5t-18 47.5t18 46t47 18t47.5 -18t18.5 -46t-18.5 -47.5t-47.5 -19.5zM1524 1366h-826v-586h674v-53h-674v-674h826v-53h-885v1368h-59
q-264 0 -394.5 -94t-130.5 -273q0 -162 96 -254q95 -92 261 -92v-55q-105 0 -186 34t-129 91t-72.5 126.5t-24.5 147.5q0 87 28.5 159.5t91.5 133.5q63 60 174 93.5t265 33.5h80h885v-53z" />
    <glyph glyph-name="Edotaccent.swash" horiz-adv-x="1656" 
d="M983 1640q-31 0 -50.5 19.5t-19.5 50.5t19.5 51.5t50.5 20.5t51.5 -20.5t20.5 -50.5t-20.5 -50.5t-51.5 -20.5zM1524 1366h-826v-586h674v-53h-674v-674h826v-53h-885v1368h-59q-264 0 -394.5 -94t-130.5 -273q0 -162 96 -254q95 -92 261 -92v-55q-105 0 -186 34t-129 91
t-72.5 126.5t-24.5 147.5q0 87 28.5 159.5t91.5 133.5q63 60 174 93.5t265 33.5h80h885v-53z" />
    <glyph glyph-name="Egrave.swash" horiz-adv-x="1656" 
d="M1001 1571h-55l-276 418h75zM1524 1366h-826v-586h674v-53h-674v-674h826v-53h-885v1368h-59q-264 0 -394.5 -94t-130.5 -273q0 -162 96 -254q95 -92 261 -92v-55q-105 0 -186 34t-129 91t-72.5 126.5t-24.5 147.5q0 87 28.5 159.5t91.5 133.5q63 60 174 93.5t265 33.5
h80h885v-53z" />
    <glyph glyph-name="Emacron.swash" horiz-adv-x="1656" 
d="M1325 1800v-51h-674v51h674zM1524 1366h-826v-586h674v-53h-674v-674h826v-53h-885v1368h-59q-264 0 -394.5 -94t-130.5 -273q0 -162 96 -254q95 -92 261 -92v-55q-105 0 -186 34t-129 91t-72.5 126.5t-24.5 147.5q0 87 28.5 159.5t91.5 133.5q63 60 174 93.5t265 33.5
h80h885v-53z" />
    <glyph glyph-name="Eng.aalt" horiz-adv-x="1181" 
d="M934 1051h57v-1010q0 -352 -289 -352q-107 0 -196 43l16 61q71 -49 178 -49q216 0 232 252l-684 952v-948h-58v1051h60l684 -953v953z" />
    <glyph glyph-name="Eogonek.swash" horiz-adv-x="1656" 
d="M1528 -465l18 -55q-122 -62 -248 -64q-105 0 -156.5 55.5t-51.5 149.5q0 114 88.5 212t255.5 167h-795v1368h-59q-264 0 -394.5 -94t-130.5 -273q0 -162 96 -254q95 -92 261 -92v-55q-105 0 -186 34t-129 91t-72.5 126.5t-24.5 147.5q0 87 28.5 159.5t91.5 133.5
q63 60 174 93.5t265 33.5h80h885v-53h-826v-586h674v-53h-674v-674h826v-20q3 1 7 2t9 2l4 -37q-393 -167 -393 -377q0 -72 38 -110.5t111 -38.5q119 0 228 61z" />
    <glyph glyph-name="Eth.swash" horiz-adv-x="1896" 
d="M1049 1419q339 0 535 -171t196 -513q0 -348 -199 -541q-200 -194 -532 -194h-371v684h-211v53h211v631h-16q-305 0 -456 -115.5t-151 -332.5q0 -118 39.5 -212t132.5 -155q91 -61 226 -61v-56q-115 0 -203.5 41t-142.5 111q-107 137 -107 330q0 105 33 190.5t105 157.5
t199 112.5t304 40.5h37h371zM1049 53q306 0 487 184q182 184 182 498q0 309 -179 470t-490 161h-312v-629h428v-53h-428v-631h312z" />
    <glyph glyph-name="F.swash" horiz-adv-x="1624" 
d="M1532 1366h-805v-586h653v-53h-653v-727h-59v1368h-88q-264 0 -394.5 -94t-130.5 -273q0 -162 96 -254q95 -92 261 -92v-55q-105 0 -186 34t-129 91t-72.5 126.5t-24.5 147.5q0 87 28.5 159.5t91.5 133.5q63 60 174 93.5t265 33.5h109h864v-53z" />
    <glyph glyph-name="G.c2sc" horiz-adv-x="1171" 
d="M608 514v53h436v-510q-208 -78 -417 -77q-244 0 -389 145q-146 146 -146 399q0 250 153 400q152 149 384 149q263 0 420 -147l-41 -43q-142 131 -377 131q-210 0 -343 -133q-134 -134 -134 -357q0 -225 131 -356t346 -131q199 0 352 63v414h-375z" />
    <glyph glyph-name="G.salt" horiz-adv-x="1460" 
d="M727 760h633v-51q0 -185 -47.5 -327.5t-136.5 -232.5q-177 -180 -461 -180q-281 0 -457 200t-176 540q0 335 191 538q191 201 479 201q328 0 522 -209l-43 -43q-178 195 -479 195q-266 0 -437 -186q-172 -187 -172 -496q0 -311 161 -496q161 -186 411 -186q264 0 424 172
q159 173 159 508h-571v53z" />
    <glyph glyph-name="G.swash" horiz-adv-x="1386" 
d="M1198 555h59v-528q0 -132 -31 -230t-82 -158q-50 -59 -124 -95t-145.5 -49t-157.5 -13q-170 0 -296 43q-129 44 -208 102l23 70q65 -62 187 -109q120 -45 294 -45q78 0 142.5 11.5t129.5 43.5q64 33 109 85q45 53 72.5 140.5t27.5 205.5v22q-219 -80 -432 -80
q-331 0 -510 195q-178 193 -178 543q0 335 191 538q191 201 479 201q88 0 161.5 -17t140.5 -62q64 -42 109 -112q43 -69 63.5 -177t10.5 -251h-64q12 121 -2.5 220.5t-62.5 177.5t-138.5 121t-217.5 43q-266 0 -437 -186q-172 -187 -172 -496q0 -316 165 -498t466 -182
q233 0 428 88v438z" />
    <glyph glyph-name="Gbreve.c2sc" horiz-adv-x="1171" 
d="M633 1266q-152 0 -236 97q-83 97 -73 275h51q-8 -147 52 -235t204 -88q143 0 204 88q60 88 52 235h51q5 -90 -13.5 -159.5t-58 -116.5t-98.5 -71.5t-135 -24.5zM608 514v53h436v-510q-208 -78 -417 -77q-244 0 -389 145q-146 146 -146 399q0 250 153 400q152 149 384 149
q263 0 420 -147l-41 -43q-142 131 -377 131q-210 0 -343 -133q-134 -134 -134 -357q0 -225 131 -356t346 -131q199 0 352 63v414h-375z" />
    <glyph glyph-name="Gbreve.salt" horiz-adv-x="1460" 
d="M965 1694q-82 -97 -233 -97q-152 0 -236 98t-74 275h51q-8 -148 53 -235q60 -88 203 -88t204 88q60 88 52 235h51q10 -179 -71 -276zM727 760h633v-51q0 -185 -47.5 -327.5t-136.5 -232.5q-177 -180 -461 -180q-281 0 -457 200t-176 540q0 335 191 538q191 201 479 201
q328 0 522 -209l-43 -43q-178 195 -479 195q-266 0 -437 -186q-172 -187 -172 -496q0 -311 161 -496q161 -186 411 -186q264 0 424 172q159 173 159 508h-571v53z" />
    <glyph glyph-name="Gbreve.swash" horiz-adv-x="1386" 
d="M983 1694q-82 -97 -233 -97q-152 0 -236 98t-74 275h52q-8 -147 52 -235t204 -88q143 0 204 88q60 88 52 235h51q11 -180 -72 -276zM1198 555h59v-528q0 -132 -31 -230t-82 -158q-50 -59 -124 -95t-145.5 -49t-157.5 -13q-170 0 -296 43q-129 44 -208 102l23 70
q65 -62 187 -109q120 -45 294 -45q78 0 142.5 11.5t129.5 43.5q64 33 109 85q45 53 72.5 140.5t27.5 205.5v22q-219 -80 -432 -80q-331 0 -510 195q-178 193 -178 543q0 335 191 538q191 201 479 201q88 0 161.5 -17t140.5 -62q64 -42 109 -112q43 -69 63.5 -177t10.5 -251
h-64q12 121 -2.5 220.5t-62.5 177.5t-138.5 121t-217.5 43q-266 0 -437 -186q-172 -187 -172 -496q0 -316 165 -498t466 -182q233 0 428 88v438z" />
    <glyph glyph-name="Gdotaccent.c2sc" horiz-adv-x="1171" 
d="M649 1253q-35 0 -57.5 22.5t-22.5 56.5t22.5 56.5t57.5 22.5q33 0 55.5 -22.5t22.5 -56.5t-22.5 -56.5t-55.5 -22.5zM608 514v53h436v-510q-208 -78 -417 -77q-244 0 -389 145q-146 146 -146 399q0 250 153 400q152 149 384 149q263 0 420 -147l-41 -43
q-142 131 -377 131q-210 0 -343 -133q-134 -134 -134 -357q0 -225 131 -356t346 -131q199 0 352 63v414h-375z" />
    <glyph glyph-name="Gdotaccent.swash" horiz-adv-x="1386" 
d="M752 1640q-33 0 -52.5 19.5t-19.5 50.5t19.5 51.5t52.5 20.5q29 0 49 -20.5t20 -50.5t-20 -50.5t-49 -20.5zM1198 555h59v-528q0 -132 -31 -230t-82 -158q-50 -59 -124 -95t-145.5 -49t-157.5 -13q-170 0 -296 43q-129 44 -208 102l23 70q65 -62 187 -109
q120 -45 294 -45q78 0 142.5 11.5t129.5 43.5q64 33 109 85q45 53 72.5 140.5t27.5 205.5v22q-219 -80 -432 -80q-331 0 -510 195q-178 193 -178 543q0 335 191 538q191 201 479 201q88 0 161.5 -17t140.5 -62q64 -42 109 -112q43 -69 63.5 -177t10.5 -251h-64
q12 121 -2.5 220.5t-62.5 177.5t-138.5 121t-217.5 43q-266 0 -437 -186q-172 -187 -172 -496q0 -316 165 -498t466 -182q233 0 428 88v438z" />
    <glyph glyph-name="H.swash" horiz-adv-x="1947" 
d="M1683 1419h60v-1419h-60v725h-915v-725h-59v1368h-129q-264 0 -394.5 -94t-130.5 -273q0 -162 96 -254q95 -92 261 -92v-55q-105 0 -186 34t-129 91t-72.5 126.5t-24.5 147.5q0 87 28.5 159.5t91.5 133.5q63 60 174 93.5t265 33.5h150h59v-641h915v641z" />
    <glyph glyph-name="Hbar.aalt" horiz-adv-x="1214" 
d="M1135 846v-51h-113v-795h-59v508h-713v-508h-60v795h-110v51h110v205h60v-205h713v205h59v-205h113zM963 561v234h-713v-234h713z" />
    <glyph glyph-name="I.c2sc" horiz-adv-x="440" 
d="M250 1051v-1051h-60v1051h60z" />
    <glyph glyph-name="I.swash" horiz-adv-x="856" 
d="M592 1419h59v-1419h-59v1368h-12q-264 0 -394.5 -94t-130.5 -273q0 -162 96 -254q95 -92 261 -92v-55q-105 0 -186 34t-129 91t-72.5 126.5t-24.5 147.5q0 87 28.5 159.5t91.5 133.5q63 60 174 93.5t265 33.5h33z" />
    <glyph glyph-name="Iacute.swash" horiz-adv-x="856" 
d="M858 1989h76l-277 -418h-55zM592 1419h59v-1419h-59v1368h-12q-264 0 -394.5 -94t-130.5 -273q0 -162 96 -254q95 -92 261 -92v-55q-105 0 -186 34t-129 91t-72.5 126.5t-24.5 147.5q0 87 28.5 159.5t91.5 133.5q63 60 174 93.5t265 33.5h33z" />
    <glyph glyph-name="Icircumflex.swash" horiz-adv-x="856" 
d="M664 1989l260 -435h-58l-237 385l-240 -385h-57l258 435h74zM592 1419h59v-1419h-59v1368h-12q-264 0 -394.5 -94t-130.5 -273q0 -162 96 -254q95 -92 261 -92v-55q-105 0 -186 34t-129 91t-72.5 126.5t-24.5 147.5q0 87 28.5 159.5t91.5 133.5q63 60 174 93.5t265 33.5
h33z" />
    <glyph glyph-name="Idieresis.swash" horiz-adv-x="856" 
d="M459 1638q-31 0 -48.5 18.5t-17.5 47.5t17.5 47t48.5 18q25 0 43 -18t18 -46t-18 -47.5t-43 -19.5zM807 1769q29 0 47 -18t18 -46t-18 -47.5t-47 -19.5t-47.5 18.5t-18.5 47.5t18.5 47t47.5 18zM592 1419h59v-1419h-59v1368h-12q-264 0 -394.5 -94t-130.5 -273
q0 -162 96 -254q95 -92 261 -92v-55q-105 0 -186 34t-129 91t-72.5 126.5t-24.5 147.5q0 87 28.5 159.5t91.5 133.5q63 60 174 93.5t265 33.5h33z" />
    <glyph glyph-name="Idotaccent.c2sc" horiz-adv-x="440" 
d="M182 1276q-17 17 -20.5 41t4.5 45.5t26.5 36t45.5 12.5q35 0 57 -22.5t22 -56.5t-22.5 -56.5t-56.5 -22.5q-35 0 -56 23zM250 1051v-1051h-60v1051h60z" />
    <glyph glyph-name="Idotaccent.swash" horiz-adv-x="856" 
d="M633 1782q31 0 51.5 -20.5t20.5 -51.5t-20.5 -50.5t-51.5 -19.5t-50.5 19.5t-19.5 50.5t19.5 51.5t50.5 20.5zM592 1419h59v-1419h-59v1368h-12q-264 0 -394.5 -94t-130.5 -273q0 -162 96 -254q95 -92 261 -92v-55q-105 0 -186 34t-129 91t-72.5 126.5t-24.5 147.5
q0 87 28.5 159.5t91.5 133.5q63 60 174 93.5t265 33.5h33z" />
    <glyph glyph-name="Igrave.swash" horiz-adv-x="856" 
d="M651 1571h-55l-277 418h76zM592 1419h59v-1419h-59v1368h-12q-264 0 -394.5 -94t-130.5 -273q0 -162 96 -254q95 -92 261 -92v-55q-105 0 -186 34t-129 91t-72.5 126.5t-24.5 147.5q0 87 28.5 159.5t91.5 133.5q63 60 174 93.5t265 33.5h33z" />
    <glyph glyph-name="Imacron.swash" horiz-adv-x="856" 
d="M301 1800h674v-51h-674v51zM592 1419h59v-1419h-59v1368h-12q-264 0 -394.5 -94t-130.5 -273q0 -162 96 -254q95 -92 261 -92v-55q-105 0 -186 34t-129 91t-72.5 126.5t-24.5 147.5q0 87 28.5 159.5t91.5 133.5q63 60 174 93.5t265 33.5h33z" />
    <glyph glyph-name="Iogonek.swash" horiz-adv-x="856" 
d="M635 -465l18 -55q-122 -62 -247 -64q-105 0 -157 55.5t-52 149.5q0 121 102 226q102 106 293 171v1350h-12q-264 0 -394.5 -94t-130.5 -273q0 -162 96 -254q95 -92 261 -92v-55q-105 0 -186 34t-129 91t-72.5 126.5t-24.5 147.5q0 87 28.5 159.5t91.5 133.5
q63 60 174 93.5t265 33.5h33h59v-1419q-393 -167 -393 -377q0 -72 37.5 -110.5t112.5 -38.5q118 0 227 61z" />
    <glyph glyph-name="J.swash" horiz-adv-x="1081" 
d="M856 1419h59v-1233q0 -142 -39.5 -250t-108.5 -171q-139 -125 -327 -125q-87 0 -160.5 25t-138.5 79t-103 145.5t-38 212.5q0 219 169 357q170 137 454 137v-49q-147 0 -272.5 -47.5t-209.5 -151.5q-84 -103 -84 -246q0 -186 101 -296q100 -109 282 -109q82 0 156 28.5
t132 85.5q58 58 93 153.5t35 223.5v1180h-450v51h450z" />
    <glyph glyph-name="K.swash" horiz-adv-x="1617" 
d="M1489 0l-528 850l-302 -309v-541h-59v1368h-20q-264 0 -394.5 -94t-130.5 -273q0 -162 96 -254q95 -92 261 -92v-55q-105 0 -186 34t-129 91t-72.5 126.5t-24.5 147.5q0 87 28.5 159.5t91.5 133.5q63 60 174 93.5t265 33.5h41h59v-798l777 798h75l-507 -522l557 -897h-72
z" />
    <glyph glyph-name="L.swash" horiz-adv-x="1488" 
d="M786 53h682v-53h-741v1368h-147q-264 0 -394.5 -94t-130.5 -273q0 -162 96 -254q95 -92 261 -92v-55q-105 0 -186 34t-129 91t-72.5 126.5t-24.5 147.5q0 87 28.5 159.5t91.5 133.5q63 60 174 93.5t265 33.5h168h59v-1366z" />
    <glyph glyph-name="Lacute.swash" horiz-adv-x="1488" 
d="M1067 1989l-276 -418h-56l256 418h76zM786 53h682v-53h-741v1368h-147q-264 0 -394.5 -94t-130.5 -273q0 -162 96 -254q95 -92 261 -92v-55q-105 0 -186 34t-129 91t-72.5 126.5t-24.5 147.5q0 87 28.5 159.5t91.5 133.5q63 60 174 93.5t265 33.5h168h59v-1366z" />
    <glyph glyph-name="Lcaron.swash" horiz-adv-x="1488" 
d="M797 1571h-74l-258 434h57l240 -385l237 385h58zM786 53h682v-53h-741v1368h-147q-264 0 -394.5 -94t-130.5 -273q0 -162 96 -254q95 -92 261 -92v-55q-105 0 -186 34t-129 91t-72.5 126.5t-24.5 147.5q0 87 28.5 159.5t91.5 133.5q63 60 174 93.5t265 33.5h168h59v-1366
z" />
    <glyph glyph-name="Lslash.swash" horiz-adv-x="1404" 
d="M702 53h682v-53h-741v584l-332 -224l-28 43l360 242v723h-129q-215 0 -338 -102q-123 -103 -123 -277q0 -170 133 -293l-43 -32q-143 134 -143 323q0 193 134 313q134 119 382 119h127h59v-735l422 285l29 -41l-451 -305v-570z" />
    <glyph glyph-name="M.swash" horiz-adv-x="2201" 
d="M1931 1419h66v-1419h-62v1278l-555 -1217h-63l-559 1219v-1280h-58v1368h-120q-264 0 -394.5 -94t-130.5 -273q0 -162 96 -254q95 -92 261 -92v-55q-105 0 -186 34t-129 91t-72.5 126.5t-24.5 147.5q0 87 28.5 159.5t91.5 133.5q63 60 174 93.5t265 33.5h141h60
l592 -1286z" />
    <glyph glyph-name="N.swash" horiz-adv-x="1843" 
d="M1581 1419h57v-1419h-63l-873 1313v-1313h-57v1368h-65q-523 -1 -525 -367q0 -162 96 -254q95 -92 261 -92v-55q-105 0 -186 34t-129 91t-72.5 126.5t-24.5 147.5q0 87 28.5 159.5t91.5 133.5q63 60 174 93.5t265 33.5h86h60l876 -1319v1319z" />
    <glyph glyph-name="Nacute.swash" horiz-adv-x="1843" 
d="M1444 1989l-277 -418h-55l256 418h76zM1581 1419h57v-1419h-63l-873 1313v-1313h-57v1368h-65q-523 -1 -525 -367q0 -162 96 -254q95 -92 261 -92v-55q-105 0 -186 34t-129 91t-72.5 126.5t-24.5 147.5q0 87 28.5 159.5t91.5 133.5q63 60 174 93.5t265 33.5h86h60
l876 -1319v1319z" />
    <glyph glyph-name="Ncaron.swash" horiz-adv-x="1843" 
d="M1174 1571h-74l-258 434h57l240 -385l237 385h58zM1581 1419h57v-1419h-63l-873 1313v-1313h-57v1368h-65q-523 -1 -525 -367q0 -162 96 -254q95 -92 261 -92v-55q-105 0 -186 34t-129 91t-72.5 126.5t-24.5 147.5q0 87 28.5 159.5t91.5 133.5q63 60 174 93.5t265 33.5
h86h60l876 -1319v1319z" />
    <glyph glyph-name="Ntilde.swash" horiz-adv-x="1843" 
d="M848 1571h-49q-13 375 145 375q20 0 41 -8.5t36 -17.5q16 -10 36 -31q20 -22 32 -35q5 -7 14 -17.5l21 -24.5q11 -15 19 -25l12 -15t12.5 -15.5t21.5 -27.5q26 -33 36 -45q9 -12 31 -32q20 -20 37.5 -27t35.5 -7q106 0 103 326h49q4 -199 -35 -289t-123 -90
q-20 0 -41.5 9t-36.5 20q-18 11 -39 34q-12 11 -20.5 20t-13.5 15t-14.5 17t-22.5 27q-14 16 -22.5 26.5t-12.5 15.5l-12 15t-21 26t-21.5 26.5t-13.5 15.5t-12 12.5t-16 17.5q-19 18 -33.5 24t-28.5 6q-53 0 -75.5 -76.5t-18.5 -244.5zM1581 1419h57v-1419h-63l-873 1313
v-1313h-57v1368h-65q-523 -1 -525 -367q0 -162 96 -254q95 -92 261 -92v-55q-105 0 -186 34t-129 91t-72.5 126.5t-24.5 147.5q0 87 28.5 159.5t91.5 133.5q63 60 174 93.5t265 33.5h86h60l876 -1319v1319z" />
    <glyph glyph-name="O.swash" horiz-adv-x="1503" 
d="M1427 623q4 -278 -187 -465q-190 -187 -488 -187t-486 204q-188 205 -188 550q0 331 192 527q190 196 482 196q149 0 249 -89q99 -88 97 -241q0 -156 -138 -254q-140 -98 -331 -98v51q94 0 184 31t159 102q68 71 68 168q2 123 -78 198q-81 75 -210 75q-268 0 -440 -181
q-173 -182 -173 -485q0 -318 172 -506q172 -190 441 -190q134 0 249.5 48t196.5 129t125.5 189t42.5 226q-1 71 -14 134t-38.5 116.5t-63.5 94.5t-89 66l25 51q53 -28 97 -70.5t75.5 -99.5t49.5 -129.5t19 -160.5z" />
    <glyph glyph-name="OE.aalt" horiz-adv-x="1701" 
d="M1610 997h-621v-415h500v-52h-500v-477h621v-53h-678v29q-128 -49 -297 -49q-242 0 -392 150q-151 148 -151 407q0 245 154 390q154 146 389 146q162 0 297 -53v31h678v-54zM635 37q176 0 297 67v844q-123 66 -297 66q-212 0 -346 -130q-135 -130 -135 -347
q0 -226 135 -363t346 -137z" />
    <glyph glyph-name="Oacute.swash" horiz-adv-x="1503" 
d="M1104 1989l-277 -418h-55l256 418h76zM1427 623q4 -278 -187 -465q-190 -187 -488 -187t-486 204q-188 205 -188 550q0 331 192 527q190 196 482 196q149 0 249 -89q99 -88 97 -241q0 -156 -138 -254q-140 -98 -331 -98v51q94 0 184 31t159 102q68 71 68 168
q2 123 -78 198q-81 75 -210 75q-268 0 -440 -181q-173 -182 -173 -485q0 -318 172 -506q172 -190 441 -190q134 0 249.5 48t196.5 129t125.5 189t42.5 226q-1 71 -14 134t-38.5 116.5t-63.5 94.5t-89 66l25 51q53 -28 97 -70.5t75.5 -99.5t49.5 -129.5t19 -160.5z" />
    <glyph glyph-name="Ocircumflex.swash" horiz-adv-x="1503" 
d="M799 1939l-240 -385h-57l258 435h74l260 -435h-58zM1427 623q4 -278 -187 -465q-190 -187 -488 -187t-486 204q-188 205 -188 550q0 331 192 527q190 196 482 196q149 0 249 -89q99 -88 97 -241q0 -156 -138 -254q-140 -98 -331 -98v51q94 0 184 31t159 102q68 71 68 168
q2 123 -78 198q-81 75 -210 75q-268 0 -440 -181q-173 -182 -173 -485q0 -318 172 -506q172 -190 441 -190q134 0 249.5 48t196.5 129t125.5 189t42.5 226q-1 71 -14 134t-38.5 116.5t-63.5 94.5t-89 66l25 51q53 -28 97 -70.5t75.5 -99.5t49.5 -129.5t19 -160.5z" />
    <glyph glyph-name="Odieresis.swash" horiz-adv-x="1503" 
d="M629 1638q-33 -1 -49 20t-16 47t16 46.5t49 17.5q27 0 45 -18t18 -46t-18 -47.5t-45 -19.5zM977 1638q-29 0 -47.5 19.5t-18.5 47.5t18.5 46t47.5 18t47 -18t18 -46t-18 -47.5t-47 -19.5zM1427 623q4 -278 -187 -465q-190 -187 -488 -187t-486 204q-188 205 -188 550
q0 331 192 527q190 196 482 196q149 0 249 -89q99 -88 97 -241q0 -156 -138 -254q-140 -98 -331 -98v51q94 0 184 31t159 102q68 71 68 168q2 123 -78 198q-81 75 -210 75q-268 0 -440 -181q-173 -182 -173 -485q0 -318 172 -506q172 -190 441 -190q134 0 249.5 48
t196.5 129t125.5 189t42.5 226q-1 71 -14 134t-38.5 116.5t-63.5 94.5t-89 66l25 51q53 -28 97 -70.5t75.5 -99.5t49.5 -129.5t19 -160.5z" />
    <glyph glyph-name="Ograve.swash" horiz-adv-x="1503" 
d="M766 1571l-277 418h76l256 -418h-55zM1427 623q4 -278 -187 -465q-190 -187 -488 -187t-486 204q-188 205 -188 550q0 331 192 527q190 196 482 196q149 0 249 -89q99 -88 97 -241q0 -156 -138 -254q-140 -98 -331 -98v51q94 0 184 31t159 102q68 71 68 168
q2 123 -78 198q-81 75 -210 75q-268 0 -440 -181q-173 -182 -173 -485q0 -318 172 -506q172 -190 441 -190q134 0 249.5 48t196.5 129t125.5 189t42.5 226q-1 71 -14 134t-38.5 116.5t-63.5 94.5t-89 66l25 51q53 -28 97 -70.5t75.5 -99.5t49.5 -129.5t19 -160.5z" />
    <glyph glyph-name="Ohungarumlaut.swash" horiz-adv-x="1503" 
d="M881 1987l-199 -416h-47l170 416h76zM1231 1987l-318 -416h-51l293 416h76zM1427 623q4 -278 -187 -465q-190 -187 -488 -187t-486 204q-188 205 -188 550q0 331 192 527q190 196 482 196q149 0 249 -89q99 -88 97 -241q0 -156 -138 -254q-140 -98 -331 -98v51
q94 0 184 31t159 102q68 71 68 168q2 123 -78 198q-81 75 -210 75q-268 0 -440 -181q-173 -182 -173 -485q0 -318 172 -506q172 -190 441 -190q134 0 249.5 48t196.5 129t125.5 189t42.5 226q-1 71 -14 134t-38.5 116.5t-63.5 94.5t-89 66l25 51q53 -28 97 -70.5t75.5 -99.5
t49.5 -129.5t19 -160.5z" />
    <glyph glyph-name="Omacron.swash" horiz-adv-x="1503" 
d="M471 1749v51h674v-51h-674zM1427 623q4 -278 -187 -465q-190 -187 -488 -187t-486 204q-188 205 -188 550q0 331 192 527q190 196 482 196q149 0 249 -89q99 -88 97 -241q0 -156 -138 -254q-140 -98 -331 -98v51q94 0 184 31t159 102q68 71 68 168q2 123 -78 198
q-81 75 -210 75q-268 0 -440 -181q-173 -182 -173 -485q0 -318 172 -506q172 -190 441 -190q134 0 249.5 48t196.5 129t125.5 189t42.5 226q-1 71 -14 134t-38.5 116.5t-63.5 94.5t-89 66l25 51q53 -28 97 -70.5t75.5 -99.5t49.5 -129.5t19 -160.5z" />
    <glyph glyph-name="Oslash.aalt" horiz-adv-x="1267" 
d="M1180 1012l-123 -121q119 -143 119 -354q0 -262 -149 -409q-149 -148 -392 -148q-227 0 -373 131l-125 -121l-45 37l129 127q-129 150 -129 383q0 244 154 389q152 145 389 145q232 0 381 -139l119 117zM154 537q0 -206 112 -340l707 694q-134 125 -338 125
q-210 0 -346 -131q-135 -130 -135 -348zM1114 537q0 184 -102 311l-707 -692q130 -121 330 -121q212 0 346 137q133 136 133 365z" />
    <glyph glyph-name="Otilde.swash" horiz-adv-x="1503" 
d="M600 1892q-53 0 -75.5 -76.5t-18.5 -244.5h-49q-13 375 145 375q20 0 41 -8.5t36 -17.5t37 -31q22 -24 32 -35q5 -7 13.5 -17.5t20.5 -24.5q11 -15 19 -25l12 -15t12.5 -15.5t21.5 -27.5t22 -28t15 -17q5 -7 13 -14.5t18 -17.5q20 -20 37 -27t35 -7q109 0 103 326h49
q6 -199 -34 -289t-124 -90q-20 0 -41.5 9t-36.5 20q-18 11 -39 34q-12 11 -20.5 20t-13.5 15t-14 17t-22 27t-21.5 26.5t-12.5 15.5l-12 15t-21 26t-21.5 26.5t-13.5 15.5t-12 12.5t-16 17.5q-19 18 -34.5 24t-29.5 6zM1427 623q4 -278 -187 -465q-190 -187 -488 -187
t-486 204q-188 205 -188 550q0 331 192 527q190 196 482 196q149 0 249 -89q99 -88 97 -241q0 -156 -138 -254q-140 -98 -331 -98v51q94 0 184 31t159 102q68 71 68 168q2 123 -78 198q-81 75 -210 75q-268 0 -440 -181q-173 -182 -173 -485q0 -318 172 -506
q172 -190 441 -190q134 0 249.5 48t196.5 129t125.5 189t42.5 226q-1 71 -14 134t-38.5 116.5t-63.5 94.5t-89 66l25 51q53 -28 97 -70.5t75.5 -99.5t49.5 -129.5t19 -160.5z" />
    <glyph glyph-name="P.swash" horiz-adv-x="1568" 
d="M1049 1419q211 0 322.5 -96.5t111.5 -286.5t-115 -295q-115 -106 -319 -106h-431v-635h-59v1368q-254 -4 -379 -98t-125 -269q0 -162 96 -254q95 -92 261 -92v-55q-105 0 -186 34t-129 91t-72.5 126.5t-24.5 147.5q0 87 28.5 159.5t91.5 133.5q63 60 174 93.5t265 33.5
h490zM1051 688q171 0 271 92q99 92 99 256q0 81 -25 142.5t-73 103.5t-116.5 63t-155.5 21h-433v-678h433z" />
    <glyph glyph-name="Q.salt" horiz-adv-x="1503" 
d="M1425 725q0 -214 -70 -372.5t-198 -254.5l168 -209l-47 -39l-172 213q-155 -92 -354 -92q-298 0 -486 204q-188 205 -188 550q0 331 192 527q190 196 482 196q289 0 481 -194q192 -195 192 -529zM139 725q0 -318 172 -506q172 -190 441 -190q274 0 443 189
q169 187 169 507q0 304 -172 485t-440 181q-269 0 -441 -181t-172 -485z" />
    <glyph glyph-name="Q.swash" horiz-adv-x="1503" 
d="M1444 -188l6 -56q-91 -59 -233 -59q-56 -1 -109.5 15t-104 41t-97 55t-88.5 58q-60 38 -125.5 64.5t-125.5 26.5q-155 0 -315 -88l-21 55q134 74 289 84q-204 70 -323 258t-119 459q0 331 192 527q190 196 482 196q149 0 249 -89q99 -88 97 -241q0 -156 -138 -254
q-140 -98 -331 -98v51q94 0 184 31t159 102q68 71 68 168q2 123 -78 198q-81 75 -210 75q-268 0 -440 -181q-173 -182 -173 -485q0 -318 172 -506q172 -190 441 -190q134 0 249.5 48t196.5 129t125.5 189t42.5 226q-1 71 -14 134t-38.5 116.5t-63.5 94.5t-89 66l25 51
q53 -28 97 -70.5t75.5 -99.5t49.5 -129.5t19 -160.5q4 -278 -187 -465q-190 -187 -488 -187h-13q58 -26 148 -85q45 -30 87.5 -54t82.5 -43q78 -37 166 -37q126 1 221 60z" />
    <glyph glyph-name="R.swash" horiz-adv-x="1746" 
d="M1526 0l-430 655h-402v-655h-59v1368h-55q-264 0 -394.5 -94t-130.5 -273q0 -162 96 -254q95 -92 261 -92v-55q-105 0 -186 34t-129 91t-72.5 126.5t-24.5 147.5q0 87 28.5 159.5t91.5 133.5q63 60 174 93.5t265 33.5h76h526q99 0 176.5 -24t131 -71t82 -116t28.5 -159
q0 -181 -110 -288q-110 -106 -306 -106l434 -655h-71zM694 1366v-657h469q160 0 258 89q97 88 97 251q0 160 -96 239q-97 78 -259 78h-469z" />
    <glyph glyph-name="Racute.swash" horiz-adv-x="1746" 
d="M1380 1989l-276 -418h-55l256 418h75zM1526 0l-430 655h-402v-655h-59v1368h-55q-264 0 -394.5 -94t-130.5 -273q0 -162 96 -254q95 -92 261 -92v-55q-105 0 -186 34t-129 91t-72.5 126.5t-24.5 147.5q0 87 28.5 159.5t91.5 133.5q63 60 174 93.5t265 33.5h76h526
q99 0 176.5 -24t131 -71t82 -116t28.5 -159q0 -181 -110 -288q-110 -106 -306 -106l434 -655h-71zM694 1366v-657h469q160 0 258 89q97 88 97 251q0 160 -96 239q-97 78 -259 78h-469z" />
    <glyph glyph-name="Rcaron.swash" horiz-adv-x="1746" 
d="M1110 1571h-74l-258 434h58l239 -385l238 385h57zM1526 0l-430 655h-402v-655h-59v1368h-55q-264 0 -394.5 -94t-130.5 -273q0 -162 96 -254q95 -92 261 -92v-55q-105 0 -186 34t-129 91t-72.5 126.5t-24.5 147.5q0 87 28.5 159.5t91.5 133.5q63 60 174 93.5t265 33.5h76
h526q99 0 176.5 -24t131 -71t82 -116t28.5 -159q0 -181 -110 -288q-110 -106 -306 -106l434 -655h-71zM694 1366v-657h469q160 0 258 89q97 88 97 251q0 160 -96 239q-97 78 -259 78h-469z" />
    <glyph glyph-name="S.swash" horiz-adv-x="1026" 
d="M508 -274q-206 0 -339 116q-131 117 -142 363l55 8q8 -215 122 -323q113 -107 304 -107q174 0 277 79q102 79 102 232q0 143 -90 246q-89 100 -254 199q-194 112 -301 237q-107 124 -107 295q0 165 105 271q103 106 284 106q203 0 294 -136t52 -374h-57q56 455 -289 455
q-152 0 -239 -90q-88 -91 -88 -230q0 -157 94 -263q95 -109 270 -212q45 -26 81 -49t63 -42q52 -37 118 -100q65 -63 95 -141t30 -172q0 -186 -120 -277q-121 -91 -320 -91z" />
    <glyph glyph-name="Sacute.swash" horiz-adv-x="1026" 
d="M817 1989l-276 -418h-56l256 418h76zM508 -274q-206 0 -339 116q-131 117 -142 363l55 8q8 -215 122 -323q113 -107 304 -107q174 0 277 79q102 79 102 232q0 143 -90 246q-89 100 -254 199q-194 112 -301 237q-107 124 -107 295q0 165 105 271q103 106 284 106
q203 0 294 -136t52 -374h-57q56 455 -289 455q-152 0 -239 -90q-88 -91 -88 -230q0 -157 94 -263q95 -109 270 -212q45 -26 81 -49t63 -42q52 -37 118 -100q65 -63 95 -141t30 -172q0 -186 -120 -277q-121 -91 -320 -91z" />
    <glyph glyph-name="Scaron.swash" horiz-adv-x="1026" 
d="M547 1571h-74l-258 434h57l240 -385l238 385h57zM561 598q36 -20 65 -38t51 -32q22 -15 47.5 -34.5t54.5 -44.5t51 -49.5t39 -47.5q32 -48 55.5 -115t23.5 -143q0 -186 -120 -277q-121 -91 -320 -91q-206 0 -339 116q-131 117 -142 363l55 8q8 -215 122 -323
q113 -107 304 -107q174 0 277 79q102 79 102 232q0 143 -90 246q-89 100 -254 199q-194 112 -301 237q-107 124 -107 295q0 165 105 271q103 106 284 106q203 0 294 -136t52 -374h-57q56 455 -289 455q-152 0 -239 -90q-88 -91 -88 -230q0 -157 94 -263q95 -109 270 -212z
" />
    <glyph glyph-name="Scedilla.c2sc" horiz-adv-x="897" 
d="M539 -182q91 0 143.5 -50t52.5 -141q0 -104 -74 -160q-74 -55 -188 -55q-137 0 -225 70l24 51q77 -68 201 -68q92 0 148.5 43t56.5 123q0 60 -37.5 96.5t-103.5 36.5q-105 0 -166 -61l-54 25l101 243q-195 5 -336 92l24 58q130 -94 330 -94q134 0 217 62q82 61 82 173
q0 45 -17.5 82t-40.5 61q-24 23 -69 45q-23 11 -43 19t-37 15q-18 6 -42 13t-54 15q-150 43 -228.5 116.5t-78.5 198.5q0 59 22 105.5t64 79t102.5 50t137.5 17.5q189 0 331 -86l-24 -51q-123 84 -305 84q-126 0 -197.5 -51.5t-71.5 -145.5q0 -106 68 -162q68 -57 199 -96
q32 -9 58 -17t48 -16t45 -18t48 -23q50 -25 79 -55t48.5 -76.5t19.5 -101.5q0 -134 -86 -208q-87 -75 -230 -85l-84 -188q65 35 142 35z" />
    <glyph glyph-name="T.swash" horiz-adv-x="1339" 
d="M1311 1419v-51h-457v-1368h-59v1368h-215q-264 0 -394.5 -94t-130.5 -273q0 -162 96 -254q95 -92 261 -92v-55q-105 0 -186 34t-129 91t-72.5 126.5t-24.5 147.5q0 87 28.5 159.5t91.5 133.5q63 60 174 93.5t265 33.5h752z" />
    <glyph glyph-name="Tbar.aalt" horiz-adv-x="1339" 
d="M1311 1368h-457v-770h320v-51h-320v-547h-59v547h-318v51h318v770h-256q-255 0 -370 -83q-114 -82 -114 -243q0 -133 91 -208q89 -76 245 -76v-56q-193 0 -292 100q-99 99 -99 238q0 379 518 379h793v-51z" />
    <glyph glyph-name="Tcaron.swash" horiz-adv-x="1339" 
d="M856 1571h-74l-258 434h58l239 -385l238 385h57zM1311 1419v-51h-457v-1368h-59v1368h-215q-264 0 -394.5 -94t-130.5 -273q0 -162 96 -254q95 -92 261 -92v-55q-105 0 -186 34t-129 91t-72.5 126.5t-24.5 147.5q0 87 28.5 159.5t91.5 133.5q63 60 174 93.5t265 33.5h752
z" />
    <glyph glyph-name="Thorn.aalt" horiz-adv-x="985" 
d="M526 827q167 0 256.5 -73t89.5 -213q0 -70 -23.5 -126t-67.5 -95t-108 -59.5t-145 -20.5h-278v-240h-60v1051h60v-224h276zM528 293q130 0 206 67q77 66 77 181q0 113 -76 173t-207 60h-278v-481h278z" />
    <glyph glyph-name="U.swash" horiz-adv-x="1878" 
d="M1614 1419h59v-858q0 -275 -142 -432q-143 -158 -372 -158q-231 0 -375 160q-145 160 -145 430v807h-59q-264 0 -394.5 -94t-130.5 -273q0 -162 96 -254q95 -92 261 -92v-55q-105 0 -186 34t-129 91t-72.5 126.5t-24.5 147.5q0 87 28.5 159.5t91.5 133.5q63 60 174 93.5
t265 33.5h80h59v-858q0 -243 130 -386q131 -144 329 -144q205 0 331 143t126 387v858z" />
    <glyph glyph-name="Uacute.swash" horiz-adv-x="1878" 
d="M1487 1989l-277 -418h-55l256 418h76zM1614 1419h59v-858q0 -275 -142 -432q-143 -158 -372 -158q-231 0 -375 160q-145 160 -145 430v807h-59q-264 0 -394.5 -94t-130.5 -273q0 -162 96 -254q95 -92 261 -92v-55q-105 0 -186 34t-129 91t-72.5 126.5t-24.5 147.5
q0 87 28.5 159.5t91.5 133.5q63 60 174 93.5t265 33.5h80h59v-858q0 -243 130 -386q131 -144 329 -144q205 0 331 143t126 387v858z" />
    <glyph glyph-name="Ucircumflex.swash" horiz-adv-x="1878" 
d="M1182 1939l-240 -385h-57l258 435h74l260 -435h-58zM1614 1419h59v-858q0 -275 -142 -432q-143 -158 -372 -158q-231 0 -375 160q-145 160 -145 430v807h-59q-264 0 -394.5 -94t-130.5 -273q0 -162 96 -254q95 -92 261 -92v-55q-105 0 -186 34t-129 91t-72.5 126.5
t-24.5 147.5q0 87 28.5 159.5t91.5 133.5q63 60 174 93.5t265 33.5h80h59v-858q0 -243 130 -386q131 -144 329 -144q205 0 331 143t126 387v858z" />
    <glyph glyph-name="Udieresis.swash" horiz-adv-x="1878" 
d="M1012 1638q-29 0 -47.5 19.5t-18.5 47.5t18.5 46t47.5 18q27 0 45 -18t18 -46t-18 -47.5t-45 -19.5zM1360 1638q-29 0 -47.5 19.5t-18.5 47.5t18.5 46t47.5 18t47 -18t18 -46t-18 -47.5t-47 -19.5zM1614 1419h59v-858q0 -275 -142 -432q-143 -158 -372 -158
q-231 0 -375 160q-145 160 -145 430v807h-59q-264 0 -394.5 -94t-130.5 -273q0 -162 96 -254q95 -92 261 -92v-55q-105 0 -186 34t-129 91t-72.5 126.5t-24.5 147.5q0 87 28.5 159.5t91.5 133.5q63 60 174 93.5t265 33.5h80h59v-858q0 -242 129 -386t330 -144q205 0 331 143
t126 387v858z" />
    <glyph glyph-name="Ugrave.swash" horiz-adv-x="1878" 
d="M1204 1571h-55l-277 418h76zM1614 1419h59v-858q0 -275 -142 -432q-143 -158 -372 -158q-231 0 -375 160q-145 160 -145 430v807h-59q-264 0 -394.5 -94t-130.5 -273q0 -162 96 -254q95 -92 261 -92v-55q-105 0 -186 34t-129 91t-72.5 126.5t-24.5 147.5q0 87 28.5 159.5
t91.5 133.5q63 60 174 93.5t265 33.5h80h59v-858q0 -243 130 -386q131 -144 329 -144q205 0 331 143t126 387v858z" />
    <glyph glyph-name="Uhungarumlaut.swash" horiz-adv-x="1878" 
d="M1264 1987l-199 -416h-47l170 416h76zM1296 1571h-51l293 416h76zM1614 1419h59v-858q0 -275 -142 -432q-143 -158 -372 -158q-231 0 -375 160q-145 160 -145 430v807h-59q-264 0 -394.5 -94t-130.5 -273q0 -162 96 -254q95 -92 261 -92v-55q-105 0 -186 34t-129 91
t-72.5 126.5t-24.5 147.5q0 87 28.5 159.5t91.5 133.5q63 60 174 93.5t265 33.5h80h59v-858q0 -243 130 -386q131 -144 329 -144q205 0 331 143t126 387v858z" />
    <glyph glyph-name="Umacron.swash" horiz-adv-x="1878" 
d="M1528 1800v-51h-674v51h674zM1614 1419h59v-858q0 -275 -142 -432q-143 -158 -372 -158q-231 0 -375 160q-145 160 -145 430v807h-59q-264 0 -394.5 -94t-130.5 -273q0 -162 96 -254q95 -92 261 -92v-55q-105 0 -186 34t-129 91t-72.5 126.5t-24.5 147.5q0 87 28.5 159.5
t91.5 133.5q63 60 174 93.5t265 33.5h80h59v-858q0 -243 130 -386q131 -144 329 -144q205 0 331 143t126 387v858z" />
    <glyph glyph-name="Uogonek.swash" horiz-adv-x="1878" 
d="M1614 1419h59v-858q0 -221 -93 -367q-93 -147 -255 -198q-338 -156 -338 -352q0 -72 37.5 -111t112.5 -39q118 0 227 62l18 -56q-123 -63 -247 -63q-105 0 -157 54.5t-52 149.5t62 179.5t179 150.5h-10q-229 0 -373 160q-145 160 -145 430v807h-59q-264 0 -394.5 -94
t-130.5 -273q0 -162 96 -254q95 -92 261 -92v-55q-105 0 -186 34t-129 91t-72.5 126.5t-24.5 147.5q0 87 28.5 159.5t91.5 133.5q63 60 174 93.5t265 33.5h80h59v-858q0 -243 130 -386q131 -144 329 -144q205 0 331 143t126 387v858z" />
    <glyph glyph-name="Uring.swash" horiz-adv-x="1878" 
d="M1343 1629q-62 -62 -158 -62q-98 0 -157 62t-59 155q0 96 62 158q61 61 155 61t156 -62q61 -62 61 -157q0 -93 -60 -155zM1186 1950q-72 0 -116 -45.5t-44 -120.5q0 -76 44 -119t116 -43t116 43t44 119q0 78 -44 122t-116 44zM1614 1419h59v-858q0 -275 -142 -432
q-143 -158 -372 -158q-231 0 -375 160q-145 160 -145 430v807h-59q-264 0 -394.5 -94t-130.5 -273q0 -162 96 -254q95 -92 261 -92v-55q-105 0 -186 34t-129 91t-72.5 126.5t-24.5 147.5q0 87 28.5 159.5t91.5 133.5q63 60 174 93.5t265 33.5h80h59v-858q0 -243 130 -386
q131 -144 329 -144q205 0 331 143t126 387v858z" />
    <glyph glyph-name="V.swash" horiz-adv-x="1822" 
d="M1686 1419h59l-553 -1419h-72l-497 1368h-43q-264 0 -394.5 -100.5t-130.5 -286.5q0 -170 117 -268q117 -99 322 -99v-55q-126 0 -222.5 36t-155.5 97q-59 60 -87.5 132.5t-28.5 154.5q0 93 28.5 167.5t91.5 138.5q63 63 174 98.5t265 35.5h45h64l424 -1171
q40 -110 63 -191q20 54 40.5 107.5t43.5 109.5z" />
    <glyph glyph-name="W.c2sc" horiz-adv-x="1521" 
d="M1384 1051h60l-311 -1051h-70l-250 791q-16 48 -29 93t-24 87q-17 -58 -32 -103t-26 -77l-274 -791h-72l-278 1051h63l232 -883q7 -28 12.5 -52t9.5 -46q6 22 13.5 45t17.5 49l301 872h72l272 -858q6 -22 13.5 -47.5t15.5 -56.5q5 25 12 51t16 55z" />
    <glyph glyph-name="W.salt" horiz-adv-x="1945" 
d="M1866 1419h59l-567 -1419h-72l-332 866l-358 -866h-72l-504 1419h62l483 -1343l361 868l-183 475h58l155 -399l166 399h62l-197 -477l336 -866z" />
    <glyph glyph-name="W.swash" horiz-adv-x="2486" 
d="M2365 1419h60l-393 -1419h-72l-322 1106q-28 98 -44 155.5t-21 75.5q-13 -42 -31 -99.5t-41 -133.5l-354 -1104h-72l-338 1368h-157q-256 0 -381 -100.5t-125 -286.5q0 -179 107 -283t292 -104v-55q-115 0 -204.5 36.5t-143.5 100.5q-54 63 -80.5 139.5t-26.5 163.5
q0 93 28 167.5t89 138.5q60 63 168 98.5t256 35.5h166h61l299 -1224q10 -38 18 -69t13 -56q3 11 8 27.5t12 38.5q7 21 11 34.5t6 19.5l385 1209h74l350 -1192q10 -33 18.5 -66t16.5 -65q6 23 15 56.5t22 78.5z" />
    <glyph glyph-name="Wacute.c2sc" horiz-adv-x="1521" 
d="M1024 1624l-233 -416h-48l205 416h76zM1384 1051h60l-311 -1051h-70l-250 791q-16 48 -29 93t-24 87q-17 -58 -32 -103t-26 -77l-274 -791h-72l-278 1051h63l232 -883q7 -28 12.5 -52t9.5 -46q6 22 13.5 45t17.5 49l301 872h72l272 -858q6 -22 13.5 -47.5t15.5 -56.5
q5 25 12 51t16 55z" />
    <glyph glyph-name="Wacute.swash" horiz-adv-x="2486" 
d="M1876 1989l-277 -418h-55l256 418h76zM2365 1419h60l-393 -1419h-72l-322 1106q-28 98 -44 155.5t-21 75.5q-13 -42 -31 -99.5t-41 -133.5l-354 -1104h-72l-338 1368h-157q-256 0 -381 -100.5t-125 -286.5q0 -179 107 -283t292 -104v-55q-115 0 -204.5 36.5t-143.5 100.5
q-54 63 -80.5 139.5t-26.5 163.5q0 93 28 167.5t89 138.5q60 63 168 98.5t256 35.5h166h61l299 -1224q10 -38 18 -69t13 -56q3 11 8 27.5t12 38.5q7 21 11 34.5t6 19.5l385 1209h74l350 -1192q10 -33 18.5 -66t16.5 -65q6 23 15 56.5t22 78.5z" />
    <glyph glyph-name="Wcircumflex.c2sc" horiz-adv-x="1521" 
d="M762 1604l-242 -396h-55l258 434h74l260 -434h-56zM1384 1051h60l-311 -1051h-70l-250 791q-16 48 -29 93t-24 87q-17 -58 -32 -103t-26 -77l-274 -791h-72l-278 1051h63l232 -883q7 -28 12.5 -52t9.5 -46q6 22 13.5 45t17.5 49l301 872h72l272 -858q6 -22 13.5 -47.5
t15.5 -56.5q5 25 12 51t16 55z" />
    <glyph glyph-name="Wcircumflex.swash" horiz-adv-x="2486" 
d="M1571 1939l-240 -385h-57l258 435h74l260 -435h-58zM2365 1419h60l-393 -1419h-72l-322 1106q-28 98 -44 155.5t-21 75.5q-13 -42 -31 -99.5t-41 -133.5l-354 -1104h-72l-338 1368h-157q-256 0 -381 -100.5t-125 -286.5q0 -179 107 -283t292 -104v-55q-115 0 -204.5 36.5
t-143.5 100.5q-54 63 -80.5 139.5t-26.5 163.5q0 93 28 167.5t89 138.5q60 63 168 98.5t256 35.5h166h61l299 -1224q10 -38 18 -69t13 -56q3 11 8 27.5t12 38.5q7 21 11 34.5t6 19.5l385 1209h74l350 -1192q10 -33 18.5 -66t16.5 -65q6 23 15 56.5t22 78.5z" />
    <glyph glyph-name="Wdieresis.c2sc" horiz-adv-x="1521" 
d="M557 1393q-30 -3 -45.5 16.5t-15.5 44t15.5 44.5t45.5 18q25 0 42 -17.5t17 -44.5t-17 -44t-42 -17zM967 1393q-31 -3 -46 16.5t-15 44t15 44.5t46 18q25 0 43 -17.5t18 -44.5t-18 -44t-43 -17zM1384 1051h60l-311 -1051h-70l-250 791q-16 48 -29 93t-24 87
q-17 -58 -32 -103t-26 -77l-274 -791h-72l-278 1051h63l232 -883q7 -28 12.5 -52t9.5 -46q6 22 13.5 45t17.5 49l301 872h72l272 -858q6 -22 13.5 -47.5t15.5 -56.5q5 25 12 51t16 55z" />
    <glyph glyph-name="Wdieresis.swash" horiz-adv-x="2486" 
d="M1401 1638q-29 0 -47.5 19.5t-18.5 47.5t18.5 46t47.5 18q27 0 45 -18t18 -46t-18 -47.5t-45 -19.5zM1749 1638q-29 0 -47.5 19.5t-18.5 47.5t18.5 46t47.5 18t47.5 -18t18.5 -46t-18.5 -47.5t-47.5 -19.5zM2365 1419h60l-393 -1419h-72l-322 1106q-28 98 -44 155.5
t-21 75.5q-13 -42 -31 -99.5t-41 -133.5l-354 -1104h-72l-338 1368h-157q-256 0 -381 -100.5t-125 -286.5q0 -179 107 -283t292 -104v-55q-115 0 -204.5 36.5t-143.5 100.5q-54 63 -80.5 139.5t-26.5 163.5q0 93 28 167.5t89 138.5q60 63 168 98.5t256 35.5h166h61
l299 -1224q10 -38 18 -69t13 -56q3 11 8 27.5t12 38.5q7 21 11 34.5t6 19.5l385 1209h74l350 -1192q10 -33 18.5 -66t16.5 -65q6 23 15 56.5t22 78.5z" />
    <glyph glyph-name="Wgrave.c2sc" horiz-adv-x="1521" 
d="M784 1208h-47l-233 416h76zM1384 1051h60l-311 -1051h-70l-250 791q-16 48 -29 93t-24 87q-17 -58 -32 -103t-26 -77l-274 -791h-72l-278 1051h63l232 -883q7 -28 12.5 -52t9.5 -46q6 22 13.5 45t17.5 49l301 872h72l272 -858q6 -22 13.5 -47.5t15.5 -56.5q5 25 12 51
t16 55z" />
    <glyph glyph-name="Wgrave.swash" horiz-adv-x="2486" 
d="M1593 1571h-55l-276 418h75zM2365 1419h60l-393 -1419h-72l-322 1106q-28 98 -44 155.5t-21 75.5q-13 -42 -31 -99.5t-41 -133.5l-354 -1104h-72l-338 1368h-157q-256 0 -381 -100.5t-125 -286.5q0 -179 107 -283t292 -104v-55q-115 0 -204.5 36.5t-143.5 100.5
q-54 63 -80.5 139.5t-26.5 163.5q0 93 28 167.5t89 138.5q60 63 168 98.5t256 35.5h166h61l299 -1224q10 -38 18 -69t13 -56q3 11 8 27.5t12 38.5q7 21 11 34.5t6 19.5l385 1209h74l350 -1192q10 -33 18.5 -66t16.5 -65q6 23 15 56.5t22 78.5z" />
    <glyph glyph-name="X.swash" horiz-adv-x="1669" 
d="M1599 0h-73l-453 713l-457 -713h-73l483 748l-428 620h-18q-524 -5 -525 -367q0 -162 96 -254q95 -92 261 -92v-55q-105 0 -186 34t-129 91t-72.5 126.5t-24.5 147.5q0 87 28.5 159.5t91.5 132.5t174 93t265 35h4h72l436 -635l436 635h72l-463 -669z" />
    <glyph glyph-name="Y.c2sc" horiz-adv-x="927" 
d="M874 1051l-385 -598v-453h-59v459l-377 592h70l340 -535l340 535h71z" />
    <glyph glyph-name="Y.swash" horiz-adv-x="1619" 
d="M1591 1419q-132 -166 -266 -408q-68 -123 -121.5 -239.5t-95.5 -228.5v-543h-59v516q-42 169 -95.5 313.5t-125.5 269.5t-163 195t-190 70q-145 0 -242 -91q-98 -92 -98 -249q0 -162 118 -256t322 -94v-56q-126 0 -223.5 35t-154.5 94q-117 119 -117 275q0 167 106 282
q105 115 291 115q132 0 250 -107q117 -108 204 -286t150 -420q36 105 84.5 214t111.5 224q125 228 243 375h71z" />
    <glyph glyph-name="Yacute.c2sc" horiz-adv-x="927" 
d="M725 1624l-233 -416h-48l205 416h76zM874 1051l-385 -598v-453h-59v459l-377 592h70l340 -535l340 535h71z" />
    <glyph glyph-name="Yacute.swash" horiz-adv-x="1619" 
d="M1384 1989l-276 -418h-55l256 418h75zM1591 1419q-132 -166 -266 -408q-68 -123 -121.5 -239.5t-95.5 -228.5v-543h-59v516q-42 169 -95.5 313.5t-125.5 269.5t-163 195t-190 70q-145 0 -242 -91q-98 -92 -98 -249q0 -162 118 -256t322 -94v-56q-126 0 -223.5 35
t-154.5 94q-117 119 -117 275q0 167 106 282q105 115 291 115q132 0 250 -107q117 -108 204 -286t150 -420q36 105 84.5 214t111.5 224q125 228 243 375h71z" />
    <glyph glyph-name="Ycircumflex.c2sc" horiz-adv-x="927" 
d="M463 1604l-240 -396h-55l258 434h74l260 -434h-55zM874 1051l-385 -598v-453h-59v459l-377 592h70l340 -535l340 535h71z" />
    <glyph glyph-name="Ycircumflex.swash" horiz-adv-x="1619" 
d="M1079 1939l-239 -385h-58l258 435h74l260 -435h-57zM1591 1419q-132 -166 -266 -408q-68 -123 -121.5 -239.5t-95.5 -228.5v-543h-59v516q-42 169 -95.5 313.5t-125.5 269.5t-163 195t-190 70q-145 0 -242 -91q-98 -92 -98 -249q0 -162 118 -256t322 -94v-56
q-126 0 -223.5 35t-154.5 94q-117 119 -117 275q0 167 106 282q105 115 291 115q132 0 250 -107q117 -108 204 -286t150 -420q36 105 84.5 214t111.5 224q125 228 243 375h71z" />
    <glyph glyph-name="Ydieresis.c2sc" horiz-adv-x="927" 
d="M258 1393q-27 0 -44 17t-17 44t17 44.5t44 17.5q25 0 42 -17.5t17 -44.5t-17 -44t-42 -17zM668 1393q-27 0 -44.5 17t-17.5 44t17.5 44.5t44.5 17.5t44 -17.5t17 -44.5t-17 -44t-44 -17zM874 1051l-385 -598v-453h-59v459l-377 592h70l340 -535l340 535h71z" />
    <glyph glyph-name="Ydieresis.swash" horiz-adv-x="1619" 
d="M909 1638q-29 0 -47 19.5t-18 47.5t18.5 46t46.5 18q27 0 45.5 -18t18.5 -46t-18.5 -47.5t-45.5 -19.5zM1260 1638q-33 -1 -49 20t-16 47t16 46.5t49 17.5q27 0 46 -18t19 -46t-19 -47.5t-46 -19.5zM1591 1419q-132 -166 -266 -408q-68 -123 -121.5 -239.5t-95.5 -228.5
v-543h-59v516q-42 169 -95.5 313.5t-125.5 269.5t-163 195t-190 70q-145 0 -242 -91q-98 -92 -98 -249q0 -162 118 -256t322 -94v-56q-126 0 -223.5 35t-154.5 94q-117 119 -117 275q0 167 106 282q105 115 291 115q132 0 250 -107q117 -108 204 -286t150 -420
q36 105 84.5 214t111.5 224q125 228 243 375h71z" />
    <glyph glyph-name="Ygrave.swash" horiz-adv-x="1619" 
d="M1102 1571h-55l-277 418h76zM1591 1419q-132 -166 -266 -408q-68 -123 -121.5 -239.5t-95.5 -228.5v-543h-59v516q-42 169 -95.5 313.5t-125.5 269.5t-163 195t-190 70q-145 0 -242 -91q-98 -92 -98 -249q0 -162 118 -256t322 -94v-56q-126 0 -223.5 35t-154.5 94
q-117 119 -117 275q0 167 106 282q105 115 291 115q132 0 250 -107q117 -108 204 -286t150 -420q36 105 84.5 214t111.5 224q125 228 243 375h71z" />
    <glyph glyph-name="Z.swash" horiz-adv-x="1042" 
d="M817 690q94 -58 165 -173t71 -271q0 -165 -98 -261q-98 -94 -269 -94q-79 0 -175 34q-49 17 -94.5 34t-90.5 34q-87 34 -144 34q-85 0 -168 -47l-26 51l880 1335h-831v53h903v-51l-858 -1302q42 16 102 16q90 0 252 -67q82 -35 145.5 -51.5t108.5 -16.5q143 0 222 81
q79 80 79 218t-53 230q-52 91 -152 165z" />
    <glyph glyph-name="Zacute.swash" horiz-adv-x="1042" 
d="M883 1989l-277 -418h-55l256 418h76zM817 690q94 -58 165 -173t71 -271q0 -165 -98 -261q-98 -94 -269 -94q-79 0 -175 34q-49 17 -94.5 34t-90.5 34q-87 34 -144 34q-85 0 -168 -47l-26 51l880 1335h-831v53h903v-51l-858 -1302q42 16 102 16q90 0 252 -67
q82 -35 145.5 -51.5t108.5 -16.5q143 0 222 81q79 80 79 218t-53 230q-52 91 -152 165z" />
    <glyph glyph-name="Zcaron.swash" horiz-adv-x="1042" 
d="M612 1571h-73l-258 434h57l240 -385l237 385h57zM817 690q94 -58 165 -173t71 -271q0 -165 -98 -261q-98 -94 -269 -94q-79 0 -175 34q-49 17 -94.5 34t-90.5 34q-87 34 -144 34q-85 0 -168 -47l-26 51l880 1335h-831v53h903v-51l-858 -1302q42 16 102 16q90 0 252 -67
q82 -35 145.5 -51.5t108.5 -16.5q143 0 222 81q79 80 79 218t-53 230q-52 91 -152 165z" />
    <glyph glyph-name="Zdotaccent.swash" horiz-adv-x="1042" 
d="M584 1640q-33 0 -52.5 19.5t-19.5 50.5t19.5 51.5t52.5 20.5q29 0 49 -20.5t20 -50.5t-20 -50.5t-49 -20.5zM817 690q94 -58 165 -173t71 -271q0 -165 -98 -261q-98 -94 -269 -94q-79 0 -175 34q-49 17 -94.5 34t-90.5 34q-87 34 -144 34q-85 0 -168 -47l-26 51l880 1335
h-831v53h903v-51l-858 -1302q42 16 102 16q90 0 252 -67q82 -35 145.5 -51.5t108.5 -16.5q143 0 222 81q79 80 79 218t-53 230q-52 91 -152 165z" />
    <glyph glyph-name="a.salt" horiz-adv-x="1146" 
d="M915 971h58v-971h-58v223q-57 -113 -165 -182q-109 -70 -244 -70q-186 0 -304 136q-118 134 -118 378q0 242 129 378t322 136q128 0 226.5 -57.5t153.5 -157.5v187zM506 27q69 0 130.5 20.5t113 59.5t93.5 95t72 126v348q-54 128 -152 198t-228 70q-160 0 -275 -115
t-115 -344q0 -228 104 -343q103 -115 257 -115z" />
    <glyph glyph-name="aacute.salt" horiz-adv-x="1146" 
d="M852 1544l-234 -416h-47l205 416h76zM915 971h58v-971h-58v223q-57 -113 -165 -182q-109 -70 -244 -70q-186 0 -304 136q-118 134 -118 378q0 242 129 378t322 136q128 0 226.5 -57.5t153.5 -157.5v187zM506 27q69 0 130.5 20.5t113 59.5t93.5 95t72 126v348
q-54 128 -152 198t-228 70q-160 0 -275 -115t-115 -344q0 -228 104 -343q103 -115 257 -115z" />
    <glyph glyph-name="abreve.salt" horiz-adv-x="1146" 
d="M592 1186q-152 0 -236 97t-73 276h51q-8 -147 52 -235q60 -89 204 -89q143 0 204 88q59 88 52 236h51q5 -90 -13.5 -159.5t-58 -117t-98.5 -72t-135 -24.5zM915 971h58v-971h-58v223q-57 -113 -165 -182q-109 -70 -244 -70q-186 0 -304 136q-118 134 -118 378
q0 242 129 378t322 136q128 0 226.5 -57.5t153.5 -157.5v187zM506 27q69 0 130.5 20.5t113 59.5t93.5 95t72 126v348q-54 128 -152 198t-228 70q-76 0 -143 -26t-124 -80t-90 -144.5t-33 -208.5q0 -228 104 -343q103 -115 257 -115z" />
    <glyph glyph-name="acircumflex.salt" horiz-adv-x="1146" 
d="M590 1524l-242 -396h-53l258 435h74l258 -435h-54zM915 971h58v-971h-58v223q-57 -113 -165 -182q-109 -70 -244 -70q-186 0 -304 136q-118 134 -118 378q0 242 129 378t322 136q128 0 226.5 -57.5t153.5 -157.5v187zM506 27q69 0 130.5 20.5t113 59.5t93.5 95t72 126
v348q-54 128 -152 198t-228 70q-160 0 -275 -115t-115 -344q0 -228 104 -343q103 -115 257 -115z" />
    <glyph glyph-name="acutecomb.aalt" 
d="M10 1540l-276 -418h-56l256 418h76z" />
    <glyph glyph-name="adieresis.salt" horiz-adv-x="1146" 
d="M385 1313q-27 0 -44 17.5t-17 44.5q0 26 17 43.5t44 17.5q25 0 42 -17.5t17 -43.5q0 -27 -17 -44.5t-42 -17.5zM839 1331q-18 -18 -44.5 -18t-43.5 18q-18 17 -18 43.5t18 44.5q17 17 43.5 17t44.5 -17q17 -18 17 -44.5t-17 -43.5zM915 971h58v-971h-58v223
q-57 -113 -165 -182q-109 -70 -244 -70q-186 0 -304 136q-118 134 -118 378q0 242 129 378t322 136q128 0 226.5 -57.5t153.5 -157.5v187zM506 27q69 0 130.5 20.5t113 59.5t93.5 95t72 126v348q-54 128 -152 198t-228 70q-160 0 -275 -115t-115 -344q0 -228 104 -343
q103 -115 257 -115z" />
    <glyph glyph-name="agrave.salt" horiz-adv-x="1146" 
d="M612 1128h-47l-233 416h76zM915 971h58v-971h-58v223q-57 -113 -165 -182q-109 -70 -244 -70q-186 0 -304 136q-118 134 -118 378q0 242 129 378t322 136q128 0 226.5 -57.5t153.5 -157.5v187zM506 27q69 0 130.5 20.5t113 59.5t93.5 95t72 126v348q-54 128 -152 198
t-228 70q-160 0 -275 -115t-115 -344q0 -228 104 -343q103 -115 257 -115z" />
    <glyph glyph-name="amacron.salt" horiz-adv-x="1146" 
d="M926 1393v-52h-672v52h672zM915 971h58v-971h-58v223q-57 -113 -165 -182q-109 -70 -244 -70q-186 0 -304 136q-118 134 -118 378q0 242 129 378t322 136q128 0 226.5 -57.5t153.5 -157.5v187zM506 27q69 0 130.5 20.5t113 59.5t93.5 95t72 126v348q-54 128 -152 198
t-228 70q-160 0 -275 -115t-115 -344q0 -228 104 -343q103 -115 257 -115z" />
    <glyph glyph-name="aogonek.salt" horiz-adv-x="1146" 
d="M999 -465l19 -55q-109 -62 -225 -64q-94 0 -141.5 46t-47.5 128q0 227 314 410h-3v223q-57 -113 -165 -182q-109 -70 -244 -70q-186 0 -304 136q-118 134 -118 378q0 242 129 378t322 136q128 0 226.5 -57.5t153.5 -157.5v187h58v-971h2q-5 -3 -12 -8t-17 -12
q-29 -25 -51.5 -43t-37.5 -31t-33.5 -29.5t-41.5 -38.5q-47 -45 -65 -76q-21 -32 -37 -78t-16 -94q0 -118 129 -116q111 0 206 61zM506 27q69 0 130.5 20.5t113 59.5t93.5 95t72 126v348q-54 128 -152 198t-228 70q-160 0 -275 -115t-115 -344q0 -228 104 -343
q103 -115 257 -115z" />
    <glyph glyph-name="aring.salt" horiz-adv-x="1146" 
d="M747 1266q-62 -62 -157 -62q-96 0 -156 62q-61 61 -61 155q0 96 62 158q61 61 155 61t156 -62q61 -61 61 -156q0 -94 -60 -156zM706 1543q-44 44 -116 44q-73 0 -116 -46q-44 -47 -44 -120q0 -76 44 -118.5t116 -42.5t116 43t44 118q0 78 -44 122zM915 971h58v-971h-58
v223q-57 -113 -165 -182q-109 -70 -244 -70q-186 0 -304 136q-118 134 -118 378q0 242 129 378t322 136q128 0 226.5 -57.5t153.5 -157.5v187zM506 27q69 0 130.5 20.5t113 59.5t93.5 95t72 126v348q-54 128 -152 198t-228 70q-160 0 -275 -115t-115 -344q0 -228 104 -343
q103 -115 257 -115z" />
    <glyph glyph-name="atilde.salt" horiz-adv-x="1146" 
d="M299 1157h-49q-8 197 29.5 286t121.5 89q27 0 52.5 -12t55.5 -44q15 -16 25.5 -28.5t17.5 -20.5q7 -9 19 -25.5t31 -39.5q20 -26 34.5 -46t25.5 -34q19 -26 54 -52t62 -26q110 0 105 326h49q10 -379 -160 -379q-31 0 -59.5 13.5t-61.5 48.5q-17 17 -28.5 30t-18.5 23
q-7 9 -20 26t-33 43q-17 25 -30.5 43t-23.5 30q-18 22 -47 48q-29 23 -51 23q-57 0 -80.5 -77t-19.5 -245zM915 971h58v-971h-58v223q-57 -113 -165 -182q-109 -70 -244 -70q-186 0 -304 136q-118 134 -118 378q0 242 129 378t322 136q128 0 226.5 -57.5t153.5 -157.5v187z
M506 27q69 0 130.5 20.5t113 59.5t93.5 95t72 126v348q-54 130 -152 199t-228 69q-76 0 -143 -26t-124 -80t-90 -144.5t-33 -208.5q0 -228 104 -343q103 -115 257 -115z" />
    <glyph glyph-name="b.aalt" horiz-adv-x="1085" 
d="M752 559q112 -14 175.5 -82.5t63.5 -177.5q0 -137 -93 -218t-253 -81h-438v1051h405q153 0 232.5 -61t79.5 -181q0 -88 -45 -153.5t-127 -96.5zM864 805q0 194 -254 192h-344v-424h367q91 0 161 63t70 169zM647 53q65 0 117 16.5t89 48t57 77.5t20 106q0 221 -297 221
h-367v-469h381z" />
    <glyph glyph-name="c.aalt" horiz-adv-x="1161" 
d="M631 -29q-248 0 -392 148q-145 146 -145 405q0 250 156 403q157 152 381 152q249 0 403 -143l-41 -45q-72 66 -155 99q-85 32 -207 32q-199 0 -336 -137t-137 -361q0 -228 128 -362q127 -133 345 -133q114 0 205 33q91 31 190 106l27 -53q-189 -144 -422 -144z" />
    <glyph glyph-name="cacute.aalt" horiz-adv-x="1161" 
d="M907 1624l-233 -416h-47l204 416h76zM631 -29q-248 0 -392 148q-145 146 -145 405q0 250 156 403q157 152 381 152q249 0 403 -143l-41 -45q-72 66 -155 99q-85 32 -207 32q-199 0 -336 -137t-137 -361q0 -228 128 -362q127 -133 345 -133q114 0 205 33q91 31 190 106
l27 -53q-189 -144 -422 -144z" />
    <glyph glyph-name="ccaron.aalt" horiz-adv-x="1161" 
d="M682 1208h-74l-258 434h56l239 -395l242 395h55zM1026 168l27 -53q-187 -142 -422 -144q-248 0 -392 148q-145 146 -145 405q0 250 156 403q157 152 381 152q249 0 403 -143l-41 -45q-72 66 -155 99q-85 32 -207 32q-199 0 -336 -137t-137 -361q0 -228 128 -362
q127 -133 345 -133q114 0 205 33q91 31 190 106z" />
    <glyph glyph-name="ccedilla.aalt" horiz-adv-x="1161" 
d="M690 -182q93 0 145 -50t52 -141q0 -104 -74 -160q-73 -55 -188 -55q-138 0 -226 70l25 51q79 -68 201 -68q94 0 149 42.5t55 123.5q0 60 -36 96.5t-105 36.5q-105 0 -166 -61l-53 25l104 245q-224 17 -351 163q-128 148 -128 388q0 250 156 403q157 152 381 152
q249 0 403 -143l-41 -45q-72 66 -155 99q-85 32 -207 32q-199 0 -336 -137t-137 -361q0 -228 128 -362q127 -133 345 -133q114 0 205 33q91 31 190 106l27 -53q-187 -142 -418 -144l-86 -188q65 35 141 35z" />
    <glyph glyph-name="cdotaccent.aalt" horiz-adv-x="1161" 
d="M607 1276q-18 17 -21.5 41t5 45.5t27.5 36t46 12.5q33 0 55 -22.5t22 -56.5t-22.5 -56.5t-54.5 -22.5q-34 0 -57 23zM631 -29q-248 0 -392 148q-145 146 -145 405q0 250 156 403q157 152 381 152q249 0 403 -143l-41 -45q-72 66 -155 99q-85 32 -207 32q-199 0 -336 -137
t-137 -361q0 -228 128 -362q127 -133 345 -133q114 0 205 33q91 31 190 106l27 -53q-189 -144 -422 -144z" />
    <glyph glyph-name="d.aalt" horiz-adv-x="1214" 
d="M508 1051q271 0 428 -126q158 -126 158 -380q0 -259 -159 -402q-160 -143 -427 -143h-301v1051h301zM508 53q239 0 381 132q143 132 143 360q0 221 -140 337q-139 115 -384 115h-242v-944h242z" />
    <glyph glyph-name="dcaron.aalt" horiz-adv-x="1214" 
d="M643 1208h-74l-258 434h56l241 -395l240 395h55zM508 1051q271 0 428 -126q158 -126 158 -380q0 -259 -159 -402q-160 -143 -427 -143h-301v1051h301zM508 53q239 0 381 132q143 132 143 360q0 221 -140 337q-139 115 -384 115h-242v-944h242z" />
    <glyph glyph-name="dcroat.aalt" horiz-adv-x="1214" 
d="M508 1051q271 0 428 -126q158 -126 158 -380q0 -259 -159 -402q-160 -143 -427 -143h-301v526h-144v52h144v473h301zM508 53q239 0 381 132q143 132 143 360q0 221 -140 337q-139 115 -384 115h-242v-419h471v-52h-471v-473h242z" />
    <glyph glyph-name="e.aalt" horiz-adv-x="993" 
d="M901 997h-651v-415h530v-52h-530v-477h651v-53h-711v1051h711v-54z" />
    <glyph glyph-name="eacute.aalt" horiz-adv-x="993" 
d="M834 1624l-234 -416h-47l205 416h76zM901 997h-651v-415h530v-52h-530v-477h651v-53h-711v1051h711v-54z" />
    <glyph glyph-name="ecaron.aalt" horiz-adv-x="993" 
d="M606 1208h-74l-258 434h56l241 -395l240 395h55zM901 997h-651v-415h530v-52h-530v-477h651v-53h-711v1051h711v-54z" />
    <glyph glyph-name="ecircumflex.aalt" horiz-adv-x="993" 
d="M571 1604l-241 -396h-56l258 434h74l260 -434h-55zM901 997h-651v-415h530v-52h-530v-477h651v-53h-711v1051h711v-54z" />
    <glyph glyph-name="edieresis.aalt" horiz-adv-x="993" 
d="M367 1393q-31 -3 -46 16.5t-15 44t15 44.5t46 18q25 0 42 -17.5t17 -44.5t-17 -44t-42 -17zM776 1393q-30 -3 -45 16.5t-15 44t15 44.5t45 18q25 0 43.5 -17.5t18.5 -44.5t-18.5 -44t-43.5 -17zM901 997h-651v-415h530v-52h-530v-477h651v-53h-711v1051h711v-54z" />
    <glyph glyph-name="edotaccent.aalt" horiz-adv-x="993" 
d="M588 1253q-35 0 -56.5 22.5t-21.5 56.5t21.5 56.5t56.5 22.5q33 0 55.5 -22.5t22.5 -56.5t-22.5 -56.5t-55.5 -22.5zM901 997h-651v-415h530v-52h-530v-477h651v-53h-711v1051h711v-54z" />
    <glyph glyph-name="egrave.aalt" horiz-adv-x="993" 
d="M594 1208h-47l-234 416h76zM901 997h-651v-415h530v-52h-530v-477h651v-53h-711v1051h711v-54z" />
    <glyph glyph-name="eight.oldstyle" horiz-adv-x="1101" 
d="M698 731q126 -27 212 -122q85 -94 85 -238q0 -197 -123 -298q-124 -102 -321 -102q-196 0 -321 102q-124 100 -124 298q0 142 83 239q83 96 212 121q-103 32 -171 121q-70 89 -70 229q0 167 100 268q101 101 291 101t291 -101q100 -101 100 -266q0 -141 -72 -231
t-172 -121zM881 1085q0 145 -88 227q-88 81 -241 81q-154 0 -242 -82q-89 -83 -89 -228q0 -150 93 -240q91 -91 237 -91q141 0 236 92q94 91 94 241zM274 615q-106 -85 -106 -243q0 -159 104 -249t279 -90q177 0 280 90t103 248t-107 244q-107 85 -276 85q-173 0 -277 -85z
" />
    <glyph glyph-name="eight.oldstyle.case" horiz-adv-x="1224" 
d="M772 731q145 -25 236 -119q90 -94 90 -241q0 -197 -135 -298q-136 -102 -351 -102t-350 102q-135 101 -135 298q0 148 88 242t236 118q-115 31 -193 121t-78 229q0 166 111 268q110 101 321 101q210 0 322 -101q110 -102 110 -266q0 -140 -79 -229q-79 -90 -193 -123z
M983 1085q0 145 -99 227q-100 81 -272 81q-173 0 -271 -82q-99 -82 -99 -228q0 -150 104 -240q103 -91 266 -91q159 0 266 92q105 92 105 241zM305 615q-117 -85 -117 -243q0 -159 114 -249t311 -90q196 0 310 90q113 90 113 248q0 159 -118 244t-306 85q-191 0 -307 -85z
" />
    <glyph glyph-name="emacron.aalt" horiz-adv-x="993" 
d="M233 1473h674v-52h-674v52zM190 0v1051h711v-54h-651v-415h530v-52h-530v-477h651v-53h-711z" />
    <glyph glyph-name="eogonek.aalt" horiz-adv-x="993" 
d="M911 -442l19 -56q-103 -61 -217 -61q-97 0 -147 50t-50 144q0 99 86 199q84 99 215 166h-627v1051h711v-54h-651v-415h530v-52h-530v-477h651v-53q-34 -21 -63 -39.5t-55 -37.5t-50.5 -39t-49.5 -44q-51 -48 -78 -99.5t-27 -105.5q0 -137 135 -137q104 1 198 60z" />
    <glyph glyph-name="eth.aalt" horiz-adv-x="1214" 
d="M508 1051q271 0 428 -126q158 -126 158 -380q0 -259 -159 -402q-160 -143 -427 -143h-301v526h-144v52h144v473h301zM508 53q239 0 381 132q143 132 143 360q0 221 -140 337q-139 115 -384 115h-242v-419h471v-52h-471v-473h242z" />
    <glyph glyph-name="f.aalt" horiz-adv-x="962" 
d="M887 997h-637v-415h514v-54h-514v-528h-60v1051h697v-54z" />
    <glyph glyph-name="five.oldstyle" horiz-adv-x="964" 
d="M512 494q165 0 269 -98q102 -99 102 -271q0 -213 -124 -321q-125 -107 -310 -107q-218 0 -381 137l20 53q45 -38 88.5 -63.5t87.5 -41t90 -22t97 -6.5q157 0 263 92q105 93 105 277q0 152 -90 234q-90 81 -217 81q-109 0 -204 -51q-97 -52 -142 -115l-49 19v760h708v-54
h-649v-645q58 61 151 102q90 40 185 40z" />
    <glyph glyph-name="five.oldstyle.case" horiz-adv-x="1107" 
d="M586 842q176 0 287 -105q110 -107 110 -307q0 -222 -133 -340q-134 -119 -336 -119q-133 0 -246 53q-58 26 -105.5 58t-84.5 70l31 51q180 -174 407 -174q167 0 286 104q118 103 118 295q0 185 -94 270q-95 86 -246 86q-116 0 -205 -49q-91 -50 -137 -114l-50 18v780h699
v-53h-639v-659q29 30 66 54.5t80.5 42.5t92 28t99.5 10z" />
    <glyph glyph-name="four.oldstyle" horiz-adv-x="1042" 
d="M1020 53v-53h-207v-348h-59v348h-738v61l693 990h104v-998h207zM80 53h674v955z" />
    <glyph glyph-name="four.oldstyle.case" horiz-adv-x="1159" 
d="M1120 360v-55h-241v-305h-60v305h-737v62l692 1069h105v-1076h241zM145 360h674v1031z" />
    <glyph glyph-name="g.salt" horiz-adv-x="1134" 
d="M915 971h58v-971q0 -121 -26 -215t-71 -152q-46 -58 -105 -95q-60 -38 -121.5 -52t-131.5 -14q-238 0 -373 174l37 39q117 -160 336 -160q76 0 141.5 21t126.5 72q60 51 94.5 147.5t34.5 234.5v223q-27 -57 -67.5 -103.5t-92 -79.5t-113 -51t-130.5 -18q-195 0 -311 135
q-117 134 -117 379q0 242 130 378t325 136q128 0 224.5 -57.5t151.5 -157.5v187zM512 27q270 0 403 301v348q-54 130 -150 199t-226 69q-76 0 -143.5 -26t-124.5 -80q-58 -54 -92 -144.5t-34 -208.5q0 -232 103 -344q102 -114 264 -114z" />
    <glyph glyph-name="gbreve.salt" horiz-adv-x="1134" 
d="M600 1186q-77 0 -136.5 24.5t-99.5 72t-59 117t-14 159.5h51q-8 -148 53 -235q60 -89 203 -89t204 88q59 88 52 236h51q5 -90 -13.5 -159.5t-58 -117t-98.5 -72t-135 -24.5zM915 971h58v-971q0 -121 -26 -215t-71 -152q-46 -58 -105 -95q-60 -38 -121.5 -52t-131.5 -14
q-238 0 -373 174l37 39q117 -160 336 -160q76 0 141.5 21t126.5 72q60 51 94.5 147.5t34.5 234.5v223q-27 -57 -67.5 -103.5t-92 -79.5t-113 -51t-130.5 -18q-195 0 -311 135q-117 134 -117 379q0 242 130 378t325 136q128 0 224.5 -57.5t151.5 -157.5v187zM512 27
q270 0 403 301v348q-54 130 -150 199t-226 69q-76 0 -143.5 -26t-124.5 -80q-58 -54 -92 -144.5t-34 -208.5q0 -232 103 -344q102 -114 264 -114z" />
    <glyph glyph-name="gdotaccent.salt" horiz-adv-x="1134" 
d="M614 1174q-35 0 -56 22.5t-21 56.5q0 33 21.5 55.5t55.5 22.5q33 0 55.5 -22.5t22.5 -55.5q0 -34 -22.5 -56.5t-55.5 -22.5zM915 971h58v-971q0 -121 -26 -215t-71 -152q-46 -58 -105 -95q-60 -38 -121.5 -52t-131.5 -14q-238 0 -373 174l37 39q117 -160 336 -160
q76 0 141.5 21t126.5 72q60 51 94.5 147.5t34.5 234.5v223q-27 -57 -67.5 -103.5t-92 -79.5t-113 -51t-130.5 -18q-195 0 -311 135q-117 134 -117 379q0 242 130 378t325 136q128 0 224.5 -57.5t151.5 -157.5v187zM512 27q270 0 403 301v348q-54 130 -150 199t-226 69
q-76 0 -143.5 -26t-124.5 -80q-58 -54 -92 -144.5t-34 -208.5q0 -232 103 -344q102 -114 264 -114z" />
    <glyph glyph-name="glyph1" 
 />
    <glyph glyph-name="glyph2" horiz-adv-x="681" 
 />
    <glyph glyph-name="glyph367" horiz-adv-x="1386" 
d="M752 1640q-33 0 -52.5 19.5t-19.5 50.5t19.5 51.5t52.5 20.5q29 0 49 -20.5t20 -50.5t-20 -50.5t-49 -20.5zM723 707v53h541v-682q-257 -105 -519 -107q-304 0 -486 198q-181 197 -181 540q0 335 191 538q191 201 479 201q329 0 522 -199l-43 -43q-178 184 -479 185
q-266 0 -437 -186q-172 -187 -172 -496q0 -312 167 -496q166 -184 444 -184q255 0 452 88v590h-479z" />
    <glyph glyph-name="glyph653" horiz-adv-x="215" 
d="M174 1532l-86 -606h-47l57 606h76z" />
    <glyph glyph-name="gravecomb.aalt" 
d="M-102 1122l-277 418h76l256 -418h-55z" />
    <glyph glyph-name="h.aalt" horiz-adv-x="1212" 
d="M963 1051h59v-1051h-59v528h-713v-528h-60v1051h60v-469h713v469z" />
    <glyph glyph-name="i.locl" horiz-adv-x="450" 
d="M186 1197q-17 17 -20.5 40.5t4.5 45t26.5 36t45.5 12.5q35 0 57.5 -22.5t22.5 -55.5q0 -34 -23 -56.5t-57 -22.5q-35 0 -56 23zM254 971v-971h-57v971h57z" />
    <glyph glyph-name="iacute.aalt" horiz-adv-x="440" 
d="M483 1624l-233 -416h-47l205 416h75zM250 1051v-1051h-60v1051h60z" />
    <glyph glyph-name="icircumflex.aalt" horiz-adv-x="440" 
d="M256 1642l260 -434h-55l-240 396l-241 -396h-56l258 434h74zM190 0v1051h60v-1051h-60z" />
    <glyph glyph-name="idieresis.aalt" horiz-adv-x="440" 
d="M-28 1410q-14 13 -16.5 32t4.5 36t21.5 28.5t34.5 9.5q25 0 42.5 -17.5t17.5 -44.5t-17.5 -44t-42.5 -17q-27 0 -44 17zM382 1410q-13 13 -16 32t3.5 36t21 28.5t35.5 9.5q27 0 44 -17.5t17 -44.5t-17 -44t-44 -17t-44 17zM250 1051v-1051h-60v1051h60z" />
    <glyph glyph-name="igrave.aalt" horiz-adv-x="440" 
d="M244 1208h-47l-234 416h76zM250 1051v-1051h-60v1051h60z" />
    <glyph glyph-name="imacron.aalt" horiz-adv-x="440" 
d="M-117 1473h674v-52h-674v52zM250 1051v-1051h-60v1051h60z" />
    <glyph glyph-name="iogonek.aalt" horiz-adv-x="440" 
d="M260 -442l19 -56q-103 -61 -218 -61q-99 0 -147.5 50t-48.5 144q0 107 94 210q95 104 231 167v1039h60v-1051q-34 -21 -63.5 -39.5t-55.5 -37.5t-51 -39t-50 -44q-51 -48 -77.5 -99.5t-26.5 -105.5q0 -137 135 -137q104 1 199 60z" />
    <glyph glyph-name="j.aalt" horiz-adv-x="819" 
d="M356 -20q-175 0 -278 118l20 72q35 -60 101.5 -97.5t154.5 -37.5q246 0 246 321v695h59v-695q0 -376 -303 -376z" />
    <glyph glyph-name="k.aalt" horiz-adv-x="1058" 
d="M911 0l-409 618l-236 -229v-389h-59v1051h59v-584l604 584h76l-399 -387l436 -664h-72z" />
    <glyph glyph-name="l.aalt" horiz-adv-x="835" 
d="M250 53h538v-53h-598v1051h60v-998z" />
    <glyph glyph-name="lacute.aalt" horiz-adv-x="835" 
d="M489 1624l-233 -416h-47l205 416h75zM250 53h538v-53h-598v1051h60v-998z" />
    <glyph glyph-name="lcaron.aalt" horiz-adv-x="835" 
d="M264 1208h-74l-258 434h56l239 -395l242 395h55zM250 53h538v-53h-598v1051h60v-998z" />
    <glyph glyph-name="lslash.aalt" horiz-adv-x="837" 
d="M250 53h538v-53h-598v467l-184 -90l-22 47l206 100v527h60v-502l397 192l23 -45l-420 -202v-441z" />
    <glyph glyph-name="m.aalt" horiz-adv-x="1425" 
d="M1174 0v883v47q-2 -6 -9.5 -20.5t-11.5 -20.5l-412 -842h-59l-414 842l-20 43v-49v-883h-58v1051h62l463 -928l452 928h66l2 -1051h-61z" />
    <glyph glyph-name="n.aalt" horiz-adv-x="1181" 
d="M934 1051h57v-1051h-61l-682 948v-948h-58v1051h60l684 -953v953z" />
    <glyph glyph-name="nacute.aalt" horiz-adv-x="1181" 
d="M854 1624l-233 -416h-48l205 416h76zM934 1051h57v-1051h-61l-682 948v-948h-58v1051h60l684 -953v953z" />
    <glyph glyph-name="ncaron.aalt" horiz-adv-x="1181" 
d="M627 1208h-74l-258 434h55l242 -395l239 395h56zM934 1051h57v-1051h-61l-682 948v-948h-58v1051h60l684 -953v953z" />
    <glyph glyph-name="nine.oldstyle" horiz-adv-x="1073" 
d="M539 1077q221 0 350 -179q129 -178 129 -546q0 -347 -142 -540t-391 -193q-208 0 -393 107l27 53q66 -45 161.5 -76t204.5 -31q205 0 338 174q133 173 133 500q0 39 -2 79.5t-6 82.5q-43 -139 -157 -230q-116 -92 -263 -92q-193 0 -310 114q-118 114 -118 321
q0 202 123 329t316 127zM532 246q136 0 257 110q120 110 120 267q0 165 -103 281q-104 116 -267 116q-156 0 -264 -110q-109 -110 -109 -292q0 -183 102 -278q101 -94 264 -94z" />
    <glyph glyph-name="nine.oldstyle.case" horiz-adv-x="1214" 
d="M555 29q220 0 363 173q141 173 141 511q0 42 -2.5 86t-7.5 92q-45 -143 -165 -230q-119 -88 -298 -88q-189 0 -305 112q-117 113 -117 314t125 326t336 125q231 0 363 -179q132 -178 132 -546t-149 -561q-150 -193 -418 -193q-237 0 -422 172l47 52q56 -72 156 -120
q99 -48 221 -46zM590 631q167 0 295 104q127 103 127 260q0 162 -108 280q-109 118 -279 118q-173 0 -285 -107q-111 -108 -111 -289q0 -182 102 -274q101 -92 259 -92z" />
    <glyph glyph-name="ntilde.aalt" horiz-adv-x="1181" 
d="M299 1237h-49q-6 197 31.5 286t119.5 89q29 0 54.5 -12t55.5 -44q15 -16 25.5 -28.5t17.5 -20.5q7 -9 19 -25.5t31 -39.5q19 -26 33.5 -46t25.5 -34q20 -26 54 -52t61 -26q111 0 105 326h49q12 -379 -160 -379q-31 0 -59 13t-60 48q-16 17 -27.5 30.5t-19.5 23.5
q-8 9 -21 26t-32 43q-17 25 -30.5 43t-23.5 30q-20 23 -47 47q-28 24 -53 24q-55 0 -78.5 -77t-21.5 -245zM934 1051h57v-1051h-61l-682 948v-948h-58v1051h60l684 -953v953z" />
    <glyph glyph-name="o.aalt" horiz-adv-x="1267" 
d="M633 -20q-240 0 -390 150q-151 148 -151 407q0 245 154 390q154 146 387 146q234 0 388 -144q155 -146 155 -392q0 -262 -149 -409q-149 -148 -394 -148zM633 37q215 0 347 135t132 365q0 216 -134 347q-133 130 -344 130t-345 -130q-135 -130 -135 -347q0 -226 135 -363
t344 -137z" />
    <glyph glyph-name="oacute.aalt" horiz-adv-x="1267" 
d="M895 1624l-233 -416h-48l205 416h76zM633 -20q-240 0 -390 150q-151 148 -151 407q0 245 154 390q154 146 387 146q234 0 388 -144q155 -146 155 -392q0 -262 -149 -409q-149 -148 -394 -148zM633 37q215 0 347 135t132 365q0 216 -134 347q-133 130 -344 130t-345 -130
q-135 -130 -135 -347q0 -226 135 -363t344 -137z" />
    <glyph glyph-name="ocircumflex.aalt" horiz-adv-x="1267" 
d="M633 1604l-240 -396h-55l258 434h74l260 -434h-56zM633 1073q234 0 388 -144q155 -146 155 -392q0 -262 -149 -409q-149 -148 -394 -148q-240 0 -390 150q-151 148 -151 407q0 245 154 390q155 146 387 146zM633 37q215 0 347 135t132 365q0 216 -134 347
q-133 130 -344 130t-345 -130q-135 -130 -135 -347q0 -226 135 -363t344 -137z" />
    <glyph glyph-name="odieresis.aalt" horiz-adv-x="1267" 
d="M384 1410q-13 13 -16 32t3.5 36t21 28.5t35.5 9.5q25 0 42 -17.5t17 -44.5t-17 -44t-42 -17q-27 0 -44 17zM794 1410q-14 13 -17 32t4 36t21.5 28.5t35.5 9.5q27 0 44 -17.5t17 -44.5t-17.5 -44t-43.5 -17q-27 0 -44 17zM633 -20q-240 0 -390 150q-151 148 -151 407
q0 245 154 390q154 146 387 146q234 0 388 -144q155 -146 155 -392q0 -262 -149 -409q-149 -148 -394 -148zM633 37q215 0 347 135t132 365q0 216 -134 347q-133 130 -344 130t-345 -130q-135 -130 -135 -347q0 -226 135 -363t344 -137z" />
    <glyph glyph-name="ogonek.aalt" horiz-adv-x="516" 
d="M250 -537q-94 0 -141.5 47t-47.5 132q0 133 99 250q96 117 264 182l8 -27q-152 -92 -231.5 -189.5t-79.5 -215.5q0 -121 129 -121q113 0 207 61l18 -55q-107 -64 -225 -64z" />
    <glyph glyph-name="ograve.aalt" horiz-adv-x="1267" 
d="M655 1208h-47l-233 416h76zM633 -20q-240 0 -390 150q-151 148 -151 407q0 245 154 390q154 146 387 146q234 0 388 -144q155 -146 155 -392q0 -262 -149 -409q-149 -148 -394 -148zM633 37q215 0 347 135t132 365q0 216 -134 347q-133 130 -344 130t-345 -130
q-135 -130 -135 -347q0 -226 135 -363t344 -137z" />
    <glyph glyph-name="ohungarumlaut.aalt" horiz-adv-x="1267" 
d="M711 1624l-199 -416h-47l170 416h76zM1065 1624l-317 -416h-48l289 416h76zM633 -20q-240 0 -390 150q-151 148 -151 407q0 245 154 390q154 146 387 146q234 0 388 -144q155 -146 155 -392q0 -262 -149 -409q-149 -148 -394 -148zM633 37q215 0 347 135t132 365
q0 216 -134 347q-133 130 -344 130t-345 -130q-135 -130 -135 -347q0 -226 135 -363t344 -137z" />
    <glyph glyph-name="omacron.aalt" horiz-adv-x="1267" 
d="M297 1473h674v-52h-674v52zM633 -20q-240 0 -390 150q-151 148 -151 407q0 245 154 390q154 146 387 146q234 0 388 -144q155 -146 155 -392q0 -262 -149 -409q-149 -148 -394 -148zM633 37q215 0 347 135t132 365q0 216 -134 347q-133 130 -344 130t-345 -130
q-135 -130 -135 -347q0 -226 135 -363t344 -137z" />
    <glyph glyph-name="one.oldstyle" horiz-adv-x="471" 
d="M287 1051v-1051h-58v993h-88v58h146z" />
    <glyph glyph-name="one.oldstyle.case" horiz-adv-x="407" 
d="M244 1419v-1419h-60v1368h-123v51h183z" />
    <glyph glyph-name="otilde.aalt" horiz-adv-x="1267" 
d="M442 1559q-57 0 -80.5 -77t-19.5 -245h-49q-8 197 29.5 286t121.5 89q29 0 53.5 -12t55.5 -44q16 -16 26.5 -28.5t17.5 -20.5q7 -9 19 -25.5t29 -39.5q20 -26 34.5 -46t25.5 -34q19 -26 54 -52t62 -26q111 0 105 326h49q10 -379 -160 -379q-31 0 -59.5 13t-60.5 48
q-35 36 -47 54q-8 9 -20.5 26t-31.5 43q-19 25 -32.5 43l-22.5 30q-10 11 -21.5 23t-25.5 24q-28 24 -52 24zM633 -20q-240 0 -390 150q-151 148 -151 407q0 245 154 390q154 146 387 146t387 -144q154 -145 154 -392q0 -262 -148 -409q-148 -148 -393 -148zM633 37
q215 0 347 135t132 365q0 216 -134 347q-133 130 -344 130t-345 -130q-135 -130 -135 -347q0 -226 135 -363t344 -137z" />
    <glyph glyph-name="p.aalt" horiz-adv-x="991" 
d="M586 1051q169 0 259.5 -72.5t90.5 -214.5q0 -72 -23.5 -128t-68.5 -94.5t-110 -58.5t-148 -20h-336v-463h-60v1051h396zM586 514q136 0 212 65t76 183t-75 176.5t-213 58.5h-336v-483h336z" />
    <glyph glyph-name="q.aalt" horiz-adv-x="1265" 
d="M633 -20q-240 0 -390 150q-151 148 -151 407q0 245 154 390q154 146 387 146q234 0 388 -144q155 -146 155 -392q0 -262 -149 -409q-149 -148 -394 -148zM633 37q215 0 347 135t132 365q0 216 -134 347q-133 130 -344 130t-345 -130q-135 -130 -135 -347q0 -226 135 -363
t344 -137zM1075 -201h-571v49h571v-49z" />
    <glyph glyph-name="r.aalt" horiz-adv-x="1087" 
d="M897 0l-336 477h-311v-477h-60v1051h424q161 0 249.5 -71.5t88.5 -207.5q0 -132 -86 -212q-84 -78 -237 -83l340 -477h-72zM250 997v-469h364q125 0 201 64q76 63 76 178q0 57 -19.5 100t-55.5 71t-87.5 42t-114.5 14h-364z" />
    <glyph glyph-name="racute.aalt" horiz-adv-x="1087" 
d="M811 1624l-233 -416h-48l205 416h76zM897 0l-336 477h-311v-477h-60v1051h424q161 0 249.5 -71.5t88.5 -207.5q0 -132 -86 -212q-84 -78 -237 -83l340 -477h-72zM250 997v-469h364q125 0 201 64q76 63 76 178q0 57 -19.5 100t-55.5 71t-87.5 42t-114.5 14h-364z" />
    <glyph glyph-name="rcaron.aalt" horiz-adv-x="1087" 
d="M586 1208h-74l-258 434h55l240 -395l242 395h55zM897 0l-336 477h-311v-477h-60v1051h424q161 0 249.5 -71.5t88.5 -207.5q0 -132 -86 -212q-84 -78 -237 -83l340 -477h-72zM250 997v-469h364q125 0 201 64q76 63 76 178q0 57 -19.5 100t-55.5 71t-87.5 42t-114.5 14
h-364z" />
    <glyph glyph-name="s.aalt" horiz-adv-x="897" 
d="M436 -29q-205 0 -354 92l24 58q130 -94 330 -94q134 0 217 62q82 61 82 173q0 45 -17.5 82t-40.5 61q-24 23 -69 45q-23 11 -43 19t-37 15q-18 6 -42 13t-54 15q-150 43 -228.5 116.5t-78.5 198.5q0 59 22 105.5t64 79t102.5 50t137.5 17.5q189 0 331 -86l-24 -51
q-123 84 -305 84q-126 0 -197.5 -51.5t-71.5 -145.5q0 -106 68 -162q68 -57 199 -96q32 -9 58 -17t48 -16t45 -18t48 -23q50 -25 79 -55t48.5 -76.5t19.5 -101.5q0 -145 -99 -219q-101 -74 -262 -74z" />
    <glyph glyph-name="sacute.aalt" horiz-adv-x="897" 
d="M707 1624l-234 -416h-47l205 416h76zM436 -29q-205 0 -354 92l24 58q130 -94 330 -94q134 0 217 62q82 61 82 173q0 45 -17.5 82t-40.5 61q-24 23 -69 45q-23 11 -43 19t-37 15q-18 6 -42 13t-54 15q-150 43 -228.5 116.5t-78.5 198.5q0 59 22 105.5t64 79t102.5 50
t137.5 17.5q189 0 331 -86l-24 -51q-123 84 -305 84q-126 0 -197.5 -51.5t-71.5 -145.5q0 -106 68 -162q68 -57 199 -96q32 -9 58 -17t48 -16t45 -18t48 -23q50 -25 79 -55t48.5 -76.5t19.5 -101.5q0 -145 -99 -219q-101 -74 -262 -74z" />
    <glyph glyph-name="scaron.aalt" horiz-adv-x="897" 
d="M481 1208h-73l-258 434h55l239 -395l242 395h55zM451 571q32 -9 58 -17t48 -16t45 -18t48 -23q50 -25 79 -55t48.5 -76.5t19.5 -101.5q0 -145 -99 -219q-101 -74 -262 -74q-205 0 -354 92l24 58q130 -94 330 -94q134 0 217 62q82 61 82 173q0 45 -17.5 82t-40.5 61
q-24 23 -69 45q-23 11 -43 19t-37 15q-18 6 -42 13t-54 15q-150 43 -228.5 116.5t-78.5 198.5q0 59 22 105.5t64 79t102.5 50t137.5 17.5q189 0 331 -86l-24 -51q-123 84 -305 84q-126 0 -197.5 -51.5t-71.5 -145.5q0 -106 68 -162q67 -57 199 -96z" />
    <glyph glyph-name="seven.oldstyle" horiz-adv-x="839" 
d="M10 1051h776l-448 -1327h-70l441 1273h-699v54z" />
    <glyph glyph-name="seven.oldstyle.case" horiz-adv-x="983" 
d="M29 1417h817l-481 -1417h-70l473 1364h-739v53z" />
    <glyph glyph-name="six.oldstyle" horiz-adv-x="1073" 
d="M610 862q183 0 296 -113q112 -113 112 -321q0 -201 -123 -329t-315 -128q-221 0 -350 180q-130 178 -130 545q0 355 143 554q143 198 390 198q198 0 373 -107l-27 -53q-61 48 -152 77.5t-194 29.5q-205 0 -338 -178t-133 -515q0 -39 2 -79t6 -82q45 139 166 230
q119 91 274 91zM580 29q156 0 264 111q108 110 108 290q0 186 -96 280q-96 93 -250 93q-146 0 -271 -109q-126 -109 -126 -268q0 -161 104 -279q103 -118 267 -118z" />
    <glyph glyph-name="six.oldstyle.case" horiz-adv-x="1214" 
d="M705 1393q-219 0 -361 -178q-143 -179 -143 -513q0 -38 2 -78t6 -83q45 145 165 232t314 87q202 0 317 -111q115 -112 115 -321q0 -203 -130 -330t-349 -127q-238 0 -370 179t-132 546q0 355 152 555q151 199 416 199q203 0 364 -152l-47 -51q-134 148 -319 146zM684 801
q-187 0 -312 -105q-124 -106 -124 -270q0 -162 111 -279q109 -118 282 -118q183 0 299 110q115 109 115 291q0 186 -100 279q-101 92 -271 92z" />
    <glyph glyph-name="t.aalt" horiz-adv-x="972" 
d="M924 1051v-54h-408v-997h-59v997h-408v54h875z" />
    <glyph glyph-name="tcaron.aalt" horiz-adv-x="972" 
d="M522 1208h-73l-259 434h56l241 -395l240 395h55zM924 1051v-54h-408v-997h-59v997h-408v54h875z" />
    <glyph glyph-name="three.oldstyle" horiz-adv-x="946" 
d="M508 340q153 -26 241 -118q89 -94 89 -242q0 -172 -118 -266q-118 -93 -300 -93q-132 0 -225 34q-96 35 -195 103l33 52q41 -32 83 -56.5t88.5 -41t99.5 -25.5t114 -9q167 0 262 82q96 82 96 224q0 153 -116 239q-117 84 -291 84h-127v60h98q183 0 302 95q118 94 118 267
q0 142 -92 219q-92 76 -238 76q-222 0 -385 -139l-33 45q187 150 416 149q171 0 283 -86q110 -86 110 -264q0 -147 -87 -252q-86 -105 -226 -137z" />
    <glyph glyph-name="three.oldstyle.case" horiz-adv-x="1005" 
d="M616 735q144 -18 248 -116q103 -99 103 -263q0 -192 -125 -290q-124 -97 -320 -97q-253 0 -465 183l37 47q57 -48 108.5 -80.5t99.5 -52.5q95 -39 222 -39q161 0 270 82q109 81 109 245q0 178 -118 262t-304 84h-90l2 62h88q154 0 264 95q109 94 109 253q0 71 -22.5 124
t-64.5 89t-101.5 54t-133.5 18q-231 0 -403 -166l-35 43q185 178 441 178q161 0 270 -82q110 -83 110 -258q0 -138 -85 -241q-86 -106 -214 -134z" />
    <glyph glyph-name="three.salt" horiz-adv-x="1005" 
d="M455 811q242 11 370 -105q127 -115 127 -298q0 -220 -130 -329q-131 -110 -337 -110q-260 0 -442 183l31 51q101 -95 199 -136q95 -40 214 -40q171 0 286 94q116 95 116 285q0 178 -127 275t-383 79v43l483 563h-766v53h844v-51z" />
    <glyph glyph-name="tildecomb.aalt" 
d="M-580 1444q-53 0 -75.5 -77t-18.5 -245h-49q-14 375 145 375q34 -4 59.5 -15.5t53.5 -41.5q22 -24 32 -35q5 -6 14 -16.5t20 -25.5l20 -25l12 -15t12.5 -15.5t21.5 -27.5q25 -33 36 -45q5 -6 12.5 -13.5l17.5 -17.5q21 -20 38.5 -27.5t35.5 -7.5q106 0 103 326h49
q6 -199 -34 -289t-124 -90q-20 0 -41.5 9.5t-37.5 19.5q-17 12 -39 34q-23 23 -33 36q-5 6 -14 17t-23 27t-22.5 26.5t-12.5 15.5l-12 15t-21 26q-12 15 -21 25.5t-14 16.5q-5 5 -12 12.5t-17 17.5q-18 18 -32.5 24t-28.5 6z" />
    <glyph glyph-name="two.oldstyle" horiz-adv-x="911" 
d="M190 57h717v-57h-846v49q126 57 238.5 127t212.5 155q50 42 90.5 89t69 96.5t44 100.5t15.5 102q0 91 -29 154t-79 94q-50 30 -102 43.5t-109 13.5q-242 0 -400 -143l-32 49q197 151 430 149q78 0 143 -19.5t121 -58.5q56 -40 87.5 -112t31.5 -166q0 -93 -43 -183
q-44 -93 -107 -163q-64 -71 -148 -137t-158.5 -109t-146.5 -74z" />
    <glyph glyph-name="two.oldstyle.case" horiz-adv-x="1011" 
d="M170 53h829v-53h-905v51l320 326q91 94 162.5 180t123.5 167q103 160 103 331q0 152 -93 243q-94 91 -235 91q-209 0 -412 -164l-34 47q215 174 448 174q166 0 277 -105q110 -107 110 -286q0 -100 -32.5 -198t-98.5 -193q-34 -48 -65.5 -88t-60.5 -73q-60 -67 -150 -159z
" />
    <glyph glyph-name="u.aalt" horiz-adv-x="1212" 
d="M908 97q-115 -117 -300 -117q-187 0 -302 118q-116 118 -116 320v633h60v-635q0 -171 101 -275t257 -104q158 0 257 103q98 103 98 276v635h59v-633q0 -205 -114 -321z" />
    <glyph glyph-name="uacute.aalt" horiz-adv-x="1212" 
d="M870 1624l-233 -416h-47l205 416h75zM908 97q-115 -117 -300 -117q-187 0 -302 118q-116 118 -116 320v633h60v-635q0 -171 101 -275t257 -104q158 0 257 103q98 103 98 276v635h59v-633q0 -205 -114 -321z" />
    <glyph glyph-name="ucircumflex.aalt" horiz-adv-x="1212" 
d="M608 1604l-241 -396h-56l258 434h74l260 -434h-55zM963 1051h59v-633q0 -205 -114 -321q-115 -117 -300 -117q-187 0 -302 118q-116 118 -116 320v633h60v-635q0 -171 101 -275t257 -104q158 0 257 103q98 103 98 276v635z" />
    <glyph glyph-name="udieresis.aalt" horiz-adv-x="1212" 
d="M358 1410q-13 13 -15.5 32t4 36t21 28.5t35.5 9.5q25 0 42.5 -17.5t17.5 -44.5t-17.5 -44t-42.5 -17q-28 0 -45 17zM768 1410q-12 13 -15 32t3 36t20.5 28.5t36.5 9.5q25 0 43 -17.5t18 -44.5t-18 -44t-43 -17q-28 0 -45 17zM908 97q-115 -117 -300 -117q-187 0 -302 118
q-116 118 -116 320v633h60v-635q0 -171 101 -275t257 -104q158 0 257 103q98 103 98 276v635h59v-633q0 -205 -114 -321z" />
    <glyph glyph-name="ugrave.aalt" horiz-adv-x="1212" 
d="M631 1208h-47l-234 416h76zM908 97q-115 -117 -300 -117q-187 0 -302 118q-116 118 -116 320v633h60v-635q0 -171 101 -275t257 -104q158 0 257 103q98 103 98 276v635h59v-633q0 -205 -114 -321z" />
    <glyph glyph-name="uhungarumlaut.aalt" horiz-adv-x="1212" 
d="M686 1624l-199 -416h-47l170 416h76zM1040 1624l-317 -416h-47l289 416h75zM908 97q-115 -117 -300 -117q-187 0 -302 118q-116 118 -116 320v633h60v-635q0 -171 101 -275t257 -104q158 0 257 103q98 103 98 276v635h59v-633q0 -205 -114 -321z" />
    <glyph glyph-name="umacron.aalt" horiz-adv-x="1212" 
d="M270 1473h674v-52h-674v52zM908 97q-115 -117 -300 -117q-187 0 -302 118q-116 118 -116 320v633h60v-635q0 -171 101 -275t257 -104q158 0 257 103q98 103 98 276v635h59v-633q0 -205 -114 -321z" />
    <glyph glyph-name="uni0122.c2sc" horiz-adv-x="1171" 
d="M608 514v53h436v-510q-208 -78 -417 -77q-244 0 -389 145q-146 146 -146 399q0 250 153 400q152 149 384 149q263 0 420 -147l-41 -43q-142 131 -377 131q-210 0 -343 -133q-134 -134 -134 -357q0 -225 131 -356t346 -131q199 0 352 63v414h-375zM590 -131q51 0 78.5 -43
t27.5 -121q0 -216 -186 -301l-29 45q162 72 162 264q-23 -24 -61 -22q-33 0 -55.5 22t-22.5 64t25.5 67t60.5 25z" />
    <glyph glyph-name="uni0122.salt" horiz-adv-x="1460" 
d="M727 760h633v-51q0 -185 -47.5 -327.5t-136.5 -232.5q-177 -180 -461 -180q-281 0 -457 200t-176 540q0 335 191 538q191 201 479 201q328 0 522 -209l-43 -43q-178 195 -479 195q-266 0 -437 -186q-172 -187 -172 -496q0 -311 161 -496q161 -186 411 -186q264 0 424 172
q159 173 159 508h-571v53zM731 -131q51 0 79 -43t28 -121q0 -216 -187 -301l-28 45q164 72 161 264q-23 -24 -61 -22q-33 0 -55.5 22t-22.5 64t25.5 67t60.5 25z" />
    <glyph glyph-name="uni0123.salt" horiz-adv-x="1134" 
d="M596 1196q-51 0 -79 41.5t-28 122.5q0 216 187 301l24 -43q-162 -76 -159 -272q20 29 63 28q35 0 56.5 -22t21.5 -64t-24.5 -67t-61.5 -25zM915 971h58v-971q0 -121 -26 -215t-71 -152q-46 -58 -105 -95q-60 -38 -121.5 -52t-131.5 -14q-238 0 -373 174l37 39
q117 -160 336 -160q76 0 141.5 21t126.5 72q60 51 94.5 147.5t34.5 234.5v223q-27 -57 -67.5 -103.5t-92 -79.5t-113 -51t-130.5 -18q-195 0 -311 135q-117 134 -117 379q0 242 130 378t325 136q128 0 224.5 -57.5t151.5 -157.5v187zM512 27q270 0 403 301v348
q-54 130 -150 199t-226 69q-76 0 -143.5 -26t-124.5 -80q-58 -54 -92 -144.5t-34 -208.5q0 -232 103 -344q102 -114 264 -114z" />
    <glyph glyph-name="uni0136.swash" horiz-adv-x="1617" 
d="M1004 897l557 -897h-72l-528 850l-302 -309v-541h-59v1368h-20q-264 0 -394.5 -94t-130.5 -273q0 -162 96 -254q95 -92 261 -92v-55q-105 0 -186 34t-129 91t-72.5 126.5t-24.5 147.5q0 87 28.5 159.5t91.5 133.5q63 60 174 93.5t265 33.5h41h59v-798l777 798h75z
M997 -131q51 0 79 -43t28 -121q0 -216 -186 -301l-29 45q162 72 162 264q-23 -23 -62 -22q-33 0 -55.5 22t-22.5 64t25.5 67t60.5 25z" />
    <glyph glyph-name="uni0137.aalt" horiz-adv-x="1058" 
d="M547 664l436 -664h-72l-409 618l-236 -229v-389h-59v1051h59v-584l604 584h76zM530 -131q51 0 79 -43t28 -121q0 -216 -186 -301l-29 45q162 72 162 264q-23 -23 -62 -22q-33 0 -55.5 22t-22.5 64t25.5 67t60.5 25z" />
    <glyph glyph-name="uni013B.swash" horiz-adv-x="1488" 
d="M786 53h682v-53h-741v1368h-147q-264 0 -394.5 -94t-130.5 -273q0 -162 96 -254q95 -92 261 -92v-55q-105 0 -186 34t-129 91t-72.5 126.5t-24.5 147.5q0 87 28.5 159.5t91.5 133.5q63 60 174 93.5t265 33.5h168h59v-1366zM1126 -131q51 0 79 -43t28 -121
q0 -216 -186 -301l-29 45q162 72 162 264q-23 -23 -62 -22q-33 0 -55.5 22t-22.5 64t25.5 67t60.5 25z" />
    <glyph glyph-name="uni013C.aalt" horiz-adv-x="835" 
d="M250 53h538v-53h-598v1051h60v-998zM492 -131q51 0 78.5 -43t27.5 -121q0 -216 -186 -301l-29 45q162 72 160 264q-20 -23 -60 -22q-35 0 -56 22t-21 64t25.5 67t60.5 25z" />
    <glyph glyph-name="uni0145.swash" horiz-adv-x="1843" 
d="M1581 1419h57v-1419h-63l-873 1313v-1313h-57v1368h-65q-523 -1 -525 -367q0 -162 96 -254q95 -92 261 -92v-55q-105 0 -186 34t-129 91t-72.5 126.5t-24.5 147.5q0 87 28.5 159.5t91.5 133.5q63 60 174 93.5t265 33.5h86h60l876 -1319v1319zM1145 -131q51 0 78.5 -43
t27.5 -121q0 -216 -186 -301l-29 45q162 72 162 264q-23 -24 -61 -22q-33 0 -55.5 22t-22.5 64t25.5 67t60.5 25z" />
    <glyph glyph-name="uni0146.aalt" horiz-adv-x="1181" 
d="M934 1051h57v-1051h-61l-682 948v-948h-58v1051h60l684 -953v953zM592 -131q51 0 78.5 -43t27.5 -121q0 -216 -186 -301l-29 45q162 72 162 264q-23 -24 -61 -22q-33 0 -55.5 22t-22.5 64t25.5 67t60.5 25z" />
    <glyph glyph-name="uni0156.swash" horiz-adv-x="1746" 
d="M1163 655l434 -655h-71l-430 655h-402v-655h-59v1368h-55q-264 0 -394.5 -94t-130.5 -273q0 -162 96 -254q95 -92 261 -92v-55q-105 0 -186 34t-129 91t-72.5 126.5t-24.5 147.5q0 87 28.5 159.5t91.5 133.5q63 60 174 93.5t265 33.5h76h526q99 0 176.5 -24t131 -71
t82 -116t28.5 -159q0 -181 -110 -288q-110 -106 -306 -106zM694 1366v-657h469q160 0 258 89q97 88 97 251q0 160 -96 239q-97 78 -259 78h-469zM1079 -131q51 0 79 -43t28 -121q0 -216 -187 -301l-28 45q162 72 162 264q-23 -23 -62 -22q-33 0 -55.5 22t-22.5 64t25.5 67
t60.5 25z" />
    <glyph glyph-name="uni0157.aalt" horiz-adv-x="1087" 
d="M629 477l340 -477h-72l-336 477h-311v-477h-60v1051h424q161 0 249.5 -71.5t88.5 -207.5q0 -133 -85 -212q-84 -78 -238 -83zM250 997v-469h364q125 0 201 64q76 63 76 178q0 57 -19.5 100t-55.5 71t-87.5 42t-114.5 14h-364zM551 -131q51 0 78.5 -43t27.5 -121
q0 -216 -186 -301l-29 45q162 72 160 264q-20 -23 -59 -22q-35 0 -56.5 22t-21.5 64t25.5 67t60.5 25z" />
    <glyph glyph-name="uni0162.c2sc" horiz-adv-x="899" 
d="M516 0h-37l-96 -217q64 35 141 35q91 0 144 -50t53 -141q0 -105 -75 -160q-74 -55 -187 -55q-138 0 -226 70l25 51q77 -68 201 -68q92 0 148.5 43t56.5 123q0 60 -38 96.5t-104 36.5q-105 0 -166 -61l-53 25l121 284l33 -8v993h-408v54h875v-54h-408v-997z" />
    <glyph glyph-name="uni0162.swash" horiz-adv-x="1339" 
d="M854 1368v-1368l-98 -217q67 35 141 35q91 0 144 -49t53 -142q0 -104 -74 -160q-73 -55 -189 -55q-137 0 -225 70l25 51q79 -68 200 -68q94 0 149.5 42.5t55.5 123.5q0 57 -36 95t-105 38q-105 0 -166 -61l-53 25l119 280v1360h-215q-264 0 -394.5 -94t-130.5 -273
q0 -162 96 -254q95 -92 261 -92v-55q-105 0 -186 34t-129 91t-72.5 126.5t-24.5 147.5q0 87 28.5 159.5t91.5 133.5q63 60 174 93.5t265 33.5h752v-51h-457z" />
    <glyph glyph-name="uni01CD.swash" horiz-adv-x="1568" 
d="M985 1571h-74l-258 434h58l239 -385l238 385h57zM1444 0l-144 393h-692l-141 -393h-59l489 1368h-276q-252 0 -377 -90t-125 -256q0 -146 88.5 -226.5t253.5 -84.5l-17 -49q-188 5 -285 106q-98 103 -98 252q0 81 29 149t90 127q60 59 167 91t253 32h315h72l520 -1419
h-63zM627 446h655l-332 904z" />
    <glyph glyph-name="uni01CE.aalt" horiz-adv-x="1116" 
d="M588 1208h-74l-258 434h55l240 -395l242 395h55zM979 0l-123 283h-602l-121 -283h-59l442 1051h72l454 -1051h-63zM274 336h560l-283 651z" />
    <glyph glyph-name="uni01CF.swash" horiz-adv-x="856" 
d="M866 2005h58l-260 -434h-74l-258 434h57l240 -385zM592 1419h59v-1419h-59v1368h-12q-264 0 -394.5 -94t-130.5 -273q0 -162 96 -254q95 -92 261 -92v-55q-105 0 -186 34t-129 91t-72.5 126.5t-24.5 147.5q0 87 28.5 159.5t91.5 133.5q63 60 174 93.5t265 33.5h33z" />
    </font>
</defs>
</svg>
