<?xml version="1.0" standalone="no"?>
<!DOCTYPE svg PUBLIC "-//W3C//DTD SVG 1.1//EN" "http://www.w3.org/Graphics/SVG/1.1/DTD/svg11.dtd" >
<svg xmlns="http://www.w3.org/2000/svg" xmlns:xlink="http://www.w3.org/1999/xlink" version="1.1">
<metadata>
Created by FontForge 20230101 at Wed Jul 26 10:39:04 2017
 By Pablo Velazquez
Copyright (c) 2017 by Emil Bertell. All rights reserved.
</metadata>
<defs>
<font id="Karu-ExtraBoldItalic" horiz-adv-x="0" >
  <font-face 
    font-family="Karu ExtraBold Italic"
    font-weight="800"
    font-style="italic"
    font-stretch="normal"
    units-per-em="2048"
    panose-1="0 0 9 0 0 0 0 0 0 0"
    ascent="1638"
    descent="-410"
    x-height="979"
    cap-height="1427"
    bbox="-1481 -795 2636 2120"
    underline-thickness="0"
    underline-position="0"
    unicode-range="U+000D-FB02"
  />
<missing-glyph horiz-adv-x="1019" 
d="M836 1530v-2038h-646v2038h646zM678 1393h-336v-66h133v-76h-135v-67h338v67h-133v76h133v66zM545 1130h-205v-210h338v67h-133v143zM475 1061v-74h-67v74h67zM678 864h-338v-67h135v-76h-135v-68h205v144h133v67zM678 741h-66v-135h-272v-69h338v204zM678 494h-203v-115
h70v47h67v-96h-204v164h-68v-232h338v232zM678 139h-338v-229h338v229zM612 74v-97h-204v97h204zM678 -137h-338v-68h143l-143 -96v-66h338v66h-207l141 96h66v68z" />
    <glyph glyph-name="uniFB01" unicode="fi" horiz-adv-x="1128" 
d="M1149 979l-164 -979h-381l109 662h-197l-180 -1117h-381l180 1117h-80l47 317h84l11 59q46 290 165 409q117 118 365 118q229 0 410 -99l-140 -297q-128 70 -225 70q-87 0 -131 -42q-43 -42 -63 -159l-11 -59h582z" />
    <glyph glyph-name="uniFB02" unicode="fl" horiz-adv-x="1163" 
d="M743 1565q134 0 290 -29q152 -28 224 -68l-235 -1468h-381l199 1233q-37 6 -76 6q-152 0 -182 -180l-13 -80h121l-49 -317h-125l-180 -1117h-381l178 1117h-78l47 317h82l25 154q40 232 172 333q131 99 362 99z" />
    <glyph glyph-name="f_b.liga" unicode="fb" horiz-adv-x="1812" 
d="M1485 1014q137 0 224 -95q87 -96 87 -280q0 -319 -150 -496q-151 -178 -382 -178q-159 0 -242 119l-25 -84h-364l203 1225q-54 14 -105 14q-121 0 -139 -117l-23 -143h140l-50 -317h-143l-180 -1117h-381l180 1117h-80l47 317h84l31 190q18 105 56.5 180t100.5 123
t148.5 70.5t198.5 22.5q68 0 142.5 -6.5t156.5 -19.5q164 -26 242 -54l-99 -590q128 119 322 119zM1214 303q86 0 140 66q53 65 53 159q0 138 -119 140q-117 0 -180 -107l-29 -172q41 -86 135 -86z" />
    <glyph glyph-name="f_f_i.liga" unicode="ffi" horiz-adv-x="1779" 
d="M1800 979l-164 -979h-381l109 662h-197l-180 -1117h-381l180 1117h-268l-182 -1117h-381l180 1117h-80l47 317h84l31 197q66 389 412 389q184 0 311 -88l-135 -277q-51 39 -107 39q-86 0 -104 -109l-25 -151h269l10 59q46 290 165 409q117 118 365 118q229 0 410 -99
l-139 -297q-128 70 -226 70q-87 0 -131 -42q-43 -42 -63 -159l-10 -59h581z" />
    <glyph glyph-name="f_f_l.liga" unicode="ffl" horiz-adv-x="1792" 
d="M1372 1565q134 0 290 -29q152 -28 224 -68l-235 -1468h-381l198 1233q-37 6 -75 6q-151 0 -183 -180l-12 -80h121l-49 -317h-125l-180 -1117h-381l178 1117h-244l-182 -1117h-381l180 1117h-80l47 317h84l27 164q38 226 146 324q109 98 286 98q218 0 375 -90
q125 90 352 90zM813 979l25 154q4 22 7.5 39t6.5 30q-65 37 -135 37q-61 0 -90 -36.5t-39 -117.5l-19 -106h244z" />
    <glyph glyph-name="f_h.liga" unicode="fh" horiz-adv-x="1742" 
d="M1481 1014q134 0 198 -93q64 -94 37 -255l-108 -666h-385l92 549q23 125 -70 125q-76 0 -131 -94l-92 -580l-383 6l203 1229q-42 8 -84 8q-81 0 -119 -44q-37 -43 -55 -148l-13 -72h138l-50 -317h-139l-184 -1117h-381l180 1117h-80l47 317h86l25 158q38 237 167 332
q131 96 386 96q119 0 273 -27q155 -27 218 -70l-100 -630q111 176 324 176z" />
    <glyph glyph-name="f_k.liga" unicode="fk" horiz-adv-x="1726" 
d="M1792 979l-354 -367l182 -612h-412l-71 299l-86 -90l-35 -209h-383l205 1239q-19 2 -32.5 3t-21.5 1q-93 0 -140 -41q-46 -40 -64 -153l-13 -70h142l-50 -317h-143l-180 -1117h-381l180 1117h-80l47 317h84l29 182q18 107 60.5 183t109 125.5t156.5 72.5t202 23
q75 0 148.5 -7.5t146.5 -21.5q142 -28 219 -68l-131 -802l224 313h442z" />
    <glyph glyph-name=".notdef" horiz-adv-x="1019" 
d="M836 1530v-2038h-646v2038h646zM678 1393h-336v-66h133v-76h-135v-67h338v67h-133v76h133v66zM545 1130h-205v-210h338v67h-133v143zM475 1061v-74h-67v74h67zM678 864h-338v-67h135v-76h-135v-68h205v144h133v67zM678 741h-66v-135h-272v-69h338v204zM678 494h-203v-115
h70v47h67v-96h-204v164h-68v-232h338v232zM678 139h-338v-229h338v229zM612 74v-97h-204v97h204zM678 -137h-338v-68h143l-143 -96v-66h338v66h-207l141 96h66v68z" />
    <glyph glyph-name=".null" 
 />
    <glyph glyph-name="nonmarkingreturn" unicode="&#xd;" horiz-adv-x="512" 
 />
    <glyph glyph-name="space" unicode=" " horiz-adv-x="307" 
 />
    <glyph glyph-name="exclam" unicode="!" horiz-adv-x="675" 
d="M684 1427l-192 -964h-342l135 964h399zM72 160q0 95 70 162q68 67 163 67q81 0 139 -56q56 -58 56 -136q0 -95 -67 -162q-68 -68 -159 -68q-89 0 -145 56q-57 56 -57 137z" />
    <glyph glyph-name="quotedbl" unicode="&#x22;" horiz-adv-x="909" 
d="M610 1530l-131 -586h-276l18 586h389zM1036 1530l-168 -586h-276l57 586h387z" />
    <glyph glyph-name="numbersign" unicode="#" horiz-adv-x="1361" 
d="M1427 1427l-108 -288h92l-82 -324h-131l-70 -190h142l-82 -324h-180l-113 -301h-365l113 301h-151l-113 -301h-365l113 301h-98l82 324h137l69 190h-147l82 324h186l109 288h364l-108 -288h151l109 288h364zM764 625l70 190h-152l-70 -190h152z" />
    <glyph glyph-name="dollar" unicode="$" horiz-adv-x="1024" 
d="M666 889q146 -57 231 -151q86 -95 86 -267q0 -189 -107 -310q-108 -120 -290 -147l-25 -164h-346l29 181q-136 33 -269 125l146 350q168 -135 352 -135q113 0 113 69q0 33 -25 55q-25 21 -104 54q-86 35 -148.5 76.5t-103.5 91.5t-60.5 111t-19.5 135q0 173 91 291
t249 157l24 158h347l-25 -158q110 -25 264 -117l-166 -317q-145 100 -272 100q-105 0 -107 -71q0 -35 27 -59q26 -25 109 -58z" />
    <glyph glyph-name="percent" unicode="%" horiz-adv-x="1714" 
d="M422 754q-145 0 -223 81q-78 80 -78 212q0 184 118 301q118 116 298 116q145 0 223 -80q78 -81 78 -213q0 -184 -119 -300q-118 -117 -297 -117zM305 0l799 1427h385l-799 -1427h-385zM455 999q60 0 96.5 39t36.5 99q0 42 -22.5 65t-61.5 23q-58 0 -96 -41
q-37 -40 -37 -97q0 -39 22.5 -63.5t61.5 -24.5zM1253 -35q-143 0 -222 82t-79 211q0 184 118 301q119 117 298 117q147 0 224 -80t77 -211q0 -186 -119 -303q-118 -117 -297 -117zM1286 211q60 0 96.5 38.5t36.5 98.5q0 42 -22.5 65t-61.5 23q-59 0 -95 -41q-36 -40 -36 -96
q0 -39 21.5 -63.5t60.5 -24.5z" />
    <glyph glyph-name="ampersand" unicode="&#x26;" horiz-adv-x="1339" 
d="M1333 696q-44 -263 -223 -454l176 -242h-442l-29 41q-179 -76 -409 -76q-394 0 -396 320q0 141 92 251q91 109 248 175q-90 147 -90 286q0 213 140 339t380 126q188 0 293 -79.5t105 -241.5q0 -157 -106 -285q-106 -129 -267 -192l125 -172q54 92 67 204h336zM735 1143
q-60 0 -94.5 -35t-34.5 -92q0 -78 72 -176q156 72 156 202q0 48 -25.5 74.5t-73.5 26.5zM518 283q58 0 119 12l-156 221q-88 -57 -88 -139q0 -94 125 -94z" />
    <glyph glyph-name="quotesingle" unicode="'" horiz-adv-x="483" 
d="M610 1530l-149 -586h-279l39 586h389z" />
    <glyph glyph-name="parenleft" unicode="(" horiz-adv-x="700" 
d="M532 1757l283 -201q-280 -388 -360 -915q-37 -286 -15 -540q21 -252 86 -429l-336 -133q-92 195 -128 501q-19 155 -17.5 311.5t21.5 318.5q46 324 176 612q126 283 290 475z" />
    <glyph glyph-name="parenright" unicode=")" horiz-adv-x="700" 
d="M221 -463l-282 199q280 388 360 917q37 283 16 539q-11 128 -33 235t-55 195l336 133q92 -193 129 -501q19 -155 17.5 -312t-21.5 -319q-50 -327 -178 -612q-130 -288 -289 -474z" />
    <glyph glyph-name="asterisk" unicode="*" horiz-adv-x="907" 
d="M979 1085l-254 -22l168 -229l-295 -132l-51 297l-150 -276l-239 180l235 189l-254 71l162 279l191 -172l-19 286l307 -28l-102 -273l242 129z" />
    <glyph glyph-name="plus" unicode="+" horiz-adv-x="1126" 
d="M1085 848l-53 -334h-291l-49 -315h-346l49 315h-289l54 334h289l49 311h344l-49 -311h292z" />
    <glyph glyph-name="comma" unicode="," horiz-adv-x="538" 
d="M254 381q88 0 137 -61t49 -181q0 -209 -135 -369q-135 -159 -334 -229l-94 189q208 85 291 235q-66 10 -107 58.5t-41 121.5q0 113 70 176q70 61 164 60z" />
    <glyph glyph-name="hyphen" unicode="-" horiz-adv-x="837" 
d="M51 395l51 326h707l-51 -326h-707z" />
    <glyph glyph-name="period" unicode="." horiz-adv-x="518" 
d="M-8 143q0 101 75 171q74 71 171 71q83 0 132 -51q50 -52 50 -127q0 -100 -76 -170t-172 -70q-81 0 -131 50q-49 49 -49 126z" />
    <glyph glyph-name="slash" unicode="/" horiz-adv-x="1075" 
d="M1073 1663l-684 -1892h-385l684 1892h385z" />
    <glyph glyph-name="zero" unicode="0" horiz-adv-x="1386" 
d="M596 -35q-258 0 -398 153q-141 152 -141 427q0 248 93 455q92 206 277 334t429 128q112 0 204.5 -31t167.5 -99t116.5 -185.5t41.5 -276.5q0 -173 -50.5 -331.5t-146.5 -288.5q-94 -129 -249 -207q-154 -78 -344 -78zM649 350q135 0 225 147q89 146 89 345
q0 243 -164 241q-132 0 -224 -147q-92 -149 -92 -348q0 -238 166 -238z" />
    <glyph glyph-name="one" unicode="1" horiz-adv-x="659" 
d="M707 1427l-236 -1427h-401l180 1085h-125l57 342h525z" />
    <glyph glyph-name="two" unicode="2" horiz-adv-x="1167" 
d="M768 438l-106 -80h464l-61 -358h-1047l56 332l248 192q208 151 287 246t79 191q0 128 -143 126q-152 0 -287 -108l-123 332q233 152 527 151q470 0 468 -411q0 -162 -96 -324q-95 -160 -266 -289z" />
    <glyph glyph-name="three" unicode="3" horiz-adv-x="1130" 
d="M856 729q195 -96 195 -315q0 -224 -148 -336q-149 -113 -395 -113q-310 0 -533 187l207 307q111 -111 269 -111q87 0 135.5 34.5t48.5 100.5q0 109 -166 109h-107l44 262h100q86 0 141 40t55 99q0 92 -129 92q-172 0 -315 -114l-98 342q227 151 553 149q438 0 438 -327
q0 -146 -82 -249q-84 -105 -213 -157z" />
    <glyph glyph-name="four" unicode="4" horiz-adv-x="1228" 
d="M1208 563l-53 -323h-172l-39 -240h-389l39 240h-612l55 331l639 859h504l-144 -867h172zM420 563h229l74 441z" />
    <glyph glyph-name="five" unicode="5" horiz-adv-x="1128" 
d="M719 881q60 0 118 -16.5t116 -53.5q57 -37 91.5 -109t34.5 -174q0 -274 -167 -418q-166 -145 -418 -145q-305 0 -492 160l154 340q112 -115 301 -115q88 0 141 40t53 112q0 102 -100 102t-180 -72l-240 115l131 780h877l-62 -360h-497l-39 -217q94 31 178 31z" />
    <glyph glyph-name="six" unicode="6" horiz-adv-x="1241" 
d="M836 889q55 0 112 -16.5t120 -54.5t101.5 -116.5t38.5 -187.5q-1 -256 -162 -402q-160 -147 -434 -147q-243 0 -389 142q-147 141 -147 425q0 415 220 672q221 258 568 258q251 0 420 -141l-256 -295q-74 68 -190 68q-127 0 -213 -98q-87 -101 -115 -238q111 131 326 131
zM621 336q39 0 71.5 11.5t55.5 31.5t36 48.5t13 61.5q0 113 -133 113q-37 0 -68 -11t-53 -31t-34.5 -47t-12.5 -60q0 -57 35 -87t90 -30z" />
    <glyph glyph-name="seven" unicode="7" horiz-adv-x="1077" 
d="M184 1427h994l-584 -1427h-440l473 1067h-504z" />
    <glyph glyph-name="eight" unicode="8" horiz-adv-x="1214" 
d="M961 717q196 -80 194 -307q0 -105 -40 -188t-119.5 -140t-198 -87t-275.5 -30q-506 0 -506 357q0 148 80.5 250.5t227.5 150.5q-160 100 -160 293q0 185 147 315q146 131 434 131q224 0 349 -88q125 -89 125 -270q0 -67 -18.5 -126t-52 -107.5t-81 -87.5t-106.5 -66z
M692 1096q-34 0 -62 -11.5t-47.5 -32.5t-30.5 -49.5t-11 -62.5q0 -60 30.5 -89.5t81.5 -29.5q73 0 116 46q44 47 44 114q0 115 -121 115zM578 334q88 0 136 39t48 106q0 123 -144 123q-85 0 -131.5 -42t-46.5 -109q2 -117 138 -117z" />
    <glyph glyph-name="nine" unicode="9" horiz-adv-x="1218" 
d="M698 1462q100 0 187.5 -32.5t162.5 -102.5t117.5 -195t42.5 -296q0 -240 -82 -432q-83 -196 -254 -318q-172 -123 -405 -123q-292 0 -500 176l195 332q124 -127 280 -127q241 0 299 289q-112 -92 -299 -92q-137 0 -237 88q-101 89 -101 266q0 243 161 406
q161 161 433 161zM510 934q0 -103 117 -105q70 0 116 42q45 42 45 102q0 57 -36 88t-93 31q-70 0 -109 -47q-40 -47 -40 -111z" />
    <glyph glyph-name="colon" unicode=":" horiz-adv-x="518" 
d="M96 764q0 101 75 171q76 71 171 71q83 0 132 -51q50 -53 50 -128q0 -100 -75 -169q-76 -70 -173 -70q-81 0 -131 50q-49 49 -49 126zM-8 143q0 101 75 171q74 71 171 71q83 0 132 -51q50 -52 50 -127q0 -100 -76 -170t-172 -70q-81 0 -131 50q-49 49 -49 126z" />
    <glyph glyph-name="semicolon" unicode=";" horiz-adv-x="538" 
d="M360 1006q82 0 133 -51q50 -53 50 -128q0 -100 -76 -169q-76 -70 -172 -70q-81 0 -131 50q-49 49 -49 126q0 101 75 171q74 71 170 71zM254 381q88 0 137 -61t49 -181q0 -209 -135 -369q-135 -159 -334 -229l-94 189q208 85 291 235q-66 10 -107 58.5t-41 121.5
q0 113 70 176q70 61 164 60z" />
    <glyph glyph-name="less" unicode="&#x3c;" horiz-adv-x="917" 
d="M969 1196l-58 -373l-516 -161l463 -173l-59 -372l-789 352l49 317h2l13 76z" />
    <glyph glyph-name="equal" unicode="=" horiz-adv-x="1130" 
d="M195 1065h929l-53 -334h-930zM119 596h930l-54 -336h-929z" />
    <glyph glyph-name="greater" unicode="&#x3e;" horiz-adv-x="919" 
d="M967 862l-49 -317l-13 -76l-901 -352l59 372l519 173l-465 161l59 373z" />
    <glyph glyph-name="question" unicode="?" horiz-adv-x="1017" 
d="M1063 1083q0 -90 -26.5 -163.5t-76 -129t-121 -93.5t-161.5 -58l-33 -168h-342l45 348q156 0 230.5 47t74.5 129q0 61 -36.5 89t-96.5 26q-109 -1 -211 -76l-162 277q209 151 502 149q184 0 299 -96q115 -97 115 -281zM465 391q84 0 132 -55t48 -137q0 -96 -70 -163
t-174 -67q-43 0 -77 14.5t-57 40t-35.5 61t-12.5 77.5q0 95 71 163q71 66 175 66z" />
    <glyph glyph-name="at" unicode="@" horiz-adv-x="1859" 
d="M1421 940l-84 -491q-25 -150 49 -150q54 0 95 74q39 74 54 166t15 180q0 248 -127 365q-128 116 -331 116q-336 0 -552 -251q-216 -250 -216 -593q0 -224 119 -357q119 -132 364 -132q300 0 553 110l24 -231q-264 -119 -598 -119q-328 -4 -523 174t-195 502
q0 303 134 563t381 417q245 157 550 157q298 0 486 -173q187 -172 187 -530q0 -168 -53 -321q-53 -152 -170 -254q-116 -103 -272 -103q-100 0 -170 46t-99 124q-125 -131 -294 -131q-117 0 -189 75t-72 233q0 232 114 398q114 167 314 167q153 0 205 -115l31 84h270z
M895 373q95 0 141 84l25 151q-13 97 -103 99q-72 0 -112 -67q-41 -68 -41 -157q0 -110 90 -110z" />
    <glyph glyph-name="A" unicode="A" horiz-adv-x="1300" 
d="M784 0l-20 254h-344l-94 -254h-396l621 1427h467l186 -1427h-420zM541 575h198l-32 443z" />
    <glyph glyph-name="B" unicode="B" horiz-adv-x="1269" 
d="M1010 754q238 -45 237 -277q0 -130 -52 -224t-143 -148t-197.5 -79.5t-227.5 -25.5h-602l237 1427h645q373 0 373 -290q0 -66 -18.5 -125t-53.5 -108.5t-85 -87.5t-113 -62zM866 987q0 94 -118 94h-144l-39 -233h144q36 0 65 10.5t49.5 29.5t31.5 44t11 55zM678 356
q38 0 70 10t55 29t36 47t13 64q0 100 -127 100h-199l-41 -250h193z" />
    <glyph glyph-name="C" unicode="C" horiz-adv-x="1308" 
d="M680 -35q-126 0 -229.5 33t-191.5 105t-136.5 200t-48.5 305q0 155 52 301.5t153 273.5t270 203q168 76 385 76q316 0 485 -162l-237 -339q-104 119 -279 118q-184 0 -292 -129q-109 -128 -109 -315q0 -281 266 -281q220 0 371 148l94 -369q-89 -78 -244 -123
q-157 -45 -309 -45z" />
    <glyph glyph-name="D" unicode="D" horiz-adv-x="1398" 
d="M770 1427q299 0 467 -138t168 -423q0 -397 -237 -631q-238 -235 -613 -235h-530l237 1427h508zM551 367q183 0 304 118q122 117 122 336q0 131 -68.5 189.5t-208.5 58.5h-98l-115 -702h64z" />
    <glyph glyph-name="E" unicode="E" horiz-adv-x="1128" 
d="M1190 1069h-586l-26 -172h430l-54 -322h-432l-35 -213h586l-61 -362h-985l235 1427h985z" />
    <glyph glyph-name="F" unicode="F" horiz-adv-x="1087" 
d="M1169 1067h-565l-33 -195h416l-55 -329h-414l-90 -543h-401l235 1427h967z" />
    <glyph glyph-name="G" unicode="G" horiz-adv-x="1427" 
d="M705 532l53 316h641l-133 -797q-267 -86 -561 -86q-132 0 -239.5 31t-198.5 100t-142 196t-51 304q0 373 244 620q243 246 626 246q140 0 275 -44q133 -43 217 -126l-271 -309q-121 102 -264 102q-185 0 -292 -134t-107 -326q0 -272 262 -273q90 0 154 19l24 161h-237z
" />
    <glyph glyph-name="H" unicode="H" horiz-adv-x="1384" 
d="M1034 1427h400l-236 -1427h-399l90 547h-373l-90 -547h-401l237 1427h400l-87 -516h373z" />
    <glyph glyph-name="I" unicode="I" horiz-adv-x="612" 
d="M662 1427l-236 -1427h-401l237 1427h400z" />
    <glyph glyph-name="J" unicode="J" horiz-adv-x="962" 
d="M307 -35q-215 0 -362 111l135 344q79 -99 207 -101q157 0 188 199l148 909h401l-150 -915q-51 -298 -195 -423q-145 -124 -372 -124z" />
    <glyph glyph-name="K" unicode="K" horiz-adv-x="1300" 
d="M1442 1427l-477 -522l233 -905h-471l-115 520l-123 -135l-63 -385h-401l237 1427h400l-76 -456l393 456h463z" />
    <glyph glyph-name="L" unicode="L" horiz-adv-x="1015" 
d="M485 367h484l-60 -367h-884l237 1427h402z" />
    <glyph glyph-name="M" unicode="M" horiz-adv-x="1699" 
d="M1253 1427h478l-218 -1427h-385l117 705l-317 -592h-291l-131 632l-117 -745h-362l235 1427h479l148 -698z" />
    <glyph glyph-name="N" unicode="N" horiz-adv-x="1359" 
d="M1047 1427h364l-237 -1427h-375l-291 707l-117 -707h-366l237 1427h371l293 -720z" />
    <glyph glyph-name="O" unicode="O" horiz-adv-x="1558" 
d="M684 -35q-264 0 -439 154q-175 153 -175 454q0 376 243 632q242 257 631 259q263 -1 441 -154q176 -153 176 -462q0 -376 -238 -629q-239 -254 -639 -254zM745 354q169 0 279 137q109 136 109 316q0 130 -66.5 200t-183.5 70q-168 0 -275 -135q-108 -135 -108 -315
q0 -136 65 -204.5t180 -68.5z" />
    <glyph glyph-name="P" unicode="P" horiz-adv-x="1239" 
d="M860 1427q441 0 443 -434q0 -268 -173 -429q-175 -161 -468 -161h-170l-68 -403h-399l237 1427h598zM657 754q103 0 160 51t57 139q0 125 -139 125h-135l-51 -315h108z" />
    <glyph glyph-name="Q" unicode="Q" horiz-adv-x="1556" 
d="M684 -35q-264 0 -439 154q-175 153 -175 454q0 376 243 632q242 257 631 259q263 -1 441 -154q176 -153 176 -462q0 -376 -238 -629q-239 -254 -639 -254zM745 354q169 0 279 137q109 136 109 316q0 130 -66.5 200t-183.5 70q-168 0 -275 -135q-108 -135 -108 -315
q0 -136 65 -204.5t180 -68.5zM1249 -424l-798 8l51 316l798 -9z" />
    <glyph glyph-name="R" unicode="R" horiz-adv-x="1302" 
d="M1305 1042q0 -151 -79 -276q-79 -126 -220 -197l200 -569h-473l-139 502h-86l-84 -502h-401l239 1427h617q426 0 426 -385zM602 1067l-41 -248h137q82 0 129 38t47 108q0 102 -114 102h-158z" />
    <glyph glyph-name="S" unicode="S" horiz-adv-x="1107" 
d="M485 -35q-299 0 -499 158l159 375q60 -76 149.5 -118t188.5 -42q63 0 101.5 24t38.5 66q0 38 -29 61q-29 21 -100 50q-173 71 -262 170q-91 100 -91 270q0 216 138 349q137 134 393 134q283 0 502 -135l-228 -334q-124 101 -278 103q-111 0 -111 -74q0 -36 27 -59
q26 -22 102 -54q29 -13 52 -23.5t42 -18.5q35 -15 92 -57q55 -41 86 -84q32 -45 56 -114.5t24 -156.5q0 -223 -157 -356q-158 -134 -396 -134z" />
    <glyph glyph-name="T" unicode="T" horiz-adv-x="1062" 
d="M1202 1427l-59 -360h-312l-176 -1067h-401l176 1067h-311l61 360h1022z" />
    <glyph glyph-name="U" unicode="U" horiz-adv-x="1357" 
d="M604 -35q-289 0 -415 179q-126 178 -76 474l135 809h401l-143 -852q-39 -238 141 -237q195 0 234 242l141 847h399l-135 -825q-27 -159 -80.5 -278.5t-137.5 -199t-199 -119.5t-265 -40z" />
    <glyph glyph-name="V" unicode="V" horiz-adv-x="1396" 
d="M1098 1427h415l-686 -1427h-467l-163 1427h430l51 -753q3 -55 3.5 -117t-1.5 -133q31 81 56.5 146t45.5 114z" />
    <glyph glyph-name="W" unicode="W" horiz-adv-x="1964" 
d="M1673 1427h412l-547 -1427h-463l-33 485q-2 33 -3 84.5t-3 128.5q-1 38 -2 69t-2 54q-36 -113 -63.5 -190t-46.5 -119l-226 -512h-463l-38 1427h432l-43 -706q-2 -20 -4.5 -49t-5.5 -68q-4 -39 -6.5 -68t-4.5 -49q14 38 36.5 96t53.5 136l301 706h381l51 -667
q3 -70 4.5 -139.5t0.5 -141.5q49 149 75 248z" />
    <glyph glyph-name="X" unicode="X" horiz-adv-x="1318" 
d="M1419 1427l-448 -688l235 -739h-432l-129 492l-256 -492h-440l481 766l-227 661h434l111 -452l241 452h430z" />
    <glyph glyph-name="Y" unicode="Y" horiz-adv-x="1275" 
d="M1415 1427l-575 -962l-76 -465h-402l78 465l-264 962h434l92 -575l283 575h430z" />
    <glyph glyph-name="Z" unicode="Z" horiz-adv-x="1132" 
d="M1212 1427l-55 -333l-625 -738l547 2l-61 -358h-1038l57 336l598 731h-504l59 360h1022z" />
    <glyph glyph-name="bracketleft" unicode="[" horiz-adv-x="653" 
d="M731 1417h-156l-243 -1548h155l-45 -295h-538l334 2138h538z" />
    <glyph glyph-name="backslash" unicode="\" horiz-adv-x="1079" 
d="M926 -252h-381l-344 1935h381z" />
    <glyph glyph-name="bracketright" unicode="]" horiz-adv-x="653" 
d="M262 1712h539l-334 -2138h-539l45 295h156l244 1548h-156z" />
    <glyph glyph-name="asciicircum" unicode="^" horiz-adv-x="1173" 
d="M1157 684h-371l-79 490l-256 -490h-373l495 846h392z" />
    <glyph glyph-name="underscore" unicode="_" horiz-adv-x="1030" 
d="M-63 -297l40 262h900l-41 -262h-899z" />
    <glyph glyph-name="grave" unicode="`" horiz-adv-x="1228" 
d="M676 1128h-258l-205 461h375z" />
    <glyph glyph-name="a" unicode="a" horiz-adv-x="1140" 
d="M803 979h358l-160 -979h-364l2 82q-129 -117 -305 -117q-144 0 -229 97q-87 96 -87 280q0 322 151 497q150 175 378 175q144 0 229 -115zM408 453q0 -139 112 -140q101 0 162 84l33 193q-35 86 -119 86t-136 -64t-52 -159z" />
    <glyph glyph-name="b" unicode="b" horiz-adv-x="1159" 
d="M834 1014q137 0 223 -95q86 -97 86 -280q0 -319 -150 -496q-151 -178 -381 -178q-162 0 -243 119l-25 -84h-362l251 1530l383 2l-104 -639q127 121 322 121zM563 303q87 0 139 66q52 64 52 159q0 138 -119 140q-114 0 -178 -103l-29 -176q39 -86 135 -86z" />
    <glyph glyph-name="c" unicode="c" horiz-adv-x="864" 
d="M803 80q-142 -115 -393 -115q-173 0 -282 94q-110 93 -110 314q0 290 174 465q173 176 441 176q182 0 315 -117l-211 -270q-55 51 -135 51q-84 0 -140 -63q-56 -65 -56 -164q0 -69 32 -104.5t92 -35.5q123 0 203 74z" />
    <glyph glyph-name="d" unicode="d" horiz-adv-x="1140" 
d="M872 1530h383l-251 -1528l-355 -2l-6 82q-123 -117 -307 -117q-75 0 -135 25t-102 73.5t-64.5 120t-22.5 164.5q0 305 154 486q153 180 381 180q144 0 223 -99zM410 440q0 -135 112 -135q98 0 164 88l35 221q-35 68 -113 68q-90 0 -144 -68q-54 -67 -54 -174z" />
    <glyph glyph-name="e" unicode="e" horiz-adv-x="1003" 
d="M989 657q0 -106 -31 -233h-567q4 -75 43.5 -104t114.5 -29q167 0 285 69l84 -286q-185 -109 -451 -109q-205 0 -328 96q-123 95 -123 304q0 280 169 464q170 185 450 185q354 -1 354 -357zM569 729q-97 0 -147 -125h225v29q0 96 -78 96z" />
    <glyph glyph-name="f" unicode="f" horiz-adv-x="663" 
d="M698 1239q-86 0 -104 -109l-25 -151h140l-50 -317h-141l-182 -1117h-381l180 1117h-80l47 317h84l31 197q66 389 412 389q184 0 311 -88l-135 -277q-52 39 -107 39z" />
    <glyph glyph-name="g" unicode="g" horiz-adv-x="1153" 
d="M854 979h326l-160 -973q-51 -303 -210 -426t-413 -123q-144 0 -264 40t-194 108l129 321q141 -141 315 -141q217 0 256 231l10 54q-118 -103 -299 -105q-155 0 -243 103q-89 103 -89 292q0 309 152 482q151 172 377 172q176 0 266 -125zM522 313q108 0 185 95l28 174
q-37 94 -143 94q-86 0 -139 -66q-54 -67 -54 -159q0 -138 123 -138z" />
    <glyph glyph-name="h" unicode="h" horiz-adv-x="1091" 
d="M827 1014q133 0 198 -92q65 -93 38 -256l-109 -666h-383l93 549q18 125 -70 125q-80 0 -131 -94l-94 -580l-383 6l247 1524h383l-112 -692q110 176 323 176z" />
    <glyph glyph-name="i" unicode="i" horiz-adv-x="520" 
d="M201 1270q0 104 69 174q68 69 164 69q42 0 74 -13.5t54 -37t33 -55.5t11 -70q0 -103 -68 -171q-70 -68 -176 -68q-70 0 -115.5 43t-45.5 129zM532 979l-163 -979h-381l162 979h382z" />
    <glyph glyph-name="j" unicode="j" horiz-adv-x="530" 
d="M360 1098q-70 0 -115.5 43t-45.5 129q0 104 69 174q68 69 164 69q42 0 74.5 -13.5t54.5 -37t33.5 -55.5t11.5 -70q0 -103 -68 -171q-70 -68 -178 -68zM-176 -532l-49 319q182 5 213 184l164 1008h378l-161 -1016q-39 -245 -165 -360t-380 -135z" />
    <glyph glyph-name="k" unicode="k" horiz-adv-x="1073" 
d="M1141 979l-355 -367l183 -612h-414l-72 299l-86 -90l-35 -209h-380l251 1530h383l-143 -866l225 315h443z" />
    <glyph glyph-name="l" unicode="l" horiz-adv-x="512" 
d="M614 1530l-245 -1530h-381l245 1530h381z" />
    <glyph glyph-name="m" unicode="m" horiz-adv-x="1619" 
d="M1362 1012q291 0 231 -350l-108 -662h-383l92 555q16 115 -61 115q-63 0 -109 -76l-100 -594h-381l92 561q19 115 -57 115q-65 0 -115 -84l-101 -592h-378l161 979h357l-10 -145q113 180 327 180q88 0 148.5 -47t72.5 -146q119 191 322 191z" />
    <glyph glyph-name="n" unicode="n" horiz-adv-x="1085" 
d="M821 1014q133 0 198 -92q64 -92 38 -256l-109 -666h-383l92 549q18 125 -73 125q-72 0 -123 -84l-99 -590h-380l163 979h381l-22 -131q114 166 317 166z" />
    <glyph glyph-name="o" unicode="o" horiz-adv-x="1101" 
d="M463 -35q-204 0 -323 103q-120 102 -120 317q0 272 176 451q175 178 461 178q187 0 305 -103q119 -104 119 -317q0 -293 -176 -461q-175 -168 -442 -168zM502 313q80 -5 137 51q57 54 66 148q8 76 -21.5 116t-83.5 44q-82 4 -139 -51q-58 -55 -66 -146q-6 -78 23 -118
t84 -44z" />
    <glyph glyph-name="p" unicode="p" horiz-adv-x="1150" 
d="M825 1014q131 0 222 -96q90 -97 90 -279q0 -318 -155 -496q-154 -178 -386 -178q-149 0 -223 96l-94 -569h-383l245 1487h340v-111q125 146 344 146zM547 303q86 0 144 67q57 66 57 158q0 138 -119 140q-108 0 -170 -93l-33 -198q39 -74 121 -74z" />
    <glyph glyph-name="q" unicode="q" horiz-adv-x="1136" 
d="M831 979h330l-250 -1487h-383l97 576q-118 -101 -299 -103q-72 0 -129.5 24.5t-98 73.5t-62.5 122.5t-22 170.5q0 298 152 479q152 179 369 179q176 0 251 -123zM516 313q97 0 164 82l31 193q-27 88 -117 88q-84 0 -137 -66q-54 -67 -54 -161q0 -136 113 -136z" />
    <glyph glyph-name="r" unicode="r" horiz-adv-x="770" 
d="M737 1004q56 0 90 -15l-63 -346q-43 6 -76 6q-105 0 -160 -55q-57 -55 -94 -166l-72 -428h-380l163 979h371l-20 -180q96 205 241 205z" />
    <glyph glyph-name="s" unicode="s" horiz-adv-x="804" 
d="M399 293q0 33 -71 51q-273 66 -275 303q0 162 114 265q114 102 315 102t364 -84l-160 -262q-96 63 -215 63q-63 0 -63 -39q0 -35 86 -59q130 -38 198 -104q68 -68 68 -201q0 -158 -122 -260q-121 -103 -327 -103q-233 0 -366 88l123 275q113 -78 245 -78q86 0 86 43z" />
    <glyph glyph-name="t" unicode="t" horiz-adv-x="763" 
d="M522 662l-41 -250q-18 -111 60 -111q68 0 145 41l8 -307q-136 -70 -321 -70q-350 0 -281 402l49 295h-86l47 317h93l47 289h383l-50 -289h213l-49 -317h-217z" />
    <glyph glyph-name="u" unicode="u" horiz-adv-x="1071" 
d="M705 979h380l-159 -979h-383l18 115q-109 -150 -313 -150q-125 0 -189 94q-65 93 -39 258l111 662h383l-92 -553q-20 -119 65 -119q73 0 119 82z" />
    <glyph glyph-name="v" unicode="v" horiz-adv-x="1085" 
d="M752 979h409l-493 -979h-439l-143 979h387l45 -617z" />
    <glyph glyph-name="w" unicode="w" horiz-adv-x="1517" 
d="M1190 979h397l-465 -979h-344l-41 489l-200 -489h-369l-76 979h383l-22 -604l219 596h297l35 -574z" />
    <glyph glyph-name="x" unicode="x" horiz-adv-x="1058" 
d="M1124 979l-366 -487l209 -492h-408l-84 291l-135 -291h-406l357 535l-197 444h408l67 -266l146 266h409z" />
    <glyph glyph-name="y" unicode="y" horiz-adv-x="1110" 
d="M778 979h398l-801 -1487h-395l284 481l-180 1006h397l45 -559z" />
    <glyph glyph-name="z" unicode="z" horiz-adv-x="854" 
d="M885 979l-45 -283l-389 -401h348l-47 -295h-793l47 291l373 395h-326l51 293h781z" />
    <glyph glyph-name="braceleft" unicode="{" horiz-adv-x="706" 
d="M588 1739q162 0 272 -56l-59 -299q-12 4 -32 12.5t-31 12.5t-28.5 7t-37.5 3q-37 0 -62.5 -28t-25.5 -88q0 -25 2.5 -63t7.5 -91t7.5 -95.5t2.5 -74.5q0 -109 -60 -196q-61 -87 -159 -117q139 -51 139 -205q0 -94 -76 -271q-77 -181 -77 -233q0 -84 78 -88q68 0 129 18
l-72 -305q-86 -16 -209 -16q-146 1 -235 71q-89 71 -89 197q0 108 90 320q89 213 89 286q0 24 -4 41.5t-16 29t-33.5 16.5t-55.5 5l47 306q76 0 113 35.5t37 125.5q0 34 -3 82.5t-8 111.5q-12 126 -12 179q0 173 99 270q97 97 272 97z" />
    <glyph glyph-name="bar" unicode="|" horiz-adv-x="733" 
d="M754 1661l-316 -1890h-383l318 1890h381z" />
    <glyph glyph-name="braceright" unicode="}" horiz-adv-x="704" 
d="M608 864q0 -24 4 -41t16 -28t33.5 -16t55.5 -5l-47 -305q-76 0 -113 -36t-37 -126q0 -68 12 -193q5 -63 8 -108t3 -72q0 -173 -98 -271q-98 -97 -273 -97q-155 0 -272 55l61 301q12 -4 31.5 -12t30.5 -12t28 -7.5t37 -3.5q37 0 62.5 28.5t25.5 88.5q0 23 -2.5 61t-7.5 92
q-5 53 -7.5 95.5t-2.5 75.5q0 110 60 195t159 118q-139 51 -139 203q0 91 77 272q76 179 76 234q0 86 -78 86t-129 -19l72 305q45 8 96.5 12t112.5 5q146 0 235 -71q88 -70 88 -198q0 -104 -89 -317t-89 -289z" />
    <glyph glyph-name="asciitilde" unicode="~" horiz-adv-x="1056" 
d="M348 610q-47 0 -95 -19q-25 -10 -45 -19.5t-34 -17.5q-27 -16 -86 -56l49 352q137 102 260 102q74 0 200 -69q125 -70 191 -70q49 0 103 20q52 20 77 36q13 8 33 21.5t48 33.5l-52 -359q-106 -96 -254 -96q-95 0 -219 71q-122 70 -176 70z" />
    <glyph glyph-name="exclamdown" unicode="&#xa1;" horiz-adv-x="675" 
d="M618 901q0 -93 -69 -161q-71 -68 -164 -68q-82 0 -138 56q-57 56 -57 136q0 94 68 162t158 68q89 0 145 -55q57 -55 57 -138zM6 -367l193 965h342l-135 -965h-400z" />
    <glyph glyph-name="cent" unicode="&#xa2;" horiz-adv-x="948" 
d="M805 629l102 -293q-79 -71 -231 -100l-29 -236h-371l43 266q-106 51 -166.5 156t-60.5 250q0 224 104 385t285 219l43 254h346l-43 -242q127 -31 224 -121l-211 -274q-68 68 -162 68q-97 0 -154 -61t-57 -175q0 -162 158 -162q98 0 180 66z" />
    <glyph glyph-name="sterling" unicode="&#xa3;" horiz-adv-x="1146" 
d="M881 1094q-95 0 -157 -48q-62 -50 -101 -172h346l-49 -321h-351q-4 -55 -6.5 -103t-3.5 -90h490l-58 -360h-1048l57 360h152q2 66 4 114t4 79h-115l49 321h105q37 183 101 303.5t154 180.5q91 60 179 82t209 22q267 0 430 -125l-191 -323q-89 80 -200 80z" />
    <glyph glyph-name="currency" unicode="&#xa4;" horiz-adv-x="1245" 
d="M1182 1014q45 -96 45 -211q0 -244 -158 -408l84 -194l-322 -160l-83 188q-61 -12 -132 -12q-98 0 -172 27l-141 -174l-262 198l145 183q-51 98 -51 213q0 232 129 389l-117 207l297 161l103 -182q101 27 196 27q106 0 193 -33l139 174l262 -199zM496 711
q0 -81 42.5 -122.5t114.5 -41.5q94 0 155 67q60 66 60 162q0 37 -12 67.5t-33 52t-50 33t-64 11.5q-83 0 -148 -63q-65 -65 -65 -166z" />
    <glyph glyph-name="yen" unicode="&#xa5;" horiz-adv-x="1271" 
d="M1407 1427l-344 -505h168l-49 -322h-316l-12 -78h313l-49 -321h-315l-31 -201h-399l30 201h-313l51 321h314l10 78h-311l49 322h153l-180 505h436l105 -464l244 464h446z" />
    <glyph glyph-name="brokenbar" unicode="&#xa6;" horiz-adv-x="733" 
d="M754 1661l-148 -881h-383l150 881h381zM584 651l-146 -880h-383l148 880h381z" />
    <glyph glyph-name="section" unicode="&#xa7;" horiz-adv-x="1249" 
d="M811 944q179 -40 278 -112q97 -72 97 -211q0 -58 -19.5 -106.5t-55.5 -85.5t-87.5 -62t-114.5 -37q97 -91 99 -254q0 -188 -161 -307t-421 -119q-282 0 -494 121l187 307q146 -104 356 -105q143 0 143 74q0 31 -38 49q-39 16 -146 39q-96 21 -167 49.5t-117.5 68
t-69.5 91t-23 117.5q0 120 68.5 196t189.5 107q-96 90 -96 266q0 201 150 316q149 115 411 116q310 -5 496 -104l-199 -324q-156 99 -346 101q-125 0 -125 -76q0 -39 41 -63q39 -25 164 -52zM629 451q53 -10 86 -21q42 4 67 23.5t25 48.5q0 46 -52 74t-200 69q-8 2 -26.5 7
t-26.5 10q-68 -20 -68 -80q0 -92 195 -131z" />
    <glyph glyph-name="dieresis" unicode="&#xa8;" horiz-adv-x="1228" 
d="M223 1228q-49 58 -34 140q13 81 83 143q68 60 150 60q84 0 132 -59t34 -144q-13 -80 -82 -140q-68 -59 -152 -59q-81 0 -131 59zM690 1228q-49 58 -34 140q13 81 83 143q68 60 150 60q84 0 132 -59t34 -144q-13 -80 -82 -140q-68 -59 -152 -59q-81 0 -131 59z" />
    <glyph glyph-name="copyright" unicode="&#xa9;" horiz-adv-x="1832" 
d="M1096 1563q315 0 494 -182q179 -184 179 -468q0 -422 -260 -685t-682 -263q-323 0 -498 175q-177 176 -177 476q0 256 122 474t340 345q218 128 482 128zM1634 897q0 256 -158 405q-158 148 -399 148q-330 0 -560 -246q-230 -247 -230 -579q0 -259 149 -399t412 -140
q340 0 563 229q223 227 223 582zM1305 432q-161 -150 -404 -149q-173 0 -280 96t-107 280q0 263 162 435t420 172q205 0 317 -117l-227 -256q-52 47 -121 47q-84 0 -131 -60q-47 -62 -47 -147q0 -57 29.5 -89t84.5 -32q92 0 175 68z" />
    <glyph glyph-name="guillemotleft" unicode="&#xab;" horiz-adv-x="1171" 
d="M623 1077l-60 -387l-254 -129l211 -135l-57 -360l-440 337l55 355zM1186 1077l-58 -387l-254 -129l209 -135l-57 -360l-438 337l53 355z" />
    <glyph glyph-name="logicalnot" unicode="&#xac;" horiz-adv-x="1093" 
d="M1059 909l-90 -567h-334l37 231h-613l54 336h946z" />
    <glyph glyph-name="registered" unicode="&#xae;" horiz-adv-x="1126" 
d="M748 1587q199 0 310 -113q111 -114 111 -292q0 -252 -162 -423q-163 -171 -427 -171q-196 0 -308 109q-114 108 -114 288q0 255 169 428q170 174 421 174zM596 682q207 0 338 143t131 346q0 154 -92 240t-242 86q-202 0 -336 -147q-133 -148 -133 -353q0 -153 87.5 -234
t246.5 -81zM909 1219q0 -121 -102 -175l65 -198h-182l-43 168h-35l-28 -168h-166l88 528h221q93 0 137.5 -35t44.5 -120zM647 1223l-16 -99h24q78 0 78 60q0 39 -45 39h-41z" />
    <glyph glyph-name="macron" unicode="&#xaf;" horiz-adv-x="1228" 
d="M195 1516h733l-54 -318h-733z" />
    <glyph glyph-name="degree" unicode="&#xb0;" horiz-adv-x="749" 
d="M424 786q-72 0 -128.5 20t-94.5 58t-58 92t-20 121q0 174 113 290t305 116q72 0 128.5 -21.5t94.5 -61t58 -95.5t20 -125q0 -176 -115 -285t-303 -109zM463 999q66 0 109 46q42 45 42 114q0 115 -106 115q-65 0 -112 -47q-46 -46 -46 -113q0 -115 113 -115z" />
    <glyph glyph-name="plusminus" unicode="&#xb1;" horiz-adv-x="1132" 
d="M823 1024h291l-53 -336h-291l-35 -227h-344l35 227h-291l53 336h291l35 229h344zM33 41l51 336h928l-51 -336h-928z" />
    <glyph glyph-name="acute" unicode="&#xb4;" horiz-adv-x="1228" 
d="M840 1589l-359 -461h-258l242 461h375z" />
    <glyph glyph-name="paragraph" unicode="&#xb6;" horiz-adv-x="1081" 
d="M733 1427h404l-219 -1306q-45 -257 -209 -379q-163 -121 -375 -121q-146 0 -263 55q-116 55 -175 127l172 310q111 -137 229 -138q192 0 233 230l39 239h-2q-540 0 -454 500q80 483 620 483z" />
    <glyph glyph-name="periodcentered" unicode="&#xb7;" horiz-adv-x="518" 
d="M78 668q0 102 75 172q74 69 171 69q83 0 132 -51q50 -52 50 -127q0 -100 -76 -169q-76 -70 -172 -70q-81 0 -131 50q-49 49 -49 126z" />
    <glyph glyph-name="cedilla" unicode="&#xb8;" horiz-adv-x="1228" 
d="M428 -129q174 0 174 -180q0 -142 -101 -222q-101 -79 -253 -79q-181 0 -291 71l100 191q80 -53 183 -53q98 0 98 75q0 39 -39 39q-37 0 -66 -32l-159 55l153 293h226l-107 -168q20 5 41 7.5t41 2.5z" />
    <glyph glyph-name="guillemotright" unicode="&#xbb;" horiz-adv-x="1171" 
d="M172 1077l446 -319l-55 -352l-551 -340l64 387l264 141l-221 129zM735 1077l445 -319l-56 -352l-551 -340l66 387l264 141l-221 129z" />
    <glyph glyph-name="questiondown" unicode="&#xbf;" horiz-adv-x="1017" 
d="M555 604q-84 0 -132 56t-48 137q0 95 71 163q71 66 172 66q43 0 77 -14t57.5 -39.5t36 -61t12.5 -77.5q0 -95 -71 -163q-70 -67 -175 -67zM711 -39l161 -276q-208 -150 -501 -150q-183 0 -299 96q-115 97 -115 281q0 90 26.5 163.5t76 129t121 94t161.5 57.5l33 168h342
l-45 -348q-156 0 -230.5 -47t-74.5 -129q0 -61 36.5 -89t96.5 -26q109 1 211 76z" />
    <glyph glyph-name="Agrave" unicode="&#xc0;" horiz-adv-x="1300" 
d="M944 1577h-260l-207 461h373zM784 0l-20 254h-344l-94 -254h-396l621 1427h467l186 -1427h-420zM541 575h198l-32 443z" />
    <glyph glyph-name="Aacute" unicode="&#xc1;" horiz-adv-x="1300" 
d="M1401 2005l-461 -428h-297l348 428h410zM551 1427h467l186 -1427h-420l-20 254h-344l-94 -254h-396zM541 575h198l-32 443z" />
    <glyph glyph-name="Acircumflex" unicode="&#xc2;" horiz-adv-x="1300" 
d="M893 1774l-168 -199h-260l321 463h301l166 -463h-258zM551 1427h467l186 -1427h-420l-20 254h-344l-94 -254h-396zM541 575h198l-32 443z" />
    <glyph glyph-name="Atilde" unicode="&#xc3;" horiz-adv-x="1300" 
d="M733 1663q-55 0 -76 -139h-278q51 438 299 438q45 2 84.5 -21t72.5 -50.5t59.5 -50.5t45.5 -21q57 0 78 137h278q-51 -438 -307 -438q-54 0 -104 36q-49 35 -87 72q-37 37 -65 37zM551 1427h467l186 -1427h-420l-20 254h-344l-94 -254h-396zM541 575h198l-32 443z" />
    <glyph glyph-name="Adieresis" unicode="&#xc4;" horiz-adv-x="1300" 
d="M582 1583q-83 0 -133 60q-50 59 -35 141q13 81 83 142q68 59 150 59q84 0 133 -58t35 -143q-17 -84 -83 -142q-68 -59 -150 -59zM1108 1985q84 0 132 -58t34 -143q-13 -82 -82 -142q-68 -59 -152 -59q-81 0 -131 60q-49 58 -34 141q13 81 83 142q68 59 150 59zM551 1427
h467l186 -1427h-420l-20 254h-344l-94 -254h-396zM541 575h198l-32 443z" />
    <glyph glyph-name="Aring" unicode="&#xc5;" horiz-adv-x="1300" 
d="M1043 1636q-92 -77 -232 -77q-141 0 -206 75q-66 74 -44 203q12 66 40.5 118t72.5 89t102.5 56.5t128.5 19.5q139 0 206 -78q67 -77 46 -205q-22 -124 -114 -201zM808 1906q-28 -25 -36 -69q-7 -43 12 -66q20 -24 58 -24q39 0 67.5 23.5t34.5 66.5q8 43 -11.5 68.5
t-57.5 25.5q-39 0 -67 -25zM784 0l-20 254h-344l-94 -254h-396l621 1427h467l186 -1427h-420zM541 575h198l-32 443z" />
    <glyph glyph-name="AE" unicode="&#xc6;" horiz-adv-x="1900" 
d="M1958 1069h-567l-25 -178h412l-54 -322h-401l-29 -207h551l-61 -362h-942l35 254h-398l-141 -254h-418l813 1427h1284zM655 575h265l67 494h-57z" />
    <glyph glyph-name="Ccedilla" unicode="&#xc7;" horiz-adv-x="1308" 
d="M1233 133q-85 -76 -240 -121q-156 -46 -307 -47l-68 -104q20 5 41 7.5t41 2.5q174 0 174 -180q0 -142 -101 -222q-100 -79 -253 -79q-184 0 -291 71l101 191q80 -53 182 -53q98 0 98 75q0 39 -39 39q-36 0 -65 -32l-160 55l133 254q-406 107 -405 618q0 155 52 301.5
t153 273.5t270 203q168 76 385 76q316 0 485 -162l-237 -339q-104 119 -279 118q-184 0 -292 -129q-109 -128 -109 -315q0 -281 266 -281q220 0 371 148z" />
    <glyph glyph-name="Egrave" unicode="&#xc8;" horiz-adv-x="1128" 
d="M883 1577h-260l-207 461h372zM1190 1069h-586l-26 -172h430l-54 -322h-432l-35 -213h586l-61 -362h-985l235 1427h985z" />
    <glyph glyph-name="Eacute" unicode="&#xc9;" horiz-adv-x="1128" 
d="M1339 2005l-460 -428h-297l348 428h409zM27 0l235 1427h985l-57 -358h-586l-26 -172h430l-54 -322h-432l-35 -213h586l-61 -362h-985z" />
    <glyph glyph-name="Ecircumflex" unicode="&#xca;" horiz-adv-x="1128" 
d="M831 1774l-167 -199h-261l322 463h301l166 -463h-258zM1190 1069h-586l-26 -172h430l-54 -322h-432l-35 -213h586l-61 -362h-985l235 1427h985z" />
    <glyph glyph-name="Edieresis" unicode="&#xcb;" horiz-adv-x="1128" 
d="M520 1583q-83 0 -133 60q-49 58 -34 141q13 81 83 142q68 59 150 59q84 0 133 -58t35 -143q-16 -83 -84 -142t-150 -59zM979 1583q-81 0 -131 60q-49 58 -35 141q13 81 83 142q70 59 151 59q84 0 132 -58t34 -143q-15 -84 -82 -142q-68 -59 -152 -59zM1190 1069h-586
l-26 -172h430l-54 -322h-432l-35 -213h586l-61 -362h-985l235 1427h985z" />
    <glyph glyph-name="Igrave" unicode="&#xcc;" horiz-adv-x="612" 
d="M356 1577l-206 461h372l94 -461h-260zM662 1427l-236 -1427h-401l237 1427h400z" />
    <glyph glyph-name="Iacute" unicode="&#xcd;" horiz-adv-x="612" 
d="M1073 2005l-461 -428h-297l349 428h409zM662 1427l-236 -1427h-401l237 1427h400z" />
    <glyph glyph-name="Icircumflex" unicode="&#xce;" horiz-adv-x="612" 
d="M760 2038l166 -463h-258l-103 199l-168 -199h-260l322 463h301zM25 0l237 1427h400l-236 -1427h-401z" />
    <glyph glyph-name="Idieresis" unicode="&#xcf;" horiz-adv-x="612" 
d="M254 1583q-83 0 -133 60q-49 58 -35 141q13 81 83 142q70 59 150 59q85 0 134 -58t34 -143q-17 -84 -83 -142q-68 -59 -150 -59zM713 1583q-81 0 -131 60q-50 59 -35 141q13 81 83 142q68 59 150 59q84 0 133 -58q48 -58 34 -143q-15 -84 -82 -142q-68 -59 -152 -59z
M662 1427l-236 -1427h-401l237 1427h400z" />
    <glyph glyph-name="Eth" unicode="&#xd0;" horiz-adv-x="1398" 
d="M770 1427q299 0 467 -138t168 -423q0 -397 -237 -631q-238 -235 -613 -235h-530l96 578h-78l55 325h76l88 524h508zM551 367q183 0 304 118q122 117 122 336q0 131 -68.5 189.5t-208.5 58.5h-98l-27 -166h209l-55 -325h-207l-35 -211h64z" />
    <glyph glyph-name="Ntilde" unicode="&#xd1;" horiz-adv-x="1359" 
d="M780 1663q-56 0 -75 -139h-279q51 438 299 438q45 2 84 -21t72.5 -50.5t60 -50.5t45.5 -21q57 0 78 137h278q-51 -438 -307 -438q-54 0 -104 36q-49 35 -87 72q-37 37 -65 37zM1047 1427h364l-237 -1427h-375l-291 707l-117 -707h-366l237 1427h371l293 -720z" />
    <glyph glyph-name="Ograve" unicode="&#xd2;" horiz-adv-x="1558" 
d="M829 1577l-206 461h372l95 -461h-261zM684 -35q-264 0 -439 154q-175 153 -175 454q0 376 243 632q242 257 631 259q263 -1 441 -154q176 -153 176 -462q0 -376 -238 -629q-239 -254 -639 -254zM745 354q169 0 279 137q109 136 109 316q0 130 -66.5 200t-183.5 70
q-168 0 -275 -135q-108 -135 -108 -315q0 -136 65 -204.5t180 -68.5z" />
    <glyph glyph-name="Oacute" unicode="&#xd3;" horiz-adv-x="1558" 
d="M1546 2005l-461 -428h-297l349 428h409zM684 -35q-264 0 -439 154q-175 153 -175 454q0 376 243 632q242 257 631 259q263 -1 441 -154q176 -153 176 -462q0 -376 -238 -629q-239 -254 -639 -254zM745 354q169 0 279 137q109 136 109 316q0 130 -66.5 200t-183.5 70
q-168 0 -275 -135q-108 -135 -108 -315q0 -136 65 -204.5t180 -68.5z" />
    <glyph glyph-name="Ocircumflex" unicode="&#xd4;" horiz-adv-x="1558" 
d="M1038 1774l-168 -199h-260l322 463h301l166 -463h-258zM944 1464q263 -1 441 -154q176 -153 176 -462q0 -376 -238 -629q-239 -254 -639 -254q-264 0 -439 154q-175 153 -175 454q0 376 243 632q242 257 631 259zM745 354q169 0 279 137q109 136 109 316q0 130 -66.5 200
t-183.5 70q-168 0 -275 -135q-108 -135 -108 -315q0 -136 65 -204.5t180 -68.5z" />
    <glyph glyph-name="Otilde" unicode="&#xd5;" horiz-adv-x="1558" 
d="M879 1663q-55 0 -76 -139h-279q51 438 299 438q45 2 84 -21t72.5 -50.5t60 -50.5t45.5 -21q57 0 78 137h279q-51 -438 -307 -438q-54 0 -104 36q-49 35 -87 72q-37 37 -65 37zM684 -35q-264 0 -439 154q-175 153 -175 454q0 376 243 632q242 257 631 259q263 -1 441 -154
q176 -153 176 -462q0 -376 -238 -629q-239 -254 -639 -254zM745 354q169 0 279 137q109 136 109 316q0 130 -66.5 200t-183.5 70q-168 0 -275 -135q-108 -135 -108 -315q0 -136 65 -204.5t180 -68.5z" />
    <glyph glyph-name="Odieresis" unicode="&#xd6;" horiz-adv-x="1558" 
d="M727 1583q-83 0 -133 60q-49 58 -35 141q13 81 83 142q70 59 151 59q84 0 133 -58t35 -143q-16 -83 -84 -142t-150 -59zM1186 1583q-81 0 -131 60q-49 58 -35 141q13 81 83 142q68 59 150 59q84 0 133 -58q48 -58 34 -143q-15 -84 -82 -142q-68 -59 -152 -59zM684 -35
q-264 0 -439 154q-175 153 -175 454q0 376 243 632q242 257 631 259q263 -1 441 -154q176 -153 176 -462q0 -376 -238 -629q-239 -254 -639 -254zM745 354q169 0 279 137q109 136 109 316q0 130 -66.5 200t-183.5 70q-168 0 -275 -135q-108 -135 -108 -315q0 -136 65 -204.5
t180 -68.5z" />
    <glyph glyph-name="multiply" unicode="&#xd7;" horiz-adv-x="1118" 
d="M1112 965l-299 -279l211 -276l-272 -220l-197 256l-276 -256l-207 220l299 278l-211 277l274 219l197 -256l276 256z" />
    <glyph glyph-name="Oslash" unicode="&#xd8;" horiz-adv-x="1558" 
d="M1587 1319l-112 -119q86 -146 86 -352q0 -376 -238 -629q-239 -254 -639 -254q-178 0 -317 70l-101 -107l-225 176l115 121q-86 146 -86 348q0 376 243 632q242 257 631 259q181 0 320 -71l86 90zM500 627q0 -13 0.5 -22t1.5 -15l454 479q-34 8 -73 8q-168 0 -275 -135
q-108 -135 -108 -315zM1133 807q0 23 -3 33l-452 -480q32 -6 67 -6q169 0 279 137q109 136 109 316z" />
    <glyph glyph-name="Ugrave" unicode="&#xd9;" horiz-adv-x="1357" 
d="M731 1577l-207 461h373l94 -461h-260zM604 -35q-289 0 -415 179q-126 178 -76 474l135 809h401l-143 -852q-39 -238 141 -237q195 0 234 242l141 847h399l-135 -825q-27 -159 -80.5 -278.5t-137.5 -199t-199 -119.5t-265 -40z" />
    <glyph glyph-name="Uacute" unicode="&#xda;" horiz-adv-x="1357" 
d="M1448 2005l-461 -428h-297l348 428h410zM604 -35q-289 0 -415 179q-126 178 -76 474l135 809h401l-143 -852q-39 -238 141 -237q195 0 234 242l141 847h399l-135 -825q-27 -159 -80.5 -278.5t-137.5 -199t-199 -119.5t-265 -40z" />
    <glyph glyph-name="Ucircumflex" unicode="&#xdb;" horiz-adv-x="1357" 
d="M940 1774l-168 -199h-260l322 463h301l165 -463h-258zM1022 1427h399l-135 -825q-27 -159 -80.5 -278.5t-137.5 -199t-199 -119.5t-265 -40q-289 0 -415 179q-126 178 -76 474l135 809h401l-143 -852q-39 -238 141 -237q195 0 234 242z" />
    <glyph glyph-name="Udieresis" unicode="&#xdc;" horiz-adv-x="1357" 
d="M629 1583q-83 0 -133 60q-50 59 -35 141q13 81 83 142q68 59 150 59q85 0 134 -58t34 -143q-17 -84 -83 -142q-68 -59 -150 -59zM1087 1583q-81 0 -131 60q-49 58 -34 141q13 81 83 142q68 59 150 59q84 0 132 -58t34 -143q-13 -82 -82 -142q-68 -59 -152 -59zM604 -35
q-289 0 -415 179q-126 178 -76 474l135 809h401l-143 -852q-39 -238 141 -237q195 0 234 242l141 847h399l-135 -825q-27 -159 -80.5 -278.5t-137.5 -199t-199 -119.5t-265 -40z" />
    <glyph glyph-name="Yacute" unicode="&#xdd;" horiz-adv-x="1275" 
d="M1407 2005l-461 -428h-297l348 428h410zM1415 1427l-575 -962l-76 -465h-402l78 465l-264 962h434l92 -575l283 575h430z" />
    <glyph glyph-name="Thorn" unicode="&#xde;" horiz-adv-x="1236" 
d="M821 1233q213 0 328 -98.5t115 -296.5q0 -256 -163 -415t-464 -159h-168l-45 -264h-399l237 1427h402l-33 -194h190zM653 616q44 0 78 12t57.5 33.5t35.5 50.5t12 62q0 100 -121 100h-144l-43 -258h125z" />
    <glyph glyph-name="germandbls" unicode="&#xdf;" horiz-adv-x="1120" 
d="M864 735q54 -15 96 -46t70 -74t42.5 -96t14.5 -113q0 -200 -113 -318q-114 -117 -300 -117q-145 0 -250 49l53 283q49 -25 109 -24q141 0 141 180q0 147 -149 147h-31l37 242h28q81 0 118 79q38 81 38 181q0 131 -92 131q-30 0 -54 -14.5t-42.5 -46.5t-33 -82.5
t-26.5 -122.5l-233 -1430h-379l229 1424q52 328 189 463q135 135 391 135q164 0 282 -94q117 -94 117 -300q0 -169 -70 -281q-71 -114 -182 -155z" />
    <glyph glyph-name="agrave" unicode="&#xe0;" horiz-adv-x="1140" 
d="M860 1128h-258l-205 461h375zM803 979h358l-160 -979h-364l2 82q-129 -117 -305 -117q-144 0 -229 97q-87 96 -87 280q0 322 151 497q150 175 378 175q144 0 229 -115zM408 453q0 -139 112 -140q101 0 162 84l33 193q-35 86 -119 86t-136 -64t-52 -159z" />
    <glyph glyph-name="aacute" unicode="&#xe1;" horiz-adv-x="1140" 
d="M1217 1589l-359 -461h-258l242 461h375zM776 899l27 80h358l-160 -979h-364l2 82q-129 -117 -305 -117q-144 0 -229 97q-87 96 -87 280q0 322 151 497q150 175 378 175q144 0 229 -115zM408 453q0 -139 112 -140q101 0 162 84l33 193q-35 86 -119 86t-136 -64t-52 -159z
" />
    <glyph glyph-name="acircumflex" unicode="&#xe2;" horiz-adv-x="1140" 
d="M768 1325l-168 -197h-260l322 463h301l165 -463h-260zM803 979h358l-160 -979h-364l2 82q-129 -117 -305 -117q-144 0 -229 97q-87 96 -87 280q0 322 151 497q150 175 378 175q144 0 229 -115zM408 453q0 -139 112 -140q101 0 162 84l33 193q-35 86 -119 86t-136 -64
t-52 -159z" />
    <glyph glyph-name="atilde" unicode="&#xe3;" horiz-adv-x="1140" 
d="M614 1270q-25 0 -37 -32t-22 -105h-279q51 436 299 436q88 0 173 -88q54 -54 81 -56q29 0 43.5 31t26.5 109h277q-51 -437 -299 -439q-97 0 -185 88q-4 4 -13 13.5t-12 12.5t-10.5 10t-11.5 10q-7 4 -14 7t-17 3zM776 899l27 80h358l-160 -979h-364l2 82
q-129 -117 -305 -117q-144 0 -229 97q-87 96 -87 280q0 322 151 497q150 175 378 175q144 0 229 -115zM408 453q0 -139 112 -140q101 0 162 84l33 193q-35 86 -119 86t-136 -64t-52 -159z" />
    <glyph glyph-name="adieresis" unicode="&#xe4;" horiz-adv-x="1140" 
d="M504 1169q-81 0 -131 59q-49 57 -35 140q13 81 83 143q68 60 150 60q83 0 133 -59q48 -60 33 -144q-13 -81 -81 -140t-152 -59zM1038 1571q83 0 133 -59q48 -60 33 -144q-13 -81 -81 -140t-152 -59q-81 0 -131 59q-49 57 -35 140q13 81 83 143q68 60 150 60zM776 899
l27 80h358l-160 -979h-364l2 82q-129 -117 -305 -117q-144 0 -229 97q-87 96 -87 280q0 322 151 497q150 175 378 175q144 0 229 -115zM408 453q0 -139 112 -140q101 0 162 84l33 193q-35 86 -119 86t-136 -64t-52 -159z" />
    <glyph glyph-name="aring" unicode="&#xe5;" horiz-adv-x="1140" 
d="M805 1145q-60 0 -107.5 16t-80.5 45.5t-50.5 71t-17.5 92.5q0 143 100 240q99 96 250 96q121 0 188 -64q66 -64 66 -165q0 -137 -97 -234q-98 -98 -251 -98zM870 1536q-50 0 -88 -39q-37 -38 -37 -98q0 -82 80 -82q29 0 53 9.5t42 27t28 42t10 54.5q0 42 -23 64t-65 22z
M803 979h358l-160 -979h-364l2 82q-129 -117 -305 -117q-144 0 -229 97q-87 96 -87 280q0 322 151 497q150 175 378 175q144 0 229 -115zM408 453q0 -139 112 -140q101 0 162 84l33 193q-35 86 -119 86t-136 -64t-52 -159z" />
    <glyph glyph-name="ae" unicode="&#xe6;" horiz-adv-x="1564" 
d="M1208 1014q156 0 248 -89t92 -268q0 -25 -2.5 -56t-7.5 -69l-16 -102h-570q2 -72 40.5 -103.5t123.5 -31.5q146 0 295 61l72 -274q-196 -117 -432 -117q-273 0 -344 168q-71 -81 -184 -125q-111 -43 -230 -43q-72 0 -129 15.5t-97 46.5t-61.5 78t-21.5 110q0 165 102 262
q103 98 272 98q141 0 232 -49l2 9q5 43 2 73t-17.5 48.5t-41 27t-68.5 8.5q-136 0 -254 -61l-82 266q203 117 453 117q229 0 297 -125q128 125 327 125zM1114 725q-98 0 -139 -143h225v32q0 111 -86 111zM346 281q0 -70 80 -70t125 63l10 60q-39 51 -106 51q-49 0 -79 -28
t-30 -76z" />
    <glyph glyph-name="ccedilla" unicode="&#xe7;" horiz-adv-x="864" 
d="M803 80q-100 -79 -246 -105l-74 -114q20 5 41 7.5t41 2.5q174 0 174 -180q0 -142 -101 -222q-100 -79 -253 -79q-181 0 -291 71l101 191q80 -53 182 -53q98 0 98 75q0 39 -39 39q-36 0 -65 -32l-160 55l123 233q-314 40 -316 404q0 290 174 465q173 176 441 176
q182 0 315 -117l-211 -270q-55 51 -135 51q-84 0 -140 -63q-56 -65 -56 -164q0 -69 32 -104.5t92 -35.5q123 0 203 74z" />
    <glyph glyph-name="egrave" unicode="&#xe8;" horiz-adv-x="1003" 
d="M748 1128h-259l-204 461h374zM989 657q0 -106 -31 -233h-567q4 -75 43.5 -104t114.5 -29q167 0 285 69l84 -286q-185 -109 -451 -109q-205 0 -328 96q-123 95 -123 304q0 280 169 464q170 185 450 185q354 -1 354 -357zM569 729q-97 0 -147 -125h225v29q0 96 -78 96z" />
    <glyph glyph-name="eacute" unicode="&#xe9;" horiz-adv-x="1003" 
d="M1104 1589l-359 -461h-258l242 461h375zM635 1014q354 0 354 -357q0 -106 -31 -233h-567q4 -75 43.5 -104t114.5 -29q167 0 285 69l84 -286q-185 -109 -451 -109q-205 0 -328 96q-123 95 -123 304q0 280 169 464q170 185 450 185zM569 729q-97 0 -147 -125h225v29
q0 96 -78 96z" />
    <glyph glyph-name="ecircumflex" unicode="&#xea;" horiz-adv-x="1003" 
d="M655 1325l-168 -197h-260l322 463h301l166 -463h-260zM635 1014q354 0 354 -357q0 -106 -31 -233h-567q4 -75 43.5 -104t114.5 -29q167 0 285 69l84 -286q-185 -109 -451 -109q-205 0 -328 96q-123 95 -123 304q0 280 169 464q170 185 450 185zM569 729q-97 0 -147 -125
h225v29q0 96 -78 96z" />
    <glyph glyph-name="edieresis" unicode="&#xeb;" horiz-adv-x="1003" 
d="M391 1169q-81 0 -131 59q-49 58 -34 140q13 81 83 143q68 60 150 60q84 0 132 -59t34 -144q-13 -80 -82 -140q-68 -59 -152 -59zM926 1571q84 0 132 -59t34 -144q-13 -80 -82 -140q-68 -59 -152 -59q-81 0 -131 59q-49 58 -34 140q13 81 83 143q68 60 150 60zM635 1014
q354 0 354 -357q0 -106 -31 -233h-567q4 -75 43.5 -104t114.5 -29q167 0 285 69l84 -286q-185 -109 -451 -109q-205 0 -328 96q-123 95 -123 304q0 280 169 464q170 185 450 185zM569 729q-97 0 -147 -125h225v29q0 96 -78 96z" />
    <glyph glyph-name="igrave" unicode="&#xec;" horiz-adv-x="520" 
d="M498 1128h-258l-205 461h375zM532 979l-163 -979h-379l162 979h380z" />
    <glyph glyph-name="iacute" unicode="&#xed;" horiz-adv-x="520" 
d="M854 1589l-358 -461h-258l241 461h375zM532 979l-163 -979h-379l162 979h380z" />
    <glyph glyph-name="icircumflex" unicode="&#xee;" horiz-adv-x="520" 
d="M406 1325l-168 -197h-261l322 463h301l166 -463h-260zM-10 0l162 979h380l-163 -979h-379z" />
    <glyph glyph-name="idieresis" unicode="&#xef;" horiz-adv-x="520" 
d="M10 1228q-49 57 -35 140q15 81 84 143q68 60 150 60q84 0 132 -59t34 -144q-13 -80 -82 -140q-68 -59 -152 -59q-81 0 -131 59zM477 1228q-49 58 -34 140q13 81 83 143q68 60 150 60q84 0 132 -59t34 -144q-13 -80 -82 -140q-68 -59 -152 -59q-81 0 -131 59zM532 979
l-163 -979h-379l162 979h380z" />
    <glyph glyph-name="eth" unicode="&#xf0;" horiz-adv-x="1130" 
d="M1130 1245l-120 -69q100 -184 100 -418q0 -368 -166 -580q-166 -213 -459 -213q-214 0 -335 113q-121 112 -121 303q0 218 123 345q122 128 331 128q163 0 258 -113v37q0 128 -32 221l-179 -104l-124 244l120 69q-102 50 -268 58l76 299q290 -5 500 -176l172 100z
M522 305q127 0 187 197q-49 78 -150 78q-34 0 -61.5 -12t-47 -32.5t-30 -48t-10.5 -59.5q0 -55 29 -89t83 -34z" />
    <glyph glyph-name="ntilde" unicode="&#xf1;" horiz-adv-x="1085" 
d="M532 1270q-25 0 -37 -32t-22 -105h-278q51 436 299 436q88 0 172 -88q54 -54 82 -56q29 0 43 31t26 109h277q-51 -437 -299 -439q-97 0 -185 88q-4 4 -13 13.5t-12 12.5t-10.5 10t-11.5 10q-7 4 -14 7t-17 3zM821 1014q133 0 198 -92q64 -92 38 -256l-109 -666h-383
l92 549q18 125 -73 125q-72 0 -123 -84l-99 -590h-380l163 979h381l-22 -131q114 166 317 166z" />
    <glyph glyph-name="ograve" unicode="&#xf2;" horiz-adv-x="1101" 
d="M817 1128h-258l-205 461h375zM463 -35q-204 0 -323 103q-120 102 -120 317q0 272 176 451q175 178 461 178q187 0 305 -103q119 -104 119 -317q0 -293 -176 -461q-175 -168 -442 -168zM502 313q80 -5 137 51q57 54 66 148q8 76 -21.5 116t-83.5 44q-82 4 -139 -51
q-58 -55 -66 -146q-6 -78 23 -118t84 -44z" />
    <glyph glyph-name="oacute" unicode="&#xf3;" horiz-adv-x="1101" 
d="M1174 1589l-359 -461h-258l242 461h375zM463 -35q-204 0 -323 103q-120 102 -120 317q0 272 176 451q175 178 461 178q187 0 305 -103q119 -104 119 -317q0 -293 -176 -461q-175 -168 -442 -168zM502 313q80 -5 137 51q57 54 66 148q8 76 -21.5 116t-83.5 44
q-82 4 -139 -51q-58 -55 -66 -146q-6 -78 23 -118t84 -44z" />
    <glyph glyph-name="ocircumflex" unicode="&#xf4;" horiz-adv-x="1101" 
d="M725 1325l-168 -197h-260l321 463h302l165 -463h-260zM657 1014q187 0 305 -103q119 -104 119 -317q0 -293 -176 -461q-175 -168 -442 -168q-204 0 -323 103q-120 102 -120 317q0 273 175 451t462 178zM705 512q8 76 -21.5 116t-83.5 44q-82 4 -139 -51q-58 -55 -66 -146
q-6 -78 22 -118t85 -44q80 -4 138 51t65 148z" />
    <glyph glyph-name="otilde" unicode="&#xf5;" horiz-adv-x="1101" 
d="M571 1270q-25 0 -37 -32t-22 -105h-279q51 436 299 436q88 0 173 -88q54 -54 81 -56q29 0 43.5 31t26.5 109h277q-51 -437 -299 -439q-97 0 -185 88q-4 4 -13 13.5t-12 12.5t-10.5 10t-11.5 10q-7 4 -14 7t-17 3zM463 -35q-204 0 -323 103q-120 102 -120 317
q0 272 176 451q175 178 461 178q187 0 305 -103q119 -104 119 -317q0 -293 -176 -461q-175 -168 -442 -168zM502 313q80 -5 137 51q57 54 66 148q8 76 -21.5 116t-83.5 44q-82 4 -139 -51q-58 -55 -66 -146q-6 -78 23 -118t84 -44z" />
    <glyph glyph-name="odieresis" unicode="&#xf6;" horiz-adv-x="1101" 
d="M330 1228q-49 57 -35 140q13 81 83 143q68 60 150 60q83 0 133 -59q48 -60 33 -144q-13 -81 -81 -140t-152 -59q-81 0 -131 59zM797 1228q-49 57 -35 140q13 81 83 143q68 60 150 60q83 0 133 -59q48 -60 33 -144q-13 -81 -81 -140t-152 -59q-81 0 -131 59zM463 -35
q-204 0 -323 103q-120 102 -120 317q0 272 176 451q175 178 461 178q187 0 305 -103q119 -104 119 -317q0 -293 -176 -461q-175 -168 -442 -168zM502 313q80 -5 137 51q57 54 66 148q8 76 -21.5 116t-83.5 44q-82 4 -139 -51q-58 -55 -66 -146q-6 -78 23 -118t84 -44z" />
    <glyph glyph-name="divide" unicode="&#xf7;" horiz-adv-x="1138" 
d="M449 1126q16 94 92 161q74 67 170 67q94 0 151 -66q55 -67 42 -161q-15 -96 -93 -160q-78 -66 -172 -66q-93 0 -149 66q-55 64 -41 159zM160 854h938l-54 -336h-938zM353 85q-56 68 -41 161q13 92 91 161q77 66 171 66t149 -66t41 -161q-13 -92 -91 -161
q-76 -67 -171 -67q-94 0 -149 67z" />
    <glyph glyph-name="oslash" unicode="&#xf8;" horiz-adv-x="1097" 
d="M1006 860q74 -108 73 -266q0 -296 -175 -462q-176 -167 -441 -167q-164 0 -268 62l-64 -66l-98 92l61 64q-76 100 -76 268q0 272 176 451q175 178 461 178q139 0 242 -58l66 68l108 -96zM385 475q-4 -31 0 -53l246 256q-17 4 -29 4q-88 6 -149 -52q-62 -59 -68 -155z
M713 512q1 9 1.5 21t0.5 28l-246 -254q15 -4 29 -4q83 -6 144 52q60 56 71 157z" />
    <glyph glyph-name="ugrave" unicode="&#xf9;" horiz-adv-x="1071" 
d="M772 1128h-258l-205 461h375zM705 979h380l-159 -979h-383l18 115q-109 -150 -313 -150q-125 0 -189 94q-65 93 -39 258l111 662h383l-92 -553q-20 -119 65 -119q73 0 119 82z" />
    <glyph glyph-name="uacute" unicode="&#xfa;" horiz-adv-x="1071" 
d="M1128 1589l-358 -461h-258l242 461h374zM606 389l99 590h380l-159 -979h-383l18 115q-109 -150 -313 -150q-125 0 -189 94q-65 93 -39 258l111 662h383l-92 -553q-20 -119 65 -119q73 0 119 82z" />
    <glyph glyph-name="ucircumflex" unicode="&#xfb;" horiz-adv-x="1071" 
d="M680 1325l-168 -197h-260l321 463h301l166 -463h-260zM705 979h380l-159 -979h-383l18 115q-109 -150 -313 -150q-125 0 -189 94q-65 93 -39 258l111 662h383l-92 -553q-20 -119 65 -119q73 0 119 82z" />
    <glyph glyph-name="udieresis" unicode="&#xfc;" horiz-adv-x="1071" 
d="M416 1169q-81 0 -131 59q-49 57 -35 140q13 81 83 143q68 60 150 60q83 0 133 -59q48 -60 33 -144q-13 -81 -81 -140t-152 -59zM950 1571q84 0 132 -59t34 -144q-13 -81 -81 -140t-152 -59q-81 0 -131 59t-35 140q13 81 83 143q68 60 150 60zM606 389l99 590h380
l-159 -979h-383l18 115q-109 -150 -313 -150q-125 0 -189 94q-65 93 -39 258l111 662h383l-92 -553q-20 -119 65 -119q73 0 119 82z" />
    <glyph glyph-name="yacute" unicode="&#xfd;" horiz-adv-x="1110" 
d="M1128 1589l-358 -461h-258l242 461h374zM778 979h398l-801 -1487h-395l284 481l-180 1006h397l45 -559z" />
    <glyph glyph-name="thorn" unicode="&#xfe;" horiz-adv-x="1150" 
d="M825 1014q131 0 222 -96q90 -97 90 -279q0 -318 -155 -496q-154 -178 -386 -178q-147 0 -221 96l-96 -569h-383l342 2038h383l-105 -627q119 111 309 111zM547 303q86 0 144 67q57 66 57 158q0 138 -119 140q-104 0 -168 -88l-35 -205q41 -72 121 -72z" />
    <glyph glyph-name="ydieresis" unicode="&#xff;" horiz-adv-x="1110" 
d="M416 1169q-81 0 -131 59q-49 57 -35 140q13 81 83 143q68 60 150 60q83 0 133 -59q48 -60 33 -144q-13 -81 -81 -140t-152 -59zM883 1169q-81 0 -131 59t-35 140q13 81 83 143q68 60 150 60q84 0 132 -59t34 -144q-13 -81 -81 -140t-152 -59zM778 979h398l-801 -1487
h-395l284 481l-180 1006h397l45 -559z" />
    <glyph glyph-name="Amacron" unicode="&#x100;" horiz-adv-x="1300" 
d="M1243 1944l-53 -318h-733l53 318h733zM551 1427h467l186 -1427h-420l-20 254h-344l-94 -254h-396zM541 575h198l-32 443z" />
    <glyph glyph-name="amacron" unicode="&#x101;" horiz-adv-x="1140" 
d="M1141 1516l-54 -318h-733l54 318h733zM803 979h358l-160 -979h-364l2 82q-129 -117 -305 -117q-144 0 -229 97q-87 96 -87 280q0 322 151 497q150 175 378 175q144 0 229 -115zM408 453q0 -139 112 -140q101 0 162 84l33 193q-35 86 -119 86t-136 -64t-52 -159z" />
    <glyph glyph-name="Abreve" unicode="&#x102;" horiz-adv-x="1300" 
d="M821 1579q-421 0 -321 457h297q-9 -45 -12 -84t3 -67.5t23.5 -44t50.5 -15.5q60 0 89.5 54t45.5 157h295q-51 -457 -471 -457zM551 1427h467l186 -1427h-420l-20 254h-344l-94 -254h-396zM541 575h198l-32 443z" />
    <glyph glyph-name="abreve" unicode="&#x103;" horiz-adv-x="1140" 
d="M729 1135q-421 0 -321 456h294q-20 -92 -6 -151q14 -60 72 -60q60 0 89.5 54t45.5 157h297q-51 -456 -471 -456zM776 899l27 80h358l-160 -979h-364l2 82q-129 -117 -305 -117q-144 0 -229 97q-87 96 -87 280q0 322 151 497q150 175 378 175q144 0 229 -115zM408 453
q0 -139 112 -140q101 0 162 84l33 193q-35 86 -119 86t-136 -64t-52 -159z" />
    <glyph glyph-name="Aogonek" unicode="&#x104;" horiz-adv-x="1300" 
d="M1004 -344q54 0 145 47l16 -244q-160 -76 -334 -75q-117 0 -175 53t-58 141q0 247 334 422h-148l-20 254h-344l-94 -254h-396l621 1427h467l186 -1427q-260 -161 -260 -283q1 -61 60 -61zM541 575h198l-32 443z" />
    <glyph glyph-name="aogonek" unicode="&#x105;" horiz-adv-x="1140" 
d="M911 0q-211 -137 -225 -252q-10 -70 59 -70q59 0 146 48l14 -244q-151 -76 -332 -76q-133 0 -190 66q-57 68 -41 172q32 208 295 362l2 76q-129 -117 -305 -117q-144 0 -229 97q-87 96 -87 280q0 322 151 497q150 175 378 175q144 0 229 -115l27 80h358l-160 -979h-90z
M408 453q0 -139 112 -140q101 0 162 84l33 193q-35 86 -119 86t-136 -64t-52 -159z" />
    <glyph glyph-name="Cacute" unicode="&#x106;" horiz-adv-x="1308" 
d="M1440 2005l-461 -428h-297l348 428h410zM680 -35q-126 0 -229.5 33t-191.5 105t-136.5 200t-48.5 305q0 155 52 301.5t153 273.5t270 203q168 76 385 76q316 0 485 -162l-237 -339q-104 119 -279 118q-184 0 -292 -129q-109 -128 -109 -315q0 -281 266 -281
q220 0 371 148l94 -369q-89 -78 -244 -123q-157 -45 -309 -45z" />
    <glyph glyph-name="cacute" unicode="&#x107;" horiz-adv-x="864" 
d="M1106 1589l-358 -461h-259l242 461h375zM803 80q-142 -115 -393 -115q-173 0 -282 94q-110 93 -110 314q0 290 174 465q173 176 441 176q182 0 315 -117l-211 -270q-55 51 -135 51q-84 0 -140 -63q-56 -65 -56 -164q0 -69 32 -104.5t92 -35.5q123 0 203 74z" />
    <glyph glyph-name="Cdotaccent" unicode="&#x10a;" horiz-adv-x="1308" 
d="M725 1645q-49 58 -34 141q13 81 83 143q68 60 150 60q83 0 133 -59q49 -59 35 -144q-15 -83 -83 -142q-70 -59 -153 -59q-81 0 -131 60zM680 -35q-126 0 -229.5 33t-191.5 105t-136.5 200t-48.5 305q0 155 52 301.5t153 273.5t270 203q168 76 385 76q316 0 485 -162
l-237 -339q-104 119 -279 118q-184 0 -292 -129q-109 -128 -109 -315q0 -281 266 -281q220 0 371 148l94 -369q-89 -78 -244 -123q-157 -45 -309 -45z" />
    <glyph glyph-name="cdotaccent" unicode="&#x10b;" horiz-adv-x="864" 
d="M495 1211q-51 59 -36 143q13 83 84 145q69 60 151 60q85 0 134 -60t35 -145q-15 -84 -83 -143q-69 -60 -153 -60q-82 0 -132 60zM803 80q-142 -115 -393 -115q-173 0 -282 94q-110 93 -110 314q0 290 174 465q173 176 441 176q182 0 315 -117l-211 -270q-55 51 -135 51
q-84 0 -140 -63q-56 -65 -56 -164q0 -69 32 -104.5t92 -35.5q123 0 203 74z" />
    <glyph glyph-name="Ccaron" unicode="&#x10c;" horiz-adv-x="1308" 
d="M1001 1577h-301l-165 463h260l100 -197l168 197h260zM768 354q220 0 371 148l94 -369q-89 -78 -245 -123q-157 -45 -308 -45q-126 0 -229.5 33t-191.5 105t-136.5 200t-48.5 305q0 155 52 301.5t153 273.5t270 203q168 76 385 76q316 0 485 -162l-237 -339
q-104 119 -279 118q-184 0 -292 -129q-109 -128 -109 -315q0 -281 266 -281z" />
    <glyph glyph-name="ccaron" unicode="&#x10d;" horiz-adv-x="864" 
d="M772 1128h-301l-166 463h260l101 -196l168 196h260zM602 678q-84 0 -140 -63q-56 -65 -56 -164q0 -69 32 -104.5t92 -35.5q123 0 203 74l70 -305q-142 -115 -393 -115q-173 0 -282 94q-110 93 -110 314q0 290 174 465q173 176 441 176q182 0 315 -117l-211 -270
q-55 51 -135 51z" />
    <glyph glyph-name="Dcaron" unicode="&#x10e;" horiz-adv-x="1398" 
d="M1004 1577h-302l-165 463h260l100 -197l168 197h260zM770 1427q299 0 467 -138t168 -423q0 -397 -237 -631q-238 -235 -613 -235h-530l237 1427h508zM551 367q183 0 304 118q122 117 122 336q0 131 -68.5 189.5t-208.5 58.5h-98l-115 -702h64z" />
    <glyph glyph-name="dcaron" unicode="&#x10f;" horiz-adv-x="1138" 
d="M1317 1532h338l-199 -623h-223zM872 1530h383l-251 -1528l-355 -2l-6 82q-123 -117 -307 -117q-75 0 -135 25t-102 73.5t-64.5 120t-22.5 164.5q0 305 154 486q153 180 381 180q144 0 223 -99zM410 440q0 -135 112 -135q98 0 164 88l35 221q-35 68 -113 68
q-90 0 -144 -68q-54 -67 -54 -174z" />
    <glyph glyph-name="Dcroat" unicode="&#x110;" horiz-adv-x="1398" 
d="M770 1427q299 0 467 -138t168 -423q0 -397 -237 -631q-238 -235 -613 -235h-530l96 578h-78l55 325h76l88 524h508zM551 367q183 0 304 118q122 117 122 336q0 131 -68.5 189.5t-208.5 58.5h-98l-27 -166h209l-55 -325h-207l-35 -211h64z" />
    <glyph glyph-name="dcroat" unicode="&#x111;" horiz-adv-x="1140" 
d="M1296 1442l-55 -326h-53l-184 -1114l-355 -2l-6 82q-123 -117 -307 -117q-75 0 -135 25t-102 73.5t-64.5 120t-22.5 164.5q0 305 154 486q153 180 381 180q144 0 223 -99l35 201h-344l55 326h342l14 88h383l-14 -88h55zM410 440q0 -135 112 -135q98 0 164 88l35 221
q-35 68 -113 68q-90 0 -144 -68q-54 -67 -54 -174z" />
    <glyph glyph-name="Emacron" unicode="&#x112;" horiz-adv-x="1128" 
d="M1182 1944l-54 -318h-733l54 318h733zM1190 1069h-586l-26 -172h430l-54 -322h-432l-35 -213h586l-61 -362h-985l235 1427h985z" />
    <glyph glyph-name="emacron" unicode="&#x113;" horiz-adv-x="1003" 
d="M1028 1516l-53 -318h-733l53 318h733zM635 1014q354 0 354 -357q0 -106 -31 -233h-567q4 -75 43.5 -104t114.5 -29q167 0 285 69l84 -286q-185 -109 -451 -109q-205 0 -328 96q-123 95 -123 304q0 280 169 464q170 185 450 185zM569 729q-97 0 -147 -125h225v29
q0 96 -78 96z" />
    <glyph glyph-name="Edotaccent" unicode="&#x116;" horiz-adv-x="1128" 
d="M756 1585q-81 0 -131 60q-50 59 -35 141q13 81 83 143q68 60 150 60q84 0 134 -59q49 -59 35 -144q-15 -83 -83 -142q-70 -59 -153 -59zM1190 1069h-586l-26 -172h430l-54 -322h-432l-35 -213h586l-61 -362h-985l235 1427h985z" />
    <glyph glyph-name="edotaccent" unicode="&#x117;" horiz-adv-x="1003" 
d="M625 1151q-82 0 -132 60q-51 59 -36 143q13 83 84 145q69 60 151 60q84 0 133 -60t35 -145q-13 -84 -82 -143q-69 -60 -153 -60zM989 657q0 -106 -31 -233h-567q4 -75 43.5 -104t114.5 -29q167 0 285 69l84 -286q-185 -109 -451 -109q-205 0 -328 96q-123 95 -123 304
q0 280 169 464q170 185 450 185q354 -1 354 -357zM569 729q-97 0 -147 -125h225v29q0 96 -78 96z" />
    <glyph glyph-name="Eogonek" unicode="&#x118;" horiz-adv-x="1128" 
d="M1190 1069h-586l-26 -172h430l-54 -322h-432l-35 -213h586l-61 -362q-260 -161 -260 -283q0 -61 59 -61q54 0 145 47l17 -244q-160 -76 -334 -75q-117 0 -175 53t-58 141q0 246 333 422h-712l235 1427h985z" />
    <glyph glyph-name="eogonek" unicode="&#x119;" horiz-adv-x="1003" 
d="M989 657q0 -106 -31 -233h-567q4 -75 43.5 -104t114.5 -29q167 0 285 69l84 -286l-5 -2l-4 -2q-309 -175 -309 -301q0 -54 62 -56q61 0 145 45l16 -243q-162 -76 -334 -76q-118 0 -176.5 53t-58.5 141q0 187 217 332h-4q-205 0 -328 96q-123 95 -123 304q0 280 169 464
q170 185 450 185q354 -1 354 -357zM569 729q-97 0 -147 -125h225v29q0 96 -78 96z" />
    <glyph glyph-name="Ecaron" unicode="&#x11a;" horiz-adv-x="1128" 
d="M901 1577h-301l-166 463h260l101 -197l168 197h260zM1190 1069h-586l-26 -172h430l-54 -322h-432l-35 -213h586l-61 -362h-985l235 1427h985z" />
    <glyph glyph-name="ecaron" unicode="&#x11b;" horiz-adv-x="1003" 
d="M770 1128h-301l-166 463h260l101 -196l167 196h261zM635 1014q354 0 354 -357q0 -106 -31 -233h-567q4 -75 43.5 -104t114.5 -29q167 0 285 69l84 -286q-185 -109 -451 -109q-205 0 -328 96q-123 95 -123 304q0 280 169 464q170 185 450 185zM569 729q-97 0 -147 -125
h225v29q0 96 -78 96z" />
    <glyph glyph-name="Gbreve" unicode="&#x11e;" horiz-adv-x="1427" 
d="M885 1579q-422 0 -322 457h297q-7 -45 -10 -84t3 -67t23 -44t50 -16q59 0 88.5 54t46.5 157h295q-51 -457 -471 -457zM705 532l53 316h641l-133 -797q-267 -86 -561 -86q-132 0 -239.5 31t-198.5 100t-142 196t-51 304q0 373 244 620q243 246 626 246q140 0 275 -44
q133 -43 217 -126l-271 -309q-121 102 -264 102q-185 0 -292 -134t-107 -326q0 -272 262 -273q90 0 154 19l24 161h-237z" />
    <glyph glyph-name="gbreve" unicode="&#x11f;" horiz-adv-x="1153" 
d="M694 1135q-421 0 -321 456h295q-10 -46 -12 -84t5 -67q14 -60 73 -60q60 0 89 54t45 157h297q-51 -456 -471 -456zM854 979h326l-160 -973q-51 -303 -210 -426t-413 -123q-144 0 -264 40t-194 108l129 321q141 -141 315 -141q217 0 256 231l10 54q-118 -103 -299 -105
q-155 0 -243 103q-89 103 -89 292q0 309 152 482q151 172 377 172q176 0 266 -125zM522 313q108 0 185 95l28 174q-37 94 -143 94q-86 0 -139 -66q-54 -67 -54 -159q0 -138 123 -138z" />
    <glyph glyph-name="Gdotaccent" unicode="&#x120;" horiz-adv-x="1427" 
d="M881 1585q-81 0 -131 60q-50 59 -35 141q13 81 83 143q68 60 150 60q83 0 133 -59q49 -59 35 -144q-13 -82 -82 -142q-70 -59 -153 -59zM705 532l53 316h641l-133 -797q-267 -86 -561 -86q-132 0 -239.5 31t-198.5 100t-142 196t-51 304q0 373 244 620q243 246 626 246
q140 0 275 -44q133 -43 217 -126l-271 -309q-121 102 -264 102q-185 0 -292 -134t-107 -326q0 -272 262 -273q90 0 154 19l24 161h-237z" />
    <glyph glyph-name="gdotaccent" unicode="&#x121;" horiz-adv-x="1153" 
d="M702 1151q-82 0 -132 60q-50 59 -35 143q13 83 84 145q69 60 151 60q84 0 133 -60t35 -145q-14 -84 -83 -143q-69 -60 -153 -60zM854 979h326l-160 -973q-51 -303 -210 -426t-413 -123q-144 0 -264 40t-194 108l129 321q141 -141 315 -141q217 0 256 231l10 54
q-118 -103 -299 -105q-155 0 -243 103q-89 103 -89 292q0 309 152 482q151 172 377 172q176 0 266 -125zM522 313q108 0 185 95l28 174q-37 94 -143 94q-86 0 -139 -66q-54 -67 -54 -159q0 -138 123 -138z" />
    <glyph glyph-name="uni0122" unicode="&#x122;" horiz-adv-x="1427" 
d="M705 532l53 316h641l-133 -797q-267 -86 -561 -86q-132 0 -239.5 31t-198.5 100t-142 196t-51 304q0 373 244 620q243 246 626 246q140 0 275 -44q133 -43 217 -126l-271 -309q-121 102 -264 102q-185 0 -292 -134t-107 -326q0 -272 262 -273q90 0 154 19l24 161h-237z
M602 -111q102 0 155 -74q52 -73 31 -192q-51 -283 -378 -418l-93 179q145 57 197 118q-70 6 -111 57q-41 53 -26 138q14 84 78 138q63 54 147 54z" />
    <glyph glyph-name="uni0123" unicode="&#x123;" horiz-adv-x="1153" 
d="M682 1143q-109 0 -156 68.5t-26 185.5q22 138 123 254q100 114 251 157l93 -178q-147 -57 -211 -139q8 2 22 2q62 0 105 -40t30 -122q-13 -91 -79 -140q-66 -48 -152 -48zM854 979h326l-160 -973q-51 -303 -210 -426t-413 -123q-144 0 -264 40t-194 108l129 321
q141 -141 315 -141q217 0 256 231l10 54q-118 -103 -299 -105q-155 0 -243 103q-89 103 -89 292q0 309 152 482q151 172 377 172q176 0 266 -125zM522 313q108 0 185 95l28 174q-37 94 -143 94q-86 0 -139 -66q-54 -67 -54 -159q0 -138 123 -138z" />
    <glyph glyph-name="Hbar" unicode="&#x126;" horiz-adv-x="1384" 
d="M1481 1262l-51 -306h-74l-158 -956h-399l71 436h-372l-72 -436h-401l159 956h-73l51 306h74l26 165h400l-27 -165h373l26 165h400l-27 -165h74zM928 784l28 172h-372l-29 -172h373z" />
    <glyph glyph-name="hbar" unicode="&#x127;" horiz-adv-x="1091" 
d="M827 1014q133 0 198 -92q65 -93 38 -256l-109 -666h-383l93 549q18 125 -70 125q-80 0 -131 -94l-94 -580l-383 6l180 1106h-84l55 326h82l14 92h383l-14 -92h316l-56 -326h-313l-45 -274q110 176 323 176z" />
    <glyph glyph-name="Imacron" unicode="&#x12a;" horiz-adv-x="612" 
d="M129 1626l53 318h733l-53 -318h-733zM662 1427l-236 -1427h-401l237 1427h400z" />
    <glyph glyph-name="imacron" unicode="&#x12b;" horiz-adv-x="520" 
d="M45 1516h733l-53 -318h-733zM532 979l-163 -979h-379l162 979h380z" />
    <glyph glyph-name="Iogonek" unicode="&#x12e;" horiz-adv-x="612" 
d="M426 0q-260 -161 -260 -283q0 -61 59 -61q54 0 146 47l16 -244q-160 -76 -334 -75q-117 0 -175 53t-58 141q0 247 334 422h-129l237 1427h400z" />
    <glyph glyph-name="iogonek" unicode="&#x12f;" horiz-adv-x="520" 
d="M442 1559q85 0 134 -60t35 -145q-15 -84 -83 -143q-69 -60 -153 -60q-82 0 -132 60q-50 59 -36 143q13 83 84 145q69 60 151 60zM-10 0l162 979h380l-163 -979q-241 -150 -258 -272q-10 -70 59 -70q59 0 145 47l15 -244q-152 -77 -332 -75q-133 0 -191 66q-57 67 -40 171
q32 215 321 377h-98z" />
    <glyph glyph-name="Idotaccent" unicode="&#x130;" horiz-adv-x="612" 
d="M358 1645q-49 58 -34 141q13 81 83 143q68 60 150 60q83 0 133 -59q49 -59 35 -144q-13 -83 -83 -142t-153 -59q-81 0 -131 60zM662 1427l-236 -1427h-401l237 1427h400z" />
    <glyph glyph-name="dotlessi" unicode="&#x131;" horiz-adv-x="520" 
d="M532 979l-163 -979h-379l162 979h380z" />
    <glyph glyph-name="uni0136" unicode="&#x136;" horiz-adv-x="1300" 
d="M1442 1427l-477 -522l233 -905h-471l-115 520l-123 -135l-63 -385h-401l237 1427h400l-76 -456l393 456h463zM551 -111q102 0 155 -74q52 -73 31 -192q-51 -283 -379 -418l-92 179q145 57 197 118q-70 6 -111 57q-41 53 -26 138q14 84 78 138q63 54 147 54z" />
    <glyph glyph-name="uni0137" unicode="&#x137;" horiz-adv-x="1073" 
d="M1141 979l-355 -367l183 -612h-414l-72 299l-86 -90l-35 -209h-380l251 1530h383l-143 -866l225 315h443zM436 -111q102 0 155 -74q52 -72 32 -192q-51 -283 -379 -418l-92 179q145 57 196 118q-35 3 -63.5 17.5t-47 39.5t-26 60t-0.5 78q14 84 78 138q63 54 147 54z" />
    <glyph glyph-name="Lacute" unicode="&#x139;" horiz-adv-x="1015" 
d="M1083 2005l-460 -428h-297l348 428h409zM664 1427l-179 -1060h484l-60 -367h-884l237 1427h402z" />
    <glyph glyph-name="lacute" unicode="&#x13a;" horiz-adv-x="512" 
d="M1024 2107l-461 -428h-297l348 428h410zM614 1530l-245 -1530h-381l245 1530h381z" />
    <glyph glyph-name="uni013B" unicode="&#x13b;" horiz-adv-x="1015" 
d="M485 367h484l-60 -367h-884l237 1427h402zM479 -111q102 0 155 -74q52 -72 32 -192q-51 -283 -379 -418l-92 179q145 57 196 118q-35 3 -63.5 17.5t-47 39.5t-26 60t-0.5 78q14 84 78 138q63 54 147 54z" />
    <glyph glyph-name="uni013C" unicode="&#x13c;" horiz-adv-x="512" 
d="M233 1530h381l-245 -1530h-381zM156 -111q101 0 154 -74q52 -72 32 -192q-51 -283 -379 -418l-92 179q145 57 197 118q-71 6 -111 57q-41 52 -27 138q13 84 78 138t148 54z" />
    <glyph glyph-name="Lcaron" unicode="&#x13d;" horiz-adv-x="1015" 
d="M645 1577h-301l-166 463h260l101 -197l168 197h260zM485 367h484l-60 -367h-884l237 1427h402z" />
    <glyph glyph-name="lcaron" unicode="&#x13e;" horiz-adv-x="786" 
d="M1026 1532l-199 -623h-223l84 623h338zM614 1530l-245 -1530h-381l245 1530h381z" />
    <glyph glyph-name="Lslash" unicode="&#x141;" horiz-adv-x="1015" 
d="M485 367h484l-60 -367h-884l81 492l-143 -52l-98 312l303 110l94 565h402l-68 -409l135 49l119 -305l-318 -115z" />
    <glyph glyph-name="lslash" unicode="&#x142;" horiz-adv-x="884" 
d="M997 866l-350 -127l-119 -739h-381l95 592l-131 -47l-99 311l289 105l92 569h381l-67 -422l172 63z" />
    <glyph glyph-name="Nacute" unicode="&#x143;" horiz-adv-x="1359" 
d="M1448 2005l-461 -428h-297l348 428h410zM926 707l121 720h364l-237 -1427h-375l-291 707l-117 -707h-366l237 1427h371z" />
    <glyph glyph-name="nacute" unicode="&#x144;" horiz-adv-x="1085" 
d="M1135 1589l-359 -461h-258l242 461h375zM821 1014q133 0 198 -92q64 -92 38 -256l-109 -666h-383l92 549q18 125 -73 125q-72 0 -123 -84l-99 -590h-380l163 979h381l-22 -131q114 166 317 166z" />
    <glyph glyph-name="uni0145" unicode="&#x145;" horiz-adv-x="1359" 
d="M1047 1427h364l-237 -1427h-375l-291 707l-117 -707h-366l237 1427h371l293 -720zM580 -111q101 0 154 -74q52 -72 32 -192q-51 -283 -379 -418l-92 179q145 57 197 118q-70 6 -111 57q-40 52 -27 138q14 84 78 138q65 54 148 54z" />
    <glyph glyph-name="uni0146" unicode="&#x146;" horiz-adv-x="1085" 
d="M821 1014q133 0 198 -92q64 -92 38 -256l-109 -666h-383l92 549q18 125 -73 125q-72 0 -123 -84l-99 -590h-380l163 979h381l-22 -131q114 166 317 166zM442 -111q102 0 155 -74q52 -72 32 -192q-51 -283 -379 -418l-92 179q145 57 196 118q-35 3 -63.5 17.5t-47 39.5
t-26 60t-0.5 78q14 84 78 138q63 54 147 54z" />
    <glyph glyph-name="Ncaron" unicode="&#x147;" horiz-adv-x="1359" 
d="M1010 1577h-301l-166 463h260l100 -197l168 197h260zM1047 1427h364l-237 -1427h-375l-291 707l-117 -707h-366l237 1427h371l293 -720z" />
    <glyph glyph-name="ncaron" unicode="&#x148;" horiz-adv-x="1085" 
d="M801 1128h-301l-166 463h260l100 -196l168 196h260zM821 1014q133 0 198 -92q64 -92 38 -256l-109 -666h-383l92 549q18 125 -73 125q-72 0 -123 -84l-99 -590h-380l163 979h381l-22 -131q114 166 317 166z" />
    <glyph glyph-name="Eng" unicode="&#x14a;" horiz-adv-x="1353" 
d="M1047 1427h364l-225 -1331q-49 -333 -180 -467q-132 -133 -328 -133q-200 0 -336 98l133 300q62 -62 162 -64q137 0 170 150l-299 727l-117 -707h-366l237 1427h371l295 -722z" />
    <glyph glyph-name="eng" unicode="&#x14b;" horiz-adv-x="1083" 
d="M821 1014q133 0 198 -92q64 -92 38 -256l-113 -691q-39 -243 -167 -362q-128 -118 -386 -137l-49 321q188 0 221 187l94 565q18 125 -73 125q-72 0 -123 -84l-99 -590h-380l163 979h381l-22 -131q114 166 317 166z" />
    <glyph glyph-name="Omacron" unicode="&#x14c;" horiz-adv-x="1558" 
d="M602 1626l53 318h734l-54 -318h-733zM684 -35q-264 0 -439 154q-175 153 -175 454q0 376 243 632q242 257 631 259q263 -1 441 -154q176 -153 176 -462q0 -376 -238 -629q-239 -254 -639 -254zM745 354q169 0 279 137q109 136 109 316q0 130 -66.5 200t-183.5 70
q-168 0 -275 -135q-108 -135 -108 -315q0 -136 65 -204.5t180 -68.5z" />
    <glyph glyph-name="omacron" unicode="&#x14d;" horiz-adv-x="1101" 
d="M365 1516h733l-54 -318h-733zM463 -35q-204 0 -323 103q-120 102 -120 317q0 272 176 451q175 178 461 178q187 0 305 -103q119 -104 119 -317q0 -293 -176 -461q-175 -168 -442 -168zM502 313q80 -5 137 51q57 54 66 148q8 76 -21.5 116t-83.5 44q-82 4 -139 -51
q-58 -55 -66 -146q-6 -78 23 -118t84 -44z" />
    <glyph glyph-name="Ohungarumlaut" unicode="&#x150;" horiz-adv-x="1558" 
d="M1176 2038l-293 -461h-230l162 461h361zM1683 2038l-426 -461h-260l312 461h374zM684 -35q-264 0 -439 154q-175 153 -175 454q0 376 243 632q242 257 631 259q263 -1 441 -154q176 -153 176 -462q0 -376 -238 -629q-239 -254 -639 -254zM745 354q169 0 279 137
q109 136 109 316q0 130 -66.5 200t-183.5 70q-168 0 -275 -135q-108 -135 -108 -315q0 -136 65 -204.5t180 -68.5z" />
    <glyph glyph-name="ohungarumlaut" unicode="&#x151;" horiz-adv-x="1101" 
d="M883 1589l-291 -461h-232l164 461h359zM1384 1589l-426 -461h-260l312 461h374zM463 -35q-204 0 -323 103q-120 102 -120 317q0 272 176 451q175 178 461 178q187 0 305 -103q119 -104 119 -317q0 -293 -176 -461q-175 -168 -442 -168zM502 313q80 -5 137 51
q57 54 66 148q8 76 -21.5 116t-83.5 44q-82 4 -139 -51q-58 -55 -66 -146q-6 -78 23 -118t84 -44z" />
    <glyph glyph-name="OE" unicode="&#x152;" horiz-adv-x="2052" 
d="M2111 1069h-583l-29 -172h432l-53 -322h-432l-35 -213h584l-62 -362h-985q-131 -35 -278 -35q-255 0 -427 154q-173 153 -173 454q0 375 243 631q241 256 631 258q130 0 238 -41l2 6h987zM741 354q171 0 283 101l88 536q-71 86 -207 86q-170 0 -287 -138
q-118 -137 -118 -321q0 -130 63.5 -197t177.5 -67z" />
    <glyph glyph-name="oe" unicode="&#x153;" horiz-adv-x="1681" 
d="M1667 657q0 -106 -31 -233h-567q1 -39 11.5 -64.5t30.5 -41t49 -21.5t67 -6q166 0 286 69l84 -286q-185 -109 -452 -109q-215 0 -322 119q-155 -119 -360 -119q-204 0 -323 103q-120 102 -120 317q0 272 176 451q175 178 461 178q195 0 297 -127q149 127 359 127
q354 -1 354 -357zM1247 729q-96 0 -147 -125h225v29q0 96 -78 96zM705 512q8 76 -21.5 116t-83.5 44q-82 4 -139 -51q-58 -55 -66 -146q-6 -78 22 -118t85 -44q80 -4 138 51t65 148z" />
    <glyph glyph-name="Racute" unicode="&#x154;" horiz-adv-x="1302" 
d="M1430 2005l-461 -428h-297l348 428h410zM1305 1042q0 -151 -79 -276q-79 -126 -220 -197l200 -569h-473l-139 502h-86l-84 -502h-401l239 1427h617q426 0 426 -385zM602 1067l-41 -248h137q82 0 129 38t47 108q0 102 -114 102h-158z" />
    <glyph glyph-name="racute" unicode="&#x155;" horiz-adv-x="770" 
d="M1022 1589l-358 -461h-258l241 461h375zM496 799q96 205 241 205q56 0 90 -15l-63 -346q-43 6 -76 6q-105 0 -160 -55q-57 -55 -94 -166l-72 -428h-380l163 979h371z" />
    <glyph glyph-name="uni0156" unicode="&#x156;" horiz-adv-x="1302" 
d="M1305 1042q0 -151 -79 -276q-79 -126 -220 -197l200 -569h-473l-139 502h-86l-84 -502h-401l239 1427h617q426 0 426 -385zM602 1067l-41 -248h137q82 0 129 38t47 108q0 102 -114 102h-158zM561 -111q102 0 155 -74q52 -72 32 -192q-51 -283 -379 -418l-93 179
q145 57 197 118q-35 3 -63.5 17.5t-47 39.5t-26 60t-0.5 78q14 84 78 138q63 54 147 54z" />
    <glyph glyph-name="uni0157" unicode="&#x157;" horiz-adv-x="770" 
d="M737 1004q56 0 90 -15l-63 -346q-43 6 -76 6q-105 0 -160 -55q-57 -55 -94 -166l-72 -428h-380l163 979h371l-20 -180q96 205 241 205zM154 -111q101 0 154 -74q52 -72 32 -192q-51 -283 -379 -418l-92 179q145 57 197 118q-71 6 -111 57q-41 52 -27 138q13 84 78 138
t148 54z" />
    <glyph glyph-name="Rcaron" unicode="&#x158;" horiz-adv-x="1302" 
d="M991 1577h-301l-166 463h260l101 -197l168 197h260zM1305 1042q0 -151 -79 -276q-79 -126 -220 -197l200 -569h-473l-139 502h-86l-84 -502h-401l239 1427h617q426 0 426 -385zM602 1067l-41 -248h137q82 0 129 38t47 108q0 102 -114 102h-158z" />
    <glyph glyph-name="rcaron" unicode="&#x159;" horiz-adv-x="770" 
d="M688 1128h-301l-166 463h260l101 -196l168 196h260zM496 799q96 205 241 205q56 0 90 -15l-63 -346q-43 6 -76 6q-105 0 -160 -55q-57 -55 -94 -166l-72 -428h-380l163 979h371z" />
    <glyph glyph-name="Sacute" unicode="&#x15a;" horiz-adv-x="1107" 
d="M1325 2005l-461 -428h-297l348 428h410zM485 -35q-299 0 -499 158l159 375q60 -76 149.5 -118t188.5 -42q63 0 101.5 24t38.5 66q0 38 -29 61q-29 21 -100 50q-173 71 -262 170q-91 100 -91 270q0 216 138 349q137 134 393 134q283 0 502 -135l-228 -334
q-124 101 -278 103q-111 0 -111 -74q0 -36 27 -59q26 -22 102 -54q29 -13 52 -23.5t42 -18.5q35 -15 92 -57q55 -41 86 -84q32 -45 56 -114.5t24 -156.5q0 -223 -157 -356q-158 -134 -396 -134z" />
    <glyph glyph-name="sacute" unicode="&#x15b;" horiz-adv-x="804" 
d="M989 1589l-358 -461h-258l241 461h375zM399 293q0 33 -71 51q-273 66 -275 303q0 162 114 265q114 102 315 102t364 -84l-160 -262q-96 63 -215 63q-63 0 -63 -39q0 -35 86 -59q130 -38 198 -104q68 -68 68 -201q0 -158 -122 -260q-121 -103 -327 -103q-233 0 -366 88
l123 275q113 -78 245 -78q86 0 86 43z" />
    <glyph glyph-name="Scedilla" unicode="&#x15e;" horiz-adv-x="1107" 
d="M686 909q29 -13 52 -23.5t42 -18.5q35 -15 92 -57q55 -41 86 -84q32 -45 56 -114.5t24 -156.5q0 -200 -127 -328q-127 -129 -327 -156l-39 -61q36 10 76 10q78 0 125 -46t47 -140q0 -156 -99 -235q-100 -79 -260 -79q-173 0 -268 70l98 199q17 -18 69 -39q53 -21 101 -21
q98 0 98 72q0 43 -43 43q-35 0 -67 -33l-160 53l115 207q-229 26 -391 152l159 375q60 -76 149.5 -118t188.5 -42q63 0 101.5 24t38.5 66q0 38 -29 61q-29 21 -100 50q-173 71 -262 170q-91 100 -91 270q0 216 138 349q137 134 393 134q283 0 502 -135l-228 -334
q-124 101 -278 103q-111 0 -111 -74q0 -36 27 -59q26 -22 102 -54z" />
    <glyph glyph-name="scedilla" unicode="&#x15f;" horiz-adv-x="804" 
d="M494 633q130 -38 198 -104q68 -68 68 -201q0 -128 -84 -223t-230 -125l-75 -119q20 5 41 7.5t41 2.5q174 0 174 -180q0 -142 -101 -222q-101 -79 -254 -79q-181 0 -290 71l100 191q80 -53 182 -53q98 0 98 75q0 39 -38 39q-37 0 -66 -32l-160 55l123 233q-169 12 -276 84
l123 275q113 -78 245 -78q86 0 86 43q0 33 -71 51q-273 66 -275 303q0 162 114 265q114 102 315 102t364 -84l-160 -262q-96 63 -215 63q-63 0 -63 -39q0 -33 86 -59z" />
    <glyph glyph-name="Scaron" unicode="&#x160;" horiz-adv-x="1107" 
d="M887 1577h-301l-166 463h260l100 -197l168 197h260zM668 1096q-111 0 -111 -74q0 -36 27 -59q26 -22 102 -54q29 -13 52 -23.5t42 -18.5q35 -15 92 -57q55 -41 86 -84q32 -45 56 -114.5t24 -156.5q0 -223 -157 -356q-158 -134 -396 -134q-299 0 -499 158l159 375
q60 -76 149.5 -118t188.5 -42q63 0 101.5 24t38.5 66q0 38 -29 61q-29 21 -100 50q-173 71 -262 170q-91 100 -91 270q0 216 138 349q137 134 393 134q283 0 502 -135l-228 -334q-124 103 -278 103z" />
    <glyph glyph-name="scaron" unicode="&#x161;" horiz-adv-x="804" 
d="M655 1128h-301l-166 463h261l100 -196l168 196h260zM471 731q-63 0 -63 -39q0 -35 86 -59q130 -38 198 -104q68 -68 68 -201q0 -158 -122 -260q-121 -103 -327 -103q-233 0 -366 88l123 275q113 -78 245 -78q86 0 86 43q0 33 -71 51q-273 66 -275 303q0 162 114 265
q114 102 315 102t364 -84l-160 -262q-96 63 -215 63z" />
    <glyph glyph-name="uni0162" unicode="&#x162;" horiz-adv-x="1062" 
d="M655 0h-106l-57 -90q36 10 75 10q78 0 125 -46t47 -140q0 -156 -99 -235q-98 -79 -259 -79q-173 0 -268 70l98 199q17 -18 69 -39q53 -21 101 -21q98 0 98 72q0 43 -43 43q-35 0 -67 -33l-160 53l131 236h-86l176 1067h-311l61 360h1022l-59 -360h-312z" />
    <glyph glyph-name="uni0163" unicode="&#x163;" horiz-adv-x="763" 
d="M522 662l-41 -250q-18 -111 60 -111q68 0 145 41l8 -307q-82 -43 -170 -58l-73 -116q39 10 81 10q174 0 175 -180q0 -142 -101 -222q-101 -79 -254 -79q-184 0 -291 71l101 191q80 -53 182 -53q98 0 98 75q0 39 -39 39q-36 0 -65 -32l-160 55l123 233q-271 41 -209 398
l49 295h-86l47 317h93l47 289h383l-50 -289h213l-49 -317h-217z" />
    <glyph glyph-name="Tcaron" unicode="&#x164;" horiz-adv-x="1062" 
d="M862 1577h-301l-166 463h260l101 -197l168 197h260zM1202 1427l-59 -360h-312l-176 -1067h-401l176 1067h-311l61 360h1022z" />
    <glyph glyph-name="tcaron" unicode="&#x165;" horiz-adv-x="774" 
d="M754 1681h338l-199 -622h-223zM625 1268l-50 -289h213l-49 -317h-217l-41 -250q-18 -111 60 -111q68 0 145 41l8 -307q-136 -70 -321 -70q-350 0 -281 402l49 295h-86l47 317h93l47 289h383z" />
    <glyph glyph-name="Tbar" unicode="&#x166;" horiz-adv-x="1067" 
d="M1143 1067h-312l-47 -289h191l-55 -325h-191l-74 -453h-401l76 453h-191l56 325h188l47 289h-311l61 360h1022z" />
    <glyph glyph-name="tbar" unicode="&#x167;" horiz-adv-x="772" 
d="M748 756h-209l-17 -94h213l-37 -211h-211l-6 -39q-18 -111 60 -111q68 0 145 41l8 -307q-136 -70 -321 -70q-350 0 -281 402l14 84h-90l35 211h90l17 94h-95l39 223h93l47 289h383l-50 -289h213z" />
    <glyph glyph-name="Umacron" unicode="&#x16a;" horiz-adv-x="1357" 
d="M504 1626l53 318h733l-53 -318h-733zM604 -35q-289 0 -415 179q-126 178 -76 474l135 809h401l-143 -852q-39 -238 141 -237q195 0 234 242l141 847h399l-135 -825q-27 -159 -80.5 -278.5t-137.5 -199t-199 -119.5t-265 -40z" />
    <glyph glyph-name="umacron" unicode="&#x16b;" horiz-adv-x="1071" 
d="M1053 1516l-54 -318h-733l53 318h734zM705 979h380l-159 -979h-383l18 115q-109 -150 -313 -150q-125 0 -189 94q-65 93 -39 258l111 662h383l-92 -553q-20 -119 65 -119q73 0 119 82z" />
    <glyph glyph-name="Uring" unicode="&#x16e;" horiz-adv-x="1357" 
d="M608 1837q12 66 40.5 118t72.5 89t102.5 56.5t128.5 19.5q139 0 206 -78q67 -77 46 -205q-22 -124 -114 -201t-232 -77q-70 0 -122.5 19.5t-84.5 55.5t-43.5 87.5t0.5 115.5zM991 1837q8 43 -11 68.5t-58 25.5t-67 -25.5t-36 -68.5t11.5 -66.5t58.5 -23.5t67.5 23.5
t34.5 66.5zM604 -35q-289 0 -415 179q-126 178 -76 474l135 809h401l-143 -852q-39 -238 141 -237q195 0 234 242l141 847h399l-135 -825q-27 -159 -80.5 -278.5t-137.5 -199t-199 -119.5t-265 -40z" />
    <glyph glyph-name="uring" unicode="&#x16f;" horiz-adv-x="1071" 
d="M717 1145q-60 0 -107.5 16t-80.5 45.5t-50.5 71t-17.5 92.5q0 143 99 240q99 96 251 96q121 0 188 -64q66 -64 66 -165q0 -137 -97 -234q-98 -98 -251 -98zM782 1536q-50 0 -88 -39q-37 -38 -37 -98q0 -82 80 -82q29 0 53 9.5t42 27t28 42t10 54.5q0 42 -23 64t-65 22z
M705 979h380l-159 -979h-383l18 115q-109 -150 -313 -150q-125 0 -189 94q-65 93 -39 258l111 662h383l-92 -553q-20 -119 65 -119q73 0 119 82z" />
    <glyph glyph-name="Uhungarumlaut" unicode="&#x170;" horiz-adv-x="1357" 
d="M1077 2038l-293 -461h-229l162 461h360zM1585 2038l-426 -461h-260l311 461h375zM604 -35q-289 0 -415 179q-126 178 -76 474l135 809h401l-143 -852q-39 -238 141 -237q195 0 234 242l141 847h399l-135 -825q-27 -159 -80.5 -278.5t-137.5 -199t-199 -119.5t-265 -40z
" />
    <glyph glyph-name="uhungarumlaut" unicode="&#x171;" horiz-adv-x="1071" 
d="M838 1589l-291 -461h-232l164 461h359zM913 1128h-260l312 461h374zM606 389l99 590h380l-159 -979h-383l18 115q-109 -150 -313 -150q-125 0 -189 94q-65 93 -39 258l111 662h383l-92 -553q-20 -119 65 -119q73 0 119 82z" />
    <glyph glyph-name="Uogonek" unicode="&#x172;" horiz-adv-x="1357" 
d="M1022 1427h399l-135 -825q-73 -451 -375 -582q-260 -161 -260 -282q0 -61 60 -62q55 0 145 48l16 -244q-159 -76 -333 -76q-117 0 -175.5 53.5t-58.5 141.5q0 208 244 368q-260 18 -371 194q-112 174 -65 457l135 809h401l-143 -852q-39 -238 141 -237q195 0 234 242z
" />
    <glyph glyph-name="uogonek" unicode="&#x173;" horiz-adv-x="1071" 
d="M926 0q-241 -150 -258 -272q-10 -70 59 -70q59 0 145 47l15 -244q-152 -77 -332 -75q-133 0 -190 66q-58 67 -41 171q32 215 321 377h-102l18 115q-109 -150 -313 -150q-125 0 -189 94q-65 93 -39 258l111 662h383l-92 -553q-20 -119 65 -119q73 0 119 82l99 590h380z
" />
    <glyph glyph-name="Wcircumflex" unicode="&#x174;" horiz-adv-x="1964" 
d="M1241 1774l-168 -199h-260l322 463h301l166 -463h-259zM1673 1427h412l-547 -1427h-463l-33 485q-2 33 -3 84.5t-3 128.5q-1 38 -2 69t-2 54q-36 -113 -63.5 -190t-46.5 -119l-226 -512h-463l-38 1427h432l-43 -706q-2 -20 -4.5 -49t-5.5 -68q-4 -39 -6.5 -68t-4.5 -49
q14 38 36.5 96t53.5 136l301 706h381l51 -667q3 -70 4.5 -139.5t0.5 -141.5q49 149 75 248z" />
    <glyph glyph-name="wcircumflex" unicode="&#x175;" horiz-adv-x="1517" 
d="M901 1325l-168 -197h-260l322 463h301l166 -463h-261zM1190 979h397l-465 -979h-344l-41 489l-200 -489h-369l-76 979h383l-22 -604l219 596h297l35 -574z" />
    <glyph glyph-name="Ycircumflex" unicode="&#x176;" horiz-adv-x="1275" 
d="M899 1774l-168 -199h-260l322 463h301l166 -463h-259zM1415 1427l-575 -962l-76 -465h-402l78 465l-264 962h434l92 -575l283 575h430z" />
    <glyph glyph-name="ycircumflex" unicode="&#x177;" horiz-adv-x="1110" 
d="M680 1325l-168 -197h-260l321 463h301l166 -463h-260zM778 979h398l-801 -1487h-395l284 481l-180 1006h397l45 -559z" />
    <glyph glyph-name="Ydieresis" unicode="&#x178;" horiz-adv-x="1275" 
d="M588 1583q-83 0 -133 60q-49 58 -35 141q13 81 83 142q68 59 150 59q85 0 134 -58t34 -143q-17 -84 -83 -142q-68 -59 -150 -59zM1047 1583q-81 0 -131 60q-50 59 -35 141q13 81 83 142q68 59 150 59q84 0 132 -58t34 -143q-13 -83 -81 -142t-152 -59zM1415 1427
l-575 -962l-76 -465h-402l78 465l-264 962h434l92 -575l283 575h430z" />
    <glyph glyph-name="Zacute" unicode="&#x179;" horiz-adv-x="1132" 
d="M1335 2005l-461 -428h-296l348 428h409zM131 1067l59 360h1022l-55 -333l-625 -738l547 2l-61 -358h-1038l57 336l598 731h-504z" />
    <glyph glyph-name="zacute" unicode="&#x17a;" horiz-adv-x="854" 
d="M1018 1589l-359 -461h-258l242 461h375zM53 686l51 293h781l-45 -283l-389 -401h348l-47 -295h-793l47 291l373 395h-326z" />
    <glyph glyph-name="Zdotaccent" unicode="&#x17b;" horiz-adv-x="1132" 
d="M752 1585q-81 0 -131 60q-50 59 -35 141q13 81 83 143q68 60 150 60q83 0 133 -59q49 -59 35 -144q-13 -82 -82 -142q-70 -59 -153 -59zM1212 1427l-55 -333l-625 -738l547 2l-61 -358h-1038l57 336l598 731h-504l59 360h1022z" />
    <glyph glyph-name="zdotaccent" unicode="&#x17c;" horiz-adv-x="854" 
d="M539 1151q-82 0 -132 60q-51 59 -36 143q13 83 84 145q69 60 151 60q84 0 133 -60t35 -145q-13 -84 -82 -143q-69 -60 -153 -60zM885 979l-45 -283l-389 -401h348l-47 -295h-793l47 291l373 395h-326l51 293h781z" />
    <glyph glyph-name="Zcaron" unicode="&#x17d;" horiz-adv-x="1132" 
d="M897 1577h-301l-166 463h260l101 -197l167 197h261zM131 1067l59 360h1022l-55 -333l-625 -738l547 2l-61 -358h-1038l57 336l598 731h-504z" />
    <glyph glyph-name="zcaron" unicode="&#x17e;" horiz-adv-x="854" 
d="M684 1128h-301l-166 463h260l101 -196l167 196h261zM53 686l51 293h781l-45 -283l-389 -401h348l-47 -295h-793l47 291l373 395h-326z" />
    <glyph glyph-name="uni01CD" unicode="&#x1cd;" horiz-adv-x="1300" 
d="M963 1577h-301l-166 463h260l100 -197l168 197h260zM551 1427h467l186 -1427h-420l-20 254h-344l-94 -254h-396zM541 575h198l-32 443z" />
    <glyph glyph-name="uni01CE" unicode="&#x1ce;" horiz-adv-x="1140" 
d="M883 1128h-301l-166 463h260l100 -196l168 196h260zM776 899l27 80h358l-160 -979h-364l2 82q-129 -117 -305 -117q-144 0 -229 97q-87 96 -87 280q0 322 151 497q150 175 378 175q144 0 229 -115zM408 453q0 -139 112 -140q101 0 162 84l33 193q-35 86 -119 86t-136 -64
t-52 -159z" />
    <glyph glyph-name="uni01CF" unicode="&#x1cf;" horiz-adv-x="612" 
d="M635 1577h-301l-166 463h260l100 -197l168 197h260zM25 0l237 1427h400l-236 -1427h-401z" />
    <glyph glyph-name="uni01D0" unicode="&#x1d0;" horiz-adv-x="520" 
d="M520 1128h-301l-166 463h260l101 -196l168 196h260zM-10 0l162 979h380l-163 -979h-379z" />
    <glyph glyph-name="uni01D1" unicode="&#x1d1;" horiz-adv-x="1558" 
d="M1108 1577h-301l-166 463h260l100 -197l168 197h261zM944 1464q263 -1 441 -154q176 -153 176 -462q0 -376 -238 -629q-239 -254 -639 -254q-264 0 -439 154q-175 153 -175 454q0 376 243 632q242 257 631 259zM745 354q169 0 279 137q109 136 109 316q0 130 -66.5 200
t-183.5 70q-168 0 -275 -135q-108 -135 -108 -315q0 -136 65 -204.5t180 -68.5z" />
    <glyph glyph-name="uni01D2" unicode="&#x1d2;" horiz-adv-x="1101" 
d="M840 1128h-301l-166 463h260l100 -196l168 196h260zM657 1014q187 0 305 -103q119 -104 119 -317q0 -293 -176 -461q-175 -168 -442 -168q-204 0 -323 103q-120 102 -120 317q0 273 175 451t462 178zM705 512q8 76 -21.5 116t-83.5 44q-82 4 -139 -51q-58 -55 -66 -146
q-6 -78 22 -118t85 -44q80 -4 138 51t65 148z" />
    <glyph glyph-name="uni01D3" unicode="&#x1d3;" horiz-adv-x="1357" 
d="M1010 1577h-301l-166 463h260l100 -197l168 197h260zM1022 1427h399l-135 -825q-27 -159 -80.5 -278.5t-137.5 -199t-199 -119.5t-265 -40q-289 0 -415 179q-126 178 -76 474l135 809h401l-143 -852q-39 -238 141 -237q195 0 234 242z" />
    <glyph glyph-name="uni01D4" unicode="&#x1d4;" horiz-adv-x="1071" 
d="M795 1128h-301l-166 463h260l100 -196l168 196h260zM606 389l99 590h380l-159 -979h-383l18 115q-109 -150 -313 -150q-125 0 -189 94q-65 93 -39 258l111 662h383l-92 -553q-20 -119 65 -119q73 0 119 82z" />
    <glyph glyph-name="uni0218" unicode="&#x218;" horiz-adv-x="1107" 
d="M686 909q29 -13 52 -23.5t42 -18.5q35 -15 92 -57q55 -41 86 -84q32 -45 56 -114.5t24 -156.5q0 -223 -157 -356q-158 -134 -396 -134q-299 0 -499 158l159 375q60 -76 149.5 -118t188.5 -42q63 0 101.5 24t38.5 66q0 38 -29 61q-29 21 -100 50q-173 71 -262 170
q-91 100 -91 270q0 216 138 349q137 134 393 134q283 0 502 -135l-228 -334q-124 101 -278 103q-111 0 -111 -74q0 -36 27 -59q26 -22 102 -54zM485 -111q102 0 155 -74q52 -72 32 -192q-51 -283 -379 -418l-92 179q145 57 196 118q-35 3 -63.5 17.5t-47 39.5t-26 60
t-0.5 78q14 84 78 138q63 54 147 54z" />
    <glyph glyph-name="uni0219" unicode="&#x219;" horiz-adv-x="804" 
d="M494 633q130 -38 198 -104q68 -68 68 -201q0 -158 -122 -260q-121 -103 -327 -103q-233 0 -366 88l123 275q113 -78 245 -78q86 0 86 43q0 33 -71 51q-273 66 -275 303q0 162 114 265q114 102 315 102t364 -84l-160 -262q-96 63 -215 63q-63 0 -63 -39q0 -33 86 -59z
M315 -111q102 0 155 -74q52 -72 32 -192q-51 -283 -379 -418l-92 179q145 57 196 118q-35 3 -63.5 17.5t-47 39.5t-26 60t-0.5 78q14 84 78 138q63 54 147 54z" />
    <glyph glyph-name="uni021A" unicode="&#x21a;" horiz-adv-x="1062" 
d="M1202 1427l-59 -360h-312l-176 -1067h-401l176 1067h-311l61 360h1022zM432 -111q102 0 155 -74q52 -73 31 -192q-51 -283 -378 -418l-93 179q145 57 197 118q-35 3 -63.5 17.5t-47 39.5t-26 60t-0.5 78q14 84 78 138q63 54 147 54z" />
    <glyph glyph-name="uni021B" unicode="&#x21b;" horiz-adv-x="763" 
d="M522 662l-41 -250q-18 -111 60 -111q68 0 145 41l8 -307q-136 -70 -321 -70q-350 0 -281 402l49 295h-86l47 317h93l47 289h383l-50 -289h213l-49 -317h-217zM395 -111q102 0 155 -74q52 -72 32 -192q-51 -283 -379 -418l-92 179q145 57 196 118q-35 3 -63.5 17.5
t-47 39.5t-26 60t-0.5 78q14 84 78 138q63 54 147 54z" />
    <glyph glyph-name="uni0237" unicode="&#x237;" horiz-adv-x="530" 
d="M-176 -532l-49 319q182 5 213 184l164 1008h378l-161 -1016q-39 -245 -165 -360t-380 -135z" />
    <glyph glyph-name="circumflex" unicode="&#x2c6;" horiz-adv-x="1228" 
d="M938 1128h-260l-100 197l-168 -197h-260l321 463h301z" />
    <glyph glyph-name="caron" unicode="&#x2c7;" horiz-adv-x="1228" 
d="M754 1591h260l-322 -463h-301l-166 463h260l101 -196z" />
    <glyph glyph-name="breve" unicode="&#x2d8;" horiz-adv-x="1228" 
d="M227 1591h295q-10 -46 -12 -84t5 -67q14 -60 73 -60q60 0 89.5 54t45.5 157h297q-51 -457 -471 -456q-423 -2 -322 456z" />
    <glyph glyph-name="dotaccent" unicode="&#x2d9;" horiz-adv-x="1228" 
d="M220 1211q-50 59 -35 143q13 83 84 145q69 60 151 60q84 0 133 -60t35 -145q-15 -84 -83 -143q-69 -60 -153 -60q-82 0 -132 60z" />
    <glyph glyph-name="ring" unicode="&#x2da;" horiz-adv-x="1228" 
d="M412 1145q-60 0 -107.5 16t-80.5 45.5t-50.5 71t-17.5 92.5q0 143 99 240q99 96 251 96q121 0 188 -64q66 -64 66 -165q0 -137 -97 -234q-98 -98 -251 -98zM432 1317q29 0 53 9.5t42 27t28 42t10 54.5q0 42 -23 64t-65 22q-50 0 -88 -39q-37 -38 -37 -98q0 -82 80 -82z
" />
    <glyph glyph-name="ogonek" unicode="&#x2db;" horiz-adv-x="1228" 
d="M94 -569q-133 0 -191 66q-57 67 -40 171q22 146 164 270q141 123 428 228l10 -121q-241 -150 -258 -272q-10 -70 59 -70q58 0 146 47l14 -244q-151 -75 -332 -75z" />
    <glyph glyph-name="tilde" unicode="&#x2dc;" horiz-adv-x="1228" 
d="M485 1270q-25 0 -37 -32t-22 -105h-279q51 436 299 436q88 0 172 -88q54 -54 82 -56q29 0 43.5 31t26.5 109h277q-51 -437 -299 -439q-97 0 -185 88q-4 4 -13 13.5t-12 12.5t-10.5 10t-11.5 10q-7 4 -14 7t-17 3z" />
    <glyph glyph-name="hungarumlaut" unicode="&#x2dd;" horiz-adv-x="1228" 
d="M758 1589l-291 -461h-231l163 461h359zM1260 1589l-426 -461h-261l312 461h375z" />
    <glyph glyph-name="gravecomb" unicode="&#x300;" 
d="M55 1128h-258l-205 461h375z" />
    <glyph glyph-name="acutecomb" unicode="&#x301;" 
d="M223 1589l-358 -461h-258l241 461h375z" />
    <glyph glyph-name="uni0302" unicode="&#x302;" 
d="M70 1128h-260l-101 197l-168 -197h-260l322 463h301z" />
    <glyph glyph-name="tildecomb" unicode="&#x303;" 
d="M-442 1270q-25 0 -37.5 -32t-22.5 -105h-278q51 436 299 436q88 0 172 -88q54 -54 82 -56q29 0 43 31t26 109h277q-51 -437 -299 -439q-97 0 -185 88q-4 4 -13 13.5t-12 12.5t-10.5 10t-11.5 10q-8 4 -14.5 7t-15.5 3z" />
    <glyph glyph-name="uni0304" unicode="&#x304;" 
d="M-584 1516h734l-54 -318h-733z" />
    <glyph glyph-name="uni0306" unicode="&#x306;" 
d="M-649 1591h295q-10 -46 -12 -84t5 -67q13 -60 72 -60q60 0 89.5 54t45.5 157h297q-51 -457 -471 -456q-422 -1 -321 456z" />
    <glyph glyph-name="uni0307" unicode="&#x307;" 
d="M-261 1211q-50 59 -36 143q13 83 84 145q70 60 152 60q84 0 133 -60t35 -145q-15 -84 -83 -143q-69 -60 -153 -60q-83 0 -132 60z" />
    <glyph glyph-name="uni0308" unicode="&#x308;" 
d="M-725 1228q-49 57 -35 140q15 81 83 143q69 60 151 60q84 0 132 -59t34 -144q-13 -80 -82 -140q-68 -59 -152 -59q-81 0 -131 59zM-258 1228q-49 57 -35 140q13 81 83 143q69 60 151 60q84 0 132 -59q48 -60 33 -144q-13 -81 -81 -140q-70 -59 -152 -59q-81 0 -131 59z
" />
    <glyph glyph-name="uni030A" unicode="&#x30a;" 
d="M-195 1145q-60 0 -107.5 16t-80.5 45.5t-50.5 71t-17.5 92.5q0 143 99 240q100 96 252 96q121 0 188 -64q66 -64 66 -165q0 -137 -97 -234q-100 -98 -252 -98zM-174 1317q28 0 52.5 9.5t42.5 27t28 42t10 54.5q0 42 -23 64t-65 22q-51 0 -88 -39q-37 -38 -37 -98
q0 -82 80 -82z" />
    <glyph glyph-name="uni030B" unicode="&#x30b;" 
d="M-285 1589l-290 -461h-232l164 461h358zM217 1589l-426 -461h-260l311 461h375z" />
    <glyph glyph-name="uni030C" unicode="&#x30c;" 
d="M-117 1591h260l-321 -463h-301l-166 463h260l100 -196z" />
    <glyph glyph-name="uni0312" unicode="&#x312;" 
d="M-33 1493q62 0 105 -40t30 -122q-13 -91 -79 -140q-66 -48 -152 -48q-109 0 -156 68.5t-26 185.5q22 138 123 254q100 114 251 157l93 -178q-147 -57 -211 -139q8 2 22 2z" />
    <glyph glyph-name="uni0326" unicode="&#x326;" 
d="M-391 -111q101 0 154 -74t32 -192q-51 -283 -379 -418l-92 179q145 57 197 118q-71 6 -111 57q-41 53 -26 138q13 84 77 138t148 54z" />
    <glyph glyph-name="uni0327" unicode="&#x327;" 
d="M-279 -129q173 0 175 -180q0 -143 -102 -222q-100 -79 -253 -79q-184 0 -291 71l101 191q80 -53 182 -53q98 0 98 75q0 39 -39 39q-36 0 -65 -32l-160 55l154 293h225l-106 -168q39 10 81 10z" />
    <glyph glyph-name="uni0328" unicode="&#x328;" 
d="M-545 -569q-133 0 -191 66q-57 67 -40 171q22 146 164 270q141 123 428 228l10 -121q-241 -150 -258 -272q-10 -70 59 -70q58 0 146 47l14 -244q-152 -75 -332 -75z" />
    <glyph glyph-name="uni0335" unicode="&#x335;" 
d="M-840 395l56 326h780l-55 -326h-781z" />
    <glyph glyph-name="uni0336" unicode="&#x336;" 
 />
    <glyph glyph-name="uni0337" unicode="&#x337;" 
d="M-981 381l-98 311l866 316l119 -306z" />
    <glyph glyph-name="uni0338" unicode="&#x338;" 
d="M66 1319l-1321 -1391l-226 176l1309 1379z" />
    <glyph glyph-name="Wgrave" unicode="&#x1e80;" horiz-adv-x="1964" 
d="M1292 1577h-260l-207 461h373zM1673 1427h412l-547 -1427h-463l-33 485q-2 33 -3 84.5t-3 128.5q-1 38 -2 69t-2 54q-36 -113 -63.5 -190t-46.5 -119l-226 -512h-463l-38 1427h432l-43 -706q-2 -20 -4.5 -49t-5.5 -68q-4 -39 -6.5 -68t-4.5 -49q14 38 36.5 96t53.5 136
l301 706h381l51 -667q3 -70 4.5 -139.5t0.5 -141.5q49 149 75 248z" />
    <glyph glyph-name="wgrave" unicode="&#x1e81;" horiz-adv-x="1517" 
d="M993 1128h-258l-205 461h375zM1190 979h397l-465 -979h-344l-41 489l-200 -489h-369l-76 979h383l-22 -604l219 596h297l35 -574z" />
    <glyph glyph-name="Wacute" unicode="&#x1e82;" horiz-adv-x="1964" 
d="M1749 2005l-461 -428h-297l348 428h410zM1673 1427h412l-547 -1427h-463l-33 485q-2 33 -3 84.5t-3 128.5q-1 38 -2 69t-2 54q-36 -113 -63.5 -190t-46.5 -119l-226 -512h-463l-38 1427h432l-43 -706q-2 -20 -4.5 -49t-5.5 -68q-4 -39 -6.5 -68t-4.5 -49q14 38 36.5 96
t53.5 136l301 706h381l51 -667q3 -70 4.5 -139.5t0.5 -141.5q49 149 75 248z" />
    <glyph glyph-name="wacute" unicode="&#x1e83;" horiz-adv-x="1517" 
d="M1350 1589l-359 -461h-258l242 461h375zM1190 979h397l-465 -979h-344l-41 489l-200 -489h-369l-76 979h383l-22 -604l219 596h297l35 -574z" />
    <glyph glyph-name="Wdieresis" unicode="&#x1e84;" horiz-adv-x="1964" 
d="M930 1583q-83 0 -133 60q-49 58 -35 141q13 81 83 142q68 59 150 59q85 0 134 -58t34 -143q-17 -84 -83 -142q-68 -59 -150 -59zM1389 1583q-81 0 -131 60q-50 59 -35 141q13 81 83 142q68 59 150 59q84 0 132 -58t34 -143q-13 -83 -81 -142t-152 -59zM1673 1427h412
l-547 -1427h-463l-33 485q-2 33 -3 84.5t-3 128.5q-1 38 -2 69t-2 54q-36 -113 -63.5 -190t-46.5 -119l-226 -512h-463l-38 1427h432l-43 -706q-2 -20 -4.5 -49t-5.5 -68q-4 -39 -6.5 -68t-4.5 -49q14 38 36.5 96t53.5 136l301 706h381l51 -667q3 -70 4.5 -139.5t0.5 -141.5
q49 149 75 248z" />
    <glyph glyph-name="wdieresis" unicode="&#x1e85;" horiz-adv-x="1517" 
d="M637 1169q-81 0 -131 59q-49 57 -35 140q13 81 83 143q69 60 151 60q84 0 132 -59q48 -60 33 -144q-13 -81 -81 -140t-152 -59zM1104 1169q-81 0 -131 59q-49 57 -35 140q13 81 83 143q69 60 150 60q83 0 133 -59q48 -60 33 -144q-13 -81 -81 -140t-152 -59zM1190 979
h397l-465 -979h-344l-41 489l-200 -489h-369l-76 979h383l-22 -604l219 596h297l35 -574z" />
    <glyph glyph-name="Ygrave" unicode="&#x1ef2;" horiz-adv-x="1275" 
d="M950 1577h-260l-207 461h373zM1415 1427l-575 -962l-76 -465h-402l78 465l-264 962h434l92 -575l283 575h430z" />
    <glyph glyph-name="ygrave" unicode="&#x1ef3;" horiz-adv-x="1110" 
d="M772 1128h-258l-205 461h375zM778 979h398l-801 -1487h-395l284 481l-180 1006h397l45 -559z" />
    <glyph glyph-name="endash" unicode="&#x2013;" horiz-adv-x="1138" 
d="M51 395l51 326h1008l-51 -326h-1008z" />
    <glyph glyph-name="emdash" unicode="&#x2014;" horiz-adv-x="1404" 
d="M41 395l51 326h1274l-51 -326h-1274z" />
    <glyph glyph-name="quoteleft" unicode="&#x2018;" horiz-adv-x="501" 
d="M408 1221q57 -2 90.5 -38.5t33.5 -105.5q0 -88 -59 -145q-58 -58 -156 -58q-82 0 -127 56t-45 153q0 166 108 296q106 129 277 190l84 -166q-195 -46 -237 -184q5 1 13 1.5t18 0.5z" />
    <glyph glyph-name="quoteright" unicode="&#x2019;" horiz-adv-x="497" 
d="M424 1563q82 0 127 -56t45 -153q0 -165 -107 -296q-107 -130 -278 -190l-84 166q194 46 238 185q-5 -1 -12.5 -1.5t-18.5 -0.5q-57 2 -91 38t-34 105q0 88 60 146q59 57 155 57z" />
    <glyph glyph-name="quotedblleft" unicode="&#x201c;" horiz-adv-x="933" 
d="M408 1221q57 -2 90.5 -38.5t33.5 -105.5q0 -88 -59 -145q-58 -58 -156 -58q-82 0 -127 56t-45 153q0 166 108 296q106 129 277 190l84 -166q-195 -46 -237 -184q5 1 13 1.5t18 0.5zM844 1221q57 -2 91 -38.5t34 -105.5q0 -88 -59 -145q-59 -58 -156 -58q-82 0 -127 56
t-45 153q0 166 108 296q106 129 277 190l84 -166q-194 -46 -238 -184q5 1 13 1.5t18 0.5z" />
    <glyph glyph-name="quotedblright" unicode="&#x201d;" horiz-adv-x="933" 
d="M424 1563q82 0 127 -56t45 -153q0 -165 -107 -296q-107 -130 -278 -190l-84 166q194 46 238 185q-5 -1 -12.5 -1.5t-18.5 -0.5q-57 2 -91 38t-34 105q0 88 60 146q59 57 155 57zM860 1563q82 0 127 -56t45 -153q0 -165 -107 -296q-107 -130 -278 -190l-84 166
q194 46 238 185q-5 -1 -12.5 -1.5t-18.5 -0.5q-57 2 -91 38t-34 105q0 88 60 146q59 57 155 57z" />
    <glyph glyph-name="dagger" unicode="&#x2020;" horiz-adv-x="1228" 
 />
    <glyph glyph-name="daggerdbl" unicode="&#x2021;" horiz-adv-x="1228" 
 />
    <glyph glyph-name="bullet" unicode="&#x2022;" horiz-adv-x="681" 
d="M92 653q11 125 106 213q94 88 216 88q111 0 180 -73q68 -74 57 -179q-8 -125 -105 -212t-218 -87q-113 0 -178 72q-66 71 -58 178z" />
    <glyph glyph-name="ellipsis" unicode="&#x2026;" horiz-adv-x="1452" 
d="M-8 143q0 101 75 171q74 71 171 71q83 0 132 -51q50 -52 50 -127q0 -100 -76 -170t-172 -70q-81 0 -131 50q-49 49 -49 126zM461 143q0 101 75 171q74 71 171 71q83 0 132 -51q50 -52 50 -127q0 -100 -76 -170t-172 -70q-81 0 -131 50q-49 49 -49 126zM926 143
q0 101 75 171q74 71 170 71q82 0 133 -51q50 -52 50 -127q0 -100 -76 -170t-172 -70q-81 0 -131 50q-49 49 -49 126z" />
    <glyph glyph-name="perthousand" unicode="&#x2030;" horiz-adv-x="2449" 
d="M422 754q-145 0 -223 81q-78 80 -78 212q0 184 118 301q118 116 298 116q145 0 223 -80q78 -81 78 -213q0 -184 -119 -300q-118 -117 -297 -117zM305 0l799 1427h385l-799 -1427h-385zM455 999q60 0 96.5 39t36.5 99q0 42 -22.5 65t-61.5 23q-58 0 -96 -41
q-37 -40 -37 -97q0 -39 22.5 -63.5t61.5 -24.5zM1253 -35q-143 0 -222 82t-79 211q0 184 118 301q119 117 298 117q147 0 224 -80t77 -211q0 -186 -119 -303q-118 -117 -297 -117zM1991 -35q-145 0 -223 82q-78 83 -78 211q0 184 118 301q117 117 297 117q145 0 223 -80
q78 -79 78 -211q0 -186 -118 -303t-297 -117zM1286 211q60 0 96.5 38.5t36.5 98.5q0 42 -22.5 65t-61.5 23q-59 0 -95 -41q-36 -40 -36 -96q0 -39 21.5 -63.5t60.5 -24.5zM2023 211q30 0 54.5 10.5t42 28.5t27.5 43t10 55q0 42 -23 65t-61 23q-59 0 -95 -41q-36 -40 -36 -96
q0 -39 21 -63.5t60 -24.5z" />
    <glyph glyph-name="guilsinglleft" unicode="&#x2039;" horiz-adv-x="772" 
d="M745 1077l-59 -385l-321 -129l278 -137l-57 -360l-563 337l55 355z" />
    <glyph glyph-name="guilsinglright" unicode="&#x203a;" horiz-adv-x="772" 
d="M193 1077l565 -319l-56 -352l-669 -340l63 385l334 143l-291 129z" />
    <glyph glyph-name="fraction" unicode="&#x2044;" horiz-adv-x="1046" 
d="M1130 1427l-714 -1427h-424l715 1427h423z" />
    <glyph glyph-name="Euro" unicode="&#x20ac;" horiz-adv-x="1314" 
d="M780 354q204 0 355 148l94 -369q-89 -78 -239 -123q-151 -45 -298 -45q-118 0 -216 30t-183 93t-138 175.5t-63 266.5h-176l57 146h119q1 14 3.5 35.5t6.5 50.5h-116l63 143h90q82 244 287 401q206 156 522 156q301 0 467 -159l-233 -342q-101 119 -262 118
q-213 0 -326 -174h410l-64 -143h-408q-8 -45 -12 -86h408l-58 -146h-342q41 -176 252 -176z" />
    <glyph glyph-name="trademark" unicode="&#x2122;" horiz-adv-x="1490" 
d="M690 1200h-145l-84 -504h-262l84 504h-138l35 227h545zM1288 1427h289l-111 -731h-235l53 326l-135 -268h-152l-53 293l-53 -351h-225l120 731h279l65 -350z" />
    <glyph glyph-name="partialdiff" unicode="&#x2202;" horiz-adv-x="1228" 
 />
    <glyph glyph-name="emptyset" unicode="&#x2205;" horiz-adv-x="1228" 
 />
    <glyph glyph-name="product" unicode="&#x220f;" horiz-adv-x="1228" 
 />
    <glyph glyph-name="summation" unicode="&#x2211;" horiz-adv-x="1228" 
 />
    <glyph glyph-name="minus" unicode="&#x2212;" horiz-adv-x="1128" 
d="M158 846h929l-53 -334h-930z" />
    <glyph glyph-name="radical" unicode="&#x221a;" horiz-adv-x="1228" 
 />
    <glyph glyph-name="infinity" unicode="&#x221e;" horiz-adv-x="1228" 
 />
    <glyph glyph-name="integral" unicode="&#x222b;" horiz-adv-x="1228" 
 />
    <glyph glyph-name="approxequal" unicode="&#x2248;" horiz-adv-x="1228" 
 />
    <glyph glyph-name="notequal" unicode="&#x2260;" horiz-adv-x="1130" 
d="M1071 731h-268l-78 -135h324l-54 -336h-465l-127 -217l-272 117l57 100h-122l53 336h266l78 135h-322l54 334h462l115 199l272 -117l-47 -82h127z" />
    <glyph glyph-name="lessequal" unicode="&#x2264;" horiz-adv-x="1228" 
 />
    <glyph glyph-name="greaterequal" unicode="&#x2265;" horiz-adv-x="1228" 
 />
    <glyph glyph-name="lozenge" unicode="&#x25ca;" horiz-adv-x="1228" 
 />
    <glyph glyph-name="uniFB00" unicode="&#xfb00;" horiz-adv-x="1228" 
 />
    <glyph glyph-name="A.swash" horiz-adv-x="1736" 
d="M1229 0l-21 254h-344l-94 -254h-395l479 1104h-205q-289 0 -289 -193q0 -155 203 -153l-117 -281q-112 0 -195 39t-131 102t-71.5 133t-23.5 142q0 114 36 204.5t117 167.5t223.5 119.5t339.5 42.5h721l187 -1427h-420zM985 575h199l-33 443z" />
    <glyph glyph-name="AE.aalt" horiz-adv-x="1777" 
d="M1755 725h-495l-7 -51h349l-41 -268h-340l-9 -62h461l-49 -344h-850l17 131h-340l-84 -131h-408l666 1059h1175zM653 446h178l35 279h-35z" />
    <glyph glyph-name="Aacute.swash" horiz-adv-x="1736" 
d="M1710 2005l-461 -428h-297l348 428h410zM1462 1427l187 -1427h-420l-21 254h-344l-94 -254h-395l479 1104h-205q-289 0 -289 -193q0 -155 203 -153l-117 -281q-112 0 -195 39t-131 102t-71.5 133t-23.5 142q0 114 36 204.5t117 167.5t223.5 119.5t339.5 42.5h721z
M985 575h199l-33 443z" />
    <glyph glyph-name="Abreve.swash" horiz-adv-x="1736" 
d="M1130 1579q-421 0 -321 457h297q-7 -45 -10.5 -84t2.5 -67t23 -44t50 -16q60 0 89.5 54t46.5 157h295q-52 -457 -472 -457zM1229 0l-21 254h-344l-94 -254h-395l479 1104h-205q-289 0 -289 -193q0 -155 203 -153l-117 -281q-112 0 -195 39t-131 102t-71.5 133t-23.5 142
q0 114 36 204.5t117 167.5t223.5 119.5t339.5 42.5h721l187 -1427h-420zM985 575h199l-33 443z" />
    <glyph glyph-name="Acircumflex.swash" horiz-adv-x="1736" 
d="M1202 1774l-168 -199h-260l322 463h301l166 -463h-258zM1229 0l-21 254h-344l-94 -254h-395l479 1104h-205q-289 0 -289 -193q0 -155 203 -153l-117 -281q-112 0 -195 39t-131 102t-71.5 133t-23.5 142q0 114 36 204.5t117 167.5t223.5 119.5t339.5 42.5h721l187 -1427
h-420zM985 575h199l-33 443z" />
    <glyph glyph-name="Adieresis.swash" horiz-adv-x="1736" 
d="M891 1583q-83 0 -133 60q-49 58 -35 141q13 81 83 142q68 59 150 59q85 0 134 -58t34 -143q-17 -84 -83 -142q-68 -59 -150 -59zM1350 1583q-81 0 -131 60q-50 59 -35 141q13 81 83 142q68 59 150 59q84 0 132 -58t34 -143q-13 -83 -81 -142t-152 -59zM1229 0l-21 254
h-344l-94 -254h-395l479 1104h-205q-289 0 -289 -193q0 -155 203 -153l-117 -281q-112 0 -195 39t-131 102t-71.5 133t-23.5 142q0 114 36 204.5t117 167.5t223.5 119.5t339.5 42.5h721l187 -1427h-420zM985 575h199l-33 443z" />
    <glyph glyph-name="Agrave.swash" horiz-adv-x="1736" 
d="M1253 1577h-260l-207 461h373zM1229 0l-21 254h-344l-94 -254h-395l479 1104h-205q-289 0 -289 -193q0 -155 203 -153l-117 -281q-112 0 -195 39t-131 102t-71.5 133t-23.5 142q0 114 36 204.5t117 167.5t223.5 119.5t339.5 42.5h721l187 -1427h-420zM985 575h199
l-33 443z" />
    <glyph glyph-name="Amacron.swash" horiz-adv-x="1736" 
d="M1552 1944l-53 -318h-733l53 318h733zM1229 0l-21 254h-344l-94 -254h-395l479 1104h-205q-289 0 -289 -193q0 -155 203 -153l-117 -281q-112 0 -195 39t-131 102t-71.5 133t-23.5 142q0 114 36 204.5t117 167.5t223.5 119.5t339.5 42.5h721l187 -1427h-420zM985 575h199
l-33 443z" />
    <glyph glyph-name="Aogonek.swash" horiz-adv-x="1736" 
d="M1507 -342q54 0 146 47l16 -244q-160 -76 -334 -75q-117 0 -175 53t-58 141q0 244 330 420h-203l-21 254h-344l-94 -254h-395l479 1104h-205q-289 0 -289 -193q0 -155 203 -153l-117 -281q-112 0 -195 39t-131 102t-71.5 133t-23.5 142q0 114 36 204.5t117 167.5
t223.5 119.5t339.5 42.5h721l183 -1394l63 -31q-260 -161 -260 -283q0 -61 59 -61zM985 575h199l-33 443z" />
    <glyph glyph-name="Aring.swash" horiz-adv-x="1736" 
d="M1353 1636q-92 -77 -232 -77q-142 0 -207 75q-66 74 -44 203q12 66 40.5 118t72.5 89t102.5 56.5t128.5 19.5q139 0 206 -78q67 -77 46 -205q-22 -124 -113 -201zM1118 1906q-28 -25 -36 -69q-9 -43 11 -66q20 -24 58 -24q39 0 67.5 23.5t34.5 66.5q8 43 -11 68.5
t-58 25.5q-40 0 -66 -25zM1229 0l-21 254h-344l-94 -254h-395l479 1104h-205q-289 0 -289 -193q0 -155 203 -153l-117 -281q-112 0 -195 39t-131 102t-71.5 133t-23.5 142q0 114 36 204.5t117 167.5t223.5 119.5t339.5 42.5h721l187 -1427h-420zM985 575h199l-33 443z" />
    <glyph glyph-name="Atilde.swash" horiz-adv-x="1736" 
d="M1042 1663q-56 0 -75 -139h-279q51 438 299 438q45 2 84 -21t72.5 -50.5t60 -50.5t45.5 -21q57 0 78 137h279q-51 -438 -308 -438q-54 0 -104 36q-49 35 -87 72q-37 37 -65 37zM1229 0l-21 254h-344l-94 -254h-395l479 1104h-205q-289 0 -289 -193q0 -155 203 -153
l-117 -281q-112 0 -195 39t-131 102t-71.5 133t-23.5 142q0 114 36 204.5t117 167.5t223.5 119.5t339.5 42.5h721l187 -1427h-420zM985 575h199l-33 443z" />
    <glyph glyph-name="B.swash" horiz-adv-x="1779" 
d="M1520 754q238 -45 237 -277q0 -130 -51.5 -224t-143.5 -148t-198 -79.5t-227 -25.5h-602l184 1104h-78q-293 0 -293 -201q0 -158 215 -158l-47 -280q-237 0 -370 118q-134 117 -134 318q0 106 36 194.5t117 166.5t232 121.5t363 43.5h657q373 0 373 -290
q0 -66 -18.5 -125t-53.5 -108.5t-85 -87.5t-113 -62zM1376 987q0 94 -119 94h-143l-39 -233h144q36 0 65 10.5t49.5 29.5t31.5 44t11 55zM1188 356q38 0 70 10t55 29t36 47t13 64q0 100 -127 100h-199l-41 -250h193z" />
    <glyph glyph-name="C.swash" horiz-adv-x="1343" 
d="M657 -76q-285 0 -438 159t-153 452q0 398 239 663q239 264 613 264q87 0 158 -20.5t136 -65.5t100.5 -129.5t35.5 -204.5q0 -125 -45 -284h-353q43 93 43 170q0 69 -37.5 107t-101.5 38q-165 0 -263 -146q-97 -146 -97 -333q0 -138 70 -211.5t202 -73.5q224 0 387 168
l119 -346q-97 -91 -263 -150q-166 -57 -352 -57z" />
    <glyph glyph-name="Cacute.swash" horiz-adv-x="1343" 
d="M1513 2005l-460 -428h-297l348 428h409zM657 -76q-285 0 -438 159t-153 452q0 398 239 663q239 264 613 264q87 0 158 -20.5t136 -65.5t100.5 -129.5t35.5 -204.5q0 -125 -45 -284h-353q43 93 43 170q0 69 -37.5 107t-101.5 38q-165 0 -263 -146q-97 -146 -97 -333
q0 -138 70 -211.5t202 -73.5q224 0 387 168l119 -346q-97 -91 -263 -150q-166 -57 -352 -57z" />
    <glyph glyph-name="Ccaron.swash" horiz-adv-x="1343" 
d="M1075 1577h-301l-166 463h260l101 -197l168 197h260zM918 1462q87 0 158 -20.5t136 -65.5t100.5 -129.5t35.5 -204.5q0 -125 -45 -284h-353q43 93 43 170q0 69 -37.5 107t-101.5 38q-165 0 -263 -146q-97 -146 -97 -333q0 -138 70 -211.5t202 -73.5q224 0 387 168
l119 -346q-97 -91 -263 -150q-165 -57 -352 -57q-285 0 -438 159t-153 452q0 398 239 663q239 264 613 264z" />
    <glyph glyph-name="Ccedilla.swash" horiz-adv-x="1343" 
d="M1303 758h-353q43 93 43 170q0 69 -37.5 107t-101.5 38q-165 0 -263 -146q-97 -146 -97 -333q0 -138 70 -211.5t202 -73.5q224 0 387 168l119 -346q-85 -79 -226 -135q-71 -28 -146.5 -44.5t-156.5 -23.5l-43 -67q36 10 76 10q78 0 125 -46t47 -140q0 -156 -99 -235
q-98 -79 -259 -79q-173 0 -268 70l98 199q17 -18 69 -39q53 -21 101 -21q98 0 98 72q0 43 -43 43q-35 0 -67 -33l-160 53l121 217q-230 33 -351.5 186.5t-121.5 416.5q0 398 239 663q239 264 613 264q87 0 158 -20.5t136 -65.5t100.5 -129.5t35.5 -204.5q0 -123 -45 -284z
" />
    <glyph glyph-name="Cdotaccent.swash" horiz-adv-x="1343" 
d="M799 1645q-49 58 -35 141q13 81 83 143q68 60 150 60q84 0 134 -59q49 -59 35 -144q-15 -83 -83 -142q-70 -59 -153 -59q-81 0 -131 60zM657 -76q-285 0 -438 159t-153 452q0 398 239 663q239 264 613 264q87 0 158 -20.5t136 -65.5t100.5 -129.5t35.5 -204.5
q0 -125 -45 -284h-353q43 93 43 170q0 69 -37.5 107t-101.5 38q-165 0 -263 -146q-97 -146 -97 -333q0 -138 70 -211.5t202 -73.5q224 0 387 168l119 -346q-97 -91 -263 -150q-166 -57 -352 -57z" />
    <glyph glyph-name="D.swash" horiz-adv-x="1918" 
d="M1290 1427q299 0 467 -138t168 -423q0 -397 -237 -631q-238 -235 -613 -235h-530l184 1104h-96q-291 0 -291 -201q0 -158 213 -158l-45 -280q-237 0 -370 118q-134 117 -134 318q0 106 35.5 194.5t116.5 166.5t232.5 121.5t363.5 43.5h536zM1071 367q183 0 304 118
q122 117 122 336q0 131 -68.5 189.5t-207.5 58.5h-99l-114 -702h63z" />
    <glyph glyph-name="Dcaron.swash" horiz-adv-x="1918" 
d="M1524 1577h-301l-166 463h260l100 -197l168 197h260zM1290 1427q299 0 467 -138t168 -423q0 -397 -237 -631q-238 -235 -613 -235h-530l184 1104h-96q-291 0 -291 -201q0 -158 213 -158l-45 -280q-237 0 -370 118q-134 117 -134 318q0 106 35.5 194.5t116.5 166.5
t232.5 121.5t363.5 43.5h536zM1071 367q183 0 304 118q122 117 122 336q0 131 -68.5 189.5t-207.5 58.5h-99l-114 -702h63z" />
    <glyph glyph-name="Dcroat.swash" horiz-adv-x="1398" 
d="M770 1427q299 0 467 -138t168 -423q0 -397 -237 -631q-238 -235 -613 -235h-530l96 578h-78l55 325h76l88 524h508zM551 367q183 0 304 118q122 117 122 336q0 131 -68.5 189.5t-208.5 58.5h-98l-27 -166h209l-55 -325h-207l-35 -211h64z" />
    <glyph glyph-name="E.swash" horiz-adv-x="1691" 
d="M1753 1069h-586l-26 -172h430l-53 -322h-433l-34 -213h585l-61 -362h-985l182 1104h-131q-293 0 -293 -201q0 -158 215 -158l-45 -280q-237 0 -371 118q-135 117 -135 318q0 106 36 194.5t117 166.5t232 121.5t363 43.5h1050z" />
    <glyph glyph-name="Eacute.swash" horiz-adv-x="1691" 
d="M1493 2005l-461 -428h-297l348 428h410zM1753 1069h-586l-26 -172h430l-53 -322h-433l-34 -213h585l-61 -362h-985l182 1104h-131q-293 0 -293 -201q0 -158 215 -158l-45 -280q-237 0 -371 118q-135 117 -135 318q0 106 36 194.5t117 166.5t232 121.5t363 43.5h1050z" />
    <glyph glyph-name="Ecaron.swash" horiz-adv-x="1691" 
d="M1055 1577h-301l-166 463h260l100 -197l168 197h260zM1753 1069h-586l-26 -172h430l-53 -322h-433l-34 -213h585l-61 -362h-985l182 1104h-131q-293 0 -293 -201q0 -158 215 -158l-45 -280q-237 0 -371 118q-135 117 -135 318q0 106 36 194.5t117 166.5t232 121.5
t363 43.5h1050z" />
    <glyph glyph-name="Ecircumflex.swash" horiz-adv-x="1691" 
d="M985 1774l-168 -199h-260l322 463h301l166 -463h-259zM1753 1069h-586l-26 -172h430l-53 -322h-433l-34 -213h585l-61 -362h-985l182 1104h-131q-293 0 -293 -201q0 -158 215 -158l-45 -280q-237 0 -371 118q-135 117 -135 318q0 106 36 194.5t117 166.5t232 121.5
t363 43.5h1050z" />
    <glyph glyph-name="Edieresis.swash" horiz-adv-x="1691" 
d="M674 1583q-83 0 -133 60q-49 58 -35 141q13 81 83 142q68 59 150 59q85 0 134 -58t34 -143q-17 -84 -83 -142q-68 -59 -150 -59zM1133 1583q-81 0 -131 60q-50 59 -35 141q13 81 83 142q68 59 150 59q84 0 132 -58t34 -143q-13 -83 -81 -142t-152 -59zM1753 1069h-586
l-26 -172h430l-53 -322h-433l-34 -213h585l-61 -362h-985l182 1104h-131q-293 0 -293 -201q0 -158 215 -158l-45 -280q-237 0 -371 118q-135 117 -135 318q0 106 36 194.5t117 166.5t232 121.5t363 43.5h1050z" />
    <glyph glyph-name="Edotaccent.swash" horiz-adv-x="1691" 
d="M909 1585q-81 0 -131 60q-49 58 -34 141q13 81 83 143q68 60 150 60q83 0 133 -59q49 -59 35 -144q-15 -83 -83 -142q-70 -59 -153 -59zM1753 1069h-586l-26 -172h430l-53 -322h-433l-34 -213h585l-61 -362h-985l182 1104h-131q-293 0 -293 -201q0 -158 215 -158
l-45 -280q-237 0 -371 118q-135 117 -135 318q0 106 36 194.5t117 166.5t232 121.5t363 43.5h1050z" />
    <glyph glyph-name="Egrave.swash" horiz-adv-x="1691" 
d="M1036 1577h-260l-207 461h373zM1753 1069h-586l-26 -172h430l-53 -322h-433l-34 -213h585l-61 -362h-985l182 1104h-131q-293 0 -293 -201q0 -158 215 -158l-45 -280q-237 0 -371 118q-135 117 -135 318q0 106 36 194.5t117 166.5t232 121.5t363 43.5h1050z" />
    <glyph glyph-name="Emacron.swash" horiz-adv-x="1691" 
d="M1335 1944l-53 -318h-733l53 318h733zM1753 1069h-586l-26 -172h430l-53 -322h-433l-34 -213h585l-61 -362h-985l182 1104h-131q-293 0 -293 -201q0 -158 215 -158l-45 -280q-237 0 -371 118q-135 117 -135 318q0 106 36 194.5t117 166.5t232 121.5t363 43.5h1050z" />
    <glyph glyph-name="Eng.aalt" horiz-adv-x="1232" 
d="M883 1059h352l-180 -1055q-71 -410 -434 -410q-181 0 -297 68l116 289q59 -45 138 -45q93 0 122 80l-245 454l-74 -440h-356l174 1059h362l246 -457z" />
    <glyph glyph-name="Eogonek.swash" horiz-adv-x="1757" 
d="M1753 1069h-586l-26 -172h430l-53 -322h-433l-34 -213h585l-61 -362q-260 -161 -260 -283q0 -61 59 -61q54 0 146 47l16 -244q-160 -76 -334 -75q-117 0 -175 53t-58 141q0 247 334 422h-713l182 1104h-131q-293 0 -293 -201q0 -158 215 -158l-45 -280q-237 0 -371 118
q-135 117 -135 318q0 106 36 194.5t117 166.5t232 121.5t363 43.5h1050z" />
    <glyph glyph-name="Eth.swash" horiz-adv-x="2043" 
d="M1415 1427q299 0 467 -138t168 -423q0 -397 -237 -631q-238 -235 -613 -235h-530l92 553h-131l55 326h129l39 225h-96q-352 0 -352 -250q0 -97 53 -156t131 -59l-47 -283q-221 0 -347 136q-126 135 -126 360q0 115 38.5 212t126.5 182t251.5 133t392.5 48h536zM1196 367
q183 0 304 118q122 117 122 336q0 131 -68.5 189.5t-207.5 58.5h-99l-30 -190h249l-55 -326h-248l-30 -186h63z" />
    <glyph glyph-name="F.c2sc" horiz-adv-x="1001" 
d="M1026 705h-491l-21 -123h348l-41 -320h-360l-43 -262h-393l174 1059h872z" />
    <glyph glyph-name="F.swash" horiz-adv-x="1677" 
d="M1757 1067h-565l-33 -195h416l-55 -329h-414l-90 -543h-402l183 1104h-121q-291 0 -291 -201q0 -158 215 -158l-45 -280q-239 0 -372 118q-134 117 -134 318q0 106 35.5 194.5t116.5 166.5t232.5 121.5t363.5 43.5h1020z" />
    <glyph glyph-name="G.salt" horiz-adv-x="1404" 
d="M852 846h661l-24 -164q-109 -717 -789 -717q-247 0 -407 149q-160 148 -160 453q0 179 56.5 338t163.5 285q108 126 276 199t383 73q140 0 273 -45q135 -45 206 -121l-272 -311q-101 100 -265 100q-181 0 -291 -138q-110 -139 -110 -322q0 -128 58 -198.5t161 -70.5
q190 0 262 154h-237z" />
    <glyph glyph-name="G.swash" horiz-adv-x="1398" 
d="M950 627h402l-76 -480q-31 -198 -102 -334.5t-176 -210.5t-222 -105.5t-260 -31.5q-158 0 -310 50q-149 50 -206 110l147 338q128 -137 377 -137q128 0 211 49q84 49 123 180q-118 -51 -274 -51q-249 0 -400 146q-151 145 -151 393q0 399 236 659t618 260q457 0 456 -391
q0 -113 -34 -248h-377q18 68 18 119q0 135 -153 135q-156 0 -249 -131q-93 -130 -93 -297q0 -260 241 -260q129 0 228 66z" />
    <glyph glyph-name="Gbreve.salt" horiz-adv-x="1404" 
d="M979 1579q-422 0 -322 457h297q-7 -45 -10 -84t3 -67t23 -44t50 -16q60 0 89.5 54t45.5 157h295q-51 -457 -471 -457zM852 846h661l-24 -164q-109 -717 -789 -717q-247 0 -407 149q-160 148 -160 453q0 179 56.5 338t163.5 285q108 126 276 199t383 73q140 0 273 -45
q135 -45 206 -121l-272 -311q-101 100 -265 100q-181 0 -291 -138q-110 -139 -110 -322q0 -128 58 -198.5t161 -70.5q190 0 262 154h-237z" />
    <glyph glyph-name="Gbreve.swash" horiz-adv-x="1398" 
d="M944 1579q-421 0 -321 457h297q-9 -45 -12 -84t3 -67.5t23.5 -44t50.5 -15.5q60 0 89.5 54t45.5 157h295q-51 -457 -471 -457zM924 455l26 172h402l-76 -480q-31 -198 -102 -334.5t-176 -210.5t-222 -105.5t-260 -31.5q-158 0 -310 50q-149 50 -206 110l147 338
q128 -137 377 -137q128 0 211 49q84 49 123 180q-118 -51 -274 -51q-249 0 -400 146q-151 145 -151 393q0 399 236 659t618 260q457 0 456 -391q0 -113 -34 -248h-377q18 68 18 119q0 135 -153 135q-156 0 -249 -131q-93 -130 -93 -297q0 -260 241 -260q131 0 228 66z" />
    <glyph glyph-name="Gdotaccent.salt" horiz-adv-x="1404" 
d="M975 1585q-81 0 -131 60q-49 58 -35 141q13 81 83 143q69 60 150 60q84 0 134 -59q49 -59 35 -144q-15 -83 -83 -142q-70 -59 -153 -59zM852 846h661l-24 -164q-109 -717 -789 -717q-247 0 -407 149q-160 148 -160 453q0 179 56.5 338t163.5 285q108 126 276 199t383 73
q140 0 273 -45q135 -45 206 -121l-272 -311q-101 100 -265 100q-181 0 -291 -138q-110 -139 -110 -322q0 -128 58 -198.5t161 -70.5q190 0 262 154h-237z" />
    <glyph glyph-name="Gdotaccent.swash" horiz-adv-x="1398" 
d="M940 1585q-81 0 -131 60q-49 58 -35 141q13 81 83 143q69 60 151 60q83 0 133 -59q49 -59 35 -144q-15 -83 -83 -142q-70 -59 -153 -59zM950 627h402l-76 -480q-31 -198 -102 -334.5t-176 -210.5t-222 -105.5t-260 -31.5q-158 0 -310 50q-149 50 -206 110l147 338
q128 -137 377 -137q128 0 211 49q84 49 123 180q-118 -51 -274 -51q-249 0 -400 146q-151 145 -151 393q0 399 236 659t618 260q457 0 456 -391q0 -113 -34 -248h-377q18 68 18 119q0 135 -153 135q-156 0 -249 -131q-93 -130 -93 -297q0 -260 241 -260q129 0 228 66z" />
    <glyph glyph-name="H.swash" horiz-adv-x="1931" 
d="M1581 1427h399l-235 -1427h-399l90 547h-373l-90 -547h-402l185 1104h-80q-291 0 -291 -201q0 -158 215 -158l-45 -280q-239 0 -372 118q-134 117 -134 318q0 106 35.5 194.5t116.5 166.5t232.5 121.5t363.5 43.5h411l-86 -516h373z" />
    <glyph glyph-name="Hbar.aalt" horiz-adv-x="1261" 
d="M1305 979l-52 -299h-57l-113 -680h-391l45 270h-274l-45 -270h-393l112 680h-57l49 299h59l13 80h393l-12 -80h272l12 80h391l-12 -80h60zM793 608l12 72h-275l-12 -72h275z" />
    <glyph glyph-name="I.c2sc" horiz-adv-x="595" 
d="M590 1059l-174 -1059h-391l174 1059h391z" />
    <glyph glyph-name="I.swash" horiz-adv-x="1171" 
d="M1221 1427l-236 -1427h-401l184 1104h-82q-293 0 -293 -201q0 -158 215 -158l-45 -280q-237 0 -370 118q-134 117 -134 318q0 106 35.5 194.5t116.5 166.5t231.5 121.5t362.5 43.5h416z" />
    <glyph glyph-name="Iacute.swash" horiz-adv-x="1171" 
d="M1632 2005l-461 -428h-297l349 428h409zM1221 1427l-236 -1427h-401l184 1104h-82q-293 0 -293 -201q0 -158 215 -158l-45 -280q-237 0 -370 118q-134 117 -134 318q0 106 35.5 194.5t116.5 166.5t231.5 121.5t362.5 43.5h416z" />
    <glyph glyph-name="Icircumflex.swash" horiz-adv-x="1171" 
d="M1319 2038l166 -463h-258l-103 199l-168 -199h-260l322 463h301zM1221 1427l-236 -1427h-401l184 1104h-82q-293 0 -293 -201q0 -158 215 -158l-45 -280q-237 0 -370 118q-134 117 -134 318q0 106 35.5 194.5t116.5 166.5t231.5 121.5t362.5 43.5h416z" />
    <glyph glyph-name="Idieresis.swash" horiz-adv-x="1171" 
d="M813 1583q-83 0 -133 60q-49 58 -35 141q13 81 83 142q70 59 151 59q84 0 133 -58t35 -143q-16 -83 -84 -142t-150 -59zM1339 1985q84 0 133 -58q48 -58 34 -143q-15 -84 -82 -142q-68 -59 -152 -59q-81 0 -131 60q-49 58 -35 141q13 81 83 142q68 59 150 59zM1221 1427
l-236 -1427h-401l184 1104h-82q-293 0 -293 -201q0 -158 215 -158l-45 -280q-237 0 -370 118q-134 117 -134 318q0 106 35.5 194.5t116.5 166.5t231.5 121.5t362.5 43.5h416z" />
    <glyph glyph-name="Idotaccent.c2sc" horiz-adv-x="595" 
d="M294 1291q-50 59 -36 143t84 144q71 60 152 60q84 0 133 -60q49 -59 35 -144q-15 -84 -83 -143q-69 -60 -153 -60q-82 0 -132 60zM590 1059l-174 -1059h-391l174 1059h391z" />
    <glyph glyph-name="Idotaccent.swash" horiz-adv-x="1171" 
d="M1116 1989q83 0 133 -59q49 -59 35 -144q-13 -82 -82 -142q-70 -59 -153 -59q-81 0 -131 60q-50 59 -35 141q13 81 83 143q68 60 150 60zM1221 1427l-236 -1427h-401l184 1104h-82q-293 0 -293 -201q0 -158 215 -158l-45 -280q-237 0 -370 118q-134 117 -134 318
q0 106 35.5 194.5t116.5 166.5t231.5 121.5t362.5 43.5h416z" />
    <glyph glyph-name="Igrave.swash" horiz-adv-x="1171" 
d="M1176 1577h-261l-206 461h372zM1221 1427l-236 -1427h-401l184 1104h-82q-293 0 -293 -201q0 -158 215 -158l-45 -280q-237 0 -370 118q-134 117 -134 318q0 106 35.5 194.5t116.5 166.5t231.5 121.5t362.5 43.5h416z" />
    <glyph glyph-name="Imacron.swash" horiz-adv-x="1171" 
d="M741 1944h734l-54 -318h-733zM1221 1427l-236 -1427h-401l184 1104h-82q-293 0 -293 -201q0 -158 215 -158l-45 -280q-237 0 -370 118q-134 117 -134 318q0 106 35.5 194.5t116.5 166.5t231.5 121.5t362.5 43.5h416z" />
    <glyph glyph-name="Iogonek.swash" horiz-adv-x="1171" 
d="M985 0q-260 -161 -260 -283q0 -61 59 -61q54 0 146 47l16 -244q-160 -76 -334 -75q-117 0 -175 53t-58 141q0 247 334 422h-129l184 1104h-82q-293 0 -293 -201q0 -158 215 -158l-45 -280q-237 0 -370 118q-134 117 -134 318q0 106 35.5 194.5t116.5 166.5t231.5 121.5
t362.5 43.5h416z" />
    <glyph glyph-name="J.c2sc" horiz-adv-x="886" 
d="M281 -33q-190 0 -330 74l119 350q74 -66 170 -65q135 0 161 155l103 578h389l-107 -647q-39 -243 -165 -343q-127 -102 -340 -102z" />
    <glyph glyph-name="J.swash" horiz-adv-x="1251" 
d="M1319 1427l-176 -1103q-29 -175 -82 -307t-120 -214q-68 -84 -155 -132q-88 -50 -177 -68.5t-193 -18.5q-224 0 -363 119q-139 118 -139 336q0 286 194 455q194 170 519 168l-52 -336q-140 2 -215 -65q-77 -68 -77 -181q0 -160 163 -160q117 0 190 91q74 92 105 311
l121 757h-418l56 348h819z" />
    <glyph glyph-name="K.swash" horiz-adv-x="1878" 
d="M2019 1427l-477 -522l234 -905h-471l-115 520l-123 -135l-63 -385h-402l184 1104h-96q-291 0 -291 -201q0 -158 215 -158l-47 -280q-237 0 -370 118q-134 117 -134 318q0 106 35.5 194.5t116.5 166.5t232.5 121.5t363.5 43.5h428l-76 -456l393 456h463z" />
    <glyph glyph-name="L.swash" horiz-adv-x="1558" 
d="M1028 367h483l-59 -367h-885l185 1104h-115q-293 0 -293 -201q0 -158 215 -158l-45 -280q-237 0 -370 118q-134 117 -134 318q0 106 35.5 194.5t116.5 166.5t231.5 121.5t362.5 43.5h450z" />
    <glyph glyph-name="Lacute.swash" horiz-adv-x="1558" 
d="M1626 2005l-461 -428h-297l349 428h409zM1206 1427l-178 -1060h483l-59 -367h-885l185 1104h-115q-293 0 -293 -201q0 -158 215 -158l-45 -280q-237 0 -370 118q-134 117 -134 318q0 106 35.5 194.5t116.5 166.5t231.5 121.5t362.5 43.5h450z" />
    <glyph glyph-name="Lcaron.swash" horiz-adv-x="1558" 
d="M1188 1577h-301l-166 463h260l100 -197l168 197h260zM1028 367h483l-59 -367h-885l185 1104h-115q-293 0 -293 -201q0 -158 215 -158l-45 -280q-237 0 -370 118q-134 117 -134 318q0 106 35.5 194.5t116.5 166.5t231.5 121.5t362.5 43.5h450z" />
    <glyph glyph-name="Lslash.swash" horiz-adv-x="1669" 
d="M1141 367h483l-59 -367h-885l86 518l-68 -24l-98 311l227 82l37 217h-116q-344 0 -345 -277q0 -215 213 -215l-45 -280q-235 0 -369 134t-134 359q0 121 37 222t124 191t248.5 139.5t390.5 49.5h451l-64 -385l211 78l119 -305l-393 -141z" />
    <glyph glyph-name="M.swash" horiz-adv-x="2306" 
d="M1860 1427h477l-217 -1427h-385l116 705l-317 -592h-291l-131 632l-117 -745h-362l182 1104h-113q-291 0 -290 -201q0 -158 215 -158l-47 -280q-237 0 -370 118q-134 117 -134 318q0 106 35.5 194.5t116.5 166.5t232 121.5t363 43.5h525l147 -698z" />
    <glyph glyph-name="N.swash" horiz-adv-x="1953" 
d="M1640 1427h365l-238 -1427h-374l-291 707l-117 -707h-367l185 1104h-101q-291 0 -290 -201q0 -158 215 -158l-47 -280q-237 0 -370 118q-134 117 -134 318q0 106 35.5 194.5t116.5 166.5t232 121.5t363 43.5h404l293 -720z" />
    <glyph glyph-name="Nacute.swash" horiz-adv-x="1953" 
d="M2042 2005l-461 -428h-297l348 428h410zM1520 707l120 720h365l-238 -1427h-374l-291 707l-117 -707h-367l185 1104h-101q-291 0 -290 -201q0 -158 215 -158l-47 -280q-237 0 -370 118q-134 117 -134 318q0 106 35.5 194.5t116.5 166.5t232 121.5t363 43.5h404z" />
    <glyph glyph-name="Ncaron.swash" horiz-adv-x="1953" 
d="M1604 1577h-301l-166 463h260l100 -197l168 197h260zM1640 1427h365l-238 -1427h-374l-291 707l-117 -707h-367l185 1104h-101q-291 0 -290 -201q0 -158 215 -158l-47 -280q-237 0 -370 118q-134 117 -134 318q0 106 35.5 194.5t116.5 166.5t232 121.5t363 43.5h404
l293 -720z" />
    <glyph glyph-name="Ntilde.swash" horiz-adv-x="1953" 
d="M1374 1663q-55 0 -76 -139h-278q51 438 299 438q45 2 84.5 -21t72.5 -50.5t59.5 -50.5t45.5 -21q57 0 78 137h278q-51 -438 -307 -438q-54 0 -104 36q-49 35 -87 72q-37 37 -65 37zM1640 1427h365l-238 -1427h-374l-291 707l-117 -707h-367l185 1104h-101
q-291 0 -290 -201q0 -158 215 -158l-47 -280q-237 0 -370 118q-134 117 -134 318q0 106 35.5 194.5t116.5 166.5t232 121.5t363 43.5h404l293 -720z" />
    <glyph glyph-name="O.swash" horiz-adv-x="1560" 
d="M1399 1137q137 -117 137 -377q0 -352 -233 -573q-234 -222 -584 -222q-300 0 -476 162q-175 162 -175 451q0 382 229 633q230 251 614 251q105 0 181 -24t125.5 -69t73.5 -110t24 -147q0 -14 -0.5 -23.5t-1.5 -15.5zM760 354q164 0 269 96q104 95 104 246q0 18 -3 27
q-182 -143 -479 -143l60 294q93 0 155 37q62 38 62 103q0 82 -88 82q-150 0 -246 -135q-96 -136 -96 -304q0 -151 67 -227t195 -76z" />
    <glyph glyph-name="OE.aalt" horiz-adv-x="1828" 
d="M1808 725h-505l-9 -47h363l-43 -275h-365l-10 -57h487l-49 -346h-829q-135 -33 -301 -33q-209 0 -349 122q-141 122 -141 368q0 279 188 459q187 179 482 178q153 0 264 -35h862zM477 494q0 -78 46 -123t134 -45q116 0 195 43l51 317q-73 41 -182 41t-177 -65
q-69 -66 -67 -168z" />
    <glyph glyph-name="Oacute.swash" horiz-adv-x="1560" 
d="M1548 2005l-461 -428h-296l348 428h409zM1399 1137q137 -117 137 -377q0 -352 -233 -573q-234 -222 -584 -222q-300 0 -476 162q-175 162 -175 451q0 382 229 633q230 251 614 251q105 0 181 -24t125.5 -69t73.5 -110t24 -147q0 -14 -0.5 -23.5t-1.5 -15.5zM760 354
q164 0 269 96q104 95 104 246q0 18 -3 27q-182 -143 -479 -143l60 294q93 0 155 37q62 38 62 103q0 82 -88 82q-150 0 -246 -135q-96 -136 -96 -304q0 -151 67 -227t195 -76z" />
    <glyph glyph-name="Ocircumflex.swash" horiz-adv-x="1560" 
d="M1040 1774l-168 -199h-260l322 463h301l166 -463h-258zM1399 1137q137 -117 137 -377q0 -352 -233 -573q-234 -222 -584 -222q-300 0 -476 162q-175 162 -175 451q0 382 229 633q230 251 614 251q105 0 181 -24t125.5 -69t73.5 -110t24 -147q0 -14 -0.5 -23.5t-1.5 -15.5
zM760 354q164 0 269 96q104 95 104 246q0 18 -3 27q-182 -143 -479 -143l60 294q93 0 155 37q62 38 62 103q0 82 -88 82q-150 0 -246 -135q-96 -136 -96 -304q0 -151 67 -227t195 -76z" />
    <glyph glyph-name="Odieresis.swash" horiz-adv-x="1560" 
d="M729 1583q-83 0 -133 60q-49 58 -35 141q13 81 83 142q70 59 151 59q84 0 133 -58t35 -143q-16 -83 -84 -142t-150 -59zM1188 1583q-81 0 -131 60q-49 58 -35 141q13 81 83 142q70 59 150 59q84 0 133 -58q48 -58 34 -143q-15 -84 -82 -142q-68 -59 -152 -59zM1399 1137
q137 -117 137 -377q0 -352 -233 -573q-234 -222 -584 -222q-300 0 -476 162q-175 162 -175 451q0 382 229 633q230 251 614 251q105 0 181 -24t125.5 -69t73.5 -110t24 -147q0 -14 -0.5 -23.5t-1.5 -15.5zM760 354q164 0 269 96q104 95 104 246q0 18 -3 27
q-182 -143 -479 -143l60 294q93 0 155 37q62 38 62 103q0 82 -88 82q-150 0 -246 -135q-96 -136 -96 -304q0 -151 67 -227t195 -76z" />
    <glyph glyph-name="Ograve.swash" horiz-adv-x="1560" 
d="M1092 1577h-261l-206 461h372zM1399 1137q137 -117 137 -377q0 -352 -233 -573q-234 -222 -584 -222q-300 0 -476 162q-175 162 -175 451q0 382 229 633q230 251 614 251q105 0 181 -24t125.5 -69t73.5 -110t24 -147q0 -14 -0.5 -23.5t-1.5 -15.5zM760 354q164 0 269 96
q104 95 104 246q0 18 -3 27q-182 -143 -479 -143l60 294q93 0 155 37q62 38 62 103q0 82 -88 82q-150 0 -246 -135q-96 -136 -96 -304q0 -151 67 -227t195 -76z" />
    <glyph glyph-name="Ohungarumlaut.swash" horiz-adv-x="1560" 
d="M1178 2038l-293 -461h-230l162 461h361zM1260 1577h-261l312 461h375zM1399 1137q137 -117 137 -377q0 -352 -233 -573q-234 -222 -584 -222q-300 0 -476 162q-175 162 -175 451q0 382 229 633q230 251 614 251q105 0 181 -24t125.5 -69t73.5 -110t24 -147
q0 -14 -0.5 -23.5t-1.5 -15.5zM760 354q164 0 269 96q104 95 104 246q0 18 -3 27q-182 -143 -479 -143l60 294q93 0 155 37q62 38 62 103q0 82 -88 82q-150 0 -246 -135q-96 -136 -96 -304q0 -151 67 -227t195 -76z" />
    <glyph glyph-name="Omacron.swash" horiz-adv-x="1560" 
d="M1391 1944l-54 -318h-733l53 318h734zM1399 1137q137 -117 137 -377q0 -352 -233 -573q-234 -222 -584 -222q-300 0 -476 162q-175 162 -175 451q0 382 229 633q230 251 614 251q105 0 181 -24t125.5 -69t73.5 -110t24 -147q0 -14 -0.5 -23.5t-1.5 -15.5zM760 354
q164 0 269 96q104 95 104 246q0 18 -3 27q-182 -143 -479 -143l60 294q93 0 155 37q62 38 62 103q0 82 -88 82q-150 0 -246 -135q-96 -136 -96 -304q0 -151 67 -227t195 -76z" />
    <glyph glyph-name="Otilde.swash" horiz-adv-x="1560" 
d="M881 1663q-55 0 -76 -139h-279q51 438 299 438q45 2 84 -21t72.5 -50.5t60 -50.5t45.5 -21q57 0 78 137h279q-51 -438 -307 -438q-54 0 -104 36q-49 35 -87 72q-37 37 -65 37zM1399 1137q137 -117 137 -377q0 -352 -233 -573q-234 -222 -584 -222q-300 0 -476 162
q-175 162 -175 451q0 382 229 633q230 251 614 251q105 0 181 -24t125.5 -69t73.5 -110t24 -147q0 -14 -0.5 -23.5t-1.5 -15.5zM760 354q164 0 269 96q104 95 104 246q0 18 -3 27q-182 -143 -479 -143l60 294q93 0 155 37q62 38 62 103q0 82 -88 82q-150 0 -246 -135
q-96 -136 -96 -304q0 -151 67 -227t195 -76z" />
    <glyph glyph-name="P.swash" horiz-adv-x="1859" 
d="M1479 1427q442 0 442 -434q0 -268 -173 -429t-468 -161h-170l-68 -403h-399l180 1079h-157q-231 0 -232 -166q0 -152 201 -151l-2 -328q-283 1 -417 140q-134 137 -134 348q0 105 28.5 190t94.5 160t189 115t298 40h787zM1276 754q103 0 160 51t57 139q0 125 -139 125
h-135l-52 -315h109z" />
    <glyph glyph-name="Q.salt" horiz-adv-x="1556" 
d="M1561 848q0 -394 -254 -645l168 -273l-349 -223l-180 291q-127 -33 -262 -33q-264 0 -439 154q-175 153 -175 454q0 376 243 632q242 257 631 259q263 -1 441 -154q176 -153 176 -462zM500 627q0 -136 65 -204.5t180 -68.5q169 0 279 137q109 136 109 316
q0 130 -66.5 200t-183.5 70q-168 0 -275 -135q-108 -135 -108 -315z" />
    <glyph glyph-name="Q.swash" horiz-adv-x="1560" 
d="M854 -25q7 -3 20 -9t32 -15q39 -17 55 -23l20 -7.5t29 -10.5q23 -9 42 -15t38 -10t39.5 -6t44.5 -2q110 0 229 64l-29 -353q-112 -45 -248 -45q-121 0 -249 45q-65 23 -124.5 45t-116.5 45q-111 46 -190 46q-143 0 -331 -95l37 348q122 50 215 64q-299 152 -299 537
q0 382 229 633q230 251 614 251q105 0 181 -24t125.5 -69t73.5 -110t24 -147q0 -14 -0.5 -23.5t-1.5 -15.5l86 64q137 -117 137 -377q0 -314 -191 -528q-191 -213 -491 -257zM840 1096q-150 0 -246 -135q-96 -136 -96 -304q0 -151 67 -227t195 -76q164 0 269 96
q104 95 104 246q0 18 -3 27q-182 -143 -479 -143l60 294q93 0 155 37q62 38 62 103q0 82 -88 82z" />
    <glyph glyph-name="R.swash" horiz-adv-x="1853" 
d="M1855 1042q0 -150 -78 -276q-79 -127 -221 -197l201 -569h-473l-139 502h-86l-84 -502h-402l181 1079h-158q-233 0 -234 -166q0 -152 201 -151v-328q-286 0 -419 139q-134 139 -134 349q0 506 613 505h807q425 0 425 -385zM1153 1067l-41 -248h137q82 0 129 38t47 108
q0 102 -114 102h-158z" />
    <glyph glyph-name="Racute.swash" horiz-adv-x="1853" 
d="M1980 2005l-460 -428h-297l348 428h409zM1855 1042q0 -150 -78 -276q-79 -127 -221 -197l201 -569h-473l-139 502h-86l-84 -502h-402l181 1079h-158q-233 0 -234 -166q0 -152 201 -151v-328q-286 0 -419 139q-134 139 -134 349q0 506 613 505h807q425 0 425 -385z
M1153 1067l-41 -248h137q82 0 129 38t47 108q0 102 -114 102h-158z" />
    <glyph glyph-name="Rcaron.swash" horiz-adv-x="1853" 
d="M1542 1577h-301l-166 463h260l101 -197l168 197h260zM1855 1042q0 -150 -78 -276q-79 -127 -221 -197l201 -569h-473l-139 502h-86l-84 -502h-402l181 1079h-158q-233 0 -234 -166q0 -152 201 -151v-328q-286 0 -419 139q-134 139 -134 349q0 506 613 505h807
q425 0 425 -385zM1153 1067l-41 -248h137q82 0 129 38t47 108q0 102 -114 102h-158z" />
    <glyph glyph-name="S.swash" horiz-adv-x="1185" 
d="M479 -334q-250 0 -385 119t-135 354q0 70 12 148l381 65q-16 -74 -16 -123q0 -201 186 -200q85 0 131.5 39.5t46.5 111.5q0 21 -7.5 42t-19 40t-26 35.5t-29.5 28.5t-37.5 28.5t-52.5 36.5q-174 122 -259 239q-85 118 -85 279q0 249 168 400q167 151 445 151
q81 0 148 -16.5t129 -52.5q62 -37 96 -108t34 -171q0 -94 -33 -211h-356q14 47 14 86q0 109 -102 109q-60 0 -97.5 -36.5t-37.5 -96.5q0 -53 46 -99q23 -23 64 -53.5t101 -67.5q151 -95 231 -209q80 -116 80 -301q0 -268 -178 -418q-179 -149 -457 -149z" />
    <glyph glyph-name="Sacute.swash" horiz-adv-x="1185" 
d="M1391 2005l-461 -428h-297l348 428h410zM479 -334q-250 0 -385 119t-135 354q0 70 12 148l381 65q-16 -74 -16 -123q0 -201 186 -200q85 0 131.5 39.5t46.5 111.5q0 21 -7.5 42t-19 40t-26 35.5t-29.5 28.5t-37.5 28.5t-52.5 36.5q-174 122 -259 239q-85 118 -85 279
q0 249 168 400q167 151 445 151q81 0 148 -16.5t129 -52.5q62 -37 96 -108t34 -171q0 -94 -33 -211h-356q14 47 14 86q0 109 -102 109q-60 0 -97.5 -36.5t-37.5 -96.5q0 -53 46 -99q23 -23 64 -53.5t101 -67.5q151 -95 231 -209q80 -116 80 -301q0 -268 -178 -418
q-179 -149 -457 -149z" />
    <glyph glyph-name="Scaron.swash" horiz-adv-x="1185" 
d="M952 1577h-301l-166 463h260l101 -197l168 197h260zM797 1460q81 0 148 -16.5t129 -52.5q62 -37 96 -108t34 -171q0 -94 -33 -211h-356q14 47 14 86q0 109 -102 109q-60 0 -97.5 -36.5t-37.5 -96.5q0 -53 46 -99q23 -23 64 -53.5t101 -67.5q151 -95 231 -209
q80 -116 80 -301q0 -268 -178 -418q-179 -149 -457 -149q-250 0 -385 119t-135 354q0 70 12 148l381 65q-16 -74 -16 -123q0 -201 186 -200q85 0 131.5 39.5t46.5 111.5q0 21 -7.5 42t-19 40t-26 35.5t-29.5 28.5t-37.5 28.5t-52.5 36.5q-174 122 -259 239q-85 118 -85 279
q0 249 169 400q167 151 444 151z" />
    <glyph glyph-name="Scedilla.c2sc" horiz-adv-x="1001" 
d="M604 676q26 -7 46.5 -13.5t37.5 -12.5q17 -7 37.5 -16.5t45.5 -23.5q52 -30 80 -61q30 -33 53.5 -86.5t23.5 -122.5q0 -162 -95.5 -252t-265.5 -113l-73 -114q39 10 81 10q174 0 175 -180q0 -142 -101 -222q-101 -79 -254 -79q-181 0 -291 71l101 191q80 -53 182 -53
q98 0 98 75q0 39 -39 39q-36 0 -65 -32l-160 55l123 235q-203 17 -338 105l127 330q110 -113 322 -113q67 0 65 39q0 16 -18.5 25.5t-71.5 23.5q-332 84 -332 356q0 83 30 149t90 112.5t150 71t210 24.5q229 0 430 -80l-191 -322q-52 35 -126 56q-77 20 -128 20
q-57 0 -57 -35q0 -8 4 -14.5t14.5 -13t30 -13.5t49.5 -16z" />
    <glyph glyph-name="Scedilla.swash" horiz-adv-x="1185" 
d="M1171 901h-356q14 47 14 86q0 109 -102 109q-60 0 -97.5 -31t-37.5 -80q0 -47 43 -93q44 -46 153 -114q152 -86 236 -185t84 -251q0 -199 -144 -297q-146 -98 -343 -102l-31 -52q36 11 82 13q78 0 125 -46t47 -143q0 -154 -97 -224q-97 -69 -262 -69q-178 0 -270 68
l98 199q18 -18 70 -39q51 -21 100 -21q54 0 77.5 11.5t23.5 44.5q0 43 -43 43q-35 0 -70 -35l-160 55l111 209q-255 45 -416 211l168 381q84 -98 196 -167q113 -71 238 -71q86 0 86 54q0 29 -35 55q-37 26 -131 74q-344 176 -344 477q0 207 170 348t443 141q81 0 148 -16.5
t129 -52.5q62 -37 96 -108t34 -171q0 -94 -33 -211z" />
    <glyph glyph-name="T.swash" horiz-adv-x="1587" 
d="M1724 1427l-57 -352h-377l-170 -1075h-401l170 1075h-230q-283 0 -282 -184q0 -144 215 -146l-45 -280q-233 0 -369 115q-137 114 -137 297q0 115 36 208t117 174t232 124.5t362 43.5h936z" />
    <glyph glyph-name="Tbar.aalt" horiz-adv-x="1587" 
d="M1667 1075h-377l-57 -354h190l-55 -326h-186l-62 -395h-401l61 395h-192l55 326h188l58 354h-230q-283 0 -282 -184q0 -144 215 -146l-45 -280q-233 0 -369 115q-137 114 -137 297q0 115 36 208t117 174t232 124.5t362 43.5h936z" />
    <glyph glyph-name="Tcaron.swash" horiz-adv-x="1587" 
d="M1315 1577h-301l-166 463h260l100 -197l168 197h260zM1724 1427l-57 -352h-377l-170 -1075h-401l170 1075h-230q-283 0 -282 -184q0 -144 215 -146l-45 -280q-233 0 -369 115q-137 114 -137 297q0 115 36 208t117 174t232 124.5t362 43.5h936z" />
    <glyph glyph-name="Thorn.aalt" horiz-adv-x="1144" 
d="M715 936q409 0 407 -326q0 -194 -140 -313t-404 -119h-134l-28 -178h-393l176 1059h393l-21 -123h144zM633 514q76 0 76 47q0 33 -52 33h-143l-12 -80h131z" />
    <glyph glyph-name="U.swash" horiz-adv-x="1955" 
d="M1622 1427h399l-135 -825q-27 -159 -80.5 -278.5t-137.5 -199t-199 -119.5t-265 -40q-289 0 -414 179q-126 179 -77 474l82 486h-123q-287 0 -287 -191q0 -78 54.5 -120.5t160.5 -42.5l-47 -281q-234 0 -367 121q-135 122 -135 321q0 82 20.5 154t74.5 140q52 67 135 115
q81 48 212 77.5t300 29.5h456l-143 -852q-39 -238 141 -237q195 0 234 242z" />
    <glyph glyph-name="Uacute.swash" horiz-adv-x="1955" 
d="M2032 2005l-461 -428h-297l348 428h410zM1481 580l141 847h399l-135 -825q-27 -159 -80.5 -278.5t-137.5 -199t-199 -119.5t-265 -40q-289 0 -414 179q-126 179 -77 474l82 486h-123q-287 0 -287 -191q0 -78 54.5 -120.5t160.5 -42.5l-47 -281q-234 0 -367 121
q-135 122 -135 321q0 82 20.5 154t74.5 140q52 67 135 115q81 48 212 77.5t300 29.5h456l-143 -852q-39 -238 141 -237q195 0 234 242z" />
    <glyph glyph-name="Ucircumflex.swash" horiz-adv-x="1955" 
d="M1524 1774l-168 -199h-260l321 463h301l166 -463h-258zM1622 1427h399l-135 -825q-27 -159 -80.5 -278.5t-137.5 -199t-199 -119.5t-265 -40q-289 0 -414 179q-126 179 -77 474l82 486h-123q-287 0 -287 -191q0 -78 54.5 -120.5t160.5 -42.5l-47 -281q-234 0 -367 121
q-135 122 -135 321q0 82 20.5 154t74.5 140q52 67 135 115q81 48 212 77.5t300 29.5h456l-143 -852q-39 -238 141 -237q195 0 234 242z" />
    <glyph glyph-name="Udieresis.swash" horiz-adv-x="1955" 
d="M1212 1583q-83 0 -133 60q-49 58 -34 141q13 81 83 142q68 59 150 59q84 0 133 -58t35 -143q-16 -83 -84 -142t-150 -59zM1671 1583q-81 0 -131 60q-49 58 -34 141q13 81 83 142q68 59 150 59q84 0 132 -58t34 -143q-15 -84 -82 -142q-68 -59 -152 -59zM1622 1427h399
l-135 -825q-27 -159 -80.5 -278.5t-137.5 -199t-199 -119.5t-265 -40q-289 0 -414 179q-126 179 -77 474l82 486h-123q-287 0 -287 -191q0 -78 54.5 -120.5t160.5 -42.5l-47 -281q-234 0 -367 121q-135 122 -135 321q0 82 20.5 154t74.5 140q52 67 135 115q81 48 212 77.5
t300 29.5h456l-143 -852q-39 -238 141 -237q195 0 234 242z" />
    <glyph glyph-name="Ugrave.swash" horiz-adv-x="1955" 
d="M1575 1577h-260l-207 461h373zM1622 1427h399l-135 -825q-27 -159 -80.5 -278.5t-137.5 -199t-199 -119.5t-265 -40q-289 0 -414 179q-126 179 -77 474l82 486h-123q-287 0 -287 -191q0 -78 54.5 -120.5t160.5 -42.5l-47 -281q-234 0 -367 121q-135 122 -135 321
q0 82 20.5 154t74.5 140q52 67 135 115q81 48 212 77.5t300 29.5h456l-143 -852q-39 -238 141 -237q195 0 234 242z" />
    <glyph glyph-name="Uhungarumlaut.swash" horiz-adv-x="1955" 
d="M1661 2038l-293 -461h-229l161 461h361zM1743 1577h-260l311 461h375zM1481 580l141 847h399l-135 -825q-27 -159 -80.5 -278.5t-137.5 -199t-199 -119.5t-265 -40q-289 0 -414 179q-126 179 -77 474l82 486h-123q-287 0 -287 -191q0 -78 54.5 -120.5t160.5 -42.5
l-47 -281q-234 0 -367 121q-135 122 -135 321q0 82 20.5 154t74.5 140q52 67 135 115q81 48 212 77.5t300 29.5h456l-143 -852q-39 -238 141 -237q195 0 234 242z" />
    <glyph glyph-name="Umacron.swash" horiz-adv-x="1955" 
d="M1874 1944l-53 -318h-734l54 318h733zM1622 1427h399l-135 -825q-27 -159 -80.5 -278.5t-137.5 -199t-199 -119.5t-265 -40q-289 0 -414 179q-126 179 -77 474l82 486h-123q-287 0 -287 -191q0 -78 54.5 -120.5t160.5 -42.5l-47 -281q-234 0 -367 121q-135 122 -135 321
q0 82 20.5 154t74.5 140q52 67 135 115q81 48 212 77.5t300 29.5h456l-143 -852q-39 -238 141 -237q195 0 234 242z" />
    <glyph glyph-name="Uogonek.swash" horiz-adv-x="1955" 
d="M1622 1427h399l-135 -825q-82 -496 -436 -604q-248 -155 -248 -274q0 -61 60 -62q54 0 145 47l16 -244q-160 -77 -333 -75q-118 0 -176 53t-58 141q0 217 268 385q-247 26 -351 200q-105 175 -60 449l82 486h-123q-287 0 -287 -191q0 -78 54.5 -120.5t160.5 -42.5
l-47 -281q-234 0 -367 121q-135 122 -135 321q0 82 20.5 154t74.5 140q52 67 135 115q81 48 212 77.5t300 29.5h456l-143 -852q-39 -238 141 -237q195 0 234 242z" />
    <glyph glyph-name="Uring.swash" horiz-adv-x="1955" 
d="M1674 1636q-92 -77 -232 -77q-142 0 -207 75q-66 73 -43 203q12 66 40.5 118t72.5 89t102.5 56.5t128.5 19.5q139 0 206 -78q66 -77 46 -205q-22 -124 -114 -201zM1439 1906q-28 -25 -36 -69q-7 -43 12 -66q20 -24 58 -24t67 23.5t35 66.5q8 43 -11.5 68.5t-58.5 25.5
q-40 0 -66 -25zM1622 1427h399l-135 -825q-27 -159 -80.5 -278.5t-137.5 -199t-199 -119.5t-265 -40q-289 0 -414 179q-126 179 -77 474l82 486h-123q-287 0 -287 -191q0 -78 54.5 -120.5t160.5 -42.5l-47 -281q-234 0 -367 121q-135 122 -135 321q0 82 20.5 154t74.5 140
q52 67 135 115q81 48 212 77.5t300 29.5h456l-143 -852q-39 -238 141 -237q195 0 234 242z" />
    <glyph glyph-name="V.swash" horiz-adv-x="1890" 
d="M1647 1427h415l-686 -1427h-467l-127 1104h-118q-287 0 -287 -191q0 -165 215 -163l-47 -281q-237 0 -370 121q-134 122 -134 321q0 100 34 186.5t111 162.5q77 75 218.5 119t340.5 48h431l51 -753q3 -55 3.5 -117t-1.5 -133q31 81 56.5 146t45.5 114z" />
    <glyph glyph-name="W.c2sc" horiz-adv-x="1794" 
d="M1452 1059h401l-442 -1059h-473l-23 270q-6 129 -6 252q-28 -75 -52 -137t-46 -111l-135 -274h-461l-63 1059h417l-2 -326q-5 -93 -11.5 -164.5t-14.5 -124.5q26 71 48 128.5t42 103.5l186 387h381l37 -348q3 -28 6.5 -91.5t7.5 -164.5q45 158 66 219z" />
    <glyph glyph-name="W.salt" horiz-adv-x="2111" 
d="M1905 1419l411 -2l-727 -1423l-407 4l-95 371l-233 -367l-408 6l-202 1432l432 -4l88 -975l213 344l-160 629l410 -4l39 -158l96 153l397 -4l-381 -598l88 -356z" />
    <glyph glyph-name="W.swash" horiz-adv-x="2482" 
d="M2224 1427h412l-547 -1427h-463l-33 485q-2 33 -3 84.5t-3 128.5q-1 38 -2 69t-2 54q-36 -113 -63.5 -190t-46.5 -119l-226 -512h-463l-30 1104h-70q-287 0 -287 -191q0 -165 215 -163l-47 -281q-237 0 -370 121q-134 122 -134 321q0 100 33 184.5t108 159.5t212.5 120.5
t330.5 51.5h433l-43 -706q-2 -20 -4.5 -49t-5.5 -68q-4 -39 -6.5 -68t-4.5 -49q14 38 36.5 96t53.5 136l301 706h381l51 -667q3 -70 4.5 -139.5t0.5 -141.5q49 149 75 248z" />
    <glyph glyph-name="Wacute.swash" horiz-adv-x="2482" 
d="M2300 2005l-461 -428h-297l348 428h410zM2224 1427h412l-547 -1427h-463l-33 485q-2 33 -3 84.5t-3 128.5q-1 38 -2 69t-2 54q-36 -113 -63.5 -190t-46.5 -119l-226 -512h-463l-30 1104h-70q-287 0 -287 -191q0 -165 215 -163l-47 -281q-237 0 -370 121
q-134 122 -134 321q0 100 33 184.5t108 159.5t212.5 120.5t330.5 51.5h433l-43 -706q-2 -20 -4.5 -49t-5.5 -68q-4 -39 -6.5 -68t-4.5 -49q14 38 36.5 96t53.5 136l301 706h381l51 -667q3 -70 4.5 -139.5t0.5 -141.5q49 149 75 248z" />
    <glyph glyph-name="Wcircumflex.swash" horiz-adv-x="2482" 
d="M1792 1774l-168 -199h-260l322 463h301l165 -463h-258zM2224 1427h412l-547 -1427h-463l-33 485q-2 33 -3 84.5t-3 128.5q-1 38 -2 69t-2 54q-36 -113 -63.5 -190t-46.5 -119l-226 -512h-463l-30 1104h-70q-287 0 -287 -191q0 -165 215 -163l-47 -281q-237 0 -370 121
q-134 122 -134 321q0 100 33 184.5t108 159.5t212.5 120.5t330.5 51.5h433l-43 -706q-2 -20 -4.5 -49t-5.5 -68q-4 -39 -6.5 -68t-4.5 -49q14 38 36.5 96t53.5 136l301 706h381l51 -667q3 -70 4.5 -139.5t0.5 -141.5q49 149 75 248z" />
    <glyph glyph-name="Wdieresis.swash" horiz-adv-x="2482" 
d="M1481 1583q-83 0 -133 60q-50 59 -35 141q13 81 83 142q68 59 150 59q85 0 134 -58t34 -143q-17 -84 -83 -142q-68 -59 -150 -59zM1939 1583q-81 0 -131 60q-49 58 -34 141q13 81 83 142q68 59 150 59q84 0 132 -58t34 -143q-13 -82 -82 -142q-68 -59 -152 -59z
M2224 1427h412l-547 -1427h-463l-33 485q-2 33 -3 84.5t-3 128.5q-1 38 -2 69t-2 54q-36 -113 -63.5 -190t-46.5 -119l-226 -512h-463l-30 1104h-70q-287 0 -287 -191q0 -165 215 -163l-47 -281q-237 0 -370 121q-134 122 -134 321q0 100 33 184.5t108 159.5t212.5 120.5
t330.5 51.5h433l-43 -706q-2 -20 -4.5 -49t-5.5 -68q-4 -39 -6.5 -68t-4.5 -49q14 38 36.5 96t53.5 136l301 706h381l51 -667q3 -70 4.5 -139.5t0.5 -141.5q49 149 75 248z" />
    <glyph glyph-name="Wgrave.swash" horiz-adv-x="2482" 
d="M1843 1577h-260l-207 461h373zM2224 1427h412l-547 -1427h-463l-33 485q-2 33 -3 84.5t-3 128.5q-1 38 -2 69t-2 54q-36 -113 -63.5 -190t-46.5 -119l-226 -512h-463l-30 1104h-70q-287 0 -287 -191q0 -165 215 -163l-47 -281q-237 0 -370 121q-134 122 -134 321
q0 100 33 184.5t108 159.5t212.5 120.5t330.5 51.5h433l-43 -706q-2 -20 -4.5 -49t-5.5 -68q-4 -39 -6.5 -68t-4.5 -49q14 38 36.5 96t53.5 136l301 706h381l51 -667q3 -70 4.5 -139.5t0.5 -141.5q49 149 75 248z" />
    <glyph glyph-name="X.swash" horiz-adv-x="1773" 
d="M1919 1427q-106 -153 -217.5 -327.5t-231.5 -374.5l228 -725h-434l-119 475l-254 -475h-440l501 782q-31 322 -290 322q-112 0 -173 -48.5t-61 -144.5q0 -78 55 -119.5t166 -37.5l-45 -283q-240 -2 -376 118t-136 320q0 228 147 373q145 145 425 145q209 0 368 -105
q158 -105 221 -347q124 262 236 452h430z" />
    <glyph glyph-name="Y.swash" horiz-adv-x="1779" 
d="M1927 1427q-182 -243 -335 -473.5t-281 -453.5l-80 -500h-400l74 477q-4 282 -84 443q-79 159 -223 159q-78 0 -128 -51q-50 -52 -50 -131q0 -188 254 -158l-41 -303q-267 -18 -416 107t-149 340q0 236 154 390q153 154 411 154q120 0 214 -35t163 -102t114 -164.5
t66 -222.5q51 121 127.5 251.5t179.5 272.5h430z" />
    <glyph glyph-name="Yacute.swash" horiz-adv-x="1779" 
d="M1798 2005l-461 -428h-297l349 428h409zM1927 1427q-182 -243 -335 -473.5t-281 -453.5l-80 -500h-400l74 477q-4 282 -84 443q-79 159 -223 159q-78 0 -128 -51q-50 -52 -50 -131q0 -188 254 -158l-41 -303q-267 -18 -416 107t-149 340q0 236 154 390q153 154 411 154
q120 0 214 -35t163 -102t114 -164.5t66 -222.5q51 121 127.5 251.5t179.5 272.5h430z" />
    <glyph glyph-name="Ycircumflex.swash" horiz-adv-x="1779" 
d="M1290 1774l-168 -199h-260l322 463h301l166 -463h-258zM1927 1427q-182 -243 -335 -473.5t-281 -453.5l-80 -500h-400l74 477q-4 282 -84 443q-79 159 -223 159q-78 0 -128 -51q-50 -52 -50 -131q0 -188 254 -158l-41 -303q-267 -18 -416 107t-149 340q0 236 154 390
q153 154 411 154q120 0 214 -35t163 -102t114 -164.5t66 -222.5q51 121 127.5 251.5t179.5 272.5h430z" />
    <glyph glyph-name="Ydieresis.swash" horiz-adv-x="1779" 
d="M979 1583q-83 0 -133 60q-49 58 -35 141q13 81 83 142q70 59 150 59q85 0 134 -58t34 -143q-17 -84 -83 -142q-68 -59 -150 -59zM1438 1583q-81 0 -131 60q-50 59 -35 141q13 81 83 142q68 59 150 59q84 0 133 -58q48 -58 34 -143q-15 -84 -82 -142q-68 -59 -152 -59z
M1927 1427q-182 -243 -335 -473.5t-281 -453.5l-80 -500h-400l74 477q-4 282 -84 443q-79 159 -223 159q-78 0 -128 -51q-50 -52 -50 -131q0 -188 254 -158l-41 -303q-267 -18 -416 107t-149 340q0 236 154 390q153 154 411 154q120 0 214 -35t163 -102t114 -164.5
t66 -222.5q51 121 127.5 251.5t179.5 272.5h430z" />
    <glyph glyph-name="Ygrave.swash" horiz-adv-x="1779" 
d="M1341 1577h-260l-207 461h373zM1927 1427q-182 -243 -335 -473.5t-281 -453.5l-80 -500h-400l74 477q-4 282 -84 443q-79 159 -223 159q-78 0 -128 -51q-50 -52 -50 -131q0 -188 254 -158l-41 -303q-267 -18 -416 107t-149 340q0 236 154 390q153 154 411 154
q120 0 214 -35t163 -102t114 -164.5t66 -222.5q51 121 127.5 251.5t179.5 272.5h430z" />
    <glyph glyph-name="Z.swash" horiz-adv-x="1370" 
d="M1083 766q106 -43 181 -142q75 -100 75 -264q0 -256 -145 -414q-145 -157 -360 -157q-143 0 -274 41q-66 20 -121 41t-102 41q-94 41 -149 41q-96 0 -165 -39l-33 336l723 817h-574l56 360h1103l-53 -333l-745 -813q8 -4 22.5 -12t36.5 -20l38.5 -21t29.5 -14
q12 -6 30 -12t39 -11t44.5 -8t45.5 -3q82 0 127 41t45 107q0 45 -20 78.5t-43 50.5q-11 8 -26.5 17t-34.5 20z" />
    <glyph glyph-name="Zacute.swash" horiz-adv-x="1370" 
d="M1341 2005l-460 -428h-297l348 428h409zM1083 766q106 -43 181 -142q75 -100 75 -264q0 -256 -145 -414q-145 -157 -360 -157q-143 0 -274 41q-66 20 -121 41t-102 41q-94 41 -149 41q-96 0 -165 -39l-33 336l723 817h-574l56 360h1103l-53 -333l-745 -813q8 -4 22.5 -12
t36.5 -20l38.5 -21t29.5 -14q12 -6 30 -12t39 -11t44.5 -8t45.5 -3q82 0 127 41t45 107q0 45 -20 78.5t-43 50.5q-11 8 -26.5 17t-34.5 20z" />
    <glyph glyph-name="Zcaron.swash" horiz-adv-x="1370" 
d="M903 1577h-301l-166 463h260l101 -197l168 197h260zM1083 766q106 -43 181 -142q75 -100 75 -264q0 -256 -145 -414q-145 -157 -360 -157q-143 0 -274 41q-66 20 -121 41t-102 41q-94 41 -149 41q-96 0 -165 -39l-33 336l723 817h-574l56 360h1103l-53 -333l-745 -813
q8 -4 22.5 -12t36.5 -20l38.5 -21t29.5 -14q12 -6 30 -12t39 -11t44.5 -8t45.5 -3q82 0 127 41t45 107q0 45 -20 78.5t-43 50.5q-11 8 -26.5 17t-34.5 20z" />
    <glyph glyph-name="Zdotaccent.swash" horiz-adv-x="1370" 
d="M758 1585q-81 0 -131 60q-49 58 -35 141q13 81 83 143q68 60 150 60q84 0 134 -59q49 -59 35 -144q-15 -83 -83 -142q-70 -59 -153 -59zM1083 766q106 -43 181 -142q75 -100 75 -264q0 -256 -145 -414q-145 -157 -360 -157q-143 0 -274 41q-66 20 -121 41t-102 41
q-94 41 -149 41q-96 0 -165 -39l-33 336l723 817h-574l56 360h1103l-53 -333l-745 -813q8 -4 22.5 -12t36.5 -20l38.5 -21t29.5 -14q12 -6 30 -12t39 -11t44.5 -8t45.5 -3q82 0 127 41t45 107q0 45 -20 78.5t-43 50.5q-11 8 -26.5 17t-34.5 20z" />
    <glyph glyph-name="a.aalt" horiz-adv-x="1196" 
d="M682 0l-12 131h-285l-55 -131h-387l508 1059h456l183 -1059h-408zM510 428h129l-25 248z" />
    <glyph glyph-name="aacute.aalt" horiz-adv-x="1196" 
d="M1190 1669l-359 -461h-258l242 461h375zM451 1059h456l183 -1059h-408l-12 131h-285l-55 -131h-387zM510 428h129l-25 248z" />
    <glyph glyph-name="abreve.aalt" horiz-adv-x="1196" 
d="M702 1214q-421 0 -321 457h295q-10 -46 -12 -84t5 -67q14 -60 73 -60t88.5 54.5t46.5 156.5h297q-52 -457 -472 -457zM451 1059h456l183 -1059h-408l-12 131h-285l-55 -131h-387zM510 428h129l-25 248z" />
    <glyph glyph-name="acircumflex.aalt" horiz-adv-x="1196" 
d="M741 1405l-168 -197h-260l322 463h301l166 -463h-260zM451 1059h456l183 -1059h-408l-12 131h-285l-55 -131h-387zM510 428h129l-25 248z" />
    <glyph glyph-name="acutecomb.aalt" 
d="M268 1556l-461 -428h-296l348 428h409z" />
    <glyph glyph-name="adieresis.aalt" horiz-adv-x="1196" 
d="M477 1249q-81 0 -131 59q-49 58 -34 140q13 81 83 143q68 60 150 60q84 0 132 -59t34 -144q-13 -80 -82 -140q-68 -59 -152 -59zM1012 1651q84 0 132 -59t34 -144q-13 -80 -82 -140q-68 -59 -152 -59q-81 0 -131 59q-49 58 -34 140q13 81 83 143q68 60 150 60zM451 1059
h456l183 -1059h-408l-12 131h-285l-55 -131h-387zM510 428h129l-25 248z" />
    <glyph glyph-name="agrave.aalt" horiz-adv-x="1196" 
d="M834 1208h-259l-204 461h374zM682 0l-12 131h-285l-55 -131h-387l508 1059h456l183 -1059h-408zM510 428h129l-25 248z" />
    <glyph glyph-name="amacron.aalt" horiz-adv-x="1196" 
d="M1114 1595l-53 -317h-733l53 317h733zM451 1059h456l183 -1059h-408l-12 131h-285l-55 -131h-387zM510 428h129l-25 248z" />
    <glyph glyph-name="aogonek.aalt" horiz-adv-x="1196" 
d="M891 -342q59 0 145 47l15 -244q-152 -77 -332 -75q-133 0 -190 66q-58 67 -42 171q32 215 322 377h-127l-12 131h-285l-55 -131h-387l508 1059h456l162 -942l10 4l11 -121q-243 -151 -259 -272q-10 -70 60 -70zM510 428h129l-25 248z" />
    <glyph glyph-name="aring.aalt" horiz-adv-x="1196" 
d="M778 1225q-60 0 -107.5 16t-80.5 45.5t-50.5 71t-17.5 92.5q0 143 100 240q99 96 250 96q121 0 188 -64q66 -64 66 -166q0 -137 -97 -234t-251 -97zM844 1616q-50 0 -88 -39q-37 -38 -37 -98q0 -82 80 -82q57 0 95 36.5t38 96.5q0 42 -23 64t-65 22zM451 1059h456
l183 -1059h-408l-12 131h-285l-55 -131h-387zM510 428h129l-25 248z" />
    <glyph glyph-name="atilde.aalt" horiz-adv-x="1196" 
d="M588 1350q-25 0 -37 -31.5t-23 -106.5h-278q51 435 299 437q88 0 172 -88q54 -54 82 -56q29 0 43 31t26 109h277q-51 -437 -299 -439q-96 0 -184 88l-26 26q-3 3 -9.5 10t-11.5 9q-9 4 -15 7.5t-16 3.5zM451 1059h456l183 -1059h-408l-12 131h-285l-55 -131h-387z
M510 428h129l-25 248z" />
    <glyph glyph-name="b.aalt" horiz-adv-x="1173" 
d="M926 561q190 -34 190 -211q0 -100 -47 -172t-129 -108q-82 -37 -171.5 -53.5t-197.5 -16.5h-548l176 1059h592q166 0 252.5 -51.5t86.5 -173.5q2 -190 -204 -273zM731 694q0 31 -43 31h-153l-13 -74h150q59 0 59 43zM659 340q70 0 70 45q0 33 -45 33h-201l-12 -78h188z
" />
    <glyph glyph-name="c.aalt" horiz-adv-x="1153" 
d="M557 -33q-97 0 -180.5 24.5t-158.5 78.5t-119 153.5t-44 235.5q0 115 39 223.5t118 202.5q39 47 93 85t120.5 64.5t144.5 40.5t165 12q267 -1 428 -116l-205 -322q-101 80 -239 80q-57 0 -101 -17.5t-74 -49t-45.5 -75.5t-15.5 -98q0 -164 168 -163q168 0 293 104
l100 -344q-155 -119 -487 -119z" />
    <glyph glyph-name="cacute.aalt" horiz-adv-x="1153" 
d="M1206 1669l-358 -461h-258l241 461h375zM557 -33q-97 0 -180.5 24.5t-158.5 78.5t-119 153.5t-44 235.5q0 115 39 223.5t118 202.5q39 47 93 85t120.5 64.5t144.5 40.5t165 12q267 -1 428 -116l-205 -322q-101 80 -239 80q-57 0 -101 -17.5t-74 -49t-45.5 -75.5
t-15.5 -98q0 -164 168 -163q168 0 293 104l100 -344q-155 -119 -487 -119z" />
    <glyph glyph-name="ccaron.aalt" horiz-adv-x="1153" 
d="M872 1208h-301l-165 463h260l100 -196l168 196h260zM719 729q-57 0 -101 -17.5t-74 -49t-45.5 -75.5t-15.5 -98q0 -164 168 -163q168 0 293 104l100 -344q-157 -119 -487 -119q-97 0 -180.5 24.5t-158.5 78.5t-119 153.5t-44 235.5q0 115 39 223.5t118 202.5q39 47 93 85
t120.5 64.5t144.5 40.5t165 12q267 -1 428 -116l-205 -322q-101 80 -239 80z" />
    <glyph glyph-name="ccedilla.aalt" horiz-adv-x="1153" 
d="M1044 86q-134 -102 -419 -117l-70 -108q20 5 41 7.5t41 2.5q174 0 174 -180q0 -142 -101 -222q-101 -79 -253 -79q-181 0 -291 71l100 191q80 -53 183 -53q98 0 98 75q0 39 -39 39q-37 0 -66 -32l-159 55l129 246q-157 34 -257 151q-100 115 -100 326q0 115 39 223.5
t118 202.5q39 47 93 85t120.5 64.5t144.5 40.5t165 12q267 -1 428 -116l-205 -322q-101 80 -239 80q-57 0 -101 -17.5t-74 -49t-45.5 -75.5t-15.5 -98q0 -164 168 -163q168 0 293 104z" />
    <glyph glyph-name="cdotaccent.aalt" horiz-adv-x="1153" 
d="M595 1291q-50 59 -36 143t84 144q71 60 152 60q84 0 133 -60q49 -59 35 -144q-15 -84 -83 -143q-69 -60 -153 -60q-82 0 -132 60zM557 -33q-97 0 -180.5 24.5t-158.5 78.5t-119 153.5t-44 235.5q0 115 39 223.5t118 202.5q39 47 93 85t120.5 64.5t144.5 40.5t165 12
q267 -1 428 -116l-205 -322q-101 80 -239 80q-57 0 -101 -17.5t-74 -49t-45.5 -75.5t-15.5 -98q0 -164 168 -163q168 0 293 104l100 -344q-155 -119 -487 -119z" />
    <glyph glyph-name="d.aalt" horiz-adv-x="1282" 
d="M768 1059q475 0 475 -438q0 -294 -197 -458q-197 -163 -536 -163h-485l174 1059h569zM567 348q119 0 189.5 55.5t70.5 165.5q0 85 -43.5 119.5t-140.5 34.5h-106l-64 -375h94z" />
    <glyph glyph-name="dcaron.aalt" horiz-adv-x="1282" 
d="M889 1208h-301l-166 463h260l100 -196l168 196h260zM768 1059q475 0 475 -438q0 -294 -197 -458q-197 -163 -536 -163h-485l174 1059h569zM567 348q119 0 189.5 55.5t70.5 165.5q0 85 -43.5 119.5t-140.5 34.5h-106l-64 -375h94z" />
    <glyph glyph-name="dcroat.aalt" horiz-adv-x="1282" 
d="M768 1059q475 0 475 -438q0 -294 -197 -458q-197 -163 -536 -163h-485l63 389h-39l41 289h45l64 381h569zM567 348q119 0 189.5 55.5t70.5 165.5q0 85 -43.5 119.5t-140.5 34.5h-106l-9 -45h172l-43 -289h-176l-8 -41h94z" />
    <glyph glyph-name="e.aalt" horiz-adv-x="1046" 
d="M1044 709h-509l-9 -45h361l-39 -258h-363l-8 -52h484l-50 -354h-886l174 1059h888z" />
    <glyph glyph-name="eacute.aalt" horiz-adv-x="1046" 
d="M1126 1669l-358 -461h-258l242 461h374zM25 0l174 1059h888l-43 -350h-509l-9 -45h361l-39 -258h-363l-8 -52h484l-50 -354h-886z" />
    <glyph glyph-name="ecaron.aalt" horiz-adv-x="1046" 
d="M793 1208h-301l-166 463h260l100 -196l168 196h260zM25 0l174 1059h888l-43 -350h-509l-9 -45h361l-39 -258h-363l-8 -52h484l-50 -354h-886z" />
    <glyph glyph-name="ecircumflex.aalt" horiz-adv-x="1046" 
d="M678 1405l-168 -197h-260l321 463h301l166 -463h-260zM1044 709h-509l-9 -45h361l-39 -258h-363l-8 -52h484l-50 -354h-886l174 1059h888z" />
    <glyph glyph-name="edieresis.aalt" horiz-adv-x="1046" 
d="M414 1249q-81 0 -131 59t-35 140q13 81 83 143q68 60 150 60q83 0 133 -59q48 -60 33 -144q-13 -81 -81 -140t-152 -59zM948 1651q84 0 132 -59t34 -144q-13 -81 -81 -140t-152 -59q-81 0 -131 59t-35 140q13 81 83 143q68 60 150 60zM25 0l174 1059h888l-43 -350h-509
l-9 -45h361l-39 -258h-363l-8 -52h484l-50 -354h-886z" />
    <glyph glyph-name="edotaccent.aalt" horiz-adv-x="1046" 
d="M647 1231q-82 0 -132 60q-50 59 -35 143q14 84 84 144q69 60 151 60q84 0 133 -60q49 -59 35 -144q-15 -84 -83 -143q-69 -60 -153 -60zM1044 709h-509l-9 -45h361l-39 -258h-363l-8 -52h484l-50 -354h-886l174 1059h888z" />
    <glyph glyph-name="egrave.aalt" horiz-adv-x="1046" 
d="M770 1208h-258l-205 461h375zM1044 709h-509l-9 -45h361l-39 -258h-363l-8 -52h484l-50 -354h-886l174 1059h888z" />
    <glyph glyph-name="eight.oldstyle" horiz-adv-x="1191" 
d="M920 717q205 -84 204 -307q0 -105 -39 -188t-115.5 -140t-191 -87t-266.5 -30q-224 0 -354 94q-131 93 -131 275q0 140 77 240t215 149q-160 94 -159 293q0 184 140 315t419 131q208 0 329 -91t121 -279q0 -64 -17.5 -121.5t-50 -105t-78.5 -85t-103 -63.5zM666 1114
q-34 0 -62 -13t-47.5 -36t-30 -55t-10.5 -70q0 -63 29 -96t80 -33q70 0 113 49q42 50 42 121q1 133 -114 133zM557 317q87 0 133.5 43t46.5 119q0 35 -11 60t-30 40.5t-44.5 23t-55.5 7.5q-82 0 -129 -43.5t-47 -115.5q0 -66 37 -100t100 -34z" />
    <glyph glyph-name="eight.oldstyle.case" horiz-adv-x="1214" 
d="M961 717q196 -80 194 -307q0 -105 -40 -188t-119.5 -140t-198 -87t-275.5 -30q-506 0 -506 357q0 148 80.5 250.5t227.5 150.5q-160 100 -160 293q0 185 147 315q146 131 434 131q224 0 349 -88q125 -89 125 -270q0 -67 -18.5 -126t-52 -107.5t-81 -87.5t-106.5 -66z
M692 1096q-34 0 -62 -11.5t-47.5 -32.5t-30.5 -49.5t-11 -62.5q0 -60 30.5 -89.5t81.5 -29.5q73 0 116 46q44 47 44 114q0 115 -121 115zM578 334q88 0 136 39t48 106q0 123 -144 123q-85 0 -131.5 -42t-46.5 -109q2 -117 138 -117z" />
    <glyph glyph-name="emacron.aalt" horiz-adv-x="1046" 
d="M1051 1595l-54 -317h-733l53 317h734zM1044 709h-509l-9 -45h361l-39 -258h-363l-8 -52h484l-50 -354h-886l174 1059h888z" />
    <glyph glyph-name="eogonek.aalt" horiz-adv-x="1046" 
d="M1044 709h-509l-9 -45h361l-39 -258h-363l-8 -52h484l-50 -354q-241 -150 -258 -272q-10 -70 60 -70q59 0 145 47l14 -244q-152 -77 -331 -75q-133 0 -190 66q-58 67 -42 171q32 215 322 377h-606l174 1059h888z" />
    <glyph glyph-name="eth.aalt" horiz-adv-x="1282" 
d="M768 1059q475 0 475 -438q0 -294 -197 -458q-197 -163 -536 -163h-485l63 389h-39l41 289h45l64 381h569zM567 348q119 0 189.5 55.5t70.5 165.5q0 85 -43.5 119.5t-140.5 34.5h-106l-9 -45h172l-43 -289h-176l-8 -41h94z" />
    <glyph glyph-name="f.salt" horiz-adv-x="655" 
d="M700 1239q-86 0 -104 -109l-25 -151h140l-49 -317h-142l-112 -699q-22 -128 -59 -215q-36 -85 -101 -155q-131 -135 -430 -125l-49 319q212 -25 256 184l112 691h-80l49 317h82l33 197q66 389 410 389q185 0 313 -80l-137 -279q-52 33 -107 33z" />
    <glyph glyph-name="five.oldstyle" horiz-adv-x="1062" 
d="M645 500q55 0 110.5 -18t110.5 -60q54 -42 87.5 -120.5t33.5 -184.5q0 -256 -167 -390q-166 -133 -421 -133q-310 0 -491 158l170 324q101 -131 301 -131q93 0 146 41.5t53 119.5q0 127 -121 127q-102 0 -176 -65l-242 115l129 774h876l-61 -361h-498l-39 -237
q99 41 199 41z" />
    <glyph glyph-name="five.oldstyle.case" horiz-adv-x="1128" 
d="M719 881q60 0 118 -16.5t116 -53.5q57 -37 91.5 -109t34.5 -174q0 -274 -167 -418q-166 -145 -418 -145q-305 0 -492 160l154 340q112 -115 301 -115q88 0 141 40t53 112q0 102 -100 102t-180 -72l-240 115l131 780h877l-62 -360h-497l-39 -217q94 31 178 31z" />
    <glyph glyph-name="four.oldstyle" horiz-adv-x="1212" 
d="M1128 293l-53 -295h-147l-58 -360h-397l59 360h-561l47 297l551 762h527l-121 -764h153zM369 293h213l65 399z" />
    <glyph glyph-name="four.oldstyle.case" horiz-adv-x="1228" 
d="M1208 563l-53 -323h-172l-39 -240h-389l39 240h-612l55 331l639 859h504l-144 -867h172zM420 563h229l74 441z" />
    <glyph glyph-name="g.aalt" horiz-adv-x="1292" 
d="M768 338l25 231h403l-76 -534q-219 -68 -485 -68q-120 0 -215.5 22.5t-180.5 74.5q-85 51 -133.5 147.5t-48.5 234.5q0 303 191 476q190 172 540 172q262 0 433 -117l-236 -318q-109 70 -231 70q-282 0 -277 -248q2 -154 189 -153q58 0 102 10z" />
    <glyph glyph-name="gbreve.aalt" horiz-adv-x="1292" 
d="M729 1214q-421 0 -321 457h294q-20 -92 -6 -151q14 -60 72 -60q60 0 89.5 54t45.5 157h297q-51 -457 -471 -457zM768 338l25 231h403l-76 -534q-219 -68 -485 -68q-120 0 -215.5 22.5t-180.5 74.5q-85 51 -133.5 147.5t-48.5 234.5q0 303 191 476q190 172 540 172
q262 0 433 -117l-236 -318q-109 70 -231 70q-282 0 -277 -248q2 -154 189 -153q58 0 102 10z" />
    <glyph glyph-name="gdotaccent.aalt" horiz-adv-x="1292" 
d="M737 1231q-82 0 -132 60q-50 59 -35 143q14 84 84 144q69 60 151 60q84 0 133 -60q49 -59 35 -144q-15 -84 -83 -143q-69 -60 -153 -60zM768 338l25 231h403l-76 -534q-219 -68 -485 -68q-120 0 -215.5 22.5t-180.5 74.5q-85 51 -133.5 147.5t-48.5 234.5q0 303 191 476
q190 172 540 172q262 0 433 -117l-236 -318q-109 70 -231 70q-282 0 -277 -248q2 -154 189 -153q58 0 102 10z" />
    <glyph glyph-name="glyph1" 
 />
    <glyph glyph-name="glyph2" horiz-adv-x="681" 
 />
    <glyph glyph-name="glyph634" horiz-adv-x="462" 
d="M586 1532l-199 -623h-223l84 623h338z" />
    <glyph glyph-name="gravecomb.aalt" 
d="M-190 1128l-207 461h372l95 -461h-260z" />
    <glyph glyph-name="h.aalt" horiz-adv-x="1261" 
d="M866 1059h389l-174 -1059h-391l60 352h-275l-59 -352h-391l174 1059h393l-57 -348h274z" />
    <glyph glyph-name="i.locl" horiz-adv-x="520" 
d="M243 1211q-50 59 -36 143q13 83 84 145q69 60 151 60q85 0 134 -60t35 -145q-15 -84 -83 -143q-69 -60 -153 -60q-82 0 -132 60zM532 979l-163 -979h-379l162 979h380z" />
    <glyph glyph-name="iacute.aalt" horiz-adv-x="595" 
d="M905 1669l-358 -461h-258l241 461h375zM590 1059l-174 -1059h-391l174 1059h391z" />
    <glyph glyph-name="icircumflex.aalt" horiz-adv-x="595" 
d="M457 1405l-168 -197h-260l321 463h301l166 -463h-260zM25 0l174 1059h391l-174 -1059h-391z" />
    <glyph glyph-name="idieresis.aalt" horiz-adv-x="595" 
d="M62 1308q-50 59 -35 140q13 81 83 143q68 60 150 60q84 0 132 -59t34 -144q-13 -80 -82 -140q-68 -59 -151 -59q-81 0 -131 59zM528 1308q-49 58 -34 140q13 81 83 143q68 60 150 60q84 0 132 -59t34 -144q-13 -80 -82 -140q-68 -59 -152 -59q-81 0 -131 59zM590 1059
l-174 -1059h-391l174 1059h391z" />
    <glyph glyph-name="igrave.aalt" horiz-adv-x="595" 
d="M549 1208h-258l-205 461h375zM590 1059l-174 -1059h-391l174 1059h391z" />
    <glyph glyph-name="imacron.aalt" horiz-adv-x="595" 
d="M96 1595h733l-53 -317h-733zM590 1059l-174 -1059h-391l174 1059h391z" />
    <glyph glyph-name="iogonek.aalt" horiz-adv-x="595" 
d="M416 0q-241 -150 -258 -272q-10 -70 59 -70q59 0 145 47l15 -244q-152 -77 -332 -75q-133 0 -191 66q-57 67 -40 171q32 215 321 377h-110l174 1059h391z" />
    <glyph glyph-name="k.aalt" horiz-adv-x="1198" 
d="M1276 1059l-391 -402l209 -657h-461l-86 309l-96 -98l-35 -211h-391l174 1059h393l-53 -320l284 320h453z" />
    <glyph glyph-name="l.aalt" horiz-adv-x="923" 
d="M473 342h397l-47 -342h-800l176 1059h393z" />
    <glyph glyph-name="lacute.aalt" horiz-adv-x="923" 
d="M915 1669l-358 -461h-258l242 461h374zM592 1059l-119 -717h397l-47 -342h-800l176 1059h393z" />
    <glyph glyph-name="lcaron.aalt" horiz-adv-x="923" 
d="M582 1208h-301l-166 463h260l100 -196l168 196h260zM592 1059l-119 -717h397l-47 -342h-800l176 1059h393z" />
    <glyph glyph-name="lslash.aalt" horiz-adv-x="923" 
d="M502 512l-29 -170h397l-47 -342h-800l59 360l-80 -28l-98 311l239 88l56 328h393l-29 -176l207 75l119 -305z" />
    <glyph glyph-name="m.aalt" horiz-adv-x="1552" 
d="M1049 1059h477l-154 -1059h-375l52 326q2 14 5 33t7 40.5t8 44t7 41.5q4 20 7.5 38.5t8.5 35.5q-65 -120 -136 -233l-141 -228h-231l-68 230q-8 28 -21.5 84.5t-33.5 144.5q-7 -141 -27 -246l-55 -311h-354l174 1059h446l129 -484z" />
    <glyph glyph-name="n.aalt" horiz-adv-x="1241" 
d="M881 1059h354l-174 -1059h-365l-241 442l-74 -442h-356l174 1059h362l244 -455z" />
    <glyph glyph-name="nacute.aalt" horiz-adv-x="1241" 
d="M1229 1669l-359 -461h-258l242 461h375zM881 1059h354l-174 -1059h-365l-241 442l-74 -442h-356l174 1059h362l244 -455z" />
    <glyph glyph-name="ncaron.aalt" horiz-adv-x="1241" 
d="M895 1208h-301l-166 463h260l100 -196l168 196h261zM881 1059h354l-174 -1059h-365l-241 442l-74 -442h-356l174 1059h362l244 -455z" />
    <glyph glyph-name="nine.oldstyle" horiz-adv-x="1177" 
d="M612 1094q99 0 184 -33t157 -102q72 -70 113.5 -195.5t41.5 -296.5q0 -239 -79 -430q-80 -195 -248 -315q-169 -121 -402 -121q-255 0 -442 145l155 324q98 -123 275 -123q287 0 335 346q-115 -121 -323 -121q-141 0 -239 87q-99 87 -99 267q0 243 155 406
q155 162 416 162zM547 451q69 0 116 44q46 43 46 105q0 69 -37 105t-92 36q-70 0 -112 -49t-42 -123q0 -57 33 -87.5t88 -30.5z" />
    <glyph glyph-name="nine.oldstyle.case" horiz-adv-x="1218" 
d="M698 1462q100 0 187.5 -32.5t162.5 -102.5t117.5 -195t42.5 -296q0 -240 -82 -432q-83 -196 -254 -318q-172 -123 -405 -123q-292 0 -500 176l195 332q124 -127 280 -127q241 0 299 289q-112 -92 -299 -92q-137 0 -237 88q-101 89 -101 266q0 243 161 406
q161 161 433 161zM510 934q0 -103 117 -105q70 0 116 42q45 42 45 102q0 57 -36 88t-93 31q-70 0 -109 -47q-40 -47 -40 -111z" />
    <glyph glyph-name="ntilde.aalt" horiz-adv-x="1241" 
d="M627 1350q-25 0 -37 -31.5t-23 -106.5h-278q51 435 299 437q88 0 172 -88q54 -54 82 -56q29 0 43 31t26 109h277q-51 -437 -299 -439q-96 0 -184 88l-26 26q-3 3 -9.5 10t-11.5 9q-9 4 -15 7.5t-16 3.5zM881 1059h354l-174 -1059h-365l-241 442l-74 -442h-356l174 1059
h362l244 -455z" />
    <glyph glyph-name="o.aalt" horiz-adv-x="1355" 
d="M575 -35q-224 0 -373 120t-149 353q0 279 198 469q197 189 519 187q150 -2 267.5 -49.5t196.5 -161.5q79 -115 79 -285q0 -279 -198 -456t-540 -177zM639 326q114 0 187 68q71 68 69 171q0 75 -45 119.5t-127 44.5q-112 0 -182 -68t-68 -167q0 -82 42.5 -125t123.5 -43z
" />
    <glyph glyph-name="oacute.aalt" horiz-adv-x="1355" 
d="M1274 1669l-359 -461h-258l242 461h375zM575 -35q-224 0 -373 120t-149 353q0 279 198 469q197 189 519 187q150 -2 267.5 -49.5t196.5 -161.5q79 -115 79 -285q0 -279 -198 -456t-540 -177zM639 326q114 0 187 68q71 68 69 171q0 75 -45 119.5t-127 44.5
q-112 0 -182 -68t-68 -167q0 -82 42.5 -125t123.5 -43z" />
    <glyph glyph-name="ocircumflex.aalt" horiz-adv-x="1355" 
d="M825 1405l-168 -197h-260l322 463h301l166 -463h-260zM770 1094q150 -2 267.5 -49.5t196.5 -161.5q79 -115 79 -285q0 -279 -197 -456q-198 -177 -541 -177q-224 0 -373 120t-149 353q0 279 198 469q196 189 519 187zM639 326q114 0 187 68q71 68 69 171q0 75 -45 119.5
t-127 44.5q-112 0 -182 -68t-68 -167q0 -82 42.5 -125t123.5 -43z" />
    <glyph glyph-name="odieresis.aalt" horiz-adv-x="1355" 
d="M430 1308q-49 58 -34 140q13 81 83 143q68 60 150 60q84 0 132 -59t34 -144q-13 -80 -82 -140q-68 -59 -152 -59q-81 0 -131 59zM897 1308q-49 58 -34 140q13 81 83 143q68 60 150 60q84 0 132 -59t34 -144q-13 -80 -82 -140q-68 -59 -152 -59q-81 0 -131 59zM575 -35
q-224 0 -373 120t-149 353q0 279 198 469q197 189 519 187q150 -2 267.5 -49.5t196.5 -161.5q79 -115 79 -285q0 -279 -198 -456t-540 -177zM639 326q114 0 187 68q71 68 69 171q0 75 -45 119.5t-127 44.5q-112 0 -182 -68t-68 -167q0 -82 42.5 -125t123.5 -43z" />
    <glyph glyph-name="ograve.aalt" horiz-adv-x="1355" 
d="M918 1208h-259l-204 461h374zM575 -35q-224 0 -373 120t-149 353q0 279 198 469q197 189 519 187q150 -2 267.5 -49.5t196.5 -161.5q79 -115 79 -285q0 -279 -198 -456t-540 -177zM639 326q114 0 187 68q71 68 69 171q0 75 -45 119.5t-127 44.5q-112 0 -182 -68t-68 -167
q0 -82 42.5 -125t123.5 -43z" />
    <glyph glyph-name="ohungarumlaut.aalt" horiz-adv-x="1355" 
d="M983 1669l-291 -461h-231l164 461h358zM1485 1669l-426 -461h-260l311 461h375zM575 -35q-224 0 -373 120t-149 353q0 279 198 469q197 189 519 187q150 -2 267.5 -49.5t196.5 -161.5q79 -115 79 -285q0 -279 -198 -456t-540 -177zM639 326q114 0 187 68q71 68 69 171
q0 75 -45 119.5t-127 44.5q-112 0 -182 -68t-68 -167q0 -82 42.5 -125t123.5 -43z" />
    <glyph glyph-name="omacron.aalt" horiz-adv-x="1355" 
d="M465 1595h733l-53 -317h-733zM575 -35q-224 0 -373 120t-149 353q0 279 198 469q197 189 519 187q150 -2 267.5 -49.5t196.5 -161.5q79 -115 79 -285q0 -279 -198 -456t-540 -177zM639 326q114 0 187 68q71 68 69 171q0 75 -45 119.5t-127 44.5q-112 0 -182 -68t-68 -167
q0 -82 42.5 -125t123.5 -43z" />
    <glyph glyph-name="one.oldstyle" horiz-adv-x="659" 
d="M631 1059l-174 -1059h-383l119 737h-115l53 322h500z" />
    <glyph glyph-name="one.oldstyle.case" horiz-adv-x="659" 
d="M707 1427l-236 -1427h-401l180 1085h-125l57 342h525z" />
    <glyph glyph-name="otilde.aalt" horiz-adv-x="1355" 
d="M672 1350q-25 0 -37 -31.5t-23 -106.5h-278q51 435 299 437q88 0 172 -88q54 -54 82 -56q29 0 43 31t26 109h277q-51 -437 -299 -439q-96 0 -184 88l-26 26q-3 3 -9.5 10t-11.5 9q-9 4 -15 7.5t-16 3.5zM575 -35q-224 0 -373 120t-149 353q0 279 198 469q197 189 519 187
q150 -2 267.5 -49.5t196.5 -161.5q79 -115 79 -285q0 -279 -198 -456t-540 -177zM639 326q114 0 187 68q71 68 69 171q0 75 -45 119.5t-127 44.5q-112 0 -182 -68t-68 -167q0 -82 42.5 -125t123.5 -43z" />
    <glyph glyph-name="p.aalt" horiz-adv-x="1144" 
d="M739 1059q412 0 412 -363q0 -203 -151 -324q-152 -122 -410 -122h-133l-41 -250h-393l176 1059h540zM621 594q114 0 112 68q0 47 -82 47h-119l-18 -115h107z" />
    <glyph glyph-name="q.aalt" horiz-adv-x="1370" 
d="M575 -35q-224 0 -373 120t-149 353q0 279 198 469q197 189 519 187q150 -2 267.5 -49.5t196.5 -161.5q79 -115 79 -285q0 -279 -198 -456t-540 -177zM639 326q114 0 187 68q71 68 69 171q0 75 -45 119.5t-127 44.5q-112 0 -182 -68t-68 -167q0 -82 42.5 -125t123.5 -43z
M1143 -420l-719 6l39 310l719 -7z" />
    <glyph glyph-name="r.aalt" horiz-adv-x="1212" 
d="M1151 750q4 -118 -56 -212t-171 -149l172 -389h-461l-111 328h-55l-55 -328h-391l176 1059h573q373 0 379 -309zM735 686q0 39 -53 39h-147l-17 -96h141q76 0 76 57z" />
    <glyph glyph-name="racute.aalt" horiz-adv-x="1212" 
d="M1214 1669l-358 -461h-258l242 461h374zM1151 750q4 -118 -56 -212t-171 -149l172 -389h-461l-111 328h-55l-55 -328h-391l176 1059h573q373 0 379 -309zM735 686q0 39 -53 39h-147l-17 -96h141q76 0 76 57z" />
    <glyph glyph-name="rcaron.aalt" horiz-adv-x="1212" 
d="M881 1208h-301l-166 463h260l100 -196l168 196h260zM1151 750q4 -118 -56 -212t-171 -149l172 -389h-461l-111 328h-55l-55 -328h-391l176 1059h573q373 0 379 -309zM735 686q0 39 -53 39h-147l-17 -96h141q76 0 76 57z" />
    <glyph glyph-name="s.aalt" horiz-adv-x="1001" 
d="M440 -33q-267 0 -434 109l127 330q110 -113 322 -113q67 0 65 39q0 16 -18.5 25.5t-71.5 23.5q-332 84 -332 356q0 83 30 149t90 112.5t150 71t210 24.5q229 0 430 -80l-191 -322q-52 35 -126 56q-77 20 -128 20q-57 0 -57 -35q0 -8 4 -14.5t14.5 -13t30 -13.5t49.5 -16
q26 -7 46.5 -13.5t37.5 -12.5q17 -7 37.5 -16.5t45.5 -23.5q52 -30 80 -61q30 -33 53.5 -86.5t23.5 -122.5q0 -189 -130 -280q-130 -93 -358 -93z" />
    <glyph glyph-name="sacute.aalt" horiz-adv-x="1001" 
d="M1116 1669l-358 -461h-258l241 461h375zM440 -33q-267 0 -434 109l127 330q110 -113 322 -113q67 0 65 39q0 16 -18.5 25.5t-71.5 23.5q-332 84 -332 356q0 83 30 149t90 112.5t150 71t210 24.5q229 0 430 -80l-191 -322q-52 35 -126 56q-77 20 -128 20q-57 0 -57 -35
q0 -8 4 -14.5t14.5 -13t30 -13.5t49.5 -16q26 -7 46.5 -13.5t37.5 -12.5q17 -7 37.5 -16.5t45.5 -23.5q52 -30 80 -61q30 -33 53.5 -86.5t23.5 -122.5q0 -189 -130 -280q-130 -93 -358 -93z" />
    <glyph glyph-name="scaron.aalt" horiz-adv-x="1001" 
d="M782 1208h-301l-166 463h260l101 -196l168 196h260zM563 768q-57 0 -57 -35q0 -8 4 -14.5t14.5 -13t30 -13.5t49.5 -16q26 -7 46.5 -13.5t37.5 -12.5q17 -7 37.5 -16.5t45.5 -23.5q52 -30 80 -61q30 -33 53.5 -86.5t23.5 -122.5q0 -189 -130 -280q-130 -93 -358 -93
q-267 0 -434 109l127 330q110 -113 322 -113q67 0 65 39q0 16 -18.5 25.5t-71.5 23.5q-332 84 -332 356q0 83 30 149t90 112.5t150 71t210 24.5q229 0 430 -80l-191 -322q-52 35 -126 56q-77 20 -128 20z" />
    <glyph glyph-name="seven.oldstyle" horiz-adv-x="978" 
d="M106 1059h941l-521 -1426h-440l414 1065h-453z" />
    <glyph glyph-name="seven.oldstyle.case" horiz-adv-x="1077" 
d="M184 1427h994l-584 -1427h-440l473 1067h-504z" />
    <glyph glyph-name="six.oldstyle" horiz-adv-x="1196" 
d="M829 889q145 0 239 -93q93 -94 93 -282q0 -257 -154 -402q-154 -147 -417 -147q-237 0 -376 154q-140 154 -140 456q0 385 212 636t543 251q225 0 388 -112l-207 -301q-78 63 -197 63q-134 0 -223 -114q-87 -114 -107 -271q128 162 346 162zM608 324q68 0 112 47t44 121
q0 66 -33 95t-82 29q-68 0 -112 -47q-45 -46 -45 -116q0 -61 31 -95t85 -34z" />
    <glyph glyph-name="six.oldstyle.case" horiz-adv-x="1241" 
d="M836 889q55 0 112 -16.5t120 -54.5t101.5 -116.5t38.5 -187.5q-1 -256 -162 -402q-160 -147 -434 -147q-243 0 -389 142q-147 141 -147 425q0 415 220 672q221 258 568 258q251 0 420 -141l-256 -295q-74 68 -190 68q-127 0 -213 -98q-87 -101 -115 -238q111 131 326 131
zM621 336q39 0 71.5 11.5t55.5 31.5t36 48.5t13 61.5q0 113 -133 113q-37 0 -68 -11t-53 -31t-34.5 -47t-12.5 -60q0 -57 35 -87t90 -30z" />
    <glyph glyph-name="t.aalt" horiz-adv-x="976" 
d="M1034 1059l-47 -354h-272l-115 -705h-393l117 705h-248l45 354h913z" />
    <glyph glyph-name="tcaron.aalt" horiz-adv-x="976" 
d="M752 1208h-301l-166 463h260l100 -196l168 196h260zM76 705l45 354h913l-47 -354h-272l-115 -705h-393l117 705h-248z" />
    <glyph glyph-name="three.oldstyle" horiz-adv-x="1040" 
d="M700 367q219 -78 220 -340q0 -209 -155 -320q-155 -110 -386 -110q-154 0 -265 48q-113 48 -223 136l203 291q91 -127 266 -127q75 0 130 33q55 34 55 106q0 135 -207 135h-109l45 266h99q85 0 147 43q62 44 62 111q0 109 -121 109q-122 0 -246 -91l-168 281
q207 156 537 156q81 0 149 -15.5t133 -52.5t101.5 -109t36.5 -174q0 -69 -21 -127.5t-60.5 -105.5t-95.5 -83t-127 -60z" />
    <glyph glyph-name="three.oldstyle.case" horiz-adv-x="1130" 
d="M856 729q195 -96 195 -315q0 -224 -148 -336q-149 -113 -395 -113q-310 0 -533 187l207 307q111 -111 269 -111q87 0 135.5 34.5t48.5 100.5q0 109 -166 109h-107l44 262h100q86 0 141 40t55 99q0 92 -129 92q-172 0 -315 -114l-98 342q227 151 553 149q438 0 438 -327
q0 -146 -82 -249q-84 -105 -213 -157z" />
    <glyph glyph-name="tildecomb.aalt" 
d="M-416 1341q-55 0 -76 -139h-278q51 438 299 438q45 2 84 -21t72 -50.5t59.5 -50.5t46.5 -21q57 0 78 137h278q-51 -438 -307 -438q-55 0 -104 37q-25 19 -46.5 37t-40.5 36q-38 35 -65 35z" />
    <glyph glyph-name="two.oldstyle" horiz-adv-x="1085" 
d="M637 315h371l-62 -315h-893l53 350q135 49 227.5 89t144.5 71q104 62 104 139q0 99 -119 101q-131 0 -252 -115l-162 262q208 197 531 197q99 0 178 -21.5t133.5 -64.5t83.5 -107.5t29 -150.5q0 -134 -98 -246q-99 -111 -269 -189z" />
    <glyph glyph-name="two.oldstyle.case" horiz-adv-x="1167" 
d="M768 438l-106 -80h464l-61 -358h-1047l56 332l248 192q208 151 287 246t79 191q0 128 -143 126q-152 0 -287 -108l-123 332q233 152 527 151q470 0 468 -411q0 -162 -96 -324q-95 -160 -266 -289z" />
    <glyph glyph-name="u.aalt" horiz-adv-x="1241" 
d="M555 -33q-269 0 -382.5 144t-68.5 428l86 520h394l-95 -565q-28 -174 99 -175q150 0 180 179l94 561h387l-84 -516q-50 -309 -191 -441q-142 -135 -419 -135z" />
    <glyph glyph-name="uacute.aalt" horiz-adv-x="1241" 
d="M1233 1669l-359 -461h-258l242 461h375zM555 -33q-269 0 -382.5 144t-68.5 428l86 520h394l-95 -565q-28 -174 99 -175q150 0 180 179l94 561h387l-84 -516q-50 -309 -191 -441q-142 -135 -419 -135z" />
    <glyph glyph-name="ucircumflex.aalt" horiz-adv-x="1241" 
d="M784 1405l-168 -197h-260l322 463h301l166 -463h-260zM862 1059h387l-84 -516q-50 -309 -191 -441q-142 -135 -419 -135q-269 0 -382.5 144t-68.5 428l86 520h394l-95 -565q-28 -174 99 -175q150 0 180 179z" />
    <glyph glyph-name="udieresis.aalt" horiz-adv-x="1241" 
d="M389 1308q-49 58 -34 140q13 81 83 143q68 60 150 60q84 0 132 -59t34 -144q-13 -80 -82 -140q-68 -59 -152 -59q-81 0 -131 59zM856 1308q-49 58 -34 140q13 81 83 143q68 60 150 60q84 0 132 -59t34 -144q-13 -80 -82 -140q-68 -59 -152 -59q-81 0 -131 59zM555 -33
q-269 0 -382.5 144t-68.5 428l86 520h394l-95 -565q-28 -174 99 -175q150 0 180 179l94 561h387l-84 -516q-50 -309 -191 -441q-142 -135 -419 -135z" />
    <glyph glyph-name="ugrave.aalt" horiz-adv-x="1241" 
d="M877 1208h-259l-204 461h374zM555 -33q-269 0 -382.5 144t-68.5 428l86 520h394l-95 -565q-28 -174 99 -175q150 0 180 179l94 561h387l-84 -516q-50 -309 -191 -441q-142 -135 -419 -135z" />
    <glyph glyph-name="uhungarumlaut.aalt" horiz-adv-x="1241" 
d="M942 1669l-291 -461h-231l164 461h358zM1444 1669l-426 -461h-260l311 461h375zM555 -33q-269 0 -382.5 144t-68.5 428l86 520h394l-95 -565q-28 -174 99 -175q150 0 180 179l94 561h387l-84 -516q-50 -309 -191 -441q-142 -135 -419 -135z" />
    <glyph glyph-name="umacron.aalt" horiz-adv-x="1241" 
d="M424 1595h733l-53 -317h-733zM555 -33q-269 0 -382.5 144t-68.5 428l86 520h394l-95 -565q-28 -174 99 -175q150 0 180 179l94 561h387l-84 -516q-50 -309 -191 -441q-142 -135 -419 -135z" />
    <glyph glyph-name="uni0122.salt" horiz-adv-x="1404" 
d="M852 846h661l-24 -164q-109 -717 -789 -717q-247 0 -407 149q-160 148 -160 453q0 179 56.5 338t163.5 285q108 126 276 199t383 73q140 0 273 -45q135 -45 206 -121l-272 -311q-101 100 -265 100q-181 0 -291 -138q-110 -139 -110 -322q0 -128 58 -198.5t161 -70.5
q190 0 262 154h-237zM745 -111q102 0 155 -74q52 -72 32 -192q-51 -283 -379 -418l-92 179q145 57 196 118q-35 3 -63.5 17.5t-47 39.5t-26 60t-0.5 78q14 84 78 138q63 54 147 54z" />
    <glyph glyph-name="uni0122.swash" horiz-adv-x="1398" 
d="M950 627h402l-76 -480q-40 -272 -110 -418q-70 -143 -222 -237l-242 244q105 89 158 321q-118 -53 -276 -53q-249 0 -400 146q-151 145 -151 393q0 399 236 659t618 260q457 0 456 -391q0 -113 -34 -248h-377q18 68 18 119q0 135 -153 135q-156 0 -249 -131
q-93 -130 -93 -297q0 -260 241 -260q129 0 228 66zM461 -78q102 0 155 -74q52 -73 31 -192q-51 -283 -379 -418l-92 178q143 56 197 119q-70 6 -111 57q-41 53 -26 138q14 84 78 138q63 54 147 54z" />
    <glyph glyph-name="uni0123.aalt" horiz-adv-x="1292" 
d="M768 338l25 231h403l-76 -534q-219 -68 -485 -68q-120 0 -215.5 22.5t-180.5 74.5q-85 51 -133.5 147.5t-48.5 234.5q0 303 191 476q190 172 540 172q262 0 433 -117l-236 -318q-109 70 -231 70q-282 0 -277 -248q2 -154 189 -153q58 0 102 10zM514 -111q102 0 155 -74
q52 -73 31 -192q-51 -283 -378 -418l-93 179q145 57 197 118q-70 6 -111 57q-41 53 -26 138q14 84 78 138q63 54 147 54z" />
    <glyph glyph-name="uni0136.swash" horiz-adv-x="1878" 
d="M2019 1427l-477 -522l234 -905h-471l-115 520l-123 -135l-63 -385h-402l184 1104h-96q-291 0 -291 -201q0 -158 215 -158l-47 -280q-237 0 -370 118q-134 117 -134 318q0 106 35.5 194.5t116.5 166.5t232.5 121.5t363.5 43.5h428l-76 -456l393 456h463zM1128 -111
q102 0 155 -74q52 -72 32 -192q-51 -283 -379 -418l-92 179q145 57 196 118q-35 3 -63.5 17.5t-47 39.5t-26 60t-0.5 78q14 84 78 138q63 54 147 54z" />
    <glyph glyph-name="uni0137.aalt" horiz-adv-x="1198" 
d="M1276 1059l-391 -402l209 -657h-461l-86 309l-96 -98l-35 -211h-391l174 1059h393l-53 -320l284 320h453zM502 -111q102 0 155 -74q52 -73 31 -192q-51 -283 -379 -418l-92 179q145 57 197 118q-70 6 -111 57q-40 52 -27 138q14 84 78 138q65 54 148 54z" />
    <glyph glyph-name="uni013B.swash" horiz-adv-x="1558" 
d="M1028 367h483l-59 -367h-885l185 1104h-115q-293 0 -293 -201q0 -158 215 -158l-45 -280q-237 0 -370 118q-134 117 -134 318q0 106 35.5 194.5t116.5 166.5t231.5 121.5t362.5 43.5h450zM1022 -111q102 0 155 -74q52 -73 31 -192q-51 -283 -379 -418l-92 179
q145 57 197 118q-70 6 -111 57q-41 53 -26 138q14 84 78 138q63 54 147 54z" />
    <glyph glyph-name="uni013C.aalt" horiz-adv-x="923" 
d="M473 342h397l-47 -342h-800l176 1059h393zM434 -111q102 0 155 -74q52 -72 32 -192q-51 -283 -379 -418l-92 179q145 57 196 118q-35 3 -63.5 17.5t-47 39.5t-26 60t-0.5 78q14 84 78 138q63 54 147 54z" />
    <glyph glyph-name="uni0145.swash" horiz-adv-x="1953" 
d="M1640 1427h365l-238 -1427h-374l-291 707l-117 -707h-367l185 1104h-101q-291 0 -290 -201q0 -158 215 -158l-47 -280q-237 0 -370 118q-134 117 -134 318q0 106 35.5 194.5t116.5 166.5t232 121.5t363 43.5h404l293 -720zM1174 -111q101 0 154 -74q52 -72 32 -192
q-51 -283 -379 -418l-92 179q145 57 196 118q-35 3 -63.5 17.5t-47 39.5t-26 60t-0.5 78q14 84 78 138q65 54 148 54z" />
    <glyph glyph-name="uni0146.aalt" horiz-adv-x="1241" 
d="M881 1059h354l-174 -1059h-365l-241 442l-74 -442h-356l174 1059h362l244 -455zM522 -111q102 0 155 -74q52 -72 32 -192q-51 -283 -379 -418l-92 179q145 57 196 118q-35 3 -63.5 17.5t-47 39.5t-26 60t-0.5 78q14 84 78 138q63 54 147 54z" />
    <glyph glyph-name="uni0156.swash" horiz-adv-x="1853" 
d="M1855 1042q0 -150 -78 -276q-79 -127 -221 -197l201 -569h-473l-139 502h-86l-84 -502h-402l181 1079h-158q-233 0 -234 -166q0 -152 201 -151v-328q-286 0 -419 139q-134 139 -134 349q0 506 613 505h807q425 0 425 -385zM1153 1067l-41 -248h137q82 0 129 38t47 108
q0 102 -114 102h-158zM1112 -111q102 0 155 -74q52 -73 31 -192q-51 -283 -378 -418l-93 179q145 57 197 118q-70 6 -111 57q-41 53 -26 138q14 84 78 138q63 54 147 54z" />
    <glyph glyph-name="uni0157.aalt" horiz-adv-x="1212" 
d="M1151 750q4 -118 -56 -212t-171 -149l172 -389h-461l-111 328h-55l-55 -328h-391l176 1059h573q373 0 379 -309zM735 686q0 39 -53 39h-147l-17 -96h141q76 0 76 57zM508 -111q102 0 155 -74q52 -73 31 -192q-51 -283 -379 -418l-92 179q145 57 197 118q-70 6 -111 57
q-41 53 -26 138q14 84 78 138q63 54 147 54z" />
    <glyph glyph-name="uni0162.c2sc" horiz-adv-x="976" 
d="M600 0h-78l-88 -139q20 5 41 7.5t41 2.5q174 0 174 -180q0 -142 -101 -222q-101 -79 -253 -79q-184 0 -291 71l100 191q80 -53 183 -53q98 0 98 75q0 39 -39 39q-36 0 -65 -32l-160 55l139 264h-94l117 705h-248l45 354h913l-47 -354h-272z" />
    <glyph glyph-name="uni0162.swash" horiz-adv-x="1587" 
d="M1120 0h-104l-58 -90q36 10 76 10q78 0 125 -46t47 -140q0 -156 -99 -235q-98 -79 -259 -79q-173 0 -268 70l98 199q17 -18 69 -39q53 -21 101 -21q98 0 98 72q0 43 -43 43q-35 0 -67 -33l-160 53l131 236h-88l170 1075h-230q-283 0 -282 -184q0 -144 215 -146l-45 -280
q-233 0 -369 115q-137 114 -137 297q0 115 36 208t117 174t232 124.5t362 43.5h936l-57 -352h-377z" />
    <glyph glyph-name="uni01CD.swash" horiz-adv-x="1736" 
d="M1272 1577h-301l-166 463h260l100 -197l168 197h260zM1229 0l-21 254h-344l-94 -254h-395l479 1104h-205q-289 0 -289 -193q0 -155 203 -153l-117 -281q-112 0 -195 39t-131 102t-71.5 133t-23.5 142q0 114 36 204.5t117 167.5t223.5 119.5t339.5 42.5h721l187 -1427
h-420zM985 575h199l-33 443z" />
    <glyph glyph-name="uni01CE.aalt" horiz-adv-x="1196" 
d="M856 1208h-301l-166 463h260l101 -196l168 196h260zM451 1059h456l183 -1059h-408l-12 131h-285l-55 -131h-387zM510 428h129l-25 248z" />
    <glyph glyph-name="uni01CF.swash" horiz-adv-x="1171" 
d="M1194 1577h-301l-166 463h260l100 -197l168 197h261zM1221 1427l-236 -1427h-401l184 1104h-82q-293 0 -293 -201q0 -158 215 -158l-45 -280q-237 0 -370 118q-134 117 -134 318q0 106 35.5 194.5t116.5 166.5t231.5 121.5t362.5 43.5h416z" />
    <glyph glyph-name="uni01D0.aalt" horiz-adv-x="595" 
d="M571 1208h-301l-166 463h261l100 -196l168 196h260zM25 0l174 1059h391l-174 -1059h-391z" />
    <glyph glyph-name="uni01D1.swash" horiz-adv-x="1560" 
d="M1110 1577h-301l-166 463h260l101 -197l167 197h261zM1399 1137q137 -117 137 -377q0 -352 -233 -573q-234 -222 -584 -222q-300 0 -476 162q-175 162 -175 451q0 382 229 633q230 251 614 251q105 0 181 -24t125.5 -69t73.5 -110t24 -147q0 -14 -0.5 -23.5t-1.5 -15.5z
M760 354q164 0 269 96q104 95 104 246q0 18 -3 27q-182 -143 -479 -143l60 294q93 0 155 37q62 38 62 103q0 82 -88 82q-150 0 -246 -135q-96 -136 -96 -304q0 -151 67 -227t195 -76z" />
    <glyph glyph-name="uni01D2.aalt" horiz-adv-x="1355" 
d="M940 1208h-301l-166 463h260l101 -196l167 196h261zM770 1094q150 -2 267.5 -49.5t196.5 -161.5q79 -115 79 -285q0 -279 -197 -456q-198 -177 -541 -177q-224 0 -373 120t-149 353q0 279 198 469q196 189 519 187zM639 326q114 0 187 68q71 68 69 171q0 75 -45 119.5
t-127 44.5q-112 0 -182 -68t-68 -167q0 -82 42.5 -125t123.5 -43z" />
    <glyph glyph-name="uni01D3.swash" horiz-adv-x="1955" 
d="M1593 1577h-301l-166 463h260l101 -197l168 197h260zM1622 1427h399l-135 -825q-27 -159 -80.5 -278.5t-137.5 -199t-199 -119.5t-265 -40q-289 0 -414 179q-126 179 -77 474l82 486h-123q-287 0 -287 -191q0 -78 54.5 -120.5t160.5 -42.5l-47 -281q-234 0 -367 121
q-135 122 -135 321q0 82 20.5 154t74.5 140q52 67 135 115q81 48 212 77.5t300 29.5h456l-143 -852q-39 -238 141 -237q195 0 234 242z" />
    <glyph glyph-name="uni01D4.aalt" horiz-adv-x="1241" 
d="M899 1208h-301l-166 463h260l101 -196l168 196h260zM862 1059h387l-84 -516q-50 -309 -191 -441q-142 -135 -419 -135q-269 0 -382.5 144t-68.5 428l86 520h394l-95 -565q-28 -174 99 -175q150 0 180 179z" />
    <glyph glyph-name="uni0218.swash" horiz-adv-x="1185" 
d="M1171 901h-356q14 47 14 86q0 109 -102 109q-60 0 -97.5 -31t-37.5 -80q0 -47 43 -93q44 -46 153 -114q152 -86 236 -185t84 -251q0 -203 -150 -301q-152 -98 -354 -98q-380 0 -598 225l168 381q84 -98 196 -167q113 -71 238 -71q86 0 86 54q0 29 -35 55q-37 26 -131 74
q-344 176 -344 477q0 207 170 348t443 141q81 0 148 -16.5t129 -52.5q62 -37 96 -108t34 -171q0 -94 -33 -211zM535 -111q101 0 154 -74q52 -72 32 -192q-51 -283 -379 -418l-92 179q145 57 196 118q-35 3 -63.5 17.5t-47 39.5t-26 60t-0.5 78q14 84 78 138q65 54 148 54z
" />
    <glyph glyph-name="uni0219.aalt" horiz-adv-x="1001" 
d="M604 676q26 -7 46.5 -13.5t37.5 -12.5q17 -7 37.5 -16.5t45.5 -23.5q52 -30 80 -61q30 -33 53.5 -86.5t23.5 -122.5q0 -189 -130 -280q-130 -93 -358 -93q-267 0 -434 109l127 330q110 -113 322 -113q67 0 65 39q0 16 -18.5 25.5t-71.5 23.5q-332 84 -332 356
q0 83 30 149t90 112.5t150 71t210 24.5q229 0 430 -80l-191 -322q-52 35 -126 56q-77 20 -128 20q-57 0 -57 -35q0 -8 4 -14.5t14.5 -13t30 -13.5t49.5 -16zM438 -111q102 0 155 -74q52 -72 32 -192q-51 -283 -379 -418l-92 179q145 57 196 118q-35 3 -63.5 17.5t-47 39.5
t-26 60t-0.5 78q14 84 78 138q63 54 147 54z" />
    <glyph glyph-name="uni021A.swash" horiz-adv-x="1587" 
d="M1724 1427l-57 -352h-377l-170 -1075h-401l170 1075h-230q-283 0 -282 -184q0 -144 215 -146l-45 -280q-233 0 -369 115q-137 114 -137 297q0 115 36 208t117 174t232 124.5t362 43.5h936zM899 -111q102 0 155 -74q52 -73 31 -192q-51 -283 -378 -418l-93 179
q145 57 197 118q-70 6 -111 57q-41 53 -26 138q14 84 78 138q63 54 147 54z" />
    <glyph glyph-name="uni021B.aalt" horiz-adv-x="976" 
d="M1034 1059l-47 -354h-272l-115 -705h-393l117 705h-248l45 354h913zM379 -111q102 0 155 -74q52 -73 31 -192q-51 -283 -379 -418l-92 179q145 57 197 118q-70 6 -111 57q-41 53 -26 138q14 84 78 138q63 54 147 54z" />
    <glyph glyph-name="uni0302.aalt" 
d="M66 1128h-259l-102 199l-168 -199h-260l322 463h301z" />
    <glyph glyph-name="uni0304.aalt" 
d="M-659 1178l53 317h733l-53 -317h-733z" />
    <glyph glyph-name="uni0306.aalt" 
d="M-651 1587h297q-9 -45 -12 -83.5t3 -67t23.5 -44.5t50.5 -16q60 0 89.5 54t45.5 157h295q-51 -457 -471 -457q-421 0 -321 457z" />
    <glyph glyph-name="uni0307.aalt" 
d="M-264 1196q-49 58 -35 141q13 81 83 143q69 60 150 60q84 0 134 -59q49 -59 35 -144q-15 -83 -83 -142q-68 -58 -153 -58q-81 0 -131 59z" />
    <glyph glyph-name="uni0308.aalt" 
d="M-590 1137q-83 0 -133 59q-49 58 -35 141q15 81 83 142q70 59 151 59q84 0 133 -58t35 -143q-16 -83 -84 -142q-67 -58 -150 -58zM-131 1137q-81 0 -131 59q-49 58 -35 141q13 81 83 142q70 59 151 59q84 0 132 -58t34 -143q-15 -84 -82 -142q-68 -58 -152 -58z" />
    <glyph glyph-name="uni030A.aalt" 
d="M-467 1389q12 66 40.5 118t72.5 88.5t102 56t129 19.5q138 0 206 -77q67 -77 46 -205q-23 -126 -114 -202q-92 -77 -232 -77q-71 0 -123 19.5t-84 55.5t-43.5 88t0.5 116zM-84 1389q8 43 -11.5 68.5t-58.5 25.5t-66.5 -25.5t-35.5 -68.5t11.5 -67t58.5 -24t67.5 24
t34.5 67z" />
    <glyph glyph-name="uni030B.aalt" 
d="M-358 1589l-293 -461h-230l162 461h361zM150 1589l-426 -461h-261l312 461h375z" />
    <glyph glyph-name="uni030C.aalt" 
d="M-117 1591h260l-321 -463h-301l-166 463h260l100 -196z" />
    <glyph glyph-name="uni0326.aalt" 
d="M-391 -111q101 0 154 -74t32 -192q-51 -283 -379 -418l-92 179q145 57 197 118q-71 6 -111 57q-41 53 -26 138q13 84 77 138t148 54z" />
    <glyph glyph-name="uni0327.aalt" 
d="M-340 -74q78 0 125 -46t47 -140q0 -156 -100 -235q-99 -78 -258 -78q-172 0 -269 69l99 199q17 -19 68 -39q52 -21 102 -21q98 0 98 72q0 43 -43 43q-35 0 -68 -33l-159 54l163 295h213l-94 -150q36 10 76 10z" />
    <glyph glyph-name="uni0328.aalt" 
d="M-539 -569q-117 0 -175 53t-58 141q0 158 132 280q133 122 339 206l135 -64q-260 -161 -260 -283q0 -61 59 -61q54 0 146 47l16 -244q-161 -75 -334 -75z" />
    <glyph glyph-name="uogonek.aalt" horiz-adv-x="1241" 
d="M862 1059h387l-84 -516q-18 -115 -48.5 -205t-75 -156.5t-104 -111t-136.5 -70.5q-213 -137 -228 -252q-10 -70 60 -70q60 0 145 48l15 -244q-151 -76 -332 -76q-133 0 -190 66q-58 67 -42 172q29 186 240 327q-449 47 -365 568l86 520h394l-95 -565q-28 -174 99 -175
q150 0 180 179z" />
    <glyph glyph-name="uring.aalt" horiz-adv-x="1241" 
d="M821 1225q-60 0 -107.5 16t-80.5 45.5t-50.5 71t-17.5 92.5q0 143 100 240q99 96 250 96q121 0 188 -64q66 -64 66 -166q0 -137 -97 -234t-251 -97zM842 1397q57 0 95 36.5t38 96.5q0 42 -23 64t-65 22q-50 0 -88 -39q-37 -38 -37 -98q0 -82 80 -82zM555 -33
q-269 0 -382.5 144t-68.5 428l86 520h394l-95 -565q-28 -174 99 -175q150 0 180 179l94 561h387l-84 -516q-50 -309 -191 -441q-142 -135 -419 -135z" />
    <glyph glyph-name="v.aalt" horiz-adv-x="1288" 
d="M936 1059h405l-563 -1059h-456l-168 1059h417l43 -438q3 -56 4.5 -113.5t2.5 -118.5q28 76 51 134t43 98z" />
    <glyph glyph-name="w.salt" horiz-adv-x="1490" 
d="M1272 979h368l-450 -979h-387l-47 293l-174 -293h-357l-57 981h375l-23 -588l166 334l-41 254h367v-2h153l-137 -229l29 -373z" />
    <glyph glyph-name="wacute.aalt" horiz-adv-x="1794" 
d="M1513 1669l-358 -461h-258l242 461h374zM1452 1059h401l-442 -1059h-473l-23 270q-6 129 -6 252q-28 -75 -52 -137t-46 -111l-135 -274h-461l-63 1059h417l-2 -326q-5 -93 -11.5 -164.5t-14.5 -124.5q26 71 48 128.5t42 103.5l186 387h381l37 -348q3 -28 6.5 -91.5
t7.5 -164.5q45 158 66 219z" />
    <glyph glyph-name="wcircumflex.aalt" horiz-adv-x="1794" 
d="M1065 1405l-168 -197h-260l321 463h302l165 -463h-260zM1452 1059h401l-442 -1059h-473l-23 270q-6 129 -6 252q-28 -75 -52 -137t-46 -111l-135 -274h-461l-63 1059h417l-2 -326q-5 -93 -11.5 -164.5t-14.5 -124.5q26 71 48 128.5t42 103.5l186 387h381l37 -348
q3 -28 6.5 -91.5t7.5 -164.5q45 158 66 219z" />
    <glyph glyph-name="wdieresis.aalt" horiz-adv-x="1794" 
d="M801 1249q-81 0 -131 59q-49 57 -35 140q13 81 83 143q68 60 150 60q83 0 133 -59q48 -60 33 -144q-13 -81 -81 -140t-152 -59zM1268 1249q-81 0 -131 59t-35 140q13 81 83 143q68 60 150 60q83 0 133 -59q48 -60 33 -144q-13 -81 -81 -140t-152 -59zM1452 1059h401
l-442 -1059h-473l-23 270q-6 129 -6 252q-28 -75 -52 -137t-46 -111l-135 -274h-461l-63 1059h417l-2 -326q-5 -93 -11.5 -164.5t-14.5 -124.5q26 71 48 128.5t42 103.5l186 387h381l37 -348q3 -28 6.5 -91.5t7.5 -164.5q45 158 66 219z" />
    <glyph glyph-name="wgrave.aalt" horiz-adv-x="1794" 
d="M1157 1208h-258l-205 461h375zM1452 1059h401l-442 -1059h-473l-23 270q-6 129 -6 252q-28 -75 -52 -137t-46 -111l-135 -274h-461l-63 1059h417l-2 -326q-5 -93 -11.5 -164.5t-14.5 -124.5q26 71 48 128.5t42 103.5l186 387h381l37 -348q3 -28 6.5 -91.5t7.5 -164.5
q45 158 66 219z" />
    <glyph glyph-name="x.aalt" horiz-adv-x="1218" 
d="M1255 1059l-350 -516l199 -543h-422l-104 315l-183 -315h-428l379 575l-190 484h422l88 -295l172 295h417z" />
    <glyph glyph-name="y.aalt" horiz-adv-x="1171" 
d="M1245 1059l-491 -783l-45 -276h-392l50 297l-246 762h424l78 -373l202 373h420z" />
    <glyph glyph-name="yacute.aalt" horiz-adv-x="1171" 
d="M1182 1669l-359 -461h-258l242 461h375zM1245 1059l-491 -783l-45 -276h-392l50 297l-246 762h424l78 -373l202 373h420z" />
    <glyph glyph-name="ycircumflex.aalt" horiz-adv-x="1171" 
d="M733 1405l-168 -197h-260l322 463h301l166 -463h-260zM1245 1059l-491 -783l-45 -276h-392l50 297l-246 762h424l78 -373l202 373h420z" />
    <glyph glyph-name="ydieresis.aalt" horiz-adv-x="1171" 
d="M469 1249q-81 0 -131 59q-49 57 -35 140q13 81 83 143q69 60 151 60q84 0 132 -59q48 -60 33 -144q-13 -81 -81 -140t-152 -59zM936 1249q-81 0 -131 59q-49 57 -35 140q13 81 83 143q69 60 151 60q84 0 132 -59q48 -60 33 -144q-13 -81 -81 -140t-152 -59zM1245 1059
l-491 -783l-45 -276h-392l50 297l-246 762h424l78 -373l202 373h420z" />
    <glyph glyph-name="ygrave.aalt" horiz-adv-x="1171" 
d="M825 1208h-258l-205 461h375zM1245 1059l-491 -783l-45 -276h-392l50 297l-246 762h424l78 -373l202 373h420z" />
    <glyph glyph-name="z.aalt" horiz-adv-x="1026" 
d="M1065 1059l-41 -328l-444 -391l391 2l-47 -342h-932l45 328l461 397h-400l49 334h918z" />
    <glyph glyph-name="zacute.aalt" horiz-adv-x="1026" 
d="M1135 1669l-359 -461h-258l242 461h375zM98 725l49 334h918l-41 -328l-444 -391l391 2l-47 -342h-932l45 328l461 397h-400z" />
    <glyph glyph-name="zcaron.aalt" horiz-adv-x="1026" 
d="M801 1208h-301l-166 463h260l100 -196l168 196h260zM98 725l49 334h918l-41 -328l-444 -391l391 2l-47 -342h-932l45 328l461 397h-400z" />
    <glyph glyph-name="zdotaccent.aalt" horiz-adv-x="1026" 
d="M655 1231q-82 0 -132 60q-50 59 -35 143q14 84 84 144q69 60 151 60q84 0 133 -60q49 -59 35 -144q-14 -84 -83 -143q-69 -60 -153 -60zM1065 1059l-41 -328l-444 -391l391 2l-47 -342h-932l45 328l461 397h-400l49 334h918z" />
    <glyph glyph-name="zero.oldstyle" horiz-adv-x="1220" 
d="M518 -35q-112 0 -200 30t-148 88.5t-91.5 144t-31.5 196.5q0 287 180 480q179 192 492 192q201 0 333 -114t132 -359q0 -270 -171 -464t-495 -194zM559 276q109 0 179 100q69 99 69 234q0 180 -129 181q-110 0 -181 -101q-71 -103 -71 -244q0 -170 133 -170z" />
    <glyph glyph-name="zero.oldstyle.case" horiz-adv-x="1386" 
d="M596 -35q-258 0 -398 153q-141 152 -141 427q0 248 93 455q92 206 277 334t429 128q112 0 204.5 -31t167.5 -99t116.5 -185.5t41.5 -276.5q0 -173 -50.5 -331.5t-146.5 -288.5q-94 -129 -249 -207q-154 -78 -344 -78zM649 350q135 0 225 147q89 146 89 345
q0 243 -164 241q-132 0 -224 -147q-92 -149 -92 -348q0 -238 166 -238z" />
    </font>
</defs>
</svg>
