<?xml version="1.0" standalone="no"?>
<!DOCTYPE svg PUBLIC "-//W3C//DTD SVG 1.1//EN" "http://www.w3.org/Graphics/SVG/1.1/DTD/svg11.dtd" >
<svg xmlns="http://www.w3.org/2000/svg" xmlns:xlink="http://www.w3.org/1999/xlink" version="1.1">
<metadata>
Created by FontForge 20230101 at Wed Jul 26 10:39:04 2017
 By Pablo Velazquez
Copyright (c) 2017 by Emil Bertell. All rights reserved.
</metadata>
<defs>
<font id="Karu-Bold" horiz-adv-x="0" >
  <font-face 
    font-family="Karu Bold"
    font-weight="600"
    font-stretch="normal"
    units-per-em="2048"
    panose-1="0 0 7 0 0 0 0 0 0 0"
    ascent="1638"
    descent="-410"
    x-height="979"
    cap-height="1427"
    bbox="-1075 -741 2462 2157"
    underline-thickness="0"
    underline-position="0"
    unicode-range="U+000D-FB02"
  />
<missing-glyph horiz-adv-x="1017" 
d="M836 1530v-2038h-648v2038h648zM678 1393h-336v-68h133v-76h-135v-65h338v65h-135v76h135v68zM543 1130h-203v-212h338v69h-135v143zM475 1061v-74h-67v74h67zM678 862h-338v-65h135v-76h-135v-68h203v144h135v65zM678 741h-68v-135h-270v-69h338v204zM678 494h-203v-115
h68v47h67v-96h-202v164h-68v-232h338v232zM678 141h-338v-231h338v231zM610 74v-97h-202v97h202zM678 -137h-338v-66h143l-143 -96v-68h338v68h-207l141 96h66v66z" />
    <glyph glyph-name="uniFB01" unicode="fi" horiz-adv-x="1191" 
d="M473 1061v-82h186v-240h-186v-739h-317v739h-111v240h111v106q0 126 29 216.5t86.5 148.5t143 85.5t199.5 27.5q201 0 328 -72l-94 -256q-78 57 -197 57q-93 0 -135.5 -56.5t-42.5 -174.5zM772 979h318v-979h-318v979z" />
    <glyph glyph-name="uniFB02" unicode="fl" horiz-adv-x="1169" 
d="M618 1563q141 0 267 -27q125 -27 196 -68v-1468h-317v1282q-50 10 -117 10q-174 0 -174 -182v-131h186v-240h-186v-739h-317v739h-111v240h111v131q0 241 113 348q113 105 349 105z" />
    <glyph glyph-name="f_b.liga" unicode="fb" horiz-adv-x="1835" 
d="M1386 1012q82 0 153 -30t129 -90q58 -61 93 -164.5t35 -242.5q0 -136 -38 -238.5t-101 -162.5q-64 -60 -137 -88.5t-154 -28.5q-188 0 -285 139v-106h-317v1280q-46 12 -107 12q-98 0 -141 -49t-43 -164v-100h186v-240h-186v-739h-317v739h-111v240h111v100
q0 266 124 375q122 109 369 109q284 0 432 -90v-603q112 142 305 142zM1284 252q81 0 140 59q57 59 57 176q0 60 -14.5 105.5t-40 76t-60.5 45.5t-76 15q-143 0 -209 -149v-179q59 -149 203 -149z" />
    <glyph glyph-name="f_f_i.liga" unicode="ffi" horiz-adv-x="1875" 
 />
    <glyph glyph-name="f_f_l.liga" unicode="ffl" horiz-adv-x="1845" 
d="M473 1147v-168h186v-240h-186v-739h-317v739h-111v240h111v209q0 98 23 168.5t66 116.5t105.5 68t141.5 22q50 0 92.5 -5t80 -15.5t72 -26.5t68.5 -39l-80 -232q-58 47 -145 47q-107 0 -107 -145zM1296 1563q139 0 266 -27q125 -27 197 -68v-1468h-317v1282
q-50 10 -117 10q-174 0 -174 -182v-131h184v-240h-184v-739h-317v739h-111v240h111v131q0 242 112 348q113 105 350 105z" />
    <glyph glyph-name="f_h.liga" unicode="fh" horiz-adv-x="1767" 
d="M1374 1012q147 0 230.5 -88t83.5 -265v-659h-318v565q0 164 -131 164q-104 0 -158 -123v-606h-317v1276q-51 16 -109 16q-91 0 -136.5 -46t-45.5 -152v-115h186v-240h-186v-739h-317v739h-111v240h111v129q0 246 115 351q115 104 358 104q289 0 452 -99v-618
q90 166 293 166z" />
    <glyph glyph-name="f_k.liga" unicode="fk" horiz-adv-x="1757" 
d="M1380 0l-172 369l-127 -144v-225h-317v1276q-51 16 -117 16q-174 0 -174 -194v-119h186v-240h-186v-739h-317v739h-111v240h111v131q0 250 110 352q110 101 348 101q139 0 268 -27t199 -66v-862l295 371h373l-301 -340l309 -639h-377z" />
    <glyph glyph-name=".notdef" horiz-adv-x="1017" 
d="M836 1530v-2038h-648v2038h648zM678 1393h-336v-68h133v-76h-135v-65h338v65h-135v76h135v68zM543 1130h-203v-212h338v69h-135v143zM475 1061v-74h-67v74h67zM678 862h-338v-65h135v-76h-135v-68h203v144h135v65zM678 741h-68v-135h-270v-69h338v204zM678 494h-203v-115
h68v47h67v-96h-202v164h-68v-232h338v232zM678 141h-338v-231h338v231zM610 74v-97h-202v97h202zM678 -137h-338v-66h143l-143 -96v-68h338v68h-207l141 96h66v66z" />
    <glyph glyph-name=".null" 
 />
    <glyph glyph-name="nonmarkingreturn" unicode="&#xd;" horiz-adv-x="512" 
 />
    <glyph glyph-name="space" unicode=" " horiz-adv-x="344" 
 />
    <glyph glyph-name="exclam" unicode="!" horiz-adv-x="647" 
d="M489 1427l-16 -991h-303l-18 991h337zM190 22q-55 54 -55 133t55 134q54 55 134 55q78 0 133 -55t55 -134t-54 -133q-55 -55 -134 -55q-80 0 -134 55z" />
    <glyph glyph-name="quotedbl" unicode="&#x22;" horiz-adv-x="849" 
d="M393 1530l-28 -586h-234l-63 586h325zM780 1530l-63 -586h-232l-28 586h323z" />
    <glyph glyph-name="numbersign" unicode="#" horiz-adv-x="1296" 
d="M1268 858h-185l-57 -262h143v-270h-200l-70 -326h-305l72 326h-224l-69 -326h-305l71 326h-110v270h168l57 262h-127v270h184l66 299h303l-64 -299h222l65 299h303l-63 -299h125v-270zM723 596l57 262h-223l-57 -262h223z" />
    <glyph glyph-name="dollar" unicode="$" horiz-adv-x="1026" 
d="M983 442q0 -160 -78 -262t-217 -145v-182h-289v161q-194 19 -360 119l78 299q173 -121 356 -121q91 0 137.5 30t46.5 85q0 59 -43 89q-44 31 -149 63q-102 30 -176.5 71.5t-123 96t-72 124t-23.5 156.5q0 152 85 254t248 133v152h287v-152q78 -11 145.5 -32t127.5 -50
l-111 -282q-152 86 -301 86q-70 0 -109 -26t-39 -77q0 -28 10 -50.5t32 -41.5t58 -35t87 -31q43 -13 79.5 -27t69 -30.5t62.5 -36t60 -43.5q60 -49 91 -123.5t31 -171.5z" />
    <glyph glyph-name="percent" unicode="%" horiz-adv-x="1708" 
d="M35 1110q0 151 95 251q95 99 252 99t254 -99q97 -98 97 -251q0 -154 -96 -253t-254 -99t-253 99q-95 100 -95 253zM1300 1427l-567 -1427h-319l567 1427h319zM484 1007q38 43 38 103t-38 106q-38 44 -101 44t-101 -44q-38 -46 -38 -106t38 -103q38 -42 101 -42
q64 0 101 42zM977 319q0 150 95 251q94 100 253 100q158 0 254 -100t96 -251q0 -153 -96 -254q-96 -100 -254 -100q-159 0 -253 100q-95 101 -95 254zM1429 214q37 41 37 105q0 61 -38 105q-39 43 -102 43q-65 0 -102 -43q-38 -44 -38 -105q0 -62 38 -105q38 -42 101 -42
q67 0 104 42z" />
    <glyph glyph-name="ampersand" unicode="&#x26;" horiz-adv-x="1318" 
d="M1311 0h-371l-39 43q-161 -76 -387 -76q-235 0 -351 91t-116 268q0 260 279 381q-39 49 -68.5 95t-49.5 89q-40 84 -40 188q0 178 115 280q115 101 329 101q196 0 309 -92q111 -91 111 -264q0 -87 -29.5 -161.5t-77.5 -126.5t-98.5 -88t-107.5 -58l207 -234
q61 105 59 260h281q0 -292 -146 -479zM604 1192q-69 0 -107 -35.5t-38 -95.5q0 -98 121 -234l8 -8q168 90 168 225q0 69 -38.5 108.5t-113.5 39.5zM547 233q88 0 166 27l-250 287q-113 -63 -113 -162q0 -76 51.5 -114t145.5 -38z" />
    <glyph glyph-name="quotesingle" unicode="'" horiz-adv-x="460" 
d="M393 1530l-47 -586h-231l-47 586h325z" />
    <glyph glyph-name="parenleft" unicode="(" horiz-adv-x="628" 
d="M352 1747l254 -145q-223 -370 -223 -957q0 -586 223 -956l-254 -146q-133 190 -214 478t-81 624t81 624t214 478z" />
    <glyph glyph-name="parenright" unicode=")" horiz-adv-x="636" 
d="M276 -457l-253 146q223 370 223 956q0 601 -223 971l253 145q133 -190 214 -482t81 -634q0 -336 -81 -624t-214 -478z" />
    <glyph glyph-name="asterisk" unicode="*" horiz-adv-x="919" 
d="M872 1145l-268 -58l209 -229l-225 -131l-119 297l-117 -297l-225 131l207 227l-283 60l92 241l246 -155l-61 301h260l-49 -297l241 151z" />
    <glyph glyph-name="plus" unicode="+" horiz-adv-x="1128" 
d="M1022 823v-278h-315v-342h-287v342h-316v278h316v332h287v-332h315z" />
    <glyph glyph-name="comma" unicode="," horiz-adv-x="538" 
d="M270 338q88 0 141.5 -65t53.5 -193q0 -180 -87 -330q-88 -149 -235 -215l-102 152q179 103 223 276h-4q-72 0 -123 52q-51 51 -51 135q0 86 53 137t131 51z" />
    <glyph glyph-name="hyphen" unicode="-" horiz-adv-x="831" 
d="M66 426v270h700v-270h-700z" />
    <glyph glyph-name="period" unicode="." horiz-adv-x="567" 
d="M142 22q-54 54 -54 133t55 134q54 55 133 55q80 0 135 -55q54 -55 54 -134t-54 -133q-55 -55 -135 -55t-134 55z" />
    <glyph glyph-name="slash" unicode="/" horiz-adv-x="1032" 
d="M999 1661l-647 -1890h-319l647 1890h319z" />
    <glyph glyph-name="zero" unicode="0" horiz-adv-x="1368" 
d="M688 -33q-300 0 -466 199q-167 200 -167 553q0 347 172 544q173 197 461 197q289 0 457 -195q168 -196 168 -546q0 -358 -164 -555t-461 -197zM686 287q134 0 205.5 109t71.5 323q0 212 -70.5 318t-204.5 106t-208 -108t-74 -316q0 -212 74 -322t206 -110z" />
    <glyph glyph-name="one" unicode="1" horiz-adv-x="655" 
d="M504 1427v-1427h-332v1139h-119v288h451z" />
    <glyph glyph-name="two" unicode="2" horiz-adv-x="1124" 
d="M539 297h551v-297h-1004v270l246 226q79 72 136.5 134.5t95 119t55.5 108.5t18 103q0 93 -49.5 138.5t-134.5 45.5q-146 0 -306 -125l-159 246q221 194 524 192q213 0 346 -112t133 -326q0 -189 -91 -338q-92 -151 -259 -297z" />
    <glyph glyph-name="three" unicode="3" horiz-adv-x="1120" 
d="M827 733q56 -21 101 -54.5t77.5 -78t50 -100t17.5 -121.5q0 -207 -142 -309q-142 -103 -384 -103q-307 0 -516 183l153 264q80 -68 151 -98q69 -31 177 -31q92 0 148.5 40t56.5 124q0 83 -62 124q-63 39 -159 39h-115l2 222h102q94 0 151.5 43t57.5 124q0 75 -48.5 110.5
t-133.5 35.5q-170 0 -313 -113l-146 240q209 186 541 186q199 0 327 -95t128 -286q0 -128 -59.5 -214.5t-162.5 -131.5z" />
    <glyph glyph-name="four" unicode="4" horiz-adv-x="1216" 
d="M1204 532v-286h-188v-246h-324v246h-639v278l535 908h428v-900h188zM395 532h297v551z" />
    <glyph glyph-name="five" unicode="5" horiz-adv-x="1107" 
d="M655 885q183 0 292 -103q110 -104 110 -319q0 -132 -42 -226t-114.5 -154t-171.5 -88t-213 -28q-304 0 -504 172l138 279q143 -135 327 -135q96 0 161 50q64 49 64 140q0 87 -43.5 126.5t-115.5 39.5q-115 0 -183 -90l-239 82v796h842v-301h-529v-295q101 54 221 54z" />
    <glyph glyph-name="six" unicode="6" horiz-adv-x="1230" 
d="M756 885q198 0 317 -106q119 -107 119 -318q0 -220 -145 -356q-145 -138 -402 -138q-279 0 -428 188t-149 541q0 360 172 562t467 202q261 0 430 -153l-176 -254q-102 96 -238 96q-70 0 -126.5 -26.5t-96.5 -78t-61 -128.5t-21 -179q106 148 338 148zM645 274
q47 0 85.5 13.5t66 38t42.5 60t15 79.5q0 87 -50.5 131.5t-141.5 44.5q-96 0 -158 -48t-62 -130q0 -80 58 -134q56 -55 145 -55z" />
    <glyph glyph-name="seven" unicode="7" horiz-adv-x="991" 
d="M20 1425h965l-397 -1425h-365l344 1126h-547v299z" />
    <glyph glyph-name="eight" unicode="8" horiz-adv-x="1224" 
d="M932 721q229 -94 229 -350q0 -403 -549 -404q-549 0 -549 404q0 258 230 350q-184 111 -184 346q0 178 127 286q127 107 376 107t377 -107q127 -108 127 -286q0 -235 -184 -346zM793 993q0 76 -48 119t-133 43t-132.5 -43t-47.5 -119q0 -78 49 -125t131 -47t131.5 47
t49.5 125zM456 563q-57 -40 -57 -119t57 -123q56 -45 157 -45t156 45q56 44 56 122q0 77 -57 119t-156 42q-100 0 -156 -41z" />
    <glyph glyph-name="nine" unicode="9" horiz-adv-x="1236" 
d="M528 279q145 0 228.5 98t83.5 295v18q-104 -143 -324 -143q-190 0 -306 108q-116 107 -116 318q0 220 140 354q139 133 380 133q275 0 426 -189q152 -191 152 -530q2 -382 -161 -577q-164 -197 -460 -197q-311 0 -505 174l157 269q119 -131 305 -131zM610 788
q85 0 147 50q60 50 60 127q0 83 -52 135q-53 53 -142 53q-91 0 -143 -49.5t-52 -136.5t48.5 -133t133.5 -46z" />
    <glyph glyph-name="colon" unicode=":" horiz-adv-x="641" 
d="M142 737q-54 54 -54 133t55 134q54 55 133 55q80 0 135 -55q54 -55 54 -134t-54 -133q-55 -55 -135 -55t-134 55zM142 28q-54 54 -54 133t55 134q54 55 133 55q80 0 135 -55q54 -55 54 -134t-54 -133q-55 -55 -135 -55t-134 55z" />
    <glyph glyph-name="semicolon" unicode=";" horiz-adv-x="602" 
d="M272 682q-80 0 -134 55q-54 54 -54 133t55 134q54 55 133 55q80 0 135 -55q54 -55 54 -134t-54 -133q-55 -55 -135 -55zM270 338q88 0 141.5 -65t53.5 -193q0 -180 -87 -330q-88 -149 -235 -215l-102 152q179 103 223 276h-4q-72 0 -123 52q-51 51 -51 135q0 86 53 137
t131 51z" />
    <glyph glyph-name="less" unicode="&#x3c;" horiz-adv-x="974" 
d="M868 1176v-310l-559 -200l559 -209v-312l-833 359v327z" />
    <glyph glyph-name="equal" unicode="=" horiz-adv-x="1130" 
d="M104 1034h922v-278h-922v278zM104 567h922v-278h-922v278z" />
    <glyph glyph-name="greater" unicode="&#x3e;" horiz-adv-x="974" 
d="M106 1176l834 -345v-327l-834 -359v312l558 209l-558 200v310z" />
    <glyph glyph-name="question" unicode="?" horiz-adv-x="1034" 
d="M532 1460q88 0 163 -21.5t139 -66.5q63 -45 99 -127t36 -194q0 -164 -85 -267.5t-235 -138.5l-6 -190h-303l-8 352h57q115 0 178.5 49.5t63.5 142.5q0 40 -13.5 70t-37.5 49.5t-57 29t-72 9.5q-138 0 -263 -110l-149 225q203 188 493 188zM487 344q78 0 133 -55
q54 -55 54 -134t-54 -133q-55 -55 -133 -55q-80 0 -134 55q-54 54 -54 133t54 134t134 55z" />
    <glyph glyph-name="at" unicode="@" horiz-adv-x="1867" 
d="M1112 940h225v-491q0 -168 88 -168q59 0 92 71t33 244q0 167 -46 291.5t-128 197.5q-82 72 -186 108t-227 36q-130 0 -244 -46.5t-204 -136.5q-90 -91 -140.5 -230t-50.5 -314q0 -140 38.5 -256t114.5 -207t198.5 -142t280.5 -51q150 0 266 26q57 13 115.5 34.5
t120.5 50.5l53 -197q-244 -119 -555 -118q-250 -2 -440 96t-298 295q-109 196 -109 471q0 215 69 393q68 179 186 294q118 117 270.5 179t328.5 62q167 0 308.5 -49t254.5 -148t176 -262t63 -377q0 -103 -19.5 -191.5t-61.5 -163.5t-115.5 -119t-173.5 -44q-97 0 -169.5 44
t-109.5 122q-100 -138 -274 -140q-143 0 -234 106q-92 106 -92 325q0 220 97 327q96 107 245 107q160 0 238 -131zM920 332q55 0 99 29.5t64 89.5v161q-37 134 -153 136q-70 0 -114 -54.5t-44 -154.5q0 -103 41 -155t107 -52z" />
    <glyph glyph-name="A" unicode="A" horiz-adv-x="1277" 
d="M915 0l-77 272h-428l-70 -272h-328l414 1427h389l451 -1427h-351zM477 541h285l-152 530z" />
    <glyph glyph-name="B" unicode="B" horiz-adv-x="1300" 
d="M993 766q121 -29 189.5 -114.5t68.5 -223.5q0 -199 -129 -313q-128 -115 -383 -115h-598v1427h611q205 0 315.5 -89t110.5 -267q-1 -211 -185 -305zM852 991q0 140 -176 142h-203v-299h207q76 0 124 40.5t48 116.5zM733 295q85 0 136 43.5t51 130.5q0 156 -189 156h-258
v-330h260z" />
    <glyph glyph-name="C" unicode="C" horiz-adv-x="1349" 
d="M727 -33q-313 0 -492 198q-180 197 -180 550q0 345 204 544q203 199 523 199q310 0 525 -188l-179 -277q-135 142 -344 144q-168 0 -273 -113q-105 -112 -108 -303q-2 -206 97 -316q97 -112 266 -112q254 0 397 194l152 -290q-88 -106 -243 -168q-156 -62 -345 -62z" />
    <glyph glyph-name="D" unicode="D" horiz-adv-x="1425" 
d="M618 1427q347 0 544 -172q198 -172 198 -522q0 -354 -201 -543q-200 -190 -541 -190h-477v1427h477zM1008 733q0 196 -103.5 295.5t-314.5 99.5h-117v-827h117q204 0 310 117q107 116 108 315z" />
    <glyph glyph-name="E" unicode="E" horiz-adv-x="1171" 
d="M1104 1128h-635v-260h483v-266h-483v-301h635v-301h-969v1427h969v-299z" />
    <glyph glyph-name="F" unicode="F" horiz-adv-x="1132" 
d="M1098 1126h-623v-276h471v-275h-471v-575h-334v1427h957v-301z" />
    <glyph glyph-name="G" unicode="G" horiz-adv-x="1400" 
d="M698 836h621v-768q-144 -51 -287 -75.5t-287 -25.5q-319 0 -505 196q-187 194 -187 548q0 352 196 551q195 198 515 198q341 0 543 -198l-203 -246q-130 123 -330 123q-172 0 -274 -116q-103 -115 -103 -312t98 -310q98 -114 271 -114q126 0 219 35v247h-287v267z" />
    <glyph glyph-name="H" unicode="H" horiz-adv-x="1415" 
d="M948 1427h332v-1427h-332v578h-481v-578h-332v1427h332v-544h481v544z" />
    <glyph glyph-name="I" unicode="I" horiz-adv-x="602" 
d="M467 1427v-1427h-332v1427h332z" />
    <glyph glyph-name="J" unicode="J" horiz-adv-x="944" 
d="M344 -33q-112 0 -205.5 35.5t-154.5 89.5l88 311q37 -60 98.5 -98.5t142.5 -38.5q48 0 85 14.5t61.5 47t37.5 84t13 125.5v890h334v-860q0 -169 -39.5 -288.5t-110.5 -185.5t-156 -96t-194 -30z" />
    <glyph glyph-name="K" unicode="K" horiz-adv-x="1296" 
d="M885 0l-267 596l-145 -188v-408h-332v1427h332v-550l408 550h387l-410 -524l420 -903h-393z" />
    <glyph glyph-name="L" unicode="L" horiz-adv-x="1009" 
d="M135 1427h334v-1126h522v-301h-856v1427z" />
    <glyph glyph-name="M" unicode="M" horiz-adv-x="1726" 
d="M1591 0h-321v838l-289 -736h-248l-291 742v-844h-307v1427h395l344 -815l318 815h383z" />
    <glyph glyph-name="N" unicode="N" horiz-adv-x="1388" 
d="M946 1427h307v-1427h-313l-498 803v-803h-307v1427h309l502 -815v815z" />
    <glyph glyph-name="O" unicode="O" horiz-adv-x="1548" 
d="M774 -33q-326 0 -524 201q-199 200 -199 549q0 344 203 544q202 199 520 199q104 0 197 -21.5t173 -64.5t145 -107t113 -150q95 -172 95 -400q0 -350 -197 -550q-198 -200 -526 -200zM774 289q172 0 273 116q100 115 100 312q0 194 -101 309q-102 113 -272 113t-271 -114
q-102 -114 -102 -308q0 -196 102 -312q101 -116 271 -116z" />
    <glyph glyph-name="P" unicode="P" horiz-adv-x="1232" 
d="M709 1427q506 0 505 -460q0 -118 -34 -206t-98 -146.5t-157 -87.5t-212 -29h-240v-498h-332v1427h568zM678 791q88 0 137 44.5t49 129.5q0 163 -188 161h-203v-335h205z" />
    <glyph glyph-name="Q" unicode="Q" horiz-adv-x="1548" 
d="M774 -33q-326 0 -524 201q-199 200 -199 549q0 344 203 544q202 199 520 199q104 0 197 -21.5t173 -64.5t145 -107t113 -150q95 -172 95 -400q0 -350 -197 -550q-198 -200 -526 -200zM774 289q172 0 273 116q100 115 100 312q0 194 -101 309q-102 113 -272 113t-271 -114
q-102 -114 -102 -308q0 -196 102 -312q101 -116 271 -116zM1350 -387h-783v264h783v-264z" />
    <glyph glyph-name="R" unicode="R" horiz-adv-x="1329" 
d="M887 0l-258 528h-156v-528h-332v1427h588q117 0 208.5 -28.5t154.5 -84t96 -138.5t33 -193q0 -142 -66.5 -249t-187.5 -161l313 -573h-393zM473 1126v-329h221q81 0 128.5 43t47.5 124t-47.5 121.5t-128.5 40.5h-221z" />
    <glyph glyph-name="S" unicode="S" horiz-adv-x="1064" 
d="M496 -33q-267 0 -469 131l114 305q145 -127 344 -127q91 0 142 33t51 99q0 63 -45 94q-44 29 -150 61q-209 61 -313 172t-104 295q0 195 122 312q122 116 347 116q281 0 483 -123l-154 -286q-63 51 -145.5 78.5t-163.5 27.5q-150 0 -149 -111q0 -30 10.5 -52.5t33 -41.5
t57.5 -34.5t85 -30.5q45 -13 83.5 -27.5t74 -31t68 -37t65.5 -46.5q66 -53 100.5 -133t34.5 -186q0 -229 -139 -343t-383 -114z" />
    <glyph glyph-name="T" unicode="T" horiz-adv-x="1052" 
d="M1042 1427v-307h-342v-1120h-333v1120h-342v307h1017z" />
    <glyph glyph-name="U" unicode="U" horiz-adv-x="1339" 
d="M672 -33q-267 0 -422 165q-154 164 -154 466v829h332v-849q0 -67 16.5 -121.5t48 -92.5t77 -58.5t102.5 -20.5q115 0 177 77t62 216v849h334v-829q0 -304 -152 -468q-153 -163 -421 -163z" />
    <glyph glyph-name="V" unicode="V" horiz-adv-x="1349" 
d="M979 1427h344l-471 -1427h-389l-430 1427h356l227 -839q17 -79 30.5 -141.5t23.5 -108.5q13 66 27.5 131.5t31.5 132.5z" />
    <glyph glyph-name="W" unicode="W" horiz-adv-x="1916" 
d="M1548 1427h340l-325 -1427h-385l-168 631q-11 46 -26 108.5t-32 141.5q-20 -82 -35 -144.5t-26 -105.5l-184 -631h-385l-293 1427h358l123 -817q0 -6 9 -90q5 -42 8 -73.5t5 -53.5q14 69 25.5 123t22.5 94l231 809h313l205 -788q27 -111 45 -228q14 90 22 145.5t11 78.5z
" />
    <glyph glyph-name="X" unicode="X" horiz-adv-x="1271" 
d="M1245 0h-362l-252 535l-238 -535h-366l391 743l-371 684h363l233 -495l223 495h359l-363 -679z" />
    <glyph glyph-name="Y" unicode="Y" horiz-adv-x="1222" 
d="M1210 1427l-430 -909v-518h-331v494l-435 933h363l237 -614l236 614h360z" />
    <glyph glyph-name="Z" unicode="Z" horiz-adv-x="1114" 
d="M465 297h620v-297h-1022v279l549 847h-575v301h999v-278z" />
    <glyph glyph-name="bracketleft" unicode="[" horiz-adv-x="600" 
d="M555 1456h-156v-1626h156v-248h-473v2122h473v-248z" />
    <glyph glyph-name="backslash" unicode="\" horiz-adv-x="974" 
d="M999 -229h-319l-647 1890h319z" />
    <glyph glyph-name="bracketright" unicode="]" horiz-adv-x="600" 
d="M45 1704h473v-2122h-473v248h156v1626h-156v248z" />
    <glyph glyph-name="asciicircum" unicode="^" horiz-adv-x="1138" 
d="M1083 694h-309l-201 557l-208 -557h-310l359 834h327z" />
    <glyph glyph-name="underscore" unicode="_" horiz-adv-x="1017" 
d="M66 -260v219h886v-219h-886z" />
    <glyph glyph-name="grave" unicode="`" horiz-adv-x="1228" 
d="M528 1128h-217l-270 453h313z" />
    <glyph glyph-name="a" unicode="a" horiz-adv-x="1017" 
d="M514 1012q209 0 313.5 -103.5t104.5 -326.5v-582h-307v80q-107 -113 -283 -113q-136 0 -222 78q-85 78 -85 236q0 156 98 240q98 83 238 83q144 0 254 -59v6q0 104 -45 148t-138 44q-146 0 -256 -67l-106 221q173 115 434 115zM455 176q119 0 170 100v78q-74 47 -166 47
q-57 0 -93 -29.5t-36 -84.5q0 -51 35 -81t90 -30z" />
    <glyph glyph-name="b" unicode="b" horiz-adv-x="1157" 
d="M709 1012q163 0 283 -120q60 -61 93 -164.5t33 -242.5q0 -136 -38 -238.5t-101 -162.5q-64 -60 -137 -88.5t-154 -28.5q-188 0 -285 139v-106h-317v1530h317v-660q112 142 306 142zM606 252q81 0 140 59q57 59 57 176q0 60 -14.5 105.5t-40 76t-60.5 45.5t-76 15
q-143 0 -209 -147v-181q59 -149 203 -149z" />
    <glyph glyph-name="c" unicode="c" horiz-adv-x="946" 
d="M926 133q-66 -76 -173 -121t-237 -45q-213 0 -345 136q-132 135 -132 386q0 246 144 385q143 138 368 138q221 0 369 -144l-189 -211q-67 72 -176 72q-90 0 -147 -63q-58 -64 -58 -172q0 -57 14.5 -102t41 -75.5t63 -46.5t80.5 -16q121 0 201 92z" />
    <glyph glyph-name="d" unicode="d" horiz-adv-x="1155" 
d="M754 1530h317v-1530h-317v106q-112 -139 -301 -139q-82 0 -153.5 29t-131.5 89t-93.5 163.5t-33.5 240.5t36 239.5t99 163.5q125 120 295 120q184 0 283 -140v658zM551 250q145 0 203 135v219q-51 131 -195 131q-87 0 -146 -60q-59 -62 -59 -183q0 -60 14.5 -105.5
t41 -76t62.5 -45.5t79 -15z" />
    <glyph glyph-name="e" unicode="e" horiz-adv-x="1013" 
d="M979 512v-115h-623q38 -156 219 -155q157 0 302 73l100 -229q-176 -119 -440 -119q-243 0 -370 136q-128 136 -128 382q0 241 136 384q137 143 357 143q204 0 326 -128q121 -127 121 -372zM524 768q-61 0 -107 -42t-63 -130h316q-21 172 -146 172z" />
    <glyph glyph-name="f" unicode="f" horiz-adv-x="677" 
d="M580 1292q-106 0 -107 -145v-168h186v-240h-186v-739h-317v739h-111v240h111v209q0 98 23 168.5t66 116.5t105.5 68t141.5 22q50 0 92.5 -5t80 -15.5t72 -26.5t68.5 -39l-80 -232q-58 47 -145 47z" />
    <glyph glyph-name="g" unicode="g" horiz-adv-x="970" 
d="M604 147q169 0 269 -80q98 -81 98 -233q0 -193 -133 -284t-363 -91q-461 0 -461 295q0 133 111 211q-90 72 -90 199q0 63 30.5 122.5t88.5 98.5q-91 101 -93 258q0 172 107 271q107 98 285 98q109 0 196 -33h295v-229h-84q12 -49 12 -107q0 -174 -116 -275
q-117 -102 -303 -102q-74 0 -140 21q-31 -31 -30 -68q0 -72 77 -72h244zM467 784q-70 0 -113 -37.5t-43 -106.5t43 -105.5t113 -36.5t113 35t43 107t-43 108t-113 36zM475 -299q103 0 159 28.5t56 86.5q0 88 -115 88h-229q-69 -29 -67 -97q-1 -106 196 -106z" />
    <glyph glyph-name="h" unicode="h" horiz-adv-x="1091" 
d="M696 1012q147 0 230.5 -88t83.5 -265v-659h-318v565q0 164 -131 164q-104 0 -158 -123v-606h-317v1530h317v-684q91 166 293 166z" />
    <glyph glyph-name="i" unicode="i" horiz-adv-x="522" 
d="M262 1114q-76 0 -131 55q-55 54 -55 131t55 132t131 55t130 -55t54 -132q0 -76 -53 -131q-52 -55 -131 -55zM102 0v979h318v-979h-318z" />
    <glyph glyph-name="j" unicode="j" horiz-adv-x="552" 
d="M159 1196q-55 52 -55 130q0 77 55 132q54 55 130 55q79 0 131 -54q53 -55 53 -132q0 -78 -53 -131t-131 -53q-75 0 -130 53zM113 -94v1073h317v-1075q0 -221 -93 -329q-94 -108 -312 -130l-86 266q88 4 131 51t43 144z" />
    <glyph glyph-name="k" unicode="k" horiz-adv-x="1081" 
d="M702 0l-172 369l-127 -144v-225h-317v1530h317v-922l295 371h373l-301 -340l311 -639h-379z" />
    <glyph glyph-name="l" unicode="l" horiz-adv-x="491" 
d="M403 1530v-1530h-317v1530h317z" />
    <glyph glyph-name="m" unicode="m" horiz-adv-x="1648" 
d="M1270 1012q141 0 219 -88t78 -265v-659h-318v571q0 156 -116 156q-98 0 -146 -121v-606h-317v571q0 81 -34 118.5t-89 37.5q-92 0 -139 -119v-608h-318v979h318v-133q88 166 282 166q219 0 279 -205q84 205 301 205z" />
    <glyph glyph-name="n" unicode="n" horiz-adv-x="1095" 
d="M702 1012q72 0 130 -22.5t98.5 -66.5t62 -110.5t21.5 -153.5v-659h-318v563q0 164 -129 164q-106 0 -159 -123v-604h-318v979h318v-135q92 168 294 168z" />
    <glyph glyph-name="o" unicode="o" horiz-adv-x="1118" 
d="M936 105q-142 -138 -377 -138q-236 0 -378 139q-144 138 -144 383t145 384q143 139 378 139q234 0 376 -139q143 -140 143 -384q0 -246 -143 -384zM409 318q59 -60 150 -60q92 0 150 61q57 60 57 172t-58 174q-59 62 -149 60q-46 0 -84.5 -15.5t-66 -45t-43 -73
t-15.5 -100.5q0 -114 59 -173z" />
    <glyph glyph-name="p" unicode="p" horiz-adv-x="1159" 
d="M723 1012q157 0 271 -117q57 -60 90.5 -163.5t33.5 -246.5q0 -140 -35 -243t-97 -161t-136.5 -86t-161.5 -28q-188 0 -285 139v-608h-317v1481h317v-160q106 193 320 193zM604 256q85 0 144 59q57 59 57 172q0 114 -56 176q-57 60 -141 60q-154 0 -205 -164v-123
q47 -180 201 -180z" />
    <glyph glyph-name="q" unicode="q" horiz-adv-x="1153" 
d="M754 979h317v-1487h-317v617q-115 -141 -301 -142q-82 0 -153.5 29t-131.5 89t-93.5 163.5t-33.5 240.5t36 239.5t99 163.5q125 120 295 120q184 0 283 -140v107zM551 250q145 0 203 135v219q-51 131 -195 131q-87 0 -146 -60q-59 -62 -59 -183q0 -60 14.5 -105.5t41 -76
t62.5 -45.5t79 -15z" />
    <glyph glyph-name="r" unicode="r" horiz-adv-x="745" 
d="M664 1008q44 0 71 -13l-2 -278q-137 23 -218 -46t-107 -214v-457h-318v979h318v-215q17 56 41.5 101t57 76.5t72 49t85.5 17.5z" />
    <glyph glyph-name="s" unicode="s" horiz-adv-x="864" 
d="M387 369q-164 31 -250 107.5t-86 219.5q0 151 103 233q103 83 284 83q210 0 359 -80l-101 -230q-109 62 -243 64q-111 0 -111 -68q0 -60 135 -92q152 -28 241 -100q87 -72 87 -211q0 -159 -110 -243.5t-314 -84.5q-209 0 -340 80l78 234q20 -11 37 -20t31 -16t33.5 -13.5
t44.5 -11.5q52 -11 110 -11q66 0 99.5 20.5t33.5 55.5q0 37 -29 53.5t-92 30.5z" />
    <glyph glyph-name="t" unicode="t" horiz-adv-x="761" 
d="M674 293l82 -244q-130 -82 -312 -82q-319 0 -319 381v391h-98v240h98v291h317v-291h244v-240h-244v-350q0 -141 97 -141q69 0 135 45z" />
    <glyph glyph-name="u" unicode="u" horiz-adv-x="1083" 
d="M676 979h317v-979h-317v133q-88 -166 -293 -166q-146 0 -224.5 87.5t-78.5 262.5v662h317v-565q0 -164 127 -164q100 0 152 121v608z" />
    <glyph glyph-name="v" unicode="v" horiz-adv-x="1077" 
d="M737 979h340l-377 -979h-364l-336 979h336l194 -705z" />
    <glyph glyph-name="w" unicode="w" horiz-adv-x="1513" 
d="M1174 979h329l-297 -979h-309l-160 549l-186 -549h-301l-240 979h328l96 -580l176 574h281l158 -553z" />
    <glyph glyph-name="x" unicode="x" horiz-adv-x="1007" 
d="M995 0h-340l-153 305l-148 -305h-340l297 481l-291 498h338l154 -311l137 311h340l-289 -481z" />
    <glyph glyph-name="y" unicode="y" horiz-adv-x="1079" 
d="M737 979h332l-575 -1487h-332l217 510l-369 977h338l189 -612z" />
    <glyph glyph-name="z" unicode="z" horiz-adv-x="823" 
d="M399 246h404v-246h-766v244l360 489h-377v246h754v-238z" />
    <glyph glyph-name="braceleft" unicode="{" horiz-adv-x="708" 
d="M520 1485q-42 0 -70 -27.5t-28 -87.5q0 -59 45 -214q45 -154 45 -265q0 -179 -150 -229q150 -51 150 -230q0 -110 -45 -265q-45 -154 -45 -214t28 -87.5t70 -27.5q66 0 135 29v-256q-119 -29 -249 -29q-131 0 -217 72q-87 72 -87 225q0 78 52 264q51 188 51 258
q0 72 -32 101.5t-110 29.5v259q78 0 110 29.5t32 101.5t-51 259q-52 186 -52 263q0 154 86 226q86 71 218 71q131 0 249 -29v-256q-69 29 -135 29z" />
    <glyph glyph-name="bar" unicode="|" horiz-adv-x="667" 
d="M492 1657v-1882h-318v1882h318z" />
    <glyph glyph-name="braceright" unicode="}" horiz-adv-x="708" 
d="M645 532q-78 0 -109.5 -29.5t-31.5 -101.5q0 -71 51 -259t51 -263q0 -154 -86 -226q-86 -71 -217 -71t-250 29v256q69 -29 135 -29q42 0 71.5 27.5t29.5 87.5q0 61 -46 214t-46 265q0 177 149 230q-150 50 -149 229q0 112 46 265q46 151 46 214q0 60 -29.5 87.5
t-71.5 27.5q-66 0 -135 -29v256q119 29 250 29q132 0 217 -72q86 -72 86 -225q0 -75 -51 -263q-51 -187 -51 -259t31.5 -101.5t109.5 -29.5v-259z" />
    <glyph glyph-name="asciitilde" unicode="~" horiz-adv-x="978" 
d="M289 655q-42 0 -84 -19q-41 -18 -68 -39q-13 -10 -30.5 -23.5t-40.5 -32.5v270q111 117 233 117q68 0 200 -72t193 -72q39 0 81 18.5t70 39.5q14 10 31 24t39 33v-274q-102 -113 -235 -113q-61 0 -135 36q-37 18 -72 36t-68 36q-68 35 -114 35z" />
    <glyph glyph-name="exclamdown" unicode="&#xa1;" horiz-adv-x="647" 
d="M324 1016q80 0 134 -54q54 -55 54 -133q0 -79 -55 -134q-56 -56 -133 -56q-80 0 -134 56q-55 55 -55 134q0 78 55 133q54 54 134 54zM489 -444h-337l18 991h303z" />
    <glyph glyph-name="cent" unicode="&#xa2;" horiz-adv-x="942" 
d="M922 377q-79 -82 -250 -123l-10 -256h-289v254q-156 41 -248 173q-92 133 -92 347q0 201 94 334q95 134 248 180v244h289v-234q148 -26 254 -106l-142 -232q-85 68 -196 68q-109 0 -172.5 -66t-63.5 -186q0 -121 59 -186.5t164 -65.5q139 0 230 90z" />
    <glyph glyph-name="sterling" unicode="&#xa3;" horiz-adv-x="1140" 
d="M608 299h486v-299h-1033v299h211q-5 26 -15 64.5t-25 92.5q-16 53 -25 85t-12 43h-150v268h100q-2 26 -3 51t-1 51q0 252 134 378t366 126q128 0 242.5 -33t195.5 -90l-145 -268q-112 86 -244 86q-99 0 -150 -58t-51 -161q0 -41 3 -82h415v-268h-372q10 -48 25.5 -107
t35.5 -131z" />
    <glyph glyph-name="currency" unicode="&#xa4;" horiz-adv-x="1134" 
d="M995 1069q105 -133 105 -327t-101 -328l117 -168l-237 -162l-117 164q-92 -29 -195 -29q-96 0 -178 25l-113 -160l-237 162l106 153q-111 136 -110 341q0 207 115 343l-111 160l237 162l119 -168q84 23 172 23q101 0 189 -27l123 172l237 -162zM332 743q0 -115 67 -182
q66 -67 168 -67q101 0 168 69q68 68 68 180t-67 179t-169 67t-168 -66q-67 -67 -67 -180z" />
    <glyph glyph-name="yen" unicode="&#xa5;" horiz-adv-x="1286" 
d="M1229 1427l-291 -536h209v-268h-334v-119h334v-268h-334v-236h-332v236h-334v268h334v119h-334v268h197l-287 536h363l227 -526l221 526h361z" />
    <glyph glyph-name="brokenbar" unicode="&#xa6;" horiz-adv-x="667" 
d="M492 1657v-871h-318v871h318zM492 645v-870h-318v870h318z" />
    <glyph glyph-name="section" unicode="&#xa7;" horiz-adv-x="1136" 
d="M1126 582q0 -103 -56.5 -176.5t-156.5 -102.5q131 -96 131 -268q0 -166 -121 -272q-121 -105 -384 -105q-264 0 -484 115l113 256q155 -95 352 -97q205 0 205 99q0 47 -62 77q-63 29 -241 66q-178 45 -272 127q-95 83 -95 231q0 99 50 169.5t141 103.5q-123 102 -123 295
q0 156 116 257t359 101q298 -1 500 -98l-121 -268q-176 92 -365 90q-82 2 -127 -18.5t-45 -74.5q0 -56 55 -93q55 -38 199 -68q100 -23 172 -48.5t135 -65.5t94 -97t31 -135zM594 426q62 -12 111 -27q55 2 88.5 31.5t33.5 77.5q0 57 -60 90q-62 34 -243 80q-26 7 -49 14
t-43 15q-76 -25 -76 -99q0 -63 51 -105q50 -42 187 -77z" />
    <glyph glyph-name="dieresis" unicode="&#xa8;" horiz-adv-x="1228" 
d="M91 1248q-50 50 -50 122q0 71 50 123q50 51 122 51q73 0 122 -51q50 -52 50 -123q0 -72 -50 -122t-122 -50t-122 50zM547 1248q-51 50 -51 122t51 123t121 51q75 0 124 -51q50 -52 50 -123q0 -72 -50 -122q-52 -50 -124 -50q-69 0 -121 50z" />
    <glyph glyph-name="copyright" unicode="&#xa9;" horiz-adv-x="1832" 
d="M121 762q0 350 216 576q216 225 578 225q360 0 579 -231q218 -233 218 -570q0 -341 -217 -568q-217 -229 -580 -229q-367 0 -580 222q-214 220 -214 575zM1591 762q0 161 -54.5 293.5t-148.5 220.5t-215 136t-258 48q-134 0 -254.5 -48t-214.5 -136t-149 -220.5
t-55 -293.5q0 -212 92 -372q91 -158 244 -237q151 -79 337 -79q94 0 180 19.5t160 59t136 99t108 138.5q92 160 92 372zM1303 432q-133 -141 -367 -141q-199 0 -324 125t-125 358q0 228 133 355q133 128 343 128q194 0 327 -110l-155 -215q-67 55 -154 55t-137.5 -56
t-50.5 -153q0 -103 48.5 -158t129.5 -55q103 0 188 74z" />
    <glyph glyph-name="guillemotleft" unicode="&#xab;" horiz-adv-x="1110" 
d="M43 434v293l483 336v-311l-278 -177l278 -184v-311zM1055 1063v-311l-283 -177l283 -184v-311l-490 354v293z" />
    <glyph glyph-name="logicalnot" unicode="&#xac;" horiz-adv-x="1136" 
d="M1042 881v-539h-280v260h-658v279h938z" />
    <glyph glyph-name="registered" unicode="&#xae;" horiz-adv-x="1126" 
d="M563 1587q226 0 363 -143q135 -144 135 -359q0 -212 -135 -355q-135 -142 -363 -142q-229 0 -363 138q-134 139 -134 359q0 221 135 362q135 140 362 140zM275 783q113 -109 288 -109q173 0 289 110q115 109 115 301q0 195 -115 307q-115 111 -289 111t-288 -111
q-115 -112 -115 -307q0 -193 115 -302zM784 1194q0 -104 -82 -150l103 -200h-166l-76 174h-55v-174h-143v528h225q194 0 194 -178zM508 1241v-113h51q76 0 76 57q0 56 -68 56h-59z" />
    <glyph glyph-name="macron" unicode="&#xaf;" horiz-adv-x="1228" 
d="M41 1491h721v-264h-721v264z" />
    <glyph glyph-name="degree" unicode="&#xb0;" horiz-adv-x="749" 
d="M375 793q-158 0 -251 95t-93 245q0 151 92 248q92 96 252 96q158 0 251 -98q93 -99 93 -246t-93 -243q-93 -97 -251 -97zM264 1018q43 -43 113 -43t110 43q41 44 41 117q0 75 -41.5 119t-110.5 44q-34 0 -63 -12t-49 -33.5t-31.5 -51.5t-11.5 -66q0 -74 43 -117z" />
    <glyph glyph-name="plusminus" unicode="&#xb1;" horiz-adv-x="1128" 
d="M420 469v250h-316v278h316v250h287v-250h315v-278h-315v-250h-287zM104 348h920v-278h-920v278z" />
    <glyph glyph-name="acute" unicode="&#xb4;" horiz-adv-x="1228" 
d="M526 1581l-270 -453h-217l174 453h313z" />
    <glyph glyph-name="paragraph" unicode="&#xb6;" horiz-adv-x="1038" 
d="M578 1427h342v-1640h-332v684h-13q-125 0 -222 29t-164 89t-101.5 151t-34.5 214q2 473 525 473z" />
    <glyph glyph-name="periodcentered" unicode="&#xb7;" horiz-adv-x="567" 
d="M142 569q-54 54 -54 133t55 134q54 55 133 55q80 0 135 -55q54 -55 54 -134t-54 -133q-55 -55 -135 -55t-134 55z" />
    <glyph glyph-name="cedilla" unicode="&#xb8;" horiz-adv-x="1228" 
d="M436 -125q94 0 148.5 -52.5t54.5 -158.5q0 -133 -86 -200.5t-238 -67.5q-150 0 -260 72l74 165q8 -7 25.5 -16.5t45.5 -21.5q55 -23 109 -23q111 0 111 84q0 31 -17.5 50.5t-48.5 19.5q-51 0 -84 -41l-143 49l106 293h193l-76 -166q42 14 86 14z" />
    <glyph glyph-name="guillemotright" unicode="&#xbb;" horiz-adv-x="1110" 
d="M55 752v311l490 -336v-293l-490 -354v311l283 184zM584 1063l481 -336v-293l-481 -354v311l278 184l-278 177v311z" />
    <glyph glyph-name="questiondown" unicode="&#xbf;" horiz-adv-x="1034" 
d="M530 639q-78 0 -132 56t-54 134t55 133q54 54 131 54q82 0 137 -54q54 -55 54 -133q0 -79 -55 -134q-56 -56 -136 -56zM829 -63l150 -226q-202 -188 -494 -188q-88 0 -161.5 21.5t-136.5 66.5q-64 45 -100 127t-36 194q0 165 83.5 268t236.5 138l4 190h303l8 -352h-57
q-115 0 -178.5 -49.5t-63.5 -142.5q0 -80 51 -119t131 -39q137 0 260 111z" />
    <glyph glyph-name="Agrave" unicode="&#xc0;" horiz-adv-x="1277" 
d="M719 1575h-219l-283 453h313zM915 0l-77 272h-428l-70 -272h-328l414 1427h389l451 -1427h-351zM477 541h285l-152 530z" />
    <glyph glyph-name="Aacute" unicode="&#xc1;" horiz-adv-x="1277" 
d="M1083 2001l-366 -426h-248l272 426h342zM915 0l-77 272h-428l-70 -272h-328l414 1427h389l451 -1427h-351zM477 541h285l-152 530z" />
    <glyph glyph-name="Acircumflex" unicode="&#xc2;" horiz-adv-x="1277" 
d="M608 1786l-155 -215h-248l274 471h256l277 -471h-248zM915 0l-77 272h-428l-70 -272h-328l414 1427h389l451 -1427h-351zM477 541h285l-152 530z" />
    <glyph glyph-name="Atilde" unicode="&#xc3;" horiz-adv-x="1277" 
d="M412 1507h-217q-19 436 206 437q55 0 100.5 -26t96.5 -71q78 -70 123 -69q70 0 67 159h218q18 -436 -218 -436q-85 0 -204 92q-1 5 -9 9q-71 61 -102 61q-62 0 -61 -156zM915 0l-77 272h-428l-70 -272h-328l414 1427h389l451 -1427h-351zM477 541h285l-152 530z" />
    <glyph glyph-name="Adieresis" unicode="&#xc4;" horiz-adv-x="1277" 
d="M393 1595q-72 0 -123 52q-51 51 -51 123q0 71 52 123q51 51 122 51q73 0 122 -51q50 -53 50 -123q0 -71 -50 -123q-49 -52 -122 -52zM831 1595q-72 0 -123 52q-51 51 -51 123q0 71 52 123q51 51 122 51q72 0 123 -51q50 -53 50 -124q0 -73 -50 -123q-51 -51 -123 -51z
M915 0l-77 272h-428l-70 -272h-328l414 1427h389l451 -1427h-351zM477 541h285l-152 530z" />
    <glyph glyph-name="Aring" unicode="&#xc5;" horiz-adv-x="1277" 
d="M612 1559q-66 0 -118.5 19t-89 53.5t-55.5 84.5t-19 111q0 124 75 197q73 73 207 73q131 0 206 -75q75 -76 75 -195t-75 -193q-75 -75 -206 -75zM685 1906q-29 29 -73 29q-45 0 -72 -29q-28 -29 -28 -79q0 -49 28 -77q27 -28 72 -28t73 28t28 77q0 50 -28 79zM915 0
l-77 272h-428l-70 -272h-328l414 1427h389l451 -1427h-351zM477 541h285l-152 530z" />
    <glyph glyph-name="AE" unicode="&#xc6;" horiz-adv-x="1685" 
d="M1620 1128l-483 2l8 -262h323v-266h-315l10 -301h457v-301h-782l-9 272h-403l-100 -272h-328l559 1427h1063v-299zM819 541l-18 589h-56l-219 -589h293z" />
    <glyph glyph-name="Ccedilla" unicode="&#xc7;" horiz-adv-x="1349" 
d="M1315 197q-78 -93 -204.5 -152t-285.5 -74l-39 -84q40 13 86 15q94 0 148.5 -54t54.5 -159q0 -133 -86 -201t-237 -68t-260 74l73 164q15 -15 70 -37q54 -22 110 -22q111 0 111 84q0 31 -17.5 49t-47.5 18q-51 0 -84 -39l-146 49l78 211q-274 28 -429 224
q-155 194 -155 520q0 345 204 544q203 199 523 199q310 0 525 -188l-179 -277q-135 142 -344 144q-168 0 -273 -113q-105 -112 -108 -303q-2 -206 97 -316q97 -112 266 -112q254 0 397 194z" />
    <glyph glyph-name="Egrave" unicode="&#xc8;" horiz-adv-x="1171" 
d="M690 1575h-219l-285 453h316zM1104 1128h-635v-260h483v-266h-483v-301h635v-301h-969v1427h969v-299z" />
    <glyph glyph-name="Eacute" unicode="&#xc9;" horiz-adv-x="1171" 
d="M1055 2001l-367 -426h-248l271 426h344zM1104 1128h-635v-260h483v-266h-483v-301h635v-301h-969v1427h969v-299z" />
    <glyph glyph-name="Ecircumflex" unicode="&#xca;" horiz-adv-x="1171" 
d="M578 1786l-156 -215h-248l277 471h256l274 -471h-248zM1104 1128h-635v-260h483v-266h-483v-301h635v-301h-969v1427h969v-299z" />
    <glyph glyph-name="Edieresis" unicode="&#xcb;" horiz-adv-x="1171" 
d="M362 1595q-73 0 -122 52q-50 52 -50 123t51 123q50 51 121 51q74 0 125 -51q50 -53 50 -123q0 -71 -50 -123q-51 -52 -125 -52zM801 1595q-72 0 -123 52q-51 51 -51 123q0 71 51 123q51 51 123 51t123 -51q51 -52 51 -124q0 -73 -51 -123q-51 -51 -123 -51zM1104 1128
h-635v-260h483v-266h-483v-301h635v-301h-969v1427h969v-299z" />
    <glyph glyph-name="Igrave" unicode="&#xcc;" horiz-adv-x="602" 
d="M190 1575l-284 453h315l189 -453h-220zM467 1427v-1427h-332v1427h332z" />
    <glyph glyph-name="Iacute" unicode="&#xcd;" horiz-adv-x="602" 
d="M774 2001l-366 -426h-248l270 426h344zM467 1427v-1427h-332v1427h332z" />
    <glyph glyph-name="Icircumflex" unicode="&#xce;" horiz-adv-x="602" 
d="M299 1786l-156 -215h-249l276 471h256l276 -471h-249zM135 0v1427h332v-1427h-332z" />
    <glyph glyph-name="Idieresis" unicode="&#xcf;" horiz-adv-x="602" 
d="M82 1595q-70 0 -121 52q-51 51 -51 123q0 71 51 123q51 51 121 51q75 0 124 -51q50 -53 50 -123q0 -71 -50 -123q-49 -52 -124 -52zM520 1595q-72 0 -123 52q-51 51 -51 123q0 71 52 123q51 51 122 51q75 0 124 -51q50 -53 50 -124q0 -73 -50 -123q-49 -51 -124 -51z
M467 1427v-1427h-332v1427h332z" />
    <glyph glyph-name="Eth" unicode="&#xd0;" horiz-adv-x="1425" 
d="M618 1427q347 0 544 -172q198 -172 198 -522q0 -354 -201 -543q-200 -190 -541 -190h-477v586h-129v268h129v573h477zM1008 733q0 196 -103.5 295.5t-314.5 99.5h-117v-274h242v-268h-242v-285h117q204 0 310 117q107 116 108 315z" />
    <glyph glyph-name="Ntilde" unicode="&#xd1;" horiz-adv-x="1388" 
d="M496 1507h-220q-18 435 209 437q55 0 99.5 -26t97.5 -71q78 -70 123 -69q68 0 65 159h220q18 -436 -220 -436q-86 0 -202 92q-1 5 -9 9q-71 61 -102 61q-65 0 -61 -156zM946 1427h307v-1427h-313l-498 803v-803h-307v1427h309l502 -815v815z" />
    <glyph glyph-name="Ograve" unicode="&#xd2;" horiz-adv-x="1548" 
d="M664 1575l-285 453h315l189 -453h-219zM774 -33q-326 0 -524 201q-199 200 -199 549q0 344 203 544q202 199 520 199q104 0 197 -21.5t173 -64.5t145 -107t113 -150q95 -172 95 -400q0 -350 -197 -550q-198 -200 -526 -200zM774 289q172 0 273 116q100 115 100 312
q0 194 -101 309q-102 113 -272 113t-271 -114q-102 -114 -102 -308q0 -196 102 -312q101 -116 271 -116z" />
    <glyph glyph-name="Oacute" unicode="&#xd3;" horiz-adv-x="1548" 
d="M1247 2001l-366 -426h-248l270 426h344zM774 -33q-326 0 -524 201q-199 200 -199 549q0 344 203 544q202 199 520 199q104 0 197 -21.5t173 -64.5t145 -107t113 -150q95 -172 95 -400q0 -350 -197 -550q-198 -200 -526 -200zM774 289q172 0 273 116q100 115 100 312
q0 194 -101 309q-102 113 -272 113t-271 -114q-102 -114 -102 -308q0 -196 102 -312q101 -116 271 -116z" />
    <glyph glyph-name="Ocircumflex" unicode="&#xd4;" horiz-adv-x="1548" 
d="M770 1786l-154 -215h-249l276 471h256l277 -471h-250zM774 1460q104 0 197 -21.5t173 -64.5t145 -107t113 -150q95 -172 95 -400q0 -350 -197 -550q-198 -200 -526 -200q-326 0 -524 201q-199 200 -199 549q0 344 203 544q202 199 520 199zM774 289q172 0 273 116
q100 115 100 312q0 194 -101 309q-102 113 -272 113t-271 -114q-102 -114 -102 -308q0 -196 102 -312q101 -116 271 -116z" />
    <glyph glyph-name="Otilde" unicode="&#xd5;" horiz-adv-x="1548" 
d="M635 1663q-63 0 -62 -156h-217q-19 436 207 437q55 0 100 -26t99 -71q76 -70 121 -69q70 0 67 159h217q19 -436 -217 -436q-86 0 -202 92l-4.5 4.5t-6.5 4.5q-70 61 -102 61zM774 -33q-326 0 -524 201q-199 200 -199 549q0 344 203 544q202 199 520 199q104 0 197 -21.5
t173 -64.5t145 -107t113 -150q95 -172 95 -400q0 -350 -197 -550q-198 -200 -526 -200zM774 289q172 0 273 116q100 115 100 312q0 194 -101 309q-102 113 -272 113t-271 -114q-102 -114 -102 -308q0 -196 102 -312q101 -116 271 -116z" />
    <glyph glyph-name="Odieresis" unicode="&#xd6;" horiz-adv-x="1548" 
d="M555 1595q-70 0 -121 52q-51 51 -51 123q0 71 51 123q51 51 121 51q75 0 124 -51q50 -53 50 -123q0 -71 -50 -123q-49 -52 -124 -52zM993 1595q-72 0 -123 52q-51 51 -51 123q0 71 52 123q51 51 122 51q72 0 123 -51q51 -52 51 -124q0 -73 -50 -123q-49 -51 -124 -51z
M774 -33q-326 0 -524 201q-199 200 -199 549q0 344 203 544q202 199 520 199q104 0 197 -21.5t173 -64.5t145 -107t113 -150q95 -172 95 -400q0 -350 -197 -550q-198 -200 -526 -200zM774 289q172 0 273 116q100 115 100 312q0 194 -101 309q-102 113 -272 113t-271 -114
q-102 -114 -102 -308q0 -196 102 -312q101 -116 271 -116z" />
    <glyph glyph-name="multiply" unicode="&#xd7;" horiz-adv-x="1093" 
d="M1004 987l-275 -297l275 -297l-199 -180l-258 281l-260 -281l-197 180l275 297l-275 297l197 182l260 -280l258 280z" />
    <glyph glyph-name="Oslash" unicode="&#xd8;" horiz-adv-x="1548" 
d="M1518 1313l-140 -156q119 -182 119 -440q0 -350 -197 -550q-198 -200 -526 -200q-215 0 -379 90l-108 -120l-254 169l139 158q-121 185 -121 453q0 344 203 544q202 199 520 199q215 0 383 -96l109 121zM387 717q0 -99 27 -185l528 592q-76 33 -168 33q-176 0 -281 -118
q-106 -118 -106 -322zM1163 717q0 94 -24 172l-525 -588q71 -31 160 -31q178 0 284 121q105 122 105 326z" />
    <glyph glyph-name="Ugrave" unicode="&#xd9;" horiz-adv-x="1339" 
d="M559 1575l-283 453h314l188 -453h-219zM672 -33q-267 0 -422 165q-154 164 -154 466v829h332v-849q0 -67 16.5 -121.5t48 -92.5t77 -58.5t102.5 -20.5q115 0 177 77t62 216v849h334v-829q0 -304 -152 -468q-153 -163 -421 -163z" />
    <glyph glyph-name="Uacute" unicode="&#xda;" horiz-adv-x="1339" 
d="M1143 2001l-367 -426h-248l273 426h342zM672 -33q-267 0 -422 165q-154 164 -154 466v829h332v-849q0 -67 16.5 -121.5t48 -92.5t77 -58.5t102.5 -20.5q115 0 177 77t62 216v849h334v-829q0 -304 -152 -468q-153 -163 -421 -163z" />
    <glyph glyph-name="Ucircumflex" unicode="&#xdb;" horiz-adv-x="1339" 
d="M668 1786l-156 -215h-248l275 471h256l276 -471h-248zM911 1427h334v-829q0 -304 -152 -468q-153 -163 -421 -163q-267 0 -422 165q-154 164 -154 466v829h332v-849q0 -67 16.5 -121.5t48 -92.5t77 -58.5t102.5 -20.5q115 0 177 77t62 216v849z" />
    <glyph glyph-name="Udieresis" unicode="&#xdc;" horiz-adv-x="1339" 
d="M453 1595q-72 0 -123 52q-51 51 -51 123q0 71 51 123q51 51 123 51q73 0 122 -51q50 -53 50 -123q0 -71 -50 -123q-49 -52 -122 -52zM891 1595q-72 0 -123 52q-51 51 -51 123q0 71 51 123q51 51 123 51q73 0 122 -51q50 -53 50 -124q0 -73 -50 -123q-49 -51 -122 -51z
M672 -33q-267 0 -422 165q-154 164 -154 466v829h332v-849q0 -67 16.5 -121.5t48 -92.5t77 -58.5t102.5 -20.5q115 0 177 77t62 216v849h334v-829q0 -304 -152 -468q-153 -163 -421 -163z" />
    <glyph glyph-name="Yacute" unicode="&#xdd;" horiz-adv-x="1222" 
d="M1083 2001l-366 -426h-248l272 426h342zM1210 1427l-430 -909v-518h-331v494l-435 933h363l237 -614l236 614h360z" />
    <glyph glyph-name="Thorn" unicode="&#xde;" horiz-adv-x="1204" 
d="M647 1200q508 0 508 -459q0 -236 -132 -352.5t-374 -116.5h-182v-272h-332v1427h332v-227h180zM618 565q93 0 144 46t51 128q0 162 -195 162h-151v-336h151z" />
    <glyph glyph-name="germandbls" unicode="&#xdf;" horiz-adv-x="1138" 
d="M788 780q69 -22 122.5 -61.5t90.5 -92t56.5 -117.5t19.5 -140q0 -96 -27 -168.5t-77.5 -121t-123.5 -74t-165 -28.5q-117 -2 -213 33l27 246q46 -31 116 -31q37 0 66.5 14.5t50.5 40t32 61.5t11 79q0 99 -54.5 157t-156.5 58h-49v231h39q74 0 122 70q48 71 48 166
q0 100 -44 151.5t-116 51.5q-81 0 -124 -55q-44 -56 -44 -203v-1047h-317v971q0 175 30.5 290t97.5 182q66 66 156.5 93t221.5 27q195 0 316 -100q120 -100 120 -310q0 -101 -59 -210q-59 -107 -173 -163z" />
    <glyph glyph-name="agrave" unicode="&#xe0;" horiz-adv-x="1017" 
d="M645 1128h-217l-270 451h315zM514 1012q209 0 313.5 -103.5t104.5 -326.5v-582h-307v80q-107 -113 -283 -113q-136 0 -222 78q-85 78 -85 236q0 156 98 240q98 83 238 83q144 0 254 -59v6q0 104 -45 148t-138 44q-146 0 -256 -67l-106 221q173 115 434 115zM455 176
q119 0 170 100v78q-74 47 -166 47q-57 0 -93 -29.5t-36 -84.5q0 -51 35 -81t90 -30z" />
    <glyph glyph-name="aacute" unicode="&#xe1;" horiz-adv-x="1017" 
d="M889 1579l-271 -451h-217l174 451h314zM514 1012q209 0 313.5 -103.5t104.5 -326.5v-582h-307v80q-107 -113 -283 -113q-136 0 -222 78q-85 78 -85 236q0 156 98 240q98 83 238 83q144 0 254 -59v6q0 104 -45 148t-138 44q-146 0 -256 -67l-106 221q173 115 434 115z
M455 176q119 0 170 100v78q-74 47 -166 47q-57 0 -93 -29.5t-36 -84.5q0 -51 35 -81t90 -30z" />
    <glyph glyph-name="acircumflex" unicode="&#xe2;" horiz-adv-x="1017" 
d="M526 1362l-155 -234h-219l245 457h258l246 -457h-219zM514 1012q209 0 313.5 -103.5t104.5 -326.5v-582h-307v80q-107 -113 -283 -113q-136 0 -222 78q-85 78 -85 236q0 156 98 240q98 83 238 83q144 0 254 -59v6q0 104 -45 148t-138 44q-146 0 -256 -67l-106 221
q173 115 434 115zM455 176q119 0 170 100v78q-74 47 -166 47q-57 0 -93 -29.5t-36 -84.5q0 -51 35 -81t90 -30z" />
    <glyph glyph-name="atilde" unicode="&#xe3;" horiz-adv-x="1017" 
d="M338 1137h-217q-10 223 44 323.5t169 100.5q60 0 109.5 -26t109.5 -75q72 -71 104 -69q60 0 58 165h217q20 -426 -203 -426q-20 0 -38 2.5t-32 5.5t-32.5 11t-26.5 11q-3 1 -10.5 6t-16.5 10t-16 9.5t-8 5.5q-4 3 -27 21q-22 15 -28 21q-28 26 -39 33q-5 4 -12.5 8.5
t-15.5 9.5q-16 10 -32 10q-59 2 -57 -157zM514 1012q209 0 313.5 -103.5t104.5 -326.5v-582h-307v80q-107 -113 -283 -113q-136 0 -222 78q-85 78 -85 234q0 158 98 242q98 83 238 83q144 0 254 -59v6q0 104 -45 148t-138 44q-146 0 -256 -67l-106 221q173 115 434 115z
M455 176q119 0 170 100v78q-74 47 -166 47q-57 0 -93 -29.5t-36 -84.5q0 -51 35 -81t90 -30z" />
    <glyph glyph-name="adieresis" unicode="&#xe4;" horiz-adv-x="1017" 
d="M299 1198q-72 0 -122 50t-50 121q0 70 50 122q50 51 122 51t122 -50t50 -122t-50 -122t-122 -50zM754 1198q-69 0 -121 50q-51 50 -51 121t51 122t121 51q73 0 123 -50q49 -49 49 -122t-49 -122q-50 -50 -123 -50zM514 1012q209 0 313.5 -103.5t104.5 -326.5v-582h-307
v80q-107 -113 -283 -113q-136 0 -222 78q-85 78 -85 236q0 156 98 240q98 83 238 83q144 0 254 -59v6q0 104 -45 148t-138 44q-146 0 -256 -67l-106 221q173 115 434 115zM455 176q119 0 170 100v78q-74 47 -166 47q-57 0 -93 -29.5t-36 -84.5q0 -51 35 -81t90 -30z" />
    <glyph glyph-name="aring" unicode="&#xe5;" horiz-adv-x="1017" 
d="M526 1143q-136 0 -216 78q-79 76 -79 202t79 205q80 80 216 80q135 0 216 -82t81 -202q0 -121 -80 -201t-217 -80zM610 1513q-31 33 -83 33q-51 0 -83 -33q-32 -35 -32 -89q0 -55 32 -87t84 -32q51 0 83 32q30 32 30 86q0 58 -31 90zM514 1012q209 0 313.5 -103.5
t104.5 -326.5v-582h-307v80q-107 -113 -283 -113q-136 0 -222 78q-85 78 -85 236q0 156 98 240q98 83 238 83q144 0 254 -59v6q0 104 -45 148t-138 44q-146 0 -256 -67l-106 221q173 115 434 115zM455 176q119 0 170 100v78q-74 47 -166 47q-57 0 -93 -29.5t-36 -84.5
q0 -51 35 -81t90 -30z" />
    <glyph glyph-name="ae" unicode="&#xe6;" horiz-adv-x="1597" 
d="M1462 315l99 -229q-176 -119 -410 -119q-279 0 -375 183q-58 -88 -165 -135q-106 -48 -228 -48q-159 0 -254 78q-94 78 -94 236q-1 83 27.5 139.5t75 92t105.5 50.5t119 15q154 0 265 -66v39q0 104 -46 148t-137 44q-146 0 -258 -67l-106 221q175 115 420 115
q233 0 317 -140q115 138 328 140q179 0 292 -122q111 -121 111 -364v-84h-612q12 -105 67 -152.5t158 -47.5q152 -1 301 73zM1106 768q-146 0 -168 -193h319q-16 193 -151 193zM459 176q117 0 168 98v68q-61 72 -164 72q-57 0 -94 -31.5t-37 -91.5q0 -55 35 -85t92 -30z" />
    <glyph glyph-name="ccedilla" unicode="&#xe7;" horiz-adv-x="946" 
d="M926 133q-57 -69 -150 -112.5t-205 -51.5l-61 -133q42 14 86 14q94 0 148.5 -53.5t54.5 -156.5q0 -133 -86 -201t-238 -68q-150 0 -260 72l74 166q18 -15 72 -38q56 -24 108 -24q111 0 111 84q0 31 -17.5 49.5t-48.5 18.5q-50 0 -82 -39l-145 49l98 273q-157 39 -252 168
q-94 128 -94 339q0 246 144 385q143 138 368 138q221 0 369 -144l-189 -211q-67 72 -176 72q-90 0 -147 -63q-58 -64 -58 -172q0 -57 14.5 -102t41 -75.5t63 -46.5t80.5 -16q121 0 201 92z" />
    <glyph glyph-name="egrave" unicode="&#xe8;" horiz-adv-x="1013" 
d="M651 1128h-217l-270 453h313zM979 512v-115h-623q38 -156 219 -155q157 0 302 73l100 -229q-176 -119 -440 -119q-243 0 -370 136q-128 136 -128 382q0 241 136 384q137 143 357 143q204 0 326 -128q121 -127 121 -372zM524 768q-61 0 -107 -42t-63 -130h316
q-21 172 -146 172z" />
    <glyph glyph-name="eacute" unicode="&#xe9;" horiz-adv-x="1013" 
d="M895 1581l-272 -453h-215l172 453h315zM979 512v-115h-623q38 -156 219 -155q157 0 302 73l100 -229q-176 -119 -440 -119q-243 0 -370 136q-128 136 -128 382q0 241 136 384q137 143 357 143q204 0 326 -128q121 -127 121 -372zM524 768q-61 0 -107 -42t-63 -130h316
q-21 172 -146 172z" />
    <glyph glyph-name="ecircumflex" unicode="&#xea;" horiz-adv-x="1013" 
d="M532 1362l-155 -234h-219l245 457h256l248 -457h-219zM979 512v-115h-623q38 -156 219 -155q157 0 302 73l100 -229q-176 -119 -440 -119q-243 0 -370 136q-128 136 -128 382q0 241 136 384q137 143 357 143q204 0 326 -128q121 -127 121 -372zM524 768q-61 0 -107 -42
t-63 -130h316q-21 172 -146 172z" />
    <glyph glyph-name="edieresis" unicode="&#xeb;" horiz-adv-x="1013" 
d="M303 1198q-69 0 -121 50q-51 50 -51 122t51 123t121 51q73 0 122 -51q50 -52 50 -123q0 -73 -49 -122q-50 -50 -123 -50zM760 1198q-72 0 -122 50t-50 122q0 71 50 123q50 51 122 51q73 0 122 -51q50 -52 50 -123q0 -72 -50 -122t-122 -50zM979 512v-115h-623
q38 -156 219 -155q157 0 302 73l100 -229q-176 -119 -440 -119q-243 0 -370 136q-128 136 -128 382q0 241 136 384q137 143 357 143q204 0 326 -128q121 -127 121 -372zM524 768q-61 0 -107 -42t-63 -130h316q-21 172 -146 172z" />
    <glyph glyph-name="igrave" unicode="&#xec;" horiz-adv-x="520" 
d="M381 1128h-217l-270 453h313zM420 979v-979h-318v979h318z" />
    <glyph glyph-name="iacute" unicode="&#xed;" horiz-adv-x="520" 
d="M623 1581l-271 -453h-217l174 453h314zM420 979v-979h-318v979h318z" />
    <glyph glyph-name="icircumflex" unicode="&#xee;" horiz-adv-x="520" 
d="M262 1362l-158 -234h-219l248 457h256l248 -457h-219zM102 0v979h318v-979h-318z" />
    <glyph glyph-name="idieresis" unicode="&#xef;" horiz-adv-x="520" 
d="M-88 1248q-51 50 -51 122t51 123t121 51q73 0 122 -51q50 -52 50 -123q0 -72 -50 -122q-52 -50 -122 -50q-69 0 -121 50zM367 1248q-50 50 -50 122t51 123q50 51 121 51q72 0 123 -51q50 -52 50 -123q0 -72 -50 -122q-52 -50 -123 -50q-72 0 -122 50zM420 979v-979h-318
v979h318z" />
    <glyph glyph-name="eth" unicode="&#xf0;" horiz-adv-x="1130" 
d="M934 1206q147 -205 147 -504q0 -350 -141 -542q-141 -193 -418 -193q-226 0 -350 121q-125 122 -125 340q0 195 119 302q118 106 297 106q183 0 280 -129v26q0 189 -79 307l-275 -166l-104 162l227 138q-155 78 -406 59l-10 291q442 28 703 -174l168 100l102 -162z
M543 274q42 0 75 13t55.5 36.5t34 55.5t11.5 70q0 74 -50 119q-52 44 -124 44q-67 0 -114 -44q-46 -43 -46 -117q0 -78 46 -127q47 -50 112 -50z" />
    <glyph glyph-name="ntilde" unicode="&#xf1;" horiz-adv-x="1095" 
d="M360 1137h-217q-12 223 42.5 324.5t168.5 101.5q61 0 111.5 -27t107.5 -76q74 -71 107 -69q59 0 57 165h217q18 -426 -204 -426q-20 0 -39 3.5t-32 5.5t-30.5 10t-25.5 11q-3 1 -11 6t-17 11t-16 10.5t-9 5.5q-2 2 -9.5 7t-18.5 13q-12 8 -19 13t-9 7q-25 24 -38 33
q-5 4 -12.5 8.5t-15.5 9.5q-17 10 -30 10q-60 1 -58 -157zM702 1012q72 0 130 -22.5t98.5 -66.5t62 -110.5t21.5 -153.5v-659h-318v563q0 164 -129 164q-106 0 -159 -123v-604h-318v979h318v-135q92 168 294 168z" />
    <glyph glyph-name="ograve" unicode="&#xf2;" horiz-adv-x="1118" 
d="M678 1128h-217l-271 453h314zM936 105q-142 -138 -377 -138q-236 0 -378 139q-144 138 -144 383t145 384q143 139 378 139q234 0 376 -139q143 -140 143 -384q0 -246 -143 -384zM409 318q59 -60 150 -60q92 0 150 61q57 60 57 172t-58 174q-59 62 -149 60
q-46 0 -84.5 -15.5t-66 -45t-43 -73t-15.5 -100.5q0 -114 59 -173z" />
    <glyph glyph-name="oacute" unicode="&#xf3;" horiz-adv-x="1118" 
d="M922 1581l-273 -453h-215l172 453h316zM936 105q-142 -138 -377 -138q-236 0 -378 139q-144 138 -144 383t145 384q143 139 378 139q234 0 376 -139q143 -140 143 -384q0 -246 -143 -384zM409 318q59 -60 150 -60q92 0 150 61q57 60 57 172t-58 174q-59 62 -149 60
q-46 0 -84.5 -15.5t-66 -45t-43 -73t-15.5 -100.5q0 -114 59 -173z" />
    <glyph glyph-name="ocircumflex" unicode="&#xf4;" horiz-adv-x="1118" 
d="M559 1362l-156 -234h-219l246 457h256l248 -457h-219zM182 873q143 139 378 139q234 0 376 -139q143 -140 143 -384q0 -246 -143 -384q-142 -138 -377 -138q-236 0 -378 139q-144 138 -144 383t145 384zM409 318q59 -60 150 -60q92 0 150 61q57 60 57 172t-58 174
q-59 62 -149 60q-46 0 -84.5 -15.5t-66 -45t-43 -73t-15.5 -100.5q0 -114 59 -173z" />
    <glyph glyph-name="otilde" unicode="&#xf5;" horiz-adv-x="1118" 
d="M428 1294q-58 0 -57 -157h-217q-10 223 43 324.5t168 101.5q61 0 111 -27t108 -76q74 -71 106 -69q60 0 58 165h217q18 -426 -205 -426q-18 0 -38 3.5t-32 5.5t-30.5 10t-26.5 11q-3 1 -10.5 6l-16.5 11t-16 10.5t-9 5.5q-3 2 -10 7t-18 13t-18.5 13l-10.5 7
q-29 27 -37 33q-5 4 -12 8.5t-16 9.5q-19 10 -31 10zM936 105q-142 -138 -377 -138q-236 0 -378 139q-144 138 -144 383t145 384q143 139 378 139q234 0 376 -139q143 -140 143 -384q0 -246 -143 -384zM409 318q59 -60 150 -60q92 0 150 61q57 60 57 172t-58 174
q-59 62 -149 60q-46 0 -84.5 -15.5t-66 -45t-43 -73t-15.5 -100.5q0 -114 59 -173z" />
    <glyph glyph-name="odieresis" unicode="&#xf6;" horiz-adv-x="1118" 
d="M210 1248q-50 50 -50 122q0 71 50 123q50 51 122 51t121 -51q49 -50 49 -123t-49 -122q-50 -50 -121 -50q-72 0 -122 50zM664 1248q-50 50 -50 122t51 123q50 51 121 51q73 0 122 -51q50 -52 50 -123q0 -72 -50 -122t-122 -50t-122 50zM936 105q-142 -138 -377 -138
q-236 0 -378 139q-144 138 -144 383t145 384q143 139 378 139q234 0 376 -139q143 -140 143 -384q0 -246 -143 -384zM409 318q59 -60 150 -60q92 0 150 61q57 60 57 172t-58 174q-59 62 -149 60q-46 0 -84.5 -15.5t-66 -45t-43 -73t-15.5 -100.5q0 -114 59 -173z" />
    <glyph glyph-name="divide" unicode="&#xf7;" horiz-adv-x="1142" 
d="M436 974q-59 59 -59 142q0 84 59 143q58 58 142 58q82 0 140 -58t58 -142t-58 -142q-58 -60 -140 -60q-83 0 -142 59zM98 829h946v-278h-946v278zM436 124q-59 59 -59 141q0 83 59 142q58 58 142 58q82 0 140 -58t58 -142q0 -83 -58 -141t-140 -58q-84 0 -142 58z" />
    <glyph glyph-name="oslash" unicode="&#xf8;" horiz-adv-x="1118" 
d="M932 877q147 -141 147 -387t-143 -384q-142 -139 -377 -139q-116 0 -213 35l-100 -149l-160 108l96 143q-145 141 -145 385q0 245 145 384q143 139 377 139q113 0 209 -35l96 141l168 -94zM324 492q0 -78 26 -138l266 396q-28 6 -57 6q-104 0 -169 -68q-66 -69 -66 -196z
M559 227q105 0 169 70q65 71 65 195q0 79 -27 137l-266 -396q29 -6 59 -6z" />
    <glyph glyph-name="ugrave" unicode="&#xf9;" horiz-adv-x="1083" 
d="M659 1128h-215l-272 453h315zM676 979h317v-979h-317v133q-88 -166 -293 -166q-146 0 -224.5 87.5t-78.5 262.5v662h317v-565q0 -164 127 -164q100 0 152 121v608z" />
    <glyph glyph-name="uacute" unicode="&#xfa;" horiz-adv-x="1083" 
d="M903 1581l-270 -453h-217l174 453h313zM676 979h317v-979h-317v133q-88 -166 -293 -166q-146 0 -224.5 87.5t-78.5 262.5v662h317v-565q0 -164 127 -164q100 0 152 121v608z" />
    <glyph glyph-name="ucircumflex" unicode="&#xfb;" horiz-adv-x="1083" 
d="M541 1362l-156 -234h-219l248 457h256l245 -457h-219zM676 979h317v-979h-317v133q-88 -166 -293 -166q-146 0 -224.5 87.5t-78.5 262.5v662h317v-565q0 -164 127 -164q100 0 152 121v608z" />
    <glyph glyph-name="udieresis" unicode="&#xfc;" horiz-adv-x="1083" 
d="M313 1198q-69 0 -121 50q-51 50 -51 122t52 123q51 51 120 51q73 0 122 -51q50 -52 50 -123q0 -72 -50 -122t-122 -50zM770 1198q-72 0 -122 50t-50 122q0 71 50 123q50 51 122 51q73 0 122 -51q50 -52 50 -123q0 -72 -50 -122t-122 -50zM676 979h317v-979h-317v133
q-88 -166 -293 -166q-146 0 -224.5 87.5t-78.5 262.5v662h317v-565q0 -164 127 -164q100 0 152 121v608z" />
    <glyph glyph-name="yacute" unicode="&#xfd;" horiz-adv-x="1079" 
d="M903 1581l-272 -453h-215l172 453h315zM737 979h332l-575 -1487h-332l217 510l-369 977h338l189 -612z" />
    <glyph glyph-name="thorn" unicode="&#xfe;" horiz-adv-x="1159" 
d="M723 1012q157 0 271 -117q57 -60 90.5 -163.5t33.5 -246.5q0 -140 -35 -243t-97 -161t-136.5 -86t-161.5 -28q-188 0 -285 139v-608h-317v2032h317v-711q106 193 320 193zM604 256q85 0 144 59q57 59 57 172q0 114 -56 176q-57 60 -141 60q-154 0 -205 -164v-123
q47 -180 201 -180z" />
    <glyph glyph-name="ydieresis" unicode="&#xff;" horiz-adv-x="1079" 
d="M311 1198q-69 0 -121 50q-51 50 -51 122t52 123q51 51 120 51q73 0 122 -51q50 -52 50 -123q0 -73 -49 -122q-50 -50 -123 -50zM768 1198q-72 0 -122 50t-50 122q0 71 50 123q50 51 122 51q73 0 122 -51q50 -52 50 -123q0 -72 -50 -122t-122 -50zM737 979h332l-575 -1487
h-332l217 510l-369 977h338l189 -612z" />
    <glyph glyph-name="Amacron" unicode="&#x100;" horiz-adv-x="1277" 
d="M975 1915v-264h-723v264h723zM915 0l-77 272h-428l-70 -272h-328l414 1427h389l451 -1427h-351zM477 541h285l-152 530z" />
    <glyph glyph-name="amacron" unicode="&#x101;" horiz-adv-x="1017" 
d="M887 1489v-262h-721v262h721zM514 1012q209 0 313.5 -103.5t104.5 -326.5v-582h-307v80q-107 -113 -283 -113q-136 0 -222 78q-85 78 -85 236q0 156 98 240q98 83 238 83q144 0 254 -59v6q0 104 -45 148t-138 44q-146 0 -256 -67l-106 221q173 115 434 115zM455 176
q119 0 170 100v78q-74 47 -166 47q-57 0 -93 -29.5t-36 -84.5q0 -51 35 -81t90 -30z" />
    <glyph glyph-name="Abreve" unicode="&#x102;" horiz-adv-x="1277" 
d="M616 1583q-198 0 -294.5 110t-85.5 328h247q-2 -111 27.5 -172t105.5 -61q77 0 105.5 61.5t26.5 171.5h245q12 -218 -84.5 -328t-292.5 -110zM915 0l-77 272h-428l-70 -272h-328l414 1427h389l451 -1427h-351zM477 541h285l-152 530z" />
    <glyph glyph-name="abreve" unicode="&#x103;" horiz-adv-x="1017" 
d="M528 1145q-198 0 -294.5 110t-86.5 328h248q-2 -111 27.5 -171t105.5 -60q77 0 105.5 60.5t23.5 170.5h248q12 -218 -84.5 -328t-292.5 -110zM514 1012q209 0 313.5 -103.5t104.5 -326.5v-582h-307v80q-107 -113 -283 -113q-136 0 -222 78q-85 78 -85 236q0 156 98 240
q98 83 238 83q144 0 254 -59v6q0 104 -45 148t-138 44q-146 0 -256 -67l-106 221q173 115 434 115zM455 176q119 0 170 100v78q-74 47 -166 47q-57 0 -93 -29.5t-36 -84.5q0 -51 35 -81t90 -30z" />
    <glyph glyph-name="Aogonek" unicode="&#x104;" horiz-adv-x="1277" 
d="M1223 -338l49 -207q-128 -66 -295 -65q-64 0 -113 17t-81.5 48t-49 74.5t-16.5 95.5q0 220 297 375h-99l-77 272h-428l-70 -272h-328l414 1427h389l451 -1427h-6q-269 -145 -271 -291q0 -88 88 -88q75 0 146 41zM477 541h285l-152 530z" />
    <glyph glyph-name="aogonek" unicode="&#x105;" horiz-adv-x="1017" 
d="M938 -330l49 -207q-70 -37 -145.5 -55.5t-159.5 -17.5q-63 0 -110 17t-78.5 47t-47.5 71.5t-16 91.5q0 219 270 383h-75v80q-107 -113 -283 -113q-136 0 -222 78q-85 78 -85 236q0 156 98 240q98 83 238 83q144 0 254 -59v6q0 104 -45 148t-138 44q-146 0 -256 -67
l-106 221q173 115 434 115q209 0 313.5 -103.5t104.5 -326.5v-582q-26 -20 -47 -37t-37 -30t-33 -29.5t-37 -36.5q-39 -42 -58.5 -82.5t-19.5 -85.5q0 -78 84 -78q75 0 154 49zM455 176q119 0 170 100v78q-74 47 -166 47q-57 0 -93 -29.5t-36 -84.5q0 -51 35 -81t90 -30z
" />
    <glyph glyph-name="Cacute" unicode="&#x106;" horiz-adv-x="1349" 
d="M1122 2030l-272 -453h-215l172 453h315zM727 -33q-313 0 -492 198q-180 197 -180 550q0 345 204 544q203 199 523 199q310 0 525 -188l-179 -277q-135 142 -344 144q-168 0 -273 -113q-105 -112 -108 -303q-2 -206 97 -316q97 -112 266 -112q254 0 397 194l152 -290
q-88 -106 -243 -168q-156 -62 -345 -62z" />
    <glyph glyph-name="cacute" unicode="&#x107;" horiz-adv-x="946" 
d="M897 1581l-270 -453h-217l172 453h315zM926 133q-66 -76 -173 -121t-237 -45q-213 0 -345 136q-132 135 -132 386q0 246 144 385q143 138 368 138q221 0 369 -144l-189 -211q-67 72 -176 72q-90 0 -147 -63q-58 -64 -58 -172q0 -57 14.5 -102t41 -75.5t63 -46.5t80.5 -16
q121 0 201 92z" />
    <glyph glyph-name="Cdotaccent" unicode="&#x10a;" horiz-adv-x="1349" 
d="M640 1657q-52 51 -52 125t52 126t124 52q74 0 126 -52t52 -126t-51 -125t-127 -51q-71 0 -124 51zM727 -33q-313 0 -492 198q-180 197 -180 550q0 345 204 544q203 199 523 199q310 0 525 -188l-179 -277q-135 142 -344 144q-168 0 -273 -113q-105 -112 -108 -303
q-2 -206 97 -316q97 -112 266 -112q254 0 397 194l152 -290q-88 -106 -243 -168q-156 -62 -345 -62z" />
    <glyph glyph-name="cdotaccent" unicode="&#x10b;" horiz-adv-x="946" 
d="M415 1209q-53 51 -53 125q0 72 53 125q52 52 124 52q76 0 127 -52t51 -125q0 -74 -51 -125q-52 -52 -127 -52q-72 0 -124 52zM926 133q-66 -76 -173 -121t-237 -45q-213 0 -345 136q-132 135 -132 386q0 246 144 385q143 138 368 138q221 0 369 -144l-189 -211
q-67 72 -176 72q-90 0 -147 -63q-58 -64 -58 -172q0 -57 14.5 -102t41 -75.5t63 -46.5t80.5 -16q121 0 201 92z" />
    <glyph glyph-name="Ccaron" unicode="&#x10c;" horiz-adv-x="1349" 
d="M897 1575h-256l-274 471h247l156 -215l156 215h248zM1163 487l152 -290q-89 -107 -242 -168q-156 -62 -346 -62q-313 0 -492 198q-180 197 -180 550q0 345 204 544q203 199 523 199q310 0 525 -188l-179 -277q-135 142 -344 144q-168 0 -273 -113q-105 -112 -108 -303
q-2 -206 97 -316q97 -112 266 -112q254 -2 397 194z" />
    <glyph glyph-name="ccaron" unicode="&#x10d;" horiz-adv-x="946" 
d="M662 1128h-256l-246 457h219l156 -233l155 233h219zM750 346l176 -213q-66 -76 -173 -121t-237 -45q-213 0 -345 136q-132 135 -132 386q0 246 144 385q143 138 368 138q221 0 369 -144l-189 -211q-67 72 -176 72q-90 0 -147 -63q-58 -64 -58 -172q0 -57 14.5 -102
t41 -75.5t63 -46.5t80.5 -16q121 0 201 92z" />
    <glyph glyph-name="Dcaron" unicode="&#x10e;" horiz-adv-x="1425" 
d="M805 1575h-256l-275 471h248l156 -215l156 215h247zM618 1427q347 0 544 -172q198 -172 198 -522q0 -354 -201 -543q-200 -190 -541 -190h-477v1427h477zM1008 733q0 196 -103.5 295.5t-314.5 99.5h-117v-827h117q204 0 310 117q107 116 108 315z" />
    <glyph glyph-name="dcaron" unicode="&#x10f;" horiz-adv-x="1363" 
d="M1141 1532h313l-98 -621h-217zM754 872v658h317v-1530h-317v106q-112 -139 -301 -139q-82 0 -153.5 29t-131.5 89t-93.5 163.5t-33.5 240.5t36 239.5t99 163.5q125 120 295 120q186 -2 283 -140zM551 250q145 0 203 135v219q-51 131 -195 131q-87 0 -146 -60
q-59 -62 -59 -183q0 -60 14.5 -105.5t41 -76t62.5 -45.5t79 -15z" />
    <glyph glyph-name="Dcroat" unicode="&#x110;" horiz-adv-x="1425" 
d="M618 1427q347 0 544 -172q198 -172 198 -522q0 -354 -201 -543q-200 -190 -541 -190h-477v586h-129v268h129v573h477zM1008 733q0 196 -103.5 295.5t-314.5 99.5h-117v-274h242v-268h-242v-285h117q204 0 310 117q107 116 108 315z" />
    <glyph glyph-name="dcroat" unicode="&#x111;" horiz-adv-x="1155" 
d="M1167 1421v-241h-96v-1180h-317v106q-112 -139 -301 -139q-82 0 -153.5 29t-131.5 89t-93.5 163.5t-33.5 240.5t36 239.5t99 163.5q125 120 295 120q184 0 283 -140v308h-351v241h351v109h317v-109h96zM551 250q145 0 203 135v219q-51 131 -195 131q-87 0 -146 -60
q-59 -62 -59 -183q0 -60 14.5 -105.5t41 -76t62.5 -45.5t79 -15z" />
    <glyph glyph-name="Emacron" unicode="&#x112;" horiz-adv-x="1171" 
d="M944 1915v-264h-721v264h721zM1104 1128h-635v-260h483v-266h-483v-301h635v-301h-969v1427h969v-299z" />
    <glyph glyph-name="emacron" unicode="&#x113;" horiz-adv-x="1013" 
d="M893 1491v-264h-721v264h721zM979 512v-115h-623q38 -156 219 -155q157 0 302 73l100 -229q-176 -119 -440 -119q-243 0 -370 136q-128 136 -128 382q0 241 136 384q137 143 357 143q204 0 326 -128q121 -127 121 -372zM524 768q-61 0 -107 -42t-63 -130h316
q-21 172 -146 172z" />
    <glyph glyph-name="Edotaccent" unicode="&#x116;" horiz-adv-x="1171" 
d="M588 1606q-73 0 -126 51q-52 51 -52 125t52 126t126 52t125 -52t51 -126t-51 -125t-125 -51zM1104 1128h-635v-260h483v-266h-483v-301h635v-301h-969v1427h969v-299z" />
    <glyph glyph-name="edotaccent" unicode="&#x117;" horiz-adv-x="1013" 
d="M537 1157q-74 0 -125 52q-52 51 -52 125q0 72 53 125q52 52 124 52q74 0 126 -52t52 -125q0 -74 -51 -125q-51 -52 -127 -52zM979 512v-115h-623q38 -156 219 -155q157 0 302 73l100 -229q-176 -119 -440 -119q-243 0 -370 136q-128 136 -128 382q0 241 136 384
q137 143 357 143q204 0 326 -128q121 -127 121 -372zM524 768q-61 0 -107 -42t-63 -130h316q-21 172 -146 172z" />
    <glyph glyph-name="Eogonek" unicode="&#x118;" horiz-adv-x="1171" 
d="M1104 1128h-635v-260h483v-266h-483v-301h635v-301h-88q-230 -135 -232 -270q0 -88 86 -88q75 0 146 41l49 -207q-124 -66 -295 -66q-64 0 -112.5 17t-81 48.5t-48.5 74.5t-16 96q0 207 258 354h-635v1427h969v-299z" />
    <glyph glyph-name="eogonek" unicode="&#x119;" horiz-adv-x="1013" 
d="M956 -244l48 -207q-140 -72 -304 -71q-63 0 -111 16.5t-79.5 46t-47.5 71t-16 91.5q0 145 117 264h-26q-243 0 -370 136q-128 136 -128 382q0 241 136 384q137 143 357 143q204 0 326 -128q121 -127 121 -372v-115h-623q38 -156 219 -155q157 0 302 73l100 -229
q-23 -16 -46.5 -29t-49.5 -24q-162 -134 -162 -246q0 -80 84 -80q71 0 153 49zM524 768q-61 0 -107 -42t-63 -130h316q-21 172 -146 172z" />
    <glyph glyph-name="Ecaron" unicode="&#x11a;" horiz-adv-x="1171" 
d="M721 1575h-256l-277 471h250l154 -215l156 215h247zM1104 1128h-635v-260h483v-266h-483v-301h635v-301h-969v1427h969v-299z" />
    <glyph glyph-name="ecaron" unicode="&#x11b;" horiz-adv-x="1013" 
d="M659 1128h-256l-245 457h219l155 -233l156 233h219zM979 512v-115h-623q38 -156 219 -155q157 0 302 73l100 -229q-176 -119 -440 -119q-243 0 -370 136q-128 136 -128 382q0 241 136 384q137 143 357 143q204 0 326 -128q121 -127 121 -372zM524 768q-61 0 -107 -42
t-63 -130h316q-21 172 -146 172z" />
    <glyph glyph-name="Gbreve" unicode="&#x11e;" horiz-adv-x="1400" 
d="M764 1593q-198 0 -294.5 110.5t-86.5 330.5h248q-4 -113 25.5 -173.5t106.5 -60.5t105.5 60.5t24.5 173.5h248q10 -220 -85.5 -330.5t-291.5 -110.5zM698 836h621v-768q-144 -51 -287 -75.5t-287 -25.5q-319 0 -505 196q-187 194 -187 548q0 352 196 551q195 198 515 198
q341 0 543 -198l-203 -246q-130 123 -330 123q-172 0 -274 -116q-103 -115 -103 -312t98 -310q98 -114 271 -114q126 0 219 35v247h-287v267z" />
    <glyph glyph-name="gbreve" unicode="&#x11f;" horiz-adv-x="970" 
d="M496 1145q-198 0 -295 110t-84 330h245q-2 -113 27.5 -173t105.5 -60q77 0 105.5 60.5t26.5 172.5h245q12 -220 -83 -330t-293 -110zM604 147q169 0 269 -80q98 -81 98 -233q0 -193 -133 -284t-363 -91q-461 0 -461 295q0 133 111 211q-90 72 -90 199q0 63 30.5 122.5
t88.5 98.5q-91 101 -93 258q0 172 107 271q107 98 285 98q109 0 196 -33h295v-229h-84q12 -49 12 -107q0 -174 -116 -275q-117 -102 -303 -102q-74 0 -140 21q-31 -31 -30 -68q0 -72 77 -72h244zM467 784q-70 0 -113 -37.5t-43 -106.5t43 -105.5t113 -36.5t113 35t43 107
t-43 108t-113 36zM475 -299q103 0 159 28.5t56 86.5q0 88 -115 88h-229q-69 -29 -67 -97q-1 -106 196 -106z" />
    <glyph glyph-name="Gdotaccent" unicode="&#x120;" horiz-adv-x="1400" 
d="M766 1606q-71 0 -124 51q-52 51 -52 125t52 126t124 52q76 0 127 -52t51 -126t-51 -125t-127 -51zM698 836h621v-768q-144 -51 -287 -75.5t-287 -25.5q-319 0 -505 196q-187 194 -187 548q0 352 196 551q195 198 515 198q341 0 543 -198l-203 -246q-130 123 -330 123
q-172 0 -274 -116q-103 -115 -103 -312t98 -310q98 -114 271 -114q126 0 219 35v247h-287v267z" />
    <glyph glyph-name="gdotaccent" unicode="&#x121;" horiz-adv-x="970" 
d="M500 1157q-74 0 -126 52q-52 51 -52 125q0 73 52 125t126 52t125 -52t51 -125q0 -74 -51 -125q-51 -52 -125 -52zM604 147q169 0 269 -80q98 -81 98 -233q0 -193 -133 -284t-363 -91q-461 0 -461 295q0 133 111 211q-90 72 -90 199q0 63 30.5 122.5t88.5 98.5
q-91 101 -93 258q0 172 107 271q107 98 285 98q109 0 196 -33h295v-229h-84q12 -49 12 -107q0 -174 -116 -275q-117 -102 -303 -102q-74 0 -140 21q-31 -31 -30 -68q0 -72 77 -72h244zM467 784q-70 0 -113 -37.5t-43 -106.5t43 -105.5t113 -36.5t113 35t43 107t-43 108
t-113 36zM475 -299q103 0 159 28.5t56 86.5q0 88 -115 88h-229q-69 -29 -67 -97q-1 -106 196 -106z" />
    <glyph glyph-name="uni0122" unicode="&#x122;" horiz-adv-x="1400" 
d="M698 836h621v-768q-144 -51 -287 -75.5t-287 -25.5q-319 0 -505 196q-187 194 -187 548q0 352 196 551q195 198 515 198q341 0 543 -198l-203 -246q-130 123 -330 123q-172 0 -274 -116q-103 -115 -103 -312t98 -310q98 -114 271 -114q126 0 219 35v247h-287v267z
M741 -100q92 0 149 -68q56 -68 56 -178q0 -268 -282 -395l-103 151q72 33 114 64.5t66 79.5h-6q-71 0 -118 46q-48 46 -48 126q0 39 12.5 71t35.5 55t54.5 35.5t69.5 12.5z" />
    <glyph glyph-name="uni0123" unicode="&#x123;" horiz-adv-x="970" 
d="M477 1153q-94 0 -147.5 62t-53.5 174q0 130 74 239q74 107 209 152l103 -152q-151 -66 -191 -162q9 1 18 1.5t19 0.5q57 0 102 -36q45 -37 45 -109q0 -41 -13.5 -72.5t-37.5 -53.5t-56.5 -33t-70.5 -11zM604 147q169 0 269 -80q98 -81 98 -233q0 -193 -133 -284t-363 -91
q-461 0 -461 295q0 133 111 211q-90 72 -90 199q0 63 30.5 122.5t88.5 98.5q-91 101 -93 258q0 172 107 271q107 98 285 98q109 0 196 -33h295v-229h-84q12 -49 12 -107q0 -174 -116 -275q-117 -102 -303 -102q-74 0 -140 21q-31 -31 -30 -68q0 -72 77 -72h244zM467 784
q-70 0 -113 -37.5t-43 -106.5t43 -105.5t113 -36.5t113 35t43 107t-43 108t-113 36zM475 -299q103 0 159 28.5t56 86.5q0 88 -115 88h-229q-69 -29 -67 -97q-1 -106 196 -106z" />
    <glyph glyph-name="Hbar" unicode="&#x126;" horiz-adv-x="1415" 
d="M1370 1255v-268h-90v-987h-332v485h-481v-485h-332v987h-88v268h88v172h332v-172h481v172h332v-172h90zM948 776v211h-481v-211h481z" />
    <glyph glyph-name="hbar" unicode="&#x127;" horiz-adv-x="1091" 
d="M696 1012q147 0 230.5 -88t83.5 -265v-659h-318v565q0 164 -131 164q-104 0 -158 -123v-606h-317v1130h-84v246h84v154h317v-154h363v-246h-363v-284q91 166 293 166z" />
    <glyph glyph-name="Imacron" unicode="&#x12a;" horiz-adv-x="602" 
d="M-57 1651v264h721v-264h-721zM467 1427v-1427h-332v1427h332z" />
    <glyph glyph-name="imacron" unicode="&#x12b;" horiz-adv-x="520" 
d="M-100 1491h723v-264h-723v264zM420 979v-979h-318v979h318z" />
    <glyph glyph-name="Iogonek" unicode="&#x12e;" horiz-adv-x="602" 
d="M432 -338l47 -207q-125 -67 -295 -65q-63 0 -111.5 17t-81 48t-49 74.5t-16.5 95.5q0 221 295 375h-86v1427h332v-1427h2q-270 -146 -270 -291q0 -88 88 -88q72 0 145 41z" />
    <glyph glyph-name="iogonek" unicode="&#x12f;" horiz-adv-x="520" 
d="M266 1157q-74 0 -125 52q-51 51 -51 125q0 73 52 125q51 52 124 52q74 0 126 -52t52 -125q0 -74 -52 -125q-52 -52 -126 -52zM430 -315l49 -207q-140 -74 -305 -74q-63 0 -110.5 17t-79.5 47t-48 71.5t-16 91.5q0 212 250 369h-68v979h318v-959l4 -6l-4 -4v-10h-14
q-100 -78 -156 -144q-57 -65 -57 -143t83 -78q73 2 154 50z" />
    <glyph glyph-name="Idotaccent" unicode="&#x130;" horiz-adv-x="602" 
d="M181 1657q-52 51 -52 125t52 126t126 52t125 -52t51 -126t-51 -125t-125 -51q-73 0 -126 51zM467 1427v-1427h-332v1427h332z" />
    <glyph glyph-name="dotlessi" unicode="&#x131;" horiz-adv-x="520" 
d="M420 979v-979h-318v979h318z" />
    <glyph glyph-name="uni0136" unicode="&#x136;" horiz-adv-x="1296" 
d="M858 903l420 -903h-393l-267 596l-145 -188v-408h-332v1427h332v-550l408 550h387zM645 -100q92 0 149 -68q56 -68 56 -178q0 -268 -283 -395l-102 151q72 33 114 64.5t66 79.5h-6q-71 0 -118 46q-48 46 -48 126q0 78 49 126q50 48 123 48z" />
    <glyph glyph-name="uni0137" unicode="&#x137;" horiz-adv-x="1081" 
d="M403 225v-225h-317v1530h317v-922l295 371h373l-301 -340l311 -639h-379l-172 369zM539 -100q92 0 148 -68t56 -178q0 -268 -282 -395l-103 151q72 33 114 64.5t67 79.5h-9q-69 0 -115 46q-48 46 -48 126q0 39 12.5 71t35.5 55t54.5 35.5t69.5 12.5z" />
    <glyph glyph-name="Lacute" unicode="&#x139;" horiz-adv-x="1009" 
d="M664 2030l-271 -453h-217l172 453h316zM135 1427h334v-1126h522v-301h-856v1427z" />
    <glyph glyph-name="lacute" unicode="&#x13a;" horiz-adv-x="491" 
d="M614 2060l-270 -450h-217l172 450h315zM403 1530v-1530h-317v1530h317z" />
    <glyph glyph-name="uni013B" unicode="&#x13b;" horiz-adv-x="1009" 
d="M469 301h522v-301h-856v1427h334v-1126zM575 -100q92 0 149 -68q56 -68 56 -178q0 -268 -282 -395l-103 151q72 33 114 64.5t66 79.5h-6q-71 0 -118 46q-48 46 -48 126q0 78 49 126q50 48 123 48z" />
    <glyph glyph-name="uni013C" unicode="&#x13c;" horiz-adv-x="491" 
d="M403 1530v-1530h-317v1530h317zM244 -100q92 0 149 -68q56 -68 56 -178q0 -268 -283 -395l-103 151q72 33 114 64.5t67 79.5h-8q-69 0 -116 46q-48 46 -48 126q0 39 12.5 71t35.5 55t54.5 35.5t69.5 12.5z" />
    <glyph glyph-name="Lcaron" unicode="&#x13d;" horiz-adv-x="1009" 
d="M440 1575h-256l-276 471h248l155 -215l156 215h248zM469 301h522v-301h-856v1427h334v-1126z" />
    <glyph glyph-name="lcaron" unicode="&#x13e;" horiz-adv-x="667" 
d="M809 1530l-98 -621h-217l2 621h313zM403 1530v-1530h-317v1530h317z" />
    <glyph glyph-name="Lslash" unicode="&#x141;" horiz-adv-x="1009" 
d="M469 301h522v-301h-856v479l-125 -65l-114 252l239 116v645h334v-491l315 164l113 -246l-428 -219v-334z" />
    <glyph glyph-name="lslash" unicode="&#x142;" horiz-adv-x="897" 
d="M913 969l-319 -201v-768h-318v569l-114 -69l-156 245l270 168v617h318v-418l172 107z" />
    <glyph glyph-name="Nacute" unicode="&#x143;" horiz-adv-x="1388" 
d="M1057 2030l-271 -453h-217l174 453h314zM946 1427h307v-1427h-313l-498 803v-803h-307v1427h309l502 -815v815z" />
    <glyph glyph-name="nacute" unicode="&#x144;" horiz-adv-x="1095" 
d="M911 1581l-272 -453h-215l172 453h315zM702 1012q72 0 130 -22.5t98.5 -66.5t62 -110.5t21.5 -153.5v-659h-318v563q0 164 -129 164q-106 0 -159 -123v-604h-318v979h318v-135q92 168 294 168z" />
    <glyph glyph-name="uni0145" unicode="&#x145;" horiz-adv-x="1388" 
d="M946 1427h307v-1427h-313l-498 803v-803h-307v1427h309l502 -815v815zM692 -100q92 0 149 -68q56 -68 56 -178q0 -268 -283 -395l-102 151q72 33 114 64.5t66 79.5h-6q-71 0 -118 46q-48 46 -48 126q0 39 12.5 71t35.5 55t54.5 35.5t69.5 12.5z" />
    <glyph glyph-name="uni0146" unicode="&#x146;" horiz-adv-x="1095" 
d="M702 1012q72 0 130 -22.5t98.5 -66.5t62 -110.5t21.5 -153.5v-659h-318v563q0 164 -129 164q-106 0 -159 -123v-604h-318v979h318v-135q92 168 294 168zM545 -100q94 0 150 -68q55 -67 55 -178q0 -268 -283 -395l-102 151q72 33 113.5 64.5t66.5 79.5h-6q-71 0 -118 46
q-48 46 -48 126q0 78 49 126q50 48 123 48z" />
    <glyph glyph-name="Ncaron" unicode="&#x147;" horiz-adv-x="1388" 
d="M834 1575h-256l-275 471h248l156 -215l155 215h248zM946 1427h307v-1427h-313l-498 803v-803h-307v1427h309l502 -815v815z" />
    <glyph glyph-name="ncaron" unicode="&#x148;" horiz-adv-x="1095" 
d="M676 1128h-256l-246 457h219l156 -233l156 233h219zM702 1012q72 0 130 -22.5t98.5 -66.5t62 -110.5t21.5 -153.5v-659h-318v563q0 164 -129 164q-106 0 -159 -123v-604h-318v979h318v-135q92 168 294 168z" />
    <glyph glyph-name="Eng" unicode="&#x14a;" horiz-adv-x="1378" 
d="M1253 1427v-1355q0 -144 -30 -250.5t-87.5 -176.5t-140.5 -104.5t-190 -34.5q-177 0 -295 70l70 277q77 -54 188 -56q162 0 178 195l-504 811v-803h-307v1427h309l502 -815v815h307z" />
    <glyph glyph-name="eng" unicode="&#x14b;" horiz-adv-x="1095" 
d="M702 1012q145 0 228.5 -89t83.5 -266v-620q0 -259 -100 -384q-101 -126 -328 -149l-86 265q197 12 196 243v547q0 168 -129 168q-106 0 -159 -123v-604h-318v979h318v-135q92 168 294 168z" />
    <glyph glyph-name="Omacron" unicode="&#x14c;" horiz-adv-x="1548" 
d="M416 1651v264h721v-264h-721zM774 -33q-326 0 -524 201q-199 200 -199 549q0 344 203 544q202 199 520 199q104 0 197 -21.5t173 -64.5t145 -107t113 -150q95 -172 95 -400q0 -350 -197 -550q-198 -200 -526 -200zM774 289q172 0 273 116q100 115 100 312q0 194 -101 309
q-102 113 -272 113t-271 -114q-102 -114 -102 -308q0 -196 102 -312q101 -116 271 -116z" />
    <glyph glyph-name="omacron" unicode="&#x14d;" horiz-adv-x="1118" 
d="M199 1491h721v-264h-721v264zM936 105q-142 -138 -377 -138q-236 0 -378 139q-144 138 -144 383t145 384q143 139 378 139q234 0 376 -139q143 -140 143 -384q0 -246 -143 -384zM409 318q59 -60 150 -60q92 0 150 61q57 60 57 172t-58 174q-59 62 -149 60
q-46 0 -84.5 -15.5t-66 -45t-43 -73t-15.5 -100.5q0 -114 59 -173z" />
    <glyph glyph-name="Ohungarumlaut" unicode="&#x150;" horiz-adv-x="1548" 
d="M899 2028l-211 -453h-194l104 453h301zM1376 2028l-342 -453h-219l248 453h313zM774 -33q-326 0 -524 201q-199 200 -199 549q0 344 203 544q202 199 520 199q104 0 197 -21.5t173 -64.5t145 -107t113 -150q95 -172 95 -400q0 -350 -197 -550q-198 -200 -526 -200z
M774 289q172 0 273 116q100 115 100 312q0 194 -101 309q-102 113 -272 113t-271 -114q-102 -114 -102 -308q0 -196 102 -312q101 -116 271 -116z" />
    <glyph glyph-name="ohungarumlaut" unicode="&#x151;" horiz-adv-x="1118" 
d="M690 1581l-211 -453h-194l102 453h303zM1167 1581l-342 -453h-217l246 453h313zM936 105q-142 -138 -377 -138q-236 0 -378 139q-144 138 -144 383t145 384q143 139 378 139q234 0 376 -139q143 -140 143 -384q0 -246 -143 -384zM409 318q59 -60 150 -60q92 0 150 61
q57 60 57 172t-58 174q-59 62 -149 60q-46 0 -84.5 -15.5t-66 -45t-43 -73t-15.5 -100.5q0 -114 59 -173z" />
    <glyph glyph-name="OE" unicode="&#x152;" horiz-adv-x="2086" 
d="M2019 1128h-622v-260h471v-266h-471v-301h622v-301h-944v12q-141 -45 -287 -45q-331 0 -534 201t-203 549q0 345 207 544q206 199 530 199q140 0 285 -59v26h946v-299zM788 289q188 0 287 104v629q-97 117 -287 117q-176 0 -281 -114q-106 -113 -106 -308
q0 -197 106 -312q105 -116 281 -116z" />
    <glyph glyph-name="oe" unicode="&#x153;" horiz-adv-x="1740" 
d="M1704 526v-84h-629q12 -105 67 -152.5t158 -47.5q157 0 302 73l100 -229q-176 -119 -440 -119q-226 0 -344 142q-133 -141 -359 -142q-237 0 -379 139q-143 138 -143 383t145 384q143 139 377 139q230 0 367 -152q123 152 331 152q207 0 327 -121t120 -365zM1245 768
q-66 0 -112 -46.5t-58 -146.5h322q-15 193 -152 193zM409 318q59 -60 150 -60q92 0 150 61q57 60 57 172t-58 174q-59 62 -149 60q-46 0 -84.5 -15.5t-66 -45t-43 -73t-15.5 -100.5q0 -114 59 -173z" />
    <glyph glyph-name="Racute" unicode="&#x154;" horiz-adv-x="1329" 
d="M1028 2030l-270 -453h-217l172 453h315zM887 0l-258 528h-156v-528h-332v1427h588q117 0 208.5 -28.5t154.5 -84t96 -138.5t33 -193q0 -142 -66.5 -249t-187.5 -161l313 -573h-393zM473 1126v-329h221q81 0 128.5 43t47.5 124t-47.5 121.5t-128.5 40.5h-221z" />
    <glyph glyph-name="racute" unicode="&#x155;" horiz-adv-x="745" 
d="M735 1581l-270 -453h-217l174 453h313zM408 764q33 111 98 177.5t158 66.5q44 0 71 -13l-2 -278q-137 23 -218 -46t-107 -214v-457h-318v979h318v-215z" />
    <glyph glyph-name="uni0156" unicode="&#x156;" horiz-adv-x="1329" 
d="M967 573l313 -573h-393l-258 528h-156v-528h-332v1427h588q117 0 208.5 -28.5t154.5 -84t96 -138.5t33 -193q0 -142 -66.5 -249t-187.5 -161zM473 1126v-329h221q81 0 128.5 43t47.5 124t-47.5 121.5t-128.5 40.5h-221zM664 -100q92 0 148 -68t56 -178q0 -268 -282 -395
l-105 151q72 33 115 64.5t66 79.5h-7q-68 0 -117 46t-49 126q0 78 50 126t125 48z" />
    <glyph glyph-name="uni0157" unicode="&#x157;" horiz-adv-x="745" 
d="M664 1008q44 0 71 -13l-2 -278q-137 23 -218 -46t-107 -214v-457h-318v979h318v-215q17 56 41.5 101t57 76.5t72 49t85.5 17.5zM258 -100q92 0 149 -68q56 -68 56 -178q0 -268 -283 -395l-104 151q72 33 114.5 64.5t65.5 79.5h-6q-68 0 -117 46t-49 126q0 78 49 126
q50 48 125 48z" />
    <glyph glyph-name="Rcaron" unicode="&#x158;" horiz-adv-x="1329" 
d="M805 1575h-258l-275 471h248l156 -215l155 215h248zM887 0l-258 528h-156v-528h-332v1427h588q117 0 208.5 -28.5t154.5 -84t96 -138.5t33 -193q0 -142 -66.5 -249t-187.5 -161l313 -573h-393zM473 1126v-329h221q81 0 128.5 43t47.5 124t-47.5 121.5t-128.5 40.5h-221z
" />
    <glyph glyph-name="rcaron" unicode="&#x159;" horiz-adv-x="745" 
d="M502 1128h-256l-248 457h219l156 -233l157 233h220zM408 764q33 111 98 177.5t158 66.5q44 0 71 -13l-2 -278q-137 23 -218 -46t-107 -214v-457h-318v979h318v-215z" />
    <glyph glyph-name="Sacute" unicode="&#x15a;" horiz-adv-x="1064" 
d="M895 2030l-270 -453h-217l174 453h313zM496 -33q-267 0 -469 131l114 305q145 -127 344 -127q91 0 142 33t51 99q0 63 -45 94q-44 29 -150 61q-209 61 -313 172t-104 295q0 195 122 312q122 116 347 116q281 0 483 -123l-154 -286q-63 51 -145.5 78.5t-163.5 27.5
q-150 0 -149 -111q0 -30 10.5 -52.5t33 -41.5t57.5 -34.5t85 -30.5q45 -13 83.5 -27.5t74 -31t68 -37t65.5 -46.5q66 -53 100.5 -133t34.5 -186q0 -229 -139 -343t-383 -114z" />
    <glyph glyph-name="sacute" unicode="&#x15b;" horiz-adv-x="864" 
d="M793 1581l-271 -453h-217l172 453h316zM387 369q-164 31 -250 107.5t-86 219.5q0 151 103 233q103 83 284 83q210 0 359 -80l-101 -230q-109 62 -243 64q-111 0 -111 -68q0 -60 135 -92q152 -28 241 -100q87 -72 87 -211q0 -159 -110 -243.5t-314 -84.5q-209 0 -340 80
l78 234q20 -11 37 -20t31 -16t33.5 -13.5t44.5 -11.5q52 -11 110 -11q66 0 99.5 20.5t33.5 55.5q0 37 -29 53.5t-92 30.5z" />
    <glyph glyph-name="Scedilla" unicode="&#x15e;" horiz-adv-x="1064" 
d="M592 885q45 -13 83.5 -27.5t74 -31t68 -37t65.5 -46.5q66 -53 100.5 -133t34.5 -186q0 -195 -102.5 -307.5t-286.5 -139.5l-66 -141q42 14 88 14q94 0 147.5 -53.5t53.5 -156.5q0 -133 -86 -201t-236 -68q-152 0 -262 72l74 166q18 -15 72 -38q56 -24 108 -24
q113 0 113 84q0 31 -17.5 49.5t-50.5 18.5q-49 0 -82 -39l-145 49l94 260q-228 12 -407 129l114 305q145 -127 344 -127q91 0 142 33t51 99q0 63 -45 94q-44 29 -150 61q-209 61 -313 172t-104 295q0 195 122 312q122 116 347 116q281 0 483 -123l-154 -286
q-63 51 -145.5 78.5t-163.5 27.5q-150 0 -149 -111q0 -30 10.5 -52.5t33 -41t57.5 -34.5t85 -31z" />
    <glyph glyph-name="scedilla" unicode="&#x15f;" horiz-adv-x="864" 
d="M805 295q0 -134 -79.5 -215.5t-229.5 -104.5l-64 -139q42 14 86 14q97 0 150 -53.5t53 -156.5q0 -133 -86 -201t-236 -68q-152 0 -262 72l74 166q18 -15 72 -38q56 -24 108 -24q113 0 113 84q0 31 -18.5 49.5t-49.5 18.5q-49 0 -82 -39l-145 49l94 260q-160 13 -262 78
l78 234q20 -11 37 -20t31 -16t33.5 -13.5t44.5 -11.5q52 -11 110 -11q66 0 99.5 20.5t33.5 55.5q0 37 -28.5 53t-92.5 31q-164 31 -250 107.5t-86 219.5q0 151 103 233q103 83 284 83q210 0 359 -80l-101 -230q-109 62 -243 64q-111 0 -111 -68q0 -60 135 -92
q152 -28 241 -100q87 -72 87 -211z" />
    <glyph glyph-name="Scaron" unicode="&#x160;" horiz-adv-x="1064" 
d="M672 1575h-256l-277 471h250l154 -215l155 215h248zM592 885q45 -13 83.5 -27.5t74 -31t68 -37t65.5 -46.5q66 -53 100.5 -133t34.5 -186q0 -229 -139 -343t-383 -114q-267 0 -469 131l114 305q145 -127 344 -127q91 0 142 33t51 99q0 63 -45 94q-44 29 -150 61
q-209 61 -313 172t-104 295q0 195 122 312q122 116 347 116q281 0 483 -123l-154 -286q-63 51 -145.5 78.5t-163.5 27.5q-150 0 -149 -111q0 -30 10.5 -52.5t33 -41t57.5 -34.5t85 -31z" />
    <glyph glyph-name="scaron" unicode="&#x161;" horiz-adv-x="864" 
d="M557 1128h-256l-246 457h219l156 -233l156 233h219zM477 606q152 -28 241 -100q87 -72 87 -211q0 -159 -110 -243.5t-314 -84.5q-209 0 -340 80l78 234q20 -11 37 -20t31 -16t33.5 -13.5t44.5 -11.5q52 -11 110 -11q66 0 99.5 20.5t33.5 55.5q0 37 -28.5 53t-92.5 31
q-164 31 -250 107.5t-86 219.5q0 151 103 233q103 83 284 83q210 0 359 -80l-101 -230q-109 62 -243 64q-111 0 -111 -68q0 -60 135 -92z" />
    <glyph glyph-name="uni0162" unicode="&#x162;" horiz-adv-x="1052" 
d="M700 0h-67l-76 -164q42 14 88 14q94 0 147.5 -53.5t53.5 -156.5q0 -133 -86 -201t-236 -68q-152 0 -262 72l74 166q18 -15 72 -38q56 -24 108 -24q113 0 113 84q0 31 -17.5 49.5t-50.5 18.5q-49 0 -82 -39l-145 49l106 291h-73v1120h-342v307h1017v-307h-342v-1120z" />
    <glyph glyph-name="uni0163" unicode="&#x163;" horiz-adv-x="761" 
d="M494 -150q97 0 149.5 -53.5t52.5 -156.5q0 -66 -22 -116.5t-63.5 -84.5t-101 -51t-134.5 -17q-152 0 -262 72l73 166q18 -15 72 -38q56 -24 109 -24q114 0 112 84q0 31 -17.5 49.5t-49.5 18.5q-49 0 -82 -39l-146 49l105 287q-164 77 -164 352v391h-98v240h98v291h317
v-291h244v-240h-244v-350q0 -141 97 -141q71 0 135 45l82 -244q-122 -77 -289 -82l-59 -131q42 14 86 14z" />
    <glyph glyph-name="Tcaron" unicode="&#x164;" horiz-adv-x="1052" 
d="M672 1575h-256l-277 471h250l154 -215l155 215h250zM1042 1427v-307h-342v-1120h-333v1120h-342v307h1017z" />
    <glyph glyph-name="tcaron" unicode="&#x165;" horiz-adv-x="763" 
d="M815 1618l-110 -518h-189l14 518h285zM539 248q71 0 135 45l82 -244q-130 -82 -312 -82q-319 0 -319 381v391h-98v240h98v291h317v-291h244v-240h-244v-350q2 -141 97 -141z" />
    <glyph glyph-name="Tbar" unicode="&#x166;" horiz-adv-x="1052" 
d="M1042 1120h-342v-409h215v-271h-215v-440h-333v440h-215v271h215v409h-342v307h1017v-307z" />
    <glyph glyph-name="tbar" unicode="&#x167;" horiz-adv-x="763" 
d="M692 279l64 -230q-130 -82 -312 -82q-319 0 -319 381v96h-94v170h94v154h-98v211h98v291h317v-291h244v-211h-244v-154h242v-170h-242v-82q0 -129 103 -129q80 2 147 46z" />
    <glyph glyph-name="Umacron" unicode="&#x16a;" horiz-adv-x="1339" 
d="M311 1651v264h723v-264h-723zM672 -33q-267 0 -422 165q-154 164 -154 466v829h332v-849q0 -67 16.5 -121.5t48 -92.5t77 -58.5t102.5 -20.5q115 0 177 77t62 216v849h334v-829q0 -304 -152 -468q-153 -163 -421 -163z" />
    <glyph glyph-name="umacron" unicode="&#x16b;" horiz-adv-x="1083" 
d="M901 1491v-264h-721v264h721zM676 979h317v-979h-317v133q-88 -166 -293 -166q-146 0 -224.5 87.5t-78.5 262.5v662h317v-565q0 -164 127 -164q100 0 152 121v608z" />
    <glyph glyph-name="Uring" unicode="&#x16e;" horiz-adv-x="1339" 
d="M455 1669q-80 78 -80 204q0 125 80 205q79 79 217 79q136 0 215 -81q80 -82 80 -203q0 -122 -80 -202t-215 -80q-137 0 -217 78zM786 1872q0 57 -31.5 90t-82.5 33t-84 -34t-33 -89t31.5 -87t84.5 -32t84 32t31 87zM672 -33q-267 0 -422 165q-154 164 -154 466v829h332
v-849q0 -67 16.5 -121.5t48 -92.5t77 -58.5t102.5 -20.5q115 0 177 77t62 216v849h334v-829q0 -304 -152 -468q-153 -163 -421 -163z" />
    <glyph glyph-name="uring" unicode="&#x16f;" horiz-adv-x="1083" 
d="M541 1143q-136 0 -216 78q-79 76 -79 203q0 125 80 205q79 79 215 79q135 0 216 -81t81 -202q0 -122 -80 -202t-217 -80zM626 1513q-31 33 -84 33q-52 0 -84 -33q-32 -35 -32 -89q0 -55 32 -87t84 -32t84 32q31 31 31 86q0 58 -31 90zM676 979h317v-979h-317v133
q-88 -166 -293 -166q-146 0 -224.5 87.5t-78.5 262.5v662h317v-565q0 -164 127 -164q100 0 152 121v608z" />
    <glyph glyph-name="Uhungarumlaut" unicode="&#x170;" horiz-adv-x="1339" 
d="M797 2028l-211 -453h-195l103 453h303zM1274 2028l-344 -453h-217l245 453h316zM672 -33q-267 0 -422 165q-154 164 -154 466v829h332v-849q0 -67 16.5 -121.5t48 -92.5t77 -58.5t102.5 -20.5q115 0 177 77t62 216v849h334v-829q0 -304 -152 -468q-153 -163 -421 -163z
" />
    <glyph glyph-name="uhungarumlaut" unicode="&#x171;" horiz-adv-x="1083" 
d="M672 1581l-211 -453h-193l103 453h301zM807 1128h-217l246 453h315zM676 371v608h317v-979h-317v133q-88 -166 -293 -166q-146 0 -224.5 87.5t-78.5 262.5v662h317v-565q0 -164 127 -164q101 0 152 121z" />
    <glyph glyph-name="Uogonek" unicode="&#x172;" horiz-adv-x="1339" 
d="M911 1427l334 -2v-827q0 -235 -90.5 -385.5t-257.5 -210.5q-238 -136 -238 -272q0 -88 89 -88q74 0 145 41l47 -207q-124 -66 -295 -66q-63 0 -111.5 17t-81 48.5t-49 74.5t-16.5 96q0 185 209 325q-236 23 -368 186q-132 162 -132 441v829h332v-849q0 -67 16.5 -121.5
t48 -92.5t77 -58.5t102.5 -20.5q115 0 177 77t62 216v849z" />
    <glyph glyph-name="uogonek" unicode="&#x173;" horiz-adv-x="1083" 
d="M999 -330l50 -207q-141 -74 -304 -73q-63 0 -110.5 17t-79 47t-47.5 71.5t-16 91.5q0 219 270 383h-86v133q-88 -166 -293 -166q-146 0 -224.5 87.5t-78.5 262.5v662h317v-565q0 -164 127 -164q100 0 152 121v608h317v-979q-26 -20 -47 -37t-36 -30q-16 -13 -33 -29.5
t-37 -36.5q-39 -42 -57.5 -82.5t-18.5 -85.5q0 -78 82 -78q74 0 153 49z" />
    <glyph glyph-name="Wcircumflex" unicode="&#x174;" horiz-adv-x="1916" 
d="M954 1786l-153 -215h-250l276 471h256l275 -471h-248zM1548 1427h340l-325 -1427h-385l-168 631q-11 46 -26 108.5t-32 141.5q-20 -82 -35 -144.5t-26 -105.5l-184 -631h-385l-293 1427h358l123 -817q0 -6 9 -90q5 -42 8 -73.5t5 -53.5q14 69 25.5 123t22.5 94l231 809
h313l205 -788q27 -111 45 -228q14 90 22 145.5t11 78.5z" />
    <glyph glyph-name="wcircumflex" unicode="&#x175;" horiz-adv-x="1513" 
d="M739 1362l-155 -234h-219l247 457h256l246 -457h-219zM1174 979h329l-297 -979h-309l-160 549l-186 -549h-301l-240 979h328l96 -580l176 574h281l158 -553z" />
    <glyph glyph-name="Ycircumflex" unicode="&#x176;" horiz-adv-x="1222" 
d="M608 1786l-155 -215h-248l274 471h256l277 -471h-250zM1210 1427l-430 -909v-518h-331v494l-435 933h363l237 -614l236 614h360z" />
    <glyph glyph-name="ycircumflex" unicode="&#x177;" horiz-adv-x="1079" 
d="M541 1362l-156 -234h-219l246 457h256l247 -457h-219zM737 979h332l-575 -1487h-332l217 510l-369 977h338l189 -612z" />
    <glyph glyph-name="Ydieresis" unicode="&#x178;" horiz-adv-x="1222" 
d="M393 1595q-72 0 -123 52q-51 51 -51 123q0 71 52 123q51 51 122 51q73 0 122 -51q50 -53 50 -123q0 -71 -50 -123q-49 -52 -122 -52zM829 1595q-73 0 -122 52q-50 52 -50 123t51 123q50 51 121 51q74 0 125 -51q50 -53 50 -124q0 -73 -50 -123q-51 -51 -125 -51z
M1210 1427l-430 -909v-518h-331v494l-435 933h363l237 -614l236 614h360z" />
    <glyph glyph-name="Zacute" unicode="&#x179;" horiz-adv-x="1114" 
d="M938 2030l-270 -453h-217l174 453h313zM465 297h620v-297h-1022v279l549 847h-575v301h999v-278z" />
    <glyph glyph-name="zacute" unicode="&#x17a;" horiz-adv-x="823" 
d="M774 1581l-270 -453h-217l174 453h313zM399 246h404v-246h-766v244l360 489h-377v246h754v-238z" />
    <glyph glyph-name="Zdotaccent" unicode="&#x17b;" horiz-adv-x="1114" 
d="M582 1606q-73 0 -126 51t-53 125q0 73 53 126q52 52 126 52t125 -52t51 -126t-51 -125t-125 -51zM465 297h620v-297h-1022v279l549 847h-575v301h999v-278z" />
    <glyph glyph-name="zdotaccent" unicode="&#x17c;" horiz-adv-x="823" 
d="M418 1157q-74 0 -126 52q-52 51 -52 125q0 73 52 125t126 52t125 -52t51 -125q0 -74 -51 -125q-51 -52 -125 -52zM399 246h404v-246h-766v244l360 489h-377v246h754v-238z" />
    <glyph glyph-name="Zcaron" unicode="&#x17d;" horiz-adv-x="1114" 
d="M715 1575h-256l-277 471h250l156 -215l153 215h250zM465 297h620v-297h-1022v279l549 847h-575v301h999v-278z" />
    <glyph glyph-name="zcaron" unicode="&#x17e;" horiz-adv-x="823" 
d="M541 1128h-256l-248 457h219l156 -233l155 233h219zM399 246h404v-246h-766v244l360 489h-377v246h754v-238z" />
    <glyph glyph-name="uni01CD" unicode="&#x1cd;" horiz-adv-x="1277" 
d="M750 1575h-256l-275 471h248l156 -215l155 215h248zM915 0l-77 272h-428l-70 -272h-328l414 1427h389l451 -1427h-351zM477 541h285l-152 530z" />
    <glyph glyph-name="uni01CE" unicode="&#x1ce;" horiz-adv-x="1017" 
d="M655 1128h-258l-245 457h219l155 -233l156 233h219zM514 1012q209 0 313.5 -103.5t104.5 -326.5v-582h-307v80q-107 -113 -283 -113q-136 0 -222 78q-85 78 -85 236q0 156 98 240q98 83 238 83q144 0 254 -59v6q0 104 -45 148t-138 44q-146 0 -256 -67l-106 221
q173 115 434 115zM455 176q119 0 170 100v78q-74 47 -166 47q-57 0 -93 -29.5t-36 -84.5q0 -51 35 -81t90 -30z" />
    <glyph glyph-name="uni01CF" unicode="&#x1cf;" horiz-adv-x="602" 
d="M440 1575h-256l-276 471h250l155 -215l154 215h250zM135 0v1427h332v-1427h-332z" />
    <glyph glyph-name="uni01D0" unicode="&#x1d0;" horiz-adv-x="520" 
d="M389 1128h-256l-248 457h219l158 -233l156 233h219zM102 0v979h318v-979h-318z" />
    <glyph glyph-name="uni01D1" unicode="&#x1d1;" horiz-adv-x="1548" 
d="M913 1575h-256l-276 471h250l153 -215l156 215h250zM774 1460q104 0 197 -21.5t173 -64.5t145 -107t113 -150q95 -172 95 -400q0 -350 -197 -550q-198 -200 -526 -200q-326 0 -524 201q-199 200 -199 549q0 344 203 544q202 199 520 199zM774 289q172 0 273 116
q100 115 100 312q0 194 -101 309q-102 113 -272 113t-271 -114q-102 -114 -102 -308q0 -196 102 -312q101 -116 271 -116z" />
    <glyph glyph-name="uni01D2" unicode="&#x1d2;" horiz-adv-x="1118" 
d="M686 1128h-256l-246 457h219l156 -233l156 233h219zM182 873q143 139 378 139q234 0 376 -139q143 -140 143 -384q0 -246 -143 -384q-142 -138 -377 -138q-236 0 -378 139q-144 138 -144 383t145 384zM409 318q59 -60 150 -60q92 0 150 61q57 60 57 172t-58 174
q-59 62 -149 60q-46 0 -84.5 -15.5t-66 -45t-43 -73t-15.5 -100.5q0 -114 59 -173z" />
    <glyph glyph-name="uni01D3" unicode="&#x1d3;" horiz-adv-x="1339" 
d="M809 1575h-256l-274 471h247l156 -215l156 215h247zM911 1427h334v-829q0 -304 -152 -468q-153 -163 -421 -163q-267 0 -422 165q-154 164 -154 466v829h332v-849q0 -67 16.5 -121.5t48 -92.5t77 -58.5t102.5 -20.5q115 0 177 77t62 216v849z" />
    <glyph glyph-name="uni01D4" unicode="&#x1d4;" horiz-adv-x="1083" 
d="M670 1128h-256l-248 457h219l156 -233l155 233h219zM676 979h317v-979h-317v133q-88 -166 -293 -166q-146 0 -224.5 87.5t-78.5 262.5v662h317v-565q0 -164 127 -164q100 0 152 121v608z" />
    <glyph glyph-name="uni0218" unicode="&#x218;" horiz-adv-x="1064" 
d="M592 885q45 -13 83.5 -27.5t74 -31t68 -37t65.5 -46.5q66 -53 100.5 -133t34.5 -186q0 -229 -139 -343t-383 -114q-267 0 -469 131l114 305q145 -127 344 -127q91 0 142 33t51 99q0 63 -45 94q-44 29 -150 61q-209 61 -313 172t-104 295q0 195 122 312q122 116 347 116
q281 0 483 -123l-154 -286q-63 51 -145.5 78.5t-163.5 27.5q-150 0 -149 -111q0 -30 10.5 -52.5t33 -41t57.5 -34.5t85 -31zM537 -100q92 0 148 -68t56 -178q0 -268 -282 -395l-103 151q72 33 114 64.5t67 79.5h-9q-69 0 -115 46q-48 46 -48 126q0 39 12.5 71t35.5 55
t54.5 35.5t69.5 12.5z" />
    <glyph glyph-name="uni0219" unicode="&#x219;" horiz-adv-x="864" 
d="M477 606q152 -28 241 -100q87 -72 87 -211q0 -159 -110 -243.5t-314 -84.5q-209 0 -340 80l78 234q20 -11 37 -20t31 -16t33.5 -13.5t44.5 -11.5q52 -11 110 -11q66 0 99.5 20.5t33.5 55.5q0 37 -28.5 53t-92.5 31q-164 31 -250 107.5t-86 219.5q0 151 103 233
q103 83 284 83q210 0 359 -80l-101 -230q-109 62 -243 64q-111 0 -111 -68q0 -60 135 -92zM406 -100q92 0 148 -68t56 -178q0 -268 -282 -395l-105 151q72 33 115 64.5t65 79.5h-6q-68 0 -117 46t-49 126q0 78 50 126t125 48z" />
    <glyph glyph-name="uni021A" unicode="&#x21a;" horiz-adv-x="1052" 
d="M25 1427h1017v-307h-342v-1120h-333v1120h-342v307zM530 -100q92 0 149 -68q56 -68 56 -178q0 -268 -282 -395l-105 151q37 16 65.5 32t50.5 32.5t38 36t28 43.5h-8q-68 0 -117 46t-49 126q0 78 49 126q50 48 125 48z" />
    <glyph glyph-name="uni021B" unicode="&#x21b;" horiz-adv-x="761" 
d="M444 -33q-319 0 -319 381v391h-98v240h98v291h317v-291h244v-240h-244v-350q0 -141 97 -141q71 0 135 45l82 -244q-131 -82 -312 -82zM381 -100q92 0 149 -68q56 -68 56 -178q0 -268 -283 -395l-104 151q37 16 65.5 32t50.5 32.5t38 36t28 43.5h-8q-68 0 -117 46t-49 126
q0 76 49 125t125 49z" />
    <glyph glyph-name="circumflex" unicode="&#x2c6;" horiz-adv-x="1228" 
d="M786 1128h-219l-155 234l-156 -234h-219l246 457h256z" />
    <glyph glyph-name="caron" unicode="&#x2c7;" horiz-adv-x="1228" 
d="M571 1585h220l-248 -457h-256l-246 457h219l156 -233z" />
    <glyph glyph-name="breve" unicode="&#x2d8;" horiz-adv-x="1228" 
d="M43 1585h246q-2 -114 27.5 -173.5t105.5 -59.5t104.5 60.5t26.5 172.5h246q12 -220 -84 -330t-293 -110q-195 0 -293 110.5t-86 329.5z" />
    <glyph glyph-name="dotaccent" unicode="&#x2d9;" horiz-adv-x="1228" 
d="M93 1209q-52 51 -52 125q0 73 52 125t126 52t125 -52t51 -125q0 -74 -51 -125q-51 -52 -125 -52t-126 52z" />
    <glyph glyph-name="ring" unicode="&#x2da;" horiz-adv-x="829" 
d="M91 1221q-79 76 -79 203q0 125 80 205q79 79 217 79q136 0 215 -81q80 -82 80 -202q0 -122 -80 -202t-215 -80q-138 0 -218 78zM424 1423q0 57 -32 90t-84 33t-83.5 -33t-31.5 -89t31.5 -87.5t83.5 -31.5t84 31.5t32 86.5z" />
    <glyph glyph-name="ogonek" unicode="&#x2db;" horiz-adv-x="1228" 
d="M301 -563q-63 0 -111 17t-79.5 47t-47.5 71.5t-16 91.5q0 274 432 465l72 -82q-28 -20 -49 -37t-37 -30t-33 -29.5t-37 -36.5q-39 -42 -57.5 -82.5t-18.5 -85.5q0 -78 84 -78q73 0 152 49l49 -206q-140 -74 -303 -74z" />
    <glyph glyph-name="tilde" unicode="&#x2dc;" horiz-adv-x="1228" 
d="M317 1294q-58 0 -57 -157h-217q-10 223 44 324.5t167 101.5q61 0 111.5 -27t109.5 -76q72 -70 105 -69q59 0 57 165h217q20 -426 -205 -426q-18 0 -36 3.5t-32 5.5t-32.5 10t-26.5 11q-3 1 -10.5 6l-16.5 11t-16 10.5t-9 5.5q-2 2 -9 7t-18 13t-18 13t-9 7q-28 26 -39 33
q-5 4 -12 8.5t-16 9.5q-17 10 -32 10z" />
    <glyph glyph-name="hungarumlaut" unicode="&#x2dd;" horiz-adv-x="1228" 
d="M446 1581l-213 -453h-192l102 453h303zM924 1581l-344 -453h-218l246 453h316z" />
    <glyph glyph-name="gravecomb" unicode="&#x300;" 
d="M-41 1128h-217l-270 453h313z" />
    <glyph glyph-name="acutecomb" unicode="&#x301;" 
d="M-39 1581l-270 -453h-217l174 453h313z" />
    <glyph glyph-name="uni0302" unicode="&#x302;" 
d="M-37 1128h-219l-156 234l-155 -234h-219l247 457h256z" />
    <glyph glyph-name="tildecomb" unicode="&#x303;" 
d="M-580 1294q-58 0 -57 -157h-217q-10 223 44 324.5t169 101.5q60 0 109.5 -27t109.5 -76q72 -70 105 -69q58 0 57 165h217q19 -426 -205 -426q-18 0 -36.5 3.5t-32.5 5.5t-32 10t-26 11q-3 1 -10.5 6l-16.5 11t-16 10.5t-8 5.5q-2 2 -9 7t-19 13q-11 8 -18 13t-9 7
q-29 26 -39 33q-5 4 -12 8.5t-16 9.5q-17 10 -32 10z" />
    <glyph glyph-name="uni0304" unicode="&#x304;" 
d="M-762 1491h721v-264h-721v264z" />
    <glyph glyph-name="uni0306" unicode="&#x306;" 
d="M-799 1585h246q-2 -114 27.5 -173.5t105.5 -59.5t104.5 60.5t26.5 172.5h246q12 -220 -83.5 -330t-293.5 -110t-294.5 110t-84.5 330z" />
    <glyph glyph-name="uni0307" unicode="&#x307;" 
d="M-333 1209q-52 51 -52 125q0 73 52 125t124 52q76 0 127 -52t51 -125q0 -74 -51 -125q-51 -52 -127 -52q-72 0 -124 52z" />
    <glyph glyph-name="uni0308" unicode="&#x308;" 
d="M-791 1248q-51 50 -51 122t51 123q52 51 123 51t121 -51q49 -50 49 -123t-49 -122q-50 -50 -121 -50t-123 50zM-335 1248q-50 50 -50 122q0 71 50 123q49 51 122 51q72 0 122 -51q50 -52 50 -123q0 -72 -50 -122t-122 -50t-122 50z" />
    <glyph glyph-name="uni030A" unicode="&#x30a;" 
d="M-511 1221q-79 76 -79 203q0 125 80 205q79 79 215 79q137 0 217 -81q80 -82 80 -202q0 -122 -80 -202t-217 -80t-216 78zM-178 1423q0 57 -32 90t-84 33t-84 -33t-32 -89t32 -87.5t84 -31.5t84 31.5t32 86.5z" />
    <glyph glyph-name="uni030B" unicode="&#x30b;" 
d="M-512 1581l-213 -453h-193l103 453h303zM-35 1581l-344 -453h-215l246 453h313z" />
    <glyph glyph-name="uni030C" unicode="&#x30c;" 
d="M-260 1585h219l-248 -457h-256l-246 457h220l155 -233z" />
    <glyph glyph-name="uni0312" unicode="&#x312;" 
d="M-195 1468q55 0 100 -36q46 -37 46 -109q0 -83 -52 -126q-52 -44 -124 -44q-97 0 -149 62t-52 174q0 131 72 239q74 107 211 152l100 -152q-148 -66 -188 -162q8 1 17 1.5t19 0.5z" />
    <glyph glyph-name="uni0326" unicode="&#x326;" 
d="M-279 -100q92 0 148 -68q57 -68 57 -178q0 -268 -282 -395l-105 151q72 33 115 64.5t65 79.5h-6q-71 0 -118 46q-48 46 -48 126q0 78 49 126t125 48z" />
    <glyph glyph-name="uni0327" unicode="&#x327;" 
d="M-270 -125q94 0 148 -52.5t54 -158.5q0 -133 -86 -200.5t-237 -67.5t-260 72l73 165q18 -15 70 -38q57 -23 111 -23q111 0 110 84q0 31 -17.5 50.5t-47.5 19.5q-51 0 -84 -41l-144 49l107 293h192l-75 -166q42 14 86 14z" />
    <glyph glyph-name="uni0328" unicode="&#x328;" 
d="M-350 -563q-63 0 -111 17t-79.5 47t-47.5 71.5t-16 91.5q0 274 432 465l70 -82q-26 -20 -47 -37t-37 -30t-33 -29.5t-37 -36.5q-39 -42 -57.5 -82.5t-18.5 -85.5q0 -78 82 -78q75 0 154 49l49 -206q-140 -74 -303 -74z" />
    <glyph glyph-name="uni0335" unicode="&#x335;" 
d="M-805 426v270h764v-270h-764z" />
    <glyph glyph-name="uni0336" unicode="&#x336;" 
 />
    <glyph glyph-name="uni0337" unicode="&#x337;" 
d="M-815 90l-260 203l796 899l271 -191z" />
    <glyph glyph-name="uni0338" unicode="&#x338;" 
 />
    <glyph glyph-name="Wgrave" unicode="&#x1e80;" horiz-adv-x="1916" 
d="M1067 1575h-219l-285 453h316zM1548 1427h340l-325 -1427h-385l-168 631q-11 46 -26 108.5t-32 141.5q-20 -82 -35 -144.5t-26 -105.5l-184 -631h-385l-293 1427h358l123 -817q0 -6 9 -90q5 -42 8 -73.5t5 -53.5q14 69 25.5 123t22.5 94l231 809h313l205 -788
q27 -111 45 -228q14 90 22 145.5t11 78.5z" />
    <glyph glyph-name="wgrave" unicode="&#x1e81;" horiz-adv-x="1513" 
d="M858 1128h-215l-272 453h315zM1174 979h329l-297 -979h-309l-160 549l-186 -549h-301l-240 979h328l96 -580l176 574h281l158 -553z" />
    <glyph glyph-name="Wacute" unicode="&#x1e82;" horiz-adv-x="1916" 
d="M1432 2001l-367 -426h-248l270 426h345zM1548 1427h340l-325 -1427h-385l-168 631q-11 46 -26 108.5t-32 141.5q-20 -82 -35 -144.5t-26 -105.5l-184 -631h-385l-293 1427h358l123 -817q0 -6 9 -90q5 -42 8 -73.5t5 -53.5q14 69 25.5 123t22.5 94l231 809h313l205 -788
q27 -111 45 -228q14 90 22 145.5t11 78.5z" />
    <glyph glyph-name="wacute" unicode="&#x1e83;" horiz-adv-x="1513" 
d="M1102 1581l-271 -453h-217l174 453h314zM1174 979h329l-297 -979h-309l-160 549l-186 -549h-301l-240 979h328l96 -580l176 574h281l158 -553z" />
    <glyph glyph-name="Wdieresis" unicode="&#x1e84;" horiz-adv-x="1916" 
d="M739 1595q-73 0 -122 52q-50 52 -50 123t52 123q51 51 120 51q75 0 124 -51q50 -53 50 -123q0 -71 -50 -123q-49 -52 -124 -52zM1178 1595q-72 0 -123 52q-51 51 -51 123q0 71 51 123q51 51 123 51t123 -51q51 -52 51 -124q0 -73 -51 -123q-51 -51 -123 -51zM1548 1427
h340l-325 -1427h-385l-168 631q-11 46 -26 108.5t-32 141.5q-20 -82 -35 -144.5t-26 -105.5l-184 -631h-385l-293 1427h358l123 -817q0 -6 9 -90q5 -42 8 -73.5t5 -53.5q14 69 25.5 123t22.5 94l231 809h313l205 -788q27 -111 45 -228q14 90 22 145.5t11 78.5z" />
    <glyph glyph-name="wdieresis" unicode="&#x1e85;" horiz-adv-x="1513" 
d="M512 1198q-72 0 -122 50t-50 122q0 71 50 123q50 51 122 51q73 0 122 -51q50 -52 50 -123q0 -72 -50 -122t-122 -50zM967 1198q-69 0 -121 50q-51 50 -51 122t51 123t121 51q75 0 124 -51q50 -52 50 -123q0 -72 -50 -122t-124 -50zM1174 979h329l-297 -979h-309l-160 549
l-186 -549h-301l-240 979h328l96 -578l176 572h281l158 -553z" />
    <glyph glyph-name="Ygrave" unicode="&#x1ef2;" horiz-adv-x="1222" 
d="M719 1575h-219l-285 453h315zM1210 1427l-430 -909v-518h-331v494l-435 933h363l237 -614l236 614h360z" />
    <glyph glyph-name="ygrave" unicode="&#x1ef3;" horiz-adv-x="1079" 
d="M659 1128h-217l-270 453h313zM737 979h332l-575 -1487h-332l217 510l-369 977h338l189 -612z" />
    <glyph glyph-name="endash" unicode="&#x2013;" horiz-adv-x="1128" 
d="M66 426v270h997v-270h-997z" />
    <glyph glyph-name="emdash" unicode="&#x2014;" horiz-adv-x="1386" 
d="M66 426v270h1257v-270h-1257z" />
    <glyph glyph-name="quoteleft" unicode="&#x2018;" horiz-adv-x="524" 
d="M276 1182q32 0 59 -10.5t47.5 -30t32 -48t11.5 -64.5q0 -73 -45 -117t-117 -44q-94 0 -147.5 64t-53.5 190q0 142 77 258q76 114 208 172l103 -149q-87 -31 -141 -88t-64 -135q7 1 14.5 1.5t15.5 0.5z" />
    <glyph glyph-name="quoteright" unicode="&#x2019;" horiz-adv-x="524" 
d="M260 1554q94 0 147.5 -65t53.5 -189q0 -145 -77 -258q-76 -113 -208 -172l-102 150q87 31 140.5 88t66.5 135q-15 -4 -33 -4q-31 0 -58.5 10.5t-48 30.5t-32 49t-11.5 65q0 72 45 116t117 44z" />
    <glyph glyph-name="quotesinglbase" unicode="&#x201a;" horiz-adv-x="1228" 
d="M270 338q88 0 141.5 -65t53.5 -193q0 -180 -87 -330q-88 -149 -235 -215l-102 152q179 103 223 276h-4q-72 0 -123 52q-51 51 -51 135q0 86 53 137t131 51z" />
    <glyph glyph-name="quotedblleft" unicode="&#x201c;" horiz-adv-x="1228" 
d="M276 1182q32 0 59 -10.5t47.5 -30t32 -48t11.5 -64.5q0 -73 -45 -117t-117 -44q-94 0 -147.5 64t-53.5 190q0 142 77 258q76 114 208 172l103 -149q-87 -31 -141 -88t-64 -135q7 1 14.5 1.5t15.5 0.5z" />
    <glyph glyph-name="quotedblright" unicode="&#x201d;" horiz-adv-x="1228" 
d="M260 1554q94 0 147.5 -65t53.5 -189q0 -145 -77 -258q-76 -113 -208 -172l-102 150q87 31 140.5 88t66.5 135q-15 -4 -33 -4q-31 0 -58.5 10.5t-48 30.5t-32 49t-11.5 65q0 72 45 116t117 44z" />
    <glyph glyph-name="quotedblbase" unicode="&#x201e;" horiz-adv-x="1228" 
d="M270 338q88 0 141.5 -65t53.5 -193q0 -180 -87 -330q-88 -149 -235 -215l-102 152q179 103 223 276h-4q-72 0 -123 52q-51 51 -51 135q0 86 53 137t131 51z" />
    <glyph glyph-name="dagger" unicode="&#x2020;" horiz-adv-x="813" 
d="M786 975v-268h-223v-1090h-317v1090h-221v268h221v452h317v-452h223z" />
    <glyph glyph-name="daggerdbl" unicode="&#x2021;" horiz-adv-x="813" 
d="M786 707h-223v-398h223v-270h-223v-422h-317v422h-221v270h221v398h-221v268h221v452h317v-452h223v-268z" />
    <glyph glyph-name="bullet" unicode="&#x2022;" horiz-adv-x="600" 
d="M120 504q-73 70 -73 177q0 105 74 179t180 74q103 0 177 -74q73 -73 73 -179t-72 -177q-73 -72 -178 -72q-109 0 -181 72z" />
    <glyph glyph-name="ellipsis" unicode="&#x2026;" horiz-adv-x="1435" 
d="M142 22q-54 54 -54 133t55 134q54 55 133 55q80 0 135 -55q54 -55 54 -134t-54 -133q-55 -55 -135 -55t-134 55zM579 22q-55 54 -55 133t55 134q54 55 134 55q78 0 132 -55t54 -134t-54 -133q-54 -55 -132 -55q-80 0 -134 55zM1013 22q-55 54 -55 133t55 134
q54 55 134 55q78 0 132 -55t54 -134t-54 -133q-54 -55 -132 -55q-80 0 -134 55z" />
    <glyph glyph-name="perthousand" unicode="&#x2030;" horiz-adv-x="2439" 
d="M35 1110q0 151 95 251q95 99 252 99t254 -99q97 -98 97 -251q0 -154 -96 -253t-254 -99t-253 99q-95 100 -95 253zM1300 1427l-567 -1427h-319l567 1427h319zM484 1007q38 43 38 103t-38 106q-38 44 -101 44t-101 -44q-38 -46 -38 -106t38 -103q38 -42 101 -42
q64 0 101 42zM977 319q0 150 95 251q94 100 253 100q158 0 254 -100t96 -251q0 -153 -96 -254q-96 -100 -254 -100q-159 0 -253 100q-95 101 -95 254zM1706 319q0 151 96 251t253 100t253 -100t96 -251q0 -153 -95 -254q-94 -100 -253 -100q-158 0 -254 100q-96 101 -96 254
zM1429 214q37 41 37 105q0 61 -38 105q-39 43 -102 43q-65 0 -102 -43q-38 -44 -38 -105q0 -62 38 -105q38 -42 101 -42q67 0 104 42zM2157 214q38 43 38 105t-37 105t-101 43q-65 0 -102 -43q-38 -44 -38 -105q0 -62 38 -105q38 -42 101 -42q64 0 101 42z" />
    <glyph glyph-name="guilsinglleft" unicode="&#x2039;" horiz-adv-x="747" 
d="M645 1063v-311l-358 -177l358 -184v-311l-600 354v293z" />
    <glyph glyph-name="guilsinglright" unicode="&#x203a;" horiz-adv-x="747" 
d="M102 1063l600 -336v-291l-600 -356v311l359 184l-359 177v311z" />
    <glyph glyph-name="fraction" unicode="&#x2044;" horiz-adv-x="968" 
d="M942 1427l-596 -1427h-319l596 1427h319z" />
    <glyph glyph-name="Euro" unicode="&#x20ac;" horiz-adv-x="1320" 
d="M1163 487l152 -290q-89 -107 -242 -168q-156 -62 -346 -62q-259 0 -429 141q-168 139 -218 396h-137v172h118v39v51h-118v172h143q62 247 249 383q188 137 447 137q310 0 525 -188l-179 -277q-135 142 -344 144q-246 0 -333 -199h415v-172h-454q-1 -11 -1.5 -22.5
t-0.5 -22.5q0 -13 0.5 -24t1.5 -21h454v-172h-420q42 -103 123.5 -157t196.5 -54q254 -2 397 194z" />
    <glyph glyph-name="trademark" unicode="&#x2122;" horiz-adv-x="1540" 
d="M25 1227v200h596v-200h-189v-529h-225v529h-182zM1296 698v250q0 77 9 189l-152 -357h-127l-145 359q2 -43 3 -90.5t1 -100.5v-250h-193v729h250l156 -407l153 407h238l10 -729h-203z" />
    <glyph glyph-name="partialdiff" unicode="&#x2202;" horiz-adv-x="1228" 
 />
    <glyph glyph-name="emptyset" unicode="&#x2205;" horiz-adv-x="1228" 
 />
    <glyph glyph-name="product" unicode="&#x220f;" horiz-adv-x="1228" 
 />
    <glyph glyph-name="summation" unicode="&#x2211;" horiz-adv-x="1228" 
 />
    <glyph glyph-name="minus" unicode="&#x2212;" horiz-adv-x="1130" 
d="M104 817h922v-276h-922v276z" />
    <glyph glyph-name="radical" unicode="&#x221a;" horiz-adv-x="1228" 
 />
    <glyph glyph-name="infinity" unicode="&#x221e;" horiz-adv-x="1228" 
 />
    <glyph glyph-name="integral" unicode="&#x222b;" horiz-adv-x="1228" 
 />
    <glyph glyph-name="approxequal" unicode="&#x2248;" horiz-adv-x="1228" 
 />
    <glyph glyph-name="notequal" unicode="&#x2260;" horiz-adv-x="1130" 
d="M1026 756h-274l-86 -189h360v-278h-487l-99 -211l-239 98l51 113h-148v278h275l86 189h-361v278h488l88 191l242 -99l-43 -92h147v-278z" />
    <glyph glyph-name="lessequal" unicode="&#x2264;" horiz-adv-x="1228" 
 />
    <glyph glyph-name="greaterequal" unicode="&#x2265;" horiz-adv-x="1228" 
 />
    <glyph glyph-name="lozenge" unicode="&#x25ca;" horiz-adv-x="1228" 
 />
    <glyph glyph-name="A.c2sc" horiz-adv-x="1204" 
d="M848 0l-57 166h-406l-49 -166h-307l366 1057h379l400 -1057h-326zM451 385h266l-142 418z" />
    <glyph glyph-name="A.swash" horiz-adv-x="1701" 
d="M1341 0l-77 272h-428l-70 -272h-328l334 1157h-190q-297 0 -297 -201q0 -193 227 -196l-70 -250q-120 10 -208.5 51t-136.5 106t-70.5 135.5t-22.5 151.5q0 75 16 139t61 127q44 62 113 107t180.5 71.5t258.5 26.5h219v2h389l449 -1427h-349zM903 541h285l-152 530z" />
    <glyph glyph-name="AE.aalt" horiz-adv-x="1402" 
d="M1339 788h-346l4 -137h250v-233h-241l4 -148h329v-270h-628l-4 180h-277l-61 -180h-310l400 1057h880v-269zM698 399l-12 389h-51l-131 -389h194z" />
    <glyph glyph-name="Aacute.c2sc" horiz-adv-x="1204" 
d="M954 1653l-270 -451h-217l172 451h315zM848 0l-57 166h-406l-49 -166h-307l366 1057h379l400 -1057h-326zM451 385h266l-142 418z" />
    <glyph glyph-name="Aacute.swash" horiz-adv-x="1701" 
d="M1503 2001l-366 -426h-248l272 426h342zM1341 0l-77 272h-428l-70 -272h-328l334 1157h-190q-297 0 -297 -201q0 -193 227 -196l-70 -250q-120 10 -208.5 51t-136.5 106t-70.5 135.5t-22.5 151.5q0 75 16 139t61 127q44 62 113 107t180.5 71.5t258.5 26.5h219v2h389
l449 -1427h-349zM903 541h285l-152 530z" />
    <glyph glyph-name="Abreve.c2sc" horiz-adv-x="1204" 
d="M594 1219q-198 0 -294.5 110t-86.5 328h248q-2 -111 26.5 -172.5t105.5 -61.5t105.5 61.5t24.5 172.5h248q12 -218 -84.5 -328t-292.5 -110zM848 0l-57 166h-406l-49 -166h-307l366 1057h379l400 -1057h-326zM451 385h266l-142 418z" />
    <glyph glyph-name="Abreve.swash" horiz-adv-x="1701" 
d="M1036 1583q-198 0 -294.5 110t-86.5 328h248q-4 -111 25.5 -172t106.5 -61t105.5 61.5t24.5 171.5h248q10 -218 -85.5 -328t-291.5 -110zM1341 0l-77 272h-428l-70 -272h-328l334 1157h-190q-297 0 -297 -201q0 -193 227 -196l-70 -250q-120 10 -208.5 51t-136.5 106
t-70.5 135.5t-22.5 151.5q0 75 16 139t61 127q44 62 113 107t180.5 71.5t258.5 26.5h219v2h389l449 -1427h-349zM903 541h285l-152 530z" />
    <glyph glyph-name="Acircumflex.c2sc" horiz-adv-x="1204" 
d="M592 1436l-156 -234h-219l246 457h256l248 -457h-219zM848 0l-57 166h-406l-49 -166h-307l366 1057h379l400 -1057h-326zM451 385h266l-142 418z" />
    <glyph glyph-name="Acircumflex.swash" horiz-adv-x="1701" 
d="M1028 1786l-156 -215h-247l274 471h256l277 -471h-248zM1341 0l-77 272h-428l-70 -272h-328l334 1157h-190q-297 0 -297 -201q0 -193 227 -196l-70 -250q-120 10 -208.5 51t-136.5 106t-70.5 135.5t-22.5 151.5q0 75 16 139t61 127q44 62 113 107t180.5 71.5t258.5 26.5
h219v2h389l449 -1427h-349zM903 541h285l-152 530z" />
    <glyph glyph-name="Adieresis.c2sc" horiz-adv-x="1204" 
d="M365 1270q-72 0 -122 51q-50 52 -50 122q0 69 50 122q50 51 122 51t122 -50t50 -122q0 -71 -50 -123q-49 -51 -122 -51zM819 1270q-70 0 -121 51t-51 122q0 70 52 122q51 51 120 51q72 0 122 -50t50 -122q0 -73 -49 -123q-49 -51 -123 -51zM848 0l-57 166h-406l-49 -166
h-307l366 1057h379l400 -1057h-326zM451 385h266l-142 418z" />
    <glyph glyph-name="Adieresis.swash" horiz-adv-x="1701" 
d="M813 1595q-72 0 -123 52q-51 51 -51 123q0 71 51 123q51 51 123 51q73 0 122 -51q50 -53 50 -123q0 -71 -50 -123q-49 -52 -122 -52zM1249 1595q-73 0 -122 52q-50 52 -50 123t52 123q51 51 120 51q75 0 124 -51q50 -53 50 -124q0 -73 -50 -123q-49 -51 -124 -51zM1341 0
l-77 272h-428l-70 -272h-328l334 1157h-190q-297 0 -297 -201q0 -193 227 -196l-70 -250q-120 10 -208.5 51t-136.5 106t-70.5 135.5t-22.5 151.5q0 75 16 139t61 127q44 62 113 107t180.5 71.5t258.5 26.5h219v2h389l449 -1427h-349zM903 541h285l-152 530z" />
    <glyph glyph-name="Agrave.c2sc" horiz-adv-x="1204" 
d="M711 1202h-217l-271 451h316zM848 0l-57 166h-406l-49 -166h-307l366 1057h379l400 -1057h-326zM451 385h266l-142 418z" />
    <glyph glyph-name="Agrave.swash" horiz-adv-x="1701" 
d="M1139 1575h-219l-285 453h315zM1341 0l-77 272h-428l-70 -272h-328l334 1157h-190q-297 0 -297 -201q0 -193 227 -196l-70 -250q-120 10 -208.5 51t-136.5 106t-70.5 135.5t-22.5 151.5q0 75 16 139t61 127q44 62 113 107t180.5 71.5t258.5 26.5h219v2h389l449 -1427
h-349zM903 541h285l-152 530z" />
    <glyph glyph-name="Amacron.c2sc" horiz-adv-x="1204" 
d="M952 1563v-265h-721v265h721zM848 0l-57 166h-406l-49 -166h-307l366 1057h379l400 -1057h-326zM451 385h266l-142 418z" />
    <glyph glyph-name="Amacron.swash" horiz-adv-x="1701" 
d="M1393 1915v-264h-721v264h721zM1341 0l-77 272h-428l-70 -272h-328l334 1157h-190q-297 0 -297 -201q0 -193 227 -196l-70 -250q-120 10 -208.5 51t-136.5 106t-70.5 135.5t-22.5 151.5q0 75 16 139t61 127q44 62 113 107t180.5 71.5t258.5 26.5h219v2h389l449 -1427
h-349zM903 541h285l-152 530z" />
    <glyph glyph-name="Aogonek.c2sc" horiz-adv-x="1204" 
d="M967 -346q72 0 151 49l49 -209q-137 -71 -301 -69q-63 0 -111 17t-80.5 47.5t-48.5 74t-16 96.5q0 204 236 344l-55 162h-406l-49 -166h-307l366 1057h379l400 -1057h-56q-111 -66 -173 -127t-62 -135q0 -84 84 -84zM451 385h266l-142 418z" />
    <glyph glyph-name="Aogonek.swash" horiz-adv-x="1701" 
d="M1649 -338l49 -207q-128 -66 -295 -65q-64 0 -113 17t-81.5 48t-49 74.5t-16.5 95.5q0 220 297 375h-99l-77 272h-428l-70 -272h-328l334 1157h-190q-297 0 -297 -201q0 -193 227 -196l-70 -250q-120 10 -208.5 51t-136.5 106t-70.5 135.5t-22.5 151.5q0 75 16 139
t61 127q44 62 113 107t180.5 71.5t258.5 26.5h219v2h389l449 -1427h-4q-269 -145 -271 -291q0 -88 88 -88q75 0 146 41zM903 541h285l-152 530z" />
    <glyph glyph-name="Aring.c2sc" horiz-adv-x="1204" 
d="M592 1214q-138 0 -217 79q-80 80 -80 204q0 125 80 205t217 80q135 0 216 -82t81 -203q0 -120 -80 -202q-79 -81 -217 -81zM675 1586q-31 34 -83 34t-83 -34q-32 -35 -32 -89q0 -55 32 -87t84 -32q51 0 83 32q31 31 31 87q0 54 -32 89zM848 0l-57 166h-406l-49 -166h-307
l366 1057h379l400 -1057h-326zM451 385h266l-142 418z" />
    <glyph glyph-name="Aring.swash" horiz-adv-x="1701" 
d="M1032 1559q-66 0 -118.5 19t-89 53.5t-55.5 84.5t-19 111q0 124 75 197q73 73 207 73q129 0 205 -75q76 -76 76 -195t-75 -193q-75 -75 -206 -75zM1105 1906q-29 29 -73 29t-73 -29q-29 -31 -29 -79q0 -49 28 -77q27 -28 73 -28t74 28t28 77q0 50 -28 79zM1341 0l-77 272
h-428l-70 -272h-328l334 1157h-190q-297 0 -297 -201q0 -193 227 -196l-70 -250q-120 10 -208.5 51t-136.5 106t-70.5 135.5t-22.5 151.5q0 75 16 139t61 127q44 62 113 107t180.5 71.5t258.5 26.5h219v2h389l449 -1427h-349zM903 541h285l-152 530z" />
    <glyph glyph-name="Atilde.c2sc" horiz-adv-x="1204" 
d="M403 1210h-217q-10 223 44.5 323.5t166.5 100.5q61 0 111.5 -26.5t109.5 -73.5q71 -70 105 -70q58 0 57 166h217q20 -426 -204 -426q-18 0 -37 2t-32 4t-31.5 10.5t-26.5 11.5q-3 1 -11 6t-17 11t-16 10.5t-9 5.5q-4 3 -27 21q-22 17 -27 21q-14 11 -24 19t-15 13
t-12 9.5t-15 9.5q-17 10 -32 10q-60 0 -58 -158zM848 0l-57 166h-406l-49 -166h-307l366 1057h379l400 -1057h-326zM451 385h266l-142 418z" />
    <glyph glyph-name="Atilde.swash" horiz-adv-x="1701" 
d="M831 1507h-219q-18 435 209 437q55 0 99.5 -26t97.5 -71q78 -70 123 -69q69 0 67 159h217q18 -436 -219 -436q-86 0 -202 92q-1 5 -9 9q-71 61 -102 61q-66 0 -62 -156zM1341 0l-77 272h-428l-70 -272h-328l334 1157h-190q-297 0 -297 -201q0 -193 227 -196l-70 -250
q-120 10 -208.5 51t-136.5 106t-70.5 135.5t-22.5 151.5q0 75 16 139t61 127q44 62 113 107t180.5 71.5t258.5 26.5h219v2h389l449 -1427h-349zM903 541h285l-152 530z" />
    <glyph glyph-name="B.swash" horiz-adv-x="1781" 
d="M1477 766q121 -29 189.5 -114.5t68.5 -223.5q0 -199 -129 -313q-128 -115 -383 -115h-600v1137h-76q-147 0 -214 -49.5t-67 -147.5q0 -197 232 -197v-272q-140 0 -244 40t-164 108q-61 68 -90 150t-29 179q0 99 29 180.5t93 151.5q63 70 182 107.5t288 37.5h60v2h612
q205 0 314.5 -89t109.5 -267q0 -210 -182 -305zM1333 991q0 140 -176 142h-201v-299h205q78 0 125 40.5t47 116.5zM1217 295q85 0 135.5 43.5t50.5 130.5q0 156 -189 156h-258v-330h261z" />
    <glyph glyph-name="C.swash" horiz-adv-x="1349" 
d="M735 -74q-316 0 -498 203t-182 553q0 363 202 569q203 207 519 207q87 0 162.5 -20.5t145.5 -71.5q69 -51 114 -129t64.5 -199.5t1.5 -277.5h-310q29 176 -27 277q-57 100 -186 100q-145 0 -240 -120q-95 -121 -98 -329q-2 -208 98 -324q99 -118 273 -118q250 0 404 190
l145 -289q-88 -97 -243 -160q-153 -61 -345 -61z" />
    <glyph glyph-name="Cacute.swash" horiz-adv-x="1349" 
d="M1229 2001l-367 -426h-248l271 426h344zM735 -74q-316 0 -498 203t-182 553q0 363 202 569q203 207 519 207q87 0 162.5 -20.5t145.5 -71.5q69 -51 114 -129t64.5 -199.5t1.5 -277.5h-310q29 176 -27 277q-57 100 -186 100q-145 0 -240 -120q-95 -121 -98 -329
q-2 -208 98 -324q99 -118 273 -118q250 0 404 190l145 -289q-88 -97 -243 -160q-153 -61 -345 -61z" />
    <glyph glyph-name="Ccaron.swash" horiz-adv-x="1349" 
d="M895 1575h-256l-277 471h250l154 -215l156 215h249zM1178 436l145 -289q-88 -97 -242 -160q-153 -61 -346 -61q-316 0 -498 203t-182 553q0 363 202 569q203 207 519 207q87 0 162.5 -20.5t145.5 -71.5q69 -51 114 -129t64.5 -199.5t1.5 -277.5h-310q29 176 -27 277
q-57 100 -186 100q-145 0 -240 -120q-95 -121 -98 -329q-2 -208 98 -324q99 -118 273 -118q250 0 404 190z" />
    <glyph glyph-name="Ccedilla.swash" horiz-adv-x="1349" 
d="M1323 147q-80 -87 -210 -145q-133 -59 -296 -74l-41 -88q40 13 88 15q94 0 148.5 -53t54.5 -158q0 -133 -86 -201t-238 -68t-260 72l72 166q18 -15 72 -38q56 -24 110 -24q111 0 111 84q0 31 -17.5 50.5t-50.5 19.5q-49 0 -82 -41l-145 49l80 219q-272 33 -425 232
q-153 198 -153 518q0 363 202 569q203 207 519 207q87 0 162.5 -20.5t145.5 -71.5q69 -51 114 -129t64.5 -199.5t1.5 -277.5h-310q29 176 -27 277q-57 100 -186 100q-145 0 -240 -120q-95 -121 -98 -329q-2 -208 98 -324q99 -118 273 -118q250 0 404 190z" />
    <glyph glyph-name="Cdotaccent.swash" horiz-adv-x="1349" 
d="M633 1647q-51 51 -51 124t51 125t123 52q74 0 125 -52t51 -125t-51 -124q-52 -52 -125 -52q-72 0 -123 52zM735 -74q-316 0 -498 203t-182 553q0 363 202 569q203 207 519 207q87 0 162.5 -20.5t145.5 -71.5q69 -51 114 -129t64.5 -199.5t1.5 -277.5h-310q29 176 -27 277
q-57 100 -186 100q-145 0 -240 -120q-95 -121 -98 -329q-2 -208 98 -324q99 -118 273 -118q250 0 404 190l145 -289q-88 -97 -243 -160q-153 -61 -345 -61z" />
    <glyph glyph-name="D.swash" horiz-adv-x="1914" 
d="M1108 1427q346 0 545 -172q198 -172 198 -522q0 -354 -200 -543q-200 -190 -543 -190h-477v1137h-41q-156 0 -225.5 -49.5t-69.5 -147.5q0 -197 217 -197v-272q-136 0 -236.5 40t-159.5 108t-87.5 150t-28.5 179q0 477 621 477h10v2h477zM1497 733q2 196 -103 295.5
t-313 99.5h-116v-827h116q204 0 310 117q106 115 106 315z" />
    <glyph glyph-name="Dcaron.swash" horiz-adv-x="1914" 
d="M1296 1575h-256l-274 471h248l155 -215l154 215h250zM1108 1427q346 0 545 -172q198 -172 198 -522q0 -354 -200 -543q-200 -190 -543 -190h-477v1137h-41q-156 0 -225.5 -49.5t-69.5 -147.5q0 -197 217 -197v-272q-136 0 -236.5 40t-159.5 108t-87.5 150t-28.5 179
q0 477 621 477h10v2h477zM1497 733q2 196 -103 295.5t-313 99.5h-116v-827h116q204 0 310 117q106 115 106 315z" />
    <glyph glyph-name="Dcroat.swash" horiz-adv-x="2039" 
d="M1233 1427q346 0 545 -172q198 -172 198 -522q0 -354 -200 -543q-200 -190 -543 -190h-477v575h-156v269h156v293h-84q-102 0 -174 -18t-118 -53t-67.5 -88t-21.5 -122q0 -114 67 -187q66 -75 209 -75v-272q-153 0 -264.5 45t-177.5 122t-96.5 170.5t-30.5 202.5
q0 563 719 563h39v2h477zM1622 733q2 196 -101.5 295.5t-314.5 99.5h-116v-284h274v-269h-274v-274h116q204 0 310 117q106 115 106 315z" />
    <glyph glyph-name="E.swash" horiz-adv-x="1710" 
d="M1638 1128h-634v-260h483v-266h-483v-301h634v-301h-968v1137h-92q-148 0 -215.5 -49t-67.5 -148q0 -197 217 -197v-272q-136 0 -236.5 40t-159.5 108t-87.5 150t-28.5 179q0 99 28.5 179t94.5 152t189 109t298 37h60v2h968v-299z" />
    <glyph glyph-name="Eacute.swash" horiz-adv-x="1710" 
d="M1374 2001l-368 -426h-248l272 426h344zM1638 1128h-634v-260h483v-266h-483v-301h634v-301h-968v1137h-92q-148 0 -215.5 -49t-67.5 -148q0 -197 217 -197v-272q-136 0 -236.5 40t-159.5 108t-87.5 150t-28.5 179q0 99 28.5 179t94.5 152t189 109t298 37h60v2h968v-299z
" />
    <glyph glyph-name="Ecaron.swash" horiz-adv-x="1710" 
d="M1040 1575h-258l-274 471h248l155 -215l156 215h248zM1638 1128h-634v-260h483v-266h-483v-301h634v-301h-968v1137h-92q-148 0 -215.5 -49t-67.5 -148q0 -197 217 -197v-272q-136 0 -236.5 40t-159.5 108t-87.5 150t-28.5 179q0 99 28.5 179t94.5 152t189 109t298 37h60
v2h968v-299z" />
    <glyph glyph-name="Ecircumflex.swash" horiz-adv-x="1710" 
d="M897 1786l-156 -215h-247l274 471h258l274 -471h-247zM1638 1128h-634v-260h483v-266h-483v-301h634v-301h-968v1137h-92q-148 0 -215.5 -49t-67.5 -148q0 -197 217 -197v-272q-136 0 -236.5 40t-159.5 108t-87.5 150t-28.5 179q0 99 28.5 179t94.5 152t189 109t298 37
h60v2h968v-299z" />
    <glyph glyph-name="Edieresis.swash" horiz-adv-x="1710" 
d="M682 1595q-73 0 -122 52q-50 52 -50 123q0 70 50 123q50 51 122 51q73 0 122 -51q50 -53 50 -123q0 -71 -50 -123q-49 -52 -122 -52zM1120 1595q-72 0 -123 52q-51 51 -51 123q0 71 52 123q51 51 122 51q73 0 122 -51q50 -53 50 -124q0 -73 -50 -123q-49 -51 -122 -51z
M1638 1128h-634v-260h483v-266h-483v-301h634v-301h-968v1137h-92q-148 0 -215.5 -49t-67.5 -148q0 -197 217 -197v-272q-136 0 -236.5 40t-159.5 108t-87.5 150t-28.5 179q0 99 28.5 179t94.5 152t189 109t298 37h60v2h968v-299z" />
    <glyph glyph-name="Edotaccent.swash" horiz-adv-x="1710" 
d="M901 1595q-72 0 -123 52q-51 51 -51 124t51 125t123 52q74 0 125 -52t51 -125t-51 -124q-51 -52 -125 -52zM1638 1128h-634v-260h483v-266h-483v-301h634v-301h-968v1137h-92q-148 0 -215.5 -49t-67.5 -148q0 -197 217 -197v-272q-136 0 -236.5 40t-159.5 108t-87.5 150
t-28.5 179q0 99 28.5 179t94.5 152t189 109t298 37h60v2h968v-299z" />
    <glyph glyph-name="Egrave.swash" horiz-adv-x="1710" 
d="M1008 1575h-220l-282 453h313zM1638 1128h-634v-260h483v-266h-483v-301h634v-301h-968v1137h-92q-148 0 -215.5 -49t-67.5 -148q0 -197 217 -197v-272q-136 0 -236.5 40t-159.5 108t-87.5 150t-28.5 179q0 99 28.5 179t94.5 152t189 109t298 37h60v2h968v-299z" />
    <glyph glyph-name="Emacron.swash" horiz-adv-x="1710" 
d="M1264 1915v-264h-721v264h721zM1638 1128h-634v-260h483v-266h-483v-301h634v-301h-968v1137h-92q-148 0 -215.5 -49t-67.5 -148q0 -197 217 -197v-272q-136 0 -236.5 40t-159.5 108t-87.5 150t-28.5 179q0 99 28.5 179t94.5 152t189 109t298 37h60v2h968v-299z" />
    <glyph glyph-name="Eng.aalt" horiz-adv-x="1159" 
d="M745 1057l302 2v-1018q0 -211 -99.5 -319.5t-281.5 -108.5q-123 0 -203 39l57 270q48 -29 109 -28q104 0 116 102l-321 508v-504h-301v1057h301l321 -512v512z" />
    <glyph glyph-name="Eogonek.swash" horiz-adv-x="1710" 
d="M1589 -338l49 -207q-128 -66 -295 -65q-64 0 -113 17t-81.5 48t-49 74.5t-16.5 95.5q0 220 297 375h-710v1137h-92q-148 0 -215.5 -49t-67.5 -148q0 -197 217 -197v-272q-136 0 -236.5 40t-159.5 108t-87.5 150t-28.5 179q0 99 28.5 179t94.5 152t189 109t298 37h60v2
h968v-299h-634v-260h483v-266h-483v-301h634v-301h-12q-268 -145 -268 -291q0 -88 86 -88q74 0 145 41z" />
    <glyph glyph-name="Eth.swash" horiz-adv-x="2039" 
d="M1233 1427q346 0 545 -172q198 -172 198 -522q0 -354 -200 -543q-200 -190 -543 -190h-477v575h-156v269h156v293h-84q-102 0 -174 -18t-118 -53t-67.5 -88t-21.5 -122q0 -114 67 -187q66 -75 209 -75v-272q-153 0 -264.5 45t-177.5 122t-96.5 170.5t-30.5 202.5
q0 563 719 563h39v2h477zM1622 733q2 196 -101.5 295.5t-314.5 99.5h-116v-284h274v-269h-274v-274h116q204 0 310 117q106 115 106 315z" />
    <glyph glyph-name="F.swash" horiz-adv-x="1691" 
d="M1657 1126h-623v-276h471v-275h-471v-575h-334v1137h-106q-150 0 -217.5 -49.5t-67.5 -147.5q0 -197 232 -197v-272q-140 0 -244 40t-164 108q-61 68 -90 150t-29 179q0 99 29 179t94 152t183.5 109t289.5 37h90v2h957v-301z" />
    <glyph glyph-name="G.c2sc" horiz-adv-x="1175" 
d="M575 641h512v-594q-227 -74 -469 -74q-259 0 -408 145q-151 144 -151 408t158 411q158 146 418 146q255 0 430 -137l-186 -250q-97 74 -232 74q-58 0 -105 -17t-79.5 -48.5t-50 -76.5t-17.5 -102q0 -114 62 -176.5t180 -62.5q72 0 125 14v80h-187v260z" />
    <glyph glyph-name="G.salt" horiz-adv-x="1519" 
d="M727 848h703v-111q0 -194 -53 -342t-150 -241q-97 -94 -223 -140.5t-277 -46.5q-305 0 -489 199q-185 200 -185 545q0 351 198 550t525 199q172 0 316 -58q73 -29 130.5 -68.5t102.5 -88.5l-221 -239q-135 129 -330 129q-171 0 -275 -114q-104 -115 -104 -310
q0 -190 94 -302q93 -112 248 -112q69 0 127 17t103.5 51.5t76 85.5t43.5 118h-360v279z" />
    <glyph glyph-name="G.swash" horiz-adv-x="1400" 
d="M1319 121q2 -153 -31.5 -268t-90.5 -188q-28 -37 -62.5 -66.5t-76.5 -52.5q-84 -46 -172.5 -63.5t-197.5 -17.5q-89 0 -165.5 11t-140.5 30.5t-113.5 46t-84.5 56.5l111 285q140 -127 391 -127q296 0 303 276q-129 -45 -303 -45q-307 0 -484 184q-177 183 -177 535
q0 346 196 545q195 198 514 198q575 0 518 -635h-315q40 313 -227 314q-159 0 -250 -115q-92 -116 -92 -307q0 -189 95 -295q95 -105 265 -105q147 0 258 45l-2 250h332z" />
    <glyph glyph-name="Gbreve.c2sc" horiz-adv-x="1175" 
d="M635 1225q-198 0 -294.5 110t-84.5 330h246q-2 -113 26.5 -173t105.5 -60t105.5 60t26.5 173h246q12 -220 -83.5 -330t-293.5 -110zM575 641h512v-594q-227 -74 -469 -74q-259 0 -408 145q-151 144 -151 408t158 411q158 146 418 146q255 0 430 -137l-186 -250
q-97 74 -232 74q-58 0 -105 -17t-79.5 -48.5t-50 -76.5t-17.5 -102q0 -114 62 -176.5t180 -62.5q72 0 125 14v80h-187v260z" />
    <glyph glyph-name="Gbreve.salt" horiz-adv-x="1519" 
d="M764 1583q-198 0 -294.5 110t-84.5 328h246q-2 -111 26.5 -172t105.5 -61t105.5 61.5t26.5 171.5h246q12 -218 -83.5 -328t-293.5 -110zM727 848h703v-111q0 -194 -53 -342t-150 -241q-97 -94 -223 -140.5t-277 -46.5q-305 0 -489 199q-185 200 -185 545q0 351 198 550
t525 199q172 0 316 -58q73 -29 130.5 -68.5t102.5 -88.5l-221 -239q-135 129 -330 129q-171 0 -275 -114q-104 -115 -104 -310q0 -190 94 -302q93 -112 248 -112q69 0 127 17t103.5 51.5t76 85.5t43.5 118h-360v279z" />
    <glyph glyph-name="Gbreve.swash" horiz-adv-x="1400" 
d="M766 1583q-198 0 -294.5 110t-84.5 328h246q-2 -111 26.5 -172t105.5 -61t105.5 61.5t26.5 171.5h246q12 -218 -83.5 -328t-293.5 -110zM1319 121q2 -153 -31.5 -268t-90.5 -188q-28 -37 -62.5 -66.5t-76.5 -52.5q-84 -46 -172.5 -63.5t-197.5 -17.5q-89 0 -165.5 11
t-140.5 30.5t-113.5 46t-84.5 56.5l113 285q139 -127 389 -127q296 0 303 276q-129 -45 -303 -45q-307 0 -484 184q-177 183 -177 535q0 346 196 545q195 198 514 198q575 0 518 -635h-315q40 313 -227 314q-159 0 -250 -115q-92 -116 -92 -307q0 -189 95 -295
q95 -105 265 -105q147 0 258 45l-2 250h332z" />
    <glyph glyph-name="Gdotaccent.c2sc" horiz-adv-x="1175" 
d="M639 1237q-73 0 -126 51q-52 51 -52 125t52 126t126 52t125 -52t51 -126t-51 -125t-125 -51zM575 641h512v-594q-227 -74 -469 -74q-259 0 -408 145q-151 144 -151 408t158 411q158 146 418 146q255 0 430 -137l-186 -250q-97 74 -232 74q-58 0 -105 -17t-79.5 -48.5
t-50 -76.5t-17.5 -102q0 -114 62 -176.5t180 -62.5q72 0 125 14v80h-187v260z" />
    <glyph glyph-name="Gdotaccent.swash" horiz-adv-x="1400" 
d="M762 1595q-72 0 -123 52q-51 51 -51 124t51 125t123 52q74 0 125 -52t51 -125t-51 -124q-51 -52 -125 -52zM1319 121q2 -153 -31.5 -268t-90.5 -188q-28 -37 -62.5 -66.5t-76.5 -52.5q-84 -46 -172.5 -63.5t-197.5 -17.5q-89 0 -165.5 11t-140.5 30.5t-113.5 46
t-84.5 56.5l111 285q140 -127 391 -127q296 0 303 276q-129 -45 -303 -45q-307 0 -484 184q-177 183 -177 535q0 346 196 545q195 198 514 198q575 0 518 -635h-315q40 313 -227 314q-159 0 -250 -115q-92 -116 -92 -307q0 -189 95 -295q95 -105 265 -105q147 0 258 45
l-2 250h332z" />
    <glyph glyph-name="H.swash" horiz-adv-x="1953" 
d="M1487 1427h332v-1427h-332v578h-481v-578h-332v1137h-94q-150 0 -217.5 -49.5t-67.5 -143.5q0 -201 231 -201v-272q-140 0 -244 40t-164 108q-61 68 -89.5 151t-28.5 180q0 99 28.5 179.5t93.5 150.5t184 107.5t288 37.5h80v2h332v-544h481v544z" />
    <glyph glyph-name="Hbar.aalt" horiz-adv-x="1187" 
d="M1124 930v-228h-59v-702h-326v295h-290v-295h-326v702h-60v228h60v127h326v-127h290v127h326v-127h59zM739 553v149h-290v-149h290z" />
    <glyph glyph-name="I.c2sc" horiz-adv-x="571" 
d="M449 1057v-1057h-326v1057h326z" />
    <glyph glyph-name="I.swash" horiz-adv-x="1126" 
d="M659 1427h332v-1427h-332v1137h-67q-158 0 -227.5 -48.5t-69.5 -144.5q0 -201 231 -201v-272q-140 0 -244 40t-164 108q-61 68 -89.5 151t-28.5 180q0 99 28.5 179.5t94.5 150.5t188 107.5t297 37.5h51v2z" />
    <glyph glyph-name="Iacute.swash" horiz-adv-x="1126" 
d="M1307 2001l-367 -426h-248l271 426h344zM659 1425l332 2v-1427h-332v1137h-67q-158 0 -227.5 -48.5t-69.5 -144.5q0 -201 231 -201v-272q-140 0 -244 40t-164 108q-61 68 -89.5 151t-28.5 180q0 99 28.5 179.5t94.5 150.5t188 107.5t297 37.5h51z" />
    <glyph glyph-name="Icircumflex.swash" horiz-adv-x="1126" 
d="M831 1786l-155 -215h-250l276 471h256l277 -471h-250zM659 1425l332 2v-1427h-332v1137h-67q-158 0 -227.5 -48.5t-69.5 -144.5q0 -201 231 -201v-272q-140 0 -244 40t-164 108q-61 68 -89.5 151t-28.5 180q0 99 28.5 179.5t94.5 150.5t188 107.5t297 37.5h51z" />
    <glyph glyph-name="Idieresis.swash" horiz-adv-x="1126" 
d="M616 1595q-72 0 -123 52q-51 51 -51 123q0 71 52 123q51 51 122 51q73 0 122 -51q50 -53 50 -124q0 -73 -50 -123q-49 -51 -122 -51zM1053 1944q75 0 124 -51q50 -53 50 -124q0 -73 -50 -123q-51 -51 -124 -51t-122 52q-50 52 -50 123q0 70 50 123q50 51 122 51z
M659 1425l332 2v-1427h-332v1137h-67q-158 0 -227.5 -48.5t-69.5 -144.5q0 -201 231 -201v-272q-140 0 -244 40t-164 108q-61 68 -89.5 151t-28.5 180q0 99 28.5 179.5t94.5 150.5t188 107.5t297 37.5h51z" />
    <glyph glyph-name="Idotaccent.c2sc" horiz-adv-x="571" 
d="M167 1288q-52 51 -52 125t52 126t124 52q76 0 127 -52t51 -126t-51 -125t-127 -51q-71 0 -124 51zM449 1057v-1057h-326v1057h326z" />
    <glyph glyph-name="Idotaccent.swash" horiz-adv-x="1126" 
d="M836 1595q-74 0 -125 52q-52 51 -52 124t52 125q51 52 125 52q72 0 123 -52t51 -125t-51 -124q-51 -52 -123 -52zM659 1425l332 2v-1427h-332v1137h-67q-158 0 -227.5 -48.5t-69.5 -144.5q0 -201 231 -201v-272q-140 0 -244 40t-164 108q-61 68 -89.5 151t-28.5 180
q0 99 28.5 179.5t94.5 150.5t188 107.5t297 37.5h51z" />
    <glyph glyph-name="Igrave.swash" horiz-adv-x="1126" 
d="M942 1575h-219l-285 453h316zM659 1427h332v-1427h-332v1137h-67q-158 0 -227.5 -48.5t-69.5 -144.5q0 -201 231 -201v-272q-140 0 -244 40t-164 108q-61 68 -89.5 151t-28.5 180q0 99 28.5 179.5t94.5 150.5t188 107.5t297 37.5h51v2z" />
    <glyph glyph-name="Imacron.swash" horiz-adv-x="1126" 
d="M475 1915h721v-264h-721v264zM659 1425l332 2v-1427h-332v1137h-67q-158 0 -227.5 -48.5t-69.5 -144.5q0 -201 231 -201v-272q-140 0 -244 40t-164 108q-61 68 -89.5 151t-28.5 180q0 99 28.5 179.5t94.5 150.5t188 107.5t297 37.5h51z" />
    <glyph glyph-name="Iogonek.swash" horiz-adv-x="1126" 
d="M944 -324l47 -206q-124 -66 -295 -66q-63 0 -111.5 17t-81 48.5t-49 74.5t-16.5 96q0 211 269 360h-48v1137h-67q-158 0 -227.5 -48.5t-69.5 -144.5q0 -201 231 -201v-272q-140 0 -244 40t-164 108q-61 68 -89.5 151t-28.5 180q0 99 28.5 179.5t94.5 150.5t188 107.5
t297 37.5h51v2h332v-1427h-37q-244 -140 -243 -276q0 -88 88 -89q72 0 145 41z" />
    <glyph glyph-name="J.swash" horiz-adv-x="1218" 
d="M784 1427h334v-1169q0 -187 -45.5 -320t-130.5 -206q-85 -72 -184.5 -105t-225.5 -33q-241 0 -387 140q-145 141 -145 399q0 100 36 192.5t108 173.5t198 129t291 48v-277q-146 0 -235 -74q-89 -75 -89 -192q0 -109 54.5 -175.5t166.5 -68.5q117 -2 185.5 83t68.5 259
v906h-422v288h422v2z" />
    <glyph glyph-name="K.swash" horiz-adv-x="1824" 
d="M1413 0l-264 596l-148 -188v-408h-331v1137h-95q-147 0 -213.5 -49.5t-66.5 -147.5q0 -197 231 -197v-272q-140 0 -244 40t-164 108q-61 68 -89.5 150t-28.5 179q0 99 28.5 180.5t92.5 151.5q63 70 182.5 107.5t288.5 37.5h78v2h331v-550l410 550h385l-407 -524l417 -903
h-393z" />
    <glyph glyph-name="L.swash" horiz-adv-x="1548" 
d="M1008 301h524v-301h-858v1137h-99q-147 0 -213.5 -49.5t-66.5 -147.5q0 -197 231 -197v-272q-140 0 -244 40t-164 108q-61 68 -89.5 150t-28.5 179q0 99 28.5 180.5t92.5 151.5q63 70 182.5 107.5t288.5 37.5h82v2h334v-1126z" />
    <glyph glyph-name="Lacute.swash" horiz-adv-x="1548" 
d="M1323 2001l-367 -426h-247l272 426h342zM1008 301h524v-301h-858v1137h-99q-147 0 -213.5 -49.5t-66.5 -147.5q0 -197 231 -197v-272q-140 0 -244 40t-164 108q-61 68 -89.5 150t-28.5 179q0 99 28.5 180.5t92.5 151.5q63 70 182.5 107.5t288.5 37.5h82v2h334v-1126z" />
    <glyph glyph-name="Lcaron.swash" horiz-adv-x="1548" 
d="M989 1575h-256l-274 471h248l155 -215l156 215h248zM1008 301h524v-301h-858v1137h-99q-147 0 -213.5 -49.5t-66.5 -147.5q0 -197 231 -197v-272q-140 0 -244 40t-164 108q-61 68 -89.5 150t-28.5 179q0 99 28.5 180.5t92.5 151.5q63 70 182.5 107.5t288.5 37.5h82v2h334
v-1126z" />
    <glyph glyph-name="Lslash.swash" horiz-adv-x="1480" 
d="M938 301h524v-301h-858v399l-158 -86l-118 230l276 153v441h-92q-115 0 -173 -49t-58 -130q0 -89 65 -159l-235 -121q-111 134 -111 309q0 187 121 308q62 62 166.5 96t247.5 34h69v2h334v-548l236 129l135 -224l-371 -202v-281z" />
    <glyph glyph-name="M.swash" horiz-adv-x="2269" 
d="M2134 0h-322v838l-288 -736h-248l-291 742v-844h-307v1137h-103q-147 0 -213.5 -49.5t-66.5 -147.5q0 -197 231 -197v-272q-140 0 -244 40t-164 108q-61 68 -89.5 150t-28.5 179q0 99 28.5 180.5t92.5 151.5q63 70 182.5 107.5t288.5 37.5h86v2h395l344 -815l320 815h381
z" />
    <glyph glyph-name="N.swash" horiz-adv-x="1912" 
d="M1470 1427h308v-1427h-314l-497 803v-803h-310v1137h-82q-147 0 -213.5 -49.5t-66.5 -147.5q0 -197 231 -197v-272q-140 0 -244 40t-164 108q-61 68 -89.5 150t-28.5 179q0 99 28.5 179t92.5 152q63 72 182.5 109t288.5 37h65v2h224h88l501 -815v815z" />
    <glyph glyph-name="Nacute.swash" horiz-adv-x="1912" 
d="M1692 2001l-367 -426h-248l271 426h344zM1470 1427h308v-1427h-314l-497 803v-803h-310v1137h-82q-147 0 -213.5 -49.5t-66.5 -147.5q0 -197 231 -197v-272q-140 0 -244 40t-164 108q-61 68 -89.5 150t-28.5 179q0 99 28.5 179t92.5 152q63 72 182.5 109t288.5 37h65v2
h224h88l501 -815v815z" />
    <glyph glyph-name="Ncaron.swash" horiz-adv-x="1912" 
d="M1358 1575h-256l-277 471h250l156 -215l153 215h250zM1470 1427h308v-1427h-314l-497 803v-803h-310v1137h-82q-147 0 -213.5 -49.5t-66.5 -147.5q0 -197 231 -197v-272q-140 0 -244 40t-164 108q-61 68 -89.5 150t-28.5 179q0 99 28.5 179t92.5 152q63 72 182.5 109
t288.5 37h65v2h224h88l501 -815v815z" />
    <glyph glyph-name="Ntilde.swash" horiz-adv-x="1912" 
d="M1018 1507h-217q-19 436 207 437q55 0 99.5 -26t98.5 -71q78 -70 123 -69q68 0 66 159h217q19 -436 -217 -436q-85 0 -203 92q-2 2 -4 4.5t-4 4.5q-73 61 -103 61q-64 0 -63 -156zM1470 1427h308v-1427h-314l-497 803v-803h-310v1137h-82q-147 0 -213.5 -49.5
t-66.5 -147.5q0 -197 231 -197v-272q-140 0 -244 40t-164 108q-61 68 -89.5 150t-28.5 179q0 99 28.5 179t92.5 152q63 72 182.5 109t288.5 37h65v2h224h88l501 -815v815z" />
    <glyph glyph-name="O.swash" horiz-adv-x="1548" 
d="M1501 672q8 -314 -193 -510q-202 -197 -534 -195q-334 1 -528 201q-195 200 -195 549q0 344 203 544q202 199 520 199q214 0 317 -108q103 -109 103 -281v-22l94 77q46 -31 84.5 -76.5t66.5 -103t44 -126.5t18 -148zM774 289q177 0 280 100t103 244q0 102 -41 176
q-136 -193 -479 -193l4 275q78 0 145 34q66 33 66 101q0 54 -37 83.5t-98 29.5q-138 0 -226 -112q-90 -112 -90 -292q0 -208 102 -327q101 -119 271 -119z" />
    <glyph glyph-name="OE.aalt" horiz-adv-x="1660" 
d="M1597 780h-464v-155h342v-172h-342v-174h464v-279h-774q-100 -27 -209 -27q-251 0 -403 143t-152 412q0 268 157 415q158 147 398 147q104 0 209 -33h774v-277zM468 705q-67 -66 -67 -175q0 -111 67 -175q68 -66 175 -66t174 43v399q-72 39 -174 39q-108 0 -175 -65z" />
    <glyph glyph-name="Oacute.swash" horiz-adv-x="1548" 
d="M1262 2001l-367 -426h-248l273 426h342zM1501 672q8 -314 -193 -510q-202 -197 -534 -195q-334 1 -528 201q-195 200 -195 549q0 344 203 544q202 199 520 199q214 0 317 -108q103 -109 103 -281v-22l94 77q46 -31 84.5 -76.5t66.5 -103t44 -126.5t18 -148zM774 289
q177 0 280 100t103 244q0 102 -41 176q-136 -193 -479 -193l4 275q78 0 145 34q66 33 66 101q0 54 -37 83.5t-98 29.5q-138 0 -226 -112q-90 -112 -90 -292q0 -208 102 -327q101 -119 271 -119z" />
    <glyph glyph-name="Ocircumflex.swash" horiz-adv-x="1548" 
d="M786 1786l-155 -215h-248l274 471h256l277 -471h-248zM1501 672q8 -314 -193 -510q-202 -197 -534 -195q-334 1 -528 201q-195 200 -195 549q0 344 203 544q202 199 520 199q214 0 317 -108q103 -109 103 -281v-22l94 77q46 -31 84.5 -76.5t66.5 -103t44 -126.5t18 -148z
M774 289q177 0 280 100t103 244q0 102 -41 176q-136 -193 -479 -193l4 275q78 0 145 34q66 33 66 101q0 54 -37 83.5t-98 29.5q-138 0 -226 -112q-90 -112 -90 -292q0 -208 102 -327q101 -119 271 -119z" />
    <glyph glyph-name="Odieresis.swash" horiz-adv-x="1548" 
d="M571 1595q-72 0 -123 52q-51 51 -51 123q0 71 52 123q51 51 122 51q73 0 122 -51q50 -53 50 -123q0 -71 -50 -123q-49 -52 -122 -52zM1008 1595q-70 0 -121 52q-51 51 -51 123q0 71 51 123q51 51 121 51q75 0 124 -51q50 -53 50 -124q0 -73 -50 -123q-49 -51 -124 -51z
M1501 672q8 -314 -193 -510q-202 -197 -534 -195q-334 1 -528 201q-195 200 -195 549q0 344 203 544q202 199 520 199q214 0 317 -108q103 -109 103 -281v-22l94 77q46 -31 84.5 -76.5t66.5 -103t44 -126.5t18 -148zM774 289q177 0 280 100t103 244q0 102 -41 176
q-136 -193 -479 -193l4 275q78 0 145 34q66 33 66 101q0 54 -37 83.5t-98 29.5q-138 0 -226 -112q-90 -112 -90 -292q0 -208 102 -327q101 -119 271 -119z" />
    <glyph glyph-name="Ograve.swash" horiz-adv-x="1548" 
d="M897 1575h-219l-283 453h314zM1501 672q8 -314 -193 -510q-202 -197 -534 -195q-334 1 -528 201q-195 200 -195 549q0 344 203 544q202 199 520 199q214 0 317 -108q103 -109 103 -281v-22l94 77q46 -31 84.5 -76.5t66.5 -103t44 -126.5t18 -148zM774 289q177 0 280 100
t103 244q0 102 -41 176q-136 -193 -479 -193l4 275q78 0 145 34q66 33 66 101q0 54 -37 83.5t-98 29.5q-138 0 -226 -112q-90 -112 -90 -292q0 -208 102 -327q101 -119 271 -119z" />
    <glyph glyph-name="Ohungarumlaut.swash" horiz-adv-x="1548" 
d="M915 2028l-213 -453h-192l102 453h303zM1049 1575h-218l246 453h316zM1501 672q8 -314 -193 -510q-202 -197 -534 -195q-334 1 -528 201q-195 200 -195 549q0 344 203 544q202 199 520 199q214 0 317 -108q103 -109 103 -281v-22l94 77q46 -31 84.5 -76.5t66.5 -103
t44 -126.5t18 -148zM774 289q177 0 280 100t103 244q0 102 -41 176q-136 -193 -479 -193l4 275q78 0 145 34q66 33 66 101q0 54 -37 83.5t-98 29.5q-138 0 -226 -112q-90 -112 -90 -292q0 -208 102 -327q101 -119 271 -119z" />
    <glyph glyph-name="Omacron.swash" horiz-adv-x="1548" 
d="M1151 1915v-264h-721v264h721zM1501 672q8 -314 -193 -510q-202 -197 -534 -195q-334 1 -528 201q-195 200 -195 549q0 344 203 544q202 199 520 199q214 0 317 -108q103 -109 103 -281v-22l94 77q46 -31 84.5 -76.5t66.5 -103t44 -126.5t18 -148zM774 289q177 0 280 100
t103 244q0 102 -41 176q-136 -193 -479 -193l4 275q78 0 145 34q66 33 66 101q0 54 -37 83.5t-98 29.5q-138 0 -226 -112q-90 -112 -90 -292q0 -208 102 -327q101 -119 271 -119z" />
    <glyph glyph-name="Oslash.aalt" horiz-adv-x="1310" 
d="M1266 956l-109 -112q88 -133 88 -316q0 -260 -160 -407q-160 -148 -430 -148q-156 0 -276 52l-82 -86l-250 163l105 109q-84 134 -84 317q0 258 164 407q163 148 423 148q151 0 277 -53l84 90zM393 528q0 -31 6 -57l301 315q-11 1 -22.5 1.5t-22.5 0.5q-124 0 -193 -69.5
t-69 -190.5zM918 528q0 16 -1.5 30t-3.5 28l-299 -314q10 -1 20 -1.5t21 -0.5q62 0 110.5 18t82.5 51.5t52 81t18 107.5z" />
    <glyph glyph-name="Otilde.swash" horiz-adv-x="1548" 
d="M590 1507h-217q-19 436 207 437q55 0 100 -26t96 -71q78 -70 123 -69q70 0 68 159h217q18 -436 -217 -436q-86 0 -205 92q-1 4 -8 9q-71 61 -103 61q-62 0 -61 -156zM1501 672q8 -314 -193 -510q-202 -197 -534 -195q-334 1 -528 201q-195 200 -195 549q0 344 203 544
q202 199 520 199q214 0 317 -108q103 -109 103 -281v-22l94 77q46 -31 84.5 -76.5t66.5 -103t44 -126.5t18 -148zM774 289q177 0 280 100t103 244q0 102 -41 176q-136 -193 -479 -193l4 275q78 0 145 34q66 33 66 101q0 54 -37 83.5t-98 29.5q-138 0 -226 -112
q-90 -112 -90 -292q0 -208 102 -327q101 -119 271 -119z" />
    <glyph glyph-name="P.swash" horiz-adv-x="1738" 
d="M1204 1427q504 0 504 -460q0 -118 -34 -206t-98.5 -146.5t-157.5 -87.5t-212 -29h-239v-498h-332v1137h-60q-147 0 -213.5 -49.5t-66.5 -147.5q0 -197 231 -197v-272q-140 0 -244 40t-164 108q-61 68 -89.5 150t-28.5 179q0 99 28.5 180.5t92.5 151.5q63 70 182.5 107.5
t288.5 37.5h43v2h569zM1171 791q91 0 140 44.5t49 129.5q0 163 -189 161h-204v-335h204z" />
    <glyph glyph-name="Q.salt" horiz-adv-x="1548" 
d="M1497 717q0 -358 -209 -561l158 -201l-248 -201l-190 244q-108 -31 -234 -31q-326 0 -524 201q-199 200 -199 549q0 344 203 544q202 199 520 199q104 0 197 -21.5t173 -64.5t145 -107t113 -150q95 -172 95 -400zM401 717q0 -196 102 -312q101 -116 271 -116
q172 0 273 116q100 115 100 312q0 194 -101 309q-102 113 -272 113t-271 -113q-102 -114 -102 -309z" />
    <glyph glyph-name="Q.swash" horiz-adv-x="1548" 
d="M1481 -84l24 -295q-110 -49 -239 -49q-96 0 -198 31q-104 31 -181 69q-38 19 -79 35.5t-86 32.5q-87 31 -155 31q-137 0 -317 -93l-19 289q110 50 209 66q-187 82 -288 257.5t-101 426.5q0 344 203 544q202 199 520 199q214 0 317 -108q103 -109 103 -281v-22l94 77
q46 -31 84.5 -76.5t66.5 -103.5t44 -127t18 -147q6 -285 -159 -475q-167 -191 -451 -224q11 -5 33.5 -15t56.5 -25q33 -14 57 -24.5l40 -17.5q15 -6 36 -12t47 -13q51 -13 99 -13q119 0 221 63zM717 1139q-138 0 -226 -112q-90 -112 -90 -292q0 -208 102 -327
q101 -119 271 -119q177 0 280 100t103 244q0 102 -41 176q-136 -193 -479 -193l4 275q78 0 145 34q66 33 66 101q0 54 -37 83.5t-98 29.5z" />
    <glyph glyph-name="R.swash" horiz-adv-x="1849" 
d="M1407 0l-260 528h-154v-528h-334v1137h-84q-147 0 -213.5 -49.5t-66.5 -147.5q0 -197 231 -197v-272q-140 0 -244 40t-164 108q-61 68 -89.5 150t-28.5 179q0 99 28.5 180.5t92.5 151.5q63 70 182.5 107.5t288.5 37.5h67v2h590q117 0 208 -28.5t153.5 -84t95.5 -138.5
t33 -193q0 -142 -65.5 -249t-186.5 -161l313 -573h-393zM993 1126v-329h221q81 0 129 43t48 124t-48.5 121.5t-130.5 40.5h-219z" />
    <glyph glyph-name="Racute.swash" horiz-adv-x="1849" 
d="M1657 2001l-367 -426h-248l273 426h342zM1407 0l-260 528h-154v-528h-334v1137h-84q-147 0 -213.5 -49.5t-66.5 -147.5q0 -197 231 -197v-272q-140 0 -244 40t-164 108q-61 68 -89.5 150t-28.5 179q0 99 28.5 180.5t92.5 151.5q63 70 182.5 107.5t288.5 37.5h67v2h590
q117 0 208 -28.5t153.5 -84t95.5 -138.5t33 -193q0 -142 -65.5 -249t-186.5 -161l313 -573h-393zM993 1126v-329h221q81 0 129 43t48 124t-48.5 121.5t-130.5 40.5h-219z" />
    <glyph glyph-name="Rcaron.swash" horiz-adv-x="1849" 
d="M1323 1575h-256l-274 471h247l156 -215l156 215h247zM1407 0l-260 528h-154v-528h-334v1137h-84q-147 0 -213.5 -49.5t-66.5 -147.5q0 -197 231 -197v-272q-140 0 -244 40t-164 108q-61 68 -89.5 150t-28.5 179q0 99 28.5 180.5t92.5 151.5q63 70 182.5 107.5t288.5 37.5
h67v2h590q117 0 208 -28.5t153.5 -84t95.5 -138.5t33 -193q0 -142 -65.5 -249t-186.5 -161l313 -573h-393zM993 1126v-329h221q81 0 129 43t48 124t-48.5 121.5t-130.5 40.5h-219z" />
    <glyph glyph-name="S.swash" horiz-adv-x="1159" 
d="M567 -322q-253 0 -405 149q-153 151 -154 443l307 54q-4 -174 66 -259t197 -85q97 0 151.5 44t54.5 123q0 88 -56 147q-28 29 -73.5 61t-109.5 67q-108 57 -188.5 119.5t-133 134.5t-78.5 154t-26 178q0 205 129 328q130 122 370 122q57 0 111.5 -9t103.5 -29.5t91 -53
t73 -79.5q42 -62 59 -159t3 -221l-297 2q16 113 -23 179.5t-131 66.5q-72 0 -113.5 -42t-41.5 -112q0 -83 61 -144q31 -31 82.5 -66.5t126.5 -75.5q92 -49 159.5 -99t124.5 -118q113 -136 113 -344q0 -219 -148 -348q-149 -128 -405 -128z" />
    <glyph glyph-name="Sacute.swash" horiz-adv-x="1159" 
d="M1081 2001l-368 -426h-248l272 426h344zM567 -322q-253 0 -405 149q-153 151 -154 443l307 54q-4 -174 66 -259t197 -85q97 0 151.5 44t54.5 123q0 88 -56 147q-28 29 -73.5 61t-109.5 67q-108 57 -188.5 119.5t-133 134.5t-78.5 154t-26 178q0 205 129 328
q130 122 370 122q57 0 111.5 -9t103.5 -29.5t91 -53t73 -79.5q42 -62 59 -159t3 -221l-297 2q16 113 -23 179.5t-131 66.5q-72 0 -113.5 -42t-41.5 -112q0 -83 61 -144q31 -31 82.5 -66.5t126.5 -75.5q92 -49 159.5 -99t124.5 -118q113 -136 113 -344q0 -219 -148 -348
q-149 -128 -405 -128z" />
    <glyph glyph-name="Scaron.swash" horiz-adv-x="1159" 
d="M745 1575h-256l-274 471h248l155 -215l156 215h248zM723 715q92 -49 159.5 -99t124.5 -118q113 -136 113 -344q0 -219 -148 -348q-149 -128 -405 -128q-253 0 -405 149q-153 151 -154 443l307 54q-4 -174 66 -259t197 -85q97 0 151.5 44t54.5 123q0 88 -56 147
q-28 29 -73.5 61t-109.5 67q-108 57 -188.5 119.5t-133 134.5t-78.5 154t-26 178q0 205 129 328q130 122 370 122q57 0 111.5 -9t103.5 -29.5t91 -53t73 -79.5q42 -62 59 -159t3 -221l-297 2q16 113 -23 179.5t-131 66.5q-72 0 -113.5 -42t-41.5 -112q0 -82 62 -144
q31 -31 82.5 -66.5t125.5 -75.5z" />
    <glyph glyph-name="Scedilla.c2sc" horiz-adv-x="894" 
d="M846 307q0 -76 -22.5 -135t-64.5 -100.5t-102 -66.5t-135 -34l-49 -106q45 14 88 14q94 0 148.5 -54t54.5 -157q0 -133 -86 -200.5t-238 -67.5t-260 72l72 166q18 -15 72 -38q56 -24 110 -24q111 0 111 84q0 31 -17.5 49.5t-50.5 18.5q-49 0 -82 -39l-145 49l86 233
q-166 13 -297 88l98 267q116 -90 273 -90q49 0 76.5 19t27.5 54t-27 51.5t-90 32.5q-330 71 -329 363q0 78 25.5 140.5t76.5 106t127 66.5t176 23q227 0 381 -84l-127 -263q-101 70 -240 70q-90 0 -90 -63q0 -37 30 -56.5t93 -38.5q158 -41 242 -125t84 -225z" />
    <glyph glyph-name="T.swash" horiz-adv-x="1490" 
d="M1468 1425v-303h-340v-1122h-333v1122h-220q-147 0 -213.5 -53t-66.5 -160q0 -209 246 -209v-272q-144 0 -251 41t-169 111q-62 69 -91.5 152.5t-29.5 182.5q0 106 28.5 192.5t92.5 161.5q63 75 182.5 115.5t288.5 40.5h876z" />
    <glyph glyph-name="Tbar.aalt" horiz-adv-x="1490" 
d="M1468 1122h-340v-458h215v-271h-215v-393h-333v393h-215v271h215v458h-260q-254 0 -254 -176q0 -158 196 -158v-272q-130 0 -227 36t-153 99q-111 125 -111 301q0 99 30.5 179.5t98.5 149.5t189 106.5t290 37.5h874v-303z" />
    <glyph glyph-name="Tcaron.swash" horiz-adv-x="1490" 
d="M1100 1575h-256l-277 471h250l156 -215l153 215h250zM1468 1425v-303h-340v-1122h-333v1122h-220q-147 0 -213.5 -53t-66.5 -160q0 -209 246 -209v-272q-144 0 -251 41t-169 111q-62 69 -91.5 152.5t-29.5 182.5q0 106 28.5 192.5t92.5 161.5q63 75 182.5 115.5
t288.5 40.5h876z" />
    <glyph glyph-name="Thorn.aalt" horiz-adv-x="1034" 
d="M561 915q416 0 416 -362q0 -94 -28 -163t-80.5 -114.5t-129 -67.5t-174.5 -22h-116v-186h-326v1057h326v-142h112zM553 442q57 0 88 29.5t31 77.5q0 100 -121 100h-102v-207h104z" />
    <glyph glyph-name="U.swash" horiz-adv-x="1902" 
d="M1475 1427h331v-829q0 -305 -151 -468t-422 -163q-267 0 -422 165q-154 164 -154 466v539h-82q-147 0 -213.5 -49.5t-66.5 -147.5q0 -197 231 -197v-272q-140 0 -244 40t-164 108q-61 68 -89.5 150t-28.5 179q0 99 28.5 180.5t92.5 151.5q63 70 182.5 107.5t288.5 37.5
h65v2h332v-849q0 -134 66 -214q64 -79 178 -79q115 0 178.5 77t63.5 216v849z" />
    <glyph glyph-name="Uacute.swash" horiz-adv-x="1902" 
d="M1724 2001l-366 -426h-248l270 426h344zM1475 1427h331v-829q0 -305 -151 -468t-422 -163q-267 0 -422 165q-154 164 -154 466v539h-82q-147 0 -213.5 -49.5t-66.5 -147.5q0 -197 231 -197v-272q-140 0 -244 40t-164 108q-61 68 -89.5 150t-28.5 179q0 99 28.5 180.5
t92.5 151.5q63 70 182.5 107.5t288.5 37.5h65v2h332v-849q0 -134 66 -214q64 -79 178 -79q115 0 178.5 77t63.5 216v849z" />
    <glyph glyph-name="Ucircumflex.swash" horiz-adv-x="1902" 
d="M1247 1786l-153 -215h-250l276 471h256l275 -471h-248zM1475 1427h331v-829q0 -305 -151 -468t-422 -163q-267 0 -422 165q-154 164 -154 466v539h-82q-147 0 -213.5 -49.5t-66.5 -147.5q0 -197 231 -197v-272q-140 0 -244 40t-164 108q-61 68 -89.5 150t-28.5 179
q0 99 28.5 180.5t92.5 151.5q63 70 182.5 107.5t288.5 37.5h65v2h332v-849q0 -134 66 -214q64 -79 178 -79q115 0 178.5 77t63.5 216v849z" />
    <glyph glyph-name="Udieresis.swash" horiz-adv-x="1902" 
d="M1032 1595q-73 0 -122 52q-50 52 -50 123t51 123q50 51 121 51q75 0 124 -51q50 -53 50 -123q0 -71 -50 -123q-49 -52 -124 -52zM1470 1595q-72 0 -123 52q-51 51 -51 123q0 71 52 123q51 51 122 51q72 0 124 -51q51 -52 51 -124q0 -73 -51 -123q-52 -51 -124 -51z
M1475 1427h331v-829q0 -305 -151 -468t-422 -163q-267 0 -422 165q-154 164 -154 466v539h-82q-147 0 -213.5 -49.5t-66.5 -147.5q0 -197 231 -197v-272q-140 0 -244 40t-164 108q-61 68 -89.5 150t-28.5 179q0 99 28.5 180.5t92.5 151.5q63 70 182.5 107.5t288.5 37.5h65v2
h332v-849q0 -134 66 -214q64 -79 178 -79q115 0 178.5 77t63.5 216v849z" />
    <glyph glyph-name="Ugrave.swash" horiz-adv-x="1902" 
d="M1360 1575h-219l-285 453h315zM1475 1427h331v-829q0 -305 -151 -468t-422 -163q-267 0 -422 165q-154 164 -154 466v539h-82q-147 0 -213.5 -49.5t-66.5 -147.5q0 -197 231 -197v-272q-140 0 -244 40t-164 108q-61 68 -89.5 150t-28.5 179q0 99 28.5 180.5t92.5 151.5
q63 70 182.5 107.5t288.5 37.5h65v2h332v-849q0 -134 66 -214q64 -79 178 -79q115 0 178.5 77t63.5 216v849z" />
    <glyph glyph-name="Uhungarumlaut.swash" horiz-adv-x="1902" 
d="M1376 2028l-211 -453h-194l102 453h303zM1509 1575h-217l248 453h313zM1475 578v849h331v-829q0 -305 -151 -468t-422 -163q-267 0 -422 165q-154 164 -154 466v539h-82q-147 0 -213.5 -49.5t-66.5 -147.5q0 -197 231 -197v-272q-140 0 -244 40t-164 108
q-61 68 -89.5 150t-28.5 179q0 99 28.5 180.5t92.5 151.5q63 70 182.5 107.5t288.5 37.5h65v2h332v-849q0 -134 66 -214q64 -79 178 -79q115 0 178.5 77.5t63.5 215.5z" />
    <glyph glyph-name="Umacron.swash" horiz-adv-x="1902" 
d="M1614 1915v-264h-721v264h721zM1475 1427h331v-829q0 -305 -151 -468t-422 -163q-267 0 -422 165q-154 164 -154 466v539h-82q-147 0 -213.5 -49.5t-66.5 -147.5q0 -197 231 -197v-272q-140 0 -244 40t-164 108q-61 68 -89.5 150t-28.5 179q0 99 28.5 180.5t92.5 151.5
q63 70 182.5 107.5t288.5 37.5h65v2h332v-849q0 -134 66 -214q64 -79 178 -79q115 0 178.5 77t63.5 216v849z" />
    <glyph glyph-name="Uogonek.swash" horiz-adv-x="1902" 
d="M1475 1427h331v-829q0 -229 -85.5 -377.5t-243.5 -212.5q-250 -139 -250 -278q0 -88 88 -88q75 0 145 41l49 -207q-127 -66 -295 -66q-64 0 -113 17t-81.5 48.5t-49 74.5t-16.5 96q0 183 209 323q-238 22 -372 186q-134 163 -134 443v539h-82q-147 0 -213.5 -49.5
t-66.5 -147.5q0 -197 231 -197v-272q-140 0 -244 40t-164 108q-61 68 -89.5 150t-28.5 179q0 99 28.5 180.5t92.5 151.5q63 70 182.5 107.5t288.5 37.5h65v2h332v-849q0 -134 66 -214q64 -79 178 -79q115 0 178.5 77t63.5 216v849z" />
    <glyph glyph-name="Uring.swash" horiz-adv-x="1902" 
d="M1251 1559q-66 0 -118 19t-88 53.5t-55 84.5t-19 111q0 124 75 197q73 73 205 73q131 0 207 -75q76 -76 76 -195q0 -120 -76 -193q-76 -75 -207 -75zM1324 1906q-29 29 -73 29q-45 0 -72 -29q-28 -29 -28 -79q0 -49 28 -77q27 -28 72 -28t73 28t28 77q0 50 -28 79z
M1475 1427h331v-829q0 -305 -151 -468t-422 -163q-267 0 -422 165q-154 164 -154 466v539h-82q-147 0 -213.5 -49.5t-66.5 -147.5q0 -197 231 -197v-272q-140 0 -244 40t-164 108q-61 68 -89.5 150t-28.5 179q0 99 28.5 180.5t92.5 151.5q63 70 182.5 107.5t288.5 37.5h65v2
h332v-849q0 -134 66 -214q64 -79 178 -79q115 0 178.5 77t63.5 216v849z" />
    <glyph glyph-name="V.swash" horiz-adv-x="1890" 
d="M1520 1427h344l-471 -1427h-389l-342 1137h-87q-147 0 -213.5 -51.5t-66.5 -151.5q0 -203 256 -203v-272q-146 0 -255 40t-172 110q-63 69 -93.5 151.5t-30.5 181.5t27.5 180.5t90.5 151.5q63 69 178 109t277 42v2h357l227 -839q17 -79 30 -141.5t21 -108.5
q14 66 29.5 131.5t32.5 132.5z" />
    <glyph glyph-name="W.c2sc" horiz-adv-x="1615" 
d="M1237 1059l332 -2l-246 -1057h-371l-94 330q-14 57 -27.5 119t-27.5 131q-17 -78 -31 -140t-27 -110l-102 -330h-373l-223 1057l346 2l76 -486q1 -29 3 -89t5 -154q13 73 25 133t24 108l140 471h303l118 -452q19 -88 31 -150.5t19 -101.5q3 48 6.5 109t7.5 137z" />
    <glyph glyph-name="W.salt" horiz-adv-x="2179" 
d="M1837 1427h340l-571 -1427h-342l-191 457l-209 -457h-342l-522 1427h358l359 -1056l203 454l-250 602h340l86 -208l92 206h330l-267 -581l191 -465z" />
    <glyph glyph-name="W.swash" horiz-adv-x="2490" 
d="M2122 1427h340l-326 -1427h-385l-168 631q-26 91 -57 250q-20 -82 -35.5 -144.5t-26.5 -105.5l-184 -631h-385l-233 1137h-87q-144 0 -210 -51.5t-66 -151.5q0 -209 246 -209v-272q-144 0 -250.5 41t-167.5 111q-61 69 -91 153.5t-30 183.5q0 100 27.5 181.5t91.5 153.5
q63 72 181.5 110t285.5 38h10v2h359l122 -817q0 -3 2.5 -25.5t7.5 -64.5t8 -73.5t5 -53.5q14 69 25.5 123t21.5 94l231 809h312l205 -788q14 -57 26 -113.5t21 -114.5q27 175 30 224z" />
    <glyph glyph-name="Wacute.c2sc" horiz-adv-x="1615" 
d="M1169 1659l-270 -451h-217l174 451h313zM1237 1059l332 -2l-246 -1057h-371l-94 330q-14 57 -27.5 119t-27.5 131q-17 -78 -31 -140t-27 -110l-102 -330h-373l-223 1057l346 2l76 -486q1 -29 3 -89t5 -154q13 73 25 133t24 108l140 471h303l118 -452q19 -88 31 -150.5
t19 -101.5q3 48 6.5 109t7.5 137z" />
    <glyph glyph-name="Wacute.swash" horiz-adv-x="2490" 
d="M2005 2001l-369 -426h-247l272 426h344zM2122 1427h340l-326 -1427h-385l-168 631q-26 91 -57 250q-20 -82 -35.5 -144.5t-26.5 -105.5l-184 -631h-385l-233 1137h-87q-144 0 -210 -51.5t-66 -151.5q0 -209 246 -209v-272q-144 0 -250.5 41t-167.5 111q-61 69 -91 153.5
t-30 183.5q0 100 27.5 181.5t91.5 153.5q63 72 181.5 110t285.5 38h10v2h359l122 -817q0 -3 2.5 -25.5t7.5 -64.5t8 -73.5t5 -53.5q14 69 25.5 123t21.5 94l231 809h312l205 -788q14 -57 26 -113.5t21 -114.5q27 175 30 224z" />
    <glyph glyph-name="Wcircumflex.c2sc" horiz-adv-x="1615" 
d="M807 1442l-156 -234h-219l248 457h256l248 -457h-219zM1237 1059l332 -2l-246 -1057h-371l-94 330q-14 57 -27.5 119t-27.5 131q-17 -78 -31 -140t-27 -110l-102 -330h-373l-223 1057l346 2l76 -486q1 -29 3 -89t5 -154q13 73 25 133t24 108l140 471h303l118 -452
q19 -88 31 -150.5t19 -101.5q3 48 6.5 109t7.5 137z" />
    <glyph glyph-name="Wcircumflex.swash" horiz-adv-x="2490" 
d="M1528 1786l-156 -215h-248l275 471h258l274 -471h-248zM2122 1427h340l-326 -1427h-385l-168 631q-26 91 -57 250q-20 -82 -35.5 -144.5t-26.5 -105.5l-184 -631h-385l-233 1137h-87q-144 0 -210 -51.5t-66 -151.5q0 -209 246 -209v-272q-144 0 -250.5 41t-167.5 111
q-61 69 -91 153.5t-30 183.5q0 100 27.5 181.5t91.5 153.5q63 72 181.5 110t285.5 38h10v2h359l122 -817q0 -3 2.5 -25.5t7.5 -64.5t8 -73.5t5 -53.5q14 69 25.5 123t21.5 94l231 809h312l205 -788q14 -57 26 -113.5t21 -114.5q27 175 30 224z" />
    <glyph glyph-name="Wdieresis.c2sc" horiz-adv-x="1615" 
d="M580 1278q-69 0 -121 50q-51 50 -51 122t51 123t121 51q73 0 122 -51q50 -52 50 -123q0 -72 -50 -122t-122 -50zM1036 1278q-72 0 -122 50t-50 122t51 123q50 51 121 51q73 0 122 -51q50 -52 50 -123q0 -72 -50 -122t-122 -50zM1237 1059l332 -2l-246 -1057h-371l-94 330
q-14 57 -27.5 119t-27.5 131q-17 -78 -31 -140t-27 -110l-102 -330h-373l-223 1057l346 2l76 -486q1 -29 3 -89t5 -154q13 73 25 133t24 108l140 471h303l118 -452q19 -88 31 -150.5t19 -101.5q3 48 6.5 109t7.5 137z" />
    <glyph glyph-name="Wdieresis.swash" horiz-adv-x="2490" 
d="M1313 1595q-72 0 -123 52q-51 51 -51 123q0 71 51 123q51 51 123 51q73 0 122 -51q50 -53 50 -123q0 -71 -50 -123q-49 -52 -122 -52zM1751 1595q-72 0 -123 52q-51 51 -51 123q0 71 51 123q51 51 123 51q73 0 122 -51q50 -53 50 -124q0 -73 -50 -123q-49 -51 -122 -51z
M2122 1427h340l-326 -1427h-385l-168 631q-26 91 -57 250q-20 -82 -35.5 -144.5t-26.5 -105.5l-184 -631h-385l-233 1137h-87q-144 0 -210 -51.5t-66 -151.5q0 -209 246 -209v-272q-144 0 -250.5 41t-167.5 111q-61 69 -91 153.5t-30 183.5q0 100 27.5 181.5t91.5 153.5
q63 72 181.5 110t285.5 38h10v2h359l122 -817q0 -3 2.5 -25.5t7.5 -64.5t8 -73.5t5 -53.5q14 69 25.5 123t21.5 94l231 809h312l205 -788q14 -57 26 -113.5t21 -114.5q27 175 30 224z" />
    <glyph glyph-name="Wgrave.c2sc" horiz-adv-x="1615" 
d="M928 1208h-217l-271 451h314zM1237 1059l332 -2l-246 -1057h-371l-94 330q-14 57 -27.5 119t-27.5 131q-17 -78 -31 -140t-27 -110l-102 -330h-373l-223 1057l346 2l76 -486q1 -29 3 -89t5 -154q13 73 25 133t24 108l140 471h303l118 -452q19 -88 31 -150.5t19 -101.5
q3 48 6.5 109t7.5 137z" />
    <glyph glyph-name="Wgrave.swash" horiz-adv-x="2490" 
d="M1638 1575h-219l-282 453h313zM2122 1427h340l-326 -1427h-385l-168 631q-26 91 -57 250q-20 -82 -35.5 -144.5t-26.5 -105.5l-184 -631h-385l-233 1137h-87q-144 0 -210 -51.5t-66 -151.5q0 -209 246 -209v-272q-144 0 -250.5 41t-167.5 111q-61 69 -91 153.5t-30 183.5
q0 100 27.5 181.5t91.5 153.5q63 72 181.5 110t285.5 38h10v2h359l122 -817q0 -3 2.5 -25.5t7.5 -64.5t8 -73.5t5 -53.5q14 69 25.5 123t21.5 94l231 809h312l205 -788q14 -57 26 -113.5t21 -114.5q27 175 30 224z" />
    <glyph glyph-name="X.swash" horiz-adv-x="1769" 
d="M1743 0h-363l-252 535l-237 -535h-367l391 743l-213 394h-127q-147 0 -213.5 -49.5t-66.5 -147.5q0 -197 231 -197v-272q-140 0 -244 40t-164 108q-61 68 -89.5 150t-28.5 178t26.5 174.5t86.5 147.5t168.5 109.5t263.5 46.5v2h313h49l234 -495l223 495h358l-360 -679z
" />
    <glyph glyph-name="Y.c2sc" horiz-adv-x="1071" 
d="M1034 1057l-332 -719v-338h-323v324l-340 733h352l148 -441l145 441h350z" />
    <glyph glyph-name="Y.swash" horiz-adv-x="1724" 
d="M1741 1427q-308 -523 -471 -919v-508h-334v494q-63 278 -177 460q-114 181 -247 181q-86 0 -140 -51q-55 -52 -55 -138q0 -88 64.5 -142t193.5 -54v-273q-146 0 -254.5 40t-171.5 108t-93.5 150t-30.5 179q0 94 28.5 176.5t85.5 151.5t152 106t221 37q434 0 608 -591
q46 155 111.5 302t150.5 291h359z" />
    <glyph glyph-name="Yacute.c2sc" horiz-adv-x="1071" 
d="M897 1659l-270 -451h-217l174 451h313zM1034 1057l-332 -719v-338h-323v324l-340 733h352l148 -441l145 441h350z" />
    <glyph glyph-name="Yacute.swash" horiz-adv-x="1724" 
d="M1571 2001l-367 -426h-248l273 426h342zM1741 1427q-308 -523 -471 -919v-508h-334v494q-63 278 -177 460q-114 181 -247 181q-86 0 -140 -51q-55 -52 -55 -138q0 -88 64.5 -142t193.5 -54v-273q-146 0 -254.5 40t-171.5 108t-93.5 150t-30.5 179q0 94 28.5 176.5
t85.5 151.5t152 106t221 37q434 0 608 -591q46 155 111.5 302t150.5 291h359z" />
    <glyph glyph-name="Ycircumflex.c2sc" horiz-adv-x="1071" 
d="M537 1442l-156 -234h-219l246 457h256l247 -457h-219zM1034 1057l-332 -719v-338h-323v324l-340 733h352l148 -441l145 441h350z" />
    <glyph glyph-name="Ycircumflex.swash" horiz-adv-x="1724" 
d="M1096 1786l-156 -215h-248l275 471h256l276 -471h-248zM1741 1427q-308 -523 -471 -919v-508h-334v494q-63 278 -177 460q-114 181 -247 181q-86 0 -140 -51q-55 -52 -55 -138q0 -88 64.5 -142t193.5 -54v-273q-146 0 -254.5 40t-171.5 108t-93.5 150t-30.5 179
q0 94 28.5 176.5t85.5 151.5t152 106t221 37q434 0 608 -591q46 155 111.5 302t150.5 291h359z" />
    <glyph glyph-name="Ydieresis.c2sc" horiz-adv-x="1071" 
d="M307 1278q-69 0 -121 50q-51 50 -51 122t52 123q51 51 120 51q73 0 122 -51q50 -52 50 -123q0 -72 -50 -122t-122 -50zM764 1278q-72 0 -122 50t-50 122q0 71 50 123q50 51 122 51q73 0 122 -51q50 -52 50 -123q0 -72 -50 -122t-122 -50zM1034 1057l-332 -719v-338h-323
v324l-340 733h352l148 -441l145 441h350z" />
    <glyph glyph-name="Ydieresis.swash" horiz-adv-x="1724" 
d="M881 1595q-72 0 -123 52q-51 51 -51 123q0 71 51 123q51 51 123 51q73 0 122 -51q50 -53 50 -123q0 -71 -50 -123q-49 -52 -122 -52zM1319 1595q-72 0 -123 52q-51 51 -51 123q0 71 51 123q51 51 123 51q73 0 122 -51q50 -53 50 -124q0 -73 -50 -123q-49 -51 -122 -51z
M1741 1427q-308 -523 -471 -919v-508h-334v494q-63 278 -177 460q-114 181 -247 181q-86 0 -140 -51q-55 -52 -55 -138q0 -88 64.5 -142t193.5 -54v-273q-146 0 -254.5 40t-171.5 108t-93.5 150t-30.5 179q0 94 28.5 176.5t85.5 151.5t152 106t221 37q434 0 608 -591
q46 155 111.5 302t150.5 291h359z" />
    <glyph glyph-name="Ygrave.swash" horiz-adv-x="1724" 
d="M1206 1575h-219l-282 453h313zM1741 1427q-308 -523 -471 -919v-508h-334v494q-63 278 -177 460q-114 181 -247 181q-86 0 -140 -51q-55 -52 -55 -138q0 -88 64.5 -142t193.5 -54v-273q-146 0 -254.5 40t-171.5 108t-93.5 150t-30.5 179q0 94 28.5 176.5t85.5 151.5
t152 106t221 37q434 0 608 -591q46 155 111.5 302t150.5 291h359z" />
    <glyph glyph-name="Z.swash" horiz-adv-x="1300" 
d="M1024 778q104 -51 182 -176q78 -124 78 -319q0 -126 -38.5 -219t-104.5 -147t-147 -80.5t-175 -26.5q-101 0 -213 38q-113 39 -206 79t-152 40q-86 0 -160 -39l-72 279l656 919h-629v301h1063v-278l-662 -899q19 -6 43 -17t54 -27q29 -16 59 -29t59 -23q59 -21 123 -21
q93 0 145 43.5t52 127.5q0 83 -35 137.5t-102 97.5z" />
    <glyph glyph-name="Zacute.swash" horiz-adv-x="1300" 
d="M1133 2001l-369 -426h-248l272 426h345zM1024 778q104 -51 182 -176q78 -124 78 -319q0 -126 -38.5 -219t-104.5 -147t-147 -80.5t-175 -26.5q-101 0 -213 38q-113 39 -206 79t-152 40q-86 0 -160 -39l-72 279l656 919h-629v301h1063v-278l-662 -899q19 -6 43 -17t54 -27
q29 -16 59 -29t59 -23q59 -21 123 -21q93 0 145 43.5t52 127.5q0 83 -35 137.5t-102 97.5z" />
    <glyph glyph-name="Zcaron.swash" horiz-adv-x="1300" 
d="M799 1575h-258l-275 471h248l156 -215l155 215h248zM1024 778q104 -51 182 -176q78 -124 78 -319q0 -126 -38.5 -219t-104.5 -147t-147 -80.5t-175 -26.5q-101 0 -213 38q-113 39 -206 79t-152 40q-86 0 -160 -39l-72 279l656 919h-629v301h1063v-278l-662 -899
q19 -6 43 -17t54 -27q29 -16 59 -29t59 -23q59 -21 123 -21q93 0 145 43.5t52 127.5q0 83 -35 137.5t-102 97.5z" />
    <glyph glyph-name="Zdotaccent.swash" horiz-adv-x="1300" 
d="M659 1595q-72 0 -123 52q-51 51 -51 124t52 125q51 52 122 52q74 0 126 -52q51 -52 51 -125t-51 -124q-52 -52 -126 -52zM1024 778q104 -51 182 -176q78 -124 78 -319q0 -126 -38.5 -219t-104.5 -147t-147 -80.5t-175 -26.5q-101 0 -213 38q-113 39 -206 79t-152 40
q-86 0 -160 -39l-72 279l656 919h-629v301h1063v-278l-662 -899q19 -6 43 -17t54 -27q29 -16 59 -29t59 -23q59 -21 123 -21q93 0 145 43.5t52 127.5q0 83 -35 137.5t-102 97.5z" />
    <glyph glyph-name="a.salt" horiz-adv-x="1157" 
d="M750 979h317v-979h-317v109q-115 -141 -301 -142q-182 0 -297 127t-115 393q0 138 34.5 241t95.5 164q120 120 298 120q186 0 285 -140v107zM545 250q146 0 205 137v217q-51 131 -193 131q-45 0 -83 -15.5t-65.5 -46t-43 -76t-15.5 -106.5q0 -121 54.5 -181t140.5 -60z
" />
    <glyph glyph-name="aacute.salt" horiz-adv-x="1157" 
d="M985 1581l-270 -453h-217l174 453h313zM750 979h317v-979h-317v109q-115 -141 -301 -142q-182 0 -297 127t-115 393q0 138 34.5 241t95.5 164q120 120 298 120q186 0 285 -140v107zM545 250q146 0 205 137v217q-51 131 -193 131q-45 0 -83 -15.5t-65.5 -46t-43 -76
t-15.5 -106.5q0 -121 54.5 -181t140.5 -60z" />
    <glyph glyph-name="abreve.salt" horiz-adv-x="1157" 
d="M625 1145q-198 0 -295 110t-86 330h248q-2 -113 27 -173t105 -60q77 0 105.5 60.5t24.5 172.5h247q12 -220 -84 -330t-292 -110zM750 979h317v-979h-317v109q-115 -141 -301 -142q-182 0 -297 127t-115 393q0 138 34.5 241t95.5 164q120 120 298 120q186 0 285 -140v107z
M545 250q146 0 205 137v217q-51 131 -193 131q-45 0 -83 -15.5t-65.5 -46t-43 -76t-15.5 -106.5q0 -121 54.5 -181t140.5 -60z" />
    <glyph glyph-name="acircumflex.salt" horiz-adv-x="1157" 
d="M623 1362l-156 -234h-219l246 457h258l245 -457h-219zM750 979h317v-979h-317v109q-115 -141 -301 -142q-182 0 -297 127t-115 393q0 138 34.5 241t95.5 164q120 120 298 120q186 0 285 -140v107zM545 250q146 0 205 137v217q-51 131 -193 131q-45 0 -83 -15.5t-65.5 -46
t-43 -76t-15.5 -106.5q0 -121 54.5 -181t140.5 -60z" />
    <glyph glyph-name="acutecomb.aalt" 
d="M90 1552l-369 -426h-247l272 426h344z" />
    <glyph glyph-name="adieresis.salt" horiz-adv-x="1157" 
d="M395 1198q-72 0 -122 50t-50 122t51 123q50 51 121 51q73 0 122 -51q50 -52 50 -123q0 -72 -50 -122t-122 -50zM850 1198q-69 0 -121 50q-51 50 -51 122t51 123t121 51q74 0 123 -51q49 -50 49 -123t-49 -122q-50 -50 -123 -50zM750 979h317v-979h-317v109
q-115 -141 -301 -142q-182 0 -297 127t-115 393q0 138 34.5 241t95.5 164q120 120 298 120q186 0 285 -140v107zM545 250q146 0 205 137v217q-51 131 -193 131q-45 0 -83 -15.5t-65.5 -46t-43 -76t-15.5 -106.5q0 -121 54.5 -181t140.5 -60z" />
    <glyph glyph-name="agrave.salt" horiz-adv-x="1157" 
d="M741 1128h-217l-270 453h315zM750 979h317v-979h-317v109q-115 -141 -301 -142q-182 0 -297 127t-115 393q0 138 34.5 241t95.5 164q120 120 298 120q186 0 285 -140v107zM545 250q146 0 205 137v217q-51 131 -193 131q-45 0 -83 -15.5t-65.5 -46t-43 -76t-15.5 -106.5
q0 -121 54.5 -181t140.5 -60z" />
    <glyph glyph-name="amacron.salt" horiz-adv-x="1157" 
d="M983 1491v-264h-721v264h721zM750 979h317v-979h-317v109q-115 -141 -301 -142q-182 0 -297 127t-115 393q0 138 34.5 241t95.5 164q120 120 298 120q186 0 285 -140v107zM545 250q146 0 205 137v217q-51 131 -193 131q-45 0 -83 -15.5t-65.5 -46t-43 -76t-15.5 -106.5
q0 -121 54.5 -181t140.5 -60z" />
    <glyph glyph-name="aogonek.salt" horiz-adv-x="1157" 
d="M1073 -330l49 -207q-141 -74 -303 -73q-63 0 -111 17t-79.5 47t-47.5 71.5t-16 91.5q0 219 273 383h-88v109q-115 -141 -301 -142q-182 0 -297 127t-115 393q0 138 34.5 241t95.5 164q120 120 298 120q186 0 285 -140v107h317v-979q-26 -20 -47 -37t-37 -30t-33 -29.5
t-37 -36.5q-39 -42 -57 -82.5t-18 -85.5q0 -78 82 -78q74 0 153 49zM545 250q146 0 205 137v217q-51 131 -193 131q-45 0 -83 -15.5t-65.5 -46t-43 -76t-15.5 -106.5q0 -121 54.5 -181t140.5 -60z" />
    <glyph glyph-name="aring.salt" horiz-adv-x="1157" 
d="M623 1143q-136 0 -216 78q-79 76 -79 203q0 126 79 205q78 79 216 79q135 0 216 -81t81 -202q0 -122 -80 -202t-217 -80zM706 1513q-31 33 -83 33q-51 0 -83 -33q-32 -35 -32 -89q0 -55 32 -87t84 -32q51 0 83 32q30 32 30 86q0 58 -31 90zM750 979h317v-979h-317v109
q-115 -141 -301 -142q-182 0 -297 127t-115 393q0 138 34.5 241t95.5 164q120 120 298 120q186 0 285 -140v107zM545 250q146 0 205 137v217q-51 131 -193 131q-45 0 -83 -15.5t-65.5 -46t-43 -76t-15.5 -106.5q0 -121 54.5 -181t140.5 -60z" />
    <glyph glyph-name="atilde.salt" horiz-adv-x="1157" 
d="M434 1137h-217q-10 223 44 324.5t169 101.5q60 0 109.5 -27t109.5 -76q72 -70 105 -69q59 0 57 165h217q20 -426 -205 -426q-18 0 -36 3.5t-32 5.5t-32 10t-26 11q-3 1 -11.5 6t-17 11t-15.5 10.5t-8 5.5q-2 2 -9 7t-18 13q-12 8 -19 13t-9 7q-28 26 -39 33q-10 8 -27 18
t-32 10q-60 1 -58 -157zM750 979h317v-979h-317v109q-115 -141 -301 -142q-182 0 -297 127t-115 393q0 138 34.5 241t95.5 164q120 120 298 120q186 0 285 -140v107zM545 250q146 0 205 137v217q-51 131 -193 131q-45 0 -83 -15.5t-65.5 -46t-43 -76t-15.5 -106.5
q0 -121 54.5 -181t140.5 -60z" />
    <glyph glyph-name="b.aalt" horiz-adv-x="1105" 
d="M813 555q106 -6 167.5 -66.5t61.5 -175.5q0 -72 -26.5 -129.5t-80 -98.5t-133 -63t-186.5 -22h-491v1057h514q170 0 259 -59.5t89 -194.5q0 -88 -46 -153.5t-128 -94.5zM696 721q0 67 -86 65h-174v-141h182q31 0 54.5 20.5t23.5 55.5zM637 274q45 0 70.5 20t25.5 62
q0 74 -100 74h-197v-156h201z" />
    <glyph glyph-name="c.aalt" horiz-adv-x="1103" 
d="M627 -29q-264 0 -411 147q-148 145 -148 419q0 262 161 405t408 143q246 0 410 -122l-170 -261q-97 76 -224 76q-105 0 -172 -64q-70 -65 -71 -177q0 -116 68 -186q67 -70 175 -70q144 0 256 86l129 -271q-71 -56 -184 -91q-111 -34 -227 -34z" />
    <glyph glyph-name="cacute.aalt" horiz-adv-x="1103" 
d="M997 1659l-270 -451h-217l174 451h313zM627 -29q-264 0 -411 147q-148 145 -148 419q0 262 161 405t408 143q246 0 410 -122l-170 -261q-97 76 -224 76q-105 0 -172 -64q-70 -65 -71 -177q0 -116 68 -186q67 -70 175 -70q144 0 256 86l129 -271q-71 -56 -184 -91
q-111 -34 -227 -34z" />
    <glyph glyph-name="ccaron.aalt" horiz-adv-x="1103" 
d="M764 1208h-256l-248 457h219l156 -233l156 233h219zM653 281q144 0 256 86l129 -271q-71 -56 -184 -91q-111 -34 -227 -34q-264 0 -411 147q-148 145 -148 419q0 262 161 405t408 143q246 0 410 -122l-170 -261q-97 76 -224 76q-105 0 -172 -64q-70 -65 -71 -177
q0 -118 67 -186q67 -70 176 -70z" />
    <glyph glyph-name="ccedilla.aalt" horiz-adv-x="1103" 
d="M1038 96q-117 -93 -319 -119l-66 -141q42 14 88 14q94 0 147.5 -53.5t53.5 -156.5q0 -66 -22 -116.5t-63.5 -84.5t-101 -51t-134.5 -17q-152 0 -263 72l74 166q18 -15 72 -38q56 -24 110 -24q111 0 111 84q0 31 -17.5 49.5t-50.5 18.5q-49 0 -82 -39l-145 49l98 268
q-219 27 -339 172q-121 143 -121 388q0 262 161 405t408 143q246 0 410 -122l-170 -261q-97 76 -224 76q-105 0 -172 -64q-70 -65 -71 -177q0 -116 68 -186q67 -70 175 -70q144 0 256 86z" />
    <glyph glyph-name="cdotaccent.aalt" horiz-adv-x="1103" 
d="M515 1288q-52 51 -52 125t52 126t126 52t125 -52t51 -126t-51 -125t-125 -51q-73 0 -126 51zM627 -29q-264 0 -411 147q-148 145 -148 419q0 262 161 405t408 143q246 0 410 -122l-170 -261q-97 76 -224 76q-105 0 -172 -64q-70 -65 -71 -177q0 -116 68 -186
q67 -70 175 -70q144 0 256 86l129 -271q-71 -56 -184 -91q-111 -34 -227 -34z" />
    <glyph glyph-name="d.aalt" horiz-adv-x="1196" 
d="M543 1057q600 0 600 -516q0 -267 -158 -404t-442 -137h-418v1057h418zM797 539q0 112 -65 169.5t-191 57.5h-90v-471h90q124 0 190 64.5t66 179.5z" />
    <glyph glyph-name="dcaron.aalt" horiz-adv-x="1196" 
d="M713 1208h-256l-246 457h219l156 -233l155 233h220zM543 1057q600 0 600 -516q0 -267 -158 -404t-442 -137h-418v1057h418zM797 539q0 112 -65 169.5t-191 57.5h-90v-471h90q124 0 190 64.5t66 179.5z" />
    <glyph glyph-name="dcroat.aalt" horiz-adv-x="1196" 
d="M543 1057q600 0 600 -516q0 -267 -158 -404t-442 -137h-418v428h-86v225h86v404h418zM797 539q0 112 -65 169.5t-191 57.5h-90v-113h188v-225h-188v-133h90q124 0 190 64.5t66 179.5z" />
    <glyph glyph-name="e.aalt" horiz-adv-x="980" 
d="M918 780h-469v-127h346v-229h-346v-145h469v-279h-795v1057h795v-277z" />
    <glyph glyph-name="eacute.aalt" horiz-adv-x="980" 
d="M897 1659l-270 -451h-217l172 451h315zM918 780h-469v-127h346v-229h-346v-145h469v-279h-795v1057h795v-277z" />
    <glyph glyph-name="ecaron.aalt" horiz-adv-x="980" 
d="M662 1208h-256l-246 457h219l156 -233l155 233h219zM918 780h-469v-127h346v-229h-346v-145h469v-279h-795v1057h795v-277z" />
    <glyph glyph-name="ecircumflex.aalt" horiz-adv-x="980" 
d="M535 1442l-156 -234h-219l246 457h256l247 -457h-219zM918 780h-469v-127h346v-229h-346v-145h469v-279h-795v1057h795v-277z" />
    <glyph glyph-name="edieresis.aalt" horiz-adv-x="980" 
d="M307 1278q-72 0 -122 50t-50 122t51 123q50 51 121 51q72 0 121 -51q49 -50 49 -123t-49 -122q-50 -50 -121 -50zM762 1278q-69 0 -121 50q-51 50 -51 122t51 123t121 51q73 0 122 -51q50 -52 50 -123q0 -72 -50 -122t-122 -50zM123 0v1057h795v-277h-469v-127h346v-229
h-346v-145h469v-279h-795z" />
    <glyph glyph-name="edotaccent.aalt" horiz-adv-x="980" 
d="M539 1237q-71 0 -124 51t-53 125q0 73 53 126q52 52 124 52q76 0 127 -52t51 -126t-51 -125t-127 -51zM918 780h-469v-127h346v-229h-346v-145h469v-279h-795v1057h795v-277z" />
    <glyph glyph-name="egrave.aalt" horiz-adv-x="980" 
d="M653 1208h-217l-270 451h313zM918 780h-469v-127h346v-229h-346v-145h469v-279h-795v1057h795v-277z" />
    <glyph glyph-name="eight.oldstyle" horiz-adv-x="1122" 
d="M842 721q223 -84 223 -348q0 -204 -134 -305t-369 -101t-371 101q-136 100 -136 305q0 262 224 348q-177 101 -179 346q0 180 119 287q118 106 342 106t342 -106q119 -107 119 -287q0 -242 -180 -346zM689 863q48 53 48 136t-47 130q-46 45 -129 45t-129 -46
q-47 -47 -47 -130q0 -82 48 -135q48 -52 128 -52t128 52zM360 444q0 -87 54.5 -135.5t145.5 -48.5q45 0 82.5 12.5t64 36.5t41 58t14.5 77t-15 77t-41.5 57.5t-63.5 36t-81 12.5q-45 0 -82 -12.5t-63.5 -36t-41 -57.5t-14.5 -77z" />
    <glyph glyph-name="eight.oldstyle.case" horiz-adv-x="1224" 
d="M932 721q229 -94 229 -350q0 -403 -549 -404q-549 0 -549 404q0 258 230 350q-184 111 -184 346q0 178 127 286q127 107 376 107t377 -107q127 -108 127 -286q0 -235 -184 -346zM793 993q0 76 -48 119t-133 43t-132.5 -43t-47.5 -119q0 -78 49 -125t131 -47t131.5 47
t49.5 125zM456 563q-57 -40 -57 -119t57 -123q56 -45 157 -45t156 45q56 44 56 122q0 77 -57 119t-156 42q-100 0 -156 -41z" />
    <glyph glyph-name="emacron.aalt" horiz-adv-x="980" 
d="M895 1571v-264h-721v264h721zM918 780h-469v-127h346v-229h-346v-145h469v-279h-795v1057h795v-277z" />
    <glyph glyph-name="eogonek.aalt" horiz-adv-x="980" 
d="M918 -297l49 -209q-137 -71 -301 -69q-63 0 -111 17t-80.5 47.5t-48.5 74t-16 96.5q0 204 229 340h-516v1057h795v-277h-469v-127h346v-229h-346v-145h469v-279q-55 -33 -99 -64t-74.5 -62.5t-46.5 -65t-16 -70.5q0 -84 84 -84q73 0 152 49z" />
    <glyph glyph-name="eth.aalt" horiz-adv-x="1196" 
d="M543 1057q600 0 600 -516q0 -267 -158 -404t-442 -137h-418v428h-86v225h86v404h418zM797 539q0 112 -65 169.5t-191 57.5h-90v-113h188v-225h-188v-133h90q124 0 190 64.5t66 179.5z" />
    <glyph glyph-name="f.aalt" horiz-adv-x="948" 
d="M909 782h-460v-190h339v-244h-339v-348h-326v1057h786v-275z" />
    <glyph glyph-name="five.oldstyle" horiz-adv-x="1028" 
d="M618 496q170 0 271 -104q100 -104 100 -304q0 -121 -40.5 -213t-111.5 -149t-160.5 -83t-197.5 -26q-248 0 -430 125l94 278q135 -119 306 -118q51 0 93 12t71.5 37t46 62.5t16.5 88.5q0 42 -12 74t-33.5 54t-51 33t-63.5 11q-61 0 -110.5 -27t-77.5 -69l-217 78v803h784
v-301h-498v-322q104 60 221 60z" />
    <glyph glyph-name="five.oldstyle.case" horiz-adv-x="1107" 
d="M655 885q183 0 292 -103q110 -104 110 -319q0 -132 -42 -226t-114.5 -154t-171.5 -88t-213 -28q-304 0 -504 172l138 279q143 -135 327 -135q96 0 161 50q64 49 64 140q0 87 -43.5 126.5t-115.5 39.5q-115 0 -183 -90l-239 82v796h842v-301h-529v-295q101 54 221 54z" />
    <glyph glyph-name="four.oldstyle" horiz-adv-x="1146" 
d="M1122 256v-258h-161v-358h-320v358h-616v250l507 811h429v-803h161zM317 256h324v532z" />
    <glyph glyph-name="four.oldstyle.case" horiz-adv-x="1216" 
d="M1204 532v-286h-188v-246h-324v246h-639v278l535 908h428v-900h188zM395 532h297v551z" />
    <glyph glyph-name="g.salt" horiz-adv-x="1148" 
d="M750 979h317v-911q0 -146 -35 -257.5t-90 -176.5t-132 -105q-78 -42 -151 -56t-155 -14q-275 0 -438 158l129 244q112 -133 284 -133q269 0 271 284v94q-112 -139 -299 -139q-184 0 -299 127t-115 393q0 138 34.5 241t96.5 164q123 120 297 120q186 0 285 -140v107z
M547 250q145 0 203 135v219q-51 131 -193 131q-89 0 -147 -61q-60 -61 -60 -182q0 -123 54.5 -182.5t142.5 -59.5z" />
    <glyph glyph-name="gbreve.salt" horiz-adv-x="1148" 
d="M631 1145q-198 0 -294.5 110t-84.5 330h246q-2 -113 26.5 -173t105.5 -60t105.5 60.5t26.5 172.5h246q12 -220 -83.5 -330t-293.5 -110zM750 979h317v-911q0 -146 -35 -257.5t-90 -176.5t-132 -105q-78 -42 -151 -56t-155 -14q-275 0 -438 158l129 244q112 -133 284 -133
q269 0 271 284v94q-112 -139 -299 -139q-184 0 -299 127t-115 393q0 138 34.5 241t96.5 164q123 120 297 120q186 0 285 -140v107zM547 250q145 0 203 135v219q-51 131 -193 131q-89 0 -147 -61q-60 -61 -60 -182q0 -123 54.5 -182.5t142.5 -59.5z" />
    <glyph glyph-name="gdotaccent.salt" horiz-adv-x="1148" 
d="M635 1157q-74 0 -126 52q-52 51 -52 125q0 73 52 125t126 52t125 -52t51 -125q0 -74 -51 -125q-51 -52 -125 -52zM750 979h317v-911q0 -146 -35 -257.5t-90 -176.5t-132 -105q-78 -42 -151 -56t-155 -14q-275 0 -438 158l129 244q112 -133 284 -133q269 0 271 284v94
q-112 -139 -299 -139q-184 0 -299 127t-115 393q0 138 34.5 241t96.5 164q123 120 297 120q186 0 285 -140v107zM547 250q145 0 203 135v219q-51 131 -193 131q-89 0 -147 -61q-60 -61 -60 -182q0 -123 54.5 -182.5t142.5 -59.5z" />
    <glyph glyph-name="glyph1" 
 />
    <glyph glyph-name="glyph2" horiz-adv-x="681" 
 />
    <glyph glyph-name="glyph367" horiz-adv-x="1400" 
d="M762 1595q-72 0 -123 52q-51 51 -51 124t51 125t123 52q74 0 125 -52t51 -125t-51 -124q-51 -52 -125 -52zM698 836h621v-768q-144 -51 -287 -75.5t-287 -25.5q-319 0 -505 196q-187 194 -187 548q0 352 196 551q195 198 515 198q341 0 543 -198l-203 -246
q-130 123 -330 123q-172 0 -274 -116q-103 -115 -103 -312t98 -310q98 -114 271 -114q126 0 219 35v247h-287v267z" />
    <glyph glyph-name="glyph653" horiz-adv-x="413" 
d="M373 1532l-99 -621h-217v621h316z" />
    <glyph glyph-name="gravecomb.aalt" 
d="M-262 1126l-283 453h314l188 -453h-219z" />
    <glyph glyph-name="h.aalt" horiz-adv-x="1216" 
d="M768 1057h326v-1057h-326v399h-319v-399h-326v1057h326v-373h319v373z" />
    <glyph glyph-name="i.locl" horiz-adv-x="520" 
d="M141 1209q-51 51 -51 125q0 73 52 125q51 52 124 52q74 0 126 -52t52 -125q0 -74 -52 -125q-52 -52 -126 -52t-125 52zM420 979v-979h-318v979h318z" />
    <glyph glyph-name="iacute.aalt" horiz-adv-x="571" 
d="M649 1659l-272 -451h-215l172 451h315zM449 1057v-1057h-326v1057h326z" />
    <glyph glyph-name="icircumflex.aalt" horiz-adv-x="571" 
d="M287 1442l-156 -234h-219l246 457h256l248 -457h-220zM123 0v1057h326v-1057h-326z" />
    <glyph glyph-name="idieresis.aalt" horiz-adv-x="571" 
d="M-63 1328q-50 50 -50 122q0 71 50 123q51 51 122 51q72 0 121 -51q49 -50 49 -123t-49 -122q-50 -50 -121 -50q-72 0 -122 50zM392 1328q-50 50 -50 122q0 71 50 123q50 51 122 51q73 0 122 -51q50 -52 50 -123q0 -72 -50 -122t-122 -50t-122 50zM449 1057v-1057h-326
v1057h326z" />
    <glyph glyph-name="igrave.aalt" horiz-adv-x="571" 
d="M406 1208h-218l-270 451h313zM449 1057v-1057h-326v1057h326z" />
    <glyph glyph-name="imacron.aalt" horiz-adv-x="571" 
d="M-74 1571h721v-264h-721v264zM449 1057v-1057h-326v1057h326z" />
    <glyph glyph-name="iogonek.aalt" horiz-adv-x="571" 
d="M451 -297l47 -209q-137 -71 -301 -69q-63 0 -111 17t-80.5 47.5t-48.5 74t-16 96.5q0 204 229 340h-47v1057h326v-1057q-55 -33 -99 -64t-74.5 -62.5t-46.5 -65t-16 -70.5q0 -84 86 -84q70 0 152 49z" />
    <glyph glyph-name="j.aalt" horiz-adv-x="829" 
d="M305 -27q-176 0 -291 82l78 293q70 -82 174 -82q138 0 140 176v615h325v-625q0 -138 -32 -230.5t-95 -140.5q-63 -49 -134 -68.5t-165 -19.5z" />
    <glyph glyph-name="k.aalt" horiz-adv-x="1122" 
d="M719 0l-160 387l-108 -139v-248h-326v1057h326v-387l278 387h361l-297 -375l307 -682h-381z" />
    <glyph glyph-name="l.aalt" horiz-adv-x="862" 
d="M449 279h385v-279h-711v1057h326v-778z" />
    <glyph glyph-name="lacute.aalt" horiz-adv-x="862" 
d="M780 1659l-270 -451h-217l172 451h315zM449 279h385v-279h-711v1057h326v-778z" />
    <glyph glyph-name="lcaron.aalt" horiz-adv-x="862" 
d="M545 1208h-256l-246 457h219l156 -233l155 233h220zM449 279h385v-279h-711v1057h326v-778z" />
    <glyph glyph-name="lslash.aalt" horiz-adv-x="933" 
d="M504 279h385v-279h-711v414l-96 -41l-88 233l184 68v383h326v-258l205 78l84 -232l-289 -108v-258z" />
    <glyph glyph-name="m.aalt" horiz-adv-x="1433" 
d="M1001 0v393q0 46 1.5 93t5.5 96q-20 -62 -37 -112t-33 -89l-139 -295h-174l-136 281q-19 49 -38 102.5t-39 112.5q6 -109 6 -183v-399h-295v1057h354l252 -543l225 543h338l19 -1057h-310z" />
    <glyph glyph-name="n.aalt" horiz-adv-x="1169" 
d="M756 1057h291v-1057h-295l-340 508v-508h-289v1057h291l342 -520v520z" />
    <glyph glyph-name="nacute.aalt" horiz-adv-x="1169" 
d="M948 1659l-272 -451h-215l172 451h315zM756 1057h291v-1057h-295l-340 508v-508h-289v1057h291l342 -520v520z" />
    <glyph glyph-name="ncaron.aalt" horiz-adv-x="1169" 
d="M713 1208h-256l-246 457h219l156 -233l155 233h220zM756 1057h291v-1057h-295l-340 508v-508h-289v1057h291l342 -520v520z" />
    <glyph glyph-name="nine.oldstyle" horiz-adv-x="1128" 
d="M553 1090q252 0 388 -195q136 -194 136 -563q0 -343 -163 -536t-443 -191q-226 1 -408 102l91 268q125 -90 295 -90q144 0 230 104q85 104 85 296v43q-48 -69 -127.5 -107.5t-173.5 -38.5q-180 0 -293 114q-113 115 -113 320q0 215 132 345q131 129 364 129zM555 410
q77 0 132 54q56 54 56 136q0 89 -51 144t-132 55t-134 -53q-53 -55 -53 -146q0 -93 48.5 -141.5t133.5 -48.5z" />
    <glyph glyph-name="nine.oldstyle.case" horiz-adv-x="1236" 
d="M528 279q145 0 228.5 98t83.5 295v18q-104 -143 -324 -143q-190 0 -306 108q-116 107 -116 318q0 220 140 354q139 133 380 133q275 0 426 -189q152 -191 152 -530q2 -382 -161 -577q-164 -197 -460 -197q-311 0 -505 174l157 269q119 -131 305 -131zM610 788
q85 0 147 50q60 50 60 127q0 83 -52 135q-53 53 -142 53q-91 0 -143 -49.5t-52 -136.5t48.5 -133t133.5 -46z" />
    <glyph glyph-name="ntilde.aalt" horiz-adv-x="1169" 
d="M397 1217h-217q-10 223 43 324t168 101q61 0 111.5 -26.5t107.5 -75.5q73 -70 107 -70q58 0 57 166h217q18 -426 -205 -426q-18 0 -37.5 3.5t-31.5 5.5t-30.5 10t-26.5 11q-3 1 -11 6t-17 11t-16 10.5t-9 5.5q-2 2 -9.5 7t-18.5 13q-12 8 -19 13t-9 7q-25 24 -38 33
q-5 4 -12.5 8.5t-15.5 9.5q-17 10 -30 10q-60 1 -58 -157zM756 1057h291v-1057h-295l-340 508v-508h-289v1057h291l342 -520v520z" />
    <glyph glyph-name="o.aalt" horiz-adv-x="1286" 
d="M643 -31q-269 0 -427 149q-157 148 -157 412q0 263 160 411q161 149 424 149t423 -148q161 -149 161 -412t-156 -412q-157 -149 -428 -149zM643 283q111 0 176 68q64 67 64 179q0 108 -65 178q-66 68 -174 68t-176 -68q-67 -68 -67 -178q0 -112 67 -179q66 -68 175 -68z
" />
    <glyph glyph-name="oacute.aalt" horiz-adv-x="1286" 
d="M1006 1659l-271 -451h-217l174 451h314zM643 -31q-269 0 -427 149q-157 148 -157 412q0 263 160 411q161 149 424 149t423 -148q161 -149 161 -412t-156 -412q-157 -149 -428 -149zM643 283q111 0 176 68q64 67 64 179q0 108 -65 178q-66 68 -174 68t-176 -68
q-67 -68 -67 -178q0 -112 67 -179q66 -68 175 -68z" />
    <glyph glyph-name="ocircumflex.aalt" horiz-adv-x="1286" 
d="M643 1442l-156 -234h-219l246 457h258l246 -457h-219zM643 1090q263 0 423 -148q161 -149 161 -412t-156 -412q-157 -149 -428 -149q-269 0 -427 149q-157 148 -157 412q0 263 160 411q161 149 424 149zM643 283q111 0 176 68q64 67 64 179q0 108 -65 178q-66 68 -174 68
t-176 -68q-67 -68 -67 -178q0 -112 67 -179q66 -68 175 -68z" />
    <glyph glyph-name="odieresis.aalt" horiz-adv-x="1286" 
d="M294 1328q-50 50 -50 122q0 71 50 123q50 51 122 51q73 0 122 -51q50 -52 50 -123q0 -72 -50 -122q-52 -50 -122 -50q-72 0 -122 50zM749 1328q-51 50 -51 122t52 123q51 51 120 51q74 0 123 -51q49 -50 49 -123t-49 -122q-50 -50 -123 -50q-69 0 -121 50zM643 -31
q-269 0 -427 149q-157 148 -157 412q0 263 160 411q161 149 424 149t423 -148q161 -149 161 -412t-156 -412q-157 -149 -428 -149zM643 283q111 0 176 68q64 67 64 179q0 108 -65 178q-66 68 -174 68t-176 -68q-67 -68 -67 -178q0 -112 67 -179q66 -68 175 -68z" />
    <glyph glyph-name="ogonek.aalt" horiz-adv-x="645" 
 />
    <glyph glyph-name="ograve.aalt" horiz-adv-x="1286" 
d="M762 1208h-217l-271 451h316zM643 -31q-269 0 -427 149q-157 148 -157 412q0 263 160 411q161 149 424 149t423 -148q161 -149 161 -412t-156 -412q-157 -149 -428 -149zM643 283q111 0 176 68q64 67 64 179q0 108 -65 178q-66 68 -174 68t-176 -68q-67 -68 -67 -178
q0 -112 67 -179q66 -68 175 -68z" />
    <glyph glyph-name="ohungarumlaut.aalt" horiz-adv-x="1286" 
d="M774 1659l-211 -451h-194l102 451h303zM1253 1659l-344 -451h-217l246 451h315zM643 -31q-269 0 -427 149q-157 148 -157 412q0 263 160 411q161 149 424 149t423 -148q161 -149 161 -412t-156 -412q-157 -149 -428 -149zM643 283q111 0 176 68q64 67 64 179
q0 108 -65 178q-66 68 -174 68t-176 -68q-67 -68 -67 -178q0 -112 67 -179q66 -68 175 -68z" />
    <glyph glyph-name="omacron.aalt" horiz-adv-x="1286" 
d="M283 1571h721v-264h-721v264zM643 -31q-269 0 -427 149q-157 148 -157 412q0 263 160 411q161 149 424 149t423 -148q161 -149 161 -412t-156 -412q-157 -149 -428 -149zM643 283q111 0 176 68q64 67 64 179q0 108 -65 178q-66 68 -174 68t-176 -68q-67 -68 -67 -178
q0 -112 67 -179q66 -68 175 -68z" />
    <glyph glyph-name="one.oldstyle" horiz-adv-x="604" 
d="M479 1059v-1059h-325v784h-86v275h411z" />
    <glyph glyph-name="one.oldstyle.case" horiz-adv-x="655" 
d="M504 1427v-1427h-332v1139h-119v288h451z" />
    <glyph glyph-name="otilde.aalt" horiz-adv-x="1286" 
d="M512 1374q-58 0 -57 -157h-217q-10 223 44 324t169 101q59 0 109 -26.5t110 -75.5q71 -70 104 -70q58 0 57 166h218q20 -426 -203 -426q-20 0 -39 3.5t-32 5.5t-31.5 10t-26.5 11q-3 1 -10.5 6l-16.5 11t-16 10.5t-8 5.5q-2 2 -9 7t-19 13t-19 13t-9 7q-70 61 -98 61z
M643 -31q-269 0 -427 149q-157 148 -157 412q0 263 160 411q161 149 424 149t423 -148q161 -149 161 -412t-156 -412q-157 -149 -428 -149zM643 283q111 0 176 68q64 67 64 179q0 108 -65 178q-66 68 -174 68t-176 -68q-67 -68 -67 -178q0 -112 67 -179q66 -68 175 -68z" />
    <glyph glyph-name="p.aalt" horiz-adv-x="1044" 
d="M549 1057q236 0 351 -90q114 -90 114 -301q0 -199 -109.5 -296.5t-306.5 -97.5h-149v-272h-326v1057h426zM547 514q66 0 102.5 38t36.5 101t-36 96t-103 33h-98v-268h98z" />
    <glyph glyph-name="q.aalt" horiz-adv-x="1308" 
d="M643 -31q-269 0 -427 149q-157 148 -157 412q0 263 160 411q161 149 424 149t423 -148q161 -149 161 -412t-156 -412q-157 -149 -428 -149zM643 283q111 0 176 68q64 67 64 179q0 108 -65 178q-66 68 -174 68t-176 -68q-67 -68 -67 -178q0 -112 67 -179q66 -68 175 -68z
M1120 -338h-641v244h641v-244z" />
    <glyph glyph-name="r.aalt" horiz-adv-x="1116" 
d="M709 0l-148 344h-121v-344h-317v1057h471q215 0 325.5 -81t110.5 -255q0 -221 -166 -318l215 -403h-370zM440 782v-196h142q124 0 125 100q0 96 -125 96h-142z" />
    <glyph glyph-name="racute.aalt" horiz-adv-x="1116" 
d="M922 1659l-271 -451h-217l174 451h314zM709 0l-148 344h-121v-344h-317v1057h471q215 0 325.5 -81t110.5 -255q0 -221 -166 -318l215 -403h-370zM440 782v-196h142q124 0 125 100q0 96 -125 96h-142z" />
    <glyph glyph-name="rcaron.aalt" horiz-adv-x="1116" 
d="M688 1208h-256l-248 457h219l158 -233l156 233h219zM709 0l-148 344h-121v-344h-317v1057h471q215 0 325.5 -81t110.5 -255q0 -221 -166 -318l215 -403h-370zM440 782v-196h142q124 0 125 100q0 96 -125 96h-142z" />
    <glyph glyph-name="s.aalt" horiz-adv-x="894" 
d="M442 -35q-240 0 -403 94l98 267q116 -90 273 -90q49 0 76.5 19t27.5 54t-27 51.5t-90 32.5q-330 71 -329 363q0 78 25.5 140.5t76.5 106t127 66.5t176 23q227 0 381 -84l-127 -263q-101 70 -240 70q-90 0 -90 -63q0 -37 30 -56.5t93 -38.5q158 -41 242 -124.5t84 -225.5
q0 -171 -111 -257q-110 -85 -293 -85z" />
    <glyph glyph-name="sacute.aalt" horiz-adv-x="894" 
d="M809 1659l-270 -451h-217l174 451h313zM442 -35q-240 0 -403 94l98 267q116 -90 273 -90q49 0 76.5 19t27.5 54t-27 51.5t-90 32.5q-330 71 -329 363q0 78 25.5 140.5t76.5 106t127 66.5t176 23q227 0 381 -84l-127 -263q-101 70 -240 70q-90 0 -90 -63q0 -37 30 -56.5
t93 -38.5q158 -41 242 -124.5t84 -225.5q0 -171 -111 -257q-110 -85 -293 -85z" />
    <glyph glyph-name="scaron.aalt" horiz-adv-x="894" 
d="M575 1208h-256l-247 457h219l158 -233l155 233h219zM520 657q158 -41 242 -124.5t84 -225.5q0 -171 -110 -257q-110 -85 -294 -85q-240 0 -403 94l98 267q116 -90 273 -90q49 0 76.5 19t27.5 54t-27 51.5t-90 32.5q-330 71 -329 363q0 78 25.5 140.5t76.5 106t127 66.5
t176 23q227 0 381 -84l-127 -263q-101 70 -240 70q-90 0 -90 -63q0 -37 30 -57t93 -38z" />
    <glyph glyph-name="seven.oldstyle" horiz-adv-x="948" 
d="M16 1059h904l-336 -1399h-357l299 1102h-510v297z" />
    <glyph glyph-name="seven.oldstyle.case" horiz-adv-x="991" 
d="M20 1425h965l-397 -1425h-365l344 1126h-547v299z" />
    <glyph glyph-name="six.oldstyle" horiz-adv-x="1142" 
d="M707 879q167 0 276 -106t109 -318q0 -220 -137 -354q-139 -134 -361 -134q-537 0 -537 729q0 361 166 563q167 203 453 201q232 -2 407 -102l-131 -252q-118 73 -266 74q-70 1 -126.5 -26.5t-95.5 -83t-60 -137.5t-21 -190v-30q103 166 324 166zM582 262q84 0 139 55
q55 54 55 146t-51 141t-131 49q-79 0 -141 -54t-62 -136q0 -88 53 -144q53 -57 138 -57z" />
    <glyph glyph-name="six.oldstyle.case" horiz-adv-x="1230" 
d="M756 885q198 0 317 -106q119 -107 119 -318q0 -220 -145 -356q-145 -138 -402 -138q-279 0 -428 188t-149 541q0 360 172 562t467 202q261 0 430 -153l-176 -254q-102 96 -238 96q-70 0 -126.5 -26.5t-96.5 -78t-61 -128.5t-21 -179q106 148 338 148zM645 274
q47 0 85.5 13.5t66 38t42.5 60t15 79.5q0 87 -50.5 131.5t-141.5 44.5q-96 0 -158 -48t-62 -130q0 -80 58 -134q56 -55 145 -55z" />
    <glyph glyph-name="t.aalt" horiz-adv-x="997" 
d="M950 1057v-275h-288v-782h-326v782h-289v275h903z" />
    <glyph glyph-name="tcaron.aalt" horiz-adv-x="997" 
d="M627 1208h-256l-248 457h219l156 -233l155 233h219zM950 1057v-275h-288v-782h-326v782h-289v275h903z" />
    <glyph glyph-name="three.oldstyle" horiz-adv-x="972" 
d="M649 348q127 -35 201 -121t74 -225q0 -190 -134 -294q-134 -103 -344 -103q-149 0 -260 38q-109 37 -209 107l129 244q132 -105 293 -107q100 0 156.5 44t56.5 126q0 43 -17.5 75.5t-49 54t-76 32t-98.5 10.5h-119v220h100q54 0 98 13t75 37t48 59t17 78q0 87 -51.5 128
t-135.5 41q-157 0 -272 -94l-131 215q72 69 197 118q122 48 274 48q196 0 317 -92q119 -93 119 -283q0 -126 -66 -223t-192 -146z" />
    <glyph glyph-name="three.oldstyle.case" horiz-adv-x="1120" 
d="M827 733q56 -21 101 -54.5t77.5 -78t50 -100t17.5 -121.5q0 -207 -142 -309q-142 -103 -384 -103q-307 0 -516 183l153 264q80 -68 151 -98q69 -31 177 -31q92 0 148.5 40t56.5 124q0 83 -62 124q-63 39 -159 39h-115l2 222h102q94 0 151.5 43t57.5 124q0 75 -48.5 110.5
t-133.5 35.5q-170 0 -313 -113l-146 240q209 186 541 186q199 0 327 -95t128 -286q0 -128 -59.5 -214.5t-162.5 -131.5z" />
    <glyph glyph-name="three.salt" horiz-adv-x="1103" 
d="M745 811q150 -33 225 -138q74 -107 74 -255q0 -231 -137 -341t-370 -110q-309 0 -510 183l147 272q145 -139 309 -139q47 0 86 12.5t67.5 37.5t44 61.5t15.5 84.5q0 102 -77.5 155.5t-241.5 43.5v133l237 315h-508v301h922v-260z" />
    <glyph glyph-name="tildecomb.aalt" 
d="M-575 1315q-64 0 -62 -156h-217q-19 436 207 436q55 0 99.5 -25.5t98.5 -70.5q76 -70 121 -69q69 0 68 159h217q19 -436 -217 -436q-85 0 -203 92q-2 2 -4.5 4t-5.5 4q-71 62 -102 62z" />
    <glyph glyph-name="two.oldstyle" horiz-adv-x="1034" 
d="M502 258h495v-258h-911v260q250 100 372 196.5t122 202.5q0 40 -12.5 68.5t-34 46.5t-51 26.5t-64.5 8.5q-81 0 -158 -33.5t-137 -87.5l-135 236q207 168 512 168q85 0 161.5 -19.5t134 -62.5t91 -111.5t33.5 -165.5q0 -91 -36.5 -169.5t-99.5 -136.5t-133.5 -99
t-148.5 -70z" />
    <glyph glyph-name="two.oldstyle.case" horiz-adv-x="1124" 
d="M539 297h551v-297h-1004v270l246 226q79 72 136.5 134.5t95 119t55.5 108.5t18 103q0 93 -49.5 138.5t-134.5 45.5q-146 0 -306 -125l-159 246q221 194 524 192q213 0 346 -112t133 -326q0 -189 -91 -338q-92 -151 -259 -297z" />
    <glyph glyph-name="u.aalt" horiz-adv-x="1112" 
d="M557 -31q-223 0 -348 122t-125 345v621h326v-598q0 -87 38.5 -133.5t108.5 -46.5q72 0 108.5 46.5t36.5 133.5v598h326v-621q0 -227 -124 -347t-347 -120z" />
    <glyph glyph-name="uacute.aalt" horiz-adv-x="1112" 
d="M920 1659l-271 -451h-217l172 451h316zM557 -31q-223 0 -348 122t-125 345v621h326v-598q0 -87 38.5 -133.5t108.5 -46.5q72 0 108.5 46.5t36.5 133.5v598h326v-621q0 -227 -124 -347t-347 -120z" />
    <glyph glyph-name="ucircumflex.aalt" horiz-adv-x="1112" 
d="M557 1442l-156 -234h-219l246 457h256l248 -457h-219zM702 1057h326v-621q0 -227 -124 -347t-347 -120t-348 122t-125 345v621h326v-598q0 -87 38.5 -133.5t108.5 -46.5q72 0 108.5 46.5t36.5 133.5v598z" />
    <glyph glyph-name="udieresis.aalt" horiz-adv-x="1112" 
d="M208 1328q-50 50 -50 122q0 71 50 123q50 51 122 51q73 0 122 -51q50 -52 50 -123q0 -72 -50 -122q-52 -50 -122 -50q-72 0 -122 50zM663 1328q-51 50 -51 122t52 123q51 51 120 51q73 0 122 -51q50 -52 50 -123q0 -72 -50 -122t-122 -50q-69 0 -121 50zM557 -31
q-223 0 -348 122t-125 345v621h326v-598q0 -87 38.5 -133.5t108.5 -46.5q72 0 108.5 46.5t36.5 133.5v598h326v-621q0 -227 -124 -347t-347 -120z" />
    <glyph glyph-name="ugrave.aalt" horiz-adv-x="1112" 
d="M676 1208h-217l-271 451h316zM557 -31q-223 0 -348 122t-125 345v621h326v-598q0 -87 38.5 -133.5t108.5 -46.5q72 0 108.5 46.5t36.5 133.5v598h326v-621q0 -227 -124 -347t-347 -120z" />
    <glyph glyph-name="uhungarumlaut.aalt" horiz-adv-x="1112" 
d="M688 1659l-211 -451h-194l102 451h303zM1165 1659l-342 -451h-217l246 451h313zM557 -31q-223 0 -348 122t-125 345v621h326v-598q0 -87 38.5 -133.5t108.5 -46.5q72 0 108.5 46.5t36.5 133.5v598h326v-621q0 -227 -124 -347t-347 -120z" />
    <glyph glyph-name="umacron.aalt" horiz-adv-x="1112" 
d="M197 1571h721v-264h-721v264zM557 -31q-223 0 -348 122t-125 345v621h326v-598q0 -87 38.5 -133.5t108.5 -46.5q72 0 108.5 46.5t36.5 133.5v598h326v-621q0 -227 -124 -347t-347 -120z" />
    <glyph glyph-name="uni0122.c2sc" horiz-adv-x="1175" 
d="M575 641h512v-594q-227 -74 -469 -74q-259 0 -408 145q-151 144 -151 408t158 411q158 146 418 146q255 0 430 -137l-186 -250q-97 74 -232 74q-58 0 -105 -17t-79.5 -48.5t-50 -76.5t-17.5 -102q0 -114 62 -176.5t180 -62.5q72 0 125 14v80h-187v260zM625 -100
q92 0 148 -68t56 -178q0 -268 -282 -395l-103 151q72 33 114 64.5t67 79.5h-7q-71 0 -117 46q-48 46 -48 126q0 78 49 126q50 48 123 48z" />
    <glyph glyph-name="uni0122.salt" horiz-adv-x="1519" 
d="M727 848h703v-111q0 -194 -53 -342t-150 -241q-97 -94 -223 -140.5t-277 -46.5q-305 0 -489 199q-185 200 -185 545q0 351 198 550t525 199q172 0 316 -58q73 -29 130.5 -68.5t102.5 -88.5l-221 -239q-135 129 -330 129q-171 0 -275 -114q-104 -115 -104 -310
q0 -190 94 -302q93 -112 248 -112q69 0 127 17t103.5 51.5t76 85.5t43.5 118h-360v279zM758 -100q92 0 149 -68q56 -68 56 -178q0 -268 -283 -395l-105 151q72 33 115 64.5t66 79.5h-6q-68 0 -117 46t-49 126q0 78 49 126q50 48 125 48z" />
    <glyph glyph-name="uni0123.salt" horiz-adv-x="1148" 
d="M612 1153q-94 0 -147 62t-53 174q0 130 74 239q74 107 208 152l103 -152q-151 -66 -191 -162q9 1 18 1.5t19 0.5q57 0 103 -36q45 -37 45 -109q0 -41 -14 -72.5t-38 -53.5t-56.5 -33t-70.5 -11zM750 979h317v-911q0 -146 -35 -257.5t-90 -176.5t-132 -105
q-78 -42 -151 -56t-155 -14q-275 0 -438 158l129 244q112 -133 284 -133q269 0 271 284v94q-112 -139 -299 -139q-184 0 -299 127t-115 393q0 138 34.5 241t96.5 164q123 120 297 120q186 0 285 -140v107zM547 250q145 0 203 135v219q-51 131 -193 131q-89 0 -147 -61
q-60 -61 -60 -182q0 -123 54.5 -182.5t142.5 -59.5z" />
    <glyph glyph-name="uni0136.swash" horiz-adv-x="1824" 
d="M1389 903l417 -903h-393l-264 596l-148 -188v-408h-331v1137h-95q-147 0 -213.5 -49.5t-66.5 -147.5q0 -197 231 -197v-272q-140 0 -244 40t-164 108q-61 68 -89.5 150t-28.5 179q0 99 28.5 180.5t92.5 151.5q63 70 182.5 107.5t288.5 37.5h78v2h331v-550l410 550h385z
M1176 -100q92 0 148 -68t56 -178q0 -268 -282 -395l-105 151q37 16 65.5 32t50.5 32.5t38.5 36t28.5 43.5h-9q-68 0 -117 46t-49 126q0 78 50 126t125 48z" />
    <glyph glyph-name="uni0137.aalt" horiz-adv-x="1122" 
d="M451 248v-248h-326v1057h326v-387l278 387h361l-297 -375l307 -682h-381l-160 387zM553 -100q92 0 149 -68q56 -68 56 -178q0 -268 -283 -395l-104 151q37 16 65.5 32t50.5 32.5t38 36t28 43.5h-8q-68 0 -117 46t-49 126q0 78 49 126q50 48 125 48z" />
    <glyph glyph-name="uni013B.swash" horiz-adv-x="1548" 
d="M1008 301h524v-301h-858v1137h-99q-147 0 -213.5 -49.5t-66.5 -147.5q0 -197 231 -197v-272q-140 0 -244 40t-164 108q-61 68 -89.5 150t-28.5 179q0 99 28.5 180.5t92.5 151.5q63 70 182.5 107.5t288.5 37.5h82v2h334v-1126zM1143 -100q92 0 149 -68q56 -68 56 -178
q0 -268 -283 -395l-104 151q72 33 114.5 64.5t65.5 79.5h-6q-68 0 -117 46t-49 126q0 76 49 125t125 49z" />
    <glyph glyph-name="uni013C.aalt" horiz-adv-x="862" 
d="M449 279h385v-279h-711v1057h326v-778zM502 -100q92 0 149 -68q56 -68 56 -178q0 -268 -283 -395l-102 151q72 33 113.5 64.5t66.5 79.5h-6q-71 0 -118 46q-48 46 -48 126q0 78 49 126q50 48 123 48z" />
    <glyph glyph-name="uni0145.swash" horiz-adv-x="1912" 
d="M1470 1427h308v-1427h-314l-497 803v-803h-310v1137h-82q-147 0 -213.5 -49.5t-66.5 -147.5q0 -197 231 -197v-272q-140 0 -244 40t-164 108q-61 68 -89.5 150t-28.5 179q0 99 28.5 179t92.5 152q63 72 182.5 109t288.5 37h65v2h224h88l501 -815v815zM1217 -100
q92 0 148 -68t56 -178q0 -268 -282 -395l-103 151q72 33 114 64.5t67 79.5h-9q-69 0 -116 46q-48 46 -48 126q0 39 13 71t36 55t54.5 35.5t69.5 12.5z" />
    <glyph glyph-name="uni0146.aalt" horiz-adv-x="1169" 
d="M756 1057h291v-1057h-295l-340 508v-508h-289v1057h291l342 -520v520zM584 -100q92 0 148 -68t56 -178q0 -268 -282 -395l-105 151q72 33 115 64.5t66 79.5h-7q-71 0 -117 46q-48 46 -48 126q0 78 49 126q50 48 125 48z" />
    <glyph glyph-name="uni0156.swash" horiz-adv-x="1849" 
d="M1487 573l313 -573h-393l-260 528h-154v-528h-334v1137h-84q-147 0 -213.5 -49.5t-66.5 -147.5q0 -197 231 -197v-272q-140 0 -244 40t-164 108q-61 68 -89.5 150t-28.5 179q0 99 28.5 180.5t92.5 151.5q63 70 182.5 107.5t288.5 37.5h67v2h590q117 0 208 -28.5
t153.5 -84t95.5 -138.5t33 -193q0 -142 -65.5 -249t-186.5 -161zM993 1126v-329h221q81 0 129 43t48 124t-48.5 121.5t-130.5 40.5h-219zM1182 -100q94 0 151 -68q56 -68 56 -178q0 -268 -283 -395l-105 151q72 33 115 64.5t66 79.5h-6q-71 0 -118 46q-48 46 -48 126
q0 78 49 126q50 48 123 48z" />
    <glyph glyph-name="uni0157.aalt" horiz-adv-x="1116" 
d="M440 344v-344h-317v1057h471q215 0 325.5 -81t110.5 -255q0 -221 -166 -318l215 -403h-370l-148 344h-121zM707 686q0 96 -125 96h-142v-196h142q124 0 125 100zM557 -100q92 0 149 -68q56 -68 56 -178q0 -268 -283 -395l-102 151q72 33 113.5 64.5t66.5 79.5h-6
q-71 0 -118 46q-48 46 -48 126q0 78 49 126q50 48 123 48z" />
    <glyph glyph-name="uni0162.c2sc" horiz-adv-x="917" 
d="M662 0h-105l-76 -164q45 14 88 14q94 0 148.5 -53.5t54.5 -156.5q0 -133 -86 -201t-237 -68t-261 72l72 166q18 -15 72 -38q56 -24 110 -24q111 0 111 84q0 31 -17.5 49.5t-50.5 18.5q-49 0 -82 -39l-145 49l109 291h-31v782h-289v275h903v-275h-288v-782z" />
    <glyph glyph-name="uni0162.swash" horiz-adv-x="1490" 
d="M1128 0h-81l-54 -115q40 13 88 15q94 0 147.5 -54t53.5 -157q0 -66 -22 -116.5t-63.5 -84.5t-101 -51t-134.5 -17q-152 0 -263 72l74 164q8 -7 26 -16.5t46 -20.5q54 -22 108 -22q113 0 113 84q0 31 -17.5 49t-50.5 18q-49 0 -82 -39l-145 49l88 242h-63v1122h-220
q-147 0 -213.5 -53t-66.5 -160q0 -209 246 -209v-272q-144 0 -251 41t-169 111q-62 69 -91.5 152.5t-29.5 182.5q0 106 28.5 192.5t92.5 161.5q63 75 182.5 115.5t288.5 40.5h876v-303h-340v-1122z" />
    <glyph glyph-name="uni01CD.swash" horiz-adv-x="1701" 
d="M1169 1575h-256l-274 471h248l155 -215l156 215h248zM1341 0l-77 272h-428l-70 -272h-328l334 1157h-190q-297 0 -297 -201q0 -193 227 -196l-70 -250q-120 10 -208.5 51t-136.5 106t-70.5 135.5t-22.5 151.5q0 75 16 139t61 127q44 62 113 107t180.5 71.5t258.5 26.5
h219v2h389l449 -1427h-349zM903 541h285l-152 530z" />
    <glyph glyph-name="uni01CE.aalt" horiz-adv-x="1204" 
d="M719 1202h-256l-246 457h219l156 -234l156 234h219zM848 0l-57 166h-406l-49 -166h-307l366 1057h379l400 -1057h-326zM451 385h266l-142 418z" />
    <glyph glyph-name="uni01CF.swash" horiz-adv-x="1126" 
d="M973 1575h-256l-277 471h250l156 -215l153 215h250zM659 1425l332 2v-1427h-332v1137h-67q-158 0 -227.5 -48.5t-69.5 -144.5q0 -201 231 -201v-272q-140 0 -244 40t-164 108q-61 68 -89.5 151t-28.5 180q0 99 28.5 179.5t94.5 150.5t188 107.5t297 37.5h51z" />
    <glyph glyph-name="uni01D0.aalt" horiz-adv-x="571" 
d="M414 1208h-256l-246 457h219l156 -233l155 233h220zM123 0v1057h326v-1057h-326z" />
    <glyph glyph-name="uni01D1.swash" horiz-adv-x="1548" 
d="M928 1575h-256l-275 471h248l156 -215l155 215h248zM1501 672q8 -314 -193 -510q-202 -197 -534 -195q-334 1 -528 201q-195 200 -195 549q0 344 203 544q202 199 520 199q214 0 317 -108q103 -109 103 -281v-22l94 77q46 -31 84.5 -76.5t66.5 -103t44 -126.5t18 -148z
M774 289q177 0 280 100t103 244q0 102 -41 176q-136 -193 -479 -193l4 275q78 0 145 34q66 33 66 101q0 54 -37 83.5t-98 29.5q-138 0 -226 -112q-90 -112 -90 -292q0 -208 102 -327q101 -119 271 -119z" />
    <glyph glyph-name="uni01D2.aalt" horiz-adv-x="1286" 
d="M772 1208h-256l-248 457h219l156 -233l156 233h219zM643 1090q263 0 423 -148q161 -149 161 -412t-156 -412q-157 -149 -428 -149q-269 0 -427 149q-157 148 -157 412q0 263 160 411q161 149 424 149zM643 283q111 0 176 68q64 67 64 179q0 108 -65 178q-66 68 -174 68
t-176 -68q-67 -68 -67 -178q0 -112 67 -179q66 -68 175 -68z" />
    <glyph glyph-name="uni01D3.swash" horiz-adv-x="1902" 
d="M1391 1575h-256l-277 471h250l154 -215l155 215h248zM1475 1427h331v-829q0 -305 -151 -468t-422 -163q-267 0 -422 165q-154 164 -154 466v539h-82q-147 0 -213.5 -49.5t-66.5 -147.5q0 -197 231 -197v-272q-140 0 -244 40t-164 108q-61 68 -89.5 150t-28.5 179
q0 99 28.5 180.5t92.5 151.5q63 70 182.5 107.5t288.5 37.5h65v2h332v-849q0 -134 66 -214q64 -79 178 -79q115 0 178.5 77t63.5 216v849z" />
    <glyph glyph-name="uni01D4.aalt" horiz-adv-x="1112" 
d="M684 1208h-256l-246 457h219l156 -233l156 233h219zM702 1057h326v-621q0 -227 -124 -347t-347 -120t-348 122t-125 345v621h326v-598q0 -87 38.5 -133.5t108.5 -46.5q72 0 108.5 46.5t36.5 133.5v598z" />
    <glyph glyph-name="uni0218.aalt" horiz-adv-x="894" 
d="M520 657q158 -41 242 -124.5t84 -225.5q0 -171 -110 -257q-110 -85 -294 -85q-240 0 -403 94l98 267q116 -90 273 -90q49 0 76.5 19t27.5 54t-27 51.5t-90 32.5q-330 71 -329 363q0 78 25.5 140.5t76.5 106t127 66.5t176 23q227 0 381 -84l-127 -263q-101 70 -240 70
q-90 0 -90 -63q0 -37 30 -57t93 -38zM446 -100q92 0 149 -68q56 -68 56 -178q0 -268 -282 -395l-103 151q72 33 114 64.5t66 79.5h-6q-71 0 -118 46q-48 46 -48 126q0 75 48 125q48 49 124 49z" />
    <glyph glyph-name="uni021A.swash" horiz-adv-x="1490" 
d="M592 1425h876v-303h-340v-1122h-333v1122h-220q-147 0 -213.5 -53t-66.5 -160q0 -209 246 -209v-272q-144 0 -251 41t-169 111q-62 69 -91.5 152.5t-29.5 182.5q0 106 28.5 192.5t92.5 161.5q63 75 182.5 115.5t288.5 40.5zM958 -100q92 0 149 -68q56 -68 56 -178
q0 -268 -282 -395l-103 151q72 33 114 64.5t66 79.5h-8q-69 0 -116 46q-48 46 -48 126q0 39 12.5 71t35.5 55t54.5 35.5t69.5 12.5z" />
    <glyph glyph-name="uni021B.aalt" horiz-adv-x="997" 
d="M47 1057h903v-275h-288v-782h-326v782h-289v275zM496 -100q92 0 148 -68t56 -178q0 -268 -282 -395l-105 151q72 33 115 64.5t66 79.5h-7q-69 0 -116 46q-49 46 -49 126q0 78 49 126q50 48 125 48z" />
    <glyph glyph-name="uni0302.aalt" 
d="M-23 1126h-247l-156 215l-156 -215h-247l276 471h256z" />
    <glyph glyph-name="uni0304.aalt" 
d="M-762 1202v264h721v-264h-721z" />
    <glyph glyph-name="uni0306.aalt" 
d="M-799 1573h246q-2 -111 27.5 -172.5t105.5 -61.5t104.5 61.5t26.5 172.5h246q12 -218 -83.5 -328t-293.5 -110t-294.5 110t-84.5 328z" />
    <glyph glyph-name="uni0307.aalt" 
d="M-337 1198q-52 51 -52 124t52 125t124 52q75 0 124 -52q50 -53 50 -125t-50 -124q-50 -51 -124 -51q-72 0 -124 51z" />
    <glyph glyph-name="uni0308.aalt" 
d="M-647 1147q-72 0 -123 51t-51 123t51 123t123 51t122 -51q50 -52 50 -123t-50 -123q-50 -51 -122 -51zM-209 1147q-72 0 -123 51t-51 123t51 123t123 51t122 -51q50 -52 50 -124q0 -73 -50 -123t-122 -50z" />
    <glyph glyph-name="uni030A.aalt" 
d="M-515 1183q-75 72 -75 195q0 124 75 197q76 74 206 74q131 0 206 -76q76 -76 76 -194q0 -119 -75 -194q-74 -75 -207 -75q-132 0 -206 73zM-207 1378q0 49 -27.5 79t-73.5 30t-74 -30t-28 -79t28 -76.5t74 -27.5t73.5 27.5t27.5 76.5z" />
    <glyph glyph-name="uni030B.aalt" 
d="M-500 1579l-213 -453h-192l102 453h303zM-25 1579l-342 -453h-219l248 453h313z" />
    <glyph glyph-name="uni030C.aalt" 
d="M-246 1597h248l-276 -471h-256l-275 471h248l156 -215z" />
    <glyph glyph-name="uni0327.aalt" 
d="M-244 -86q94 0 148.5 -53t54.5 -158q0 -66 -22 -116.5t-63.5 -84t-101 -50.5t-134.5 -17q-151 0 -263 71l74 166q8 -7 25.5 -16.5t45.5 -21.5q57 -23 109 -23q111 0 111 84q0 31 -17.5 50t-48.5 19q-51 0 -82 -40l-145 49l107 293h192l-76 -166q42 14 86 14z" />
    <glyph glyph-name="uni0328.c2sc" horiz-adv-x="645" 
d="M299 -563q-127 0 -191.5 64.5t-64.5 172.5q0 67 28 130.5t83.5 119.5t139.5 103t195 82l62 -95q-55 -33 -99 -64t-74.5 -62.5t-46.5 -65t-16 -70.5q0 -84 84 -84q73 0 152 49l49 -209q-137 -71 -301 -71z" />
    <glyph glyph-name="uni0328.case" 
d="M-496 -563q-65 0 -113.5 17t-81 48t-49 74.5t-16.5 95.5q0 69 29 130.5t84 116.5t134.5 101.5t180.5 85.5l115 -59q-268 -145 -268 -291q0 -88 86 -88q75 0 145 41l49 -207q-128 -65 -295 -65z" />
    <glyph glyph-name="uogonek.aalt" horiz-adv-x="1112" 
d="M702 1057h326v-621q0 -317 -237 -424q-109 -63 -169.5 -124.5t-60.5 -135.5q0 -84 84 -84q70 0 152 49l49 -206q-136 -72 -303 -72q-63 0 -111 17t-79.5 47.5t-47.5 74t-16 96.5q0 173 170 301q-89 13 -158.5 50.5t-117.5 96t-73.5 137.5t-25.5 177v621h326v-598
q0 -87 38.5 -133.5t108.5 -46.5q72 0 108.5 46.5t36.5 133.5v598z" />
    <glyph glyph-name="uring.aalt" horiz-adv-x="1112" 
d="M340 1301q-80 77 -80 203q0 125 80 205q79 79 217 79q135 0 216 -81t81 -203q0 -121 -80 -201t-217 -80t-217 78zM672 1503q0 57 -32 90t-83 33t-83 -33t-32 -89t32 -88t83 -32t83 32t32 87zM557 -31q-223 0 -348 122t-125 345v621h326v-598q0 -87 38.5 -133.5
t108.5 -46.5q72 0 108.5 46.5t36.5 133.5v598h326v-621q0 -227 -124 -347t-347 -120z" />
    <glyph glyph-name="v.aalt" horiz-adv-x="1167" 
d="M766 1059l364 -2l-358 -1057h-410l-325 1057l377 2l129 -543q13 -87 21.5 -152t13.5 -110q7 62 17 128t23 138z" />
    <glyph glyph-name="w.salt" horiz-adv-x="1452" 
d="M1133 979h307l-293 -979h-316l-126 354l-156 -354h-301l-234 979h312l118 -698l140 411l-103 287h496l-115 -262l121 -410z" />
    <glyph glyph-name="wacute.salt" horiz-adv-x="1452" 
d="M1087 1581l-270 -453h-217l174 453h313zM1133 979h307l-293 -979h-316l-126 354l-156 -354h-301l-234 979h312l118 -698l140 411l-103 287h496l-115 -262l121 -410z" />
    <glyph glyph-name="wcircumflex.salt" horiz-adv-x="1452" 
d="M727 1362l-158 -234h-219l248 457h256l248 -457h-219zM1133 979h307l-293 -979h-316l-126 354l-156 -354h-301l-234 979h312l118 -698l140 411l-103 287h496l-115 -262l121 -410z" />
    <glyph glyph-name="wdieresis.salt" horiz-adv-x="1452" 
d="M498 1198q-69 0 -121 50q-51 50 -51 122t51 123t121 51q73 0 122 -51q50 -52 50 -123q0 -72 -50 -122t-122 -50zM954 1198q-72 0 -122 50t-50 122t51 123q50 51 121 51q73 0 122 -51q50 -52 50 -123q0 -72 -50 -122t-122 -50zM1133 979h307l-293 -979h-316l-126 354
l-156 -354h-301l-234 979h312l118 -698l140 411l-103 287h496l-115 -262l121 -410z" />
    <glyph glyph-name="wgrave.salt" horiz-adv-x="1452" 
d="M846 1128h-217l-271 453h314zM1133 979h307l-293 -979h-316l-126 354l-156 -354h-301l-234 979h312l118 -698l140 411l-103 287h496l-115 -262l121 -410z" />
    <glyph glyph-name="x.aalt" horiz-adv-x="1095" 
d="M1059 0h-352l-160 369l-154 -369h-356l282 551l-266 506h353l149 -348l137 348h350l-258 -506z" />
    <glyph glyph-name="y.salt" horiz-adv-x="1073" 
d="M733 979h332l-438 -1159q-66 -177 -165 -266t-243 -89q-134 0 -231 74l71 275q71 -59 127 -60q94 0 158 142l37 84l-377 999h338l193 -625z" />
    <glyph glyph-name="yacute.salt" horiz-adv-x="1073" 
d="M899 1581l-270 -453h-217l174 453h313zM733 979h332l-438 -1159q-66 -177 -165 -266t-243 -89q-134 0 -231 74l71 275q71 -59 127 -60q94 0 158 142l37 84l-377 999h338l193 -625z" />
    <glyph glyph-name="ycircumflex.salt" horiz-adv-x="1073" 
d="M537 1362l-156 -234h-219l248 457h256l245 -457h-219zM733 979h332l-438 -1159q-66 -177 -165 -266t-243 -89q-134 0 -231 74l71 275q71 -59 127 -60q94 0 158 142l37 84l-377 999h338l193 -625z" />
    <glyph glyph-name="ydieresis.salt" horiz-adv-x="1073" 
d="M309 1198q-72 0 -122 50t-50 122t52 123q51 51 120 51q73 0 122 -51q50 -52 50 -123q0 -72 -50 -122t-122 -50zM766 1198q-71 0 -123 50q-51 50 -51 122t51 123t123 51q73 0 122 -51q50 -52 50 -123q0 -72 -50 -122t-122 -50zM733 979h332l-438 -1159q-66 -177 -165 -266
t-243 -89q-134 0 -231 74l71 275q71 -59 127 -60q94 0 158 142l37 84l-377 999h338l193 -625z" />
    <glyph glyph-name="ygrave.aalt" horiz-adv-x="1071" 
d="M655 1208h-217l-270 451h313zM1034 1057l-332 -719v-338h-323v324l-340 733h352l148 -441l145 441h350z" />
    <glyph glyph-name="z.aalt" horiz-adv-x="937" 
d="M475 279h424v-279h-833v272l385 510h-406v275h821v-271z" />
    <glyph glyph-name="zacute.aalt" horiz-adv-x="937" 
d="M838 1659l-271 -451h-217l172 451h316zM475 279h424v-279h-833v272l385 510h-406v275h821v-271z" />
    <glyph glyph-name="zcaron.aalt" horiz-adv-x="937" 
d="M602 1208h-256l-246 457h219l156 -233l156 233h219zM475 279h424v-279h-833v272l385 510h-406v275h821v-271z" />
    <glyph glyph-name="zdotaccent.aalt" horiz-adv-x="937" 
d="M479 1237q-71 0 -124 51q-52 51 -52 125q0 73 53 126q52 52 123 52q76 0 127 -52t51 -126t-51 -125t-127 -51zM475 279h424v-279h-833v272l385 510h-406v275h821v-271z" />
    </font>
</defs>
</svg>
