<?xml version="1.0" standalone="no"?>
<!DOCTYPE svg PUBLIC "-//W3C//DTD SVG 1.1//EN" "http://www.w3.org/Graphics/SVG/1.1/DTD/svg11.dtd" >
<svg xmlns="http://www.w3.org/2000/svg" xmlns:xlink="http://www.w3.org/1999/xlink" version="1.1">
<metadata>
Created by FontForge 20230101 at Wed Jul 26 10:39:03 2017
 By Pablo Velazquez
Copyright (c) 2017 by Emil Bertell. All rights reserved.
</metadata>
<defs>
<font id="Karu-ExtraLightItalic" horiz-adv-x="0" >
  <font-face 
    font-family="Karu ExtraLight Italic"
    font-weight="100"
    font-style="italic"
    font-stretch="normal"
    units-per-em="2048"
    panose-1="0 0 3 0 0 0 0 0 0 0"
    ascent="1638"
    descent="-410"
    x-height="971"
    cap-height="1419"
    bbox="-1411 -623 2572 2091"
    underline-thickness="0"
    underline-position="0"
    unicode-range="U+000D-FB02"
  />
<missing-glyph horiz-adv-x="1011" 
d="M829 1522v-2022h-641v2022h641zM674 1386h-334v-67h131v-74h-133v-67h336v67h-133v74h133v67zM541 1126h-203v-211h336v68h-133v143zM471 1057v-74h-68v74h68zM674 860h-336v-65h133v-76h-133v-66h203v142h133v65zM674 739h-68v-133h-268v-69h336v202zM674 494h-203v-115
h70v47h65v-94h-203v162h-65v-230h336v230zM674 143h-336v-229h336v229zM606 76v-94h-203v94h203zM674 -131h-336v-68h141l-141 -94v-67h336v67h-207l141 94h66v68z" />
    <glyph glyph-name="uniFB01" unicode="fi" horiz-adv-x="1003" 
d="M707 1499q-123 0 -196 -70t-105 -266l-33 -192h536l-161 -971h-58l154 920h-479l-228 -1358h-57l227 1358h-180l8 51h180l33 192q39 225 129 306t232 81q161 0 286 -73l-26 -52q-34 26 -112 51q-80 23 -150 23z" />
    <glyph glyph-name="uniFB02" unicode="fl" horiz-adv-x="966" 
d="M729 1550q160 0 242 -45l-248 -1505h-57l241 1473q-81 27 -180 26q-124 0 -206 -68q-81 -69 -111 -247l-35 -213h227l-8 -51h-229l-228 -1358h-57l227 1358h-180l8 51h182l35 213q34 208 134 288q98 78 243 78z" />
    <glyph glyph-name="f_b.liga" unicode="fb" horiz-adv-x="1720" 
d="M1288 999q61 0 119.5 -20.5t114.5 -63.5t89.5 -123t33.5 -188q0 -257 -157 -444q-157 -189 -407 -189q-230 0 -333 205l-35 -176h-47l243 1470q-78 29 -204 29q-244 0 -289 -276l-43 -252h229l-8 -51h-229l-228 -1358h-57l227 1358h-180l8 51h180l43 252q53 329 349 327
q160 0 266 -45l-121 -729q72 109 186 166t250 57zM1090 29q202 0 348 170q145 169 145 401q0 100 -29.5 172t-77.5 107q-49 35 -97 50t-99 15q-136 0 -252 -68t-194 -206l-68 -408v-2q43 -109 126.5 -170t197.5 -61z" />
    <glyph glyph-name="f_f_i.liga" unicode="ffi" horiz-adv-x="1583" 
d="M1286 1499q-124 0 -195 -70q-73 -70 -106 -266l-33 -192h537l-162 -971h-57l153 920h-479l-227 -1358h-58l228 1358h-522l-228 -1358h-57l227 1358h-180l8 51h180l54 315q45 264 258 264q105 0 202 -57l-26 -51q-82 57 -178 57q-84 0 -131.5 -50t-67.5 -163l-53 -315h522
l33 192q39 225 129 306t231 81q160 0 287 -73l-27 -52q-34 26 -112 51q-80 23 -150 23z" />
    <glyph glyph-name="f_f_l.liga" unicode="ffl" horiz-adv-x="1505" 
d="M1268 1550q160 0 241 -45l-247 -1505h-58l242 1473q-81 27 -180 26q-124 0 -206 -68q-81 -69 -112 -247l-35 -213h228l-8 -51h-230l-227 -1358h-58l228 1358h-475l-234 -1358h-57l233 1358h-186l8 51h189l43 254q27 183 106 254t195 71q186 0 333 -102q93 102 267 102z
M891 1184q22 139 80 225q-123 90 -305 90q-98 0 -159 -61q-60 -60 -83 -213l-43 -254h475z" />
    <glyph glyph-name="f_h.liga" unicode="fh" horiz-adv-x="1656" 
d="M1257 999q159 0 226 -103t37 -282l-103 -618h-57l102 616q57 332 -213 332q-64 0 -123.5 -20t-112.5 -56.5t-99 -88.5t-83 -117l-108 -662h-57l241 1473q-81 27 -190 26q-124 0 -200 -64q-78 -65 -103 -231l-39 -233h227l-8 -51h-227l-230 -1358h-57l229 1358h-182l8 51
h182l39 233q33 197 128 272q95 74 235 74t252 -45l-123 -743q71 107 176 172q107 65 233 65z" />
    <glyph glyph-name="f_k.liga" unicode="fk" horiz-adv-x="1486" 
d="M1491 971l-377 -348l262 -623h-67l-242 580l-293 -273l-51 -307h-57l241 1473q-75 27 -172 26q-138 0 -217 -70q-81 -71 -112 -266l-33 -192h229l-8 -51h-229l-228 -1358h-57l227 1358h-180l8 51h180l33 192q39 225 137 306t250 81q143 0 236 -45l-185 -1114l625 580h80z
" />
    <glyph glyph-name=".notdef" horiz-adv-x="1011" 
d="M829 1522v-2022h-641v2022h641zM674 1386h-334v-67h131v-74h-133v-67h336v67h-133v74h133v67zM541 1126h-203v-211h336v68h-133v143zM471 1057v-74h-68v74h68zM674 860h-336v-65h133v-76h-133v-66h203v142h133v65zM674 739h-68v-133h-268v-69h336v202zM674 494h-203v-115
h70v47h65v-94h-203v162h-65v-230h336v230zM674 143h-336v-229h336v229zM606 76v-94h-203v94h203zM674 -131h-336v-68h141l-141 -94v-67h336v67h-207l141 94h66v68z" />
    <glyph glyph-name=".null" 
 />
    <glyph glyph-name="nonmarkingreturn" unicode="&#xd;" horiz-adv-x="512" 
 />
    <glyph glyph-name="space" unicode=" " horiz-adv-x="481" 
 />
    <glyph glyph-name="exclam" unicode="!" horiz-adv-x="485" 
d="M420 1419l-178 -1081h-56l160 1081h74zM78 59q0 21 8 39t21.5 32t32.5 22t40 8q37 0 61.5 -25.5t24.5 -62.5q0 -43 -29 -71t-71 -28q-39 0 -63.5 24.5t-24.5 61.5z" />
    <glyph glyph-name="quotedbl" unicode="&#x22;" horiz-adv-x="520" 
d="M354 1522l-90 -578h-51l70 578h71zM586 1522l-111 -578h-51l90 578h72z" />
    <glyph glyph-name="numbersign" unicode="#" horiz-adv-x="1236" 
d="M1257 1034h-178l-209 -555h269l-25 -51h-262l-162 -428h-59l162 428h-510l-162 -428h-60l162 428h-178l25 51h172l209 555h-263l25 51h258l125 334h59l-125 -334h510l125 334h60l-125 -334h182zM811 479l209 555h-510l-209 -555h510z" />
    <glyph glyph-name="dollar" unicode="$" horiz-adv-x="985" 
d="M969 1184q-140 126 -305 149l-97 -594q156 -63 240 -144t84 -220q0 -117 -65 -200q-66 -82 -159 -117q-96 -35 -204 -35h-12l-27 -164h-55l26 168q-220 20 -397 196l35 56q150 -171 373 -197l98 614l-15 6q-72 30 -129 65.5t-96 78t-59.5 93.5t-20.5 114q0 162 110 251
t292 89h30l27 159h55l-26 -166q176 -26 332 -155zM514 762l94 575h-18q-154 0 -248 -70t-94 -210q0 -54 17.5 -97.5t51 -79t83.5 -64t114 -54.5zM827 367q0 117 -68 182q-70 66 -202 125l-96 -594h4q151 0 257 74q105 74 105 213z" />
    <glyph glyph-name="percent" unicode="%" horiz-adv-x="1550" 
d="M414 770q-119 0 -194 79q-75 80 -75 208q0 162 114 277q114 114 292 114q62 0 111 -19t83.5 -56t53 -89.5t18.5 -120.5q0 -160 -116 -276q-117 -117 -287 -117zM397 0l791 1419h59l-790 -1419h-60zM422 823q141 0 240 105q98 104 98 235q0 109 -56 171.5t-161 62.5
q-147 0 -243 -100q-97 -100 -97 -240q0 -103 55 -168q56 -66 164 -66zM1077 -29q-120 0 -193 79q-75 80 -75 208q0 162 114 277q113 114 291 114q62 0 111 -19t84 -55.5t53.5 -89t18.5 -120.5q0 -160 -117 -277t-287 -117zM1085 25q141 0 240 104q98 104 98 236
q0 109 -55.5 171t-161.5 62q-147 0 -243 -100q-97 -100 -97 -240q0 -103 55 -167q56 -66 164 -66z" />
    <glyph glyph-name="ampersand" unicode="&#x26;" horiz-adv-x="1245" 
d="M1247 696q-57 -329 -291 -532l121 -164h-78l-92 125q-206 -154 -481 -154q-79 0 -142 20t-106.5 58t-66.5 93.5t-23 125.5q0 293 393 434q-141 200 -141 369q0 168 114 273q113 104 302 104q138 0 224 -74q85 -73 85 -207q0 -304 -487 -491l346 -469q213 182 264 489h59z
M743 1391q-153 0 -247 -88q-95 -89 -95 -232q0 -157 138 -342l8 -12q204 77 329 190t125 260q0 105 -65 164.5t-193 59.5zM430 27q246 0 444 141l-362 491q-173 -63 -267 -155q-93 -91 -93 -238q0 -110 77 -175q76 -64 201 -64z" />
    <glyph glyph-name="quotesingle" unicode="'" horiz-adv-x="288" 
d="M354 1522l-100 -578h-51l80 578h71z" />
    <glyph glyph-name="parenleft" unicode="(" horiz-adv-x="477" 
d="M590 1714l43 -33q-318 -405 -416 -1007q-94 -601 92 -1051l-51 -24q-97 217 -123 519t21 560q45 283 159 562q112 278 275 474z" />
    <glyph glyph-name="parenright" unicode=")" horiz-adv-x="479" 
d="M-57 -424l-43 33q319 406 415 1007q94 601 -92 1051l51 25q49 -109 80 -238t44 -281q26 -303 -21 -561q-23 -143 -62 -282.5t-96 -279.5q-114 -279 -276 -474z" />
    <glyph glyph-name="asterisk" unicode="*" horiz-adv-x="755" 
d="M852 1196l-334 -86l150 -307l-52 -25l-133 316l-225 -287l-43 31l238 276l-301 137l24 52l295 -154l43 336l55 -6l-59 -334l332 104z" />
    <glyph glyph-name="plus" unicode="+" horiz-adv-x="1103" 
d="M1030 719l-8 -51h-410l-71 -451h-56l72 451h-414l9 51h413l66 422h55l-65 -422h409z" />
    <glyph glyph-name="comma" unicode="," horiz-adv-x="333" 
d="M127 139q84 -6 84 -123q0 -127 -84 -253q-84 -125 -209 -173l-22 48q213 85 258 354q-27 -19 -62 -21q-61 0 -61 72q0 23 8 41t21.5 30.5t31 19t35.5 5.5z" />
    <glyph glyph-name="hyphen" unicode="-" horiz-adv-x="800" 
d="M74 549l8 51h674l-8 -51h-674z" />
    <glyph glyph-name="period" unicode="." horiz-adv-x="380" 
d="M35 39q0 21 8 38.5t21.5 31t31 21t35.5 7.5q35 0 54.5 -20.5t19.5 -50.5q0 -38 -32 -67q-31 -28 -69 -28q-33 0 -51 19.5t-18 48.5z" />
    <glyph glyph-name="slash" unicode="/" horiz-adv-x="860" 
d="M934 1677l-946 -1906h-62l946 1906h62z" />
    <glyph glyph-name="zero" unicode="0" horiz-adv-x="1236" 
d="M528 -29q-182 0 -300 133q-119 133 -119 412q0 392 200 663q200 269 484 269q172 0 292 -128q119 -128 119 -392q0 -258 -78 -474q-80 -217 -236 -349q-158 -134 -362 -134zM537 29q261 0 433 258q173 259 173 631q0 242 -101 358q-102 115 -258 115q-254 0 -434 -258
q-180 -259 -180 -605q0 -260 99 -379q98 -120 268 -120z" />
    <glyph glyph-name="one" unicode="1" horiz-adv-x="534" 
d="M471 1419l-233 -1419h-60l225 1370l-184 -2l8 51h244z" />
    <glyph glyph-name="two" unicode="2" horiz-adv-x="1013" 
d="M512 387l-385 -336h791l-11 -51h-862l8 51l420 373q214 191 325 347q111 158 111 337q0 145 -74.5 214t-205.5 69q-205 0 -426 -170l-27 45q233 182 463 182q143 0 237 -84q93 -84 93 -254q0 -194 -122 -366q-121 -170 -335 -357z" />
    <glyph glyph-name="three" unicode="3" horiz-adv-x="991" 
d="M575 731q128 -19 217 -105q87 -85 87 -225q0 -195 -138 -312q-139 -118 -346 -118q-110 0 -220 48q-55 23 -101.5 54.5t-85.5 69.5l35 47q164 -162 383 -161q167 0 289 100q122 101 122 268q0 151 -107 228q-108 75 -264 75h-90l13 62h88q155 0 295 109q141 108 141 276
q0 121 -75 184q-76 62 -191 62q-243 0 -445 -170l-26 45q218 180 481 180q127 0 222 -68q95 -69 95 -227q0 -167 -116 -277q-117 -111 -263 -145z" />
    <glyph glyph-name="four" unicode="4" horiz-adv-x="1116" 
d="M1055 362l-11 -51h-206l-52 -311h-61l51 311h-764l11 62l911 1048h88l-176 -1059h209zM84 362h702l164 996z" />
    <glyph glyph-name="five" unicode="5" horiz-adv-x="987" 
d="M961 1366h-637l-109 -659q65 61 163 100t200 39q137 0 234 -88t97 -271q0 -249 -143 -383q-142 -133 -365 -133q-126 0 -228 40q-105 41 -165 98l33 51q131 -131 371 -131q174 0 304 112q130 111 130 338q0 155 -76 232q-77 77 -199 77t-221 -49q-100 -49 -162 -114
l-45 18l129 776h699z" />
    <glyph glyph-name="six" unicode="6" horiz-adv-x="1155" 
d="M817 1448q197 0 330 -133l-39 -47q-123 127 -293 127q-246 0 -428 -236q-183 -238 -199 -598q61 133 194 218q131 85 302 85q69 0 132 -19.5t120 -62.5t91 -120t34 -183q0 -219 -146 -363q-146 -145 -383 -145q-174 0 -292 121q-119 122 -119 389q0 263 87 483
q86 219 248 352q161 132 361 132zM672 805q-189 0 -331 -128q-142 -127 -142 -298q0 -154 91 -251t251 -97q191 0 322 124q132 125 132 316q0 180 -95 257t-228 77z" />
    <glyph glyph-name="seven" unicode="7" horiz-adv-x="905" 
d="M164 1419h790l-665 -1419h-70l653 1366h-716z" />
    <glyph glyph-name="eight" unicode="8" horiz-adv-x="1148" 
d="M752 731q130 -19 209 -106q77 -86 77 -224q0 -204 -154 -316q-154 -114 -415 -114q-75 0 -139.5 16.5t-127.5 53.5t-98.5 107t-35.5 167q0 172 112 281q111 110 271 135q-92 28 -158 106q-64 76 -64 193q0 172 130 295q131 123 360 123q174 0 280 -82q105 -82 105 -238
q0 -157 -107 -261q-107 -103 -245 -136zM293 1038q0 -70 22 -122.5t63 -87t98.5 -51.5t129.5 -17q173 0 304 109q132 108 132 250q0 141 -91 207q-92 65 -240 65q-188 0 -303 -100t-115 -253zM477 33q234 0 367 102q133 100 133 258q0 164 -108 236q-110 71 -275 71
q-200 0 -331 -106q-132 -106 -132 -264q0 -297 346 -297z" />
    <glyph glyph-name="nine" unicode="9" horiz-adv-x="1134" 
d="M678 1448q162 0 279 -125q116 -125 116 -393q0 -254 -75 -470q-76 -215 -228 -352t-350 -137q-229 0 -391 172l41 56q60 -75 149 -121.5t197 -46.5q245 0 405 222q160 221 187 607q-68 -130 -195 -209q-128 -80 -285 -80q-153 0 -254 93q-100 91 -100 262q0 202 141 362
q139 160 363 160zM543 633q184 0 321 125t137 256q0 165 -97 271t-238 106q-183 0 -304 -142q-122 -143 -122 -317q0 -142 79.5 -220.5t223.5 -78.5z" />
    <glyph glyph-name="colon" unicode=":" horiz-adv-x="380" 
d="M162 817q0 21 8 38.5t21.5 31t31 21t35.5 7.5q35 0 54.5 -20.5t19.5 -50.5q0 -39 -32 -66q-31 -28 -69 -28q-33 0 -51 19t-18 48zM35 39q0 21 8 38.5t21.5 31t31 21t35.5 7.5q35 0 54.5 -20.5t19.5 -50.5q0 -38 -32 -67q-31 -28 -69 -28q-33 0 -51 19.5t-18 48.5z" />
    <glyph glyph-name="semicolon" unicode=";" horiz-adv-x="333" 
d="M236 889q35 0 54 -20.5t19 -51.5q0 -39 -31 -66q-31 -28 -69 -28q-33 0 -51.5 19.5t-18.5 48.5q0 20 8.5 38t22 31.5t31 21t35.5 7.5zM127 139q84 -6 84 -123q0 -127 -84 -253q-84 -125 -209 -173l-22 48q213 85 258 354q-27 -19 -62 -21q-61 0 -61 72q0 23 8 41
t21.5 30.5t31 19t35.5 5.5z" />
    <glyph glyph-name="less" unicode="&#x3c;" horiz-adv-x="917" 
d="M915 1094l-10 -62l-799 -354l689 -352l-11 -62l-729 381l8 55l3 13z" />
    <glyph glyph-name="equal" unicode="=" horiz-adv-x="1122" 
d="M182 907h893l-8 -51h-893zM111 457h893l-9 -51h-893z" />
    <glyph glyph-name="greater" unicode="&#x3e;" horiz-adv-x="919" 
d="M930 713l-8 -56l-2 -12l-852 -381l10 62l801 354l-691 352l11 62z" />
    <glyph glyph-name="question" unicode="?" horiz-adv-x="970" 
d="M938 1106q0 -189 -136 -304q-137 -116 -329 -128l-43 -277h-61l43 328q189 -4 328 104q137 107 137 273q0 141 -83 215t-202 74q-204 0 -377 -146l-25 47q173 154 406 154q148 0 245 -87t97 -253zM350 162q37 0 61.5 -25.5t24.5 -62.5q0 -41 -30 -70q-32 -29 -70 -29
q-39 0 -63.5 24t-24.5 60q0 45 29.5 74t72.5 29z" />
    <glyph glyph-name="at" unicode="@" horiz-adv-x="1806" 
d="M1300 156q-82 0 -123.5 49.5t-41.5 134.5q-56 -102 -155 -160q-101 -59 -210 -59q-124 0 -194 80.5t-70 232.5q0 211 121 368q122 156 313 156q109 0 174.5 -57t85.5 -151v6l45 184h43l-82 -491q-45 -238 107 -238q100 0 172 87q71 88 101 205q30 119 30 249
q0 279 -156 438q-158 158 -393 158q-259 0 -468 -141q-209 -143 -318 -370q-111 -229 -111 -495q0 -265 153 -426q151 -160 451 -160t535 117l10 -55q-267 -119 -555 -119q-303 0 -479 164t-176 467q0 291 121 534q119 243 344 392q224 147 501 147q257 0 430 -169
q174 -169 174 -468q0 -248 -100 -429t-279 -181zM778 176q129 0 239 86q108 84 140 238l10 63q2 11 3 28t1 40q0 69 -17 120.5t-48.5 85t-75.5 50t-98 16.5q-162 0 -261 -139q-100 -139 -100 -330q0 -122 58 -189q57 -69 149 -69z" />
    <glyph glyph-name="A" unicode="A" horiz-adv-x="1224" 
d="M1026 0l-88 451h-659l-242 -451h-66l766 1419h70l283 -1419h-64zM307 504h621l-166 842z" />
    <glyph glyph-name="B" unicode="B" horiz-adv-x="1247" 
d="M901 748q130 -20 199 -99t69 -200q0 -206 -151 -327q-152 -122 -430 -122h-463l235 1419h474q84 0 150.5 -18.5t112.5 -54.5t70.5 -89t24.5 -122q0 -143 -78 -244q-78 -103 -213 -143zM410 1366l-99 -600h449q145 0 258 101q112 100 112 259q0 119 -80.5 179.5
t-222.5 60.5h-417zM598 53q221 0 366 103q144 102 144 290q0 135 -85 202t-237 67h-483l-110 -662h405z" />
    <glyph glyph-name="C" unicode="C" horiz-adv-x="1296" 
d="M645 -29q-198 0 -360 136q-81 68 -128.5 189t-47.5 282q0 377 237 624q236 246 586 246q262 0 448 -150l-41 -49q-174 143 -415 144q-322 0 -538 -232t-216 -579q0 -146 43 -257t115 -173t152 -92.5t167 -30.5q155 0 296 50q140 50 235 128l12 -62q-234 -174 -545 -174z
" />
    <glyph glyph-name="D" unicode="D" horiz-adv-x="1413" 
d="M768 1419q284 0 439 -136q155 -137 155 -411q0 -225 -78 -399q-78 -173 -206 -273q-129 -100 -277.5 -150t-311.5 -50h-362l233 1419h408zM483 53q114 0 223 24.5t219 86.5t190 152q81 90 132 234t51 322q0 244 -138 370t-400 126h-348l-217 -1315h288z" />
    <glyph glyph-name="E" unicode="E" horiz-adv-x="1118" 
d="M1217 1366h-803l-99 -590h654l-8 -53h-654l-112 -670h804l-8 -53h-864l233 1419h865z" />
    <glyph glyph-name="F" unicode="F" horiz-adv-x="1062" 
d="M1184 1366h-774l-97 -582h623l-8 -53h-623l-123 -731h-59l237 1419h832z" />
    <glyph glyph-name="G" unicode="G" horiz-adv-x="1419" 
d="M920 1393q-318 0 -533 -234q-215 -236 -215 -584q0 -283 153 -414q152 -132 386 -132q244 0 442 75l96 596h-479l8 54h541l-113 -695q-234 -88 -506 -88q-120 0 -221.5 33t-186.5 102t-133 189t-48 283q0 237 100 433q101 198 290 317q189 120 429 120q126 0 250 -45
q126 -46 215 -121l-43 -49q-179 160 -432 160z" />
    <glyph glyph-name="H" unicode="H" horiz-adv-x="1445" 
d="M1333 1419h60l-234 -1419h-59l121 731h-914l-121 -731h-59l233 1419h60l-105 -635h914z" />
    <glyph glyph-name="I" unicode="I" horiz-adv-x="473" 
d="M420 1419l-234 -1419h-59l233 1419h60z" />
    <glyph glyph-name="J" unicode="J" horiz-adv-x="884" 
d="M266 -29q-172 0 -313 129l33 56q118 -127 288 -127q292 0 357 374l174 1016h57l-170 -1018q-27 -165 -94 -263t-148 -133q-78 -34 -184 -34z" />
    <glyph glyph-name="K" unicode="K" horiz-adv-x="1193" 
d="M1272 1419l-594 -524l358 -895h-65l-340 854l-357 -313l-88 -541h-59l233 1419h60l-131 -801l903 801h80z" />
    <glyph glyph-name="L" unicode="L" horiz-adv-x="950" 
d="M193 53h679l-10 -53h-739l237 1419h60z" />
    <glyph glyph-name="M" unicode="M" horiz-adv-x="1658" 
d="M1540 1419h66l-234 -1419h-61l213 1278l-733 -1217h-54l-344 1237l-209 -1298h-57l233 1419h60l356 -1276z" />
    <glyph glyph-name="N" unicode="N" horiz-adv-x="1402" 
d="M1298 1419h56l-238 -1419h-63l-652 1325l-217 -1325h-57l233 1419h60l655 -1331z" />
    <glyph glyph-name="O" unicode="O" horiz-adv-x="1507" 
d="M647 -29q-103 0 -196 34t-171 103q-79 69 -126.5 191t-47.5 283q0 362 234 614q233 252 582 252q97 0 189.5 -32.5t177.5 -98.5q86 -66 138 -186t52 -277q1 -98 -20.5 -196t-62 -188.5t-99.5 -170.5t-134 -143q-100 -87 -232.5 -136t-283.5 -49zM655 29q220 0 398 121
q178 119 271 306q93 185 93 388q0 144 -42.5 252t-116.5 172q-74 63 -160.5 94t-186.5 31q-309 0 -526 -235t-217 -562q0 -288 138 -428q138 -139 349 -139z" />
    <glyph glyph-name="P" unicode="P" horiz-adv-x="1202" 
d="M864 1419q185 0 283 -88.5t98 -249.5q0 -233 -140 -370q-139 -138 -413 -138h-413l-97 -573h-59l237 1419h504zM705 627q237 0 358 127t121 323q0 69 -22.5 123t-64.5 91t-102.5 56t-136.5 19h-448l-123 -739h418z" />
    <glyph glyph-name="Q" unicode="Q" horiz-adv-x="1503" 
d="M647 -29q-103 0 -196 34t-171 103q-79 69 -126.5 191t-47.5 283q0 362 234 614q233 252 582 252q97 0 189.5 -32.5t177.5 -98.5q86 -66 138 -186t52 -277q1 -98 -20.5 -196t-62 -188.5t-99.5 -170.5t-134 -143q-100 -87 -232.5 -136t-283.5 -49zM655 29q220 0 398 121
q178 119 271 306q93 185 93 388q0 144 -42.5 252t-116.5 172q-74 63 -160.5 94t-186.5 31q-309 0 -526 -235t-217 -562q0 -288 138 -428q138 -139 349 -139zM1251 -268l-710 8l8 49l711 -8z" />
    <glyph glyph-name="R" unicode="R" horiz-adv-x="1247" 
d="M1249 1122q0 -221 -138 -332q-138 -112 -353 -126l327 -664h-71l-324 662h-395l-111 -662h-59l235 1419h527q172 0 267 -77t95 -220zM709 715q222 0 349 111q128 110 128 288q0 63 -21 110.5t-61 79t-96 47t-127 15.5h-469l-109 -651h406z" />
    <glyph glyph-name="S" unicode="S" horiz-adv-x="1046" 
d="M453 -29q-245 0 -445 176l25 64q173 -182 428 -182q183 0 301 97q119 98 119 249q0 72 -23 125t-77 93q-27 20 -52.5 36t-48.5 28q-23 11 -56.5 26t-78.5 32q-159 65 -242 147q-82 79 -82 225q0 155 122 259q122 102 337 102q219 0 391 -123l-33 -49q-166 117 -366 117
q-169 0 -279 -80t-110 -215q0 -130 72 -201q70 -70 216 -127q48 -20 83 -35t59 -26q47 -22 111 -69q63 -46 90.5 -108t27.5 -147q0 -194 -139 -303q-139 -111 -350 -111z" />
    <glyph glyph-name="T" unicode="T" horiz-adv-x="1050" 
d="M1176 1419l-9 -53h-465l-225 -1366h-59l225 1366h-463l8 53h988z" />
    <glyph glyph-name="U" unicode="U" horiz-adv-x="1378" 
d="M602 -29q-169 0 -269 91q-102 90 -129 224q-28 133 -1 298l135 835h59l-135 -835q-23 -109 -10.5 -208t48.5 -176t116.5 -123t195.5 -46q210 0 352 144q142 143 187 405l141 839h60l-142 -839q-50 -298 -209 -453q-160 -156 -399 -156z" />
    <glyph glyph-name="V" unicode="V" horiz-adv-x="1290" 
d="M1303 1419h65l-782 -1419h-72l-281 1419h64l227 -1169q27 -135 33 -193q28 56 56.5 109.5t58.5 107.5z" />
    <glyph glyph-name="W" unicode="W" horiz-adv-x="1863" 
d="M1845 1419h64l-598 -1419h-74l-137 1106l-27 225q-48 -105 -74 -161.5t-30 -65.5l-537 -1104h-74l-92 1419h62l73 -1224q0 -7 1 -21t3 -35q2 -22 3 -38t2 -27l55 114l584 1211h75l152 -1192q10 -67 12 -121q8 18 27 63q9 22 15.5 38t10.5 26z" />
    <glyph glyph-name="X" unicode="X" horiz-adv-x="1196" 
d="M680 739l364 -739h-69l-342 702l-565 -702h-78l606 748l-350 671h67l330 -635l541 635h76z" />
    <glyph glyph-name="Y" unicode="Y" horiz-adv-x="1075" 
d="M1200 1419l-616 -809l-101 -610h-59l102 618l-340 801h68l309 -747l561 747h76z" />
    <glyph glyph-name="Z" unicode="Z" horiz-adv-x="1140" 
d="M1139 1419l-9 -51l-1007 -1315h883l-11 -53h-956l8 51l1006 1315h-824l9 53h901z" />
    <glyph glyph-name="bracketleft" unicode="[" horiz-adv-x="389" 
d="M492 1618h-156l-305 -1950h153l-8 -57h-213l324 2064h213z" />
    <glyph glyph-name="backslash" unicode="\" horiz-adv-x="757" 
d="M551 -252h-62l-344 1935h62z" />
    <glyph glyph-name="bracketright" unicode="]" horiz-adv-x="389" 
d="M266 1675h213l-323 -2064h-213l8 57h158l305 1950h-156z" />
    <glyph glyph-name="asciicircum" unicode="^" horiz-adv-x="1005" 
d="M958 733h-61l-229 746l-478 -746h-61l512 791h68z" />
    <glyph glyph-name="underscore" unicode="_" horiz-adv-x="966" 
d="M-41 -117l16 51h840l-16 -51h-840z" />
    <glyph glyph-name="grave" unicode="`" horiz-adv-x="1228" 
d="M430 1128h-47l-164 416h76z" />
    <glyph glyph-name="a" unicode="a" horiz-adv-x="1124" 
d="M1004 971h51l-162 -971h-51l28 197q-71 -100 -186 -163t-244 -63q-160 0 -261 105q-101 104 -101 297q0 269 162 447q161 179 387 179q118 0 207.5 -57.5t134.5 -157.5zM442 29q140 0 255 76q118 76 190 202l65 385q-84 252 -334 252q-186 0 -333 -160
q-148 -160 -148 -411q0 -160 84 -252t221 -92z" />
    <glyph glyph-name="b" unicode="b" horiz-adv-x="1132" 
d="M700 999q61 0 120 -20.5t114 -63.5t89 -123t34 -188q0 -257 -157 -444q-157 -189 -406 -189q-229 0 -334 205l-35 -176h-47l250 1522h59l-123 -748q72 112 186 168.5t250 56.5zM502 29q202 0 348 170q145 169 145 401q0 100 -29.5 172t-77.5 107t-96.5 50t-99.5 15
q-292 0 -446 -274l-68 -408v-2q43 -109 126.5 -170t197.5 -61z" />
    <glyph glyph-name="c" unicode="c" horiz-adv-x="940" 
d="M836 102q-158 -131 -398 -131q-153 0 -256 100q-104 99 -104 302q0 268 170 447t393 179q177 0 301 -114l-39 -45q-56 50 -114 79q-58 27 -148 27q-189 0 -347 -162q-157 -163 -157 -413q0 -176 90 -259q91 -83 222 -83q219 0 376 133z" />
    <glyph glyph-name="d" unicode="d" horiz-adv-x="1128" 
d="M1083 1520h64l-254 -1520h-53l30 197q-71 -100 -186 -163t-244 -63q-160 0 -261 105q-101 104 -101 297q0 269 162 447q161 179 387 179q115 0 204 -55.5t134 -152.5zM442 29q71 0 135 19.5t120.5 55.5t104.5 87.5t85 115.5l63 389q-84 248 -332 248q-186 0 -333 -160
q-148 -160 -148 -411q0 -160 84 -252t221 -92z" />
    <glyph glyph-name="e" unicode="e" horiz-adv-x="1001" 
d="M924 467h-781q-6 -49 -6 -100q0 -99 32 -168.5t84 -104.5t104.5 -50t107.5 -15q200 0 375 125l12 -58q-175 -125 -389 -125q-98 0 -182 35t-144 126q-61 91 -61 226q0 267 160 454q159 187 382 187q74 0 133 -23t100.5 -69t64 -114t22.5 -158q0 -42 -3.5 -83.5
t-10.5 -84.5zM610 944q-155 0 -283 -118q-129 -117 -173 -308h716q7 73 9 109q0 164 -67 240.5t-202 76.5z" />
    <glyph glyph-name="f" unicode="f" horiz-adv-x="681" 
d="M627 1550q105 0 202 -57l-26 -51q-82 57 -178 57q-84 0 -131.5 -50t-67.5 -163l-53 -315h229l-8 -51h-229l-228 -1358h-57l227 1358h-180l8 51h180l54 315q45 264 258 264z" />
    <glyph glyph-name="g" unicode="g" horiz-adv-x="1120" 
d="M997 971h54l-166 -991q-86 -506 -510 -506q-209 0 -361 123l23 57q131 -125 340 -125q375 0 452 461l31 188q-72 -92 -185 -149q-113 -58 -231 -58q-166 0 -268 104t-102 294q0 270 162 450q161 180 387 180q118 0 207.5 -56.5t134.5 -156.5zM446 29q128 0 244 70
q118 70 191 190l67 403q-79 252 -334 252q-186 0 -333 -160q-148 -160 -148 -415q0 -157 87 -249q87 -91 226 -91z" />
    <glyph glyph-name="h" unicode="h" horiz-adv-x="1069" 
d="M670 999q159 0 226 -103q68 -103 36 -282l-103 -618h-57l102 616q57 332 -212 332q-130 0 -237 -76t-181 -206l-109 -662h-57l250 1522h57l-125 -760q67 105 176 172q107 65 234 65z" />
    <glyph glyph-name="i" unicode="i" horiz-adv-x="440" 
d="M295 1321q0 29 18.5 46t46.5 17q47 0 48 -49q0 -27 -19.5 -44t-46.5 -17q-47 0 -47 47zM330 971l-162 -971h-57l161 971h58z" />
    <glyph glyph-name="j" unicode="j" horiz-adv-x="405" 
d="M332 1274q-47 0 -47 47q0 29 18.5 46t46.5 17q47 0 47 -49q0 -27 -19 -44t-46 -17zM-193 -520l-10 51q231 13 273 264l192 1176h57l-192 -1178q-48 -286 -320 -313z" />
    <glyph glyph-name="k" unicode="k" horiz-adv-x="899" 
d="M903 971l-377 -348l262 -623h-67l-242 580l-293 -273l-51 -307h-57l250 1522h57l-186 -1131l624 580h80z" />
    <glyph glyph-name="l" unicode="l" horiz-adv-x="378" 
d="M385 1522l-250 -1522h-57l250 1522h57z" />
    <glyph glyph-name="m" unicode="m" horiz-adv-x="1708" 
d="M1311 999q77 0 133 -26t89.5 -76t43 -122t-5.5 -165l-103 -610h-55l98 608q53 336 -208 336q-123 0 -222 -81q-99 -80 -163 -218q0 -4 -2.5 -13t-2.5 -14l-100 -618h-59l102 616q55 328 -211 328q-221 0 -377 -250l-116 -694h-58l162 971h49l-24 -187q62 96 159 156
q98 59 213 59q105 0 182 -56q76 -55 85 -193q62 114 165 181q104 68 226 68z" />
    <glyph glyph-name="n" unicode="n" horiz-adv-x="1093" 
d="M694 999q159 0 226 -103q68 -103 36 -282l-102 -618h-57l102 616q57 332 -213 332q-129 0 -241 -82q-115 -84 -187 -217l-106 -645h-58l162 971h57l-37 -223q68 113 179 182q110 69 239 69z" />
    <glyph glyph-name="o" unicode="o" horiz-adv-x="1095" 
d="M455 -29q-159 0 -268 100q-111 99 -111 304q0 249 163 436q162 188 410 188q157 0 264 -97q107 -98 107 -306q0 -261 -166 -442q-166 -183 -399 -183zM463 29q193 0 341 160q148 158 157 397q6 190 -89 274q-96 84 -231 84q-202 0 -354 -165q-152 -166 -152 -398
q0 -172 92 -262t236 -90z" />
    <glyph glyph-name="p" unicode="p" horiz-adv-x="1155" 
d="M723 999q61 0 119.5 -20.5t114.5 -63.5t89 -123t33 -188q0 -256 -156 -444q-157 -189 -407 -189q-115 0 -201 52t-131 139l-110 -662h-58l246 1471h53l-28 -195q72 109 186 166t250 57zM524 29q203 0 349 170q145 169 145 401q0 100 -30 172t-78 107t-96 50t-99 15
q-136 0 -251.5 -67t-193.5 -203l-71 -424q39 -105 125 -163t200 -58z" />
    <glyph glyph-name="q" unicode="q" horiz-adv-x="1128" 
d="M999 971h56l-244 -1471h-57l112 680q-70 -94 -185 -151q-115 -58 -232 -58q-166 0 -268 104q-103 103 -103 294q0 270 162 450q161 180 387 180q118 0 207.5 -56.5t134.5 -156.5zM451 29q130 0 246 70q116 69 188 192l67 401q-79 252 -334 252q-186 0 -333 -160
q-148 -160 -148 -415q0 -158 88 -249q87 -91 226 -91z" />
    <glyph glyph-name="r" unicode="r" horiz-adv-x="600" 
d="M612 985q11 0 26 -1t34 -3l-10 -53q-13 2 -26.5 3t-27.5 1q-246 0 -368 -404l-88 -528h-58l162 971h53l-35 -236q112 250 338 250z" />
    <glyph glyph-name="s" unicode="s" horiz-adv-x="761" 
d="M590 246q0 27 -7.5 50t-13.5 40q-3 8 -10.5 17t-16 17t-16.5 15t-13 12q-9 9 -39 24q-15 8 -24.5 12.5t-13.5 6.5t-15 6.5t-29 12.5q-18 7 -28.5 11t-13.5 5q-122 51 -180 113q-57 62 -57 160q0 120 80 185.5t241 65.5q147 0 289 -75l-27 -54q-122 74 -270 74
q-128 0 -191 -51.5t-63 -142.5q0 -144 197 -218q140 -51 210 -111q70 -61 70 -173q0 -141 -104 -209q-106 -68 -256 -68q-177 0 -305 103l24 55q106 -100 291 -100q125 0 208 59t83 158z" />
    <glyph glyph-name="t" unicode="t" horiz-adv-x="595" 
d="M338 920l-107 -639q-20 -117 17 -186.5t133 -69.5q119 0 227 75l10 -55q-118 -74 -245 -74q-115 0 -168 80.5t-29 229.5l105 639h-154l8 51h154l53 325h59l-55 -325h326l-8 -51h-326z" />
    <glyph glyph-name="u" unicode="u" horiz-adv-x="1062" 
d="M915 971h58l-162 -971h-57l34 211q-72 -109 -182 -174q-109 -66 -227 -66q-155 0 -219 109q-66 109 -35 293l100 598h58l-101 -596q-29 -169 22 -258.5t177 -89.5q127 0 241 81q114 80 187 218z" />
    <glyph glyph-name="v" unicode="v" horiz-adv-x="888" 
d="M895 971h68l-601 -971h-63l-209 971h60l194 -901z" />
    <glyph glyph-name="w" unicode="w" horiz-adv-x="1290" 
d="M1274 971h67l-462 -971h-64l-115 868l-438 -868h-63l-86 971h61l70 -897l442 884h59l115 -888z" />
    <glyph glyph-name="x" unicode="x" horiz-adv-x="813" 
d="M842 971l-398 -473l258 -498h-65l-240 467l-387 -467h-63l422 508l-246 463h65l226 -434l364 434h64z" />
    <glyph glyph-name="y" unicode="y" horiz-adv-x="905" 
d="M909 971h68l-862 -1471h-62l295 498l-242 973h62l219 -905z" />
    <glyph glyph-name="z" unicode="z" horiz-adv-x="778" 
d="M774 971l-10 -53l-696 -867h589l-8 -51h-653l10 53l690 867h-563l8 51h633z" />
    <glyph glyph-name="braceleft" unicode="{" horiz-adv-x="526" 
d="M496 1714q87 0 178 -41l-12 -59q-91 47 -173 47q-79 0 -143 -55q-65 -56 -65 -170q0 -74 32 -234q16 -79 23.5 -139t7.5 -102q0 -109 -51 -184q-52 -76 -121 -95q105 -34 107 -158q0 -95 -62 -225q-32 -65 -63 -127.5t-62 -124.5q-63 -123 -63 -207q0 -82 51 -124
q52 -43 125 -44q95 -2 157 19l-20 -60q-35 -8 -70.5 -11.5t-70.5 -2.5q-103 5 -168 61q-66 58 -66 162q0 92 63 217q31 63 62 124.5t63 123.5q62 124 62 213q0 141 -178 141l10 60q231 0 232 223q0 71 -32 242q-16 85 -24 146.5t-8 103.5q0 123 73 202q74 78 206 78z" />
    <glyph glyph-name="bar" unicode="|" horiz-adv-x="401" 
d="M424 1642l-311 -1853h-58l312 1853h57z" />
    <glyph glyph-name="braceright" unicode="}" horiz-adv-x="526" 
d="M369 813q0 -141 178 -141l-10 -60q-231 0 -232 -223q0 -72 32 -241q16 -85 24 -146.5t8 -103.5q0 -123 -73 -202t-206 -79q-87 0 -178 41l12 59q91 -47 172 -47q79 0 144 55q65 56 65 171q0 79 -31 234q-16 79 -24 139t-8 102q0 109 51 184q52 75 121 94
q-105 34 -107 158q0 96 63 225q31 65 62 127.5t63 124.5q62 124 62 207q0 82 -51 124q-52 43 -125 44q-95 2 -158 -19l21 60q59 14 141 14q99 0 167 -59q66 -60 66 -164q0 -91 -62 -217q-31 -63 -62 -124.5t-62 -123.5q-63 -123 -63 -213z" />
    <glyph glyph-name="asciitilde" unicode="~" horiz-adv-x="1017" 
d="M369 766q-43 0 -91 -21q-25 -11 -42 -20.5t-28 -17.5t-31.5 -24.5t-51.5 -41.5l12 72q127 115 232 114q85 0 215 -76q131 -77 192 -77q47 0 92 21q23 10 39.5 19.5t27.5 17.5t31.5 24.5t51.5 42.5l-12 -76q-121 -111 -240 -111q-83 0 -211 77t-186 77z" />
    <glyph glyph-name="exclamdown" unicode="&#xa1;" horiz-adv-x="485" 
d="M420 993q0 -21 -8 -39t-22 -31.5t-33 -21.5t-40 -8q-37 0 -61.5 25.5t-24.5 62.5q0 43 29.5 70.5t71.5 27.5q39 0 63.5 -24.5t24.5 -61.5zM78 -367l178 1082h55l-159 -1082h-74z" />
    <glyph glyph-name="cent" unicode="&#xa2;" horiz-adv-x="878" 
d="M922 1094q-127 127 -293 133l-144 -916h15q196 0 321 107l21 -56q-131 -110 -353 -108h-12l-41 -254h-55l41 258q-151 23 -239 135q-89 112 -89 287q0 257 143 424t347 180l37 238h55l-37 -238q190 -10 319 -147zM156 682q0 -159 77 -251t197 -114l143 908
q-167 -13 -292 -156t-125 -387z" />
    <glyph glyph-name="sterling" unicode="&#xa3;" horiz-adv-x="1107" 
d="M866 1389q-188 0 -319 -144q-131 -146 -203 -487h567l-8 -56h-569q-51 -269 -66 -647h707l-10 -55h-973l10 55h205q9 192 25.5 353t41.5 294h-180l8 56h183q73 368 218 529q144 159 369 159q198 0 359 -143l-39 -48q-151 134 -326 134z" />
    <glyph glyph-name="currency" unicode="&#xa4;" horiz-adv-x="1167" 
d="M1198 1272l-164 -176q109 -121 109 -293q0 -161 -74 -286q-73 -124 -197 -195l99 -189l-51 -27l-97 189q-127 -57 -264 -57q-148 0 -260 73l-145 -155l-43 30l145 158q-145 124 -145 328q0 297 227 461l-98 190l51 27l94 -185q137 78 289 78q195 0 323 -113l158 175z
M563 295q208 0 365 134q155 134 155 370q0 174 -120 282q-122 107 -293 107q-82 0 -167 -31.5t-161 -91.5q-38 -30 -69.5 -70.5t-54.5 -90t-35.5 -106.5t-12.5 -120q0 -175 117 -279q116 -104 276 -104z" />
    <glyph glyph-name="yen" unicode="&#xa5;" horiz-adv-x="1163" 
d="M1204 1419l-508 -651h383l-8 -55h-418l-43 -281h416l-8 -55h-416l-59 -377h-60l60 377h-416l8 55h416l43 281h-414l8 55h390l-308 651h72l295 -643l491 643h76z" />
    <glyph glyph-name="brokenbar" unicode="&#xa6;" horiz-adv-x="401" 
d="M424 1642l-141 -839h-58l142 839h57zM254 629l-141 -840h-58l142 840h57z" />
    <glyph glyph-name="section" unicode="&#xa7;" horiz-adv-x="1177" 
d="M743 1391q-179 0 -285 -64q-108 -64 -108 -201q0 -78 39 -128t129 -87q35 -14 72.5 -26t77.5 -21q206 -51 303 -120q98 -71 98 -216q0 -112 -82 -197q-82 -86 -201 -106q127 -73 127 -215q0 -136 -117 -227q-119 -92 -368 -92q-241 0 -410 92l35 53q57 -41 165 -66
q108 -24 212 -24q106 0 195.5 22t157.5 85q67 63 67 157q0 96 -87 154q-88 58 -290 104q-334 78 -334 320q0 121 72 205t188 108q-113 80 -112 221q0 156 127 240q128 84 338 84q211 0 413 -117l-35 -53q-166 115 -387 115zM1001 528q0 104 -79 168q-78 63 -287 113
q-51 13 -91.5 26t-72.5 27q-114 -6 -190 -80q-76 -75 -76 -192q0 -91 65 -156q66 -66 236 -110q62 -16 109.5 -30t82.5 -28q124 -4 214 73q89 77 89 189z" />
    <glyph glyph-name="dieresis" unicode="&#xa8;" horiz-adv-x="1228" 
d="M201 1331q-12 13 -11.5 32t10 35.5t26 28t36.5 9.5q25 0 39 -17.5t10 -43.5q-4 -27 -24.5 -44.5t-44.5 -17.5q-27 0 -41 18zM611 1331q-15 17 -11 43.5t25 44.5q20 17 46.5 17t41.5 -17q14 -18 10 -44.5t-24 -43.5q-21 -18 -47.5 -18t-40.5 18z" />
    <glyph glyph-name="copyright" unicode="&#xa9;" horiz-adv-x="1832" 
d="M1096 1563q317 0 497 -183q179 -185 179 -469q0 -406 -271 -676t-672 -270q-322 0 -498 173q-177 173 -177 462q0 266 122 487t338 348q217 128 482 128zM1710 905q0 276 -176 438q-175 162 -447 162q-360 0 -615 -262t-255 -631q0 -276 173 -431q173 -156 450 -156
q226 0 425 114q198 112 322 317q123 203 123 449zM1245 424q-156 -105 -338 -107q-158 0 -248 91q-90 90 -90 254q0 228 143 395q142 166 359 166q159 0 275 -88l-43 -45q-97 78 -244 77q-186 0 -307 -148t-121 -351q0 -145 80 -219t204 -74q167 0 304 98z" />
    <glyph glyph-name="guillemotleft" unicode="&#xab;" horiz-adv-x="878" 
d="M526 928l-436 -355l316 -366l-7 -70l-354 418l6 45l484 406zM897 1006l-8 -78l-436 -355l315 -366l-6 -70l-354 418l6 45z" />
    <glyph glyph-name="logicalnot" unicode="&#xac;" horiz-adv-x="1122" 
d="M1071 770l-67 -428h-56l60 377h-854l8 51h909z" />
    <glyph glyph-name="registered" unicode="&#xae;" horiz-adv-x="1126" 
d="M748 1585q201 0 310 -108q109 -109 109 -289q0 -258 -165 -428q-167 -170 -420 -170q-201 0 -311 108q-111 107 -111 285q0 256 167 429t421 173zM590 641q226 0 374 157q148 155 148 380q0 167 -103 261q-104 95 -270 95q-223 0 -373 -158q-151 -158 -151 -381
q0 -165 105 -260q103 -94 270 -94zM739 1368q162 0 162 -133q0 -147 -153 -188l90 -207h-58l-86 198q-5 -1 -13 -1.5t-19 -0.5h-130l-32 -196h-51l88 528h202zM659 1083q183 0 185 146q0 92 -119 92h-143l-41 -238h118z" />
    <glyph glyph-name="macron" unicode="&#xaf;" horiz-adv-x="1228" 
d="M193 1393h673l-8 -52h-674z" />
    <glyph glyph-name="degree" unicode="&#xb0;" horiz-adv-x="749" 
d="M430 817q-63 0 -111.5 17.5t-82 50t-51 79t-17.5 103.5q0 164 105 273q104 108 264 108q126 0 194 -69t68 -197q0 -150 -101 -257q-102 -108 -268 -108zM440 872q129 0 213 91q84 90 84 219q0 99 -55.5 155t-155.5 56q-127 0 -212 -91t-85 -225q0 -47 15 -85t42.5 -64.5
t66.5 -41t87 -14.5z" />
    <glyph glyph-name="plusminus" unicode="&#xb1;" horiz-adv-x="1110" 
d="M647 893h412l-8 -51h-412l-53 -340h-56l54 340h-412l8 51h412l53 338h55zM66 186l8 52h882l-8 -52h-882z" />
    <glyph glyph-name="acute" unicode="&#xb4;" horiz-adv-x="1228" 
d="M541 1544l-303 -416h-48l275 416h76z" />
    <glyph glyph-name="paragraph" unicode="&#xb6;" horiz-adv-x="901" 
d="M815 1419h98l-221 -1300q-72 -426 -418 -426q-193 0 -331 151l34 58q124 -144 310 -146q271 0 338 363l67 362h-26q-223 0 -326.5 128t-67.5 382q72 428 543 428z" />
    <glyph glyph-name="periodcentered" unicode="&#xb7;" horiz-adv-x="380" 
d="M141 670q0 20 8.5 38t22 31.5t31 21t35.5 7.5q35 0 54 -20.5t19 -51.5q0 -39 -31 -66q-31 -28 -69 -28q-33 0 -51.5 19.5t-18.5 48.5z" />
    <glyph glyph-name="cedilla" unicode="&#xb8;" horiz-adv-x="1228" 
d="M305 -188q166 0 166 -158q0 -111 -83 -177q-83 -65 -200 -65q-110 0 -211 56l27 49q85 -50 184 -52q94 0 159 53q65 54 65 136q0 48 -30 76t-87 28q-93 0 -160 -55l-49 25l168 286h63l-145 -235q71 33 133 33z" />
    <glyph glyph-name="guillemotright" unicode="&#xbb;" horiz-adv-x="915" 
d="M524 600l-6 -41l-506 -422l11 80l448 369l-334 350l10 70zM524 1006l377 -406l-6 -41l-506 -422l10 80l449 369l-334 350z" />
    <glyph glyph-name="questiondown" unicode="&#xbf;" horiz-adv-x="972" 
d="M637 899q-37 0 -61.5 25.5t-24.5 62.5q0 21 8.5 38.5t22 31t32 21t37.5 7.5q39 0 63.5 -23.5t24.5 -60.5q0 -45 -29.5 -73.5t-72.5 -28.5zM772 -184l25 -47q-173 -154 -406 -154q-146 0 -244 87t-98 253q0 188 137 304t328 128l43 277h61l-43 -328q-189 4 -327 -103
q-137 -108 -137 -274q0 -141 83 -215t201 -74q206 2 377 146z" />
    <glyph glyph-name="Agrave" unicode="&#xc0;" horiz-adv-x="1224" 
d="M811 1571h-55l-207 418h76zM1026 0l-88 451h-659l-242 -451h-66l766 1419h70l283 -1419h-64zM307 504h621l-166 842z" />
    <glyph glyph-name="Aacute" unicode="&#xc1;" horiz-adv-x="1224" 
d="M1165 1989l-348 -418h-55l328 418h75zM737 1419h70l283 -1419h-64l-88 451h-659l-242 -451h-66zM307 504h621l-166 842z" />
    <glyph glyph-name="Acircumflex" unicode="&#xc2;" horiz-adv-x="1224" 
d="M852 1950l-307 -396h-56l332 435h74l186 -435h-55zM1026 0l-88 451h-659l-242 -451h-66l766 1419h70l283 -1419h-64zM307 504h621l-166 842z" />
    <glyph glyph-name="Atilde" unicode="&#xc3;" horiz-adv-x="1224" 
d="M1161 1944h49q-51 -379 -223 -379q-51 0 -98 51q-47 52 -77 113q-15 31 -32 58.5t-36 53.5q-39 51 -74 51q-30 0 -53 -18t-42 -57t-34 -100t-27 -146h-49q50 375 215 375q47 0 92 -51q23 -26 41.5 -54t32.5 -59q30 -64 70 -113q42 -51 85 -51q109 0 160 326zM737 1419h70
l283 -1419h-64l-88 451h-659l-242 -451h-66zM307 504h621l-166 842z" />
    <glyph glyph-name="Adieresis" unicode="&#xc4;" horiz-adv-x="1224" 
d="M631 1638q-29 0 -43.5 18.5t-9.5 47.5t26 47t49 18q27 0 41.5 -18t10.5 -47q-4 -27 -25.5 -46.5t-48.5 -19.5zM981 1638q-31 0 -45 18.5t-10 47.5t25.5 47t50.5 18t44 -18t11 -47t-26.5 -47.5t-49.5 -18.5zM1026 0l-88 451h-659l-242 -451h-66l766 1419h70l283 -1419h-64
zM307 504h621l-166 842z" />
    <glyph glyph-name="Aring" unicode="&#xc5;" horiz-adv-x="1224" 
d="M793 1567q-96 0 -146 62q-51 62 -35 155q17 97 88 158t167 61q94 0 145 -62q51 -63 35 -157q-16 -93 -86 -155q-71 -62 -168 -62zM670 1784q-14 -76 23.5 -119t109.5 -43t123 43t63 119q12 78 -24.5 122t-108.5 44q-35 0 -65.5 -12t-55 -34t-41.5 -52.5t-24 -67.5z
M1026 0l-88 451h-659l-242 -451h-66l766 1419h70l283 -1419h-64zM307 504h621l-166 842z" />
    <glyph glyph-name="AE" unicode="&#xc6;" horiz-adv-x="1785" 
d="M1122 1366l-86 -590h600l-8 -53h-600l-98 -670h737l-8 -53h-797l66 451h-625l-323 -451h-70l1012 1419h950l-8 -53h-742zM340 504h594l125 862h-101z" />
    <glyph glyph-name="Ccedilla" unicode="&#xc7;" horiz-adv-x="1296" 
d="M924 1393q-322 0 -538 -232t-216 -579q0 -146 43 -257t115 -173t152 -92.5t167 -30.5q155 0 296 50q140 50 235 128l12 -62q-219 -162 -508 -174l-119 -192q71 33 133 33q166 0 166 -158q0 -111 -83 -177q-83 -65 -199 -65q-110 0 -211 56l26 49q88 -51 185 -52
q94 0 159 53q64 54 64 136q0 48 -30 76t-87 28q-93 0 -160 -55l-49 25l144 243q-97 4 -184 40t-162 105q-76 69 -121 188t-45 274q0 377 237 624q236 246 586 246q262 0 448 -150l-41 -49q-172 144 -415 144z" />
    <glyph glyph-name="Egrave" unicode="&#xc8;" horiz-adv-x="1118" 
d="M838 1571h-56l-207 418h76zM1217 1366h-803l-99 -590h654l-8 -53h-654l-112 -670h804l-8 -53h-864l233 1419h865z" />
    <glyph glyph-name="Eacute" unicode="&#xc9;" horiz-adv-x="1118" 
d="M1192 1989l-348 -418h-56l328 418h76zM1217 1366h-803l-99 -590h654l-8 -53h-654l-112 -670h804l-8 -53h-864l233 1419h865z" />
    <glyph glyph-name="Ecircumflex" unicode="&#xca;" horiz-adv-x="1118" 
d="M879 1950l-308 -396h-55l332 435h74l186 -435h-55zM1217 1366h-803l-99 -590h654l-8 -53h-654l-112 -670h804l-8 -53h-864l233 1419h865z" />
    <glyph glyph-name="Edieresis" unicode="&#xcb;" horiz-adv-x="1118" 
d="M657 1638q-29 0 -43 18.5t-10 47.5t25.5 47t50.5 18q27 0 41 -18t10 -47q-4 -27 -25.5 -46.5t-48.5 -19.5zM1008 1638q-31 0 -45.5 18.5t-10.5 47.5t25.5 47t50.5 18t44 -18t11 -47t-26 -47.5t-49 -18.5zM1217 1366h-803l-99 -590h654l-8 -53h-654l-112 -670h804l-8 -53
h-864l233 1419h865z" />
    <glyph glyph-name="Igrave" unicode="&#xcc;" horiz-adv-x="473" 
d="M381 1571l-207 418h76l186 -418h-55zM420 1419l-234 -1419h-59l233 1419h60z" />
    <glyph glyph-name="Iacute" unicode="&#xcd;" horiz-adv-x="473" 
d="M791 1989l-349 -418h-55l328 418h76zM420 1419l-234 -1419h-59l233 1419h60z" />
    <glyph glyph-name="Icircumflex" unicode="&#xce;" horiz-adv-x="473" 
d="M707 1554h-56l-174 396l-307 -396h-55l331 435h74zM127 0l233 1419h60l-234 -1419h-59z" />
    <glyph glyph-name="Idieresis" unicode="&#xcf;" horiz-adv-x="473" 
d="M256 1638q-29 0 -43 18.5t-10 47.5t25.5 47t50.5 18q27 0 41 -18t10 -47q-4 -27 -25.5 -46.5t-48.5 -19.5zM606 1638q-31 0 -45 18.5t-10 47.5t25.5 47t50.5 18t44 -18t11 -47t-26.5 -47.5t-49.5 -18.5zM420 1419l-234 -1419h-59l233 1419h60z" />
    <glyph glyph-name="Eth" unicode="&#xd0;" horiz-adv-x="1413" 
d="M768 1419q284 0 439 -136q155 -137 155 -411q0 -225 -78 -399q-78 -173 -206 -273q-129 -100 -277.5 -150t-311.5 -50h-362l121 731h-135l8 51h135l104 637h408zM483 53q114 0 223 24.5t219 86.5t190 152q81 90 132 234t51 322q0 244 -138 370t-400 126h-348l-97 -586
h502l-8 -51h-502l-112 -678h288z" />
    <glyph glyph-name="Ntilde" unicode="&#xd1;" horiz-adv-x="1402" 
d="M760 1892q-30 0 -53 -18t-42 -57t-34 -100t-27 -146h-49q50 375 215 375q47 0 92 -51q23 -26 41.5 -54t32.5 -59q28 -61 71 -113q42 -51 85 -51q109 0 159 326h49q-51 -379 -223 -379q-51 0 -98 51q-47 52 -77 113q-15 31 -32 58.5t-36 53.5q-39 51 -74 51zM1298 1419h56
l-238 -1419h-63l-652 1325l-217 -1325h-57l233 1419h60l655 -1331z" />
    <glyph glyph-name="Ograve" unicode="&#xd2;" horiz-adv-x="1507" 
d="M897 1571l-207 418h76l186 -418h-55zM647 -29q-103 0 -196 34t-171 103q-79 69 -126.5 191t-47.5 283q0 362 234 614q233 252 582 252q97 0 189.5 -32.5t177.5 -98.5q86 -66 138 -186t52 -277q1 -98 -20.5 -196t-62 -188.5t-99.5 -170.5t-134 -143q-100 -87 -232.5 -136
t-283.5 -49zM655 29q220 0 398 121q178 119 271 306q93 185 93 388q0 144 -42.5 252t-116.5 172q-74 63 -160.5 94t-186.5 31q-309 0 -526 -235t-217 -562q0 -288 138 -428q138 -139 349 -139z" />
    <glyph glyph-name="Oacute" unicode="&#xd3;" horiz-adv-x="1507" 
d="M1307 1989l-349 -418h-55l328 418h76zM647 -29q-103 0 -196 34t-171 103q-79 69 -126.5 191t-47.5 283q0 362 234 614q233 252 582 252q97 0 189.5 -32.5t177.5 -98.5q86 -66 138 -186t52 -277q1 -98 -20.5 -196t-62 -188.5t-99.5 -170.5t-134 -143q-100 -87 -232.5 -136
t-283.5 -49zM655 29q220 0 398 121q178 119 271 306q93 185 93 388q0 144 -42.5 252t-116.5 172q-74 63 -160.5 94t-186.5 31q-309 0 -526 -235t-217 -562q0 -288 138 -428q138 -139 349 -139z" />
    <glyph glyph-name="Ocircumflex" unicode="&#xd4;" horiz-adv-x="1507" 
d="M993 1950l-307 -396h-55l332 435h73l187 -435h-56zM922 1448q97 0 189.5 -32.5t177.5 -98.5q86 -66 138 -186t52 -277q1 -98 -20.5 -196t-62 -188.5t-99.5 -170.5t-134 -143q-100 -87 -232.5 -136t-283.5 -49q-103 0 -196 34t-171 103q-79 69 -126.5 191t-47.5 283
q0 362 234 614t582 252zM655 29q220 0 398 121q178 119 271 306q93 185 93 388q0 144 -42.5 252t-116.5 172q-74 63 -160.5 94t-186.5 31q-309 0 -526 -235t-217 -562q0 -288 138 -428q138 -139 349 -139z" />
    <glyph glyph-name="Otilde" unicode="&#xd5;" horiz-adv-x="1507" 
d="M811 1892q-30 0 -53 -18t-42 -57t-34 -100t-27 -146h-49q50 375 215 375q47 0 92 -51q23 -26 41.5 -54t32.5 -59q28 -61 71 -113q42 -51 85 -51q109 0 160 326h49q-51 -379 -224 -379q-51 0 -98 51q-48 53 -76 113q-29 60 -69 112q-39 51 -74 51zM647 -29q-103 0 -196 34
t-171 103q-79 69 -126.5 191t-47.5 283q0 362 234 614q233 252 582 252q97 0 189.5 -32.5t177.5 -98.5q86 -66 138 -186t52 -277q1 -98 -20.5 -196t-62 -188.5t-99.5 -170.5t-134 -143q-100 -87 -232.5 -136t-283.5 -49zM655 29q220 0 398 121q178 119 271 306
q93 185 93 388q0 144 -42.5 252t-116.5 172q-74 63 -160.5 94t-186.5 31q-309 0 -526 -235t-217 -562q0 -288 138 -428q138 -139 349 -139z" />
    <glyph glyph-name="Odieresis" unicode="&#xd6;" horiz-adv-x="1507" 
d="M772 1638q-29 0 -43 18.5t-10 47.5t25.5 47t50.5 18q27 0 41 -18t10 -47q-4 -27 -25.5 -46.5t-48.5 -19.5zM1122 1638q-31 0 -45 18.5t-10 47.5t25.5 47t50.5 18t44 -18t11 -47t-26.5 -47.5t-49.5 -18.5zM647 -29q-103 0 -196 34t-171 103q-79 69 -126.5 191t-47.5 283
q0 362 234 614q233 252 582 252q97 0 189.5 -32.5t177.5 -98.5q86 -66 138 -186t52 -277q1 -98 -20.5 -196t-62 -188.5t-99.5 -170.5t-134 -143q-100 -87 -232.5 -136t-283.5 -49zM655 29q220 0 398 121q178 119 271 306q93 185 93 388q0 144 -42.5 252t-116.5 172
q-74 63 -160.5 94t-186.5 31q-309 0 -526 -235t-217 -562q0 -288 138 -428q138 -139 349 -139z" />
    <glyph glyph-name="multiply" unicode="&#xd7;" horiz-adv-x="997" 
d="M977 1075l-408 -373l289 -370l-41 -35l-289 369l-403 -369l-33 35l408 373l-289 370l41 35l289 -369l403 369z" />
    <glyph glyph-name="Oslash" unicode="&#xd8;" horiz-adv-x="1507" 
d="M1522 1386l-156 -151q113 -155 113 -381q1 -98 -20.5 -196t-62 -188.5t-99.5 -170.5t-134 -143q-100 -87 -232.5 -136t-283.5 -49q-258 0 -405 179l-140 -136l-47 39l150 146q-97 147 -99 383q0 362 234 614q233 252 582 252q246 0 405 -168l143 139zM168 596
q0 -214 82 -354l1034 997q-139 154 -373 154q-309 0 -526 -235t-217 -562zM1417 844q0 211 -96 350l-1036 -1001q131 -164 370 -164q220 0 398 121q178 119 271 306q93 185 93 388z" />
    <glyph glyph-name="Ugrave" unicode="&#xd9;" horiz-adv-x="1378" 
d="M834 1571l-207 418h75l187 -418h-55zM602 -29q-169 0 -269 91q-102 90 -129 224q-28 133 -1 298l135 835h59l-135 -835q-23 -109 -10.5 -208t48.5 -176t116.5 -123t195.5 -46q210 0 352 144q142 143 187 405l141 839h60l-142 -839q-50 -298 -209 -453
q-160 -156 -399 -156z" />
    <glyph glyph-name="Uacute" unicode="&#xda;" horiz-adv-x="1378" 
d="M1243 1989l-348 -418h-55l327 418h76zM602 -29q-169 0 -269 91q-102 90 -129 224q-28 133 -1 298l135 835h59l-135 -835q-23 -109 -10.5 -208t48.5 -176t116.5 -123t195.5 -46q210 0 352 144q142 143 187 405l141 839h60l-142 -839q-50 -298 -209 -453
q-160 -156 -399 -156z" />
    <glyph glyph-name="Ucircumflex" unicode="&#xdb;" horiz-adv-x="1378" 
d="M930 1950l-307 -396h-56l332 435h74l186 -435h-55zM1292 1419h60l-142 -839q-50 -298 -209 -453q-160 -156 -399 -156q-169 0 -269 91q-102 90 -129 224q-28 133 -1 298l135 835h59l-135 -835q-23 -109 -10.5 -208t48.5 -176t116.5 -123t195.5 -46q210 0 352 144
q142 143 187 405z" />
    <glyph glyph-name="Udieresis" unicode="&#xdc;" horiz-adv-x="1378" 
d="M709 1638q-29 0 -43.5 18.5t-10.5 47.5t25.5 47t50.5 18q27 0 41 -18t10 -47q-4 -27 -25 -46.5t-48 -19.5zM1059 1638q-31 0 -45.5 18.5t-9.5 47.5t26 47t50 18t44.5 -18t10.5 -47t-27 -47.5t-49 -18.5zM602 -29q-169 0 -269 91q-102 90 -129 224q-28 133 -1 298l135 835
h59l-135 -835q-23 -109 -10.5 -208t48.5 -176t116.5 -123t195.5 -46q210 0 352 144q142 143 187 405l141 839h60l-142 -839q-50 -298 -209 -453q-160 -156 -399 -156z" />
    <glyph glyph-name="Yacute" unicode="&#xdd;" horiz-adv-x="1075" 
d="M1092 1989l-349 -418h-55l328 418h76zM1200 1419l-616 -809l-101 -610h-59l102 618l-340 801h68l309 -747l561 747h76z" />
    <glyph glyph-name="Thorn" unicode="&#xde;" horiz-adv-x="1175" 
d="M770 1153q385 0 385 -338q0 -213 -146 -350q-148 -137 -427 -137h-344l-56 -328h-59l237 1419h60l-45 -266h395zM569 381q260 0 393 126q132 126 132 304q0 289 -351 289h-376l-121 -719h323z" />
    <glyph glyph-name="germandbls" unicode="&#xdf;" horiz-adv-x="964" 
d="M606 754q125 -17 210 -113q85 -97 85 -248q0 -195 -107 -308q-108 -114 -272 -114q-138 0 -239 49l14 54q91 -49 221 -49q154 0 241 109q87 108 87 259q0 146 -92 240q-92 92 -265 92h-36l6 51h28q173 0 285 141q113 140 113 310q0 125 -58.5 196.5t-179.5 71.5
q-156 0 -248 -128t-135 -394l-233 -1430h-54l232 1424q52 316 158 450q103 133 286 133q124 0 206 -78q83 -80 83 -241q0 -185 -109 -321q-109 -138 -227 -156z" />
    <glyph glyph-name="agrave" unicode="&#xe0;" horiz-adv-x="1124" 
d="M696 1128h-47l-164 416h76zM1004 971h51l-162 -971h-51l28 197q-71 -100 -186 -163t-244 -63q-160 0 -261 105q-101 104 -101 297q0 269 162 447q161 179 387 179q118 0 207.5 -57.5t134.5 -157.5zM442 29q140 0 255 76q118 76 190 202l65 385q-84 252 -334 252
q-186 0 -333 -160q-148 -160 -148 -411q0 -160 84 -252t221 -92z" />
    <glyph glyph-name="aacute" unicode="&#xe1;" horiz-adv-x="1124" 
d="M934 1544l-303 -416h-47l274 416h76zM1004 971h51l-162 -971h-51l28 197q-71 -100 -186 -163t-244 -63q-160 0 -261 105q-101 104 -101 297q0 269 162 447q161 179 387 179q118 0 207.5 -57.5t134.5 -157.5zM442 29q140 0 255 76q118 76 190 202l65 385q-84 252 -334 252
q-186 0 -333 -160q-148 -160 -148 -411q0 -160 84 -252t221 -92z" />
    <glyph glyph-name="acircumflex" unicode="&#xe2;" horiz-adv-x="1124" 
d="M735 1524l-307 -396h-55l329 435h74l189 -435h-56zM1004 971h51l-162 -971h-51l28 197q-71 -100 -186 -163t-244 -63q-160 0 -261 105q-101 104 -101 297q0 269 162 447q161 179 387 179q118 0 207.5 -57.5t134.5 -157.5zM442 29q140 0 255 76q118 76 190 202l65 385
q-84 252 -334 252q-186 0 -333 -160q-148 -160 -148 -411q0 -160 84 -252t221 -92z" />
    <glyph glyph-name="atilde" unicode="&#xe3;" horiz-adv-x="1124" 
d="M539 1479q-110 0 -156 -322h-49q50 375 215 375q27 0 48 -11.5t48 -46.5q14 -18 22.5 -30t12.5 -17q4 -6 13.5 -22.5t25.5 -42.5q2 -3 5.5 -9.5t8 -14t9 -14.5t7.5 -11q2 -4 5.5 -9.5t8.5 -13.5q9 -16 15 -23t16 -19q15 -21 34 -32.5t36 -11.5q115 0 166 326h49
q-52 -379 -223 -379q-38 0 -76 32q-37 32 -57 63q-22 33 -53 89q-16 26 -26.5 44t-17.5 29t-16.5 22.5t-22.5 24.5q-25 24 -48 24zM969 784l35 187h51l-162 -971h-51l28 197q-71 -100 -186 -163t-244 -63q-160 0 -261 105q-101 104 -101 297q0 269 162 447q161 179 387 179
q59 0 111 -15t96 -43t78.5 -68t56.5 -89zM442 29q140 0 255 76q118 76 190 202l65 385q-84 252 -334 252q-186 0 -333 -160q-148 -160 -148 -411q0 -160 84 -252t221 -92z" />
    <glyph glyph-name="adieresis" unicode="&#xe4;" horiz-adv-x="1124" 
d="M496 1313q-27 0 -41.5 17.5t-9.5 44.5q5 26 24.5 43.5t46.5 17.5q25 0 39 -17.5t10 -43.5q-4 -27 -24 -44.5t-45 -17.5zM953 1331q-21 -18 -47.5 -18t-40.5 18q-15 17 -11 43.5t25 44.5q20 17 46.5 17t41.5 -17q14 -18 10 -44.5t-24 -43.5zM1004 971h51l-162 -971h-51
l28 197q-71 -100 -186 -163t-244 -63q-160 0 -261 105q-101 104 -101 297q0 269 162 447q161 179 387 179q118 0 207.5 -57.5t134.5 -157.5zM442 29q140 0 255 76q118 76 190 202l65 385q-84 252 -334 252q-186 0 -333 -160q-148 -160 -148 -411q0 -160 84 -252t221 -92z
" />
    <glyph glyph-name="aring" unicode="&#xe5;" horiz-adv-x="1124" 
d="M672 1204q-81 0 -127.5 48t-46.5 126q0 117 75 190q74 72 183 72q85 0 134.5 -48.5t49.5 -129.5q0 -110 -75 -184q-77 -74 -193 -74zM745 1587q-80 0 -135 -58t-55 -145q0 -60 35 -92t92 -32q77 0 138 55t61 141q0 63 -36.5 97t-99.5 34zM1004 971h51l-162 -971h-51
l28 197q-71 -100 -186 -163t-244 -63q-160 0 -261 105q-101 104 -101 297q0 269 162 447q161 179 387 179q118 0 207.5 -57.5t134.5 -157.5zM442 29q140 0 255 76q118 76 190 202l65 385q-84 252 -334 252q-186 0 -333 -160q-148 -160 -148 -411q0 -160 84 -252t221 -92z
" />
    <glyph glyph-name="ae" unicode="&#xe6;" horiz-adv-x="1689" 
d="M1296 999q75 0 135.5 -23t102.5 -69t65 -114t23 -158q0 -36 -2.5 -69t-7.5 -62l-2 -12h-770q-5 -36 -7.5 -68.5t-3.5 -61.5q0 -84 22 -146.5t63 -104t99.5 -62t131.5 -20.5q204 0 377 125l30 -48q-187 -135 -417 -135q-297 0 -355 265q-70 -121 -193 -193
q-124 -72 -259 -72q-127 0 -205 65q-80 65 -80 197q0 152 112 251q112 98 283 98q216 0 338 -115l25 154q45 327 -252 325q-182 0 -328 -92l-22 45q160 100 360 100q140 0 218.5 -67t82.5 -203q72 130 186 200t250 70zM1292 944q-165 0 -280 -112q-116 -112 -160 -287h704
q2 14 3 35t2 47q0 160 -75 239q-75 78 -194 78zM338 29q137 0 243 70q105 69 164 173l21 127q-117 129 -336 129q-141 0 -233 -81q-93 -82 -93 -197q0 -109 66 -165q67 -56 168 -56z" />
    <glyph glyph-name="ccedilla" unicode="&#xe7;" horiz-adv-x="940" 
d="M641 946q-189 0 -347 -162q-157 -163 -157 -413q0 -176 90 -259q91 -83 222 -83q219 0 376 133l11 -60q-130 -109 -328 -127l-121 -196q71 33 133 33q166 0 166 -158q0 -111 -83 -177q-83 -65 -200 -65q-110 0 -210 56l26 49q88 -50 184 -52q94 0 159 53q65 54 65 136
q0 48 -30 76t-87 28q-93 0 -160 -55l-49 25l143 243h-6q-153 0 -256 100q-104 99 -104 302q0 268 170 447t393 179q177 0 301 -114l-39 -45q-56 50 -114 79q-58 27 -148 27z" />
    <glyph glyph-name="egrave" unicode="&#xe8;" horiz-adv-x="1001" 
d="M639 1128h-47l-164 416h76zM924 467h-781q-6 -49 -6 -100q0 -99 32 -168.5t84 -104.5t104.5 -50t107.5 -15q200 0 375 125l12 -58q-175 -125 -389 -125q-98 0 -182 35t-144 126q-61 91 -61 226q0 267 160 454q159 187 382 187q74 0 133 -23t100.5 -69t64 -114t22.5 -158
q0 -42 -3.5 -83.5t-10.5 -84.5zM610 944q-155 0 -283 -118q-129 -117 -173 -308h716q7 73 9 109q0 164 -67 240.5t-202 76.5z" />
    <glyph glyph-name="eacute" unicode="&#xe9;" horiz-adv-x="1001" 
d="M877 1544l-304 -416h-47l275 416h76zM924 467h-781q-6 -49 -6 -100q0 -99 32 -168.5t84 -104.5t104.5 -50t107.5 -15q200 0 375 125l12 -58q-175 -125 -389 -125q-98 0 -182 35t-144 126q-61 91 -61 226q0 267 160 454q159 187 382 187q74 0 133 -23t100.5 -69t64 -114
t22.5 -158q0 -42 -3.5 -83.5t-10.5 -84.5zM610 944q-155 0 -283 -118q-129 -117 -173 -308h716q7 73 9 109q0 164 -67 240.5t-202 76.5z" />
    <glyph glyph-name="ecircumflex" unicode="&#xea;" horiz-adv-x="1001" 
d="M678 1524l-307 -396h-56l330 435h74l188 -435h-55zM924 467h-781q-6 -49 -6 -100q0 -99 32 -168.5t84 -104.5t104.5 -50t107.5 -15q200 0 375 125l12 -58q-175 -125 -389 -125q-98 0 -182 35t-144 126q-61 91 -61 226q0 267 160 454q159 187 382 187q74 0 133 -23
t100.5 -69t64 -114t22.5 -158q0 -42 -3.5 -83.5t-10.5 -84.5zM610 944q-155 0 -283 -118q-129 -117 -173 -308h716q7 73 9 109q0 164 -67 240.5t-202 76.5z" />
    <glyph glyph-name="edieresis" unicode="&#xeb;" horiz-adv-x="1001" 
d="M438 1313q-27 0 -41 17.5t-10 44.5q4 26 24.5 43.5t47.5 17.5q25 0 39 -17.5t10 -43.5q-4 -27 -24.5 -44.5t-45.5 -17.5zM895 1331q-21 -18 -47.5 -18t-40.5 18q-14 17 -10 43.5t25 44.5q20 17 46.5 17t41.5 -17q14 -18 9.5 -44.5t-24.5 -43.5zM924 467h-781
q-6 -49 -6 -100q0 -99 32 -168.5t84 -104.5t104.5 -50t107.5 -15q200 0 375 125l12 -58q-175 -125 -389 -125q-98 0 -182 35t-144 126q-61 91 -61 226q0 267 160 454q159 187 382 187q74 0 133 -23t100.5 -69t64 -114t22.5 -158q0 -42 -3.5 -83.5t-10.5 -84.5zM610 944
q-155 0 -283 -118q-129 -117 -173 -308h716q7 73 9 109q0 164 -67 240.5t-202 76.5z" />
    <glyph glyph-name="igrave" unicode="&#xec;" horiz-adv-x="450" 
d="M360 1128h-47l-163 416h75zM334 971l-162 -971h-57l161 971h58z" />
    <glyph glyph-name="iacute" unicode="&#xed;" horiz-adv-x="450" 
d="M598 1544l-303 -416h-47l274 416h76zM334 971l-162 -971h-57l161 971h58z" />
    <glyph glyph-name="icircumflex" unicode="&#xee;" horiz-adv-x="450" 
d="M629 1128h-56l-174 396l-307 -396h-55l330 435h73zM115 0l161 971h58l-162 -971h-57z" />
    <glyph glyph-name="idieresis" unicode="&#xef;" horiz-adv-x="450" 
d="M119 1331q-12 13 -11.5 32t10 35.5t26 28t36.5 9.5q25 0 39 -17.5t10 -43.5q-4 -27 -24.5 -44.5t-44.5 -17.5q-27 0 -41 18zM529 1331q-15 17 -11 43.5t25 44.5q20 17 46.5 17t41.5 -17q14 -18 10 -44.5t-24 -43.5q-21 -18 -47.5 -18t-40.5 18zM334 971l-162 -971h-57
l161 971h58z" />
    <glyph glyph-name="eth" unicode="&#xf0;" horiz-adv-x="1083" 
d="M1143 1339l-250 -112q111 -178 111 -418q0 -219 -53 -390q-54 -169 -142 -263q-88 -95 -186 -140t-203 -45q-164 0 -263 101q-100 100 -100 280q0 228 151 376q151 149 353 149q151 0 245 -87q95 -89 122 -221q18 111 18 240q0 228 -104 395l-314 -141l-18 49l301 135
q-162 206 -432 228l8 53q301 -31 475 -258l262 119zM422 29q161 0 291 110q129 109 190 322q-23 175 -110 267.5t-232 92.5q-171 0 -307 -130q-137 -131 -137 -339q0 -146 83 -235q82 -88 222 -88z" />
    <glyph glyph-name="ntilde" unicode="&#xf1;" horiz-adv-x="1093" 
d="M524 1479q-109 0 -155 -322h-50q50 375 216 375q27 0 48 -11.5t48 -46.5q25 -36 35 -47q4 -6 13.5 -22.5t25.5 -42.5q2 -3 5.5 -9.5t8 -14t8.5 -14.5t7 -11q2 -4 6 -9.5t9 -13.5q9 -16 15 -23t15 -19q15 -21 34.5 -32.5t36.5 -11.5q115 0 166 326h49q-52 -379 -223 -379
q-38 0 -76 32q-37 32 -57 63q-11 16 -24 38t-30 51q-16 26 -26.5 44t-17.5 29q-13 23 -38 47t-49 24zM694 999q159 0 226 -103q68 -103 36 -282l-102 -618h-57l102 616q57 332 -213 332q-129 0 -241 -82q-115 -84 -187 -217l-106 -645h-58l162 971h57l-37 -223
q68 113 179 182q110 69 239 69z" />
    <glyph glyph-name="ograve" unicode="&#xf2;" horiz-adv-x="1095" 
d="M684 1128h-47l-164 416h76zM455 -29q-159 0 -268 100q-111 99 -111 304q0 249 163 436q162 188 410 188q157 0 264 -97q107 -98 107 -306q0 -261 -166 -442q-166 -183 -399 -183zM463 29q193 0 341 160q148 158 157 397q6 190 -89 274q-96 84 -231 84q-202 0 -354 -165
q-152 -166 -152 -398q0 -172 92 -262t236 -90z" />
    <glyph glyph-name="oacute" unicode="&#xf3;" horiz-adv-x="1095" 
d="M922 1544l-304 -416h-47l275 416h76zM455 -29q-159 0 -268 100q-111 99 -111 304q0 249 163 436q162 188 410 188q157 0 264 -97q107 -98 107 -306q0 -261 -166 -442q-166 -183 -399 -183zM463 29q193 0 341 160q148 158 157 397q6 190 -89 274q-96 84 -231 84
q-202 0 -354 -165q-152 -166 -152 -398q0 -172 92 -262t236 -90z" />
    <glyph glyph-name="ocircumflex" unicode="&#xf4;" horiz-adv-x="1095" 
d="M723 1524l-307 -396h-56l330 435h74l188 -435h-55zM649 999q157 0 264 -97q107 -98 107 -306q0 -261 -166 -442q-166 -183 -399 -183q-159 0 -268 100q-111 99 -111 304q0 249 163 436q162 188 410 188zM463 29q193 0 341 160q148 158 157 397q6 190 -89 274
q-96 84 -231 84q-202 0 -354 -165q-152 -166 -152 -398q0 -172 92 -262t236 -90z" />
    <glyph glyph-name="otilde" unicode="&#xf5;" horiz-adv-x="1095" 
d="M526 1479q-109 0 -155 -322h-49q50 375 215 375q27 0 48 -11.5t48 -46.5q25 -36 35 -47q4 -6 13.5 -22.5t25.5 -42.5q2 -3 5.5 -9.5t8 -14t8.5 -14.5t7 -11q2 -4 6 -9.5t9 -13.5q9 -16 15 -23t16 -19q17 -21 33.5 -32t36.5 -12q115 0 166 326h49q-52 -379 -223 -379
q-38 0 -76 32q-37 32 -57 63q-11 16 -24 38t-30 51q-16 26 -26.5 44t-17.5 29q-13 23 -38 47t-49 24zM455 -29q-159 0 -268 100q-111 99 -111 304q0 249 163 436q162 188 410 188q157 0 264 -97q107 -98 107 -306q0 -261 -166 -442q-166 -183 -399 -183zM463 29
q193 0 341 160q148 158 157 397q6 190 -89 274q-96 84 -231 84q-202 0 -354 -165q-152 -166 -152 -398q0 -172 92 -262t236 -90z" />
    <glyph glyph-name="odieresis" unicode="&#xf6;" horiz-adv-x="1095" 
d="M442 1331q-12 13 -11.5 32t10 35.5t26 28t37.5 9.5q25 0 39 -17.5t10 -43.5q-4 -27 -24.5 -44.5t-45.5 -17.5q-27 0 -41 18zM852 1331q-14 17 -10 43.5t25 44.5q20 17 46.5 17t41.5 -17q14 -18 10 -44.5t-24 -43.5q-21 -18 -48 -18t-41 18zM455 -29q-159 0 -268 100
q-111 99 -111 304q0 249 163 436q162 188 410 188q157 0 264 -97q107 -98 107 -306q0 -261 -166 -442q-166 -183 -399 -183zM463 29q193 0 341 160q148 158 157 397q6 190 -89 274q-96 84 -231 84q-202 0 -354 -165q-152 -166 -152 -398q0 -172 92 -262t236 -90z" />
    <glyph glyph-name="divide" unicode="&#xf7;" horiz-adv-x="1200" 
d="M608 1073q8 42 38.5 68t72.5 26q39 0 61.5 -27.5t14.5 -66.5q-6 -39 -37 -65.5t-70 -26.5q-42 0 -64 25t-16 67zM154 733h974l-8 -51h-975zM510 272q-23 26 -16 66q6 42 37 68t71 26q39 0 61.5 -27.5t16.5 -66.5t-37 -65.5t-70 -26.5q-40 0 -63 26z" />
    <glyph glyph-name="oslash" unicode="&#xf8;" horiz-adv-x="1097" 
d="M1081 971l-125 -123q62 -100 64 -252q0 -261 -166 -442q-166 -183 -399 -183q-177 0 -283 115l-106 -102l-48 39l117 112q-59 98 -59 240q0 249 163 436q162 188 410 188q167 0 271 -104l110 109zM135 381q0 -117 45 -201l697 674q-84 90 -236 90q-202 0 -354 -165
q-152 -166 -152 -398zM961 586q6 135 -48 221l-698 -678q91 -100 248 -100q194 0 342 160q149 159 156 397z" />
    <glyph glyph-name="ugrave" unicode="&#xf9;" horiz-adv-x="1062" 
d="M672 1128h-47l-164 416h76zM915 971h58l-162 -971h-57l34 211q-72 -109 -182 -174q-109 -66 -227 -66q-155 0 -219 109q-66 109 -35 293l100 598h58l-101 -596q-29 -169 22 -258.5t177 -89.5q127 0 241 81q114 80 187 218z" />
    <glyph glyph-name="uacute" unicode="&#xfa;" horiz-adv-x="1062" 
d="M909 1544l-303 -416h-47l275 416h75zM915 971h58l-162 -971h-57l34 211q-72 -109 -182 -174q-109 -66 -227 -66q-155 0 -219 109q-66 109 -35 293l100 598h58l-101 -596q-29 -169 22 -258.5t177 -89.5q127 0 241 81q114 80 187 218z" />
    <glyph glyph-name="ucircumflex" unicode="&#xfb;" horiz-adv-x="1062" 
d="M711 1524l-308 -396h-55l330 435h74l188 -435h-55zM915 971h58l-162 -971h-57l34 211q-72 -109 -182 -174q-109 -66 -227 -66q-155 0 -219 109q-66 109 -35 293l100 598h58l-101 -596q-29 -169 22 -258.5t177 -89.5q127 0 241 81q114 80 187 218z" />
    <glyph glyph-name="udieresis" unicode="&#xfc;" horiz-adv-x="1062" 
d="M471 1313q-27 0 -41 17.5t-10 44.5q4 26 24.5 43.5t47.5 17.5q25 0 39 -17.5t10 -43.5q-4 -27 -24.5 -44.5t-45.5 -17.5zM928 1331q-21 -18 -47.5 -18t-40.5 18q-15 17 -10.5 43.5t24.5 44.5q20 17 47 17t41 -17q14 -18 10 -44.5t-24 -43.5zM915 971h58l-162 -971h-57
l34 211q-72 -109 -182 -174q-109 -66 -227 -66q-155 0 -219 109q-66 109 -35 293l100 598h58l-101 -596q-29 -169 22 -258.5t177 -89.5q127 0 241 81q114 80 187 218z" />
    <glyph glyph-name="yacute" unicode="&#xfd;" horiz-adv-x="905" 
d="M825 1544l-303 -416h-47l275 416h75zM909 971h68l-862 -1471h-62l295 498l-242 973h62l219 -905z" />
    <glyph glyph-name="thorn" unicode="&#xfe;" horiz-adv-x="1155" 
d="M723 999q61 0 119.5 -20.5t114.5 -63.5t89 -123t33 -188q0 -256 -156 -444q-157 -189 -407 -189q-115 0 -201 52t-131 139l-110 -662h-58l338 2022h58l-125 -744q72 106 186 163.5t250 57.5zM524 29q203 0 349 170q145 169 145 401q0 100 -30 172t-78 107t-96 50t-99 15
q-136 0 -251.5 -67t-193.5 -205l-71 -422q39 -105 125 -163t200 -58z" />
    <glyph glyph-name="ydieresis" unicode="&#xff;" horiz-adv-x="905" 
d="M387 1313q-27 0 -41 17.5t-10 44.5q4 26 24.5 43.5t47.5 17.5q25 0 39 -17.5t10 -43.5q-4 -27 -24.5 -44.5t-45.5 -17.5zM844 1331q-21 -18 -47.5 -18t-40.5 18q-15 17 -10.5 43.5t25.5 44.5q20 17 46.5 17t40.5 -17q14 -18 10 -44.5t-24 -43.5zM909 971h68l-862 -1471
h-62l295 498l-242 973h62l219 -905z" />
    <glyph glyph-name="Amacron" unicode="&#x100;" horiz-adv-x="1224" 
d="M500 1800h674l-9 -51h-673zM737 1419h70l283 -1419h-64l-88 451h-659l-242 -451h-66zM307 504h621l-166 842z" />
    <glyph glyph-name="amacron" unicode="&#x101;" horiz-adv-x="1124" 
d="M1049 1393l-9 -52h-673l8 52h674zM1004 971h51l-162 -971h-51l28 197q-71 -100 -186 -163t-244 -63q-160 0 -261 105q-101 104 -101 297q0 269 162 447q161 179 387 179q118 0 207.5 -57.5t134.5 -157.5zM442 29q140 0 255 76q118 76 190 202l65 385q-84 252 -334 252
q-186 0 -333 -160q-148 -160 -148 -411q0 -160 84 -252t221 -92z" />
    <glyph glyph-name="Abreve" unicode="&#x102;" horiz-adv-x="1224" 
d="M1048 1694q-97 -97 -249 -97t-220 98q-68 97 -28 275h51q-33 -146 14 -235q46 -88 189 -88q271 0 309 323h51q-19 -180 -117 -276zM737 1419h70l283 -1419h-64l-88 451h-659l-242 -451h-66zM307 504h621l-166 842z" />
    <glyph glyph-name="abreve" unicode="&#x103;" horiz-adv-x="1124" 
d="M932 1283q-97 -97 -250 -97t-220 97q-69 97 -28 276h51q-33 -146 14 -235t189 -89q272 0 309 324h52q-19 -180 -117 -276zM1004 971h51l-162 -971h-51l28 197q-71 -100 -186 -163t-244 -63q-160 0 -261 105q-101 104 -101 297q0 269 162 447q161 179 387 179
q118 0 207.5 -57.5t134.5 -157.5zM442 29q140 0 255 76q118 76 190 202l65 385q-84 252 -334 252q-186 0 -333 -160q-148 -160 -148 -411q0 -160 84 -252t221 -92z" />
    <glyph glyph-name="Aogonek" unicode="&#x104;" horiz-adv-x="1224" 
d="M797 -526q112 0 198 61l9 -55q-103 -62 -211 -64q-82 0 -123 42t-41 114q0 142 111 258q108 114 284 182l-86 439h-659l-242 -451h-66l766 1419h70l283 -1419q-398 -180 -400 -416q0 -54 29 -82t78 -28zM307 504h621l-166 842z" />
    <glyph glyph-name="aogonek" unicode="&#x105;" horiz-adv-x="1124" 
d="M915 47l15 -27l-37 -18v-2h-4q-357 -181 -359 -377q0 -110 111 -108q95 0 201 53l8 -55q-113 -54 -209 -56q-170 0 -170 156q0 122 104 226q52 52 118.5 96.5t150.5 82.5l26 179q-71 -100 -186 -163t-244 -63q-160 0 -261 105q-101 104 -101 297q0 269 162 447
q161 179 387 179q118 0 207.5 -57.5t134.5 -157.5l35 187h51l-156 -930zM442 29q140 0 255 76q118 76 190 202l65 385q-84 252 -334 252q-186 0 -333 -160q-148 -160 -148 -411q0 -160 84 -252t221 -92z" />
    <glyph glyph-name="Cacute" unicode="&#x106;" horiz-adv-x="1296" 
d="M1343 1989l-348 -418h-55l328 418h75zM645 -29q-198 0 -360 136q-81 68 -128.5 189t-47.5 282q0 377 237 624q236 246 586 246q262 0 448 -150l-41 -49q-174 143 -415 144q-322 0 -538 -232t-216 -579q0 -146 43 -257t115 -173t152 -92.5t167 -30.5q155 0 296 50
q140 50 235 128l12 -62q-234 -174 -545 -174z" />
    <glyph glyph-name="cacute" unicode="&#x107;" horiz-adv-x="940" 
d="M936 1544l-303 -416h-47l274 416h76zM836 102q-158 -131 -398 -131q-153 0 -256 100q-104 99 -104 302q0 268 170 447t393 179q177 0 301 -114l-39 -45q-56 50 -114 79q-58 27 -148 27q-189 0 -347 -162q-157 -163 -157 -413q0 -176 90 -259q91 -83 222 -83
q219 0 376 133z" />
    <glyph glyph-name="Cdotaccent" unicode="&#x10a;" horiz-adv-x="1296" 
d="M938 1660q-13 15 -13 36.5t10 41.5t29 33t44 11q31 0 47 -20.5t12 -51.5q-4 -29 -28.5 -49.5t-53.5 -20.5q-30 0 -47 20zM645 -29q-198 0 -360 136q-81 68 -128.5 189t-47.5 282q0 377 237 624q236 246 586 246q262 0 448 -150l-41 -49q-174 143 -415 144
q-322 0 -538 -232t-216 -579q0 -146 43 -257t115 -173t152 -92.5t167 -30.5q155 0 296 50q140 50 235 128l12 -62q-234 -174 -545 -174z" />
    <glyph glyph-name="cdotaccent" unicode="&#x10b;" horiz-adv-x="940" 
d="M625 1253q4 33 29.5 55.5t60.5 22.5q33 0 51 -22.5t14 -54.5q-4 -33 -30.5 -56.5t-59.5 -23.5q-35 0 -52 22t-13 57zM836 102q-158 -131 -398 -131q-153 0 -256 100q-104 99 -104 302q0 268 170 447t393 179q177 0 301 -114l-39 -45q-56 50 -114 79q-58 27 -148 27
q-189 0 -347 -162q-157 -163 -157 -413q0 -176 90 -259q91 -83 222 -83q219 0 376 133z" />
    <glyph glyph-name="Ccaron" unicode="&#x10c;" horiz-adv-x="1296" 
d="M1008 1579h-74l-184 434h55l172 -397l309 397h55zM924 1393q-322 0 -538 -232t-216 -579q0 -146 43 -257t115 -173t152 -92.5t167 -30.5q155 0 296 50q140 50 235 128l12 -62q-232 -174 -545 -174q-198 0 -360 136q-81 68 -128.5 189t-47.5 282q0 377 237 624
q236 246 586 246q262 0 448 -150l-41 -49q-172 144 -415 144z" />
    <glyph glyph-name="ccaron" unicode="&#x10d;" horiz-adv-x="940" 
d="M696 1128h-73l-187 435h56l174 -398l307 398h55zM78 373q0 268 170 447t393 179q177 0 301 -114l-39 -45q-56 50 -114 79q-58 27 -148 27q-189 0 -347 -162q-157 -163 -157 -413q0 -176 90 -259q91 -83 222 -83q219 0 376 133l11 -60q-158 -131 -398 -131
q-153 0 -256 100q-104 99 -104 302z" />
    <glyph glyph-name="Dcaron" unicode="&#x10e;" horiz-adv-x="1413" 
d="M924 1579h-74l-184 434h55l172 -397l309 397h55zM768 1419q284 0 439 -136q155 -137 155 -411q0 -225 -78 -399q-78 -173 -206 -273q-129 -100 -277.5 -150t-311.5 -50h-362l233 1419h408zM483 53q114 0 223 24.5t219 86.5t190 152q81 90 132 234t51 322q0 244 -138 370
t-400 126h-348l-217 -1315h288z" />
    <glyph glyph-name="dcaron" unicode="&#x10f;" horiz-adv-x="1148" 
d="M1280 1532h76l-182 -606h-48zM1083 1520h64l-254 -1520h-53l30 197q-71 -100 -186 -163t-244 -63q-160 0 -261 105q-101 104 -101 297q0 269 162 447q161 179 387 179q115 0 204 -55.5t134 -152.5zM442 29q71 0 135 19.5t120.5 55.5t104.5 87.5t85 115.5l63 389
q-84 248 -332 248q-186 0 -333 -160q-148 -160 -148 -411q0 -160 84 -252t221 -92z" />
    <glyph glyph-name="Dcroat" unicode="&#x110;" horiz-adv-x="1413" 
d="M768 1419q284 0 439 -136q155 -137 155 -411q0 -225 -78 -399q-78 -173 -206 -273q-129 -100 -277.5 -150t-311.5 -50h-362l121 731h-135l8 51h135l104 637h408zM483 53q114 0 223 24.5t219 86.5t190 152q81 90 132 234t51 322q0 244 -138 370t-400 126h-348l-97 -586
h502l-8 -51h-502l-112 -678h288z" />
    <glyph glyph-name="dcroat" unicode="&#x111;" horiz-adv-x="1128" 
d="M1284 1368l-8 -51h-164l-219 -1317h-53l30 197q-71 -100 -186 -163t-244 -63q-160 0 -261 105q-101 104 -101 297q0 269 162 447q161 179 387 179q115 0 204 -55.5t134 -152.5l86 526h-471l8 51h471l24 152h64l-25 -152h162zM442 29q71 0 135 19.5t120.5 55.5t104.5 87.5
t85 115.5l63 389q-84 248 -332 248q-186 0 -333 -160q-148 -160 -148 -411q0 -160 84 -252t221 -92z" />
    <glyph glyph-name="Emacron" unicode="&#x112;" horiz-adv-x="1118" 
d="M1200 1800l-8 -51h-674l8 51h674zM1217 1366h-803l-99 -590h654l-8 -53h-654l-112 -670h804l-8 -53h-864l233 1419h865z" />
    <glyph glyph-name="emacron" unicode="&#x113;" horiz-adv-x="1001" 
d="M317 1393h674l-8 -52h-674zM618 999q74 0 133 -23t100.5 -69t64 -114t22.5 -158q0 -42 -3.5 -83.5t-10.5 -84.5h-781q-6 -49 -6 -100q0 -99 32 -168.5t84 -104.5t104.5 -50t107.5 -15q200 0 375 125l12 -58q-175 -125 -389 -125q-98 0 -182 35t-144 126q-61 91 -61 226
q0 267 160 454q159 187 382 187zM870 518q7 73 9 109q0 164 -67 240.5t-202 76.5q-155 0 -283 -118q-129 -117 -173 -308h716z" />
    <glyph glyph-name="Edotaccent" unicode="&#x116;" horiz-adv-x="1118" 
d="M834 1640q-31 0 -47.5 19.5t-12.5 50.5t26.5 51.5t55.5 20.5q31 0 47.5 -20.5t11.5 -51.5q-4 -29 -28 -49.5t-53 -20.5zM1217 1366h-803l-99 -590h654l-8 -53h-654l-112 -670h804l-8 -53h-864l233 1419h865z" />
    <glyph glyph-name="edotaccent" unicode="&#x117;" horiz-adv-x="1001" 
d="M631 1174q-35 0 -52.5 22.5t-13.5 56.5q4 33 30 55.5t60 22.5q33 0 51.5 -22.5t14.5 -54.5q-4 -33 -30.5 -56.5t-59.5 -23.5zM924 467h-781q-6 -49 -6 -100q0 -99 32 -168.5t84 -104.5t104.5 -50t107.5 -15q200 0 375 125l12 -58q-175 -125 -389 -125q-98 0 -182 35
t-144 126q-61 91 -61 226q0 267 160 454q159 187 382 187q74 0 133 -23t100.5 -69t64 -114t22.5 -158q0 -42 -3.5 -83.5t-10.5 -84.5zM610 944q-155 0 -283 -118q-129 -117 -173 -308h716q7 73 9 109q0 164 -67 240.5t-202 76.5z" />
    <glyph glyph-name="Eogonek" unicode="&#x118;" horiz-adv-x="1118" 
d="M1217 1366h-803l-99 -590h654l-8 -53h-654l-112 -670h804l-8 -53q-399 -180 -399 -416q0 -54 28.5 -82t77.5 -28q111 0 199 61l8 -55q-103 -62 -211 -64q-82 0 -123 42t-41 114q0 135 102 246q99 111 263 182h-768l233 1419h865z" />
    <glyph glyph-name="eogonek" unicode="&#x119;" horiz-adv-x="1001" 
d="M924 467h-781q-6 -49 -6 -100q0 -99 32 -168.5t84 -104.5t104.5 -50t107.5 -15q200 0 375 125l12 -58q-6 -5 -16.5 -11.5t-24.5 -14.5q-112 -74 -153 -102q-20 -14 -45.5 -34t-56.5 -46t-51 -49.5t-31.5 -46t-16 -45.5t-4.5 -48q0 -109 110 -109q96 0 201 54l8 -56
q-114 -55 -209 -55q-170 0 -170 156q0 158 205 297q-76 -14 -135 -15q-98 0 -182 35t-144 126q-61 91 -61 226q0 267 160 454q159 187 382 187q74 0 133 -23t100.5 -69t64 -114t22.5 -158q0 -42 -3.5 -83.5t-10.5 -84.5zM610 944q-155 0 -283 -118q-129 -117 -173 -308h716
q7 73 9 109q0 164 -67 240.5t-202 76.5z" />
    <glyph glyph-name="Ecaron" unicode="&#x11a;" horiz-adv-x="1118" 
d="M856 1579h-74l-184 434h55l172 -397l310 397h55zM1217 1366h-803l-99 -590h654l-8 -53h-654l-112 -670h804l-8 -53h-864l233 1419h865z" />
    <glyph glyph-name="ecaron" unicode="&#x11b;" horiz-adv-x="1001" 
d="M637 1128h-74l-186 435h55l174 -398l307 398h56zM618 999q74 0 133 -23t100.5 -69t64 -114t22.5 -158q0 -42 -3.5 -83.5t-10.5 -84.5h-781q-6 -49 -6 -100q0 -99 32 -168.5t84 -104.5t104.5 -50t107.5 -15q200 0 375 125l12 -58q-175 -125 -389 -125q-98 0 -182 35
t-144 126q-61 91 -61 226q0 267 160 454q159 187 382 187zM870 518q7 73 9 109q0 164 -67 240.5t-202 76.5q-155 0 -283 -118q-129 -117 -173 -308h716z" />
    <glyph glyph-name="Gbreve" unicode="&#x11e;" horiz-adv-x="1419" 
d="M1192 1694q-97 -97 -249 -97t-221 98q-68 97 -28 275h51q-33 -146 14 -235q46 -88 189 -88q271 0 309 323h52q-19 -180 -117 -276zM920 1393q-318 0 -533 -234q-215 -236 -215 -584q0 -283 153 -414q152 -132 386 -132q244 0 442 75l96 596h-479l8 54h541l-113 -695
q-234 -88 -506 -88q-120 0 -221.5 33t-186.5 102t-133 189t-48 283q0 237 100 433q101 198 290 317q189 120 429 120q126 0 250 -45q126 -46 215 -121l-43 -49q-179 160 -432 160z" />
    <glyph glyph-name="gbreve" unicode="&#x11f;" horiz-adv-x="1120" 
d="M927 1283q-97 -97 -249 -97q-153 0 -220 97q-69 97 -28 276h51q-33 -146 14 -235t189 -89q272 0 309 324h51q-19 -180 -117 -276zM997 971h54l-166 -991q-86 -506 -510 -506q-209 0 -361 123l23 57q131 -125 340 -125q375 0 452 461l31 188q-72 -92 -185 -149
q-113 -58 -231 -58q-166 0 -268 104t-102 294q0 270 162 450q161 180 387 180q118 0 207.5 -56.5t134.5 -156.5zM446 29q128 0 244 70q118 70 191 190l67 403q-79 252 -334 252q-186 0 -333 -160q-148 -160 -148 -415q0 -157 87 -249q87 -91 226 -91z" />
    <glyph glyph-name="Gdotaccent" unicode="&#x120;" horiz-adv-x="1419" 
d="M950 1640q-31 0 -47 19.5t-12 50.5t26.5 51.5t55.5 20.5q31 0 47 -20.5t12 -51.5q-4 -29 -28.5 -49.5t-53.5 -20.5zM920 1393q-318 0 -533 -234q-215 -236 -215 -584q0 -283 153 -414q152 -132 386 -132q244 0 442 75l96 596h-479l8 54h541l-113 -695q-234 -88 -506 -88
q-120 0 -221.5 33t-186.5 102t-133 189t-48 283q0 237 100 433q101 198 290 317q189 120 429 120q126 0 250 -45q126 -46 215 -121l-43 -49q-179 160 -432 160z" />
    <glyph glyph-name="gdotaccent" unicode="&#x121;" horiz-adv-x="1120" 
d="M684 1174q-35 0 -52.5 22.5t-13.5 56.5q4 33 30 55.5t61 22.5q33 0 51 -22.5t14 -54.5q-4 -33 -30.5 -56.5t-59.5 -23.5zM997 971h54l-166 -991q-86 -506 -510 -506q-209 0 -361 123l23 57q131 -125 340 -125q375 0 452 461l31 188q-72 -92 -185 -149q-113 -58 -231 -58
q-166 0 -268 104t-102 294q0 270 162 450q161 180 387 180q118 0 207.5 -56.5t134.5 -156.5zM446 29q128 0 244 70q118 70 191 190l67 403q-79 252 -334 252q-186 0 -333 -160q-148 -160 -148 -415q0 -157 87 -249q87 -91 226 -91z" />
    <glyph glyph-name="uni0122" unicode="&#x122;" horiz-adv-x="1419" 
d="M920 1393q-318 0 -533 -234q-215 -236 -215 -584q0 -283 153 -414q152 -132 386 -132q244 0 442 75l96 596h-479l8 54h541l-113 -695q-234 -88 -506 -88q-120 0 -221.5 33t-186.5 102t-133 189t-48 283q0 237 100 433q101 198 290 317q189 120 429 120q126 0 250 -45
q126 -46 215 -121l-43 -49q-179 160 -432 160zM715 -100q109 0 80 -164q-39 -217 -238 -301l-20 45q176 71 206 266q-25 -25 -65 -25q-33 0 -52.5 22.5t-10.5 63.5q8 41 36.5 67t63.5 26z" />
    <glyph glyph-name="uni0123" unicode="&#x123;" horiz-adv-x="1120" 
d="M696 1196q-107 0 -78 164q39 215 236 301l18 -43q-176 -77 -206 -272q28 29 69 28q33 0 51.5 -22t12.5 -64q-8 -42 -38 -67t-65 -25zM997 971h54l-166 -991q-86 -506 -510 -506q-209 0 -361 123l23 57q131 -125 340 -125q375 0 452 461l31 188q-72 -92 -185 -149
q-113 -58 -231 -58q-166 0 -268 104t-102 294q0 270 162 450q161 180 387 180q118 0 207.5 -56.5t134.5 -156.5zM446 29q128 0 244 70q118 70 191 190l67 403q-79 252 -334 252q-186 0 -333 -160q-148 -160 -148 -415q0 -157 87 -249q87 -91 226 -91z" />
    <glyph glyph-name="Hbar" unicode="&#x126;" horiz-adv-x="1445" 
d="M1473 1106l-9 -49h-131l-174 -1057h-59l102 627h-913l-103 -627h-59l174 1057h-125l8 49h125l51 313h60l-51 -313h913l51 313h60l-52 -313h132zM1212 680l62 377h-914l-61 -377h913z" />
    <glyph glyph-name="hbar" unicode="&#x127;" horiz-adv-x="1069" 
d="M670 999q159 0 226 -103q68 -103 36 -282l-103 -618h-57l102 616q57 332 -212 332q-130 0 -237 -76t-181 -206l-109 -662h-57l209 1274h-109l8 51h109l33 197h57l-33 -197h531l-9 -51h-530l-84 -512q67 105 176 172q107 65 234 65z" />
    <glyph glyph-name="Imacron" unicode="&#x12a;" horiz-adv-x="473" 
d="M117 1749l8 51h674l-8 -51h-674zM420 1419l-234 -1419h-59l233 1419h60z" />
    <glyph glyph-name="imacron" unicode="&#x12b;" horiz-adv-x="450" 
d="M39 1393h674l-8 -52h-674zM334 971l-162 -971h-57l161 971h58z" />
    <glyph glyph-name="Iogonek" unicode="&#x12e;" horiz-adv-x="473" 
d="M186 0q-399 -180 -399 -416q0 -54 28 -82t79 -28q112 0 198 61l8 -55q-103 -62 -211 -64q-82 0 -122.5 42t-40.5 114q0 142 113 260q113 116 290 184l231 1403h60z" />
    <glyph glyph-name="iogonek" unicode="&#x12f;" horiz-adv-x="450" 
d="M377 1331q33 0 51 -22.5t14 -54.5q-4 -33 -30.5 -56.5t-59.5 -23.5q-35 0 -52 22.5t-13 56.5q4 33 29.5 55.5t60.5 22.5zM117 10l159 961h58l-162 -971q-399 -195 -399 -397q0 -109 110 -109q95 0 201 53l8 -55q-114 -55 -209 -55q-170 0 -170 155q0 127 113 235
q112 109 291 183z" />
    <glyph glyph-name="Idotaccent" unicode="&#x130;" horiz-adv-x="473" 
d="M385 1660q-13 15 -13 36.5t10 41.5t29 33t44 11q31 0 47 -20.5t12 -51.5q-4 -29 -28.5 -49.5t-53.5 -20.5q-30 0 -47 20zM420 1419l-234 -1419h-59l233 1419h60z" />
    <glyph glyph-name="dotlessi" unicode="&#x131;" horiz-adv-x="450" 
d="M334 971l-162 -971h-57l161 971h58z" />
    <glyph glyph-name="uni0136" unicode="&#x136;" horiz-adv-x="1193" 
d="M1272 1419l-594 -524l358 -895h-65l-340 854l-357 -313l-88 -541h-59l233 1419h60l-131 -801l903 801h80zM518 -100q109 0 80 -164q-39 -217 -238 -301l-20 45q176 71 207 266q-25 -25 -66 -25q-33 0 -52 22.5t-11 63.5t36.5 67t63.5 26z" />
    <glyph glyph-name="uni0137" unicode="&#x137;" horiz-adv-x="899" 
d="M903 971l-377 -348l262 -623h-67l-242 580l-293 -273l-51 -307h-57l250 1522h57l-186 -1131l624 580h80zM348 -100q109 0 80 -164q-39 -217 -238 -301l-20 45q176 71 207 266q-25 -25 -66 -25q-33 0 -52 22.5t-11 63.5t36.5 67t63.5 26z" />
    <glyph glyph-name="Lacute" unicode="&#x139;" horiz-adv-x="950" 
d="M788 1989l-348 -418h-55l328 418h75zM193 53h679l-10 -53h-739l237 1419h60z" />
    <glyph glyph-name="lacute" unicode="&#x13a;" horiz-adv-x="378" 
d="M760 2091l-348 -418h-56l328 418h76zM385 1522l-250 -1522h-57l250 1522h57z" />
    <glyph glyph-name="uni013B" unicode="&#x13b;" horiz-adv-x="950" 
d="M193 53h679l-10 -53h-739l237 1419h60zM461 -100q109 0 80 -164q-39 -217 -238 -301l-20 45q176 71 206 266q-25 -25 -65 -25q-33 0 -52.5 22.5t-10.5 63.5q8 41 36.5 67t63.5 26z" />
    <glyph glyph-name="uni013C" unicode="&#x13c;" horiz-adv-x="378" 
d="M385 1522l-250 -1522h-57l250 1522h57zM88 -100q109 0 80 -164q-39 -217 -238 -301l-20 45q176 71 207 266q-25 -25 -66 -25q-33 0 -52 22.5t-11 63.5t36.5 67t63.5 26z" />
    <glyph glyph-name="Lcaron" unicode="&#x13d;" horiz-adv-x="950" 
d="M453 1579h-74l-184 434h55l172 -397l309 397h55zM193 53h679l-10 -53h-739l237 1419h60z" />
    <glyph glyph-name="lcaron" unicode="&#x13e;" horiz-adv-x="428" 
d="M614 1532l-182 -606h-47l154 606h75zM385 1522l-250 -1522h-57l250 1522h57z" />
    <glyph glyph-name="Lslash" unicode="&#x141;" horiz-adv-x="950" 
d="M193 53h679l-10 -53h-739l125 745l-328 -131l-14 43l350 142l104 620h60l-98 -594l317 129l14 -45l-342 -137z" />
    <glyph glyph-name="lslash" unicode="&#x142;" horiz-adv-x="632" 
d="M752 979l-357 -143l-137 -836h-57l133 811l-316 -127l-14 43l338 137l109 658h57l-105 -633l334 135z" />
    <glyph glyph-name="Nacute" unicode="&#x143;" horiz-adv-x="1402" 
d="M1255 1989l-348 -418h-55l328 418h75zM1298 1419h56l-238 -1419h-63l-652 1325l-217 -1325h-57l233 1419h60l655 -1331z" />
    <glyph glyph-name="nacute" unicode="&#x144;" horiz-adv-x="1093" 
d="M920 1544l-304 -416h-47l275 416h76zM694 999q159 0 226 -103q68 -103 36 -282l-102 -618h-57l102 616q57 332 -213 332q-129 0 -241 -82q-115 -84 -187 -217l-106 -645h-58l162 971h57l-37 -223q68 113 179 182q110 69 239 69z" />
    <glyph glyph-name="uni0145" unicode="&#x145;" horiz-adv-x="1402" 
d="M1298 1419h56l-238 -1419h-63l-652 1325l-217 -1325h-57l233 1419h60l655 -1331zM604 -100q109 0 80 -164q-39 -217 -238 -301l-20 45q176 71 207 266q-25 -25 -66 -25q-33 0 -52 22.5t-11 63.5t36.5 67t63.5 26z" />
    <glyph glyph-name="uni0146" unicode="&#x146;" horiz-adv-x="1093" 
d="M694 999q159 0 226 -103q68 -103 36 -282l-102 -618h-57l102 616q57 332 -213 332q-129 0 -241 -82q-115 -84 -187 -217l-106 -645h-58l162 971h57l-37 -223q68 113 179 182q110 69 239 69zM449 -100q109 0 79 -164q-39 -217 -237 -301l-21 45q176 71 207 266
q-25 -25 -65 -25q-33 0 -52.5 22.5t-11.5 63.5t37 67t64 26z" />
    <glyph glyph-name="Ncaron" unicode="&#x147;" horiz-adv-x="1402" 
d="M920 1579h-74l-184 434h55l172 -397l309 397h55zM1298 1419h56l-238 -1419h-63l-652 1325l-217 -1325h-57l233 1419h60l655 -1331z" />
    <glyph glyph-name="ncaron" unicode="&#x148;" horiz-adv-x="1093" 
d="M680 1128h-74l-186 435h55l174 -398l307 398h56zM694 999q159 0 226 -103q68 -103 36 -282l-102 -618h-57l102 616q57 332 -213 332q-129 0 -241 -82q-115 -84 -187 -217l-106 -645h-58l162 971h57l-37 -223q68 113 179 182q110 69 239 69z" />
    <glyph glyph-name="Eng" unicode="&#x14a;" horiz-adv-x="1388" 
d="M1298 1419h56l-232 -1380q-70 -430 -413 -430q-176 0 -318 121l33 55q116 -119 293 -119q268 0 340 326l-656 1333l-217 -1325h-57l233 1419h60l655 -1331z" />
    <glyph glyph-name="eng" unicode="&#x14b;" horiz-adv-x="1087" 
d="M694 999q159 0 226 -103q68 -103 36 -282l-122 -723q-56 -310 -381 -335l-11 51q284 13 334 284l123 721q57 332 -213 332q-129 0 -241 -82q-115 -84 -187 -217l-106 -645h-58l162 971h57l-37 -223q68 113 179 182q110 69 239 69z" />
    <glyph glyph-name="Omacron" unicode="&#x14c;" horiz-adv-x="1507" 
d="M633 1749l8 51h674l-8 -51h-674zM647 -29q-103 0 -196 34t-171 103q-79 69 -126.5 191t-47.5 283q0 362 234 614q233 252 582 252q97 0 189.5 -32.5t177.5 -98.5q86 -66 138 -186t52 -277q1 -98 -20.5 -196t-62 -188.5t-99.5 -170.5t-134 -143q-100 -87 -232.5 -136
t-283.5 -49zM655 29q220 0 398 121q178 119 271 306q93 185 93 388q0 144 -42.5 252t-116.5 172q-74 63 -160.5 94t-186.5 31q-309 0 -526 -235t-217 -562q0 -288 138 -428q138 -139 349 -139z" />
    <glyph glyph-name="omacron" unicode="&#x14d;" horiz-adv-x="1095" 
d="M362 1393h674l-8 -52h-674zM455 -29q-159 0 -268 100q-111 99 -111 304q0 249 163 436q162 188 410 188q157 0 264 -97q107 -98 107 -306q0 -261 -166 -442q-166 -183 -399 -183zM463 29q193 0 341 160q148 158 157 397q6 190 -89 274q-96 84 -231 84q-202 0 -354 -165
q-152 -166 -152 -398q0 -172 92 -262t236 -90z" />
    <glyph glyph-name="Ohungarumlaut" unicode="&#x150;" horiz-adv-x="1507" 
d="M1081 1987l-268 -416h-47l240 416h75zM1432 1987l-388 -416h-51l363 416h76zM647 -29q-103 0 -196 34t-171 103q-79 69 -126.5 191t-47.5 283q0 362 234 614q233 252 582 252q97 0 189.5 -32.5t177.5 -98.5q86 -66 138 -186t52 -277q1 -98 -20.5 -196t-62 -188.5
t-99.5 -170.5t-134 -143q-100 -87 -232.5 -136t-283.5 -49zM655 29q220 0 398 121q178 119 271 306q93 185 93 388q0 144 -42.5 252t-116.5 172q-74 63 -160.5 94t-186.5 31q-309 0 -526 -235t-217 -562q0 -288 138 -428q138 -139 349 -139z" />
    <glyph glyph-name="ohungarumlaut" unicode="&#x151;" horiz-adv-x="1095" 
d="M840 1544l-269 -416h-47l240 416h76zM1133 1544l-388 -416h-47l359 416h76zM455 -29q-159 0 -268 100q-111 99 -111 304q0 249 163 436q162 188 410 188q157 0 264 -97q107 -98 107 -306q0 -261 -166 -442q-166 -183 -399 -183zM463 29q193 0 341 160q148 158 157 397
q6 190 -89 274q-96 84 -231 84q-202 0 -354 -165q-152 -166 -152 -398q0 -172 92 -262t236 -90z" />
    <glyph glyph-name="OE" unicode="&#x152;" horiz-adv-x="2131" 
d="M2230 1366h-803l-98 -590h666l-8 -53h-666l-113 -670h805l-8 -53h-864l24 150q-219 -177 -518 -179q-103 0 -196 34t-171 103q-79 69 -126.5 191t-47.5 283q0 362 234 614q233 252 582 252q115 0 232 -47q115 -47 194 -144l26 162h864zM655 29q146 0 285 53
q138 53 238 147l157 951q-36 53 -83 93t-101.5 66.5t-115.5 40t-124 13.5q-309 0 -526 -235t-217 -562q0 -288 138 -428q138 -139 349 -139z" />
    <glyph glyph-name="oe" unicode="&#x153;" horiz-adv-x="1863" 
d="M1786 467h-780q-3 -25 -4.5 -49.5t-2.5 -50.5q0 -99 32 -168.5t84 -104.5t104.5 -50t107.5 -15q200 0 375 125l12 -58q-175 -125 -389 -125q-140 0 -250 78t-131 240q-73 -145 -204 -231q-130 -87 -285 -87q-159 0 -268 100q-111 99 -111 304q0 249 163 436
q162 188 410 188q138 0 241 -77q101 -78 122 -242q74 148 198 233q124 86 271 86q74 0 133 -23t100 -69t63.5 -114t22.5 -158q0 -42 -3.5 -83.5t-10.5 -84.5zM463 29q193 0 341 160q148 158 157 397q6 190 -89 274q-96 84 -231 84q-202 0 -354 -165q-152 -166 -152 -398
q0 -172 92 -262t236 -90zM1473 944q-154 0 -284 -118q-129 -117 -173 -308h717q4 37 6 64.5t2 44.5q0 164 -66.5 240.5t-201.5 76.5z" />
    <glyph glyph-name="Racute" unicode="&#x154;" horiz-adv-x="1247" 
d="M1217 1989l-349 -418h-55l328 418h76zM1249 1122q0 -221 -138 -332q-138 -112 -353 -126l327 -664h-71l-324 662h-395l-111 -662h-59l235 1419h527q172 0 267 -77t95 -220zM709 715q222 0 349 111q128 110 128 288q0 63 -21 110.5t-61 79t-96 47t-127 15.5h-469
l-109 -651h406z" />
    <glyph glyph-name="racute" unicode="&#x155;" horiz-adv-x="600" 
d="M743 1544l-303 -416h-47l275 416h75zM274 735q112 250 338 250q11 0 26 -1t34 -3l-10 -53q-13 2 -26.5 3t-27.5 1q-246 0 -368 -404l-88 -528h-58l162 971h53z" />
    <glyph glyph-name="uni0156" unicode="&#x156;" horiz-adv-x="1247" 
d="M1249 1122q0 -221 -138 -332q-138 -112 -353 -126l327 -664h-71l-324 662h-395l-111 -662h-59l235 1419h527q172 0 267 -77t95 -220zM709 715q222 0 349 111q128 110 128 288q0 63 -21 110.5t-61 79t-96 47t-127 15.5h-469l-109 -651h406zM565 -100q109 0 80 -164
q-39 -217 -237 -301l-21 45q176 71 207 266q-25 -25 -66 -25q-33 0 -52 22.5t-11 63.5t36.5 67t63.5 26z" />
    <glyph glyph-name="uni0157" unicode="&#x157;" horiz-adv-x="600" 
d="M612 985q11 0 26 -1t34 -3l-10 -53q-13 2 -26.5 3t-27.5 1q-246 0 -368 -404l-88 -528h-58l162 971h53l-35 -236q112 250 338 250zM106 -100q109 0 80 -164q-39 -217 -237 -301l-21 45q176 71 207 266q-25 -25 -65 -25q-33 0 -52.5 22.5t-11.5 63.5t36.5 67t63.5 26z" />
    <glyph glyph-name="Rcaron" unicode="&#x158;" horiz-adv-x="1247" 
d="M881 1579h-74l-184 434h55l172 -397l309 397h55zM1249 1122q0 -221 -138 -332q-138 -112 -353 -126l327 -664h-71l-324 662h-395l-111 -662h-59l235 1419h527q172 0 267 -77t95 -220zM709 715q222 0 349 111q128 110 128 288q0 63 -21 110.5t-61 79t-96 47t-127 15.5
h-469l-109 -651h406z" />
    <glyph glyph-name="rcaron" unicode="&#x159;" horiz-adv-x="600" 
d="M504 1128h-74l-186 435h55l174 -398l307 398h56zM274 735q112 250 338 250q11 0 26 -1t34 -3l-10 -53q-13 2 -26.5 3t-27.5 1q-246 0 -368 -404l-88 -528h-58l162 971h53z" />
    <glyph glyph-name="Sacute" unicode="&#x15a;" horiz-adv-x="1046" 
d="M1092 1989l-349 -418h-55l328 418h76zM453 -29q-245 0 -445 176l25 64q173 -182 428 -182q183 0 301 97q119 98 119 249q0 72 -23 125t-77 93q-27 20 -52.5 36t-48.5 28q-23 11 -56.5 26t-78.5 32q-159 65 -242 147q-82 79 -82 225q0 155 122 259q122 102 337 102
q219 0 391 -123l-33 -49q-166 117 -366 117q-169 0 -279 -80t-110 -215q0 -130 72 -201q70 -70 216 -127q48 -20 83 -35t59 -26q47 -22 111 -69q63 -46 90.5 -108t27.5 -147q0 -194 -139 -303q-139 -111 -350 -111z" />
    <glyph glyph-name="sacute" unicode="&#x15b;" horiz-adv-x="761" 
d="M719 1544l-303 -416h-47l274 416h76zM590 246q0 27 -7.5 50t-13.5 40q-3 8 -10.5 17t-16 17t-16.5 15t-13 12q-9 9 -39 24q-15 8 -24.5 12.5t-13.5 6.5t-15 6.5t-29 12.5q-18 7 -28.5 11t-13.5 5q-122 51 -180 113q-57 62 -57 160q0 120 80 185.5t241 65.5q147 0 289 -75
l-27 -54q-122 74 -270 74q-128 0 -191 -51.5t-63 -142.5q0 -144 197 -218q140 -51 210 -111q70 -61 70 -173q0 -141 -104 -209q-106 -68 -256 -68q-177 0 -305 103l24 55q106 -100 291 -100q125 0 208 59t83 158z" />
    <glyph glyph-name="Scedilla" unicode="&#x15e;" horiz-adv-x="1046" 
d="M672 1393q-169 0 -279 -80t-110 -215q0 -130 72 -201q70 -70 216 -127q48 -20 83 -35t59 -26q47 -22 111 -69q63 -46 90.5 -108t27.5 -147q0 -185 -131 -295t-334 -119l-117 -190q77 43 166 43q72 0 116 -39t44 -111q0 -117 -85 -187q-85 -69 -216 -69q-140 0 -213 70
l33 51q64 -68 188 -67q105 0 170 52q66 52 66 138q0 49 -29 79t-84 30q-110 0 -184 -62l-49 25l139 237q-226 12 -414 176l25 64q173 -182 428 -182q183 0 301 97q119 98 119 249q0 72 -23 125t-77 93q-27 20 -52.5 36t-48.5 28q-23 11 -56.5 26t-78.5 32q-159 65 -242 147
q-82 79 -82 225q0 155 122 259q122 102 337 102q219 0 391 -123l-33 -49q-165 117 -366 117z" />
    <glyph glyph-name="scedilla" unicode="&#x15f;" horiz-adv-x="761" 
d="M426 944q-128 0 -191 -51.5t-63 -142.5q0 -144 197 -218q140 -51 210 -111q70 -61 70 -173q0 -129 -90 -197q-90 -69 -227 -78l-121 -194q71 33 133 33q166 0 166 -158q0 -111 -83 -177q-83 -65 -200 -65q-110 0 -211 56l27 49q85 -50 184 -52q94 0 159 53q65 54 65 136
q0 48 -30 76t-87 28q-93 0 -160 -55l-49 25l143 243q-163 6 -284 103l24 55q106 -100 291 -100q126 0 208 58q83 59 83 159q0 27 -7.5 50t-13.5 40q-3 8 -10.5 17t-16 17t-16.5 15t-13 12q-9 9 -39 24q-15 8 -24.5 12.5t-13.5 6.5t-15 6.5t-29 12.5q-18 7 -28.5 11t-13.5 5
q-122 51 -180 113q-57 62 -57 160q0 120 80 185.5t241 65.5q147 0 289 -75l-27 -54q-121 74 -270 74z" />
    <glyph glyph-name="Scaron" unicode="&#x160;" horiz-adv-x="1046" 
d="M756 1579h-74l-184 434h55l172 -397l309 397h56zM221 1087q0 155 122 259q122 102 337 102q219 0 391 -123l-33 -49q-166 117 -366 117q-169 0 -279 -80t-110 -215q0 -130 72 -201q70 -70 216 -127q48 -20 83 -35t59 -26q47 -22 111 -69q63 -46 90.5 -108t27.5 -147
q0 -194 -139 -303q-139 -111 -350 -111q-245 0 -445 176l25 64q173 -182 428 -182q183 0 301 97q119 98 119 249q0 72 -23 125t-77 93q-27 20 -52.5 36t-48.5 28q-23 11 -56.5 26t-78.5 32q-159 65 -242 147q-82 79 -82 225z" />
    <glyph glyph-name="scaron" unicode="&#x161;" horiz-adv-x="761" 
d="M479 1128h-73l-187 435h55l175 -398l307 398h55zM113 748q0 120 80 185.5t241 65.5q147 0 289 -75l-27 -54q-122 74 -270 74q-128 0 -191 -51.5t-63 -142.5q0 -144 197 -218q140 -51 210 -111q70 -61 70 -173q0 -141 -104 -209q-106 -68 -256 -68q-177 0 -305 103l24 55
q106 -100 291 -100q126 0 208 58q83 59 83 159q0 27 -7.5 50t-13.5 40q-3 8 -10.5 17t-16 17t-16.5 15t-13 12q-9 9 -39 24q-15 8 -24.5 12.5t-13.5 6.5t-15 6.5t-29 12.5q-18 7 -28.5 11t-13.5 5q-61 26 -106 53t-74 59.5t-43 72t-14 88.5z" />
    <glyph glyph-name="uni0162" unicode="&#x162;" horiz-adv-x="1087" 
d="M1167 1366h-465l-221 -1346h15l-148 -239q77 43 166 43q72 0 116 -39t44 -111q0 -117 -85 -187q-85 -69 -216 -69q-140 0 -213 70l33 51q64 -68 188 -67q105 0 170 52q65 53 65 138q0 49 -28.5 79t-83.5 30q-111 0 -185 -62l-49 25l156 266h-8l225 1366h-463l8 53h988z
" />
    <glyph glyph-name="uni0163" unicode="&#x163;" horiz-adv-x="595" 
d="M338 920l-107 -639q-20 -117 17 -186.5t133 -69.5q119 0 227 75l10 -55q-103 -66 -208 -72l-121 -194q71 33 133 33q166 0 166 -158q0 -111 -83 -177q-83 -65 -200 -65q-110 0 -211 56l27 49q88 -50 184 -52q94 0 159 53q64 54 64 136q0 48 -29.5 76t-86.5 28
q-93 0 -160 -55l-49 25l143 245q-103 10 -147.5 88.5t-22.5 219.5l105 639h-154l8 51h154l53 325h59l-55 -325h326l-8 -51h-326z" />
    <glyph glyph-name="Tcaron" unicode="&#x164;" horiz-adv-x="1050" 
d="M745 1579h-73l-185 434h56l172 -397l309 397h55zM1176 1419l-9 -53h-465l-225 -1366h-59l225 1366h-463l8 53h988z" />
    <glyph glyph-name="tcaron" unicode="&#x165;" horiz-adv-x="688" 
d="M711 1669l-183 -606h-47l154 606h76zM401 1296l-55 -325h326l-8 -51h-326l-107 -639q-20 -117 17 -186.5t133 -69.5q119 0 227 75l10 -55q-118 -74 -245 -74q-115 0 -168 80.5t-29 229.5l105 639h-154l8 51h154l53 325h59z" />
    <glyph glyph-name="Tbar" unicode="&#x166;" horiz-adv-x="1087" 
d="M1167 1366h-465l-114 -690h336l-9 -51h-335l-103 -625h-59l102 625h-301l8 51h301l115 690h-463l8 53h988z" />
    <glyph glyph-name="tbar" unicode="&#x167;" horiz-adv-x="677" 
d="M664 920h-326l-53 -326h342l-9 -51h-344l-43 -262q-20 -117 17 -186.5t133 -69.5q119 0 227 75l10 -55q-118 -74 -245 -74q-115 0 -168 80.5t-29 229.5l43 262h-135l8 51h135l54 326h-154l8 51h154l53 325h59l-55 -325h326z" />
    <glyph glyph-name="Umacron" unicode="&#x16a;" horiz-adv-x="1378" 
d="M569 1749l9 51h673l-8 -51h-674zM602 -29q-169 0 -269 91q-102 90 -129 224q-28 133 -1 298l135 835h59l-135 -835q-23 -109 -10.5 -208t48.5 -176t116.5 -123t195.5 -46q210 0 352 144q142 143 187 405l141 839h60l-142 -839q-50 -298 -209 -453q-160 -156 -399 -156z
" />
    <glyph glyph-name="umacron" unicode="&#x16b;" horiz-adv-x="1062" 
d="M350 1393h674l-8 -52h-674zM809 326l106 645h58l-162 -971h-57l34 211q-72 -109 -182 -174q-109 -66 -227 -66q-155 0 -219 109q-66 109 -35 293l100 598h58l-101 -596q-29 -169 22 -258.5t177 -89.5q127 0 241 81q114 82 187 218z" />
    <glyph glyph-name="Uring" unicode="&#x16e;" horiz-adv-x="1378" 
d="M690 1784q17 97 88 158t166 61q93 0 146 -62q51 -63 35 -157q-16 -93 -86 -155q-71 -62 -169 -62q-96 0 -146 62t-34 155zM1067 1784q12 78 -24.5 122t-108.5 44q-35 0 -65.5 -12t-55 -34t-41.5 -52.5t-24 -67.5q-14 -76 23.5 -119t109.5 -43t123 43t63 119zM602 -29
q-169 0 -269 91q-102 90 -129 224q-28 133 -1 298l135 835h59l-135 -835q-23 -109 -10.5 -208t48.5 -176t116.5 -123t195.5 -46q210 0 352 144q142 143 187 405l141 839h60l-142 -839q-50 -298 -209 -453q-160 -156 -399 -156z" />
    <glyph glyph-name="uring" unicode="&#x16f;" horiz-adv-x="1062" 
d="M647 1204q-81 0 -127.5 48t-46.5 126q0 117 75 190q75 72 183 72q85 0 134.5 -48.5t49.5 -129.5q0 -110 -75 -184q-77 -74 -193 -74zM721 1587q-80 0 -135 -58q-56 -59 -56 -145q0 -60 35 -92t92 -32q77 0 138 55t61 141q0 63 -36 97t-99 34zM915 971h58l-162 -971h-57
l34 211q-72 -109 -182 -174q-109 -66 -227 -66q-155 0 -219 109q-66 109 -35 293l100 598h58l-101 -596q-29 -169 22 -258.5t177 -89.5q127 0 241 81q114 80 187 218z" />
    <glyph glyph-name="Uhungarumlaut" unicode="&#x170;" horiz-adv-x="1378" 
d="M1018 1987l-268 -416h-48l240 416h76zM1368 1987l-387 -416h-51l362 416h76zM602 -29q-169 0 -269 91q-102 90 -129 224q-28 133 -1 298l135 835h59l-135 -835q-23 -109 -10.5 -208t48.5 -176t116.5 -123t195.5 -46q210 0 352 144q142 143 187 405l141 839h60l-142 -839
q-50 -298 -209 -453q-160 -156 -399 -156z" />
    <glyph glyph-name="uhungarumlaut" unicode="&#x171;" horiz-adv-x="1062" 
d="M827 1544l-268 -416h-47l240 416h75zM733 1128h-47l358 416h76zM809 326l106 645h58l-162 -971h-57l34 211q-72 -109 -182 -174q-109 -66 -227 -66q-155 0 -219 109q-66 109 -35 293l100 598h58l-101 -596q-29 -169 22 -258.5t177 -89.5q127 0 241 81q114 82 187 218z
" />
    <glyph glyph-name="Uogonek" unicode="&#x172;" horiz-adv-x="1378" 
d="M1292 1419h60l-142 -839q-77 -456 -403 -574q-375 -179 -375 -405q0 -54 28 -82.5t79 -28.5q112 0 198 61l8 -55q-103 -63 -210 -63q-82 0 -123 41.5t-41 113.5q0 229 276 385q-7 -1 -18 -1.5t-27 -0.5q-169 0 -269 91q-102 90 -129 224q-28 133 -1 298l135 835h59
l-135 -835q-23 -109 -10.5 -208t48.5 -176t116.5 -123t195.5 -46q210 0 352 144q142 143 187 405z" />
    <glyph glyph-name="uogonek" unicode="&#x173;" horiz-adv-x="1062" 
d="M811 0q-399 -195 -399 -397q0 -109 110 -109q95 0 201 53l8 -55q-114 -55 -209 -55q-170 0 -170 155q0 126 113 236q111 108 291 182l32 201q-72 -109 -182 -174q-109 -66 -227 -66q-155 0 -219 109q-66 109 -35 293l100 598h58l-101 -596q-29 -169 22 -258.5t177 -89.5
q127 0 241 81q114 80 187 218l106 645h58z" />
    <glyph glyph-name="Wcircumflex" unicode="&#x174;" horiz-adv-x="1863" 
d="M1171 1950l-307 -396h-55l332 435h73l187 -435h-55zM1845 1419h64l-598 -1419h-74l-137 1106l-27 225q-48 -105 -74 -161.5t-30 -65.5l-537 -1104h-74l-92 1419h62l73 -1224q0 -7 1 -21t3 -35q2 -22 3 -38t2 -27l55 114l584 1211h75l152 -1192q10 -67 12 -121q8 18 27 63
q9 22 15.5 38t10.5 26z" />
    <glyph glyph-name="wcircumflex" unicode="&#x175;" horiz-adv-x="1290" 
d="M819 1524l-307 -396h-55l329 435h74l189 -435h-56zM1274 971h67l-462 -971h-64l-115 868l-438 -868h-63l-86 971h61l70 -897l442 884h59l115 -888z" />
    <glyph glyph-name="Ycircumflex" unicode="&#x176;" horiz-adv-x="1075" 
d="M778 1950l-307 -396h-55l332 435h73l187 -435h-56zM1200 1419l-616 -809l-101 -610h-59l102 618l-340 801h68l309 -747l561 747h76z" />
    <glyph glyph-name="ycircumflex" unicode="&#x177;" horiz-adv-x="905" 
d="M627 1524l-308 -396h-55l330 435h74l188 -435h-55zM909 971h68l-862 -1471h-62l295 498l-242 973h62l219 -905z" />
    <glyph glyph-name="Ydieresis" unicode="&#x178;" horiz-adv-x="1075" 
d="M557 1638q-29 0 -43 18.5t-10 47.5t25.5 47t50.5 18q27 0 41 -18t10 -47q-4 -27 -25.5 -46.5t-48.5 -19.5zM907 1638q-31 0 -45 18.5t-10 47.5t25.5 47t50.5 18t44 -18t11 -47t-26.5 -47.5t-49.5 -18.5zM1200 1419l-616 -809l-101 -610h-59l102 618l-340 801h68l309 -747
l561 747h76z" />
    <glyph glyph-name="Zacute" unicode="&#x179;" horiz-adv-x="1140" 
d="M1135 1989l-349 -418h-55l328 418h76zM1139 1419l-9 -51l-1007 -1315h883l-11 -53h-956l8 51l1006 1315h-824l9 53h901z" />
    <glyph glyph-name="zacute" unicode="&#x17a;" horiz-adv-x="778" 
d="M762 1544l-303 -416h-47l274 416h76zM774 971l-10 -53l-696 -867h589l-8 -51h-653l10 53l690 867h-563l8 51h633z" />
    <glyph glyph-name="Zdotaccent" unicode="&#x17b;" horiz-adv-x="1140" 
d="M776 1640q-31 0 -47 19.5t-12 50.5t26.5 51.5t55.5 20.5q31 0 47 -20.5t12 -51.5q-4 -29 -28.5 -49.5t-53.5 -20.5zM1139 1419l-9 -51l-1007 -1315h883l-11 -53h-956l8 51l1006 1315h-824l9 53h901z" />
    <glyph glyph-name="zdotaccent" unicode="&#x17c;" horiz-adv-x="778" 
d="M516 1174q-35 0 -52.5 22.5t-12.5 56.5q4 33 29.5 55.5t60.5 22.5q33 0 51 -22.5t14 -54.5q-4 -33 -30.5 -56.5t-59.5 -23.5zM774 971l-10 -53l-696 -867h589l-8 -51h-653l10 53l690 867h-563l8 51h633z" />
    <glyph glyph-name="Zcaron" unicode="&#x17d;" horiz-adv-x="1140" 
d="M799 1579h-74l-184 434h55l172 -397l309 397h56zM1139 1419l-9 -51l-1007 -1315h883l-11 -53h-956l8 51l1006 1315h-824l9 53h901z" />
    <glyph glyph-name="zcaron" unicode="&#x17e;" horiz-adv-x="778" 
d="M522 1128h-73l-187 435h55l175 -398l307 398h55zM133 920l8 51h633l-10 -53l-696 -867h589l-8 -51h-653l10 53l690 867h-563z" />
    <glyph glyph-name="uni01CD" unicode="&#x1cd;" horiz-adv-x="1224" 
d="M829 1579h-73l-185 434h56l172 -397l309 397h55zM737 1419h70l283 -1419h-64l-88 451h-659l-242 -451h-66zM307 504h621l-166 842z" />
    <glyph glyph-name="uni01CE" unicode="&#x1ce;" horiz-adv-x="1124" 
d="M694 1128h-73l-187 435h55l175 -398l307 398h55zM1004 971h51l-162 -971h-51l28 197q-71 -100 -186 -163t-244 -63q-160 0 -261 105q-101 104 -101 297q0 269 162 447q161 179 387 179q118 0 207.5 -57.5t134.5 -157.5zM442 29q140 0 255 76q118 76 190 202l65 385
q-84 252 -334 252q-186 0 -333 -160q-148 -160 -148 -411q0 -160 84 -252t221 -92z" />
    <glyph glyph-name="uni01CF" unicode="&#x1cf;" horiz-adv-x="473" 
d="M733 2013h55l-333 -434h-74l-184 434h55l172 -397zM127 0l233 1419h60l-234 -1419h-59z" />
    <glyph glyph-name="uni01D0" unicode="&#x1d0;" horiz-adv-x="450" 
d="M635 1563h55l-332 -435h-73l-187 435h56l174 -398zM115 0l161 971h58l-162 -971h-57z" />
    <glyph glyph-name="uni01D1" unicode="&#x1d1;" horiz-adv-x="1507" 
d="M971 1579h-74l-184 434h55l172 -397l309 397h56zM922 1448q97 0 189.5 -32.5t177.5 -98.5q86 -66 138 -186t52 -277q1 -98 -20.5 -196t-62 -188.5t-99.5 -170.5t-134 -143q-100 -87 -232.5 -136t-283.5 -49q-103 0 -196 34t-171 103q-79 69 -126.5 191t-47.5 283
q0 362 234 614t582 252zM655 29q220 0 398 121q178 119 271 306q93 185 93 388q0 144 -42.5 252t-116.5 172q-74 63 -160.5 94t-186.5 31q-309 0 -526 -235t-217 -562q0 -288 138 -428q138 -139 349 -139z" />
    <glyph glyph-name="uni01D2" unicode="&#x1d2;" horiz-adv-x="1095" 
d="M682 1128h-74l-186 435h55l174 -398l307 398h56zM649 999q157 0 264 -97q107 -98 107 -306q0 -261 -166 -442q-166 -183 -399 -183q-159 0 -268 100q-111 99 -111 304q0 249 163 436q162 188 410 188zM463 29q193 0 341 160q148 158 157 397q6 190 -89 274
q-96 84 -231 84q-202 0 -354 -165q-152 -166 -152 -398q0 -172 92 -262t236 -90z" />
    <glyph glyph-name="uni01D3" unicode="&#x1d3;" horiz-adv-x="1378" 
d="M907 1579h-73l-185 434h56l172 -397l309 397h55zM1292 1419h60l-142 -839q-50 -298 -209 -453q-160 -156 -399 -156q-169 0 -269 91q-102 90 -129 224q-28 133 -1 298l135 835h59l-135 -835q-23 -109 -10.5 -208t48.5 -176t116.5 -123t195.5 -46q210 0 352 144
q142 143 187 405z" />
    <glyph glyph-name="uni01D4" unicode="&#x1d4;" horiz-adv-x="1062" 
d="M670 1128h-74l-186 435h55l174 -398l307 398h55zM809 326l106 645h58l-162 -971h-57l34 211q-72 -109 -182 -174q-109 -66 -227 -66q-155 0 -219 109q-66 109 -35 293l100 598h58l-101 -596q-29 -169 22 -258.5t177 -89.5q127 0 241 81q114 82 187 218z" />
    <glyph glyph-name="uni0218" unicode="&#x218;" horiz-adv-x="1046" 
d="M672 1393q-169 0 -279 -80t-110 -215q0 -130 72 -201q70 -70 216 -127q48 -20 83 -35t59 -26q47 -22 111 -69q63 -46 90.5 -108t27.5 -147q0 -194 -139 -303q-139 -111 -350 -111q-245 0 -445 176l25 64q173 -182 428 -182q183 0 301 97q119 98 119 249q0 72 -23 125
t-77 93q-27 20 -52.5 36t-48.5 28q-23 11 -56.5 26t-78.5 32q-159 65 -242 147q-82 79 -82 225q0 155 122 259q122 102 337 102q219 0 391 -123l-33 -49q-165 117 -366 117zM459 -100q109 0 80 -164q-39 -217 -238 -301l-20 45q176 71 206 266q-25 -25 -65 -25
q-33 0 -52.5 22.5t-10.5 63.5q8 41 36.5 67t63.5 26z" />
    <glyph glyph-name="uni0219" unicode="&#x219;" horiz-adv-x="761" 
d="M426 944q-128 0 -191 -51.5t-63 -142.5q0 -144 197 -218q140 -51 210 -111q70 -61 70 -173q0 -141 -104 -209q-106 -68 -256 -68q-177 0 -305 103l24 55q106 -100 291 -100q126 0 208 58q83 59 83 159q0 27 -7.5 50t-13.5 40q-3 8 -10.5 17t-16 17t-16.5 15t-13 12
q-9 9 -39 24q-15 8 -24.5 12.5t-13.5 6.5t-15 6.5t-29 12.5q-18 7 -28.5 11t-13.5 5q-122 51 -180 113q-57 62 -57 160q0 120 80 185.5t241 65.5q147 0 289 -75l-27 -54q-121 74 -270 74zM279 -100q109 0 79 -164q-39 -217 -237 -301l-21 45q176 71 207 266q-25 -25 -65 -25
q-33 0 -52.5 22.5t-11.5 63.5t37 67t64 26z" />
    <glyph glyph-name="uni021A" unicode="&#x21a;" horiz-adv-x="1050" 
d="M1176 1419l-9 -53h-465l-225 -1366h-59l225 1366h-463l8 53h988zM430 -100q109 0 80 -164q-39 -217 -238 -301l-20 45q176 71 207 266q-25 -25 -66 -25q-33 0 -52 22.5t-11 63.5t36.5 67t63.5 26z" />
    <glyph glyph-name="uni021B" unicode="&#x21b;" horiz-adv-x="595" 
d="M338 920l-107 -639q-20 -117 17 -186.5t133 -69.5q119 0 227 75l10 -55q-118 -74 -245 -74q-115 0 -168 80.5t-29 229.5l105 639h-154l8 51h154l53 325h59l-55 -325h326l-8 -51h-326zM356 -100q109 0 80 -164q-39 -217 -237 -301l-21 45q176 71 207 266q-25 -25 -66 -25
q-33 0 -52 22.5t-11 63.5t36.5 67t63.5 26z" />
    <glyph glyph-name="uni0237" unicode="&#x237;" horiz-adv-x="405" 
d="M-193 -520l-10 51q231 13 273 264l192 1176h57l-192 -1178q-48 -286 -320 -313z" />
    <glyph glyph-name="circumflex" unicode="&#x2c6;" horiz-adv-x="1228" 
d="M725 1128h-55l-174 396l-308 -396h-55l330 435h74z" />
    <glyph glyph-name="caron" unicode="&#x2c7;" horiz-adv-x="1228" 
d="M758 1563h55l-332 -435h-73l-187 435h55l175 -398z" />
    <glyph glyph-name="breve" unicode="&#x2d8;" horiz-adv-x="1228" 
d="M223 1559h51q-33 -146 14 -235t189 -89q272 0 309 324h52q-10 -90 -40 -159.5t-77.5 -117t-110.5 -72t-139 -24.5q-152 0 -220 98q-68 97 -28 275z" />
    <glyph glyph-name="dotaccent" unicode="&#x2d9;" horiz-adv-x="1228" 
d="M154 1253q4 33 29.5 55.5t60.5 22.5q33 0 51 -22.5t14 -54.5q-4 -33 -30.5 -56.5t-59.5 -23.5q-35 0 -52 22t-13 57z" />
    <glyph glyph-name="ring" unicode="&#x2da;" horiz-adv-x="1228" 
d="M367 1204q-81 0 -127.5 48t-46.5 126q0 117 75 190q74 72 183 72q85 0 134.5 -48.5t49.5 -129.5q0 -110 -75 -184q-77 -74 -193 -74zM377 1260q76 0 137 55t61 141q0 63 -35.5 97t-99.5 34q-80 0 -135 -58t-55 -145q0 -60 35 -92t92 -32z" />
    <glyph glyph-name="ogonek" unicode="&#x2db;" horiz-adv-x="1228" 
d="M152 -537q-170 0 -170 156q0 135 126 249q125 115 318 185l14 -26q-399 -195 -399 -398q0 -110 111 -108q96 0 200 53l8 -55q-115 -56 -208 -56z" />
    <glyph glyph-name="tilde" unicode="&#x2dc;" horiz-adv-x="1228" 
d="M358 1479q-109 0 -155 -322h-49q50 375 215 375q27 0 48 -11.5t48 -46.5q14 -18 22.5 -30t12.5 -17q4 -6 13.5 -22.5t25.5 -42.5q2 -3 5.5 -9.5t8 -14t8.5 -14.5t7 -11q2 -4 6 -9.5t9 -13.5q9 -16 15 -23t16 -19q17 -21 33.5 -32t36.5 -12q115 0 166 326h49
q-52 -379 -223 -379q-38 0 -76 32q-37 32 -57 63q-11 16 -24 38t-30 51q-16 26 -26.5 44t-17.5 29q-13 23 -38 47t-49 24z" />
    <glyph glyph-name="hungarumlaut" unicode="&#x2dd;" horiz-adv-x="1228" 
d="M485 1544l-268 -416h-47l240 416h75zM778 1544l-387 -416h-47l358 416h76z" />
    <glyph glyph-name="gravecomb" unicode="&#x300;" 
d="M68 1128h-48l-163 416h75z" />
    <glyph glyph-name="acutecomb" unicode="&#x301;" 
d="M178 1544l-303 -416h-47l274 416h76z" />
    <glyph glyph-name="uni0302" unicode="&#x302;" 
d="M84 1128h-55l-174 396l-308 -396h-55l330 435h74z" />
    <glyph glyph-name="tildecomb" unicode="&#x303;" 
d="M-408 1479q-109 0 -155 -322h-49q49 375 215 375q27 0 48 -11.5t48 -46.5q14 -18 22.5 -30t12.5 -17q4 -6 13.5 -22.5t25.5 -42.5q2 -3 5.5 -9.5t8 -14t8.5 -14.5t7 -11q2 -4 5.5 -9.5t8.5 -13.5q10 -16 16 -23t15 -19q18 -21 34.5 -32t36.5 -12q115 0 166 326h49
q-52 -379 -223 -379q-38 0 -76 32q-36 31 -58 63q-10 16 -23 38t-29 51q-16 26 -27 44t-18 29t-16.5 22.5t-22.5 24.5q-26 24 -48 24z" />
    <glyph glyph-name="uni0304" unicode="&#x304;" 
d="M-563 1393h674l-9 -52h-673z" />
    <glyph glyph-name="uni0306" unicode="&#x306;" 
d="M-475 1559h51q-33 -147 13 -235q47 -89 190 -89q272 0 309 324h51q-10 -90 -40.5 -159.5t-77.5 -117t-110 -72t-139 -24.5q-151 0 -220 98q-67 97 -27 275z" />
    <glyph glyph-name="uni0307" unicode="&#x307;" 
d="M-51 1253q4 33 29.5 55.5t60.5 22.5q33 0 52 -22.5t14 -54.5q-5 -33 -31.5 -56.5t-59.5 -23.5q-35 0 -52 22t-13 57z" />
    <glyph glyph-name="uni0308" unicode="&#x308;" 
d="M-414 1331q-12 13 -11.5 32t10 35.5t26 28t37.5 9.5q25 0 39 -17.5t10 -43.5q-4 -27 -24.5 -44.5t-45.5 -17.5q-28 0 -41 18zM-4 1331q-14 17 -10 43.5t25 44.5q20 17 46.5 17t41.5 -17q14 -18 9.5 -44.5t-24.5 -43.5q-21 -18 -47.5 -18t-40.5 18z" />
    <glyph glyph-name="uni030A" unicode="&#x30a;" 
d="M-150 1204q-81 0 -127.5 48t-46.5 126q0 117 75 190q75 72 183 72q85 0 135 -48.5t50 -129.5q0 -111 -76 -184q-77 -74 -193 -74zM-139 1260q76 0 137 55t61 141q0 63 -35.5 97t-99.5 34q-80 0 -135 -58t-55 -145q0 -60 35 -92t92 -32z" />
    <glyph glyph-name="uni030B" unicode="&#x30b;" 
d="M-135 1544l-268 -416h-48l240 416h76zM158 1544l-387 -416h-47l358 416h76z" />
    <glyph glyph-name="uni030C" unicode="&#x30c;" 
d="M84 1563h55l-332 -435h-73l-187 435h56l174 -398z" />
    <glyph glyph-name="uni0312" unicode="&#x312;" 
d="M31 1374q33 0 51 -22t12 -64q-8 -42 -37.5 -67t-64.5 -25q-107 0 -78 164q39 215 236 301l18 -43q-176 -77 -207 -272q27 28 70 28z" />
    <glyph glyph-name="uni0326" unicode="&#x326;" 
d="M-309 -100q109 0 80 -164q-39 -217 -238 -301l-20 45q176 71 206 266q-25 -25 -65 -25q-33 0 -52.5 22.5t-11.5 63.5q9 41 37.5 67t63.5 26z" />
    <glyph glyph-name="uni0327" unicode="&#x327;" 
d="M-401 -188q167 0 165 -158q0 -111 -83 -177q-83 -65 -199 -65q-110 0 -211 56l27 49q88 -50 184 -52q93 0 158 53q65 54 65 136q0 48 -29.5 76t-87.5 28q-92 0 -159 -55l-50 25l168 286h64l-146 -235q70 33 134 33z" />
    <glyph glyph-name="uni0328" unicode="&#x328;" 
d="M-342 -537q-170 0 -170 156q0 135 126 249q127 115 318 185l15 -26q-398 -195 -400 -398q0 -110 111 -108q95 0 201 53l8 -55q-117 -56 -209 -56z" />
    <glyph glyph-name="uni0335" unicode="&#x335;" 
d="M-727 549l8 51h696l-8 -51h-696z" />
    <glyph glyph-name="uni0336" unicode="&#x336;" 
 />
    <glyph glyph-name="uni0337" unicode="&#x337;" 
d="M-725 514l-14 43l733 297l14 -45z" />
    <glyph glyph-name="uni0338" unicode="&#x338;" 
d="M55 1386l-1419 -1372l-47 39l1415 1366z" />
    <glyph glyph-name="Wgrave" unicode="&#x1e80;" horiz-adv-x="1863" 
d="M1130 1571h-55l-207 418h76zM1845 1419h64l-598 -1419h-74l-137 1106l-27 225q-48 -105 -74 -161.5t-30 -65.5l-537 -1104h-74l-92 1419h62l73 -1224q0 -7 1 -21t3 -35q2 -22 3 -38t2 -27l55 114l584 1211h75l152 -1192q10 -67 12 -121q8 18 27 63q9 22 15.5 38t10.5 26z
" />
    <glyph glyph-name="wgrave" unicode="&#x1e81;" horiz-adv-x="1290" 
d="M780 1128h-47l-164 416h76zM1274 971h67l-462 -971h-64l-115 868l-438 -868h-63l-86 971h61l70 -897l442 884h59l115 -888z" />
    <glyph glyph-name="Wacute" unicode="&#x1e82;" horiz-adv-x="1863" 
d="M1485 1989l-348 -418h-56l328 418h76zM1845 1419h64l-598 -1419h-74l-137 1106l-27 225q-48 -105 -74 -161.5t-30 -65.5l-537 -1104h-74l-92 1419h62l73 -1224q0 -7 1 -21t3 -35q2 -22 3 -38t2 -27l55 114l584 1211h75l152 -1192q10 -67 12 -121q8 18 27 63q9 22 15.5 38
t10.5 26z" />
    <glyph glyph-name="wacute" unicode="&#x1e83;" horiz-adv-x="1290" 
d="M1018 1544l-303 -416h-47l274 416h76zM1274 971h67l-462 -971h-64l-115 868l-438 -868h-63l-86 971h61l70 -897l442 884h59l115 -888z" />
    <glyph glyph-name="Wdieresis" unicode="&#x1e84;" horiz-adv-x="1863" 
d="M950 1638q-29 0 -43 18.5t-10 47.5t25.5 47t50.5 18q27 0 41 -18t10 -47q-4 -27 -25.5 -46.5t-48.5 -19.5zM1300 1638q-31 0 -45 18.5t-10 47.5t25.5 47t50.5 18t44 -18t11 -47t-26.5 -47.5t-49.5 -18.5zM1845 1419h64l-598 -1419h-74l-137 1106l-27 225
q-48 -105 -74 -161.5t-30 -65.5l-537 -1104h-74l-92 1419h62l73 -1224q0 -7 1 -21t3 -35q2 -22 3 -38t2 -27l55 114l584 1211h75l152 -1192q10 -67 12 -121q8 18 27 63q9 22 15.5 38t10.5 26z" />
    <glyph glyph-name="wdieresis" unicode="&#x1e85;" horiz-adv-x="1290" 
d="M580 1313q-27 0 -41.5 17.5t-10.5 44.5q4 26 24.5 43.5t47.5 17.5q25 0 39 -17.5t10 -43.5q-4 -27 -24 -44.5t-45 -17.5zM1037 1331q-21 -18 -47.5 -18t-40.5 18q-15 17 -11 43.5t25 44.5q20 17 46.5 17t41.5 -17q14 -18 10 -44.5t-24 -43.5zM1274 971h67l-462 -971h-64
l-115 868l-438 -868h-63l-86 971h61l70 -897l442 884h59l115 -888z" />
    <glyph glyph-name="Ygrave" unicode="&#x1ef2;" horiz-adv-x="1075" 
d="M737 1571h-55l-207 418h76zM1200 1419l-616 -809l-101 -610h-59l102 618l-340 801h68l309 -747l561 747h76z" />
    <glyph glyph-name="ygrave" unicode="&#x1ef3;" horiz-adv-x="905" 
d="M588 1128h-47l-164 416h76zM909 971h68l-862 -1471h-62l295 498l-242 973h62l219 -905z" />
    <glyph glyph-name="endash" unicode="&#x2013;" horiz-adv-x="1089" 
d="M74 549l8 51h962l-8 -51h-962z" />
    <glyph glyph-name="emdash" unicode="&#x2014;" horiz-adv-x="1316" 
d="M74 549l8 51h1190l-8 -51h-1190z" />
    <glyph glyph-name="quoteleft" unicode="&#x2018;" horiz-adv-x="335" 
d="M256 1137q27 0 45 -19.5t18 -50.5q0 -37 -24.5 -59.5t-58.5 -22.5q-93 0 -95 135q0 151 84 254q83 102 213 146l17 -45q-119 -33 -188 -129q-70 -97 -70 -216v-14q23 21 59 21z" />
    <glyph glyph-name="quoteright" unicode="&#x2019;" horiz-adv-x="315" 
d="M338 1528q94 0 94 -135q0 -149 -84 -253q-84 -103 -213 -147l-16 45q119 33 189 130q69 96 69 214v15q-22 -19 -60 -21q-27 0 -45 19.5t-18 50.5q0 37 24.5 59.5t59.5 22.5z" />
    <glyph glyph-name="quotedblleft" unicode="&#x201c;" horiz-adv-x="575" 
d="M256 1137q27 0 45 -19.5t18 -50.5q0 -37 -24.5 -59.5t-58.5 -22.5q-93 0 -95 135q0 151 84 254q83 102 213 146l17 -45q-119 -33 -188 -129q-70 -97 -70 -216v-14q23 21 59 21zM537 1137q27 0 45 -19.5t18 -50.5q0 -37 -24.5 -59.5t-59.5 -22.5q-94 0 -94 135
q0 151 84 254q83 102 213 146l16 -45q-119 -33 -188 -129q-70 -97 -70 -216v-14q23 21 60 21z" />
    <glyph glyph-name="quotedblright" unicode="&#x201d;" horiz-adv-x="577" 
d="M338 1528q94 0 94 -135q0 -149 -84 -253q-84 -103 -213 -147l-16 45q119 33 189 130q69 96 69 214v15q-22 -19 -60 -21q-27 0 -45 19.5t-18 50.5q0 37 24.5 59.5t59.5 22.5zM621 1528q94 0 94 -135q0 -149 -84 -253q-84 -103 -213 -147l-17 45q119 33 189 130
q69 96 69 214v15q-22 -19 -59 -21q-27 0 -45 19.5t-18 50.5q0 37 24.5 59.5t59.5 22.5z" />
    <glyph glyph-name="dagger" unicode="&#x2020;" horiz-adv-x="1228" 
 />
    <glyph glyph-name="daggerdbl" unicode="&#x2021;" horiz-adv-x="1228" 
 />
    <glyph glyph-name="bullet" unicode="&#x2022;" horiz-adv-x="493" 
d="M127 684q6 69 59 118q53 48 127 48q55 0 91 -40t30 -99q-5 -71 -58 -117q-55 -47 -124 -47q-60 0 -94.5 38.5t-30.5 98.5z" />
    <glyph glyph-name="ellipsis" unicode="&#x2026;" horiz-adv-x="897" 
d="M35 39q0 21 8 38.5t21.5 31t31 21t35.5 7.5q35 0 54.5 -20.5t19.5 -50.5q0 -38 -32 -67q-31 -28 -69 -28q-33 0 -51 19.5t-18 48.5zM293 39q0 21 8 38.5t21.5 31t31 21t35.5 7.5q35 0 54.5 -20.5t19.5 -50.5q0 -38 -32 -67q-31 -28 -69 -28q-33 0 -51 19.5t-18 48.5z
M551 39q0 21 8 38.5t21.5 31t31 21t35.5 7.5q35 0 54.5 -20.5t19.5 -50.5q0 -38 -32 -67q-31 -28 -68 -28q-33 0 -51.5 19.5t-18.5 48.5z" />
    <glyph glyph-name="perthousand" unicode="&#x2030;" horiz-adv-x="2281" 
d="M414 770q-119 0 -194 79q-75 80 -75 208q0 162 114 277q114 114 292 114q62 0 111 -19t83.5 -56t53 -89.5t18.5 -120.5q0 -160 -116 -276q-117 -117 -287 -117zM397 0l791 1419h59l-790 -1419h-60zM422 823q141 0 240 105q98 104 98 235q0 109 -56 171.5t-161 62.5
q-147 0 -243 -100q-97 -100 -97 -240q0 -103 55 -168q56 -66 164 -66zM1077 -29q-120 0 -193 79q-75 80 -75 208q0 162 114 277q113 114 291 114q62 0 111 -19t84 -55.5t53.5 -89t18.5 -120.5q0 -160 -117 -277t-287 -117zM1808 -29q-120 0 -193 79q-75 80 -75 208
q0 162 114 277q113 114 292 114q62 0 111 -19t83.5 -55.5t53 -89t18.5 -120.5q0 -160 -117 -277t-287 -117zM1085 25q141 0 240 104q98 104 98 236q0 109 -55.5 171t-161.5 62q-147 0 -243 -100q-97 -100 -97 -240q0 -103 55 -167q56 -66 164 -66zM1817 25q141 0 239 104
t98 236q0 109 -55.5 171t-161.5 62q-147 0 -243 -100q-97 -100 -97 -240q0 -102 56 -167q56 -66 164 -66z" />
    <glyph glyph-name="guilsinglleft" unicode="&#x2039;" horiz-adv-x="741" 
d="M657 1006l-8 -70l-551 -363l430 -374l-6 -62l-477 418l6 45z" />
    <glyph glyph-name="guilsinglright" unicode="&#x203a;" horiz-adv-x="739" 
d="M219 1006l479 -406l-6 -41l-608 -422l10 70l545 377l-430 360z" />
    <glyph glyph-name="fraction" unicode="&#x2044;" horiz-adv-x="782" 
d="M811 1419l-705 -1419h-61l705 1419h61z" />
    <glyph glyph-name="Euro" unicode="&#x20ac;" horiz-adv-x="1347" 
d="M1047 1393q-245 0 -433 -139q-190 -139 -270 -369h600l-10 -51h-606q-34 -111 -35 -224h612l-10 -51h-602q6 -270 139 -400t318 -130q141 0 279 51q139 51 231 127l12 -62q-103 -77 -244 -126q-141 -48 -280 -48q-97 0 -184 33t-162 100q-76 66 -122.5 182t-48.5 273
h-196l10 51h186q2 112 33 224h-190l10 51h195q84 255 294 410q209 153 482 153q248 0 407 -129v-70q-172 144 -415 144z" />
    <glyph glyph-name="trademark" unicode="&#x2122;" horiz-adv-x="1345" 
d="M195 1380l6 39h489l-6 -39h-231l-109 -665h-45l109 665h-213zM1389 1419h47l-117 -704h-43l102 606l-342 -576h-35l-157 580l-101 -610h-43l117 704h41l170 -612z" />
    <glyph glyph-name="partialdiff" unicode="&#x2202;" horiz-adv-x="1228" 
 />
    <glyph glyph-name="emptyset" unicode="&#x2205;" horiz-adv-x="1228" 
 />
    <glyph glyph-name="product" unicode="&#x220f;" horiz-adv-x="1228" 
 />
    <glyph glyph-name="summation" unicode="&#x2211;" horiz-adv-x="1228" 
 />
    <glyph glyph-name="minus" unicode="&#x2212;" horiz-adv-x="1118" 
d="M150 705h892l-8 -52h-893z" />
    <glyph glyph-name="radical" unicode="&#x221a;" horiz-adv-x="1228" 
 />
    <glyph glyph-name="infinity" unicode="&#x221e;" horiz-adv-x="1228" 
 />
    <glyph glyph-name="integral" unicode="&#x222b;" horiz-adv-x="1228" 
 />
    <glyph glyph-name="approxequal" unicode="&#x2248;" horiz-adv-x="1228" 
 />
    <glyph glyph-name="notequal" unicode="&#x2260;" horiz-adv-x="1122" 
d="M1067 856h-281l-319 -399h537l-9 -51h-569l-152 -189l-38 27l129 162h-263l9 51h295l321 399h-553l8 51h586l131 164l37 -29l-109 -135h248z" />
    <glyph glyph-name="lessequal" unicode="&#x2264;" horiz-adv-x="1228" 
 />
    <glyph glyph-name="greaterequal" unicode="&#x2265;" horiz-adv-x="1228" 
 />
    <glyph glyph-name="lozenge" unicode="&#x25ca;" horiz-adv-x="1228" 
 />
    <glyph glyph-name="uniFB00" unicode="&#xfb00;" horiz-adv-x="1228" 
 />
    <glyph glyph-name="A.swash" horiz-adv-x="1568" 
d="M1372 0l-88 451h-659l-242 -451h-66l740 1368h-246q-266 0 -425 -105q-159 -106 -159 -286q0 -255 260 -266l-24 -49q-144 4 -218 90q-73 85 -73 221q0 209 173 328q172 118 456 118h352l283 -1419h-64zM653 504h621l-166 842z" />
    <glyph glyph-name="AE.aalt" horiz-adv-x="1511" 
d="M913 997l-59 -417h473l-8 -52h-473l-70 -475h584l-8 -53h-643l45 324h-494l-244 -324h-67l788 1051h772l-8 -54h-588zM301 377h461l88 620h-80z" />
    <glyph glyph-name="Aacute.swash" horiz-adv-x="1568" 
d="M1536 1989l-348 -418h-55l327 418h76zM1153 1419l283 -1419h-64l-88 451h-659l-242 -451h-66l740 1368h-246q-266 0 -425 -105q-159 -106 -159 -286q0 -255 260 -266l-24 -49q-144 4 -218 90q-73 85 -73 221q0 209 173 328q172 118 456 118h352zM653 504h621l-166 842z
" />
    <glyph glyph-name="Abreve.swash" horiz-adv-x="1568" 
d="M1419 1694q-97 -97 -249 -97t-220 98q-68 97 -28 275h51q-33 -147 13 -235t190 -88q271 0 309 323h51q-19 -180 -117 -276zM1153 1419l283 -1419h-64l-88 451h-659l-242 -451h-66l740 1368h-246q-266 0 -425 -105q-159 -106 -159 -286q0 -255 260 -266l-24 -49
q-144 4 -218 90q-73 85 -73 221q0 209 173 328q172 118 456 118h352zM653 504h621l-166 842z" />
    <glyph glyph-name="Acircumflex.swash" horiz-adv-x="1568" 
d="M1223 1950l-308 -396h-55l332 435h74l186 -435h-55zM1153 1419l283 -1419h-64l-88 451h-659l-242 -451h-66l740 1368h-246q-266 0 -425 -105q-159 -106 -159 -286q0 -255 260 -266l-24 -49q-144 4 -218 90q-73 85 -73 221q0 209 173 328q172 118 456 118h352zM653 504
h621l-166 842z" />
    <glyph glyph-name="Adieresis.swash" horiz-adv-x="1568" 
d="M1001 1638q-29 0 -43 18.5t-10 47.5t25.5 47t50.5 18q27 0 41 -18t10 -47q-4 -27 -25.5 -46.5t-48.5 -19.5zM1352 1638q-31 0 -45.5 18.5t-10.5 47.5t25.5 47t50.5 18t45 -18t11 -47t-27 -47.5t-49 -18.5zM1372 0l-88 451h-659l-242 -451h-66l740 1368h-246
q-266 0 -425 -105q-159 -106 -159 -286q0 -255 260 -266l-24 -49q-144 4 -218 90q-73 85 -73 221q0 209 173 328q172 118 456 118h352l283 -1419h-64zM653 504h621l-166 842z" />
    <glyph glyph-name="Agrave.swash" horiz-adv-x="1568" 
d="M1182 1571h-56l-206 418h75zM1372 0l-88 451h-659l-242 -451h-66l740 1368h-246q-266 0 -425 -105q-159 -106 -159 -286q0 -255 260 -266l-24 -49q-144 4 -218 90q-73 85 -73 221q0 209 173 328q172 118 456 118h352l283 -1419h-64zM653 504h621l-166 842z" />
    <glyph glyph-name="Amacron.swash" horiz-adv-x="1568" 
d="M870 1800h674l-8 -51h-674zM1153 1419l283 -1419h-64l-88 451h-659l-242 -451h-66l740 1368h-246q-266 0 -425 -105q-159 -106 -159 -286q0 -255 260 -266l-24 -49q-144 4 -218 90q-73 85 -73 221q0 209 173 328q172 118 456 118h352zM653 504h621l-166 842z" />
    <glyph glyph-name="Aogonek.swash" horiz-adv-x="1568" 
d="M1143 -526q112 0 198 61l9 -55q-103 -62 -211 -64q-82 0 -123 42t-41 114q0 142 111 258q108 114 284 182l-86 439h-659l-242 -451h-66l740 1368h-246q-266 0 -425 -105q-159 -106 -159 -286q0 -255 260 -266l-24 -49q-144 4 -218 90q-73 85 -73 221q0 209 173 328
q172 118 456 118h352l283 -1419q-398 -180 -400 -416q0 -54 29 -82t78 -28zM653 504h621l-166 842z" />
    <glyph glyph-name="Aring.swash" horiz-adv-x="1568" 
d="M1163 1567q-96 0 -146 62t-34 155q17 97 88 158t166 61q93 0 146 -62q51 -63 35 -157q-16 -93 -87 -155t-168 -62zM1040 1784q-14 -76 24 -119t110 -43t123 43t63 119q12 78 -24.5 122t-108.5 44q-35 0 -66 -12t-55.5 -34t-41.5 -52.5t-24 -67.5zM1372 0l-88 451h-659
l-242 -451h-66l740 1368h-246q-266 0 -425 -105q-159 -106 -159 -286q0 -255 260 -266l-24 -49q-144 4 -218 90q-73 85 -73 221q0 209 173 328q172 118 456 118h352l283 -1419h-64zM653 504h621l-166 842z" />
    <glyph glyph-name="Atilde.swash" horiz-adv-x="1568" 
d="M1532 1944h49q-51 -379 -223 -379q-51 0 -98 51q-49 52 -77 113q-29 60 -69 112q-39 51 -74 51q-30 0 -53 -18t-42 -57t-33.5 -100t-26.5 -146h-49q50 375 215 375q47 0 92 -51q23 -26 41.5 -54t32.5 -59q30 -64 70 -113q42 -51 85 -51q109 0 160 326zM1153 1419
l283 -1419h-64l-88 451h-659l-242 -451h-66l740 1368h-246q-266 0 -425 -105q-159 -106 -159 -286q0 -255 260 -266l-24 -49q-144 4 -218 90q-73 85 -73 221q0 209 173 328q172 118 456 118h352zM653 504h621l-166 842z" />
    <glyph glyph-name="B.swash" horiz-adv-x="1701" 
d="M1356 748q130 -20 199 -99t69 -200q0 -206 -151 -327q-152 -122 -431 -122h-462l227 1368h-70q-299 0 -451 -126q-153 -126 -153 -345q0 -140 92.5 -211.5t263.5 -71.5l-10 -55q-200 0 -301 96q-100 94 -100 240q0 105 34.5 195t106.5 166q72 75 199.5 119t300.5 44h569
q84 0 150.5 -18.5t113 -54.5t71 -89t24.5 -122q0 -143 -78 -244q-78 -103 -213 -143zM1282 1366h-418l-98 -600h448q145 0 258 101t113 259q0 119 -81 179.5t-222 60.5zM1053 53q221 0 366 103q144 102 144 290q0 135 -85 202t-237 67h-483l-111 -662h406z" />
    <glyph glyph-name="C.swash" horiz-adv-x="1380" 
d="M600 -70q-243 0 -374 149q-132 149 -132 402q0 246 101 468q100 220 289 359q188 138 421 138q185 0 289 -100q104 -101 104 -285q0 -128 -53 -299h-61q53 162 53 289q0 167 -88.5 252.5t-251.5 85.5q-215 0 -387 -130q-171 -130 -262 -332q-90 -202 -90 -429
q0 -230 120 -370q119 -140 332 -140q351 0 617 278l14 -67q-269 -269 -641 -269z" />
    <glyph glyph-name="Cacute.swash" horiz-adv-x="1380" 
d="M1305 1989l-349 -418h-55l328 418h76zM600 -70q-243 0 -374 149q-132 149 -132 402q0 246 101 468q100 220 289 359q188 138 421 138q185 0 289 -100q104 -101 104 -285q0 -128 -53 -299h-61q53 162 53 289q0 167 -88.5 252.5t-251.5 85.5q-215 0 -387 -130
q-171 -130 -262 -332q-90 -202 -90 -429q0 -230 120 -370q119 -140 332 -140q351 0 617 278l14 -67q-269 -269 -641 -269z" />
    <glyph glyph-name="Ccaron.swash" horiz-adv-x="1380" 
d="M969 1579h-74l-184 434h55l172 -397l309 397h56zM905 1446q185 0 289 -100q104 -101 104 -285q0 -128 -53 -299h-61q53 162 53 289q0 167 -88.5 252.5t-251.5 85.5q-215 0 -387 -130q-171 -130 -262 -332q-90 -202 -90 -429q0 -230 120 -370q119 -140 332 -140
q351 0 617 278l14 -67q-267 -268 -641 -269q-243 0 -374 149q-132 149 -132 402q0 246 101 468q100 220 289 359q188 138 421 138z" />
    <glyph glyph-name="Ccedilla.swash" horiz-adv-x="1380" 
d="M1245 762h-61q53 162 53 289q0 167 -88.5 252.5t-251.5 85.5q-215 0 -387 -130q-171 -130 -262 -332q-90 -202 -90 -429q0 -230 120 -370q119 -140 332 -140q351 0 617 278l14 -67q-260 -260 -620 -269l-117 -190q77 43 166 43q72 0 115.5 -39t43.5 -111q0 -117 -85 -187
q-85 -69 -216 -69q-140 0 -213 70l33 51q64 -68 189 -67q105 0 170 52q65 53 65 138q0 49 -28 79t-85 30q-110 0 -184 -62l-49 25l139 237q-225 12 -348 160q-123 149 -123 391q0 246 101 468q100 220 289 359q188 138 421 138q185 0 289 -100q104 -101 104 -285
q0 -128 -53 -299z" />
    <glyph glyph-name="Cdotaccent.swash" horiz-adv-x="1380" 
d="M899 1660q-13 15 -13 36.5t10 41.5t29 33t44 11q31 0 47 -20.5t12 -51.5q-4 -29 -28.5 -49.5t-53.5 -20.5q-30 0 -47 20zM600 -70q-243 0 -374 149q-132 149 -132 402q0 246 101 468q100 220 289 359q188 138 421 138q185 0 289 -100q104 -101 104 -285q0 -128 -53 -299
h-61q53 162 53 289q0 167 -88.5 252.5t-251.5 85.5q-215 0 -387 -130q-171 -130 -262 -332q-90 -202 -90 -429q0 -230 120 -370q119 -140 332 -140q351 0 617 278l14 -67q-269 -269 -641 -269z" />
    <glyph glyph-name="D.swash" horiz-adv-x="1785" 
d="M1139 1419q284 0 439 -136q155 -137 155 -411q0 -225 -78 -399q-78 -173 -206 -273q-129 -100 -277.5 -150t-311.5 -50h-362l225 1368h-45q-299 0 -451 -126q-153 -126 -153 -345q0 -140 92.5 -211.5t263.5 -71.5l-8 -55q-201 0 -302 96q-102 95 -102 240q0 105 35 195
t107 166q72 75 199 119t300 44h480zM854 53q114 0 223 24.5t219 86.5t190 152q81 90 132 234t51 322q0 245 -137 370.5t-402 125.5h-348l-217 -1315h289z" />
    <glyph glyph-name="Dcaron.swash" horiz-adv-x="1785" 
d="M1294 1579h-73l-185 434h56l172 -397l309 397h55zM1139 1419q284 0 439 -136q155 -137 155 -411q0 -225 -78 -399q-78 -173 -206 -273q-129 -100 -277.5 -150t-311.5 -50h-362l225 1368h-45q-299 0 -451 -126q-153 -126 -153 -345q0 -140 92.5 -211.5t263.5 -71.5l-8 -55
q-201 0 -302 96q-102 95 -102 240q0 105 35 195t107 166q72 75 199 119t300 44h480zM854 53q114 0 223 24.5t219 86.5t190 152q81 90 132 234t51 322q0 245 -137 370.5t-402 125.5h-348l-217 -1315h289z" />
    <glyph glyph-name="Dcroat.swash" horiz-adv-x="1413" 
d="M768 1419q284 0 439 -136q155 -137 155 -411q0 -225 -78 -399q-78 -173 -206 -273q-129 -100 -277.5 -150t-311.5 -50h-362l121 731h-135l8 51h135l104 637h408zM483 53q114 0 223 24.5t219 86.5t190 152q81 90 132 234t51 322q0 244 -138 370t-400 126h-348l-97 -586
h502l-8 -51h-502l-112 -678h288z" />
    <glyph glyph-name="E.swash" horiz-adv-x="1576" 
d="M1675 1366h-803l-98 -590h653l-8 -53h-653l-113 -670h805l-8 -53h-864l225 1368h-74q-299 0 -451 -126q-153 -126 -153 -345q0 -140 92.5 -211.5t263.5 -71.5l-8 -55q-201 0 -302 96q-101 95 -101 240q0 105 34.5 195t106.5 166q72 75 199.5 119t300.5 44h964z" />
    <glyph glyph-name="Eacute.swash" horiz-adv-x="1576" 
d="M1405 1989l-348 -418h-56l328 418h76zM1675 1366h-803l-98 -590h653l-8 -53h-653l-113 -670h805l-8 -53h-864l225 1368h-74q-299 0 -451 -126q-153 -126 -153 -345q0 -140 92.5 -211.5t263.5 -71.5l-8 -55q-201 0 -302 96q-101 95 -101 240q0 105 34.5 195t106.5 166
q72 75 199.5 119t300.5 44h964z" />
    <glyph glyph-name="Ecaron.swash" horiz-adv-x="1576" 
d="M1069 1579h-74l-184 434h55l172 -397l310 397h55zM1675 1366h-803l-98 -590h653l-8 -53h-653l-113 -670h805l-8 -53h-864l225 1368h-74q-299 0 -451 -126q-153 -126 -153 -345q0 -140 92.5 -211.5t263.5 -71.5l-8 -55q-201 0 -302 96q-101 95 -101 240q0 105 34.5 195
t106.5 166q72 75 199.5 119t300.5 44h964z" />
    <glyph glyph-name="Ecircumflex.swash" horiz-adv-x="1576" 
d="M1092 1950l-308 -396h-55l332 435h74l186 -435h-55zM1675 1366h-803l-98 -590h653l-8 -53h-653l-113 -670h805l-8 -53h-864l225 1368h-74q-299 0 -451 -126q-153 -126 -153 -345q0 -140 92.5 -211.5t263.5 -71.5l-8 -55q-201 0 -302 96q-101 95 -101 240q0 105 34.5 195
t106.5 166q72 75 199.5 119t300.5 44h964z" />
    <glyph glyph-name="Edieresis.swash" horiz-adv-x="1576" 
d="M870 1638q-29 0 -43 18.5t-10 47.5t25.5 47t50.5 18q27 0 41 -18t10 -47q-4 -27 -25.5 -46.5t-48.5 -19.5zM1221 1638q-31 0 -45.5 18.5t-10.5 47.5t25.5 47t50.5 18t44 -18t11 -47t-26 -47.5t-49 -18.5zM1675 1366h-803l-98 -590h653l-8 -53h-653l-113 -670h805l-8 -53
h-864l225 1368h-74q-299 0 -451 -126q-153 -126 -153 -345q0 -140 92.5 -211.5t263.5 -71.5l-8 -55q-201 0 -302 96q-101 95 -101 240q0 105 34.5 195t106.5 166q72 75 199.5 119t300.5 44h964z" />
    <glyph glyph-name="Edotaccent.swash" horiz-adv-x="1576" 
d="M1047 1640q-31 0 -47.5 19.5t-12.5 50.5t26.5 51.5t55.5 20.5q31 0 47.5 -20.5t11.5 -51.5q-4 -29 -28 -49.5t-53 -20.5zM1675 1366h-803l-98 -590h653l-8 -53h-653l-113 -670h805l-8 -53h-864l225 1368h-74q-299 0 -451 -126q-153 -126 -153 -345q0 -140 92.5 -211.5
t263.5 -71.5l-8 -55q-201 0 -302 96q-101 95 -101 240q0 105 34.5 195t106.5 166q72 75 199.5 119t300.5 44h964z" />
    <glyph glyph-name="Egrave.swash" horiz-adv-x="1576" 
d="M1051 1571h-56l-207 418h76zM1675 1366h-803l-98 -590h653l-8 -53h-653l-113 -670h805l-8 -53h-864l225 1368h-74q-299 0 -451 -126q-153 -126 -153 -345q0 -140 92.5 -211.5t263.5 -71.5l-8 -55q-201 0 -302 96q-101 95 -101 240q0 105 34.5 195t106.5 166
q72 75 199.5 119t300.5 44h964z" />
    <glyph glyph-name="Emacron.swash" horiz-adv-x="1576" 
d="M1413 1800l-8 -51h-674l8 51h674zM1675 1366h-803l-98 -590h653l-8 -53h-653l-113 -670h805l-8 -53h-864l225 1368h-74q-299 0 -451 -126q-153 -126 -153 -345q0 -140 92.5 -211.5t263.5 -71.5l-8 -55q-201 0 -302 96q-101 95 -101 240q0 105 34.5 195t106.5 166
q72 75 199.5 119t300.5 44h964z" />
    <glyph glyph-name="Eng.aalt" horiz-adv-x="1159" 
d="M1036 1051h56l-170 -1020q-53 -326 -332 -326q-142 0 -254 88l29 53q91 -86 229 -86q212 0 264 234l-524 967l-158 -961h-57l172 1051h59l524 -965z" />
    <glyph glyph-name="Eogonek.swash" horiz-adv-x="1589" 
d="M1675 1366h-803l-98 -590h653l-8 -53h-653l-113 -670h805l-8 -53q-399 -180 -399 -416q0 -54 28.5 -82t77.5 -28q111 0 199 61l8 -55q-103 -62 -211 -64q-82 0 -123 42t-41 114q0 135 102 246q99 111 263 182h-768l225 1368h-74q-299 0 -451 -126q-153 -126 -153 -345
q0 -140 92.5 -211.5t263.5 -71.5l-8 -55q-201 0 -302 96q-101 95 -101 240q0 105 34.5 195t106.5 166q72 75 199.5 119t300.5 44h964z" />
    <glyph glyph-name="Eth.swash" horiz-adv-x="1900" 
d="M1253 1419q284 0 439 -136q155 -137 155 -411q0 -224 -77 -399q-78 -173 -206 -273q-129 -100 -277.5 -150t-311.5 -50h-363l113 684h-283l9 51h282l105 633h-45q-328 0 -497 -136t-169 -376q0 -190 103.5 -287.5t293.5 -97.5l-8 -55q-221 0 -332 124q-112 124 -112 314
q0 114 37.5 210.5t116.5 178.5t219 129t329 47h479zM969 53q114 0 222 24.5t219 86.5q55 31 102.5 68.5t88.5 83.5q80 90 132 234q51 144 51 322q0 244 -138.5 370t-400.5 126h-348l-104 -633h354l-8 -51h-355l-104 -631h289z" />
    <glyph glyph-name="F.c2sc" horiz-adv-x="890" 
d="M952 997h-610l-70 -413h490l-6 -52h-492l-90 -532h-59l176 1051h670z" />
    <glyph glyph-name="F.swash" horiz-adv-x="1505" 
d="M1626 1366h-774l-96 -582h622l-8 -53h-622l-123 -731h-60l230 1368h-58q-299 0 -451 -126q-153 -126 -153 -345q0 -140 92.5 -211.5t263.5 -71.5v-55q-204 0 -308 96q-103 94 -103 240q0 223 156 374q154 150 485 150h915z" />
    <glyph glyph-name="G.salt" horiz-adv-x="1382" 
d="M774 696l8 56h578l-8 -52q-57 -356 -254 -542q-196 -187 -488 -187q-216 0 -358 151q-143 151 -143 433q0 245 94 445q95 200 283 324q187 124 438 124q126 0 251 -43q127 -44 205 -115l-41 -49q-169 150 -424 150q-177 0 -323 -72t-236 -189q-91 -118 -138.5 -262
t-47.5 -299q0 -264 127 -400t321 -136q265 0 447 178q182 179 221 485h-512z" />
    <glyph glyph-name="G.swash" horiz-adv-x="1345" 
d="M1266 829h-64q33 113 33 222q0 80 -19.5 143t-59.5 107t-101.5 67t-145.5 23q-215 0 -389 -123t-266 -314q-92 -193 -92 -403q0 -249 127 -385q128 -137 368 -137q244 0 467 139l64 387h59l-82 -508q-89 -545 -626 -545q-297 0 -461 146l31 61q129 -147 438 -147
q481 0 559 487l8 45q-232 -123 -471 -123q-266 0 -405 148q-140 148 -140 416q0 381 233 647t587 266q379 0 378 -385q2 -111 -30 -234z" />
    <glyph glyph-name="Gbreve.salt" horiz-adv-x="1382" 
d="M1140 1694q-97 -97 -249 -97t-220 98q-68 97 -28 275h51q-33 -146 14 -235q46 -88 189 -88q271 0 309 323h51q-19 -180 -117 -276zM774 696l8 56h578l-8 -52q-57 -356 -254 -542q-196 -187 -488 -187q-216 0 -358 151q-143 151 -143 433q0 245 94 445q95 200 283 324
q187 124 438 124q126 0 251 -43q127 -44 205 -115l-41 -49q-169 150 -424 150q-177 0 -323 -72t-236 -189q-91 -118 -138.5 -262t-47.5 -299q0 -264 127 -400t321 -136q265 0 447 178q182 179 221 485h-512z" />
    <glyph glyph-name="Gbreve.swash" horiz-adv-x="1345" 
d="M1177 1694q-97 -97 -249 -97t-220 98q-68 97 -28 275h51q-33 -146 14 -235q46 -88 189 -88q271 0 309 323h51q-19 -180 -117 -276zM1266 829h-64q33 113 33 222q0 80 -19.5 143t-59.5 107t-101.5 67t-145.5 23q-215 0 -389 -123t-266 -314q-92 -193 -92 -403
q0 -249 127 -385q128 -137 368 -137q244 0 467 139l64 387h59l-82 -508q-89 -545 -626 -545q-297 0 -461 146l31 61q129 -147 438 -147q481 0 559 487l8 45q-232 -123 -471 -123q-266 0 -405 148q-140 148 -140 416q0 381 233 647t587 266q379 0 378 -385q2 -111 -30 -234z
" />
    <glyph glyph-name="Gdotaccent.salt" horiz-adv-x="1382" 
d="M899 1640q-31 0 -47 19.5t-12 50.5t26.5 51.5t55.5 20.5q31 0 47 -20.5t12 -51.5q-4 -29 -28.5 -49.5t-53.5 -20.5zM774 696l8 56h578l-8 -52q-57 -356 -254 -542q-196 -187 -488 -187q-216 0 -358 151q-143 151 -143 433q0 245 94 445q95 200 283 324q187 124 438 124
q126 0 251 -43q127 -44 205 -115l-41 -49q-169 150 -424 150q-177 0 -323 -72t-236 -189q-91 -118 -138.5 -262t-47.5 -299q0 -264 127 -400t321 -136q265 0 447 178q182 179 221 485h-512z" />
    <glyph glyph-name="Gdotaccent.swash" horiz-adv-x="1345" 
d="M936 1640q-31 0 -47.5 19.5t-11.5 50.5t27 51.5t54 20.5q31 0 47.5 -20.5t12.5 -51.5q-4 -29 -28.5 -49.5t-53.5 -20.5zM1266 829h-64q33 113 33 222q0 80 -19.5 143t-59.5 107t-101.5 67t-145.5 23q-215 0 -389 -123t-266 -314q-92 -193 -92 -403q0 -249 127 -385
q128 -137 368 -137q244 0 467 139l64 387h59l-82 -508q-89 -545 -626 -545q-297 0 -461 146l31 61q129 -147 438 -147q481 0 559 487l8 45q-232 -123 -471 -123q-266 0 -405 148q-140 148 -140 416q0 381 233 647t587 266q379 0 378 -385q2 -111 -30 -234z" />
    <glyph glyph-name="H.swash" horiz-adv-x="1949" 
d="M1837 1419h59l-233 -1419h-59l120 731h-913l-121 -731h-59l225 1368h-119q-299 0 -451 -126q-153 -126 -153 -345q0 -140 92.5 -211.5t263.5 -71.5v-55q-204 0 -308 96q-103 94 -103 240q0 223 156 374q154 150 485 150h205l-105 -635h914z" />
    <glyph glyph-name="Hbar.aalt" horiz-adv-x="1196" 
d="M1188 825l-8 -49h-103l-127 -776h-61l76 455h-711l-76 -455h-59l127 776h-96l6 49h98l37 226h61l-37 -226h711l37 226h59l-37 -226h103zM973 508l45 268h-711l-45 -268h711z" />
    <glyph glyph-name="I.c2sc" horiz-adv-x="423" 
d="M352 1051l-174 -1051h-59l172 1051h61z" />
    <glyph glyph-name="I.swash" horiz-adv-x="860" 
d="M807 1419l-234 -1419h-59l225 1368h-43q-299 0 -451 -126q-153 -126 -153 -345q0 -140 93 -211.5t264 -71.5v-55q-204 0 -308 96q-104 95 -104 240q0 223 156 374q154 150 485 150h129z" />
    <glyph glyph-name="Iacute.swash" horiz-adv-x="860" 
d="M1102 1989h76l-349 -418h-55zM807 1419l-234 -1419h-59l225 1368h-43q-299 0 -451 -126q-153 -126 -153 -345q0 -140 93 -211.5t264 -71.5v-55q-204 0 -308 96q-104 95 -104 240q0 223 156 374q154 150 485 150h129z" />
    <glyph glyph-name="Icircumflex.swash" horiz-adv-x="860" 
d="M1094 1554h-56l-174 396l-307 -396h-55l332 435h73zM807 1419l-234 -1419h-59l225 1368h-43q-299 0 -451 -126q-153 -126 -153 -345q0 -140 93 -211.5t264 -71.5v-55q-204 0 -308 96q-104 95 -104 240q0 223 156 374q154 150 485 150h129z" />
    <glyph glyph-name="Idieresis.swash" horiz-adv-x="860" 
d="M643 1638q-29 0 -43 18.5t-10 47.5t25.5 47t50.5 18q27 0 41 -18t10 -47q-4 -27 -25.5 -46.5t-48.5 -19.5zM964 1751q17 14 37 17t37 -4t26.5 -22.5t4.5 -37.5q-4 -29 -26.5 -47.5t-49.5 -18.5q-23 -2 -36.5 10t-17.5 30.5t2.5 38.5t22.5 34zM807 1419l-234 -1419h-59
l225 1368h-43q-299 0 -451 -126q-153 -126 -153 -345q0 -140 93 -211.5t264 -71.5v-55q-204 0 -308 96q-104 95 -104 240q0 223 156 374q154 150 485 150h129z" />
    <glyph glyph-name="Idotaccent.c2sc" horiz-adv-x="423" 
d="M303 1333q4 33 29.5 55.5t60.5 22.5q33 0 51.5 -22.5t14.5 -55.5t-31 -56.5t-59 -23.5q-35 0 -52.5 22.5t-13.5 57.5zM352 1051l-174 -1051h-59l172 1051h61z" />
    <glyph glyph-name="Idotaccent.swash" horiz-adv-x="860" 
d="M842 1782q31 0 47 -20.5t12 -51.5q-4 -29 -28.5 -49.5t-53.5 -20.5q-31 0 -47 19.5t-12 50.5t26.5 51.5t55.5 20.5zM807 1419l-234 -1419h-59l225 1368h-43q-299 0 -451 -126q-153 -126 -153 -345q0 -140 93 -211.5t264 -71.5v-55q-204 0 -308 96q-104 95 -104 240
q0 223 156 374q154 150 485 150h129z" />
    <glyph glyph-name="Igrave.swash" horiz-adv-x="860" 
d="M823 1571h-55l-207 418h76zM807 1419l-234 -1419h-59l225 1368h-43q-299 0 -451 -126q-153 -126 -153 -345q0 -140 93 -211.5t264 -71.5v-55q-204 0 -308 96q-104 95 -104 240q0 223 156 374q154 150 485 150h129z" />
    <glyph glyph-name="Imacron.swash" horiz-adv-x="860" 
d="M512 1800h674l-8 -51h-674zM807 1419l-234 -1419h-59l225 1368h-43q-299 0 -451 -126q-153 -126 -153 -345q0 -140 93 -211.5t264 -71.5v-55q-204 0 -308 96q-104 95 -104 240q0 223 156 374q154 150 485 150h129z" />
    <glyph glyph-name="Iogonek.swash" horiz-adv-x="860" 
d="M573 0q-399 -180 -399 -416q0 -54 28 -82t79 -28q112 0 198 61l8 -55q-103 -62 -211 -64q-82 0 -122.5 42t-40.5 114q0 143 114 260q111 116 289 184l223 1352h-43q-299 0 -451 -126q-153 -126 -153 -345q0 -140 93 -211.5t264 -71.5v-55q-204 0 -308 96
q-104 95 -104 240q0 223 156 374q154 150 485 150h129z" />
    <glyph glyph-name="J.c2sc" horiz-adv-x="741" 
d="M225 -20q-139 0 -254 94l29 53q97 -92 229 -92q227 0 275 268l129 748h59l-125 -748q-53 -323 -342 -323z" />
    <glyph glyph-name="J.swash" horiz-adv-x="1079" 
d="M1063 1419l-189 -1206q-90 -573 -552 -573q-172 0 -292 93t-120 298q0 258 190 420q190 161 498 145l-8 -59q-274 16 -447 -128q-174 -145 -174 -378q0 -160 95 -247t258 -87q180 0 314 116q134 118 179 402l180 1153h-448l8 51h508z" />
    <glyph glyph-name="K.swash" horiz-adv-x="1650" 
d="M1729 1419l-594 -524l358 -895h-66l-340 854l-356 -313l-88 -541h-59l225 1368h-72q-299 0 -451 -126q-153 -126 -153 -345q0 -140 92.5 -211.5t263.5 -71.5l-6 -55q-203 0 -304 96q-101 95 -101 240q0 223 156 374q154 150 485 150h158l-132 -801l904 801h80z" />
    <glyph glyph-name="L.swash" horiz-adv-x="1472" 
d="M715 53h680l-11 -53h-739l229 1368h-137q-299 0 -451 -126q-153 -126 -153 -345q0 -140 92.5 -211.5t263.5 -71.5l-12 -55q-201 0 -300 96q-99 95 -99 240q0 223 156 374q154 150 485 150h223z" />
    <glyph glyph-name="Lacute.swash" horiz-adv-x="1472" 
d="M1311 1989l-348 -418h-56l328 418h76zM715 53h680l-11 -53h-739l229 1368h-137q-299 0 -451 -126q-153 -126 -153 -345q0 -140 92.5 -211.5t263.5 -71.5l-12 -55q-201 0 -300 96q-99 95 -99 240q0 223 156 374q154 150 485 150h223z" />
    <glyph glyph-name="Lcaron.swash" horiz-adv-x="1472" 
d="M975 1579h-74l-184 434h55l172 -397l309 397h56zM715 53h680l-11 -53h-739l229 1368h-137q-299 0 -451 -126q-153 -126 -153 -345q0 -140 92.5 -211.5t263.5 -71.5l-12 -55q-201 0 -300 96q-99 95 -99 240q0 223 156 374q154 150 485 150h223z" />
    <glyph glyph-name="Lslash.swash" horiz-adv-x="1472" 
d="M715 53h680l-11 -53h-739l123 739l-186 -75l-15 43l211 86l96 575h-137q-299 0 -451 -131q-153 -130 -153 -360q0 -161 92.5 -242.5t263.5 -81.5l-10 -53q-200 0 -301 107q-100 106 -100 267q0 231 156 388q154 157 485 157h223l-100 -602l458 187l15 -46l-481 -194z" />
    <glyph glyph-name="M.swash" horiz-adv-x="2154" 
d="M2036 1419h65l-233 -1419h-62l213 1278l-733 -1217h-53l-344 1237l-209 -1298h-57l225 1368h-127q-299 0 -451 -126q-153 -126 -153 -345q0 -140 92.5 -211.5t263.5 -71.5l-12 -55q-198 1 -299 98q-101 95 -101 238q0 223 156 374q156 150 485 150h213l357 -1276z" />
    <glyph glyph-name="N.swash" horiz-adv-x="1843" 
d="M1739 1419h55l-238 -1419h-63l-651 1325l-217 -1325h-58l226 1368h-72q-299 0 -451 -126q-153 -126 -153 -345q0 -140 92.5 -211.5t263.5 -71.5l-12 -55q-198 1 -299 98q-101 95 -101 238q0 223 156 374q156 150 485 150h158l656 -1331z" />
    <glyph glyph-name="Nacute.swash" horiz-adv-x="1843" 
d="M1696 1989l-348 -418h-56l328 418h76zM1739 1419h55l-238 -1419h-63l-651 1325l-217 -1325h-58l226 1368h-72q-299 0 -451 -126q-153 -126 -153 -345q0 -140 92.5 -211.5t263.5 -71.5l-12 -55q-198 1 -299 98q-101 95 -101 238q0 223 156 374q156 150 485 150h158
l656 -1331z" />
    <glyph glyph-name="Ncaron.swash" horiz-adv-x="1843" 
d="M1360 1579h-74l-184 434h55l172 -397l309 397h56zM1739 1419h55l-238 -1419h-63l-651 1325l-217 -1325h-58l226 1368h-72q-299 0 -451 -126q-153 -126 -153 -345q0 -140 92.5 -211.5t263.5 -71.5l-12 -55q-198 1 -299 98q-101 95 -101 238q0 223 156 374q156 150 485 150
h158l656 -1331z" />
    <glyph glyph-name="Ntilde.swash" horiz-adv-x="1843" 
d="M1200 1892q-30 0 -53 -18t-42 -57t-34 -100t-27 -146h-49q50 375 215 375q47 0 93 -51q23 -26 41.5 -54t32.5 -59q30 -64 70 -113q42 -51 85 -51q109 0 160 326h49q-51 -379 -223 -379q-51 0 -98 51q-49 52 -77 113q-29 60 -69 112q-39 51 -74 51zM1739 1419h55
l-238 -1419h-63l-651 1325l-217 -1325h-58l226 1368h-72q-299 0 -451 -126q-153 -126 -153 -345q0 -140 92.5 -211.5t263.5 -71.5l-12 -55q-198 1 -299 98q-101 95 -101 238q0 223 156 374q156 150 485 150h158l656 -1331z" />
    <glyph glyph-name="O.swash" horiz-adv-x="1503" 
d="M670 -29q-258 0 -413 153q-155 152 -155 411q0 390 227 652q227 261 574 261q134 0 217 -70q84 -70 84 -194q0 -187 -160 -302q-161 -116 -370 -116l8 51q181 0 324 100q143 99 143 263q0 98 -68 157q-68 58 -180 58q-322 0 -528 -243q-207 -243 -207 -601
q0 -238 142 -380q141 -142 372 -142q304 0 509 201q206 200 206 491q0 233 -146 311l31 51q176 -102 176 -350q0 -327 -220 -544q-221 -218 -566 -218z" />
    <glyph glyph-name="OE.aalt" horiz-adv-x="1767" 
d="M1772 997h-633l-70 -417h522l-8 -52h-522l-80 -475h635l-8 -53h-697l17 102q-173 -123 -404 -122q-85 0 -159 24.5t-137 75.5q-64 51 -103 140.5t-41 209.5q-4 267 181 455q185 187 464 188q208 -5 336 -133l18 111h697zM532 37q244 0 408 143l113 686q-111 150 -332 150
q-242 0 -410 -170t-164 -404q2 -207 111 -306q108 -99 274 -99z" />
    <glyph glyph-name="Oacute.swash" horiz-adv-x="1503" 
d="M1305 1989l-349 -418h-55l328 418h76zM670 -29q-258 0 -413 153q-155 152 -155 411q0 390 227 652q227 261 574 261q134 0 217 -70q84 -70 84 -194q0 -187 -160 -302q-161 -116 -370 -116l8 51q181 0 324 100q143 99 143 263q0 98 -68 157q-68 58 -180 58
q-322 0 -528 -243q-207 -243 -207 -601q0 -238 142 -380q141 -142 372 -142q304 0 509 201q206 200 206 491q0 233 -146 311l31 51q176 -102 176 -350q0 -327 -220 -544q-221 -218 -566 -218z" />
    <glyph glyph-name="Ocircumflex.swash" horiz-adv-x="1503" 
d="M991 1950l-307 -396h-55l332 435h73l187 -435h-56zM1280 1083q176 -102 176 -350q0 -327 -220 -544q-221 -218 -566 -218q-258 0 -413 153q-155 152 -155 411q0 390 227 652q227 261 574 261q134 0 217 -70q84 -70 84 -194q0 -187 -160 -302q-161 -116 -370 -116l8 51
q181 0 324 100q143 99 143 263q0 98 -68 157q-68 58 -180 58q-322 0 -528 -243q-207 -243 -207 -601q0 -238 142 -380q141 -142 372 -142q304 0 509 201q206 200 206 491q0 233 -146 311z" />
    <glyph glyph-name="Odieresis.swash" horiz-adv-x="1503" 
d="M770 1638q-29 0 -43 18.5t-10 47.5t25.5 47t50.5 18q27 0 41 -18t10 -47q-4 -27 -25.5 -46.5t-48.5 -19.5zM1120 1638q-31 0 -45 18.5t-10 47.5t25.5 47t50.5 18t44 -18t11 -47t-26.5 -47.5t-49.5 -18.5zM670 -29q-258 0 -413 153q-155 152 -155 411q0 390 227 652
q227 261 574 261q134 0 217 -70q84 -70 84 -194q0 -187 -160 -302q-161 -116 -370 -116l8 51q181 0 324 100q143 99 143 263q0 98 -68 157q-68 58 -180 58q-322 0 -528 -243q-207 -243 -207 -601q0 -238 142 -380q141 -142 372 -142q304 0 509 201q206 200 206 491
q0 233 -146 311l31 51q176 -102 176 -350q0 -327 -220 -544q-221 -218 -566 -218z" />
    <glyph glyph-name="Ograve.swash" horiz-adv-x="1503" 
d="M895 1571l-207 418h76l186 -418h-55zM670 -29q-258 0 -413 153q-155 152 -155 411q0 390 227 652q227 261 574 261q134 0 217 -70q84 -70 84 -194q0 -187 -160 -302q-161 -116 -370 -116l8 51q181 0 324 100q143 99 143 263q0 98 -68 157q-68 58 -180 58
q-322 0 -528 -243q-207 -243 -207 -601q0 -238 142 -380q141 -142 372 -142q304 0 509 201q206 200 206 491q0 233 -146 311l31 51q176 -102 176 -350q0 -327 -220 -544q-221 -218 -566 -218z" />
    <glyph glyph-name="Ohungarumlaut.swash" horiz-adv-x="1503" 
d="M1079 1987l-268 -416h-47l240 416h75zM1430 1987l-388 -416h-51l363 416h76zM670 -29q-258 0 -413 153q-155 152 -155 411q0 390 227 652q227 261 574 261q134 0 217 -70q84 -70 84 -194q0 -187 -160 -302q-161 -116 -370 -116l8 51q181 0 324 100q143 99 143 263
q0 98 -68 157q-68 58 -180 58q-322 0 -528 -243q-207 -243 -207 -601q0 -238 142 -380q141 -142 372 -142q304 0 509 201q206 200 206 491q0 233 -146 311l31 51q176 -102 176 -350q0 -327 -220 -544q-221 -218 -566 -218z" />
    <glyph glyph-name="Omacron.swash" horiz-adv-x="1503" 
d="M631 1749l8 51h674l-8 -51h-674zM670 -29q-258 0 -413 153q-155 152 -155 411q0 390 227 652q227 261 574 261q134 0 217 -70q84 -70 84 -194q0 -187 -160 -302q-161 -116 -370 -116l8 51q181 0 324 100q143 99 143 263q0 98 -68 157q-68 58 -180 58q-322 0 -528 -243
q-207 -243 -207 -601q0 -238 142 -380q141 -142 372 -142q304 0 509 201q206 200 206 491q0 233 -146 311l31 51q176 -102 176 -350q0 -327 -220 -544q-221 -218 -566 -218z" />
    <glyph glyph-name="Otilde.swash" horiz-adv-x="1503" 
d="M809 1892q-30 0 -53 -18t-42 -57t-34 -100t-27 -146h-49q50 375 215 375q47 0 92 -51q23 -26 41.5 -54t32.5 -59q28 -61 71 -113q42 -51 85 -51q109 0 159 326h50q-51 -379 -224 -379q-51 0 -98 51q-48 53 -76 113q-29 60 -69 112q-39 51 -74 51zM670 -29
q-258 0 -413 153q-155 152 -155 411q0 390 227 652q227 261 574 261q134 0 217 -70q84 -70 84 -194q0 -187 -160 -302q-161 -116 -370 -116l8 51q181 0 324 100q143 99 143 263q0 98 -68 157q-68 58 -180 58q-322 0 -528 -243q-207 -243 -207 -601q0 -238 142 -380
q141 -142 372 -142q304 0 509 201q206 200 206 491q0 233 -146 311l31 51q176 -102 176 -350q0 -327 -220 -544q-221 -218 -566 -218z" />
    <glyph glyph-name="P.swash" horiz-adv-x="1636" 
d="M1298 1419q185 0 283 -88.5t98 -249.5q0 -233 -140 -370q-139 -138 -413 -138h-413l-97 -573h-59l229 1368h-49q-299 0 -451 -126q-153 -126 -153 -345q0 -140 92.5 -211.5t263.5 -71.5l-12 -55q-198 1 -299 98q-100 94 -100 238q0 223 156 374q154 150 485 150h579z
M1139 627q237 0 358 127t121 323q0 69 -22.5 123t-64.5 91t-102.5 56t-136.5 19h-448l-123 -739h418z" />
    <glyph glyph-name="Q.salt" horiz-adv-x="1503" 
d="M1479 854q0 -220 -101 -424q-102 -203 -282 -326l141 -221l-53 -39l-146 228q-177 -99 -391 -101q-103 0 -196 34t-171 103q-79 69 -126.5 191t-47.5 283q0 362 234 614q233 252 582 252q97 0 189.5 -32.5t177.5 -98.5q86 -66 138 -186t52 -277zM168 596q0 -288 138 -428
q138 -139 349 -139q220 0 398 121q178 119 271 306q93 185 93 388q0 144 -42.5 252t-116.5 172q-74 63 -160.5 94t-186.5 31q-309 0 -526 -235t-217 -562z" />
    <glyph glyph-name="Q.swash" horiz-adv-x="1503" 
d="M657 -29q26 -13 59.5 -34t74.5 -51q79 -58 156 -97q74 -37 161 -37q127 0 229 60l-2 -56q-98 -59 -243 -59q-87 0 -174 41q-84 39 -145 89q-29 24 -63 46.5t-74 42.5q-80 41 -153 41q-159 0 -329 -88l-11 55q142 76 299 84q-163 57 -251 195q-89 137 -89 332
q0 390 227 652q227 261 574 261q134 0 217 -70q84 -70 84 -194q0 -187 -160 -302q-161 -116 -370 -116l8 51q181 0 324 100q143 99 143 263q0 98 -68 157q-68 58 -180 58q-322 0 -528 -243q-207 -243 -207 -601q0 -238 142 -380q141 -142 372 -142q304 0 509 201
q206 200 206 491q0 233 -146 311l31 51q176 -102 176 -350q0 -327 -220 -544q-221 -218 -566 -218h-13z" />
    <glyph glyph-name="R.swash" horiz-adv-x="1677" 
d="M1679 1122q0 -221 -138 -332q-138 -112 -353 -126l328 -664h-72l-324 662h-395l-111 -662h-59l227 1368h-24q-310 0 -468 -125q-157 -124 -157 -346q0 -140 92.5 -211.5t263.5 -71.5l-10 -55q-200 0 -301 96q-100 94 -100 240q0 225 159 375q158 149 502 149h578
q172 0 267 -77t95 -220zM1139 715q222 0 349 111q128 110 128 288q0 63 -21 110.5t-61 79t-96 47t-127 15.5h-469l-109 -651h406z" />
    <glyph glyph-name="Racute.swash" horiz-adv-x="1677" 
d="M1647 1989l-349 -418h-55l328 418h76zM1679 1122q0 -221 -138 -332q-138 -112 -353 -126l328 -664h-72l-324 662h-395l-111 -662h-59l227 1368h-24q-310 0 -468 -125q-157 -124 -157 -346q0 -140 92.5 -211.5t263.5 -71.5l-10 -55q-200 0 -301 96q-100 94 -100 240
q0 225 159 375q158 149 502 149h578q172 0 267 -77t95 -220zM1139 715q222 0 349 111q128 110 128 288q0 63 -21 110.5t-61 79t-96 47t-127 15.5h-469l-109 -651h406z" />
    <glyph glyph-name="Rcaron.swash" horiz-adv-x="1677" 
d="M1311 1579h-74l-184 434h55l172 -397l309 397h56zM1679 1122q0 -221 -138 -332q-138 -112 -353 -126l328 -664h-72l-324 662h-395l-111 -662h-59l227 1368h-24q-310 0 -468 -125q-157 -124 -157 -346q0 -140 92.5 -211.5t263.5 -71.5l-10 -55q-200 0 -301 96
q-100 94 -100 240q0 225 159 375q158 149 502 149h578q172 0 267 -77t95 -220zM1139 715q222 0 349 111q128 110 128 288q0 63 -21 110.5t-61 79t-96 47t-127 15.5h-469l-109 -651h406z" />
    <glyph glyph-name="S.swash" horiz-adv-x="978" 
d="M387 -274q-187 0 -300 95q-112 94 -112 296q0 22 1.5 43.5t5.5 44.5l57 8q-6 -45 -6 -86q0 -172 96 -258t268 -86q195 0 313 93q117 93 117 259q0 123 -70 214q-69 90 -206 190q-162 122 -246 224q-82 100 -82 245q0 188 128 314t325 126q151 0 229 -75.5t78 -213.5
q0 -92 -41 -221h-57q33 113 33 209q0 246 -250 246q-168 0 -275 -108q-108 -109 -108 -267q0 -69 20 -125t71 -112q25 -28 47 -50t41 -39t48 -40t68 -54q31 -23 50.5 -37t27.5 -21t24.5 -21t42.5 -36q51 -43 69 -69q8 -14 20 -31.5t27 -40.5q30 -47 40 -92q5 -23 7.5 -48.5
t2.5 -51.5q0 -201 -138 -313q-139 -111 -366 -111z" />
    <glyph glyph-name="Sacute.swash" horiz-adv-x="978" 
d="M1061 1989l-348 -418h-56l328 418h76zM387 -274q-187 0 -300 95q-112 94 -112 296q0 22 1.5 43.5t5.5 44.5l57 8q-6 -45 -6 -86q0 -172 96 -258t268 -86q195 0 313 93q117 93 117 259q0 123 -70 214q-69 90 -206 190q-162 122 -246 224q-82 100 -82 245q0 188 128 314
t325 126q151 0 229 -75.5t78 -213.5q0 -92 -41 -221h-57q33 113 33 209q0 246 -250 246q-168 0 -275 -108q-108 -109 -108 -267q0 -69 20 -125t71 -112q25 -28 47 -50t41 -39t48 -40t68 -54q31 -23 50.5 -37t27.5 -21t24.5 -21t42.5 -36q51 -43 69 -69q8 -14 20 -31.5
t27 -40.5q30 -47 40 -92q5 -23 7.5 -48.5t2.5 -51.5q0 -201 -138 -313q-139 -111 -366 -111z" />
    <glyph glyph-name="Scaron.swash" horiz-adv-x="978" 
d="M725 1579h-74l-184 434h55l172 -397l310 397h55zM676 1448q151 0 229 -75.5t78 -213.5q0 -92 -41 -221h-57q33 113 33 209q0 246 -250 246q-168 0 -275 -108q-108 -109 -108 -267q0 -69 20 -125t71 -112q25 -28 47 -50t41 -39t48 -40t68 -54q31 -23 50.5 -37t27.5 -21
t24.5 -21t42.5 -36q51 -43 69 -69q8 -14 20 -31.5t27 -40.5q30 -47 40 -92q5 -23 7.5 -48.5t2.5 -51.5q0 -201 -138 -313q-139 -111 -366 -111q-187 0 -300 95q-112 94 -112 296q0 22 1.5 43.5t5.5 44.5l57 8q-6 -45 -6 -86q0 -172 96 -258t268 -86q195 0 313 93
q117 93 117 259q0 123 -70 214q-69 90 -206 190q-162 122 -246 224q-82 100 -82 245q0 188 128 314t325 126z" />
    <glyph glyph-name="Scedilla.c2sc" horiz-adv-x="876" 
d="M537 1016q-132 0 -217 -56q-83 -57 -82 -151q2 -92 58 -142q56 -51 169 -92q37 -14 65 -25t48 -19q38 -16 90 -51q51 -34 74.5 -81t23.5 -110q2 -131 -91 -212q-94 -82 -241 -95l-125 -203q71 33 133 33q166 0 166 -158q0 -111 -83 -177q-83 -65 -199 -65q-110 0 -211 56
l26 49q88 -51 185 -52q94 0 159 53q64 54 64 136q0 48 -30 76t-87 28q-93 0 -160 -55l-49 25l148 252q-197 0 -355 129l25 61q136 -133 340 -133q142 0 233 69q91 67 88 175q0 49 -18 87t-61 66q-22 14 -41.5 25t-36.5 19q-33 16 -107 42q-64 23 -112 50.5t-81 58.5
q-68 62 -69 170q-2 119 96 197q98 77 269 77q177 0 319 -92l-33 -51q-131 86 -290 86z" />
    <glyph glyph-name="Scedilla.swash" horiz-adv-x="978" 
d="M676 1448q148 0 227.5 -76.5t79.5 -218.5q0 -86 -41 -215h-57q35 113 35 215q0 242 -250 242q-170 0 -277 -108q-108 -109 -108 -269q0 -131 75 -224q37 -48 92 -96.5t128 -99.5q31 -22 55 -40t43 -33q19 -16 39.5 -35.5t43.5 -43.5q46 -49 67.5 -106t21.5 -123
q0 -137 -97 -210t-264 -73q-13 0 -30 1.5t-39 3.5l-96 -158q77 43 165 43q72 0 116 -39t44 -111q0 -117 -85 -187q-85 -69 -216 -69q-140 0 -213 70l33 51q64 -68 188 -67q105 0 170 52q66 52 66 138q0 49 -28 79t-85 30q-110 0 -184 -62l-49 25l123 213q-210 46 -373 268
l43 39q175 -262 461 -262q128 0 207 57t79 168q0 100 -58 170q-29 35 -73 72.5t-104 79.5q-162 113 -245 218q-83 106 -83 251q0 188 128 314t325 126z" />
    <glyph glyph-name="T.swash" horiz-adv-x="1314" 
d="M1432 1419v-51h-439l-215 -1368h-59l215 1368h-256q-299 0 -451 -126q-153 -126 -153 -345q0 -140 92.5 -211.5t263.5 -71.5l-8 -55q-201 0 -302 96q-102 95 -102 240q0 105 35 195t107 166q72 75 199 119t300 44h773z" />
    <glyph glyph-name="Tbar.aalt" horiz-adv-x="1314" 
d="M1432 1368h-439l-110 -709h319l-8 -51h-320l-96 -608h-59l96 608h-317l8 51h317l111 709h-256q-299 0 -451 -126q-153 -126 -153 -345q0 -140 92.5 -211.5t263.5 -71.5l-8 -55q-201 0 -302 96q-102 95 -102 240q0 105 35 195t107 166q72 75 199 119t300 44h773v-51z" />
    <glyph glyph-name="Tcaron.swash" horiz-adv-x="1314" 
d="M1034 1579h-73l-185 434h55l173 -397l309 397h55zM1432 1419v-51h-439l-215 -1368h-59l215 1368h-256q-299 0 -451 -126q-153 -126 -153 -345q0 -140 92.5 -211.5t263.5 -71.5l-8 -55q-201 0 -302 96q-102 95 -102 240q0 105 35 195t107 166q72 75 199 119t300 44h773z
" />
    <glyph glyph-name="Thorn.aalt" horiz-adv-x="983" 
d="M627 858q313 0 313 -258q0 -159 -115 -259q-116 -101 -342 -101h-268l-41 -240h-59l176 1051h59l-33 -193h310zM475 293q198 0 301 89q101 89 101 214q0 207 -275 207h-293l-86 -510h252z" />
    <glyph glyph-name="U.swash" horiz-adv-x="1859" 
d="M1774 1419h59l-141 -839q-49 -297 -210 -453q-160 -156 -399 -156q-169 0 -269 91q-100 90 -129 224q-28 133 -1 298l127 784h-104q-276 0 -420 -101.5t-144 -287.5q0 -152 95 -238t262 -86l-13 -55q-198 0 -299 111q-100 109 -100 266q0 193 146 318q145 124 454 124
h191l-136 -835q-23 -109 -10.5 -208t48.5 -176t117 -123t196 -46q209 0 351 144q142 143 187 405z" />
    <glyph glyph-name="Uacute.swash" horiz-adv-x="1859" 
d="M1708 1989l-348 -418h-55l327 418h76zM1774 1419h59l-141 -839q-49 -297 -210 -453q-160 -156 -399 -156q-169 0 -269 91q-100 90 -129 224q-28 133 -1 298l127 784h-104q-276 0 -420 -101.5t-144 -287.5q0 -152 95 -238t262 -86l-13 -55q-198 0 -299 111
q-100 109 -100 266q0 193 146 318q145 124 454 124h191l-136 -835q-23 -109 -10.5 -208t48.5 -176t117 -123t196 -46q209 0 351 144q142 143 187 405z" />
    <glyph glyph-name="Ucircumflex.swash" horiz-adv-x="1859" 
d="M1395 1950l-308 -396h-55l332 435h74l186 -435h-55zM1774 1419h59l-141 -839q-49 -297 -210 -453q-160 -156 -399 -156q-169 0 -269 91q-100 90 -129 224q-28 133 -1 298l127 784h-104q-276 0 -420 -101.5t-144 -287.5q0 -152 95 -238t262 -86l-13 -55q-198 0 -299 111
q-100 109 -100 266q0 193 146 318q145 124 454 124h191l-136 -835q-23 -109 -10.5 -208t48.5 -176t117 -123t196 -46q209 0 351 144q142 143 187 405z" />
    <glyph glyph-name="Udieresis.swash" horiz-adv-x="1859" 
d="M1174 1638q-29 0 -43.5 18.5t-10.5 47.5t25.5 47t50.5 18q27 0 41 -18t10 -47q-4 -27 -25 -46.5t-48 -19.5zM1524 1638q-31 0 -45.5 18.5t-9.5 47.5t26 47t50 18t44.5 -18t10.5 -47t-27 -47.5t-49 -18.5zM1774 1419h59l-141 -839q-49 -297 -210 -453q-160 -156 -399 -156
q-169 0 -269 91q-100 90 -129 224q-28 133 -1 298l127 784h-104q-276 0 -420 -101.5t-144 -287.5q0 -152 95 -238t262 -86l-13 -55q-198 0 -299 111q-100 109 -100 266q0 193 146 318q145 124 454 124h191l-136 -835q-23 -109 -10.5 -208t48.5 -176t117 -123t196 -46
q209 0 351 144q142 143 187 405z" />
    <glyph glyph-name="Ugrave.swash" horiz-adv-x="1859" 
d="M1354 1571h-56l-206 418h75zM1774 1419h59l-141 -839q-49 -297 -210 -453q-160 -156 -399 -156q-169 0 -269 91q-100 90 -129 224q-28 133 -1 298l127 784h-104q-276 0 -420 -101.5t-144 -287.5q0 -152 95 -238t262 -86l-13 -55q-198 0 -299 111q-100 109 -100 266
q0 193 146 318q145 124 454 124h191l-136 -835q-23 -109 -10.5 -208t48.5 -176t117 -123t196 -46q209 0 351 144q142 143 187 405z" />
    <glyph glyph-name="Uhungarumlaut.swash" horiz-adv-x="1859" 
d="M1483 1987l-269 -416h-47l240 416h76zM1446 1571h-51l362 416h76zM1632 580l142 839h59l-141 -839q-49 -297 -210 -453q-160 -156 -399 -156q-169 0 -269 91q-100 90 -129 224q-28 133 -1 298l127 784h-104q-276 0 -420 -101.5t-144 -287.5q0 -152 95 -238t262 -86
l-13 -55q-198 0 -299 111q-100 109 -100 266q0 193 146 318q145 124 454 124h191l-136 -835q-23 -109 -10.5 -208t48.5 -176t117 -123t196 -46q209 0 351 145q142 143 187 404z" />
    <glyph glyph-name="Umacron.swash" horiz-adv-x="1859" 
d="M1716 1800l-8 -51h-674l8 51h674zM1774 1419h59l-141 -839q-49 -297 -210 -453q-160 -156 -399 -156q-169 0 -269 91q-100 90 -129 224q-28 133 -1 298l127 784h-104q-276 0 -420 -101.5t-144 -287.5q0 -152 95 -238t262 -86l-13 -55q-198 0 -299 111q-100 109 -100 266
q0 193 146 318q145 124 454 124h191l-136 -835q-23 -109 -10.5 -208t48.5 -176t117 -123t196 -46q209 0 351 144q142 143 187 405z" />
    <glyph glyph-name="Uogonek.swash" horiz-adv-x="1859" 
d="M1774 1419h59l-141 -839q-73 -441 -381 -566l2 -4q-398 -180 -400 -416q0 -54 29 -82t78 -28q111 0 199 61l8 -55q-103 -63 -211 -63q-82 0 -123 41.5t-41 113.5q0 234 289 391q-9 -1 -23.5 -1.5t-34.5 -0.5q-169 0 -269 91q-100 90 -129 224q-28 133 -1 298l127 784
h-104q-276 0 -420 -101.5t-144 -287.5q0 -152 95 -238t262 -86l-13 -55q-198 0 -299 111q-100 109 -100 266q0 193 146 318q145 124 454 124h191l-136 -835q-23 -109 -10.5 -208t48.5 -176t117 -123t196 -46q209 0 351 144q142 143 187 405z" />
    <glyph glyph-name="Uring.swash" horiz-adv-x="1859" 
d="M1335 1567q-96 0 -146 62t-34 155q17 97 88 158t166 61q93 0 146 -62q51 -63 35 -157q-16 -93 -87 -155t-168 -62zM1212 1784q-14 -76 24 -119t110 -43t123 43t63 119q12 78 -24.5 122t-108.5 44q-35 0 -66 -12t-55.5 -34t-41.5 -52.5t-24 -67.5zM1774 1419h59l-141 -839
q-49 -297 -210 -453q-160 -156 -399 -156q-169 0 -269 91q-100 90 -129 224q-28 133 -1 298l127 784h-104q-276 0 -420 -101.5t-144 -287.5q0 -152 95 -238t262 -86l-13 -55q-198 0 -299 111q-100 109 -100 266q0 193 146 318q145 124 454 124h191l-136 -835
q-23 -109 -10.5 -208t48.5 -176t117 -123t196 -46q209 0 351 144q142 143 187 405z" />
    <glyph glyph-name="V.swash" horiz-adv-x="1697" 
d="M1804 1419h66l-783 -1419h-71l-271 1368h-114q-276 0 -419.5 -101.5t-143.5 -287.5q0 -153 94 -238q95 -86 262 -86l-12 -55q-198 0 -299 111q-101 110 -101 266q0 193 146 318q145 124 454 124h187l227 -1169q27 -135 33 -193q28 56 56.5 109.5t58.5 107.5z" />
    <glyph glyph-name="W.c2sc" horiz-adv-x="1536" 
d="M1477 1051h63l-463 -1051h-73l-117 788l-21 181q-42 -88 -62.5 -133.5t-21.5 -47.5l-405 -788h-74l-86 1051h64l65 -881q0 -11 3 -46q2 -17 3 -30t2 -22q3 9 9 21.5t12.5 26t12.5 25.5t9 19l445 872h71l129 -856q5 -29 8 -53.5t5 -44.5l41 100z" />
    <glyph glyph-name="W.salt" horiz-adv-x="1802" 
d="M1882 1409h60l-701 -1413h-70l-182 903l-508 -895l-71 2l-164 1424h61l156 -1350l510 899l-88 442h57l76 -364l205 360h61l-250 -440l187 -901z" />
    <glyph glyph-name="W.swash" horiz-adv-x="2424" 
d="M2509 1419h63l-598 -1419h-73l-138 1106l-26 225q-48 -105 -74 -161.5t-31 -65.5l-536 -1104h-74l-88 1368h-133q-276 0 -419.5 -101.5t-143.5 -287.5q0 -153 94 -238q95 -86 262 -86l-12 -55q-198 0 -299 111q-101 110 -101 266q0 193 146 318q145 124 454 124h209
l74 -1224q0 -14 3 -56q2 -22 3 -38t2 -27l55 114l584 1211h76l151 -1192q5 -34 8 -64.5t5 -56.5q8 18 27 63q9 22 15.5 38t10.5 26z" />
    <glyph glyph-name="Wacute.swash" horiz-adv-x="2424" 
d="M2148 1989l-348 -418h-55l328 418h75zM2509 1419h63l-598 -1419h-73l-138 1106l-26 225q-48 -105 -74 -161.5t-31 -65.5l-536 -1104h-74l-88 1368h-133q-276 0 -419.5 -101.5t-143.5 -287.5q0 -153 94 -238q95 -86 262 -86l-12 -55q-198 0 -299 111q-101 110 -101 266
q0 193 146 318q145 124 454 124h209l74 -1224q0 -14 3 -56q2 -22 3 -38t2 -27l55 114l584 1211h76l151 -1192q5 -34 8 -64.5t5 -56.5q8 18 27 63q9 22 15.5 38t10.5 26z" />
    <glyph glyph-name="Wcircumflex.swash" horiz-adv-x="2424" 
d="M1835 1950l-307 -396h-55l331 435h74l186 -435h-55zM2509 1419h63l-598 -1419h-73l-138 1106l-26 225q-48 -105 -74 -161.5t-31 -65.5l-536 -1104h-74l-88 1368h-133q-276 0 -419.5 -101.5t-143.5 -287.5q0 -153 94 -238q95 -86 262 -86l-12 -55q-198 0 -299 111
q-101 110 -101 266q0 193 146 318q145 124 454 124h209l74 -1224q0 -14 3 -56q2 -22 3 -38t2 -27l55 114l584 1211h76l151 -1192q5 -34 8 -64.5t5 -56.5q8 18 27 63q9 22 15.5 38t10.5 26z" />
    <glyph glyph-name="Wdieresis.swash" horiz-adv-x="2424" 
d="M1614 1638q-29 0 -43.5 18.5t-9.5 47.5t26 47t49 18q27 0 41.5 -18t10.5 -47q-4 -27 -25.5 -46.5t-48.5 -19.5zM1964 1638q-31 0 -45 18.5t-10 47.5t25.5 47t50.5 18t44 -18t11 -47t-26.5 -47.5t-49.5 -18.5zM2509 1419h63l-598 -1419h-73l-138 1106l-26 225
q-48 -105 -74 -161.5t-31 -65.5l-536 -1104h-74l-88 1368h-133q-276 0 -419.5 -101.5t-143.5 -287.5q0 -153 94 -238q95 -86 262 -86l-12 -55q-198 0 -299 111q-101 110 -101 266q0 193 146 318q145 124 454 124h209l74 -1224q0 -14 3 -56q2 -22 3 -38t2 -27l55 114
l584 1211h76l151 -1192q5 -34 8 -64.5t5 -56.5q8 18 27 63q9 22 15.5 38t10.5 26z" />
    <glyph glyph-name="Wgrave.swash" horiz-adv-x="2424" 
d="M1794 1571h-55l-207 418h76zM2509 1419h63l-598 -1419h-73l-138 1106l-26 225q-48 -105 -74 -161.5t-31 -65.5l-536 -1104h-74l-88 1368h-133q-276 0 -419.5 -101.5t-143.5 -287.5q0 -153 94 -238q95 -86 262 -86l-12 -55q-198 0 -299 111q-101 110 -101 266
q0 193 146 318q145 124 454 124h209l74 -1224q0 -14 3 -56q2 -22 3 -38t2 -27l55 114l584 1211h76l151 -1192q5 -34 8 -64.5t5 -56.5q8 18 27 63q9 22 15.5 38t10.5 26z" />
    <glyph glyph-name="X.swash" horiz-adv-x="1490" 
d="M1692 1419q-150 -169 -288.5 -337.5t-268.5 -340.5l280 -741h-74l-254 705l-567 -705h-78l621 764l2 2q-20 64 -41 119t-42 103t-46.5 94.5t-56.5 92.5q-62 92 -146 140.5t-184 48.5q-157 0 -261 -110q-104 -112 -104 -291q0 -144 105 -230q104 -86 303 -59l-10 -56
q-124 -14 -217 11.5t-142 80.5q-96 106 -96 253q0 203 121 330q122 126 315 126q197 0 327 -162q131 -163 222 -450q251 329 504 612h76z" />
    <glyph glyph-name="Y.swash" horiz-adv-x="1579" 
d="M1741 1419q-159 -165 -332 -408q-175 -246 -293 -470l-84 -541h-59l84 541q-2 236 -46 416t-146 294q-104 113 -253 113q-169 0 -282 -110q-113 -111 -113 -291q0 -145 100 -230q99 -86 289 -59l-10 -56q-120 -14 -207.5 11.5t-135.5 80.5q-48 54 -70.5 117.5
t-22.5 135.5q0 203 130 330q131 126 337 126q221 0 344 -213q122 -212 133 -592q52 104 117.5 211.5t145.5 220.5q160 225 302 373h72z" />
    <glyph glyph-name="Yacute.swash" horiz-adv-x="1579" 
d="M1636 1989l-348 -418h-55l328 418h75zM1741 1419q-159 -165 -332 -408q-175 -246 -293 -470l-84 -541h-59l84 541q-2 236 -46 416t-146 294q-104 113 -253 113q-169 0 -282 -110q-113 -111 -113 -291q0 -145 100 -230q99 -86 289 -59l-10 -56q-120 -14 -207.5 11.5
t-135.5 80.5q-48 54 -70.5 117.5t-22.5 135.5q0 203 130 330q131 126 337 126q221 0 344 -213q122 -212 133 -592q52 104 117.5 211.5t145.5 220.5q160 225 302 373h72z" />
    <glyph glyph-name="Ycircumflex.swash" horiz-adv-x="1579" 
d="M1323 1950l-307 -396h-55l331 435h74l186 -435h-55zM1741 1419q-159 -165 -332 -408q-175 -246 -293 -470l-84 -541h-59l84 541q-2 236 -46 416t-146 294q-104 113 -253 113q-169 0 -282 -110q-113 -111 -113 -291q0 -145 100 -230q99 -86 289 -59l-10 -56
q-120 -14 -207.5 11.5t-135.5 80.5q-48 54 -70.5 117.5t-22.5 135.5q0 203 130 330q131 126 337 126q221 0 344 -213q122 -212 133 -592q52 104 117.5 211.5t145.5 220.5q160 225 302 373h72z" />
    <glyph glyph-name="Ydieresis.swash" horiz-adv-x="1579" 
d="M1102 1638q-29 0 -43.5 18.5t-9.5 47.5t26 47t49 18q27 0 41.5 -18t10.5 -47q-4 -27 -25.5 -46.5t-48.5 -19.5zM1452 1638q-31 0 -45 18.5t-10 47.5t25.5 47t50.5 18t44 -18t11 -47t-26.5 -47.5t-49.5 -18.5zM1741 1419q-159 -165 -332 -408q-175 -246 -293 -470
l-84 -541h-59l84 541q-2 236 -46 416t-146 294q-104 113 -253 113q-169 0 -282 -110q-113 -111 -113 -291q0 -145 100 -230q99 -86 289 -59l-10 -56q-120 -14 -207.5 11.5t-135.5 80.5q-48 54 -70.5 117.5t-22.5 135.5q0 203 130 330q131 126 337 126q221 0 344 -213
q122 -212 133 -592q52 104 117.5 211.5t145.5 220.5q160 225 302 373h72z" />
    <glyph glyph-name="Ygrave.swash" horiz-adv-x="1579" 
d="M1282 1571h-55l-207 418h76zM1741 1419q-159 -165 -332 -408q-175 -246 -293 -470l-84 -541h-59l84 541q-2 236 -46 416t-146 294q-104 113 -253 113q-169 0 -282 -110q-113 -111 -113 -291q0 -145 100 -230q99 -86 289 -59l-10 -56q-120 -14 -207.5 11.5t-135.5 80.5
q-48 54 -70.5 117.5t-22.5 135.5q0 203 130 330q131 126 337 126q221 0 344 -213q122 -212 133 -592q52 104 117.5 211.5t145.5 220.5q160 225 302 373h72z" />
    <glyph glyph-name="Z.swash" horiz-adv-x="1093" 
d="M1106 1419l-8 -51l-1032 -1286q42 20 108 20q94 0 253 -76q158 -77 251 -77q138 0 217 107q80 107 80 249q0 232 -230 336l39 49q103 -50 177 -143q75 -94 75 -236q0 -176 -98 -298t-260 -122q-101 0 -271 78q-169 78 -233 78q-98 0 -201 -67l-24 51l1071 1335h-825l8 53
h903z" />
    <glyph glyph-name="Zacute.swash" horiz-adv-x="1093" 
d="M1024 1989l-348 -418h-55l327 418h76zM1106 1419l-8 -51l-1032 -1286q42 20 108 20q94 0 253 -76q158 -77 251 -77q138 0 217 107q80 107 80 249q0 232 -230 336l39 49q103 -50 177 -143q75 -94 75 -236q0 -176 -98 -298t-260 -122q-101 0 -271 78q-169 78 -233 78
q-98 0 -201 -67l-24 51l1071 1335h-825l8 53h903z" />
    <glyph glyph-name="Zcaron.swash" horiz-adv-x="1093" 
d="M688 1579h-74l-184 434h55l172 -397l310 397h55zM1106 1419l-8 -51l-1032 -1286q42 20 108 20q94 0 253 -76q158 -77 251 -77q138 0 217 107q80 107 80 249q0 232 -230 336l39 49q103 -50 177 -143q75 -94 75 -236q0 -176 -98 -298t-260 -122q-101 0 -271 78
q-169 78 -233 78q-98 0 -201 -67l-24 51l1071 1335h-825l8 53h903z" />
    <glyph glyph-name="Zdotaccent.swash" horiz-adv-x="1093" 
d="M666 1640q-31 0 -47.5 19.5t-12.5 50.5t26.5 51.5t55.5 20.5q31 0 47.5 -20.5t12.5 -51.5q-4 -29 -28.5 -49.5t-53.5 -20.5zM1106 1419l-8 -51l-1032 -1286q42 20 108 20q94 0 253 -76q158 -77 251 -77q138 0 217 107q80 107 80 249q0 232 -230 336l39 49
q103 -50 177 -143q75 -94 75 -236q0 -176 -98 -298t-260 -122q-101 0 -271 78q-169 78 -233 78q-98 0 -201 -67l-24 51l1071 1335h-825l8 53h903z" />
    <glyph glyph-name="a.aalt" horiz-adv-x="983" 
d="M795 0l-72 324h-516l-182 -324h-66l594 1051h70l237 -1051h-65zM236 377h475l-133 608z" />
    <glyph glyph-name="aacute.aalt" horiz-adv-x="983" 
d="M874 1624l-303 -416h-47l275 416h75zM553 1051h70l237 -1051h-65l-72 324h-516l-182 -324h-66zM236 377h475l-133 608z" />
    <glyph glyph-name="abreve.aalt" horiz-adv-x="983" 
d="M938 1638h51q-10 -90 -40 -159.5t-77.5 -116.5t-110 -71.5t-138.5 -24.5q-153 0 -220 97q-68 97 -28 275h51q-33 -147 13 -235t190 -88q271 -1 309 323zM553 1051h70l237 -1051h-65l-72 324h-516l-182 -324h-66zM236 377h475l-133 608z" />
    <glyph glyph-name="acircumflex.aalt" horiz-adv-x="983" 
d="M676 1604l-307 -396h-56l330 434h74l188 -434h-55zM553 1051h70l237 -1051h-65l-72 324h-516l-182 -324h-66zM236 377h475l-133 608z" />
    <glyph glyph-name="acutecomb.aalt" 
d="M188 1540l-348 -418h-55l328 418h75z" />
    <glyph glyph-name="adieresis.aalt" horiz-adv-x="983" 
d="M436 1393q-27 0 -41 17t-10 44t24.5 44.5t47.5 17.5q25 0 39 -17.5t10 -44.5t-24.5 -44t-45.5 -17zM820 1499q20 17 46.5 17t41.5 -17q14 -18 9.5 -45t-24.5 -44q-21 -17 -47.5 -17t-40.5 17t-10 44t25 45zM553 1051h70l237 -1051h-65l-72 324h-516l-182 -324h-66z
M236 377h475l-133 608z" />
    <glyph glyph-name="agrave.aalt" horiz-adv-x="983" 
d="M637 1208h-47l-164 416h76zM795 0l-72 324h-516l-182 -324h-66l594 1051h70l237 -1051h-65zM236 377h475l-133 608z" />
    <glyph glyph-name="amacron.aalt" horiz-adv-x="983" 
d="M315 1473h674l-8 -52h-674zM553 1051h70l237 -1051h-65l-72 324h-516l-182 -324h-66zM236 377h475l-133 608z" />
    <glyph glyph-name="aogonek.aalt" horiz-adv-x="983" 
d="M571 -506q95 0 201 53l8 -55q-114 -55 -209 -55q-170 0 -170 155q0 125 110 232q110 109 282 182l-70 318h-516l-182 -324h-66l594 1051h70l237 -1051q-399 -195 -399 -397q-1 -109 110 -109zM236 377h475l-133 608z" />
    <glyph glyph-name="aring.aalt" horiz-adv-x="983" 
d="M612 1284q-81 0 -127.5 48t-46.5 126q0 117 75 190q75 72 183 72q85 0 135 -48.5t50 -129.5q0 -111 -76 -184q-77 -74 -193 -74zM686 1667q-80 0 -135 -58t-55 -145q0 -60 34.5 -92.5t92.5 -32.5q75 0 137 56q61 55 61 141q0 63 -36 97t-99 34zM553 1051h70l237 -1051
h-65l-72 324h-516l-182 -324h-66zM236 377h475l-133 608z" />
    <glyph glyph-name="atilde.aalt" horiz-adv-x="983" 
d="M971 1610h49q-52 -379 -223 -379q-38 0 -76 32q-37 32 -57 63q-11 16 -24 38t-30 51q-16 26 -26.5 44t-17.5 29q-14 22 -38 46q-25 25 -49 25q-109 0 -155 -322h-50q50 375 215 375q27 0 48.5 -11.5t48.5 -46.5q25 -36 35 -47q4 -6 13.5 -22.5t24.5 -42.5q2 -3 6 -9.5
t8.5 -14t8.5 -14.5t7 -11q5 -9 15 -24q9 -15 15 -22.5t15 -19.5q15 -20 34.5 -31.5t36.5 -11.5q115 0 166 326zM553 1051h70l237 -1051h-65l-72 324h-516l-182 -324h-66zM236 377h475l-133 608z" />
    <glyph glyph-name="b.aalt" horiz-adv-x="1079" 
d="M741 555q208 -39 213 -221q1 -154 -118 -244q-121 -90 -344 -90h-375l174 1051h385q136 0 212.5 -54t78.5 -157t-60 -180q-61 -76 -166 -105zM342 997l-72 -426h348q116 0 201 72t84 184q0 85 -63 127.5t-174 42.5h-324zM502 53q173 0 283 73q109 73 108 208
q-2 97 -68 143.5t-184 46.5h-379l-78 -471h318z" />
    <glyph glyph-name="c.aalt" horiz-adv-x="1073" 
d="M504 -20q-175 0 -297 112q-123 111 -123 344q0 275 177 456t456 181q210 0 362 -112l-41 -50q-135 104 -327 105q-248 0 -406 -164t-158 -412q0 -208 106 -305q106 -98 255 -98q124 0 234 37q111 38 182 94l14 -62q-184 -126 -434 -126z" />
    <glyph glyph-name="cacute.aalt" horiz-adv-x="1073" 
d="M1034 1624l-303 -416h-47l274 416h76zM504 -20q-175 0 -297 112q-123 111 -123 344q0 275 177 456t456 181q210 0 362 -112l-41 -50q-135 104 -327 105q-248 0 -406 -164t-158 -412q0 -208 106 -305q106 -98 255 -98q124 0 234 37q111 38 182 94l14 -62
q-184 -126 -434 -126z" />
    <glyph glyph-name="ccaron.aalt" horiz-adv-x="1073" 
d="M795 1208h-74l-186 434h55l174 -397l307 397h55zM84 436q0 275 177 456t456 181q210 0 362 -112l-41 -50q-135 104 -327 105q-248 0 -406 -164t-158 -412q0 -208 106 -305q106 -98 255 -98q124 0 234 37q111 38 182 94l14 -62q-184 -127 -434 -126q-175 0 -297 112
q-123 111 -123 344z" />
    <glyph glyph-name="ccedilla.aalt" horiz-adv-x="1073" 
d="M711 1016q-248 0 -406 -164t-158 -412q0 -208 106 -305q106 -98 255 -98q124 0 234 37q111 38 182 94l14 -62q-157 -110 -377 -124l-125 -203q71 33 133 33q166 0 166 -158q0 -111 -83 -177q-83 -65 -199 -65q-110 0 -211 56l26 49q88 -51 185 -52q94 0 159 53
q64 54 64 136q0 48 -30 76t-87 28q-93 0 -160 -55l-49 25l148 252q-171 1 -293 114q-121 111 -121 342q0 275 177 456t456 181q210 0 362 -112l-41 -50q-133 105 -327 105z" />
    <glyph glyph-name="cdotaccent.aalt" horiz-adv-x="1073" 
d="M723 1333q4 33 29.5 55.5t60.5 22.5q33 0 52 -22.5t14 -55.5t-31.5 -56.5t-59.5 -23.5q-35 0 -52 22.5t-13 57.5zM504 -20q-175 0 -297 112q-123 111 -123 344q0 275 177 456t456 181q210 0 362 -112l-41 -50q-135 104 -327 105q-248 0 -406 -164t-158 -412
q0 -208 106 -305q106 -98 255 -98q124 0 234 37q111 38 182 94l14 -62q-184 -126 -434 -126z" />
    <glyph glyph-name="d.aalt" horiz-adv-x="1171" 
d="M621 1051q114 0 204 -25.5t152 -77t94.5 -130t32.5 -183.5q0 -81 -15.5 -153.5t-44.5 -134.5t-70 -112t-92 -87q-205 -148 -466 -148h-297l172 1051h330zM410 55q227 0 418 126q97 63 153.5 180t56.5 274q0 362 -426 362h-268l-158 -942h224z" />
    <glyph glyph-name="dcaron.aalt" horiz-adv-x="1171" 
d="M748 1208h-74l-187 434h56l174 -397l307 397h55zM621 1051q114 0 204 -25.5t152 -77t94.5 -130t32.5 -183.5q0 -81 -15.5 -153.5t-44.5 -134.5t-70 -112t-92 -87q-205 -148 -466 -148h-297l172 1051h330zM410 55q227 0 418 126q97 63 153.5 180t56.5 274q0 362 -426 362
h-268l-158 -942h224z" />
    <glyph glyph-name="dcroat.aalt" horiz-adv-x="1171" 
d="M621 1051q114 0 204 -25.5t152 -77t94.5 -130t32.5 -183.5q0 -81 -15.5 -153.5t-44.5 -134.5t-70 -112t-92 -87q-205 -148 -466 -148h-297l88 535h-107l9 49h106l76 467h330zM410 55q227 0 418 126q97 63 153.5 180t56.5 274q0 362 -426 362h-268l-70 -413h392l-9 -49
h-391l-80 -480h224z" />
    <glyph glyph-name="e.aalt" horiz-adv-x="974" 
d="M979 997h-633l-70 -417h512l-6 -52h-514l-80 -475h635l-8 -53h-696l172 1051h696z" />
    <glyph glyph-name="eacute.aalt" horiz-adv-x="974" 
d="M930 1624l-303 -416h-47l274 416h76zM979 997h-633l-70 -417h512l-6 -52h-514l-80 -475h635l-8 -53h-696l172 1051h696z" />
    <glyph glyph-name="ecaron.aalt" horiz-adv-x="974" 
d="M690 1208h-74l-186 434h55l174 -397l308 397h55zM119 0l172 1051h696l-8 -54h-633l-70 -417h512l-6 -52h-514l-80 -475h635l-8 -53h-696z" />
    <glyph glyph-name="ecircumflex.aalt" horiz-adv-x="974" 
d="M731 1604l-307 -396h-55l329 434h74l189 -434h-56zM979 997h-633l-70 -417h512l-6 -52h-514l-80 -475h635l-8 -53h-696l172 1051h696z" />
    <glyph glyph-name="edieresis.aalt" horiz-adv-x="974" 
d="M492 1393q-27 0 -41.5 17t-10.5 44t24.5 44.5t47.5 17.5q25 0 39 -17.5t10 -44.5t-24 -44t-45 -17zM949 1410q-21 -17 -48 -17t-41 17t-10 44t25 45q20 17 46.5 17t41.5 -17q14 -18 10 -45t-24 -44zM979 997h-633l-70 -417h512l-6 -52h-514l-80 -475h635l-8 -53h-696
l172 1051h696z" />
    <glyph glyph-name="edotaccent.aalt" horiz-adv-x="974" 
d="M684 1253q-35 0 -52.5 22.5t-13.5 57.5q4 33 30 55.5t61 22.5q33 0 51 -22.5t14 -55.5t-30.5 -56.5t-59.5 -23.5zM979 997h-633l-70 -417h512l-6 -52h-514l-80 -475h635l-8 -53h-696l172 1051h696z" />
    <glyph glyph-name="egrave.aalt" horiz-adv-x="974" 
d="M692 1208h-47l-164 416h76zM979 997h-633l-70 -417h512l-6 -52h-514l-80 -475h635l-8 -53h-696l172 1051h696z" />
    <glyph glyph-name="eight.oldstyle" horiz-adv-x="1107" 
d="M715 731q126 -19 205 -107q77 -88 77 -223q0 -203 -147 -316q-148 -114 -391 -114q-171 0 -280 91q-111 90 -111 257q0 171 104 278q104 105 256 134q-87 27 -145 104q-58 76 -58 195q0 171 122 295q122 123 339 123q161 0 256 -82q96 -82 96 -238q0 -157 -99 -261
q-98 -103 -224 -136zM289 1038q0 -141 76.5 -209.5t207.5 -68.5q161 0 282 109q122 108 122 250q0 141 -83 207q-83 65 -216 65q-176 0 -282 -100q-107 -101 -107 -253zM467 33q217 0 343 102q126 101 126 258q0 164 -102 236q-104 71 -261 71q-189 0 -317 -104
q-127 -103 -127 -262q0 -69 22 -125t65 -95t106 -60t145 -21z" />
    <glyph glyph-name="eight.oldstyle.case" horiz-adv-x="1148" 
d="M752 731q130 -19 209 -106q77 -86 77 -224q0 -204 -154 -316q-154 -114 -415 -114q-75 0 -139.5 16.5t-127.5 53.5t-98.5 107t-35.5 167q0 172 112 281q111 110 271 135q-92 28 -158 106q-64 76 -64 193q0 172 130 295q131 123 360 123q174 0 280 -82q105 -82 105 -238
q0 -157 -107 -261q-107 -103 -245 -136zM293 1038q0 -70 22 -122.5t63 -87t98.5 -51.5t129.5 -17q173 0 304 109q132 108 132 250q0 141 -91 207q-92 65 -240 65q-188 0 -303 -100t-115 -253zM477 33q234 0 367 102q133 100 133 258q0 164 -108 236q-110 71 -275 71
q-200 0 -331 -106q-132 -106 -132 -264q0 -297 346 -297z" />
    <glyph glyph-name="emacron.aalt" horiz-adv-x="974" 
d="M371 1473h673l-8 -52h-674zM119 0l172 1051h696l-8 -54h-633l-70 -417h512l-6 -52h-514l-80 -475h635l-8 -53h-696z" />
    <glyph glyph-name="eogonek.aalt" horiz-adv-x="974" 
d="M979 997h-633l-70 -417h512l-6 -52h-514l-80 -475h635l-8 -53q-399 -195 -399 -397q0 -109 110 -109q95 0 201 53l8 -55q-114 -55 -209 -55q-170 0 -170 155q0 123 106 229q106 107 273 179h-616l172 1051h696z" />
    <glyph glyph-name="eth.aalt" horiz-adv-x="1171" 
d="M621 1051q114 0 204 -25.5t152 -77t94.5 -130t32.5 -183.5q0 -81 -15.5 -153.5t-44.5 -134.5t-70 -112t-92 -87q-205 -148 -466 -148h-297l88 535h-107l9 49h106l76 467h330zM410 55q227 0 418 126q97 63 153.5 180t56.5 274q0 362 -426 362h-268l-70 -413h392l-9 -49
h-391l-80 -480h224z" />
    <glyph glyph-name="f.salt" horiz-adv-x="604" 
d="M649 1550q104 0 203 -57l-27 -51q-82 57 -178 57q-84 0 -131 -50t-67 -163l-54 -315h230l-9 -51h-229l-188 -1127q-33 -168 -125 -242.5t-256 -70.5l-11 51q147 -8 226.5 56.5t107.5 207.5l189 1125h-180l8 51h180l53 315q45 264 258 264z" />
    <glyph glyph-name="five.oldstyle" horiz-adv-x="989" 
d="M915 997h-636l-91 -604q129 103 326 105q154 0 255 -98q101 -99 101 -306q0 -238 -142 -365q-142 -126 -372 -126q-125 0 -233 40q-112 41 -174 97l33 51q137 -131 385 -131q183 0 311 106q129 106 129 328q0 172 -80 259t-219 87q-216 0 -344 -123l-45 19l108 715h699z
" />
    <glyph glyph-name="five.oldstyle.case" horiz-adv-x="987" 
d="M961 1366h-637l-109 -659q65 61 163 100t200 39q137 0 234 -88t97 -271q0 -249 -143 -383q-142 -133 -365 -133q-126 0 -228 40q-105 41 -165 98l33 51q131 -131 371 -131q174 0 304 112q130 111 130 338q0 155 -76 232q-77 77 -199 77t-221 -49q-100 -49 -162 -114
l-45 18l129 776h699z" />
    <glyph glyph-name="four.oldstyle" horiz-adv-x="1030" 
d="M918 51l-11 -51h-209l-55 -350h-61l55 350h-700l10 61l827 988h88l-155 -998h211zM6 51h639l148 932z" />
    <glyph glyph-name="four.oldstyle.case" horiz-adv-x="1116" 
d="M1055 362l-11 -51h-206l-52 -311h-61l51 311h-764l11 62l911 1048h88l-176 -1059h209zM84 362h702l164 996z" />
    <glyph glyph-name="g.aalt" horiz-adv-x="1159" 
d="M723 1016q-250 0 -415 -169q-165 -170 -161 -419q1 -202 122 -297q119 -94 304 -94t342 53l68 420h-373l6 51h437l-84 -518q-190 -63 -406 -63q-131 0 -233 41t-173 144q-72 105 -73 263q-5 270 177 458q181 187 472 187q100 0 202 -33q51 -17 94 -40t79 -52l-43 -47
q-142 115 -342 115z" />
    <glyph glyph-name="gbreve.aalt" horiz-adv-x="1159" 
d="M1003 1362q-97 -96 -249 -96q-153 0 -220 97q-68 97 -28 275h51q-33 -147 13 -235t190 -88q271 0 309 323h51q-19 -180 -117 -276zM84 428q-5 270 177 458q181 187 472 187q100 0 202 -33q51 -17 94 -40t79 -52l-43 -47q-142 115 -342 115q-250 0 -415 -169
q-165 -170 -161 -419q1 -202 122 -297q119 -94 304 -94t342 53l68 420h-373l6 51h437l-84 -518q-190 -63 -406 -63q-131 0 -233 41t-173 144q-72 105 -73 263z" />
    <glyph glyph-name="gdotaccent.aalt" horiz-adv-x="1159" 
d="M760 1253q-35 0 -52.5 22.5t-13.5 57.5q4 33 30 55.5t60 22.5q33 0 51.5 -22.5t14.5 -55.5t-30.5 -56.5t-59.5 -23.5zM723 1016q-250 0 -415 -169q-165 -170 -161 -419q1 -202 122 -297q119 -94 304 -94t342 53l68 420h-373l6 51h437l-84 -518q-190 -63 -406 -63
q-131 0 -233 41t-173 144q-72 105 -73 263q-5 270 177 458q181 187 472 187q100 0 202 -33q51 -17 94 -40t79 -52l-43 -47q-142 115 -342 115z" />
    <glyph glyph-name="glyph1" 
 />
    <glyph glyph-name="glyph2" horiz-adv-x="681" 
 />
    <glyph glyph-name="glyph634" horiz-adv-x="212" 
d="M358 1532l-182 -606h-47l154 606h75z" />
    <glyph glyph-name="gravecomb.aalt" 
d="M45 1122l-207 418h76l186 -418h-55z" />
    <glyph glyph-name="h.aalt" horiz-adv-x="1196" 
d="M1063 1051h59l-172 -1051h-61l88 532h-711l-88 -532h-59l172 1051h61l-78 -465h711z" />
    <glyph glyph-name="i.locl" horiz-adv-x="450" 
d="M287 1253q4 33 29.5 55.5t60.5 22.5q33 0 51 -22.5t14 -54.5q-4 -33 -30.5 -56.5t-59.5 -23.5q-35 0 -52 22t-13 57zM334 971l-162 -971h-57l161 971h58z" />
    <glyph glyph-name="iacute.aalt" horiz-adv-x="423" 
d="M614 1624l-303 -416h-47l275 416h75zM352 1051l-174 -1051h-59l172 1051h61z" />
    <glyph glyph-name="icircumflex.aalt" horiz-adv-x="423" 
d="M645 1208h-55l-174 396l-307 -396h-56l330 434h74zM119 0l172 1051h61l-174 -1051h-59z" />
    <glyph glyph-name="idieresis.aalt" horiz-adv-x="423" 
d="M135 1410q-12 13 -11.5 32t10 36t26 28.5t37.5 9.5q25 0 39 -17.5t10 -44.5t-24.5 -44t-45.5 -17q-27 0 -41 17zM545 1410q-15 17 -10.5 44t25.5 45q20 17 46.5 17t41.5 -17q14 -18 9.5 -45t-24.5 -44q-21 -17 -47.5 -17t-40.5 17zM352 1051l-174 -1051h-59l172 1051h61z
" />
    <glyph glyph-name="igrave.aalt" horiz-adv-x="423" 
d="M377 1208h-47l-164 416h76zM352 1051l-174 -1051h-59l172 1051h61z" />
    <glyph glyph-name="imacron.aalt" horiz-adv-x="423" 
d="M55 1473h674l-8 -52h-674zM352 1051l-174 -1051h-59l172 1051h61z" />
    <glyph glyph-name="iogonek.aalt" horiz-adv-x="423" 
d="M178 0q-399 -195 -399 -397q0 -109 110 -109q95 0 201 53l8 -55q-114 -55 -209 -55q-170 0 -170 155q0 127 113 237q114 111 289 181l170 1041h61z" />
    <glyph glyph-name="k.aalt" horiz-adv-x="999" 
d="M1030 1051l-463 -389l289 -662h-68l-270 618l-276 -231l-64 -387h-59l172 1051h61l-96 -584l696 584h78z" />
    <glyph glyph-name="l.aalt" horiz-adv-x="798" 
d="M184 55h537l-10 -55h-596l176 1051h59z" />
    <glyph glyph-name="lacute.aalt" horiz-adv-x="798" 
d="M612 1624l-303 -416h-47l275 416h75zM184 55h537l-10 -55h-596l176 1051h59z" />
    <glyph glyph-name="lcaron.aalt" horiz-adv-x="798" 
d="M373 1208h-74l-186 434h55l174 -397l307 397h56zM184 55h537l-10 -55h-596l176 1051h59z" />
    <glyph glyph-name="lslash.aalt" horiz-adv-x="798" 
d="M184 55h537l-10 -55h-596l86 510l-305 -123l-15 43l328 133l82 488h59l-76 -461l340 137l15 -45l-365 -145z" />
    <glyph glyph-name="m.aalt" horiz-adv-x="1370" 
d="M1229 1051h67l-172 -1051h-61l139 831q2 12 4.5 28t6 33t7 32.5t5.5 25.5q-19 -42 -60 -106l-508 -797h-51l-262 842q-5 17 -9 32.5t-7 30.5q-1 -6 -2.5 -16t-3 -21.5t-3 -21.5t-2.5 -16l-141 -877h-57l172 1051h63l291 -920z" />
    <glyph glyph-name="n.aalt" horiz-adv-x="1161" 
d="M1036 1051h56l-177 -1051h-61l-520 961l-158 -961h-57l172 1051h59l524 -965z" />
    <glyph glyph-name="nacute.aalt" horiz-adv-x="1161" 
d="M983 1624l-303 -416h-47l274 416h76zM1036 1051h56l-177 -1051h-61l-520 961l-158 -961h-57l172 1051h59l524 -965z" />
    <glyph glyph-name="ncaron.aalt" horiz-adv-x="1161" 
d="M743 1208h-73l-187 434h56l174 -397l307 397h55zM1036 1051h56l-177 -1051h-61l-520 961l-158 -961h-57l172 1051h59l524 -965z" />
    <glyph glyph-name="nine.oldstyle" horiz-adv-x="1077" 
d="M573 1077q155 0 273 -127q119 -128 119 -391q0 -251 -73 -463q-73 -213 -217 -346q-145 -133 -333 -133q-229 0 -391 172l39 53q60 -75 150 -120.5t198 -45.5q232 0 387 218q154 218 178 595q-67 -128 -194 -208q-128 -80 -285 -80q-151 0 -251 92q-99 92 -99 262
q0 202 139 362t360 160zM438 262q183 0 322 125q137 125 137 256q0 165 -96 271t-236 106q-184 0 -307 -141q-123 -142 -123 -318q0 -142 79.5 -220.5t223.5 -78.5z" />
    <glyph glyph-name="nine.oldstyle.case" horiz-adv-x="1134" 
d="M678 1448q162 0 279 -125q116 -125 116 -393q0 -254 -75 -470q-76 -215 -228 -352t-350 -137q-229 0 -391 172l41 56q60 -75 149 -121.5t197 -46.5q245 0 405 222q160 221 187 607q-68 -130 -195 -209q-128 -80 -285 -80q-153 0 -254 93q-100 91 -100 262q0 202 141 362
q139 160 363 160zM543 633q184 0 321 125t137 256q0 165 -97 271t-238 106q-183 0 -304 -142q-122 -143 -122 -317q0 -142 79.5 -220.5t223.5 -78.5z" />
    <glyph glyph-name="ntilde.aalt" horiz-adv-x="1161" 
d="M588 1559q-110 0 -156 -322h-49q50 375 215 375q27 0 48.5 -11.5t48.5 -46.5q13 -18 21.5 -30t12.5 -17q4 -6 13.5 -22.5t25.5 -42.5q2 -3 6 -9.5t8.5 -14t8.5 -14.5t7 -11q2 -5 5.5 -10.5t8.5 -13.5q9 -15 15.5 -22.5t15.5 -19.5q15 -20 34 -31.5t36 -11.5
q115 0 166 326h49q-52 -379 -223 -379q-38 0 -75 32t-57 63q-11 16 -24 38t-30 51q-16 26 -26.5 44t-17.5 29q-14 22 -38 46q-25 25 -49 25zM874 86l162 965h56l-177 -1051h-61l-520 961l-158 -961h-57l172 1051h59z" />
    <glyph glyph-name="o.aalt" horiz-adv-x="1251" 
d="M524 -29q-169 0 -296 103q-64 51 -103 143t-41 213q-4 269 182 460q185 189 463 189q78 0 153.5 -24t144.5 -75t112 -141t45 -208q1 -168 -75 -316t-231 -246t-354 -98zM532 29q258 0 425 182q167 183 163 412q-1 200 -118 300q-117 99 -281 99q-242 0 -410 -172
q-168 -173 -164 -408q2 -211 111 -312t274 -101z" />
    <glyph glyph-name="oacute.aalt" horiz-adv-x="1251" 
d="M1026 1624l-303 -416h-47l274 416h76zM524 -29q-169 0 -296 103q-64 51 -103 143t-41 213q-4 269 182 460q185 189 463 189q78 0 153.5 -24t144.5 -75t112 -141t45 -208q1 -168 -75 -316t-231 -246t-354 -98zM532 29q258 0 425 182q167 183 163 412q-1 200 -118 300
q-117 99 -281 99q-242 0 -410 -172q-168 -173 -164 -408q2 -211 111 -312t274 -101z" />
    <glyph glyph-name="ocircumflex.aalt" horiz-adv-x="1251" 
d="M827 1604l-307 -396h-55l330 434h73l189 -434h-56zM1184 631q1 -168 -75 -316t-231 -246t-354 -98q-169 0 -296 103q-64 51 -103 143t-41 213q-4 269 182 460q185 189 463 189q78 0 153.5 -24t144.5 -75t112 -141t45 -208zM532 29q258 0 425 182q167 183 163 412
q-1 200 -118 300q-117 99 -281 99q-242 0 -410 -172q-168 -173 -164 -408q2 -211 111 -312t274 -101z" />
    <glyph glyph-name="odieresis.aalt" horiz-adv-x="1251" 
d="M547 1410q-12 13 -11.5 32t10 36t26 28.5t36.5 9.5q25 0 40 -17.5t10 -44.5t-25.5 -44t-44.5 -17q-27 0 -41 17zM957 1410q-15 17 -11 44t25 45q20 17 46.5 17t41.5 -17q14 -18 10 -45t-24 -44q-21 -17 -47.5 -17t-40.5 17zM524 -29q-169 0 -296 103q-64 51 -103 143
t-41 213q-4 269 182 460q185 189 463 189q78 0 153.5 -24t144.5 -75t112 -141t45 -208q1 -168 -75 -316t-231 -246t-354 -98zM532 29q258 0 425 182q167 183 163 412q-1 200 -118 300q-117 99 -281 99q-242 0 -410 -172q-168 -173 -164 -408q2 -211 111 -312t274 -101z" />
    <glyph glyph-name="ograve.aalt" horiz-adv-x="1251" 
d="M788 1208h-47l-163 416h75zM524 -29q-169 0 -296 103q-64 51 -103 143t-41 213q-4 269 182 460q185 189 463 189q78 0 153.5 -24t144.5 -75t112 -141t45 -208q1 -168 -75 -316t-231 -246t-354 -98zM532 29q258 0 425 182q167 183 163 412q-1 200 -118 300
q-117 99 -281 99q-242 0 -410 -172q-168 -173 -164 -408q2 -211 111 -312t274 -101z" />
    <glyph glyph-name="ohungarumlaut.aalt" horiz-adv-x="1251" 
d="M944 1624l-268 -416h-47l239 416h76zM1237 1624l-387 -416h-47l358 416h76zM524 -29q-169 0 -296 103q-64 51 -103 143t-41 213q-4 269 182 460q185 189 463 189q78 0 153.5 -24t144.5 -75t112 -141t45 -208q1 -168 -75 -316t-231 -246t-354 -98zM532 29q258 0 425 182
q167 183 163 412q-1 200 -118 300q-117 99 -281 99q-242 0 -410 -172q-168 -173 -164 -408q2 -211 111 -312t274 -101z" />
    <glyph glyph-name="omacron.aalt" horiz-adv-x="1251" 
d="M467 1473h674l-8 -52h-674zM524 -29q-169 0 -296 103q-64 51 -103 143t-41 213q-4 269 182 460q185 189 463 189q78 0 153.5 -24t144.5 -75t112 -141t45 -208q1 -168 -75 -316t-231 -246t-354 -98zM532 29q258 0 425 182q167 183 163 412q-1 200 -118 300
q-117 99 -281 99q-242 0 -410 -172q-168 -173 -164 -408q2 -211 111 -312t274 -101z" />
    <glyph glyph-name="one.oldstyle" horiz-adv-x="477" 
d="M379 1051l-172 -1051h-60l164 997h-123l9 54h182z" />
    <glyph glyph-name="one.oldstyle.case" horiz-adv-x="534" 
d="M471 1419l-233 -1419h-60l225 1370l-184 -2l8 51h244z" />
    <glyph glyph-name="otilde.aalt" horiz-adv-x="1251" 
d="M631 1559q-110 0 -156 -322h-49q50 375 215 375q27 0 48.5 -11.5t48.5 -46.5q13 -18 21.5 -30t12.5 -17q4 -6 13.5 -22.5t25.5 -42.5q2 -3 6 -9.5t8.5 -14t8.5 -14.5t7 -11q2 -5 5.5 -10.5t8.5 -13.5q9 -15 15.5 -22.5t15.5 -19.5q15 -20 34 -31.5t36 -11.5
q115 0 166 326h49q-52 -379 -223 -379q-38 0 -75 32t-57 63q-11 16 -24 38t-30 51q-16 26 -26.5 44t-17.5 29q-14 22 -38 46q-25 25 -49 25zM524 -29q-169 0 -296 103q-64 51 -103 143t-41 213q-4 269 182 460q185 189 463 189q78 0 153.5 -24t144.5 -75t112 -141t45 -208
q1 -168 -75 -316t-231 -246t-354 -98zM532 29q258 0 425 182q167 183 163 412q-1 200 -118 300q-117 99 -281 99q-242 0 -410 -172q-168 -173 -164 -408q2 -211 111 -312t274 -101z" />
    <glyph glyph-name="p.aalt" horiz-adv-x="999" 
d="M696 1051q153 0 232.5 -67.5t79.5 -192.5q0 -172 -113 -273q-112 -102 -328 -102h-323l-70 -416h-59l176 1051h405zM575 469q181 0 276 89q93 89 93 228q0 103 -67.5 157t-188.5 54h-346l-90 -528h323z" />
    <glyph glyph-name="q.aalt" horiz-adv-x="1249" 
d="M524 -29q-169 0 -296 103q-64 51 -103 143t-41 213q-4 269 182 460q185 189 463 189q78 0 153.5 -24t144.5 -75t112 -141t45 -208q1 -168 -75 -316t-231 -246t-354 -98zM532 29q258 0 425 182q167 183 163 412q-1 200 -118 300q-117 99 -281 99q-242 0 -410 -172
q-168 -173 -164 -408q2 -211 111 -312t274 -101zM1024 -207l-571 6l8 49l571 -6z" />
    <glyph glyph-name="r.aalt" horiz-adv-x="1052" 
d="M1012 821q0 -157 -107 -240q-109 -83 -274 -98l262 -483h-72l-258 481h-307l-80 -481h-59l174 1051h424q142 0 219.5 -59t77.5 -171zM580 535q170 0 268 77t98 201q0 93 -64 138.5t-175 45.5h-363l-78 -462h314z" />
    <glyph glyph-name="racute.aalt" horiz-adv-x="1052" 
d="M952 1624l-303 -416h-47l275 416h75zM1012 821q0 -157 -107 -240q-109 -83 -274 -98l262 -483h-72l-258 481h-307l-80 -481h-59l174 1051h424q142 0 219.5 -59t77.5 -171zM580 535q170 0 268 77t98 201q0 93 -64 138.5t-175 45.5h-363l-78 -462h314z" />
    <glyph glyph-name="rcaron.aalt" horiz-adv-x="1052" 
d="M713 1208h-74l-186 434h55l174 -397l307 397h55zM715 1051q142 0 219.5 -59t77.5 -171q0 -157 -107 -240q-109 -83 -274 -98l262 -483h-72l-258 481h-307l-80 -481h-59l174 1051h424zM580 535q170 0 268 77t98 201q0 93 -64 138.5t-175 45.5h-363l-78 -462h314z" />
    <glyph glyph-name="s.aalt" horiz-adv-x="876" 
d="M375 -20q-201 0 -359 129l25 61q136 -133 340 -133q142 0 233 69q91 67 88 175q0 49 -18 87t-61 66q-22 14 -41.5 25t-36.5 19q-33 16 -107 42q-64 23 -112 50.5t-81 58.5q-68 62 -69 170q-2 119 96 197q98 77 269 77q177 0 319 -92l-33 -51q-131 86 -290 86
q-132 0 -217 -56q-83 -57 -82 -151q2 -92 58 -142q56 -51 169 -92q37 -14 65 -25t48 -19q38 -16 90 -51q51 -34 74.5 -81t23.5 -110q2 -144 -109 -226q-113 -83 -282 -83z" />
    <glyph glyph-name="sacute.aalt" horiz-adv-x="876" 
d="M846 1624l-303 -416h-47l274 416h76zM375 -20q-201 0 -359 129l25 61q136 -133 340 -133q142 0 233 69q91 67 88 175q0 49 -18 87t-61 66q-22 14 -41.5 25t-36.5 19q-33 16 -107 42q-64 23 -112 50.5t-81 58.5q-68 62 -69 170q-2 119 96 197q98 77 269 77q177 0 319 -92
l-33 -51q-131 86 -290 86q-132 0 -217 -56q-83 -57 -82 -151q2 -92 58 -142q56 -51 169 -92q37 -14 65 -25t48 -19q38 -16 90 -51q51 -34 74.5 -81t23.5 -110q2 -144 -109 -226q-113 -83 -282 -83z" />
    <glyph glyph-name="scaron.aalt" horiz-adv-x="876" 
d="M606 1208h-74l-186 434h55l174 -397l308 397h55zM176 799q-2 119 96 197q98 77 269 77q177 0 319 -92l-33 -51q-131 86 -290 86q-132 0 -217 -56q-83 -57 -82 -151q2 -92 58 -142q56 -51 169 -92q37 -14 65 -25t48 -19q38 -16 90 -51q51 -34 74.5 -81t23.5 -110
q2 -144 -109 -226q-113 -83 -282 -83q-201 0 -359 129l25 61q136 -133 340 -133q142 0 233 69q91 67 88 175q0 49 -18 87t-61 66q-22 14 -41.5 25t-36.5 19q-33 16 -107 42q-64 23 -112 50.5t-81 58.5q-68 62 -69 170z" />
    <glyph glyph-name="seven.oldstyle" horiz-adv-x="882" 
d="M106 1051h791l-584 -1401h-69l573 1347h-719z" />
    <glyph glyph-name="seven.oldstyle.case" horiz-adv-x="905" 
d="M164 1419h790l-665 -1419h-70l653 1366h-716z" />
    <glyph glyph-name="six.oldstyle" horiz-adv-x="1087" 
d="M776 1395q-235 0 -408 -243q-173 -244 -188 -611q52 139 181 231q128 92 288 92q154 0 264 -92q109 -91 109 -293q0 -222 -136 -364q-136 -144 -372 -144q-163 0 -276 122t-113 388q0 401 186 684q184 283 467 283q173 0 328 -113l-37 -45q-133 105 -293 105zM637 805
q-174 0 -308 -128t-134 -298q0 -146 88 -247q88 -103 239 -103q196 0 317 124q122 124 122 328q0 170 -95 247q-97 77 -229 77z" />
    <glyph glyph-name="six.oldstyle.case" horiz-adv-x="1155" 
d="M817 1448q197 0 330 -133l-39 -47q-123 127 -293 127q-246 0 -428 -236q-183 -238 -199 -598q61 133 194 218q131 85 302 85q69 0 132 -19.5t120 -62.5t91 -120t34 -183q0 -219 -146 -363q-146 -145 -383 -145q-174 0 -292 121q-119 122 -119 389q0 263 87 483
q86 219 248 352q161 132 361 132zM672 805q-189 0 -331 -128q-142 -127 -142 -298q0 -154 91 -251t251 -97q191 0 322 124q132 125 132 316q0 180 -95 257t-228 77z" />
    <glyph glyph-name="t.aalt" horiz-adv-x="880" 
d="M930 1051l-8 -54h-367l-164 -997h-59l164 997h-365l8 54h791z" />
    <glyph glyph-name="tcaron.aalt" horiz-adv-x="880" 
d="M588 1208h-74l-186 434h55l174 -397l307 397h56zM930 1051l-8 -54h-367l-164 -997h-59l164 997h-365l8 54h791z" />
    <glyph glyph-name="three.oldstyle" horiz-adv-x="940" 
d="M500 362q129 -19 216 -105q87 -85 87 -224q0 -194 -143 -313q-144 -117 -361 -117q-109 0 -220 47q-110 47 -188 123l35 47q161 -160 383 -160q175 0 303 100q129 100 129 269q0 151 -107 228q-108 75 -263 75h-90l12 61h88q155 0 295 109q141 108 141 276q0 121 -74 184
q-76 62 -192 62q-243 0 -445 -170l-26 45q218 180 481 180q126 0 223 -68q95 -69 95 -227q0 -167 -116 -277q-117 -111 -263 -145z" />
    <glyph glyph-name="three.oldstyle.case" horiz-adv-x="991" 
d="M575 731q128 -19 217 -105q87 -85 87 -225q0 -195 -138 -312q-139 -118 -346 -118q-110 0 -220 48q-55 23 -101.5 54.5t-85.5 69.5l35 47q164 -162 383 -161q167 0 289 100q122 101 122 268q0 151 -107 228q-108 75 -264 75h-90l13 62h88q155 0 295 109q141 108 141 276
q0 121 -75 184q-76 62 -191 62q-243 0 -445 -170l-26 45q218 180 481 180q127 0 222 -68q95 -69 95 -227q0 -167 -116 -277q-117 -111 -263 -145z" />
    <glyph glyph-name="tildecomb.aalt" 
d="M-412 1444q-59 0 -95 -76t-60 -246h-49q49 375 215 375q47 0 92 -51q44 -50 73 -112q28 -61 71 -113q42 -52 85 -52q109 0 160 326h49q-51 -379 -223 -379q-51 0 -99 52q-48 53 -77 112q-14 31 -31 59t-37 54q-39 51 -74 51z" />
    <glyph glyph-name="two.oldstyle" horiz-adv-x="911" 
d="M119 51h710l-10 -51h-801l9 51q189 97 313 173q63 38 120 78.5t109 83.5q104 85 151.5 172.5t47.5 184.5q0 279 -283 279q-213 0 -383 -170l-26 45q185 182 420 182q76 0 137.5 -21t104.5 -63t66 -104.5t23 -145.5q0 -202 -182 -366q-183 -165 -526 -328z" />
    <glyph glyph-name="two.oldstyle.case" horiz-adv-x="1013" 
d="M512 387l-385 -336h791l-11 -51h-862l8 51l420 373q214 191 325 347q111 158 111 337q0 145 -74.5 214t-205.5 69q-205 0 -426 -170l-27 45q233 182 463 182q143 0 237 -84q93 -84 93 -254q0 -194 -122 -366q-121 -170 -335 -357z" />
    <glyph glyph-name="u.aalt" horiz-adv-x="1128" 
d="M479 -20q-199 0 -280 131q-82 130 -49 323l100 617h59l-100 -619q-27 -170 40 -282q66 -113 238 -113q82 0 151 26t122 76.5t89 123t52 165.5l107 623h59l-104 -621q-18 -111 -60 -195t-104 -140.5t-143 -85.5t-177 -29z" />
    <glyph glyph-name="uacute.aalt" horiz-adv-x="1128" 
d="M950 1624l-303 -416h-47l274 416h76zM479 -20q-199 0 -280 131q-82 130 -49 323l100 617h59l-100 -619q-27 -170 40 -282q66 -113 238 -113q82 0 151 26t122 76.5t89 123t52 165.5l107 623h59l-104 -621q-18 -111 -60 -195t-104 -140.5t-143 -85.5t-177 -29z" />
    <glyph glyph-name="ucircumflex.aalt" horiz-adv-x="1128" 
d="M752 1604l-308 -396h-55l330 434h74l188 -434h-55zM1008 1051h59l-104 -621q-18 -111 -60 -195t-104 -140.5t-143 -85.5t-177 -29q-199 0 -280 131q-82 130 -49 323l100 617h59l-100 -619q-27 -170 40 -282q66 -113 238 -113q82 0 151 26t122 76.5t89 123t52 165.5z" />
    <glyph glyph-name="udieresis.aalt" horiz-adv-x="1128" 
d="M471 1410q-12 13 -11 32t10 36t25.5 28.5t36.5 9.5q25 0 39.5 -17.5t10.5 -44.5t-24.5 -44t-45.5 -17q-27 0 -41 17zM881 1410q-15 17 -11 44t25 45q20 17 47 17t41 -17q14 -18 10 -45t-24 -44q-21 -17 -47.5 -17t-40.5 17zM479 -20q-199 0 -280 131q-82 130 -49 323
l100 617h59l-100 -619q-27 -170 40 -282q66 -113 238 -113q82 0 151 26t122 76.5t89 123t52 165.5l107 623h59l-104 -621q-18 -111 -60 -195t-104 -140.5t-143 -85.5t-177 -29z" />
    <glyph glyph-name="ugrave.aalt" horiz-adv-x="1128" 
d="M713 1208h-47l-164 416h76zM479 -20q-199 0 -280 131q-82 130 -49 323l100 617h59l-100 -619q-27 -170 40 -282q66 -113 238 -113q82 0 151 26t122 76.5t89 123t52 165.5l107 623h59l-104 -621q-18 -111 -60 -195t-104 -140.5t-143 -85.5t-177 -29z" />
    <glyph glyph-name="uhungarumlaut.aalt" horiz-adv-x="1128" 
d="M868 1624l-268 -416h-47l240 416h75zM1161 1624l-387 -416h-47l358 416h76zM479 -20q-199 0 -280 131q-82 130 -49 323l100 617h59l-100 -619q-27 -170 40 -282q66 -113 238 -113q82 0 151 26t122 76.5t89 123t52 165.5l107 623h59l-104 -621q-18 -111 -60 -195
t-104 -140.5t-143 -85.5t-177 -29z" />
    <glyph glyph-name="umacron.aalt" horiz-adv-x="1128" 
d="M391 1473h674l-8 -52h-674zM479 -20q-199 0 -280 131q-82 130 -49 323l100 617h59l-100 -619q-27 -170 40 -282q66 -113 238 -113q82 0 151 26t122 76.5t89 123t52 165.5l107 623h59l-104 -621q-18 -111 -60 -195t-104 -140.5t-143 -85.5t-177 -29z" />
    <glyph glyph-name="uni0122.salt" horiz-adv-x="1382" 
d="M774 696l8 56h578l-8 -52q-57 -356 -254 -542q-196 -187 -488 -187q-216 0 -358 151q-143 151 -143 433q0 245 94 445q95 200 283 324q187 124 438 124q126 0 251 -43q127 -44 205 -115l-41 -49q-169 150 -424 150q-177 0 -323 -72t-236 -189q-91 -118 -138.5 -262
t-47.5 -299q0 -264 127 -400t321 -136q265 0 447 178q182 179 221 485h-512zM641 -100q109 0 80 -164q-39 -217 -238 -301l-20 45q176 71 207 266q-25 -25 -66 -25q-33 0 -52.5 22.5t-10.5 63.5q8 41 36.5 67t63.5 26z" />
    <glyph glyph-name="uni0122.swash" horiz-adv-x="1345" 
d="M1266 829h-64q33 113 33 222q0 80 -19.5 143t-59.5 107t-101.5 67t-145.5 23q-215 0 -389 -123t-266 -314q-92 -193 -92 -403q0 -249 127 -385q128 -137 368 -137q244 0 467 139l64 387h59l-82 -508q-67 -423 -379 -545l-14 60q118 45 209 162q92 119 125 325l8 45
q-232 -123 -471 -123q-266 0 -405 148q-140 148 -140 416q0 381 233 647t587 266q379 0 378 -385q2 -111 -30 -234zM580 -141q109 0 79 -164q-39 -217 -237 -301l-21 45q176 71 207 266q-25 -25 -65 -24q-33 0 -52.5 22t-11.5 63t37 67t64 26z" />
    <glyph glyph-name="uni0123.aalt" horiz-adv-x="1159" 
d="M723 1016q-250 0 -415 -169q-165 -170 -161 -419q1 -202 122 -297q119 -94 304 -94t342 53l68 420h-373l6 51h437l-84 -518q-190 -63 -406 -63q-131 0 -233 41t-173 144q-72 105 -73 263q-5 270 177 458q181 187 472 187q100 0 202 -33q51 -17 94 -40t79 -52l-43 -47
q-142 115 -342 115zM567 -100q109 0 80 -164q-39 -217 -237 -301l-21 45q176 71 207 266q-25 -25 -66 -25q-33 0 -52 22.5t-11 63.5t36.5 67t63.5 26z" />
    <glyph glyph-name="uni0136.swash" horiz-adv-x="1650" 
d="M1729 1419l-594 -524l358 -895h-66l-340 854l-356 -313l-88 -541h-59l225 1368h-72q-299 0 -451 -126q-153 -126 -153 -345q0 -140 92.5 -211.5t263.5 -71.5l-6 -55q-203 0 -304 96q-101 95 -101 240q0 223 156 374q154 150 485 150h158l-132 -801l904 801h80zM975 -100
q109 0 80 -164q-39 -217 -238 -301l-20 45q176 71 207 266q-25 -25 -66 -25q-33 0 -52.5 22.5t-10.5 63.5q8 41 36.5 67t63.5 26z" />
    <glyph glyph-name="uni0137.aalt" horiz-adv-x="999" 
d="M1030 1051l-463 -389l289 -662h-68l-270 618l-276 -231l-64 -387h-59l172 1051h61l-96 -584l696 584h78zM434 -100q109 0 80 -164q-39 -217 -238 -301l-20 45q176 71 207 266q-25 -25 -66 -25q-33 0 -52 22.5t-11 63.5t36.5 67t63.5 26z" />
    <glyph glyph-name="uni013B.swash" horiz-adv-x="1472" 
d="M715 53h680l-11 -53h-739l229 1368h-137q-299 0 -451 -126q-153 -126 -153 -345q0 -140 92.5 -211.5t263.5 -71.5l-12 -55q-201 0 -300 96q-99 95 -99 240q0 223 156 374q154 150 485 150h223zM983 -100q109 0 80 -164q-39 -217 -238 -301l-20 45q176 71 207 266
q-25 -25 -66 -25q-33 0 -52.5 22.5t-10.5 63.5q8 41 36.5 67t63.5 26z" />
    <glyph glyph-name="uni013C.aalt" horiz-adv-x="798" 
d="M184 55h537l-10 -55h-596l176 1051h59zM414 -100q109 0 80 -164q-39 -217 -238 -301l-20 45q176 71 206 266q-25 -25 -65 -25q-33 0 -52.5 22.5t-10.5 63.5q8 41 36.5 67t63.5 26z" />
    <glyph glyph-name="uni0145.swash" horiz-adv-x="1843" 
d="M1739 1419h55l-238 -1419h-63l-651 1325l-217 -1325h-58l226 1368h-72q-299 0 -451 -126q-153 -126 -153 -345q0 -140 92.5 -211.5t263.5 -71.5l-12 -55q-198 1 -299 98q-101 95 -101 238q0 223 156 374q156 150 485 150h158l656 -1331zM1044 -100q109 0 80 -164
q-39 -217 -237 -301l-21 45q176 71 207 266q-25 -25 -65 -25q-33 0 -52.5 22.5t-11.5 63.5t36.5 67t63.5 26z" />
    <glyph glyph-name="uni0146.aalt" horiz-adv-x="1161" 
d="M1036 1051h56l-177 -1051h-61l-520 961l-158 -961h-57l172 1051h59l524 -965zM500 -100q109 0 80 -164q-39 -217 -238 -301l-20 45q176 71 206 266q-25 -25 -65 -25q-33 0 -52.5 22.5t-10.5 63.5q8 41 36.5 67t63.5 26z" />
    <glyph glyph-name="uni0156.swash" horiz-adv-x="1677" 
d="M1679 1122q0 -221 -138 -332q-138 -112 -353 -126l328 -664h-72l-324 662h-395l-111 -662h-59l227 1368h-24q-310 0 -468 -125q-157 -124 -157 -346q0 -140 92.5 -211.5t263.5 -71.5l-10 -55q-200 0 -301 96q-100 94 -100 240q0 225 159 375q158 149 502 149h578
q172 0 267 -77t95 -220zM1139 715q222 0 349 111q128 110 128 288q0 63 -21 110.5t-61 79t-96 47t-127 15.5h-469l-109 -651h406zM995 -100q109 0 80 -164q-39 -217 -237 -301l-21 45q176 71 207 266q-25 -25 -66 -25q-33 0 -52 22.5t-11 63.5t36.5 67t63.5 26z" />
    <glyph glyph-name="uni0157.aalt" horiz-adv-x="1052" 
d="M1012 821q0 -157 -107 -240q-109 -83 -274 -98l262 -483h-72l-258 481h-307l-80 -481h-59l174 1051h424q142 0 219.5 -59t77.5 -171zM580 535q170 0 268 77t98 201q0 93 -64 138.5t-175 45.5h-363l-78 -462h314zM469 -100q109 0 80 -164q-39 -217 -238 -301l-20 45
q176 71 207 266q-25 -25 -66 -25q-33 0 -52.5 22.5t-10.5 63.5q8 41 36.5 67t63.5 26z" />
    <glyph glyph-name="uni0162.c2sc" horiz-adv-x="880" 
d="M922 997h-367l-162 -983h29l-146 -235q71 33 134 33q167 0 165 -158q0 -111 -82 -177q-83 -65 -200 -65q-110 0 -211 56l27 49q85 -50 184 -52q94 0 159 53q64 54 64 136q0 48 -29.5 76t-87.5 28q-92 0 -159 -55l-50 25l160 272h-18l164 997h-365l8 54h791z" />
    <glyph glyph-name="uni0162.swash" horiz-adv-x="1314" 
d="M1432 1368h-439l-211 -1348l-2 -2l-2 -18h-8l-135 -219q77 43 166 43q72 0 116 -39t44 -111q0 -117 -85 -187q-85 -69 -217 -69q-140 0 -213 70l33 51q64 -68 189 -67q105 0 170 52q65 53 65 138q0 49 -28.5 79t-83.5 30q-111 0 -185 -62l-49 25l164 280l213 1354h-256
q-299 0 -451 -126q-153 -126 -153 -345q0 -140 92.5 -211.5t263.5 -71.5l-8 -55q-201 0 -302 96q-102 95 -102 240q0 105 35 195t107 166q72 75 199 119t300 44h773v-51z" />
    <glyph glyph-name="uni01CD.swash" horiz-adv-x="1568" 
d="M1200 1579h-74l-184 434h55l172 -397l310 397h55zM1153 1419l283 -1419h-64l-88 451h-659l-242 -451h-66l740 1368h-246q-266 0 -425 -105q-159 -106 -159 -286q0 -255 260 -266l-24 -49q-144 4 -218 90q-73 85 -73 221q0 209 173 328q172 118 456 118h352zM653 504h621
l-166 842z" />
    <glyph glyph-name="uni01CE.aalt" horiz-adv-x="983" 
d="M635 1208h-74l-186 434h55l174 -397l307 397h56zM553 1051h70l237 -1051h-65l-72 324h-516l-182 -324h-66zM236 377h475l-133 608z" />
    <glyph glyph-name="uni01CF.swash" horiz-adv-x="860" 
d="M1120 2013h56l-334 -434h-74l-184 434h55l172 -397zM807 1419l-234 -1419h-59l225 1368h-43q-299 0 -451 -126q-153 -126 -153 -345q0 -140 93 -211.5t264 -71.5v-55q-204 0 -308 96q-104 95 -104 240q0 223 156 374q154 150 485 150h129z" />
    <glyph glyph-name="uni01D0.aalt" horiz-adv-x="423" 
d="M651 1642h56l-332 -434h-74l-186 434h55l174 -397zM119 0l172 1051h61l-174 -1051h-59z" />
    <glyph glyph-name="uni01D1.swash" horiz-adv-x="1503" 
d="M969 1579h-74l-184 434h55l172 -397l309 397h56zM1280 1083q176 -102 176 -350q0 -327 -220 -544q-221 -218 -566 -218q-258 0 -413 153q-155 152 -155 411q0 390 227 652q227 261 574 261q134 0 217 -70q84 -70 84 -194q0 -187 -160 -302q-161 -116 -370 -116l8 51
q181 0 324 100q143 99 143 263q0 98 -68 157q-68 58 -180 58q-322 0 -528 -243q-207 -243 -207 -601q0 -238 142 -380q141 -142 372 -142q304 0 509 201q206 200 206 491q0 233 -146 311z" />
    <glyph glyph-name="uni01D2.aalt" horiz-adv-x="1251" 
d="M786 1208h-73l-187 434h56l174 -397l307 397h55zM1184 631q1 -168 -75 -316t-231 -246t-354 -98q-169 0 -296 103q-64 51 -103 143t-41 213q-4 269 182 460q185 189 463 189q78 0 153.5 -24t144.5 -75t112 -141t45 -208zM532 29q258 0 425 182q167 183 163 412
q-1 200 -118 300q-117 99 -281 99q-242 0 -410 -172q-168 -173 -164 -408q2 -211 111 -312t274 -101z" />
    <glyph glyph-name="uni01D3.swash" horiz-adv-x="1859" 
d="M1372 1579h-74l-184 434h55l172 -397l310 397h55zM1774 1419h59l-141 -839q-49 -297 -210 -453q-160 -156 -399 -156q-169 0 -269 91q-100 90 -129 224q-28 133 -1 298l127 784h-104q-276 0 -420 -101.5t-144 -287.5q0 -152 95 -238t262 -86l-13 -55q-198 0 -299 111
q-100 109 -100 266q0 193 146 318q145 124 454 124h191l-136 -835q-23 -109 -10.5 -208t48.5 -176t117 -123t196 -46q209 0 351 144q142 143 187 405z" />
    <glyph glyph-name="uni01D4.aalt" horiz-adv-x="1128" 
d="M711 1208h-74l-186 434h55l174 -397l307 397h55zM1008 1051h59l-104 -621q-18 -111 -60 -195t-104 -140.5t-143 -85.5t-177 -29q-199 0 -280 131q-82 130 -49 323l100 617h59l-100 -619q-27 -170 40 -282q66 -113 238 -113q82 0 151 26t122 76.5t89 123t52 165.5z" />
    <glyph glyph-name="uni0218.swash" horiz-adv-x="978" 
d="M676 1448q148 0 227.5 -76.5t79.5 -218.5q0 -86 -41 -215h-57q35 113 35 215q0 242 -250 242q-170 0 -277 -108q-108 -109 -108 -269q0 -131 75 -224q37 -48 92 -96.5t128 -99.5q31 -22 55 -40t43 -33q19 -16 39.5 -35.5t43.5 -43.5q46 -49 67.5 -106t21.5 -123
q0 -137 -97 -210t-264 -73q-289 0 -493 281l43 39q175 -262 461 -262q128 0 207 57t79 168q0 100 -58 170q-29 35 -73 72.5t-104 79.5q-162 113 -245 218q-83 106 -83 251q0 188 128 314t325 126zM422 -100q109 0 80 -164q-39 -217 -238 -301l-20 45q176 71 207 266
q-25 -25 -66 -25q-33 0 -52.5 22.5t-10.5 63.5q8 41 36.5 67t63.5 26z" />
    <glyph glyph-name="uni0219.aalt" horiz-adv-x="876" 
d="M537 1016q-132 0 -217 -56q-83 -57 -82 -151q2 -92 58 -142q56 -51 169 -92q37 -14 65 -25t48 -19q38 -16 90 -51q51 -34 74.5 -81t23.5 -110q2 -144 -109 -226q-113 -83 -282 -83q-201 0 -359 129l25 61q136 -133 340 -133q142 0 233 69q91 67 88 175q0 49 -18 87
t-61 66q-22 14 -41.5 25t-36.5 19q-33 16 -107 42q-64 23 -112 50.5t-81 58.5q-68 62 -69 170q-2 119 96 197q98 77 269 77q177 0 319 -92l-33 -51q-131 86 -290 86zM377 -100q109 0 80 -164q-39 -217 -238 -301l-20 45q176 71 207 266q-25 -25 -66 -25q-33 0 -52.5 22.5
t-10.5 63.5q8 41 36.5 67t63.5 26z" />
    <glyph glyph-name="uni021A.swash" horiz-adv-x="1314" 
d="M1432 1419v-51h-439l-215 -1368h-59l215 1368h-256q-299 0 -451 -126q-153 -126 -153 -345q0 -140 92.5 -211.5t263.5 -71.5l-8 -55q-201 0 -302 96q-102 95 -102 240q0 105 35 195t107 166q72 75 199 119t300 44h773zM733 -100q109 0 80 -164q-39 -217 -238 -301l-20 45
q176 71 207 266q-25 -25 -66 -25q-33 0 -52 22.5t-11 63.5t36.5 67t63.5 26z" />
    <glyph glyph-name="uni021B.aalt" horiz-adv-x="880" 
d="M930 1051l-8 -54h-367l-164 -997h-59l164 997h-365l8 54h791zM344 -100q109 0 80 -164q-39 -217 -238 -301l-20 45q176 71 207 266q-25 -25 -66 -25q-33 0 -52 22.5t-11 63.5t36.5 67t63.5 26z" />
    <glyph glyph-name="uni0302.aalt" 
d="M82 1122h-55l-174 396l-308 -396h-55l332 434h74z" />
    <glyph glyph-name="uni0304.aalt" 
d="M-578 1300l9 52h673l-8 -52h-674z" />
    <glyph glyph-name="uni0306.aalt" 
d="M-483 1522h51q-33 -147 13 -235q47 -89 190 -89q272 0 309 324h51q-10 -90 -40.5 -159.5t-77.5 -117t-110 -72t-139 -24.5q-151 0 -220 98q-67 97 -27 275z" />
    <glyph glyph-name="uni0307.aalt" 
d="M-31 1212q-13 15 -13 36.5t10 41t29 32.5t44 11q31 0 47 -20.5t12 -50.5q-4 -29 -28.5 -49.5t-53.5 -20.5q-30 0 -47 20z" />
    <glyph glyph-name="uni0308.aalt" 
d="M-324 1192q-29 0 -43 18.5t-10 47.5t25.5 47t50.5 18q27 0 41 -18.5t10 -47.5q-4 -27 -25.5 -46t-48.5 -19zM27 1192q-31 0 -45.5 18.5t-10.5 47.5t25.5 47t50.5 18t44 -18t11 -47t-26 -47.5t-49 -18.5z" />
    <glyph glyph-name="uni030A.aalt" 
d="M-334 1335q17 97 88 158t166 61q93 0 146 -62q51 -62 35 -156t-86 -156q-71 -62 -169 -62q-96 0 -146 62t-34 155zM43 1335q12 78 -24.5 122t-108.5 44q-35 0 -65.5 -12t-55 -34t-41.5 -52.5t-24 -67.5q-14 -76 23 -118.5t109 -42.5t123.5 42.5t63.5 118.5z" />
    <glyph glyph-name="uni030B.aalt" 
d="M-158 1538l-268 -416h-47l240 416h75zM193 1538l-388 -416h-51l363 416h76z" />
    <glyph glyph-name="uni030C.aalt" 
d="M84 1565h55l-334 -435h-73l-185 435h56l172 -398z" />
    <glyph glyph-name="uni0326.aalt" 
d="M-309 -100q109 0 80 -164q-39 -217 -238 -301l-20 45q176 71 206 266q-25 -25 -65 -25q-33 0 -52.5 22.5t-11.5 63.5q9 41 37.5 67t63.5 26z" />
    <glyph glyph-name="uni0327.aalt" 
d="M-332 -131q72 0 116 -39t44 -111q0 -117 -85 -187q-86 -69 -216 -69q-140 0 -213 70l33 51q64 -68 188 -67q105 0 170 52q66 52 66 138q0 49 -29 79t-84 30q-110 0 -184 -62l-49 25l167 287h58l-148 -240q77 43 166 43z" />
    <glyph glyph-name="uni0328.aalt" 
d="M-412 -537q-82 0 -122.5 42t-40.5 114q0 154 125 274t319 185l16 -31q-399 -180 -399 -416q0 -54 28.5 -82t77.5 -28q111 0 199 61l8 -55q-104 -64 -211 -64z" />
    <glyph glyph-name="uogonek.aalt" horiz-adv-x="1128" 
d="M1008 1051h59l-104 -621q-55 -323 -297 -418q-399 -195 -400 -397q0 -109 111 -109q96 0 201 54l8 -56q-114 -55 -209 -55q-170 0 -170 156q0 213 311 377q-6 -1 -15.5 -1.5t-23.5 -0.5q-199 0 -280 131q-82 130 -49 323l100 617h59l-100 -619q-27 -170 40 -282
q66 -113 238 -113q82 0 151 26t122 76.5t89 123t52 165.5z" />
    <glyph glyph-name="uring.aalt" horiz-adv-x="1128" 
d="M688 1284q-81 0 -127.5 48t-46.5 126q0 117 75 190q75 72 183 72q85 0 134.5 -48.5t49.5 -129.5q0 -110 -75 -184q-77 -74 -193 -74zM698 1339q76 0 138 56q61 55 61 141q0 63 -36 97t-99 34q-80 0 -135 -58q-56 -59 -56 -145q0 -60 35 -92.5t92 -32.5zM479 -20
q-199 0 -280 131q-82 130 -49 323l100 617h59l-100 -619q-27 -170 40 -282q66 -113 238 -113q82 0 151 26t122 76.5t89 123t52 165.5l107 623h59l-104 -621q-18 -111 -60 -195t-104 -140.5t-143 -85.5t-177 -29z" />
    <glyph glyph-name="v.aalt" horiz-adv-x="1056" 
d="M1020 1051h65l-606 -1051h-73l-234 1051h64l186 -846q9 -37 16.5 -74t12.5 -74q14 29 36.5 70.5t51.5 95.5z" />
    <glyph glyph-name="w.salt" horiz-adv-x="1292" 
d="M1354 965l65 -2l-475 -967l-63 2l-154 545l-342 -539h-63l-140 975l62 -2l127 -901l338 532l-103 365h60l84 -299l188 295h59l-229 -361l154 -542z" />
    <glyph glyph-name="wacute.aalt" horiz-adv-x="1536" 
d="M1169 1624l-303 -416h-47l275 416h75zM1477 1051h63l-463 -1051h-73l-117 788l-21 181q-42 -88 -62.5 -133.5t-21.5 -47.5l-405 -788h-74l-86 1051h64l65 -881q0 -11 3 -46q2 -17 3 -30t2 -22q3 9 9 21.5t12.5 26t12.5 25.5t9 19l445 872h71l129 -856q5 -29 8 -53.5
t5 -44.5l41 100z" />
    <glyph glyph-name="wcircumflex.aalt" horiz-adv-x="1536" 
d="M971 1604l-307 -396h-56l330 434h74l188 -434h-55zM1477 1051h63l-463 -1051h-73l-117 788l-21 181q-42 -88 -62.5 -133.5t-21.5 -47.5l-405 -788h-74l-86 1051h64l65 -881q0 -11 3 -46q2 -17 3 -30t2 -22q3 9 9 21.5t12.5 26t12.5 25.5t9 19l445 872h71l129 -856
q5 -29 8 -53.5t5 -44.5l41 100z" />
    <glyph glyph-name="wdieresis.aalt" horiz-adv-x="1536" 
d="M731 1393q-27 0 -41 17t-10 44t24.5 44.5t47.5 17.5q25 0 39 -17.5t10 -44.5t-24.5 -44t-45.5 -17zM1188 1410q-21 -17 -47.5 -17t-40.5 17q-15 17 -10.5 44t25.5 45q20 17 46.5 17t41.5 -17q14 -18 9.5 -45t-24.5 -44zM1477 1051h63l-463 -1051h-73l-117 788l-21 181
q-42 -88 -62.5 -133.5t-21.5 -47.5l-405 -788h-74l-86 1051h64l65 -881q0 -11 3 -46q2 -17 3 -30t2 -22q3 9 9 21.5t12.5 26t12.5 25.5t9 19l445 872h71l129 -856q5 -29 8 -53.5t5 -44.5l41 100z" />
    <glyph glyph-name="wgrave.aalt" horiz-adv-x="1536" 
d="M932 1208h-47l-164 416h76zM1477 1051h63l-463 -1051h-73l-117 788l-21 181q-42 -88 -62.5 -133.5t-21.5 -47.5l-405 -788h-74l-86 1051h64l65 -881q0 -11 3 -46q2 -17 3 -30t2 -22q3 9 9 21.5t12.5 26t12.5 25.5t9 19l445 872h71l129 -856q5 -29 8 -53.5t5 -44.5l41 100
z" />
    <glyph glyph-name="x.aalt" horiz-adv-x="962" 
d="M967 1051l-443 -504l303 -547h-69l-283 512l-424 -512h-76l463 553l-291 498h68l270 -463l408 463h74z" />
    </font>
</defs>
</svg>
