<?xml version="1.0" standalone="no"?>
<!DOCTYPE svg PUBLIC "-//W3C//DTD SVG 1.1//EN" "http://www.w3.org/Graphics/SVG/1.1/DTD/svg11.dtd" >
<svg xmlns="http://www.w3.org/2000/svg" xmlns:xlink="http://www.w3.org/1999/xlink" version="1.1">
<metadata>
Created by FontForge 20230101 at Mon Feb 10 11:37:45 2020
 By Pablo Velazquez
Created by Fabian De Smet
</metadata>
<defs>
<font id="ButlerStencil-Bold" horiz-adv-x="278" >
  <font-face 
    font-family="Butler Stencil"
    font-weight="700"
    font-stretch="normal"
    units-per-em="1000"
    panose-1="2 0 5 3 9 0 0 2 0 3"
    ascent="735"
    descent="-265"
    x-height="462"
    cap-height="704"
    bbox="-146 -319 1107 986"
    underline-thickness="50"
    underline-position="-100"
    unicode-range="U+0020-FB02"
  />
<missing-glyph horiz-adv-x="507" 
d="M-1 704h508v-704h-508v704zM223 352l-174 268v-535zM86 654l167 -256l167 256h-334zM253 307l-167 -257h334zM283 352l174 -267v535z" />
    <glyph glyph-name="f_i" unicode="fi" horiz-adv-x="591" 
d="M512 113q0 -48 8 -73.5t33 -31.5v-8h-205v8q26 7 32.5 32t6.5 73v250q0 31 -12.5 56.5t-37.5 25.5h-129v-332q0 -47 8.5 -72.5t32.5 -32.5v-8h-205v8q26 8 33 33t7 72v332h-64l-2 17h66v23q0 134 60.5 194.5t186.5 64.5v-17q-20 -2 -37.5 -11t-39 -30t-34 -66t-12.5 -109
v-49h130h174v-349zM411 698q15 3 1 14t-40 14v18q44 -4 77 -23t45 -39q24 -44 5 -83q-13 -27 -41.5 -36.5t-55.5 3.5q-27 14 -36.5 42t3.5 55q14 27 42 35z" />
    <glyph glyph-name="f_l" unicode="fl" horiz-adv-x="573" 
d="M520 113q0 -46 8 -68t33 -28v-17h-205v17q26 7 32.5 28.5t6.5 67.5v519q0 49 -35 64q-13 5 -25.5 8t-32.5 3.5t-37 -10.5t-32.5 -31.5t-24.5 -62.5t-9 -101v-40h107l-3 -17h-104v-332q0 -46 8 -67.5t33 -28.5v-17h-206v17q26 8 33 29.5t7 66.5v332h-64l-2 17h66v80
q0 97 50.5 150.5t124.5 52.5q59 0 111 -32l160 33v-633z" />
    <glyph glyph-name=".notdef" horiz-adv-x="507" 
d="M-1 704h508v-704h-508v704zM223 352l-174 268v-535zM86 654l167 -256l167 256h-334zM253 307l-167 -257h334zM283 352l174 -267v535z" />
    <glyph glyph-name=".null" horiz-adv-x="0" 
 />
    <glyph glyph-name="nonmarkingreturn" horiz-adv-x="333" 
 />
    <glyph glyph-name="space" unicode=" " horiz-adv-x="265" 
 />
    <glyph glyph-name="exclam" unicode="!" horiz-adv-x="334" 
d="M199 224h-65l-32 521h132zM242 67q0 31 -22 53.5t-54 22.5q-31 0 -53 -22.5t-22 -53.5t22 -53.5t53 -22.5q32 0 54 22.5t22 53.5z" />
    <glyph glyph-name="quotedbl" unicode="&#x22;" horiz-adv-x="532" 
d="M136 377l-35 327h131l-33 -327h-63zM343 377l-35 327h132l-34 -327h-63z" />
    <glyph glyph-name="numbersign" unicode="#" horiz-adv-x="714" 
d="M667 463h-132l-35 -149h104v-89h-124l-52 -225h-91l52 225h-136l-52 -225h-91l52 225h-118v89h139l34 149h-109v88h129l46 195h91l-45 -195h135l46 195h91l-46 -195h112v-88zM444 463h-136l-34 -149h135z" />
    <glyph glyph-name="dollar" unicode="$" horiz-adv-x="594" 
d="M54 245q62 -175 162 -232v-17q-53 8 -95.5 22t-58.5 24l-16 11v192h8zM528 497q-57 154 -170 195v17q52 -5 96.5 -16t63.5 -19l18 -9v-168h-8zM296 8q56 0 87 26t32.5 62.5t-19 77t-58.5 68.5l-42 26v-260zM416 377q67 -44 104 -93t41.5 -103t-33.5 -108q-34 -42 -84 -62
t-148 -20v-122h-17v410l-95 60q-229 144 -112 298q2 3 6 8t21 18.5t38.5 23.5t59.5 18t82 8v122h17v-379zM279 467v229q-40 0 -66 -22t-32 -54t14.5 -71.5t66.5 -69.5z" />
    <glyph glyph-name="percent" unicode="%" horiz-adv-x="1011" 
d="M250 0l456 704h65l-456 -704h-65zM280 679q138 0 138 -182q0 -83 -31 -129.5t-107 -46.5q-77 0 -108 46.5t-31 129.5q0 182 139 182zM280 338q33 0 41.5 27.5t8.5 131.5q0 103 -9 134t-41 31q-33 0 -42 -30.5t-9 -134.5q0 -102 9 -130.5t42 -28.5zM741 383
q138 0 138 -182q0 -83 -31 -129.5t-107 -46.5q-77 0 -108 46.5t-31 129.5q0 182 139 182zM741 42q33 0 41.5 27.5t8.5 131.5q0 103 -9 134t-41 31q-33 0 -42 -30.5t-9 -134.5q0 -102 9 -130.5t42 -28.5z" />
    <glyph glyph-name="ampersand" unicode="&#x26;" horiz-adv-x="834" 
d="M580 286q0 15 -20 7q-15 -6 -29 -23l-10 14q40 58 93 70q46 10 73 -12q21 -17 23 -44t-16 -48q-17 -20 -44 -22.5t-48 15.5q-20 17 -22 43zM676 83q74 0 88 48h18q0 -62 -37.5 -97.5t-91.5 -41.5q-5 0 -12.5 -0.5t-29 0.5t-40 5.5t-39.5 15.5t-32 28l-53 78
q-16 -43 -59 -76t-93.5 -46.5t-105 3.5t-88.5 68q-102 153 120 286l11 -16q-28 -22 -42 -55.5t-6 -78.5t42 -89q23 -30 63 -42t81.5 3.5t63.5 59.5l-226 331q-42 65 -39 122.5t41 99t94 51.5q96 17 146 -42l-16 -13q-21 22 -47.5 30t-50.5 0q-37 -13 -51 -59t18 -101
l287 -428q13 -20 34.5 -31t36.5 -12z" />
    <glyph glyph-name="quotesingle" unicode="'" 
d="M109 376l-34 328h131l-34 -328h-63z" />
    <glyph glyph-name="parenleft" unicode="(" horiz-adv-x="333" 
d="M318 745l14 -13q-37 -44 -63.5 -100.5t-39 -103t-19 -108t-7.5 -92t-1 -77.5q0 -61 2.5 -102.5t13 -112.5t39 -129.5t73.5 -99.5l-14 -13q-49 28 -87.5 63t-63 67.5t-42 74t-26 71t-13 70.5t-5 61t-0.5 53t0.5 53t5 61t13 72t26 75t42.5 79.5t64 76t88 74.5z" />
    <glyph glyph-name="parenright" unicode=")" horiz-adv-x="333" 
d="M251 255q0 -33 -0.5 -53t-5 -61t-13 -70.5t-26 -71t-42 -74t-63 -67.5t-87.5 -63l-14 13q45 41 73.5 99.5t39 129.5t13 112.5t2.5 102.5q0 47 -1 77.5t-7.5 92t-19 108t-39 103t-63.5 100.5l14 13q49 -34 88 -74.5t64 -76t42.5 -79.5t26 -75t13 -72t5 -61t0.5 -53z" />
    <glyph glyph-name="asterisk" unicode="*" horiz-adv-x="556" 
d="M487 513l-180 -24l132 -125l-85 -62l-78 165l-79 -165l-84 62l132 125l-181 24l33 99l159 -87l-33 179h105l-33 -179l160 87z" />
    <glyph glyph-name="plus" unicode="+" horiz-adv-x="715" 
d="M657 356v-93h-254v-263h-93v263h-254v93h254v263h93v-263h254z" />
    <glyph glyph-name="comma" unicode="," horiz-adv-x="272" 
d="M180 -53q-32 -51 -84 -79l-11 14q26 20 43 48t17 43.5t-6 19.5q-36 4 -56 24q-25 23 -25 57.5t24 59.5q24 24 58.5 24t58.5 -24q23 -23 23.5 -60t-11.5 -68t-31 -59z" />
    <glyph glyph-name="hyphen" unicode="-" horiz-adv-x="444" 
d="M379 208h-315v93h315v-93z" />
    <glyph glyph-name="period" unicode="." horiz-adv-x="296" 
d="M232 79q0 -35 -24.5 -59.5t-59.5 -24.5t-60 24.5t-25 59.5t25 60t60 25t59.5 -25t24.5 -60z" />
    <glyph glyph-name="slash" unicode="/" horiz-adv-x="430" 
d="M413 725l-308 -746h-91l308 746h91z" />
    <glyph glyph-name="zero" unicode="0" horiz-adv-x="630" 
d="M345 712q248 -19 248 -366q0 -75 -12 -133.5t-39 -107.5t-77 -78t-120 -34v19q51 11 70.5 83t19.5 251q0 177 -21 254.5t-69 91.5v20zM34 346q0 346 248 366v-20q-50 -14 -70 -90.5t-20 -255.5q0 -176 20 -248.5t70 -85.5v-19q-71 5 -120.5 34t-77 78.5t-39 107.5
t-11.5 133z" />
    <glyph glyph-name="one" unicode="1" horiz-adv-x="424" 
d="M284 95q0 -22 5.5 -37.5t13 -23.5t20 -12t21 -4.5t22.5 -0.5v-17h-301v17q20 0 33 2t29 9t24.5 24t8.5 43v433q0 40 -23 46t-47 -8l-23 -14l-10 16l195 145h32v-618z" />
    <glyph glyph-name="two" unicode="2" horiz-adv-x="493" 
d="M445 185h17l-51 -185h-372l88 128h227q60 0 91 57zM235 713q74 0 122.5 -49t48.5 -118q0 -46 -28 -95.5t-93 -132.5l-18 14q70 121 21 202q-34 56 -100 62q-71 7 -114 -48q-10 -12 -17 -27l-16 4q6 52 28.5 91t50 56.5t53.5 28t44 11.5z" />
    <glyph glyph-name="three" unicode="3" horiz-adv-x="528" 
d="M334 400q65 -33 102.5 -77.5t40.5 -90.5q4 -58 -13 -103.5t-48.5 -72.5t-67 -42.5t-74.5 -20.5v19q51 12 70 59t13 110q-2 18 -10.5 39t-27.5 49t-58.5 49.5t-93.5 28.5v17q59 18 92 50.5t37 66.5t-7 64t-33 48q-23 19 -58.5 22.5t-71 -14t-53.5 -54.5l-16 4
q6 45 26.5 78.5t45.5 49t49.5 24t40.5 9.5l16 1q42 0 80.5 -16.5t63.5 -47t34 -68.5t-11 -86t-68 -95zM156 39q-9 -4 4 -14q16 -12 52 -16v-17q-92 6 -149 49q-16 11 -23 33t-2 44q7 31 34 48.5t58 9.5q32 -8 48.5 -35t9.5 -58q-7 -29 -32 -44z" />
    <glyph glyph-name="four" unicode="4" horiz-adv-x="547" 
d="M510 196h-104v-51q0 -45 6.5 -73t21 -39t26 -13.5t31.5 -2.5v-17h-315v17q20 0 31.5 3t26 13.5t21 37t6.5 69.5v56h-232v17l65 98l16 -10q-11 -16 -5.5 -24t11.5 -9.5t18 -1.5h127v298l98 149l47 -9v-438h104v-70z" />
    <glyph glyph-name="five" unicode="5" horiz-adv-x="535" 
d="M169 35q-14 -10 4 -18q9 -5 27 -7v-18q-75 6 -125 46q-15 13 -22 34.5t-3 43.5q8 31 35.5 47.5t58.5 9.5t47.5 -34.5t9.5 -58.5q-6 -30 -32 -45zM471 704l-43 -131h-328l25 131h346zM74 433q75 14 133.5 11t102 -12.5t74 -30.5t50 -42.5t31 -48.5t15.5 -48.5t4 -41.5
q0 -101 -62 -160t-160 -68v18q77 10 106.5 60.5t12.5 107.5q-4 13 -11.5 27t-24 34.5t-40 35t-60 28.5t-84 15.5t-110.5 -4.5z" />
    <glyph glyph-name="six" unicode="6" horiz-adv-x="584" 
d="M398 680q6 0 -3 6q-6 4 -18 7v17q73 -12 106 -63q10 -15 10 -37.5t-12 -40.5q-16 -27 -46.5 -34t-57.5 10q-26 16 -33 47t10 57q17 27 44 31zM358 438q98 0 142.5 -63t44.5 -157q0 -104 -59.5 -161t-157.5 -65v17q39 8 54.5 50t15.5 139q0 96 -25.5 147t-67.5 51
q-31 0 -62.5 -18.5t-42.5 -60.5q2 -145 16 -217.5t50 -90.5v-17q-110 11 -167 97t-57 229q0 165 79 271.5t193 120.5v-17q-113 -36 -114 -337q35 82 158 82z" />
    <glyph glyph-name="seven" unicode="7" horiz-adv-x="556" 
d="M181 0q0 122 52 256t165 256h17q-92 -205 -92 -512h-142zM46 517l24 187h451l-75 -129h-283q-28 0 -56.5 -15t-43.5 -43h-17z" />
    <glyph glyph-name="eight" unicode="8" horiz-adv-x="565" 
d="M363 415q72 -35 120 -93.5t48 -119.5q0 -101 -56.5 -152.5t-153.5 -57.5v17q36 9 58 40.5t22 81.5q0 29 -13.5 55t-38.5 47t-46 34.5t-50 28.5q-25 13 -38 21q-25 -13 -47 -52.5t-22 -106.5q0 -58 29 -99t84 -50v-17q-223 10 -223 160q0 61 50.5 113.5t105.5 64.5
q-65 41 -98 92t-33 101q0 84 51 132.5t132 56.5v-18q-28 -9 -45 -37t-17 -71q0 -97 161 -160q51 24 51 128q0 121 -88 140v18q81 -6 130 -44t49 -101q0 -50 -31.5 -94.5t-90.5 -57.5z" />
    <glyph glyph-name="nine" unicode="9" horiz-adv-x="577" 
d="M175 25q-6 0 4 -6q10 -5 25 -8v-18q-80 10 -113 65q-10 15 -10 37.5t12 40.5q16 27 46.5 34t57.5 -10q26 -16 33 -47t-10 -57q-17 -27 -45 -31zM316 712q109 -11 166.5 -96.5t57.5 -228.5q0 -177 -70 -280t-203 -114v18q71 9 92.5 78t22.5 262q-39 -84 -158 -84
q-98 0 -142.5 63t-44.5 157q0 104 59.5 160.5t157.5 64.5v-17q-39 -8 -54.5 -49t-15.5 -139q0 -96 25.5 -147t67.5 -51q30 0 62 21t43 63q-2 144 -16.5 214.5t-49.5 87.5v17z" />
    <glyph glyph-name="colon" unicode=":" 
d="M226 79q0 -36 -25.5 -61t-60.5 -25q-36 0 -61 25t-25 61t25 61t61 25q35 0 60.5 -25t25.5 -61zM226 385q0 -35 -25.5 -60.5t-60.5 -25.5q-36 0 -61 25.5t-25 60.5t25 60.5t61 25.5q35 0 60.5 -25.5t25.5 -60.5z" />
    <glyph glyph-name="semicolon" unicode=";" 
d="M226 385q0 -36 -25 -61t-61 -25t-61 25t-25 61q0 35 25 60.5t61 25.5t61 -25.5t25 -60.5zM184 -53q18 27 29.5 58.5t10 68.5t-24.5 60q-24 24 -58.5 24t-58.5 -24q-24 -25 -24 -59.5t25 -57.5q20 -20 56 -24q6 -4 6.5 -20.5t-17 -43.5t-45.5 -44l11 -14q64 35 90 76z" />
    <glyph glyph-name="less" unicode="&#x3c;" horiz-adv-x="600" 
d="M195 266l358 -189v-93l-507 260v43l507 260v-94z" />
    <glyph glyph-name="equal" unicode="=" horiz-adv-x="613" 
d="M567 339h-511v80h511v-80zM567 114h-511v80h511v-80z" />
    <glyph glyph-name="greater" unicode="&#x3e;" horiz-adv-x="600" 
d="M47 77l358 189l-358 187v94l507 -260v-43l-507 -260v93z" />
    <glyph glyph-name="question" unicode="?" horiz-adv-x="593" 
d="M279 164q35 0 60 -24.5t25 -59.5t-25 -60t-60 -25t-59.5 25t-24.5 60t24.5 59.5t59.5 24.5zM200 625q16 -23 11 -50.5t-27 -44.5q-23 -16 -50.5 -10t-44.5 29q-19 26 -7 69q5 23 26 49t54 41l6 -18q-11 -7 -15.5 -15.5t-2.5 -15t8 -7.5q25 -4 42 -27zM221 728
q73 14 135 2t104.5 -53.5t45.5 -99.5q2 -52 -11.5 -93.5t-37 -66.5t-47 -39.5t-48.5 -20.5q-41 -11 -63.5 -42.5t-18.5 -75.5l-26 -4q-16 102 53 159q36 30 48.5 70t5.5 109q-5 65 -44 102.5t-91 35.5z" />
    <glyph glyph-name="at" unicode="@" horiz-adv-x="892" 
d="M528 624q139 -6 232 -106t79 -272q-5 -66 -28 -115t-51.5 -75t-66 -41.5t-65 -19.5t-56.5 -4q-33 0 -50 20.5t-13 44.5q-9 -11 -22.5 -23.5t-47 -27t-70.5 -14.5q-62 0 -86 58t-15 123q4 25 11.5 51t25 59t40.5 58t60.5 42.5t83.5 17.5q9 0 18 -1.5t16 -4t13 -5.5
t10.5 -6.5t8 -6.5t6.5 -6.5t4.5 -6t2.5 -3.5l1 -2l5 26l98 -2q-49 -263 -56 -299q-6 -15 0 -31.5t26 -16.5q42 0 90.5 57.5t48.5 158.5q0 287 -243 305q-83 6 -153 -23t-115.5 -81.5t-73 -114.5t-36.5 -127q-1 -7 -2.5 -19.5t-1.5 -49t5.5 -70.5t24.5 -76t48.5 -73.5t83 -56
t124.5 -30.5q52 -3 102 10.5t74 28.5l23 16l10 -15l-8.5 -8.5t-26.5 -19t-45.5 -23.5t-66 -18.5t-87.5 -8.5q-49 0 -97 9t-101.5 35.5t-93.5 67.5t-65 112t-22 163q3 100 46.5 186t112.5 141.5t155.5 85.5t175.5 27zM514 87q0 2 12.5 61.5t20.5 99.5q2 13 3.5 28t1.5 41
t-11 43t-31 17q-45 0 -79.5 -49t-48.5 -117q-15 -75 7.5 -115t58.5 -43q19 -2 35.5 6.5t23.5 18.5z" />
    <glyph glyph-name="A" unicode="A" horiz-adv-x="708" 
d="M610 90q7 -17 13.5 -29.5t13.5 -20t11.5 -12t12.5 -7t11 -3t11.5 -1t10.5 -0.5v-17h-286v17q22 0 32.5 11t10.5 26.5t-3.5 31.5t-8.5 27l-5 11l-30 73h-237q-1 -4 -3 -10.5t-5.5 -26t-4 -37t4.5 -38.5t16 -36t33.5 -24.5t54.5 -7.5v-17h-246v17q10 1 12.5 1.5t13 5.5
t18.5 17t22 32.5t30.5 56t37.5 84.5h247l-127 311l68 179h17z" />
    <glyph glyph-name="B" unicode="B" horiz-adv-x="642" 
d="M596 179q0 -49 -16 -82.5t-39.5 -52t-65.5 -29t-78 -13t-94 -2.5v17q35 0 56.5 5t44.5 20.5t34 51t11 90.5q0 50 -13 84t-36.5 50t-45.5 22.5t-51 7.5v19q107 15 107 169q0 143 -107 150v18q35 0 55.5 -0.5t49.5 -4t46.5 -10t38 -19t31 -30t18 -44.5t7.5 -62
q0 -52 -24.5 -89.5t-58.5 -53.5t-58.5 -23t-37.5 -7q26 0 49 -2t58 -13t59 -29t42 -53.5t18 -84.5zM37 696v8h204v-704h-204v9q58 0 58 128v429q0 54 -14 92t-44 38z" />
    <glyph glyph-name="C" unicode="C" horiz-adv-x="687" 
d="M615 210h17l14 -157q-88 -58 -228 -61v18q74 11 126 66.5t71 133.5zM418 694v19q159 -5 228 -61l-14 -157h-17q-40 96 -84.5 143t-112.5 56zM40 352q0 145 86 247t230 113v-18q-71 -11 -103.5 -87t-32.5 -255q0 -178 33 -254.5t103 -87.5v-18q-144 11 -230 113t-86 247z
" />
    <glyph glyph-name="D" unicode="D" horiz-adv-x="768" 
d="M319 704q63 -1 116.5 -11t108 -34.5t92 -63t61 -101.5t23.5 -145q0 -341 -401 -349v17q28 1 51 6t50.5 17t48 35.5t39 58.5t28 90t9.5 125q0 84 -14.5 147t-36.5 98t-54 56.5t-59.5 28.5t-61.5 8v17zM37 687v17h220v-704h-220v17q32 0 53.5 34.5t21.5 85.5v429
q0 48 -21.5 84.5t-53.5 36.5z" />
    <glyph glyph-name="E" unicode="E" horiz-adv-x="653" 
d="M590 218v-218h-298v18q27 3 53 8t65 19t69.5 34.5t57 56.5t36.5 82h17zM230 704v-704h-203v17q58 0 58 120v429q0 121 -58 121v17h203zM560 514q-7 49 -39 84.5t-78 53t-81 24.5t-70 10v18h285v-190h-17zM292 366q120 13 136 102h17v-225h-17q-16 89 -136 102v21z" />
    <glyph glyph-name="F" unicode="F" horiz-adv-x="602" 
d="M228 137q0 -40 7 -66t20.5 -37t26 -14t32.5 -3v-17h-289v17q58 0 58 120v429q0 121 -58 121v17h203v-567zM290 366q131 15 145 102h17v-225h-17q-15 88 -145 102v21zM290 686v18h296v-190h-17q-8 41 -33.5 73t-56 49.5t-69.5 29.5t-66 15.5t-54 4.5z" />
    <glyph glyph-name="G" unicode="G" horiz-adv-x="745" 
d="M222 352q0 -180 33 -256t105 -86v-17q-146 10 -233.5 112t-87.5 247t86.5 246.5t231.5 113.5v-18q-48 -7 -76.5 -40t-43.5 -106.5t-15 -195.5zM438 280h282v-17q-31 0 -44 -14t-19 -61.5t-6 -154.5q-98 -37 -229 -41v17q65 3 83 24.5t18 88.5q0 66 -10.5 97t-25.5 37.5
t-49 6.5v17zM604 489q-20 105 -64 152.5t-121 53.5v18q151 -3 226 -53l-7 -171h-34z" />
    <glyph glyph-name="H" unicode="H" horiz-adv-x="658" 
d="M637 687q-16 -3 -25.5 -10.5t-13.5 -25t-4.5 -31t-0.5 -46.5v-13v-425v-28v-23.5t0.5 -18t2 -16t4.5 -11t8 -9.5t12 -6.5t17 -6.5v-17h-208v17q17 6 20.5 24t3.5 73v22v191h-242v-191v-27q0 -51 3.5 -68.5t20.5 -23.5v-17h-209v17q10 3 17 6.5t12 6.5t8.5 9.5t5 11t2 16
t0.5 18v24v27.5v425q0 80 -8 99q-9 22 -37 27v17h209v-17q-17 -5 -20.5 -25.5t-3.5 -74.5v-26v-214h242v214q0 89 -5 104q-5 17 -19 22v17h208v-17z" />
    <glyph glyph-name="I" unicode="I" horiz-adv-x="390" 
d="M39 704h315v-17q-35 0 -60 -22.5t-25 -66.5v-477q0 -48 25.5 -76t59.5 -28v-17h-315v17q35 0 60 28t25 76v477q0 44 -24.5 66.5t-60.5 22.5v17z" />
    <glyph glyph-name="J" unicode="J" horiz-adv-x="443" 
d="M86 704h318v-17q-37 0 -62 -23.5t-25 -68.5v-413q0 -303 -311 -349l-4 17q166 60 166 332v291q0 147 -11.5 180.5t-70.5 33.5v17z" />
    <glyph glyph-name="K" unicode="K" horiz-adv-x="814" 
d="M34 704h302v-17q-86 0 -86 -89v-475q0 -50 21 -78t54 -28v-17h-291v17q32 0 51.5 28t19.5 78v475q0 89 -71 89v17zM660 82q49 -65 141 -65v-17h-158q-77 0 -115 31t-120 150l-101 139l138 167l33 44q80 118 10 148q-19 7 -49 8v17h330v-17q-26 0 -42 -2t-48.5 -16.5
t-65 -42.5t-84 -83t-113.5 -135z" />
    <glyph glyph-name="L" unicode="L" horiz-adv-x="667" 
d="M605 217v-217h-290v18q35 4 69 12.5t80.5 28.5t80 61t43.5 97h17zM253 598v-598h-216v17q32 0 51.5 30.5t19.5 81.5v469q0 44 -22.5 66.5t-56.5 22.5v17h317v-17q-93 0 -93 -89z" />
    <glyph glyph-name="M" unicode="M" horiz-adv-x="988" 
d="M177 253q0 -10 0.5 -25.5t8 -56.5t20 -72t40.5 -56.5t67 -25.5v-17h-303v17q42 0 73 24.5t45 59t22 69t9 58.5l1 25h17zM884 121q0 -48 25.5 -76t60.5 -28v-17h-302v17q32 0 52 27t20 77v583h221v-17q-34 0 -55.5 -22t-21.5 -66v-478zM47 704h252l250 -526l-75 -187h-17
l-297 627q-13 23 -28.5 38t-34.5 21t-25.5 7.5t-24.5 2.5v17z" />
    <glyph glyph-name="N" unicode="N" horiz-adv-x="840" 
d="M184 255q0 -10 0.5 -26t8 -57t20.5 -72.5t41 -57t67 -25.5v-17h-304v17q42 0 73 24.5t45 59.5t22 70t9 59l1 25h17zM9 704h245l420 -518v-186h-53l-493 616q-15 19 -29.5 32.5t-24 21t-21 11.5t-16 4.5t-15.5 1t-13 0.5v17zM520 687v17h303v-17q-42 0 -73 -24t-45 -59
t-22 -70t-9 -60v-24h-17q0 5 -0.5 13.5t-3 33.5t-7 47t-14.5 49.5t-24 47t-37 33t-51 13.5z" />
    <glyph glyph-name="O" unicode="O" horiz-adv-x="776" 
d="M212 347q0 -181 33 -254.5t108 -83.5v-17q-146 11 -229 110t-83 245t83.5 249t228.5 115v-18q-74 -10 -107.5 -87.5t-33.5 -258.5zM731 347q0 -147 -84 -246t-231 -109v17q76 9 109 82.5t33 255.5t-33.5 259t-108.5 88v17q146 -11 230.5 -114.5t84.5 -249.5z" />
    <glyph glyph-name="P" unicode="P" horiz-adv-x="651" 
d="M454 502q0 59 -10.5 96.5t-33 56t-46.5 25t-60 7.5v17q59 -1 104 -7t86 -20t67 -36t41.5 -57t15.5 -82q0 -58 -22.5 -98t-66 -62t-97.5 -31.5t-128 -10.5v17q36 1 60 8t46.5 25t33 56t10.5 96zM242 704v-567q0 -40 11.5 -66t32 -36.5t37 -14t37.5 -3.5v-17h-329v17
q31 0 48.5 33.5t17.5 86.5v435q0 48 -20 81.5t-52 33.5v17h217z" />
    <glyph glyph-name="Q" unicode="Q" horiz-adv-x="771" 
d="M731 347q0 -147 -84 -246t-231 -109v18q76 9 109 82t33 255t-33.5 259.5t-108.5 87.5v18q146 -11 230.5 -114.5t84.5 -250.5zM212 347q0 -181 33 -254.5t109 -82.5v-18q-146 11 -229.5 110t-83.5 245t84 249.5t229 114.5v-17q-75 -11 -108.5 -88.5t-33.5 -258.5z
M615 -116q13 -4 25 -6.5t23 -2.5t20 0.5t18.5 4t15.5 5.5t13.5 7t11 7t10 7t7.5 5l12 -13l-107 -92q-37 -32 -88 -36t-106.5 12t-145.5 54l-86 36q-12 5 -24 8.5t-22 4t-18 0.5t-16.5 -2.5t-14 -4.5t-12.5 -6.5t-10 -6.5t-9.5 -7t-7.5 -6l-13 13q50 43 105 66.5t97.5 26.5
t77.5 0.5t54 -9.5l19 -7z" />
    <glyph glyph-name="R" unicode="R" horiz-adv-x="728" 
d="M604 115q9 -35 34 -58.5t45.5 -31t37.5 -8.5v-17h-92h-52.5t-39 3.5t-30 4.5t-21 12.5t-17 17t-13 28t-14 37t-15 51.5t-20.5 64q-28 86 -110 101v19q35 1 58 7t44.5 23t32 53t10.5 92t-10.5 92t-32 53t-44.5 22.5t-58 6.5v17q59 -1 102.5 -6t84 -17.5t66 -33t40.5 -54.5
t15 -80q0 -87 -49.5 -128.5t-145.5 -52.5q56 6 108 -43.5t86 -173.5zM235 704v-583q0 -49 20.5 -76.5t53.5 -27.5v-17h-291v17q33 0 52.5 27t19.5 77v477q0 89 -72 89v17h217z" />
    <glyph glyph-name="S" unicode="S" horiz-adv-x="616" 
d="M63 245q36 -97 72 -144q61 -80 153 -91v-18q-76 3 -136.5 18t-83.5 29l-22 14v192h17zM416 377q67 -44 104 -93t41.5 -103t-33.5 -108q-2 -3 -5.5 -8t-18 -17.5t-32.5 -23t-50.5 -20t-70.5 -12.5v17q30 9 47 36t18 60t-19 70.5t-59 66.5l-154 97q-229 144 -112 298
q2 3 5.5 7.5t18 16t32.5 21.5t50 18.5t69 11.5v-17q-41 -12 -58.5 -48.5t0.5 -84t73 -83.5zM519 497q-66 179 -209 197v18q67 -2 123.5 -14t79.5 -22l23 -11v-168h-17z" />
    <glyph glyph-name="T" unicode="T" horiz-adv-x="698" 
d="M19 704h658v-201h-17q-2 50 -25.5 87.5t-56 55t-64 28t-53.5 12.5l-22 1h-19v-566q0 -48 25.5 -76t59.5 -28v-17h-315v17q34 0 59.5 28t25.5 76v566h-19q-9 0 -23 -1.5t-51 -12t-66 -28t-53.5 -55t-26.5 -87.5h-17v201z" />
    <glyph glyph-name="U" unicode="U" horiz-adv-x="752" 
d="M405 51q63 0 114 50.5t51 138.5h17q0 -61 -17.5 -107.5t-43.5 -72.5t-61.5 -42.5t-65 -21.5t-59.5 -5q-106 0 -177 68.5t-71 186.5v353q0 44 -22.5 66t-57.5 22v17h318v-17q-93 0 -93 -88v-360q0 -86 47.5 -137t120.5 -51zM434 687v17h302v-17q-42 0 -73 -15t-45 -37.5
t-22 -44.5t-8 -38l-1 -15h-17q0 6 -0.5 16t-8 36t-20 46t-40.5 36t-67 16z" />
    <glyph glyph-name="V" unicode="V" horiz-adv-x="775" 
d="M331 687q-36 0 -47 -29t-4 -58l7 -29l162 -402l-68 -169h-17l-256 606q-12 28 -24.5 46t-26.5 25t-22.5 8.5t-21.5 1.5v17h318v-17zM471 687v17h283v-17q-18 0 -28.5 -1.5t-30 -14t-36.5 -36t-43 -71t-55 -116.5l-16 5q2 5 5 13.5t9 32.5t9 46.5t1 49.5t-11 46t-31 32.5
t-56 13.5z" />
    <glyph glyph-name="W" unicode="W" horiz-adv-x="1122" 
d="M333 687q-25 0 -38.5 -12t-15.5 -29t-0.5 -34t5.5 -29l4 -12l153 -388l-67 -183h-17l-251 606q-11 29 -23.5 46.5t-25.5 24.5t-21 8.5t-22 1.5v17h319v-17zM695 687q-25 0 -39 -12t-16 -29t0 -34t6 -29l4 -12l150 -390l-70 -181h-17l-245 606q-14 37 -32.5 56.5t-30 22
t-29.5 2.5v17h319v-17zM812 687v17h295v-17q-20 0 -39 -8t-45 -30.5t-56.5 -73t-63.5 -127.5l-16 5q2 5 5 13.5t9.5 32.5t9.5 46.5t1.5 49.5t-11 46t-32 32.5t-57.5 13.5z" />
    <glyph glyph-name="X" unicode="X" horiz-adv-x="830" 
d="M322 203q-3 -4 -7.5 -10.5t-15 -26t-17.5 -37t-10 -39t2.5 -37t25.5 -26t54 -10.5v-17h-300v17q14 0 21 0.5t33 10.5t50 28.5t64.5 60.5t85.5 102zM692 98q62 -81 119 -81v-17h-330v17q30 8 30.5 36t-13.5 52l-15 24l-343 476q-63 82 -126 82v17h353v-17
q-36 0 -42.5 -32.5t27.5 -82.5zM509 507q2 2 4.5 6t9.5 16.5t13 24.5t11.5 28t7.5 30t-1 28t-12.5 24t-28.5 16.5t-46 6.5v17h328v-17q-124 0 -273 -196z" />
    <glyph glyph-name="Y" unicode="Y" horiz-adv-x="771" 
d="M456 121q0 -48 25.5 -76t59.5 -28v-17h-315v17q34 0 59.5 28t25.5 76v155q-65 116 -114 199t-65 109l-16 25q-20 35 -42.5 54t-35 22t-29.5 3v16h319v-16q-11 0 -17.5 -0.5t-18.5 -6.5t-15 -17t3 -34t25 -56l151 -247v-206zM458 687v17h300v-17q-123 0 -236 -221l-12 15
q2 4 5 11.5t9.5 29t10.5 41t3.5 43t-7 41t-25.5 29t-48 11.5z" />
    <glyph glyph-name="Z" unicode="Z" horiz-adv-x="617" 
d="M75 704h310l-11 -17q-99 0 -185 -54.5t-113 -130.5h-20zM271 17q54 0 106 24.5t88 61t60.5 70.5t33.5 60h18l-25 -233h-290zM594 704l-379 -704h-191l407 704h163z" />
    <glyph glyph-name="bracketleft" unicode="[" horiz-adv-x="333" 
d="M113 735h205v-17q-26 0 -40 -1.5t-32 -9t-26 -26t-8 -48.5v-686q0 -26 8.5 -42.5t26 -23t32.5 -8.5t39 -2v-17h-205v881z" />
    <glyph glyph-name="backslash" unicode="\" horiz-adv-x="434" 
d="M325 -20l-311 755h91l311 -755h-91z" />
    <glyph glyph-name="bracketright" unicode="]" horiz-adv-x="333" 
d="M11 735h205v-881h-205v17q24 0 39 2t32.5 8.5t26 23t8.5 42.5v686q0 30 -8 48.5t-26 26t-32 9t-40 1.5v17z" />
    <glyph glyph-name="asciicircum" unicode="^" horiz-adv-x="575" 
d="M295 704l185 -328h-45l-152 156l-149 -156h-45l183 328h23z" />
    <glyph glyph-name="underscore" unicode="_" horiz-adv-x="560" 
d="M0 -69h560v-61h-560v61z" />
    <glyph glyph-name="grave" unicode="`" horiz-adv-x="350" 
d="M116 720l169 -163h-37l-244 128z" />
    <glyph glyph-name="a" unicode="a" horiz-adv-x="527" 
d="M166 303q-19 -13 -42.5 -8.5t-36.5 23.5q-20 31 -3 60q24 40 64 64l7 -16q-18 -14 -13 -21q1 -1 2 -1q24 -3 37 -22q13 -20 9 -42.5t-24 -36.5zM474 52q21 0 27 17l17 -7q-7 -26 -40 -48.5t-77 -22.5q-4 0 -11 0.5t-24.5 5.5t-30.5 13.5t-24 27t-11 43.5v157
q-131 -29 -131 -120q0 -3 0.5 -7.5t4 -15.5t9.5 -20t19.5 -16t31.5 -7q19 0 29 5l12 -17q-53 -49 -119 -49q-5 0 -12.5 0.5t-27.5 6t-35 15t-27.5 30.5t-12.5 50q0 68 44 94.5t171 57.5l44 11v62q0 70 -31 105.5t-77 21.5l-7 15q17 6 35.5 8.5t28.5 2.5h10q92 0 129.5 -52
t37.5 -148v-149v-7.5t2.5 -16.5t7 -21.5t14.5 -17t24 -7.5z" />
    <glyph glyph-name="b" unicode="b" horiz-adv-x="593" 
d="M343 471q88 0 150 -66t62 -180q0 -111 -61.5 -169.5t-164.5 -64.5v19q44 8 63.5 56t19.5 151q0 117 -28 164.5t-91 47.5q-49 0 -76.5 -36t-27.5 -91v-127q0 -78 28 -118t71 -48v-18q-82 6 -125 51q-37 -32 -79 -41q-19 -4 -19 4v623q0 26 -10.5 39.5t-40.5 24.5v17
l175 37v-360q22 41 67 63t87 22z" />
    <glyph glyph-name="c" unicode="c" horiz-adv-x="500" 
d="M357 433q8 3 -9 12q-9 4 -23 7v18q64 -6 110 -43q31 -28 20 -67q-8 -27 -31.5 -41t-50.5 -7t-41 31t-6 50q6 26 31 40zM450 129l14 -9q-13 -48 -64 -88.5t-135 -40.5q-94 0 -157 74.5t-63 167.5q0 89 63.5 159.5t174.5 77.5v-19q-43 -10 -77.5 -56.5t-34.5 -143.5
q0 -143 127 -171q37 -8 86 8t66 41z" />
    <glyph glyph-name="d" unicode="d" horiz-adv-x="589" 
d="M523 97q0 -37 10 -49.5t41 -16.5v-17l-147 -22q-12 -2 -19 2.5t-8 9.5l-1 6v62q-22 -40 -66.5 -60.5t-86.5 -20.5q-89 0 -151 66.5t-62 180.5q0 110 61.5 168t164.5 64v-18q-44 -8 -64 -56t-20 -149q0 -120 26.5 -170.5t87.5 -50.5q50 0 80 33.5t30 86.5v141
q0 77 -28 117t-71 48v17q57 -4 99 -28v191q0 26 -10 37.5t-41 22.5v17l175 37v-649z" />
    <glyph glyph-name="e" unicode="e" horiz-adv-x="524" 
d="M290 76q43 -10 92 5.5t67 49.5l17 -9q-15 -50 -67 -90.5t-142 -40.5q-95 0 -158 73t-63 165q0 99 58 166t152 74v-16q-36 -14 -58.5 -72t-22.5 -124h196q0 79 -20 131t-54 65v17q100 -4 148 -61t48 -169h-318q6 -71 39 -111.5t86 -52.5z" />
    <glyph glyph-name="f" unicode="f" horiz-adv-x="334" 
d="M284 743q30 -5 53.5 -19.5t31.5 -28.5q22 -33 5 -68q-11 -22 -34.5 -30t-45.5 3q-23 11 -30.5 34t3.5 46q10 22 35 27q12 2 2 10q-7 6 -20 9v17zM243 727q-41 -35 -41 -265h107l-3 -17h-104v-332q0 -46 8 -67.5t33 -28.5v-17h-205v17q26 7 32.5 28.5t6.5 67.5v332h-64
l-1 17h65q0 156 40 217t126 65v-17z" />
    <glyph glyph-name="g" unicode="g" horiz-adv-x="572" 
d="M555 468q16 -17 14.5 -40.5t-19.5 -39.5q-17 -16 -40.5 -14t-39.5 19q-15 18 -12 40q1 8 -16 1q-13 -6 -24 -19q36 -37 36 -94q0 -60 -46 -102t-126 -48v19q27 6 41 35t14 96q0 118 -55 130v19q76 -4 123 -43q33 48 94 59q34 7 56 -18zM104 -160q39 -48 110 -62t140 16
l8 -15q-103 -49 -207.5 -42t-132.5 66q-18 48 -1.5 87.5t55.5 69.5l12 -12q-16 -26 -12.5 -50t16.5 -41zM327 92q26 0 46 -2t47 -11t43.5 -24.5t25.5 -47t4 -74.5q0 -3 -1 -8.5t-6.5 -22t-15 -31.5t-28.5 -35.5t-44 -36.5l-9 16q22 17 32.5 39.5t10.5 36.5v14q0 2 -1 5.5
t-6.5 13t-14 16.5t-24.5 12.5t-36 5.5h-136q-23 0 -44 3t-50 12.5t-47 33t-18 59.5q0 4 0.5 10t5.5 24t14 33.5t29 33t47 27.5q-37 16 -59.5 51.5t-22.5 75.5q0 59 46 101.5t126 47.5v-18q-29 -5 -42 -33.5t-13 -97.5q0 -119 55 -131v-19q-47 3 -72 15q-11 -5 -23 -20
t-18 -31.5t8 -29.5t51 -13h140z" />
    <glyph glyph-name="h" unicode="h" horiz-adv-x="539" 
d="M191 123q0 -48 8 -73.5t33 -31.5v-18h-206v18q26 7 33 32.5t7 72.5v504q0 26 -9.5 37.5t-40.5 22.5v17l175 42v-623zM482 123q0 -47 8.5 -73.5t32.5 -32.5v-17h-205v17q26 7 33 33t7 73v189q0 84 -84 84q-25 0 -50 -20l-13 21q26 31 67.5 52.5t77.5 21.5q64 0 95 -34.5
t31 -120.5v-193z" />
    <glyph glyph-name="i" unicode="i" horiz-adv-x="282" 
d="M200 619q0 -28 -20 -48t-49 -20t-48.5 19.5t-19.5 48.5t19.5 48.5t48.5 19.5t49 -20t20 -48zM203 122q0 -48 8 -73t33 -32v-17h-205v17q26 8 33 33t7 72v222q0 26 -10 40t-41 30v17l175 40v-349z" />
    <glyph glyph-name="j" unicode="j" horiz-adv-x="281" 
d="M79 27v313q0 26 -10 42t-40 32v17l174 40v-421q0 -90 -27 -150t-65 -87t-93 -41v17q27 7 42.5 66.5t17.5 115.5zM201 619q0 -28 -20 -48t-49 -20q-28 0 -48 20t-20 48t20 48t48 20q29 0 49 -20t20 -48z" />
    <glyph glyph-name="k" unicode="k" horiz-adv-x="559" 
d="M185 121q0 -47 8 -72.5t33 -31.5v-17h-206v17q26 7 33 32t7 72v506q0 27 -10 40.5t-40 24.5v17l175 37v-625zM452 67q33 -46 95 -50v-17h-141q-49 0 -70 18.5t-75 99.5l-56 84l94 102q4 4 10 11t22 26t23.5 35.5t11.5 33.5t-9.5 26.5t-44.5 8.5v17h243v-17
q-127 -14 -253 -169z" />
    <glyph glyph-name="l" unicode="l" horiz-adv-x="265" 
d="M198 121q0 -47 8 -72.5t32 -31.5v-17h-205v17q26 7 33 32t7 72v506q0 27 -10 40.5t-40 24.5v17l175 37v-625z" />
    <glyph glyph-name="m" unicode="m" horiz-adv-x="795" 
d="M185 120q0 -46 8.5 -71t32.5 -32v-17h-205v17q26 7 32.5 31t6.5 72v219q0 27 -10 43t-40 32v17l175 40v-351zM739 122q0 -48 8 -73.5t33 -31.5v-17h-206v17q26 7 33 32.5t7 72.5v194q0 83 -73 83q-22 0 -44 -19l-14 16q24 32 59 53.5t71 21.5q63 0 94.5 -33t31.5 -119
v-197zM462 122q0 -48 8 -73.5t33 -31.5v-17h-206v17q26 7 33 32.5t7 72.5v194q0 83 -72 83q-22 0 -44 -19l-12 16q57 75 127 75q42 0 69 -14t38.5 -40t15 -48.5t3.5 -54.5v-192z" />
    <glyph glyph-name="n" unicode="n" horiz-adv-x="539" 
d="M185 120q0 -46 8.5 -71t32.5 -32v-17h-205v17q26 7 32.5 31t6.5 72v226q0 26 -9.5 38.5t-40.5 29.5v17l175 40v-351zM476 122q0 -48 8 -73.5t33 -31.5v-17h-206v17q26 7 33 32.5t7 72.5v194q0 37 -22 60t-59 23q-18 0 -40 -12l-12 20q62 64 132 64q63 0 94.5 -33
t31.5 -119v-197z" />
    <glyph glyph-name="o" unicode="o" horiz-adv-x="556" 
d="M517 231q0 -97 -58 -164.5t-160 -74.5v18q41 6 55.5 52.5t14.5 168.5t-14.5 168.5t-55.5 52.5v18q102 -7 160 -74t58 -165zM188 231q0 -122 14.5 -168.5t55.5 -52.5v-18q-101 7 -159 74.5t-58 164.5q0 98 58 165t159 74v-18q-41 -6 -55.5 -52.5t-14.5 -168.5z" />
    <glyph glyph-name="p" unicode="p" horiz-adv-x="603" 
d="M343 471q89 0 151 -65.5t62 -178.5q0 -111 -62.5 -170.5t-165.5 -65.5v18q44 8 64.5 57.5t20.5 151.5q0 118 -28.5 167t-90.5 49q-43 0 -70 -30.5t-33 -77.5v-183q5 -62 31.5 -94t64.5 -40v-17q-59 5 -96 30v-173q0 -46 8 -68.5t33 -28.5v-17h-205v17q26 8 33 30t7 67
v509q0 25 -9.5 34.5t-40.5 21.5v17l174 40v-81q22 40 66.5 60.5t85.5 20.5z" />
    <glyph glyph-name="q" unicode="q" horiz-adv-x="591" 
d="M522 -152q0 -46 8 -68t33 -28v-17h-205v17q25 8 32 29.5t7 66.5v194q-51 -51 -131 -51q-89 0 -151 67t-62 181q0 107 59 165t158 66v-18q-46 -7 -66 -54t-20 -150q0 -122 26.5 -177t86.5 -55q49 0 74.5 33t25.5 88v150q0 146 -86 164v19q70 -2 117 -36q18 14 41.5 24
t37 10.5t15.5 -6.5v-614z" />
    <glyph glyph-name="r" unicode="r" horiz-adv-x="425" 
d="M190 122q0 -48 8 -73t33 -32v-17h-207v17q26 8 33 32.5t7 72.5v222q0 26 -10 40.5t-40 29.5v17l176 40v-349zM308 466q15 7 40 3.5t41 -16.5q23 -20 25 -51.5t-18 -53.5q-20 -23 -50.5 -25.5t-54.5 17.5q-23 21 -23 49q0 4 -6.5 5t-17.5 -4t-23 -16l-10 14q41 54 97 78z
" />
    <glyph glyph-name="s" unicode="s" horiz-adv-x="444" 
d="M356 329q-8 20 -13.5 32.5t-20.5 35.5t-38.5 37t-53.5 18v18q44 -1 80 -8.5t50 -13.5l13 -7v-112h-17zM303 259q67 -42 86.5 -101t-17.5 -113q-4 -5 -11.5 -13t-38.5 -22.5t-69 -17.5v19q19 6 29 22t9 35.5t-14.5 41.5t-37.5 38l-101 61q-73 44 -91 101t23 111
q4 5 11.5 12t38 20.5t68.5 16.5v-19q-25 -7 -36 -28t1.5 -49.5t48.5 -51.5zM68 163q1 -2 5.5 -14.5t7 -18.5t8.5 -20t11.5 -22.5t14 -21t18 -20.5t21.5 -16.5t26.5 -13.5t30.5 -7v-18q-48 2 -88 13.5t-56 21.5l-16 11v126h17z" />
    <glyph glyph-name="t" unicode="t" horiz-adv-x="354" 
d="M269 62q39 0 60 35l15 -9q-16 -38 -58 -67.5t-90 -29.5q-64 0 -95 33.5t-31 119.5v301h-50l-3 17h53v134l125 21v-155h119l-4 -17h-115v-298q0 -85 74 -85z" />
    <glyph glyph-name="u" unicode="u" horiz-adv-x="561" 
d="M493 92q0 -35 9 -44t42 -13v-17l-148 -26q-12 -2 -19 3t-8 11l-1 5v344v12q0 41 -6.5 52.5t-40.5 15.5v17l172 19v-379zM331 81l12 -20q-27 -30 -68 -50t-76 -20q-63 0 -94.5 33.5t-31.5 119.5v214v26.5t-1.5 17.5t-4.5 14.5t-10 8t-16 7t-24 3.5v17l180 19v-324
q0 -83 84 -83q28 0 50 17z" />
    <glyph glyph-name="v" unicode="v" horiz-adv-x="522" 
d="M327 462h195v-17q-13 0 -22 -3t-26.5 -16t-38.5 -47.5t-43 -88.5l-16 9q6 16 10 34.5t5.5 47t-14.5 46.5t-50 18v17zM239 445q-25 0 -29.5 -18.5t2.5 -37.5l8 -19l110 -236l-57 -143h-16l-186 401q-11 24 -25 37t-22 14.5t-21 1.5v17h236v-17z" />
    <glyph glyph-name="w" unicode="w" horiz-adv-x="814" 
d="M252 445q-26 0 -32.5 -16.5t0.5 -32.5l7 -16l115 -242l-55 -147h-17l-191 411q-22 43 -63 43v17h236v-17zM610 462h196v-17q-11 0 -20 -3.5t-26.5 -16t-37.5 -47.5t-40 -88l-16 13q6 18 9 37.5t2.5 45.5t-17.5 42.5t-50 16.5v17zM534 445q-28 0 -34.5 -16.5t0.5 -32.5
l8 -16l115 -243l-56 -146h-16l-190 411q-23 43 -64 43v17h237v-17z" />
    <glyph glyph-name="x" unicode="x" horiz-adv-x="547" 
d="M331 340q3 4 7 11t10 25.5t5 32t-16 25t-46 11.5v17h226v-17l-9 -1q-8 0 -15 -1.5t-19.5 -5t-26 -12t-30 -20.5t-36 -32t-40.5 -46zM194 122q-1 -2 -3.5 -6t-7 -15t-6.5 -20.5t-1 -22t8 -21t23.5 -14.5t41.5 -6v-17h-226v17q68 0 158 120zM452 59q29 -42 88 -42v-17h-244
v17q14 0 19 7t2 17.5t-7.5 21t-9.5 17.5l-5 7l-214 323q-12 15 -24 23t-17.5 9.5t-16 2t-11.5 0.5v17h239v-17q-21 0 -26.5 -13.5t15.5 -48.5z" />
    <glyph glyph-name="y" unicode="y" horiz-adv-x="541" 
d="M330 462h196v-17q-12 0 -21.5 -3.5t-27 -16.5t-39 -47.5t-43.5 -88.5l-12 14q7 17 11 37t4.5 46t-17 42.5t-51.5 16.5v17zM337 136l-55 -145h-19l-189 415q-16 39 -63 39v17h236v-17q-23 0 -29.5 -15.5t-1.5 -30.5l5 -15zM242 -114h-18q-15 -39 -34 -41q-7 0 -9 6
q-9 30 -34 41q-26 12 -53 1.5t-39 -36.5q-11 -26 -1 -53t36 -39q18 -8 40.5 -5t36.5 15q47 37 75 111z" />
    <glyph glyph-name="z" unicode="z" horiz-adv-x="463" 
d="M65 462h192l-10 -19q-136 -12 -170 -113h-17zM430 462l-253 -462h-148l269 462h132zM228 20q121 17 163 132h17l-9 -152h-181z" />
    <glyph glyph-name="braceleft" unicode="{" horiz-adv-x="333" 
d="M218 3q0 -75 13.5 -107t45.5 -43v-17q-149 21 -149 167v117q0 22 -1.5 40t-3 31.5t-6 25t-6.5 18.5t-9 13.5t-9 9t-11 5.5l-10.5 3.5t-11.5 2.5t-11 2v17q2 1 10.5 2.5t11.5 2.5t10.5 4t11 6.5t9.5 10t8.5 14.5t7 20t6 26.5t3 34t1.5 42.5v117q0 146 149 167v-17
q-32 -12 -45.5 -43.5t-13.5 -106.5v-144q0 -144 -132 -144q62 0 97 -28.5t35 -104.5v-144z" />
    <glyph glyph-name="bar" unicode="|" horiz-adv-x="222" 
d="M73 -164v899h76v-899h-76z" />
    <glyph glyph-name="braceright" unicode="}" horiz-adv-x="333" 
d="M112 3v144q0 76 35 104.5t97 28.5q-132 0 -132 144v144q0 75 -13.5 106.5t-45.5 43.5v17q149 -21 149 -167v-117q0 -26 1 -47t5 -36.5t6.5 -27t9 -19.5t9.5 -13t12 -9t11 -5t13 -3.5t12 -2.5v-17q-1 0 -11 -2t-11.5 -2.5l-10.5 -3.5t-11 -5.5t-9 -9t-9 -13.5t-6.5 -18.5
t-6 -25t-3 -31.5t-1.5 -40v-117q0 -146 -149 -167v17q32 11 45.5 43t13.5 107z" />
    <glyph glyph-name="asciitilde" unicode="~" horiz-adv-x="600" 
d="M348 196l-120 43q-20 5 -49 5.5t-60.5 -13.5t-43.5 -39l-16 7q20 49 47.5 80.5t52.5 41.5t47.5 13.5t35.5 -0.5l13 -3l120 -43q20 -5 48 -5.5t59 14t43 39.5l15 -6q-20 -49 -47.5 -80.5t-51.5 -42t-45.5 -14t-34.5 -0.5z" />
    <glyph glyph-name="uni007F" horiz-adv-x="0" 
 />
    <glyph glyph-name="uni00A0" unicode="&#xa0;" horiz-adv-x="265" 
 />
    <glyph glyph-name="exclamdown" unicode="&#xa1;" horiz-adv-x="319" 
d="M130 339h64l32 -514h-130zM88 495q0 31 22 52.5t53 21.5t52.5 -21.5t21.5 -52.5t-21.5 -53t-52.5 -22t-53 22t-22 53z" />
    <glyph glyph-name="cent" unicode="&#xa2;" horiz-adv-x="533" 
d="M317 82v371q-44 -9 -80 -56t-36 -146q0 -136 116 -169zM480 129l14 -9q-12 -42 -53 -81t-107 -48v-109h-17v109q-118 0 -180 72t-62 170q0 90 64.5 161t177.5 77v122h17v-515q37 -5 83 11t63 40zM465 427q31 -28 20 -67q-8 -27 -31.5 -41t-50.5 -7t-41 31t-6 50
q6 26 31 40q9 4 -9 12q-7 4 -17 6v18q64 -7 104 -42z" />
    <glyph glyph-name="sterling" unicode="&#xa3;" horiz-adv-x="670" 
d="M609 141l17 -4q0 -31 -10.5 -57t-25.5 -41t-30.5 -25.5t-25.5 -13.5l-11 -4q-41 -12 -89 4t-112 53q-58 -62 -179 -62v17q90 1 134 73q-61 36 -94 51q-63 27 -100.5 1t-27.5 -64l-19 -5q-2 10 -3.5 24t5 28t15 28t26.5 24t40.5 15t57 1.5t75.5 -16.5l37 -12q0 45 -48 119
q-51 80 -55 87h-93v17h86q-22 52 -30.5 98.5t-3.5 82.5t19 67t36 52t48.5 36t55.5 21.5t57.5 6.5t54.5 -8l-3 -15q-43 8 -76.5 0t-53.5 -33.5t-24 -66t15.5 -103t62.5 -138.5h181v-17h-171l27 -37q61 -96 5 -198l74 -23q57 -16 102.5 -4t53.5 41zM443 709l7 13
q59 -28 81 -78q14 -42 -18 -74q-20 -22 -50 -22t-52 21t-22 51t21 51q17 18 50 18q15 0 -4 13q-6 4 -13 7z" />
    <glyph glyph-name="currency" unicode="&#xa4;" horiz-adv-x="612" 
d="M545 345q0 -76 -44 -139l89 -88l-58 -59l-89 89q-61 -44 -139 -44q-77 0 -140 44l-88 -89l-58 59l88 88q-44 65 -44 139q0 76 44 140l-88 88l58 58l88 -88q63 44 140 44q78 0 139 -44l89 88l58 -58l-89 -88q44 -61 44 -140zM304 190q64 0 109.5 45.5t45.5 109.5
q0 65 -45.5 110.5t-109.5 45.5t-110 -45.5t-46 -110.5q0 -64 46 -109.5t110 -45.5z" />
    <glyph glyph-name="yen" unicode="&#xa5;" horiz-adv-x="702" 
d="M269 574l151 -247h165v-17h-165v-72h165v-17h-165v-100q0 -48 25.5 -76t59.5 -28v-17h-315v17q34 0 59.5 28t25.5 76v100h-186v17h186v38l-20 34h-166v17h157l-166 282q-20 35 -42.5 54t-35 22t-29.5 3v16h319v-16q-11 0 -17.5 -0.5t-18.5 -6.5t-15 -17t3 -34t25 -56z
M422 704h300v-17q-123 0 -236 -221l-9 17q2 4 5 11.5t9 28.5t9.5 40.5t3 43t-7.5 40.5t-26 28.5t-48 11.5v17z" />
    <glyph glyph-name="brokenbar" unicode="&#xa6;" horiz-adv-x="222" 
d="M152 735v-375h-81v375h81zM152 186v-377h-81v377h81z" />
    <glyph glyph-name="section" unicode="&#xa7;" horiz-adv-x="556" 
d="M191 -224q-4 -1 4 -5q11 -4 31 -6v-17q-72 8 -104 45q-25 31 -7 67q11 24 35.5 33t49.5 -2q24 -11 33 -36t-2 -49q-10 -21 -40 -30zM356 687q8 3 -5 8q-6 3 -18 5v18q36 -4 63.5 -18t38.5 -28q25 -30 8 -67q-12 -24 -36.5 -33t-49.5 2q-24 11 -33 36t2 49q11 22 30 28z
M343 101q13 -7 35 -25q38 28 53.5 55t14.5 46t-19.5 40.5t-34.5 33.5t-44 30q-9 6 -14 9l-120 75q-13 9 -25 19q-40 -27 -57.5 -53t-16 -45.5t18.5 -40t34.5 -34t43.5 -30.5q7 -5 11 -7zM395 404q45 -29 74 -68t37.5 -84.5t-19.5 -96t-94 -93.5q32 -31 50.5 -76t13.5 -89
q-13 -142 -169 -151v17q29 8 47 33t21 58q4 38 -10.5 67.5t-59.5 59.5l-124 80q-45 29 -73 67t-35.5 82t22 93.5t97.5 94.5q-75 69 -65 170q13 143 162 152v-17q-33 -8 -53.5 -33t-23.5 -59q-8 -75 78 -129z" />
    <glyph glyph-name="dieresis" unicode="&#xa8;" horiz-adv-x="292" 
d="M110 646q0 -25 -17.5 -42.5t-41.5 -17.5q-25 0 -42.5 17.5t-17.5 42.5q0 24 17.5 41t42.5 17q24 0 41.5 -17t17.5 -41zM298 646q0 -25 -17.5 -42.5t-41.5 -17.5q-25 0 -42 17.5t-17 42.5q0 24 17 41t42 17q24 0 41.5 -17t17.5 -41z" />
    <glyph glyph-name="copyright" unicode="&#xa9;" horiz-adv-x="815" 
d="M407 746q156 0 266.5 -110.5t110.5 -266.5t-110.5 -266.5t-266.5 -110.5q-157 0 -267 110.5t-110 266.5t110 266.5t267 110.5zM407 68q123 0 211 88.5t88 212.5t-88 213t-211 89q-124 0 -212 -89t-88 -213t88 -212.5t212 -88.5zM525 276h17l5 -85q-53 -35 -143 -35
q-89 0 -142.5 58.5t-53.5 144.5q0 87 53.5 145.5t142.5 58.5q100 0 143 -34l-5 -86h-17q-19 103 -121 103q-94 0 -94 -187q0 -186 94 -186q47 0 78.5 21.5t42.5 81.5z" />
    <glyph glyph-name="ordfeminine" unicode="&#xaa;" horiz-adv-x="319" 
d="M156 513v64q-69 -16 -69 -57q0 -4 1 -9t9.5 -14t24.5 -9q24 0 34 25zM247 486q8 0 10 10l13 -5q-2 -15 -18 -26t-42 -11q-5 0 -13.5 1t-23 10.5t-16.5 25.5q-5 -15 -27 -26t-49 -11q-7 0 -17 1.5t-26.5 14.5t-16.5 37q0 37 23.5 51t92.5 31q12 3 19 5v31q0 39 -20 54
t-49 2q-14 -7 -13 -12q14 0 20 -11q7 -10 4.5 -22t-12.5 -18q-10 -7 -22 -5t-19 12q-10 13 -2 31q11 25 39 39q11 6 24 8.5t21 2.5l8 -1q49 0 68 -27t19 -77v-78q0 -4 0.5 -10.5t7 -17t17.5 -9.5z" />
    <glyph glyph-name="guillemotleft" unicode="&#xab;" horiz-adv-x="610" 
d="M318 505v-39l-123 -200l123 -194v-39l-231 233zM522 505v-39l-122 -200l122 -194v-39l-231 233z" />
    <glyph glyph-name="logicalnot" unicode="&#xac;" horiz-adv-x="653" 
d="M41 399h566v-320h-83v238h-483v82z" />
    <glyph glyph-name="uni00AD" unicode="&#xad;" horiz-adv-x="444" 
d="M379 208h-315v93h315v-93z" />
    <glyph glyph-name="registered" unicode="&#xae;" horiz-adv-x="819" 
d="M408 746q156 0 266.5 -110.5t110.5 -266.5t-110.5 -266.5t-266.5 -110.5t-266.5 110.5t-110.5 266.5t110.5 266.5t266.5 110.5zM408 70q124 0 211.5 87.5t87.5 211.5t-87.5 212t-211.5 88t-211.5 -88t-87.5 -212t87.5 -211.5t211.5 -87.5zM557 247q12 -43 63 -43v-17h-50
h-28t-20.5 2t-16 2.5t-11 6.5t-9 9.5t-7 15t-7.5 19.5t-8 27.5t-11 34.5q-8 23 -24.5 36t-29.5 14l-13 2h-26v-96q0 -27 11 -41.5t29 -14.5v-17h-156v17q39 0 39 56v247q0 24 -9.5 32t-29.5 8v17h133q92 0 137 -20t45 -82q0 -46 -26.5 -68.5t-78.5 -28.5q30 3 58 -24t46 -94
zM376 373q25 0 37.5 1.5t28 9.5t22 27t6.5 51q0 31 -6.5 49t-22 25.5t-28 9t-37.5 1.5h-17v-174h17z" />
    <glyph glyph-name="macron" unicode="&#xaf;" horiz-adv-x="360" 
d="M377 587h-393v69h393v-69z" />
    <glyph glyph-name="degree" unicode="&#xb0;" horiz-adv-x="381" 
d="M187 737q53 0 91.5 -38t38.5 -92q0 -53 -38.5 -90.5t-91.5 -37.5t-91.5 37.5t-38.5 90.5q0 54 38.5 92t91.5 38zM277 607q0 37 -26 63t-63 26q-38 0 -64.5 -26t-26.5 -63t26.5 -63t64.5 -26q37 0 63 26t26 63z" />
    <glyph glyph-name="plusminus" unicode="&#xb1;" horiz-adv-x="608" 
d="M340 378h220v-81h-220v-157h-80v157h-219v81h219v157h80v-157zM41 0v80h519v-80h-519z" />
    <glyph glyph-name="twosuperior" unicode="&#xb2;" horiz-adv-x="270" 
d="M207 464h17l-23 -85h-170l104 152q38 65 4 102q-25 26 -59 15q-24 -8 -35 -32l-16 3q3 24 13.5 41.5t23.5 25.5t25.5 12.5t20.5 5.5h9q34 0 56 -22t22 -53q0 -43 -50 -104l-60 -87h77q27 0 41 26z" />
    <glyph glyph-name="threesuperior" unicode="&#xb3;" horiz-adv-x="276" 
d="M236 485q3 -55 -33.5 -84t-75.5 -29q-47 0 -80 26q-17 12 -12 35q3 14 15.5 22t26.5 5q14 -4 22 -16.5t5 -26.5q-5 -15 -17 -20q-5 -2 5 -5q11 -4 35 -4q28 0 43 24.5t9 51.5q-11 59 -85 68v18q35 11 49.5 31t10 38.5t-19.5 29.5q-16 14 -39.5 9t-35.5 -30l-17 2
q4 33 24.5 51.5t39.5 20.5l18 2q33 0 58 -20t25 -54t-36 -69q30 -11 46.5 -32.5t18.5 -43.5z" />
    <glyph glyph-name="acute" unicode="&#xb4;" horiz-adv-x="372" 
d="M87 558l169 163l112 -35l-244 -128h-37z" />
    <glyph glyph-name="mu" unicode="&#xb5;" horiz-adv-x="557" 
d="M336 64q-20 -36 -61.5 -54.5t-83.5 -18.5v-148q0 -36 10 -48.5t42 -15.5v-17l-147 -26q-13 -2 -20 2.5t-8 10.5l-1 6v603v26.5t-1.5 17.5t-4.5 14.5t-10 8t-16 7t-24 3.5v17l180 19v-324q0 -83 84 -83q28 0 50 17zM487 92q0 -35 9 -44t42 -13v-17l-148 -26q-12 -2 -19 3
t-8 11l-1 5v344v12q0 41 -6.5 52.5t-40.5 15.5v17l172 19v-379z" />
    <glyph glyph-name="paragraph" unicode="&#xb6;" horiz-adv-x="657" 
d="M581 687q-36 0 -59 -43.5t-23 -98.5v-646q0 -61 20 -104t55 -43v-17h-145v969h152v-17zM288 704h70v-969h-205v17q22 0 42 5t42.5 19t36 45.5t13.5 77.5v401q-56 0 -97.5 8.5t-78 29t-55.5 61.5t-19 101q0 202 250 204h1z" />
    <glyph glyph-name="periodcentered" unicode="&#xb7;" 
d="M198 299q0 -25 -17.5 -42.5t-42.5 -17.5t-42.5 17.5t-17.5 42.5t17.5 42.5t42.5 17.5t42.5 -17.5t17.5 -42.5z" />
    <glyph glyph-name="cedilla" unicode="&#xb8;" 
d="M98 -66q73 22 111 -8t33 -75q-4 -31 -24 -51t-40.5 -26t-40.5 -6q-47 0 -71 21q-14 11 -11 31q3 13 14 19.5t24 3.5q29 -7 24 -37q-1 -9 -8 -14q-1 -1 0 -3t8 -3.5t20 -1.5q24 0 37.5 15t12.5 39q0 23 -24.5 50t-73.5 19z" />
    <glyph glyph-name="onesuperior" unicode="&#xb9;" horiz-adv-x="232" 
d="M150 435q0 -38 40 -38v-17h-147v17q46 0 46 38v174q0 16 -9.5 19.5t-19.5 -1.5l-9 -5l-12 17l95 65h16v-269z" />
    <glyph glyph-name="ordmasculine" unicode="&#xba;" horiz-adv-x="329" 
d="M164 707q129 0 129 -170q0 -164 -129 -164q-72 0 -101 43.5t-29 120.5q0 170 130 170zM164 390q30 0 43 29t13 118q0 90 -14 121.5t-42 31.5q-30 0 -43.5 -31.5t-13.5 -121.5q0 -89 14 -118t43 -29z" />
    <glyph glyph-name="guillemotright" unicode="&#xbb;" horiz-adv-x="609" 
d="M288 466v39l231 -239l-231 -233v39l123 194zM84 466v39l231 -239l-231 -233v39l122 194z" />
    <glyph glyph-name="onequarter" unicode="&#xbc;" horiz-adv-x="654" 
d="M120 644q0 17 -10 20t-20 -3l-10 -6l-11 16l97 75h17v-314q0 -14 3.5 -23t10.5 -12t12 -4t14 -1v-17h-150v17q14 0 22.5 1.5t16.5 11t8 27.5v212zM583 103h-54v-20q0 -30 7.5 -45.5t15 -18t21.5 -2.5v-17h-164v17q10 0 16.5 1.5t13.5 7t10.5 19.5t3.5 36v22h-121v9
l170 255l27 -3v-225h54v-36zM453 139v122l-63 -94q-8 -13 -7.5 -19.5t4 -7.5t10.5 -1h56zM570 708h65l-557 -672h-64z" />
    <glyph glyph-name="onehalf" unicode="&#xbd;" horiz-adv-x="655" 
d="M596 97h17l-27 -97h-193l118 174q42 71 7 113q-25 30 -64 20q-30 -8 -44 -38l-16 5q3 27 14.5 47.5t26 29.5t28 14.5t23.5 6.5h9q39 0 64 -25.5t25 -61.5q0 -46 -59 -118l-69 -99h89q35 0 51 29zM570 708h65l-557 -672h-64zM120 644q0 17 -10 20t-20 -3l-10 -6l-11 16
l97 75h17v-314q0 -14 3.5 -23t10.5 -12t12 -4t14 -1v-17h-150v17q14 0 22.5 1.5t16.5 11t8 27.5v212z" />
    <glyph glyph-name="threequarters" unicode="&#xbe;" horiz-adv-x="656" 
d="M570 708h65l-557 -672h-64zM271 499q0 -66 -39 -96.5t-83 -30.5q-56 0 -92 28q-18 13 -13 39q3 16 17 25t30 6q16 -4 25 -18t6 -31q-7 -17 -14 -20t4.5 -7.5t36.5 -4.5q36 0 49 26t8 61q-16 72 -96 82v15q40 12 56 35t11 43t-21 33q-17 14 -44 7.5t-40 -34.5l-18 6
q4 37 26.5 57.5t43.5 23.5l20 2q38 0 66 -22.5t27.5 -61t-40.5 -77.5q33 -10 52 -35t22 -51zM583 103h-54v-20q0 -30 7.5 -45.5t15 -18t21.5 -2.5v-17h-164v17q10 0 16.5 1.5t13.5 7t10.5 19.5t3.5 36v22h-121v9l170 255l27 -3v-225h54v-36zM453 139v122l-63 -94
q-8 -13 -7.5 -19.5t4 -7.5t10.5 -1h56z" />
    <glyph glyph-name="questiondown" unicode="&#xbf;" horiz-adv-x="605" 
d="M328 306q-35 0 -60 24.5t-25 59.5t25 60t60 25t59.5 -25t24.5 -60t-24.5 -59.5t-59.5 -24.5zM407 -154q-16 23 -11 50.5t27 44.5q23 16 50.5 10t44.5 -29q19 -26 7 -69q-5 -22 -26 -48.5t-54 -41.5l-6 18q11 7 15.5 16t2.5 15t-8 7q-25 4 -42 27zM386 -257
q-73 -14 -135 -2t-104.5 53.5t-45.5 99.5q-2 52 11.5 93t37 66t47 39.5t48.5 20.5q41 11 63.5 42.5t18.5 75.5l26 4q16 -102 -53 -159q-36 -31 -48.5 -70t-5.5 -108q5 -65 44 -102t91 -35z" />
    <glyph glyph-name="Agrave" unicode="&#xc0;" horiz-adv-x="708" 
d="M610 90q7 -17 13.5 -29.5t13.5 -20t11.5 -12t12.5 -7t11 -3t11.5 -1t10.5 -0.5v-17h-286v17q22 0 32.5 11t10.5 26.5t-3.5 31.5t-8.5 27l-5 11l-30 73h-237q-1 -4 -3 -10.5t-5.5 -26t-4 -37t4.5 -38.5t16 -36t33.5 -24.5t54.5 -7.5v-17h-246v17q10 1 12.5 1.5t13 5.5
t18.5 17t22 32.5t30.5 56t37.5 84.5h247l-127 311l68 179h17zM316 898l169 -163h-37l-244 128z" />
    <glyph glyph-name="Aacute" unicode="&#xc1;" horiz-adv-x="708" 
d="M610 90q7 -17 13.5 -29.5t13.5 -20t11.5 -12t12.5 -7t11 -3t11.5 -1t10.5 -0.5v-17h-286v17q22 0 32.5 11t10.5 26.5t-3.5 31.5t-8.5 27l-5 11l-30 73h-237q-1 -4 -3 -10.5t-5.5 -26t-4 -37t4.5 -38.5t16 -36t33.5 -24.5t54.5 -7.5v-17h-246v17q10 1 12.5 1.5t13 5.5
t18.5 17t22 32.5t30.5 56t37.5 84.5h247l-127 311l68 179h17zM223 735l169 163l112 -35l-244 -128h-37z" />
    <glyph glyph-name="Acircumflex" unicode="&#xc2;" horiz-adv-x="708" 
d="M610 90q7 -17 13.5 -29.5t13.5 -20t11.5 -12t12.5 -7t11 -3t11.5 -1t10.5 -0.5v-17h-286v17q22 0 32.5 11t10.5 26.5t-3.5 31.5t-8.5 27l-5 11l-30 73h-237q-1 -4 -3 -10.5t-5.5 -26t-4 -37t4.5 -38.5t16 -36t33.5 -24.5t54.5 -7.5v-17h-246v17q10 1 12.5 1.5t13 5.5
t18.5 17t22 32.5t30.5 56t37.5 84.5h247l-127 311l68 179h17zM229 735h-36l155 187l155 -187h-37l-118 77z" />
    <glyph glyph-name="Atilde" unicode="&#xc3;" horiz-adv-x="708" 
d="M395 750l-120 43q-20 5 -48 5.5t-59 -14t-43 -39.5l-15 6q20 49 47 80.5t51.5 42t46 14t34.5 0.5l13 -3l119 -44q32 -11 82.5 1.5t68.5 49.5l15 -8q-20 -49 -47.5 -80.5t-51.5 -42t-45.5 -14t-34.5 -0.5zM610 90q7 -17 13.5 -29.5t13.5 -20t11.5 -12t12.5 -7t11 -3
t11.5 -1t10.5 -0.5v-17h-286v17q22 0 32.5 11t10.5 26.5t-3.5 31.5t-8.5 27l-5 11l-30 73h-237q-1 -4 -3 -10.5t-5.5 -26t-4 -37t4.5 -38.5t16 -36t33.5 -24.5t54.5 -7.5v-17h-246v17q10 1 12.5 1.5t13 5.5t18.5 17t22 32.5t30.5 56t37.5 84.5h247l-127 311l68 179h17z" />
    <glyph glyph-name="Adieresis" unicode="&#xc4;" horiz-adv-x="708" 
d="M256 774q-24 0 -41.5 17t-17.5 42q0 24 17.5 41.5t41.5 17.5q25 0 42 -17.5t17 -41.5q0 -25 -17 -42t-42 -17zM444 774q-24 0 -41.5 17t-17.5 42q0 24 17.5 41.5t41.5 17.5q25 0 42.5 -17.5t17.5 -41.5q0 -25 -17.5 -42t-42.5 -17zM610 90q7 -17 13.5 -29.5t13.5 -20
t11.5 -12t12.5 -7t11 -3t11.5 -1t10.5 -0.5v-17h-286v17q22 0 32.5 11t10.5 26.5t-3.5 31.5t-8.5 27l-5 11l-30 73h-237q-1 -4 -3 -10.5t-5.5 -26t-4 -37t4.5 -38.5t16 -36t33.5 -24.5t54.5 -7.5v-17h-246v17q10 1 12.5 1.5t13 5.5t18.5 17t22 32.5t30.5 56t37.5 84.5h247
l-127 311l68 179h17z" />
    <glyph glyph-name="Aring" unicode="&#xc5;" horiz-adv-x="708" 
d="M350 775q-44 0 -74.5 30.5t-30.5 74.5t31 75t74 31q44 0 75 -31t31 -75q0 -43 -31 -74t-75 -31zM350 940q-25 0 -42.5 -17.5t-17.5 -42.5t17.5 -42.5t42.5 -17.5t42.5 17.5t17.5 42.5t-17.5 42.5t-42.5 17.5zM610 90q7 -17 13.5 -29.5t13.5 -20t11.5 -12t12.5 -7t11 -3
t11.5 -1t10.5 -0.5v-17h-286v17q22 0 32.5 11t10.5 26.5t-3.5 31.5t-8.5 27l-5 11l-30 73h-237q-1 -4 -3 -10.5t-5.5 -26t-4 -37t4.5 -38.5t16 -36t33.5 -24.5t54.5 -7.5v-17h-246v17q10 1 12.5 1.5t13 5.5t18.5 17t22 32.5t30.5 56t37.5 84.5h247l-127 311l68 179h17z" />
    <glyph glyph-name="AE" unicode="&#xc6;" horiz-adv-x="996" 
d="M903 513q-5 39 -27 70.5t-48.5 49t-62 30t-60 17t-49.5 6.5v18h264v-191h-17zM594 704v-704h-222v17q37 0 56.5 23.5t19.5 95.5v106h-214q-25 -47 -38.5 -83.5t-16.5 -60t3 -40t14 -24.5t23.5 -12t23.5 -4.5t22 -0.5h4v-17h-257v17q69 6 207 242h229v307q0 67 -22 94
t-70 27v17h238zM934 216v-216h-278v19q24 2 49.5 7t61 19t64 34.5t53 56t33.5 80.5h17zM772 242q-5 50 -40.5 74t-75.5 29v18q40 5 75.5 29t40.5 74h17v-224h-17z" />
    <glyph glyph-name="Ccedilla" unicode="&#xc7;" horiz-adv-x="689" 
d="M615 210h17l14 -157q-88 -58 -228 -61v18q74 11 126 66.5t71 133.5zM418 694v19q159 -5 228 -61l-14 -157h-17q-40 96 -84.5 143t-112.5 56zM40 352q0 145 86 247t230 113v-18q-71 -11 -103.5 -87t-32.5 -255q0 -178 33 -254.5t103 -87.5v-18q-144 11 -230 113t-86 247z
M349 -68q73 22 111 -8t33 -75q-4 -31 -24 -51t-40.5 -26t-40.5 -6q-47 0 -71 21q-14 11 -11 31q3 13 14 19.5t24 3.5q29 -7 24 -37q-1 -9 -8 -14q-1 -1 0 -3t8 -3.5t20 -1.5q24 0 37.5 15t12.5 39q0 23 -24.5 50t-73.5 19z" />
    <glyph glyph-name="Egrave" unicode="&#xc8;" horiz-adv-x="648" 
d="M590 218v-218h-298v18q27 3 53 8t65 19t69.5 34.5t57 56.5t36.5 82h17zM230 704v-704h-203v17q58 0 58 120v429q0 121 -58 121v17h203zM560 514q-7 49 -39 84.5t-78 53t-81 24.5t-70 10v18h285v-190h-17zM292 366q120 13 136 102h17v-225h-17q-16 89 -136 102v21z
M275 898l169 -163h-37l-244 128z" />
    <glyph glyph-name="Eacute" unicode="&#xc9;" horiz-adv-x="648" 
d="M590 218v-218h-298v18q27 3 53 8t65 19t69.5 34.5t57 56.5t36.5 82h17zM230 704v-704h-203v17q58 0 58 120v429q0 121 -58 121v17h203zM560 514q-7 49 -39 84.5t-78 53t-81 24.5t-70 10v18h285v-190h-17zM292 366q120 13 136 102h17v-225h-17q-16 89 -136 102v21z
M163 735l169 163l112 -35l-244 -128h-37z" />
    <glyph glyph-name="Ecircumflex" unicode="&#xca;" horiz-adv-x="648" 
d="M590 218v-218h-298v18q27 3 53 8t65 19t69.5 34.5t57 56.5t36.5 82h17zM230 704v-704h-203v17q58 0 58 120v429q0 121 -58 121v17h203zM560 514q-7 49 -39 84.5t-78 53t-81 24.5t-70 10v18h285v-190h-17zM292 366q120 13 136 102h17v-225h-17q-16 89 -136 102v21z
M189 735h-36l155 187l155 -187h-37l-118 77z" />
    <glyph glyph-name="Edieresis" unicode="&#xcb;" horiz-adv-x="648" 
d="M210 774q-24 0 -41.5 17t-17.5 42q0 24 17.5 41.5t41.5 17.5q25 0 42 -17.5t17 -41.5q0 -25 -17 -42t-42 -17zM398 774q-24 0 -41.5 17t-17.5 42q0 24 17.5 41.5t41.5 17.5q25 0 42.5 -17.5t17.5 -41.5q0 -25 -17.5 -42t-42.5 -17zM590 218v-218h-298v18q27 3 53 8t65 19
t69.5 34.5t57 56.5t36.5 82h17zM230 704v-704h-203v17q58 0 58 120v429q0 121 -58 121v17h203zM560 514q-7 49 -39 84.5t-78 53t-81 24.5t-70 10v18h285v-190h-17zM292 366q120 13 136 102h17v-225h-17q-16 89 -136 102v21z" />
    <glyph glyph-name="Igrave" unicode="&#xcc;" horiz-adv-x="388" 
d="M37 704h315v-17q-35 0 -60 -22.5t-25 -66.5v-476q0 -49 25.5 -77t59.5 -28v-17h-315v17q34 0 59.5 28t25.5 77v476q0 44 -24.5 66.5t-60.5 22.5v17zM156 898l169 -163h-37l-244 128z" />
    <glyph glyph-name="Iacute" unicode="&#xcd;" horiz-adv-x="388" 
d="M352 704h-315v-17q36 0 60.5 -22.5t24.5 -66.5v-476q0 -49 -25.5 -77t-59.5 -28v-17h315v17q-34 0 -59.5 28t-25.5 77v476q0 44 25 66.5t60 22.5v17zM53 735l169 163l112 -35l-244 -128h-37z" />
    <glyph glyph-name="Icircumflex" unicode="&#xce;" horiz-adv-x="388" 
d="M37 704h315v-17q-35 0 -60 -22.5t-25 -66.5v-476q0 -49 25.5 -77t59.5 -28v-17h-315v17q34 0 59.5 28t25.5 77v476q0 44 -24.5 66.5t-60.5 22.5v17zM76 735h-36l155 187l155 -187h-37l-118 77z" />
    <glyph glyph-name="Idieresis" unicode="&#xcf;" horiz-adv-x="388" 
d="M101 774q-24 0 -41.5 17t-17.5 42q0 24 17.5 41.5t41.5 17.5q25 0 42 -17.5t17 -41.5q0 -25 -17 -42t-42 -17zM289 774q-24 0 -41.5 17t-17.5 42q0 24 17.5 41.5t41.5 17.5q25 0 42.5 -17.5t17.5 -41.5q0 -25 -17.5 -42t-42.5 -17zM352 704h-315v-17q36 0 60.5 -22.5
t24.5 -66.5v-476q0 -49 -25.5 -77t-59.5 -28v-17h315v17q-34 0 -59.5 28t-25.5 77v476q0 44 25 66.5t60 22.5v17z" />
    <glyph glyph-name="Eth" unicode="&#xd0;" horiz-adv-x="764" 
d="M257 343v-343h-220v17q32 0 53.5 34.5t21.5 85.5v206h-74v18h74v205q0 48 -21.5 84.5t-53.5 36.5v17h220v-343h146v-18h-146zM720 349q0 -341 -401 -349v17q28 1 51 6t50.5 17t48 35.5t39 58.5t28 90t9.5 125q0 84 -14.5 147t-36.5 98t-54 56.5t-59.5 28.5t-61.5 8v17
q63 -1 116.5 -11t108 -34.5t92 -63t61 -101.5t23.5 -145z" />
    <glyph glyph-name="Ntilde" unicode="&#xd1;" horiz-adv-x="840" 
d="M468 750l-120 43q-20 5 -48 5.5t-59 -14t-43 -39.5l-15 6q20 49 47 80.5t51.5 42t46 14t34.5 0.5l13 -3l119 -44q32 -11 82.5 1.5t68.5 49.5l15 -8q-20 -49 -47.5 -80.5t-51.5 -42t-45.5 -14t-34.5 -0.5zM184 255q0 -10 0.5 -26t8 -57t20.5 -72.5t41 -57t67 -25.5v-17
h-304v17q42 0 73 24.5t45 59.5t22 70t9 59l1 25h17zM9 704h245l420 -518v-186h-53l-493 616q-15 19 -29.5 32.5t-24 21t-21 11.5t-16 4.5t-15.5 1t-13 0.5v17zM520 687v17h303v-17q-42 0 -73 -24t-45 -59t-22 -70t-9 -60v-24h-17q0 5 -0.5 13.5t-3 33.5t-7 47t-14.5 49.5
t-24 47t-37 33t-51 13.5z" />
    <glyph glyph-name="Ograve" unicode="&#xd2;" horiz-adv-x="776" 
d="M212 347q0 -181 33 -254.5t108 -83.5v-17q-146 11 -229 110t-83 245t83.5 249t228.5 115v-18q-74 -10 -107.5 -87.5t-33.5 -258.5zM731 347q0 -147 -84 -246t-231 -109v17q76 9 109 82.5t33 255.5t-33.5 259t-108.5 88v17q146 -11 230.5 -114.5t84.5 -249.5zM352 898
l169 -163h-37l-244 128z" />
    <glyph glyph-name="Oacute" unicode="&#xd3;" horiz-adv-x="776" 
d="M212 347q0 -181 33 -254.5t108 -83.5v-17q-146 11 -229 110t-83 245t83.5 249t228.5 115v-18q-74 -10 -107.5 -87.5t-33.5 -258.5zM731 347q0 -147 -84 -246t-231 -109v17q76 9 109 82.5t33 255.5t-33.5 259t-108.5 88v17q146 -11 230.5 -114.5t84.5 -249.5zM246 735
l169 163l112 -35l-244 -128h-37z" />
    <glyph glyph-name="Ocircumflex" unicode="&#xd4;" horiz-adv-x="776" 
d="M212 347q0 -181 33 -254.5t108 -83.5v-17q-146 11 -229 110t-83 245t83.5 249t228.5 115v-18q-74 -10 -107.5 -87.5t-33.5 -258.5zM731 347q0 -147 -84 -246t-231 -109v17q76 9 109 82.5t33 255.5t-33.5 259t-108.5 88v17q146 -11 230.5 -114.5t84.5 -249.5zM271 735h-36
l155 187l155 -187h-37l-118 77z" />
    <glyph glyph-name="Otilde" unicode="&#xd5;" horiz-adv-x="776" 
d="M437 750l-120 43q-20 5 -48 5.5t-59 -14t-43 -39.5l-15 6q20 49 47 80.5t51.5 42t46 14t34.5 0.5l13 -3l119 -44q32 -11 82.5 1.5t68.5 49.5l15 -8q-20 -49 -47.5 -80.5t-51.5 -42t-45.5 -14t-34.5 -0.5zM212 347q0 -181 33 -254.5t108 -83.5v-17q-146 11 -229 110
t-83 245t83.5 249t228.5 115v-18q-74 -10 -107.5 -87.5t-33.5 -258.5zM731 347q0 -147 -84 -246t-231 -109v17q76 9 109 82.5t33 255.5t-33.5 259t-108.5 88v17q146 -11 230.5 -114.5t84.5 -249.5z" />
    <glyph glyph-name="Odieresis" unicode="&#xd6;" horiz-adv-x="776" 
d="M293 774q-24 0 -41.5 17t-17.5 42q0 24 17.5 41.5t41.5 17.5q25 0 42 -17.5t17 -41.5q0 -25 -17 -42t-42 -17zM481 774q-24 0 -41.5 17t-17.5 42q0 24 17.5 41.5t41.5 17.5q25 0 42.5 -17.5t17.5 -41.5q0 -25 -17.5 -42t-42.5 -17zM212 347q0 -181 33 -254.5t108 -83.5
v-17q-146 11 -229 110t-83 245t83.5 249t228.5 115v-18q-74 -10 -107.5 -87.5t-33.5 -258.5zM731 347q0 -147 -84 -246t-231 -109v17q76 9 109 82.5t33 255.5t-33.5 259t-108.5 88v17q146 -11 230.5 -114.5t84.5 -249.5z" />
    <glyph glyph-name="multiply" unicode="&#xd7;" horiz-adv-x="600" 
d="M540 432l-178 -178l178 -178l-62 -63l-178 178l-178 -178l-63 63l178 178l-178 178l63 63l178 -178l178 178z" />
    <glyph glyph-name="Oslash" unicode="&#xd8;" horiz-adv-x="777" 
d="M731 347q0 -147 -84 -246t-230 -109v18q50 6 79.5 37t45.5 103.5t16 196.5q0 151 -24 232l-292 -480q31 -80 112 -89v-18q-86 6 -150 44l-43 -71h-21l49 80q-71 47 -109.5 126t-38.5 176q0 146 84 249.5t229 114.5v-17q-75 -11 -108.5 -88t-33.5 -259q0 -153 23 -226
l292 480q-33 81 -110 92v18q81 -6 149 -45l48 79h21l-54 -88q72 -49 111 -131t39 -179z" />
    <glyph glyph-name="Ugrave" unicode="&#xd9;" horiz-adv-x="752" 
d="M340 898l169 -163h-37l-244 128zM405 51q63 0 114 50.5t51 138.5h17q0 -61 -17.5 -107.5t-43.5 -72.5t-61.5 -42.5t-65 -21.5t-59.5 -5q-106 0 -177 68.5t-71 186.5v353q0 44 -22.5 66t-57.5 22v17h318v-17q-93 0 -93 -88v-360q0 -86 47.5 -137t120.5 -51zM434 687v17
h302v-17q-42 0 -73 -15t-45 -37.5t-22 -44.5t-8 -38l-1 -15h-17q0 6 -0.5 16t-8 36t-20 46t-40.5 36t-67 16z" />
    <glyph glyph-name="Uacute" unicode="&#xda;" horiz-adv-x="752" 
d="M405 51q63 0 114 50.5t51 138.5h17q0 -61 -17.5 -107.5t-43.5 -72.5t-61.5 -42.5t-65 -21.5t-59.5 -5q-106 0 -177 68.5t-71 186.5v353q0 44 -22.5 66t-57.5 22v17h318v-17q-93 0 -93 -88v-360q0 -86 47.5 -137t120.5 -51zM434 687v17h302v-17q-42 0 -73 -15t-45 -37.5
t-22 -44.5t-8 -38l-1 -15h-17q0 6 -0.5 16t-8 36t-20 46t-40.5 36t-67 16zM246 735l169 163l112 -35l-244 -128h-37z" />
    <glyph glyph-name="Ucircumflex" unicode="&#xdb;" horiz-adv-x="752" 
d="M261 735h-36l155 187l155 -187h-37l-118 77zM405 51q63 0 114 50.5t51 138.5h17q0 -61 -17.5 -107.5t-43.5 -72.5t-61.5 -42.5t-65 -21.5t-59.5 -5q-106 0 -177 68.5t-71 186.5v353q0 44 -22.5 66t-57.5 22v17h318v-17q-93 0 -93 -88v-360q0 -86 47.5 -137t120.5 -51z
M434 687v17h302v-17q-42 0 -73 -15t-45 -37.5t-22 -44.5t-8 -38l-1 -15h-17q0 6 -0.5 16t-8 36t-20 46t-40.5 36t-67 16z" />
    <glyph glyph-name="Udieresis" unicode="&#xdc;" horiz-adv-x="752" 
d="M282 774q-24 0 -41.5 17t-17.5 42q0 24 17.5 41.5t41.5 17.5q25 0 42 -17.5t17 -41.5q0 -25 -17 -42t-42 -17zM470 774q-24 0 -41.5 17t-17.5 42q0 24 17.5 41.5t41.5 17.5q25 0 42.5 -17.5t17.5 -41.5q0 -25 -17.5 -42t-42.5 -17zM405 51q63 0 114 50.5t51 138.5h17
q0 -61 -17.5 -107.5t-43.5 -72.5t-61.5 -42.5t-65 -21.5t-59.5 -5q-106 0 -177 68.5t-71 186.5v353q0 44 -22.5 66t-57.5 22v17h318v-17q-93 0 -93 -88v-360q0 -86 47.5 -137t120.5 -51zM434 687v17h302v-17q-42 0 -73 -15t-45 -37.5t-22 -44.5t-8 -38l-1 -15h-17
q0 6 -0.5 16t-8 36t-20 46t-40.5 36t-67 16z" />
    <glyph glyph-name="Yacute" unicode="&#xdd;" horiz-adv-x="771" 
d="M456 121q0 -48 25.5 -76t59.5 -28v-17h-315v17q34 0 59.5 28t25.5 76v155q-65 116 -114 199t-65 109l-16 25q-20 35 -42.5 54t-35 22t-29.5 3v16h319v-16q-11 0 -17.5 -0.5t-18.5 -6.5t-15 -17t3 -34t25 -56l151 -247v-206zM458 687v17h300v-17q-123 0 -236 -221l-12 15
q2 4 5 11.5t9.5 29t10.5 41t3.5 43t-7 41t-25.5 29t-48 11.5zM275 735l169 163l112 -35l-244 -128h-37z" />
    <glyph glyph-name="Thorn" unicode="&#xde;" horiz-adv-x="665" 
d="M258 598v-477q0 -48 25 -76t59 -28v-17h-315v17q34 0 59.5 28t25.5 76v477q0 44 -24.5 66.5t-60.5 22.5v17h315v-17q-35 0 -59.5 -22.5t-24.5 -66.5zM470 374q0 59 -10.5 96.5t-33 56t-46.5 25t-60 7.5v17q59 -1 104 -7t86 -20t67 -36t41.5 -57t15.5 -82t-15.5 -81.5
t-41.5 -56.5t-67 -35.5t-86 -19t-104 -6.5v17q37 1 60.5 7t46 24t33 55.5t10.5 95.5z" />
    <glyph glyph-name="germandbls" unicode="&#xdf;" horiz-adv-x="624" 
d="M68 488q0 112 48.5 181t143.5 76v-17q-32 -14 -49 -68t-18 -101l-1 -47v-512h-164v17q26 8 33 33t7 72v366zM326 23q-9 -4 2 -10q5 -3 12 -4v-17q-60 5 -83 34q-26 28 -16 65q7 24 28.5 35.5t45.5 4.5q23 -7 35 -28.5t5 -44.5q-8 -25 -29 -35zM601 203q0 -85 -47 -142
t-152 -68v17q26 14 39.5 53t16 71t2.5 81q0 85 -58.5 139t-116.5 54v17q47 0 75 33t28 124q0 122 -65 146v17q178 -10 178 -169q0 -36 -11.5 -65t-28 -45t-36 -27t-33 -15t-21.5 -4q21 0 48.5 -6.5t60 -23t59 -40.5t44.5 -62.5t18 -84.5z" />
    <glyph glyph-name="agrave" unicode="&#xe0;" horiz-adv-x="526" 
d="M166 303q-19 -13 -42.5 -8.5t-36.5 23.5q-20 31 -3 60q24 40 64 64l7 -16q-18 -14 -13 -21q1 -1 2 -1q24 -3 37 -22q13 -20 9 -42.5t-24 -36.5zM474 52q21 0 27 17l17 -7q-7 -26 -40 -48.5t-77 -22.5q-4 0 -11 0.5t-24.5 5.5t-30.5 13.5t-24 27t-11 43.5v157
q-131 -29 -131 -120q0 -3 0.5 -7.5t4 -15.5t9.5 -20t19.5 -16t31.5 -7q19 0 29 5l12 -17q-53 -49 -119 -49q-5 0 -12.5 0.5t-27.5 6t-35 15t-27.5 30.5t-12.5 50q0 68 44 94.5t171 57.5l44 11v62q0 70 -31 105.5t-77 21.5l-7 15q17 6 35.5 8.5t28.5 2.5h10q92 0 129.5 -52
t37.5 -148v-149v-7.5t2.5 -16.5t7 -21.5t14.5 -17t24 -7.5zM232 704l169 -163h-37l-244 128z" />
    <glyph glyph-name="aacute" unicode="&#xe1;" horiz-adv-x="526" 
d="M166 303q-19 -13 -42.5 -8.5t-36.5 23.5q-20 31 -3 60q24 40 64 64l7 -16q-18 -14 -13 -21q1 -1 2 -1q24 -3 37 -22q13 -20 9 -42.5t-24 -36.5zM474 52q21 0 27 17l17 -7q-7 -26 -40 -48.5t-77 -22.5q-4 0 -11 0.5t-24.5 5.5t-30.5 13.5t-24 27t-11 43.5v157
q-131 -29 -131 -120q0 -3 0.5 -7.5t4 -15.5t9.5 -20t19.5 -16t31.5 -7q19 0 29 5l12 -17q-53 -49 -119 -49q-5 0 -12.5 0.5t-27.5 6t-35 15t-27.5 30.5t-12.5 50q0 68 44 94.5t171 57.5l44 11v62q0 70 -31 105.5t-77 21.5l-7 15q17 6 35.5 8.5t28.5 2.5h10q92 0 129.5 -52
t37.5 -148v-149v-7.5t2.5 -16.5t7 -21.5t14.5 -17t24 -7.5zM141 541l169 163l112 -35l-244 -128h-37z" />
    <glyph glyph-name="acircumflex" unicode="&#xe2;" horiz-adv-x="526" 
d="M166 303q-19 -13 -42.5 -8.5t-36.5 23.5q-20 31 -3 60q24 40 64 64l7 -16q-18 -14 -13 -21q1 -1 2 -1q24 -3 37 -22q13 -20 9 -42.5t-24 -36.5zM474 52q21 0 27 17l17 -7q-7 -26 -40 -48.5t-77 -22.5q-4 0 -11 0.5t-24.5 5.5t-30.5 13.5t-24 27t-11 43.5v157
q-131 -29 -131 -120q0 -3 0.5 -7.5t4 -15.5t9.5 -20t19.5 -16t31.5 -7q19 0 29 5l12 -17q-53 -49 -119 -49q-5 0 -12.5 0.5t-27.5 6t-35 15t-27.5 30.5t-12.5 50q0 68 44 94.5t171 57.5l44 11v62q0 70 -31 105.5t-77 21.5l-7 15q17 6 35.5 8.5t28.5 2.5h10q92 0 129.5 -52
t37.5 -148v-149v-7.5t2.5 -16.5t7 -21.5t14.5 -17t24 -7.5zM156 517h-36l155 187l155 -187h-37l-118 77z" />
    <glyph glyph-name="atilde" unicode="&#xe3;" horiz-adv-x="526" 
d="M316 547l-120 43q-20 5 -48 5.5t-59 -14t-43 -39.5l-15 6q20 49 47 80.5t51.5 42t46 14t34.5 0.5l13 -3l119 -44q32 -11 82.5 1.5t68.5 49.5l15 -8q-20 -49 -47.5 -80.5t-51.5 -42t-45.5 -14t-34.5 -0.5zM166 303q-19 -13 -42.5 -8.5t-36.5 23.5q-20 31 -3 60
q24 40 64 64l7 -16q-18 -14 -13 -21q1 -1 2 -1q24 -3 37 -22q13 -20 9 -42.5t-24 -36.5zM474 52q21 0 27 17l17 -7q-7 -26 -40 -48.5t-77 -22.5q-4 0 -11 0.5t-24.5 5.5t-30.5 13.5t-24 27t-11 43.5v157q-131 -29 -131 -120q0 -3 0.5 -7.5t4 -15.5t9.5 -20t19.5 -16t31.5 -7
q19 0 29 5l12 -17q-53 -49 -119 -49q-5 0 -12.5 0.5t-27.5 6t-35 15t-27.5 30.5t-12.5 50q0 68 44 94.5t171 57.5l44 11v62q0 70 -31 105.5t-77 21.5l-7 15q17 6 35.5 8.5t28.5 2.5h10q92 0 129.5 -52t37.5 -148v-149v-7.5t2.5 -16.5t7 -21.5t14.5 -17t24 -7.5z" />
    <glyph glyph-name="adieresis" unicode="&#xe4;" horiz-adv-x="526" 
d="M236 616q0 -25 -17 -42.5t-42 -17.5t-42 17.5t-17 42.5q0 24 17 41.5t42 17.5t42 -17.5t17 -41.5zM424 616q0 -25 -17 -42.5t-42 -17.5t-42 17.5t-17 42.5q0 24 17 41.5t42 17.5t42 -17.5t17 -41.5zM166 303q-19 -13 -42.5 -8.5t-36.5 23.5q-20 31 -3 60q24 40 64 64
l7 -16q-18 -14 -13 -21q1 -1 2 -1q24 -3 37 -22q13 -20 9 -42.5t-24 -36.5zM474 52q21 0 27 17l17 -7q-7 -26 -40 -48.5t-77 -22.5q-4 0 -11 0.5t-24.5 5.5t-30.5 13.5t-24 27t-11 43.5v157q-131 -29 -131 -120q0 -3 0.5 -7.5t4 -15.5t9.5 -20t19.5 -16t31.5 -7q19 0 29 5
l12 -17q-53 -49 -119 -49q-5 0 -12.5 0.5t-27.5 6t-35 15t-27.5 30.5t-12.5 50q0 68 44 94.5t171 57.5l44 11v62q0 70 -31 105.5t-77 21.5l-7 15q17 6 35.5 8.5t28.5 2.5h10q92 0 129.5 -52t37.5 -148v-149v-7.5t2.5 -16.5t7 -21.5t14.5 -17t24 -7.5z" />
    <glyph glyph-name="aring" unicode="&#xe5;" horiz-adv-x="526" 
d="M266 533q-44 0 -74.5 30.5t-30.5 74.5t30.5 74.5t74.5 30.5t74.5 -30.5t30.5 -74.5t-30.5 -74.5t-74.5 -30.5zM266 698q-25 0 -42.5 -17.5t-17.5 -42.5t17.5 -42.5t42.5 -17.5t42.5 17.5t17.5 42.5t-17.5 42.5t-42.5 17.5zM166 303q-19 -13 -42.5 -8.5t-36.5 23.5
q-20 31 -3 60q24 40 64 64l7 -16q-18 -14 -13 -21q1 -1 2 -1q24 -3 37 -22q13 -20 9 -42.5t-24 -36.5zM474 52q21 0 27 17l17 -7q-7 -26 -40 -48.5t-77 -22.5q-4 0 -11 0.5t-24.5 5.5t-30.5 13.5t-24 27t-11 43.5v157q-131 -29 -131 -120q0 -3 0.5 -7.5t4 -15.5t9.5 -20
t19.5 -16t31.5 -7q19 0 29 5l12 -17q-53 -49 -119 -49q-5 0 -12.5 0.5t-27.5 6t-35 15t-27.5 30.5t-12.5 50q0 68 44 94.5t171 57.5l44 11v62q0 70 -31 105.5t-77 21.5l-7 15q17 6 35.5 8.5t28.5 2.5h10q92 0 129.5 -52t37.5 -148v-149v-7.5t2.5 -16.5t7 -21.5t14.5 -17
t24 -7.5z" />
    <glyph glyph-name="ae" unicode="&#xe6;" horiz-adv-x="739" 
d="M81 378l3 4q2 5 3 6t3.5 5.5t4.5 6.5t5.5 6.5t6.5 7t7.5 6.5t9 7.5t10.5 7.5l12 8l9 -14q-22 -16 -15 -22q1 -1 3 -1q20 -3 35 -24q13 -20 9 -42.5t-24 -36.5q-19 -13 -42.5 -8.5t-36.5 23.5q-20 31 -3 60zM526 76q39 -9 79 8.5t59 46.5l18 -9q-8 -24 -17.5 -43
t-29.5 -41t-54.5 -34.5t-81.5 -12.5q-72 0 -136.5 54t-70.5 152l-1 44q-15 -4 -30.5 -10.5t-39 -21t-38 -38t-14.5 -53.5v-7.5t3 -15.5t8.5 -20t18.5 -16t31 -7q39 0 62 23l11 -18q-51 -66 -147 -66q-5 0 -12.5 0.5t-27.5 6t-35 15t-27.5 30.5t-12.5 50q0 37 13 61t43 41
t70 29.5t103 29.5q14 3 21 5v59q0 68 -28 103.5t-71 24.5l-8 15q16 5 32 7.5t24 2.5h8q80 0 119 -67q60 59 118 65v-17q-33 -13 -51.5 -70t-18.5 -125h170q0 174 -58 195v18q93 -5 131.5 -60t38.5 -170h-282q9 -141 111 -164z" />
    <glyph glyph-name="ccedilla" unicode="&#xe7;" horiz-adv-x="499" 
d="M357 433q8 3 -9 12q-9 4 -23 7v18q64 -6 110 -43q31 -28 20 -67q-8 -27 -31.5 -41t-50.5 -7t-41 31t-6 50q6 26 31 40zM450 129l14 -9q-13 -48 -64 -88.5t-135 -40.5q-94 0 -157 74.5t-63 167.5q0 89 63.5 159.5t174.5 77.5v-19q-43 -10 -77.5 -56.5t-34.5 -143.5
q0 -143 127 -171q37 -8 86 8t66 41zM213 -67q73 22 111 -8t33 -75q-4 -31 -24 -51t-40.5 -26t-40.5 -6q-47 0 -71 21q-14 11 -11 31q3 13 14 19.5t24 3.5q29 -7 24 -37q-1 -9 -8 -14q-1 -1 0 -3t8 -3.5t20 -1.5q24 0 37.5 15t12.5 39q0 23 -24.5 50t-73.5 19z" />
    <glyph glyph-name="egrave" unicode="&#xe8;" horiz-adv-x="524" 
d="M290 76q43 -10 92 5.5t67 49.5l17 -9q-15 -50 -67 -90.5t-142 -40.5q-95 0 -158 73t-63 165q0 99 58 166t152 74v-16q-36 -14 -58.5 -72t-22.5 -124h196q0 79 -20 131t-54 65v17q100 -4 148 -61t48 -169h-318q6 -71 39 -111.5t86 -52.5zM228 704l169 -163h-37l-244 128z
" />
    <glyph glyph-name="eacute" unicode="&#xe9;" horiz-adv-x="524" 
d="M290 76q43 -10 92 5.5t67 49.5l17 -9q-15 -50 -67 -90.5t-142 -40.5q-95 0 -158 73t-63 165q0 99 58 166t152 74v-16q-36 -14 -58.5 -72t-22.5 -124h196q0 79 -20 131t-54 65v17q100 -4 148 -61t48 -169h-318q6 -71 39 -111.5t86 -52.5zM127 541l169 163l112 -35
l-244 -128h-37z" />
    <glyph glyph-name="ecircumflex" unicode="&#xea;" horiz-adv-x="524" 
d="M290 76q43 -10 92 5.5t67 49.5l17 -9q-15 -50 -67 -90.5t-142 -40.5q-95 0 -158 73t-63 165q0 99 58 166t152 74v-16q-36 -14 -58.5 -72t-22.5 -124h196q0 79 -20 131t-54 65v17q100 -4 148 -61t48 -169h-318q6 -71 39 -111.5t86 -52.5zM138 517h-36l155 187l155 -187
h-37l-118 77z" />
    <glyph glyph-name="edieresis" unicode="&#xeb;" horiz-adv-x="524" 
d="M226 616q0 -25 -17 -42.5t-42 -17.5t-42 17.5t-17 42.5q0 24 17 41.5t42 17.5t42 -17.5t17 -41.5zM414 616q0 -25 -17 -42.5t-42 -17.5t-42 17.5t-17 42.5q0 24 17 41.5t42 17.5t42 -17.5t17 -41.5zM290 76q43 -10 92 5.5t67 49.5l17 -9q-15 -50 -67 -90.5t-142 -40.5
q-95 0 -158 73t-63 165q0 99 58 166t152 74v-16q-36 -14 -58.5 -72t-22.5 -124h196q0 79 -20 131t-54 65v17q100 -4 148 -61t48 -169h-318q6 -71 39 -111.5t86 -52.5z" />
    <glyph glyph-name="igrave" unicode="&#xec;" horiz-adv-x="282" 
d="M203 122q0 -48 8 -73t33 -32v-17h-205v17q26 8 33 33t7 72v222q0 26 -10 40t-41 30v17l175 40v-349zM108 704l169 -163h-37l-244 128z" />
    <glyph glyph-name="iacute" unicode="&#xed;" horiz-adv-x="282" 
d="M203 122q0 -48 8 -73t33 -32v-17h-205v17q26 8 33 33t7 72v222q0 26 -10 40t-41 30v17l175 40v-349zM9 541l169 163l112 -35l-244 -128h-37z" />
    <glyph glyph-name="icircumflex" unicode="&#xee;" horiz-adv-x="282" 
d="M203 122q0 -48 8 -73t33 -32v-17h-205v17q26 8 33 33t7 72v222q0 26 -10 40t-41 30v17l175 40v-349zM34 517h-36l155 187l155 -187h-37l-118 77z" />
    <glyph glyph-name="idieresis" unicode="&#xef;" horiz-adv-x="282" 
d="M102 616q0 -25 -17 -42.5t-42 -17.5t-42 17.5t-17 42.5q0 24 17 41.5t42 17.5t42 -17.5t17 -41.5zM290 616q0 -25 -17 -42.5t-42 -17.5t-42 17.5t-17 42.5q0 24 17 41.5t42 17.5t42 -17.5t17 -41.5zM203 122q0 -48 8 -73t33 -32v-17h-205v17q26 8 33 33t7 72v222
q0 26 -10 40t-41 30v17l175 40v-349z" />
    <glyph glyph-name="eth" unicode="&#xf0;" horiz-adv-x="579" 
d="M417 642q124 -106 124 -324q0 -143 -57 -229t-166 -97v19q36 18 50.5 94t14.5 227q-22 39 -50.5 57t-53.5 18q-42 0 -68 -56t-26 -153q0 -94 16.5 -136t53.5 -51v-19q-96 9 -156.5 66.5t-60.5 159.5q0 93 46.5 156t145.5 63q112 0 153 -69q-3 154 -41 235l-170 -86
l-13 14l174 90q-48 75 -150 75v17q127 0 217 -58l103 53l15 -14z" />
    <glyph glyph-name="ntilde" unicode="&#xf1;" horiz-adv-x="539" 
d="M312 547l-120 43q-20 5 -48 5.5t-59 -14t-43 -39.5l-15 6q20 49 47 80.5t51.5 42t46 14t34.5 0.5l13 -3l119 -44q32 -11 82.5 1.5t68.5 49.5l15 -8q-20 -49 -47.5 -80.5t-51.5 -42t-45.5 -14t-34.5 -0.5zM185 120q0 -46 8.5 -71t32.5 -32v-17h-205v17q26 7 32.5 31
t6.5 72v226q0 26 -9.5 38.5t-40.5 29.5v17l175 40v-351zM476 122q0 -48 8 -73.5t33 -31.5v-17h-206v17q26 7 33 32.5t7 72.5v194q0 37 -22 60t-59 23q-18 0 -40 -12l-12 20q62 64 132 64q63 0 94.5 -33t31.5 -119v-197z" />
    <glyph glyph-name="ograve" unicode="&#xf2;" horiz-adv-x="555" 
d="M517 231q0 -97 -58 -164.5t-160 -74.5v18q41 6 55.5 52.5t14.5 168.5t-14.5 168.5t-55.5 52.5v18q102 -7 160 -74t58 -165zM188 231q0 -122 14.5 -168.5t55.5 -52.5v-18q-101 7 -159 74.5t-58 164.5q0 98 58 165t159 74v-18q-41 -6 -55.5 -52.5t-14.5 -168.5zM242 704
l169 -163h-37l-244 128z" />
    <glyph glyph-name="oacute" unicode="&#xf3;" horiz-adv-x="555" 
d="M517 231q0 -97 -58 -164.5t-160 -74.5v18q41 6 55.5 52.5t14.5 168.5t-14.5 168.5t-55.5 52.5v18q102 -7 160 -74t58 -165zM188 231q0 -122 14.5 -168.5t55.5 -52.5v-18q-101 7 -159 74.5t-58 164.5q0 98 58 165t159 74v-18q-41 -6 -55.5 -52.5t-14.5 -168.5zM149 541
l169 163l112 -35l-244 -128h-37z" />
    <glyph glyph-name="ocircumflex" unicode="&#xf4;" horiz-adv-x="555" 
d="M517 231q0 -97 -58 -164.5t-160 -74.5v18q41 6 55.5 52.5t14.5 168.5t-14.5 168.5t-55.5 52.5v18q102 -7 160 -74t58 -165zM188 231q0 -122 14.5 -168.5t55.5 -52.5v-18q-101 7 -159 74.5t-58 164.5q0 98 58 165t159 74v-18q-41 -6 -55.5 -52.5t-14.5 -168.5zM165 517
h-36l155 187l155 -187h-37l-118 77z" />
    <glyph glyph-name="otilde" unicode="&#xf5;" horiz-adv-x="555" 
d="M321 547l-120 43q-20 5 -48 5.5t-59 -14t-43 -39.5l-15 6q20 49 47 80.5t51.5 42t46 14t34.5 0.5l13 -3l119 -44q32 -11 82.5 1.5t68.5 49.5l15 -8q-20 -49 -47.5 -80.5t-51.5 -42t-45.5 -14t-34.5 -0.5zM517 231q0 -97 -58 -164.5t-160 -74.5v18q41 6 55.5 52.5
t14.5 168.5t-14.5 168.5t-55.5 52.5v18q102 -7 160 -74t58 -165zM188 231q0 -122 14.5 -168.5t55.5 -52.5v-18q-101 7 -159 74.5t-58 164.5q0 98 58 165t159 74v-18q-41 -6 -55.5 -52.5t-14.5 -168.5z" />
    <glyph glyph-name="odieresis" unicode="&#xf6;" horiz-adv-x="555" 
d="M244 616q0 -25 -17 -42.5t-42 -17.5t-42 17.5t-17 42.5q0 24 17 41.5t42 17.5t42 -17.5t17 -41.5zM432 616q0 -25 -17 -42.5t-42 -17.5t-42 17.5t-17 42.5q0 24 17 41.5t42 17.5t42 -17.5t17 -41.5zM517 231q0 -97 -58 -164.5t-160 -74.5v18q41 6 55.5 52.5t14.5 168.5
t-14.5 168.5t-55.5 52.5v18q102 -7 160 -74t58 -165zM188 231q0 -122 14.5 -168.5t55.5 -52.5v-18q-101 7 -159 74.5t-58 164.5q0 98 58 165t159 74v-18q-41 -6 -55.5 -52.5t-14.5 -168.5z" />
    <glyph glyph-name="divide" unicode="&#xf7;" horiz-adv-x="625" 
d="M581 230h-536v93h536v-93zM380 493q0 -28 -20 -48t-48 -20t-47.5 20t-19.5 48t19.5 48t47.5 20t48 -20t20 -48zM380 60q0 -28 -20 -48t-48 -20t-47.5 20t-19.5 48t19.5 47.5t47.5 19.5t48 -19.5t20 -47.5z" />
    <glyph glyph-name="oslash" unicode="&#xf8;" horiz-adv-x="557" 
d="M517 231q0 -97 -58 -164.5t-160 -74.5v17q41 7 55.5 53t14.5 169q0 77 -6 123l-166 -270q7 -37 21.5 -54t39.5 -21v-17q-58 3 -101 27l-53 -86h-17l58 94q-50 31 -77 85t-27 119q0 97 58 164.5t159 74.5v-18q-41 -7 -55.5 -53t-14.5 -168q0 -86 5 -125l167 270
q-7 37 -21.5 54t-39.5 22v17q55 -3 102 -27l51 83h17l-56 -90q104 -66 104 -204z" />
    <glyph glyph-name="ugrave" unicode="&#xf9;" horiz-adv-x="559" 
d="M493 92q0 -35 9 -44t42 -13v-17l-148 -26q-12 -2 -19 3t-8 11l-1 5v344v12q0 41 -6.5 52.5t-40.5 15.5v17l172 19v-379zM331 81l12 -20q-27 -30 -68 -50t-76 -20q-63 0 -94.5 33.5t-31.5 119.5v214v26.5t-1.5 17.5t-4.5 14.5t-10 8t-16 7t-24 3.5v17l180 19v-324
q0 -83 84 -83q28 0 50 17zM242 704l169 -163h-37l-244 128z" />
    <glyph glyph-name="uacute" unicode="&#xfa;" horiz-adv-x="559" 
d="M493 92q0 -35 9 -44t42 -13v-17l-148 -26q-12 -2 -19 3t-8 11l-1 5v344v12q0 41 -6.5 52.5t-40.5 15.5v17l172 19v-379zM331 81l12 -20q-27 -30 -68 -50t-76 -20q-63 0 -94.5 33.5t-31.5 119.5v214v26.5t-1.5 17.5t-4.5 14.5t-10 8t-16 7t-24 3.5v17l180 19v-324
q0 -83 84 -83q28 0 50 17zM149 541l169 163l112 -35l-244 -128h-37z" />
    <glyph glyph-name="ucircumflex" unicode="&#xfb;" horiz-adv-x="559" 
d="M493 92q0 -35 9 -44t42 -13v-17l-148 -26q-12 -2 -19 3t-8 11l-1 5v344v12q0 41 -6.5 52.5t-40.5 15.5v17l172 19v-379zM331 81l12 -20q-27 -30 -68 -50t-76 -20q-63 0 -94.5 33.5t-31.5 119.5v214v26.5t-1.5 17.5t-4.5 14.5t-10 8t-16 7t-24 3.5v17l180 19v-324
q0 -83 84 -83q28 0 50 17zM158 517h-36l155 187l155 -187h-37l-118 77z" />
    <glyph glyph-name="udieresis" unicode="&#xfc;" horiz-adv-x="559" 
d="M242 616q0 -25 -17 -42.5t-42 -17.5t-42 17.5t-17 42.5q0 24 17 41.5t42 17.5t42 -17.5t17 -41.5zM430 616q0 -25 -17 -42.5t-42 -17.5t-42 17.5t-17 42.5q0 24 17 41.5t42 17.5t42 -17.5t17 -41.5zM493 92q0 -35 9 -44t42 -13v-17l-148 -26q-12 -2 -19 3t-8 11l-1 5v344
v12q0 41 -6.5 52.5t-40.5 15.5v17l172 19v-379zM331 81l12 -20q-27 -30 -68 -50t-76 -20q-63 0 -94.5 33.5t-31.5 119.5v214v26.5t-1.5 17.5t-4.5 14.5t-10 8t-16 7t-24 3.5v17l180 19v-324q0 -83 84 -83q28 0 50 17z" />
    <glyph glyph-name="yacute" unicode="&#xfd;" horiz-adv-x="541" 
d="M330 462h196v-17q-12 0 -21.5 -3.5t-27 -16.5t-39 -47.5t-43.5 -88.5l-12 14q7 17 11 37t4.5 46t-17 42.5t-51.5 16.5v17zM337 136l-55 -145h-19l-189 415q-16 39 -63 39v17h236v-17q-23 0 -29.5 -15.5t-1.5 -30.5l5 -15zM242 -114h-18q-15 -39 -34 -41q-7 0 -9 6
q-9 30 -34 41q-26 12 -53 1.5t-39 -36.5q-11 -26 -1 -53t36 -39q18 -8 40.5 -5t36.5 15q47 37 75 111zM130 541l169 163l112 -35l-244 -128h-37z" />
    <glyph glyph-name="thorn" unicode="&#xfe;" horiz-adv-x="600" 
d="M556 227q0 -111 -62 -170t-165 -65v17q44 8 64 58t20 151q0 118 -28.5 167t-90.5 49q-43 0 -70 -30.5t-33 -77.5v-183q6 -62 32.5 -94.5t64.5 -39.5v-17q-58 5 -97 30v-173q0 -46 8 -68.5t33 -28.5v-17h-205v17q26 8 33 30t7 67v769q0 25 -9.5 34.5t-40.5 21.5v17l174 40
v-341q22 40 66.5 60.5t85.5 20.5q89 0 151 -65.5t62 -178.5z" />
    <glyph glyph-name="ydieresis" unicode="&#xff;" horiz-adv-x="541" 
d="M235 616q0 -25 -17 -42.5t-42 -17.5t-42 17.5t-17 42.5q0 24 17 41.5t42 17.5t42 -17.5t17 -41.5zM423 616q0 -25 -17 -42.5t-42 -17.5t-42 17.5t-17 42.5q0 24 17 41.5t42 17.5t42 -17.5t17 -41.5zM330 462h196v-17q-12 0 -21.5 -3.5t-27 -16.5t-39 -47.5t-43.5 -88.5
l-12 14q7 17 11 37t4.5 46t-17 42.5t-51.5 16.5v17zM337 136l-55 -145h-19l-189 415q-16 39 -63 39v17h236v-17q-23 0 -29.5 -15.5t-1.5 -30.5l5 -15zM242 -114h-18q-15 -39 -34 -41q-7 0 -9 6q-9 30 -34 41q-26 12 -53 1.5t-39 -36.5q-11 -26 -1 -53t36 -39q18 -8 40.5 -5
t36.5 15q47 37 75 111z" />
    <glyph glyph-name="Abreve" unicode="&#x102;" horiz-adv-x="708" 
d="M610 90q7 -17 13.5 -29.5t13.5 -20t11.5 -12t12.5 -7t11 -3t11.5 -1t10.5 -0.5v-17h-286v17q22 0 32.5 11t10.5 26.5t-3.5 31.5t-8.5 27l-5 11l-30 73h-237q-1 -4 -3 -10.5t-5.5 -26t-4 -37t4.5 -38.5t16 -36t33.5 -24.5t54.5 -7.5v-17h-246v17q10 1 12.5 1.5t13 5.5
t18.5 17t22 32.5t30.5 56t37.5 84.5h247l-127 311l68 179h17zM349 841q116 0 116 73h17q0 -63 -33 -105.5t-100 -42.5q-68 0 -102 42.5t-34 105.5h17q0 -73 119 -73z" />
    <glyph glyph-name="abreve" unicode="&#x103;" horiz-adv-x="527" 
d="M166 303q-19 -13 -42.5 -8.5t-36.5 23.5q-20 31 -3 60q24 40 64 64l7 -16q-18 -14 -13 -21q1 -1 2 -1q24 -3 37 -22q13 -20 9 -42.5t-24 -36.5zM474 52q21 0 27 17l17 -7q-7 -26 -40 -48.5t-77 -22.5q-4 0 -11 0.5t-24.5 5.5t-30.5 13.5t-24 27t-11 43.5v157
q-131 -29 -131 -120q0 -3 0.5 -7.5t4 -15.5t9.5 -20t19.5 -16t31.5 -7q19 0 29 5l12 -17q-53 -49 -119 -49q-5 0 -12.5 0.5t-27.5 6t-35 15t-27.5 30.5t-12.5 50q0 68 44 94.5t171 57.5l44 11v62q0 70 -31 105.5t-77 21.5l-7 15q17 6 35.5 8.5t28.5 2.5h10q92 0 129.5 -52
t37.5 -148v-149v-7.5t2.5 -16.5t7 -21.5t14.5 -17t24 -7.5zM265 631q116 0 116 73h17q0 -63 -33 -105.5t-100 -42.5q-68 0 -102 42.5t-34 105.5h17q0 -73 119 -73z" />
    <glyph glyph-name="Aogonek" unicode="&#x104;" horiz-adv-x="708" 
d="M641 0q-45 -24 -65 -53.5t-13 -58.5q5 -19 20.5 -28t28.5 -8l13 1q30 5 30 35h17q0 -20 -2.5 -32.5t-17 -27t-41.5 -19.5q-28 -4 -47.5 -0.5t-32 11.5t-19 16t-8.5 14l-3 7q-23 91 96 143h-189v17q22 0 32.5 11t10.5 26.5t-3.5 31.5t-8.5 27l-5 11l-30 73h-237
q-1 -4 -3 -10.5t-5.5 -26t-4 -37t4.5 -38.5t16 -36t33.5 -24.5t54.5 -7.5v-17h-246v17q10 1 12.5 1.5t13 5.5t18.5 17t22 32.5t30.5 56t37.5 84.5h247l-127 311l68 179h17l254 -614q7 -17 13.5 -29.5t13.5 -20t11.5 -12t12.5 -7t11 -3t11.5 -1t10.5 -0.5v-17h-53z" />
    <glyph glyph-name="aogonek" unicode="&#x105;" horiz-adv-x="527" 
d="M166 303q-19 -13 -42.5 -8.5t-36.5 23.5q-20 31 -3 60q24 40 64 64l7 -16q-18 -14 -13 -21q1 -1 2 -1q24 -3 37 -22q13 -20 9 -42.5t-24 -36.5zM442 -3q-86 -50 -72 -109q5 -19 20.5 -28t28.5 -8l13 1q30 5 30 35h17q0 -20 -2.5 -32.5t-17 -27t-41.5 -19.5
q-28 -4 -47.5 -0.5t-32 11.5t-19 16t-9.5 14l-2 7q-22 84 79 135q-19 3 -36 9.5t-34 27t-17 52.5v157q-131 -29 -131 -120q0 -3 0.5 -7.5t4 -15.5t9.5 -20t19.5 -16t31.5 -7q19 0 29 5l12 -17q-53 -49 -119 -49q-5 0 -12.5 0.5t-27.5 6t-35 15t-27.5 30.5t-12.5 50
q0 68 44 94.5t171 57.5l44 11v62q0 70 -31 105.5t-77 21.5l-7 15q17 6 35.5 8.5t28.5 2.5h10q92 0 129.5 -52t37.5 -148v-149v-7.5t2.5 -16.5t7 -21.5t14.5 -17t24 -7.5q21 0 27 17l17 -7q-5 -19 -25.5 -37.5t-50.5 -27.5z" />
    <glyph glyph-name="Cacute" unicode="&#x106;" horiz-adv-x="687" 
d="M615 210h17l14 -157q-88 -58 -228 -61v18q74 11 126 66.5t71 133.5zM418 694v19q159 -5 228 -61l-14 -157h-17q-40 96 -84.5 143t-112.5 56zM40 352q0 145 86 247t230 113v-18q-71 -11 -103.5 -87t-32.5 -255q0 -178 33 -254.5t103 -87.5v-18q-144 11 -230 113t-86 247z
M223 735l169 163l112 -35l-244 -128h-37z" />
    <glyph glyph-name="cacute" unicode="&#x107;" horiz-adv-x="500" 
d="M357 433q8 3 -9 12q-9 4 -23 7v18q64 -6 110 -43q31 -28 20 -67q-8 -27 -31.5 -41t-50.5 -7t-41 31t-6 50q6 26 31 40zM450 129l14 -9q-13 -48 -64 -88.5t-135 -40.5q-94 0 -157 74.5t-63 167.5q0 89 63.5 159.5t174.5 77.5v-19q-43 -10 -77.5 -56.5t-34.5 -143.5
q0 -143 127 -171q37 -8 86 8t66 41zM141 541l169 163l112 -35l-244 -128h-37z" />
    <glyph glyph-name="Ccaron" unicode="&#x10c;" horiz-adv-x="687" 
d="M615 210h17l14 -157q-88 -58 -228 -61v18q74 11 126 66.5t71 133.5zM418 694v19q159 -5 228 -61l-14 -157h-17q-40 96 -84.5 143t-112.5 56zM40 352q0 145 86 247t230 113v-18q-71 -11 -103.5 -87t-32.5 -255q0 -178 33 -254.5t103 -87.5v-18q-144 11 -230 113t-86 247z
M226 922h36l119 -77l118 77h37l-155 -187z" />
    <glyph glyph-name="ccaron" unicode="&#x10d;" horiz-adv-x="500" 
d="M357 433q8 3 -9 12q-9 4 -23 7v18q64 -6 110 -43q31 -28 20 -67q-8 -27 -31.5 -41t-50.5 -7t-41 31t-6 50q6 26 31 40zM450 129l14 -9q-13 -48 -64 -88.5t-135 -40.5q-94 0 -157 74.5t-63 167.5q0 89 63.5 159.5t174.5 77.5v-19q-43 -10 -77.5 -56.5t-34.5 -143.5
q0 -143 127 -171q37 -8 86 8t66 41zM128 704h36l119 -77l118 77h37l-155 -187z" />
    <glyph glyph-name="Dcaron" unicode="&#x10e;" horiz-adv-x="768" 
d="M319 704q63 -1 116.5 -11t108 -34.5t92 -63t61 -101.5t23.5 -145q0 -341 -401 -349v17q28 1 51 6t50.5 17t48 35.5t39 58.5t28 90t9.5 125q0 84 -14.5 147t-36.5 98t-54 56.5t-59.5 28.5t-61.5 8v17zM37 687v17h220v-704h-220v17q32 0 53.5 34.5t21.5 85.5v429
q0 48 -21.5 84.5t-53.5 36.5zM171 922h36l119 -77l118 77h37l-155 -187z" />
    <glyph glyph-name="dcaron" unicode="&#x10f;" horiz-adv-x="729" 
d="M599 704h97q0 -38 -13.5 -73.5t-33 -59t-39 -41.5t-32.5 -26l-14 -9l-13 15q5 4 13 15t21.5 60.5t13.5 118.5zM523 97q0 -37 10 -49.5t41 -16.5v-17l-147 -22q-12 -2 -19 2.5t-8 9.5l-1 6v62q-22 -40 -66.5 -60.5t-86.5 -20.5q-89 0 -151 66.5t-62 180.5q0 110 61.5 168
t164.5 64v-18q-44 -8 -64 -56t-20 -149q0 -120 26.5 -170.5t87.5 -50.5q50 0 80 33.5t30 86.5v141q0 77 -28 117t-71 48v17q57 -4 99 -28v191q0 26 -10 37.5t-41 22.5v17l175 37v-649z" />
    <glyph glyph-name="Dcroat" unicode="&#x110;" horiz-adv-x="768" 
d="M257 343v-343h-220v17q32 0 53.5 34.5t21.5 85.5v206h-74v18h74v205q0 48 -21.5 84.5t-53.5 36.5v17h220v-343h146v-18h-146zM720 349q0 -341 -401 -349v17q28 1 51 6t50.5 17t48 35.5t39 58.5t28 90t9.5 125q0 84 -14.5 147t-36.5 98t-54 56.5t-59.5 28.5t-61.5 8v17
q63 -1 116.5 -11t108 -34.5t92 -63t61 -101.5t23.5 -145z" />
    <glyph glyph-name="dcroat" unicode="&#x111;" horiz-adv-x="611" 
d="M297 568v17h102v47q0 26 -10 37.5t-41 22.5v17l175 37v-161h89v-17h-89v-471q0 -37 10 -49.5t41 -16.5v-17l-147 -22q-12 -2 -19 2.5t-8 9.5l-1 6v62q-22 -40 -66.5 -60.5t-86.5 -20.5q-89 0 -151 66.5t-62 180.5q0 110 61.5 168t164.5 64v-18q-44 -8 -64 -56t-20 -149
q0 -120 26.5 -170.5t87.5 -50.5q50 0 80 33.5t30 86.5v141q0 77 -28 117t-71 48v17q57 -4 99 -28v127h-102z" />
    <glyph glyph-name="Eogonek" unicode="&#x118;" horiz-adv-x="653" 
d="M428 243q-16 89 -136 102v21q120 13 136 102h17v-225h-17zM560 514q-7 49 -39 84.5t-78 53t-81 24.5t-70 10v18h285v-190h-17zM27 687v17h203v-704h-203v17q58 0 58 120v429q0 121 -58 121zM557 0q-45 -24 -65 -53.5t-13 -58.5q5 -19 20.5 -28t28.5 -8l13 1q30 5 30 35
h17q0 -20 -2.5 -32.5t-17 -27t-41.5 -19.5q-28 -4 -47.5 -0.5t-32 11.5t-19 16t-8.5 14l-3 7q-23 91 96 143h-221v18q27 3 53 8t65 19t69.5 34.5t57 56.5t36.5 82h17v-218h-33z" />
    <glyph glyph-name="eogonek" unicode="&#x119;" horiz-adv-x="524" 
d="M290 76q43 -10 92 5.5t67 49.5l17 -9q-14 -44 -56.5 -82t-116.5 -47q-79 -47 -66 -105q5 -19 20.5 -28t28.5 -8l13 1q30 5 30 35h17q0 -20 -2.5 -32.5t-17 -27t-41.5 -19.5q-28 -4 -47.5 -0.5t-32 11.5t-19 16t-8.5 14l-3 7q-22 84 78 135q-90 6 -148.5 77.5t-58.5 159.5
q0 99 58 166t152 74v-16q-36 -14 -58.5 -72t-22.5 -124h196q0 79 -20 131t-54 65v17q100 -4 148 -61t48 -169h-318q6 -71 39 -111.5t86 -52.5z" />
    <glyph glyph-name="Ecaron" unicode="&#x11a;" horiz-adv-x="653" 
d="M590 218v-218h-298v18q27 3 53 8t65 19t69.5 34.5t57 56.5t36.5 82h17zM230 704v-704h-203v17q58 0 58 120v429q0 121 -58 121v17h203zM560 514q-7 49 -39 84.5t-78 53t-81 24.5t-70 10v18h285v-190h-17zM292 366q120 13 136 102h17v-225h-17q-16 89 -136 102v21z
M171 922h36l119 -77l118 77h37l-155 -187z" />
    <glyph glyph-name="ecaron" unicode="&#x11b;" horiz-adv-x="524" 
d="M290 76q43 -10 92 5.5t67 49.5l17 -9q-15 -50 -67 -90.5t-142 -40.5q-95 0 -158 73t-63 165q0 99 58 166t152 74v-16q-36 -14 -58.5 -72t-22.5 -124h196q0 79 -20 131t-54 65v17q100 -4 148 -61t48 -169h-318q6 -71 39 -111.5t86 -52.5zM108 704h36l119 -77l118 77h37
l-155 -187z" />
    <glyph glyph-name="dotlessi" unicode="&#x131;" horiz-adv-x="282" 
d="M203 122q0 -48 8 -73t33 -32v-17h-205v17q26 8 33 33t7 72v222q0 26 -10 40t-41 30v17l175 40v-349z" />
    <glyph glyph-name="Lacute" unicode="&#x139;" horiz-adv-x="667" 
d="M605 217v-217h-290v18q35 4 69 12.5t80.5 28.5t80 61t43.5 97h17zM253 598v-598h-216v17q32 0 51.5 30.5t19.5 81.5v469q0 44 -22.5 66.5t-56.5 22.5v17h317v-17q-93 0 -93 -89zM162 735l169 163l112 -35l-244 -128h-37z" />
    <glyph glyph-name="lacute" unicode="&#x13a;" horiz-adv-x="265" 
d="M198 121q0 -47 8 -72.5t32 -31.5v-17h-205v17q26 7 33 32t7 72v506q0 27 -10 40.5t-40 24.5v17l175 37v-625zM-8 764l169 163l112 -35l-244 -128h-37z" />
    <glyph glyph-name="Lcaron" unicode="&#x13d;" horiz-adv-x="667" 
d="M378 704h97q0 -38 -13.5 -73.5t-33 -59t-39 -41.5t-33.5 -26l-13 -9l-13 15q5 4 13 15t21.5 60.5t13.5 118.5zM605 217v-217h-290v18q35 4 69 12.5t80.5 28.5t80 61t43.5 97h17zM253 598v-598h-216v17q32 0 51.5 30.5t19.5 81.5v469q0 44 -22.5 66.5t-56.5 22.5v17h317
v-17q-93 0 -93 -89z" />
    <glyph glyph-name="lcaron" unicode="&#x13e;" horiz-adv-x="422" 
d="M269 704h97q0 -38 -13.5 -73.5t-33 -59t-39 -41.5t-32.5 -26l-14 -9l-13 15q5 4 13 15t21.5 60.5t13.5 118.5zM198 121q0 -47 8 -72.5t32 -31.5v-17h-205v17q26 7 33 32t7 72v506q0 27 -10 40.5t-40 24.5v17l175 37v-625z" />
    <glyph glyph-name="Lslash" unicode="&#x141;" horiz-adv-x="676" 
d="M631 218v-218h-290v18q51 2 93.5 14.5t70 30.5t48.5 39t32 41.5t18 37t9 27.5l2 10h17zM279 361v-361h-217v17q31 0 51 34.5t20 86.5v141l-120 -67v20l120 67v299q0 44 -22 66.5t-57 22.5v17h318v-17q-93 0 -93 -89v-217l194 110v-20z" />
    <glyph glyph-name="lslash" unicode="&#x142;" horiz-adv-x="331" 
d="M11 270v20l90 58v279q0 27 -10 40.5t-40 24.5v17l175 37v-317l89 58v-20l-89 -58v-288q0 -47 8 -72.5t32 -31.5v-17h-205v17q26 7 33 32t7 72v207z" />
    <glyph glyph-name="Nacute" unicode="&#x143;" horiz-adv-x="840" 
d="M184 255q0 -10 0.5 -26t8 -57t20.5 -72.5t41 -57t67 -25.5v-17h-304v17q42 0 73 24.5t45 59.5t22 70t9 59l1 25h17zM9 704h245l420 -518v-186h-53l-493 616q-15 19 -29.5 32.5t-24 21t-21 11.5t-16 4.5t-15.5 1t-13 0.5v17zM520 687v17h303v-17q-42 0 -73 -24t-45 -59
t-22 -70t-9 -60v-24h-17q0 5 -0.5 13.5t-3 33.5t-7 47t-14.5 49.5t-24 47t-37 33t-51 13.5zM284 735l169 163l112 -35l-244 -128h-37z" />
    <glyph glyph-name="nacute" unicode="&#x144;" horiz-adv-x="539" 
d="M185 120q0 -46 8.5 -71t32.5 -32v-17h-205v17q26 7 32.5 31t6.5 72v226q0 26 -9.5 38.5t-40.5 29.5v17l175 40v-351zM476 122q0 -48 8 -73.5t33 -31.5v-17h-206v17q26 7 33 32.5t7 72.5v194q0 37 -22 60t-59 23q-18 0 -40 -12l-12 20q62 64 132 64q63 0 94.5 -33
t31.5 -119v-197zM154 541l169 163l112 -35l-244 -128h-37z" />
    <glyph glyph-name="Ncaron" unicode="&#x147;" horiz-adv-x="840" 
d="M184 255q0 -10 0.5 -26t8 -57t20.5 -72.5t41 -57t67 -25.5v-17h-304v17q42 0 73 24.5t45 59.5t22 70t9 59l1 25h17zM9 704h245l420 -518v-186h-53l-493 616q-15 19 -29.5 32.5t-24 21t-21 11.5t-16 4.5t-15.5 1t-13 0.5v17zM520 687v17h303v-17q-42 0 -73 -24t-45 -59
t-22 -70t-9 -60v-24h-17q0 5 -0.5 13.5t-3 33.5t-7 47t-14.5 49.5t-24 47t-37 33t-51 13.5zM268 922h36l119 -77l118 77h37l-155 -187z" />
    <glyph glyph-name="ncaron" unicode="&#x148;" horiz-adv-x="539" 
d="M185 120q0 -46 8.5 -71t32.5 -32v-17h-205v17q26 7 32.5 31t6.5 72v226q0 26 -9.5 38.5t-40.5 29.5v17l175 40v-351zM476 122q0 -48 8 -73.5t33 -31.5v-17h-206v17q26 7 33 32.5t7 72.5v194q0 37 -22 60t-59 23q-18 0 -40 -12l-12 20q62 64 132 64q63 0 94.5 -33
t31.5 -119v-197zM132 704h36l119 -77l118 77h37l-155 -187z" />
    <glyph glyph-name="Ohungarumlaut" unicode="&#x150;" horiz-adv-x="775" 
d="M212 347q0 -181 33 -254.5t108 -83.5v-17q-146 11 -229 110t-83 245t83.5 249t228.5 115v-18q-74 -10 -107.5 -87.5t-33.5 -258.5zM731 347q0 -147 -84 -246t-231 -109v17q76 9 109 82.5t33 255.5t-33.5 259t-108.5 88v17q146 -11 230.5 -114.5t84.5 -249.5zM235 735
l169 163l112 -35l-244 -128h-37zM415 735l169 163l112 -35l-244 -128h-37z" />
    <glyph glyph-name="ohungarumlaut" unicode="&#x151;" horiz-adv-x="556" 
d="M517 231q0 -97 -58 -164.5t-160 -74.5v18q41 6 55.5 52.5t14.5 168.5t-14.5 168.5t-55.5 52.5v18q102 -7 160 -74t58 -165zM188 231q0 -122 14.5 -168.5t55.5 -52.5v-18q-101 7 -159 74.5t-58 164.5q0 98 58 165t159 74v-18q-41 -6 -55.5 -52.5t-14.5 -168.5zM112 541
l169 163l112 -35l-244 -128h-37zM292 541l169 163l112 -35l-244 -128h-37z" />
    <glyph glyph-name="OE" unicode="&#x152;" horiz-adv-x="1004" 
d="M214 347q0 -187 26 -257.5t98 -79.5v-17q-144 9 -219.5 107t-75.5 247q0 150 75.5 252t219.5 113v-18q-71 -10 -97.5 -84.5t-26.5 -262.5zM941 218v-218h-258v19q23 2 46.5 7.5t56 19.5t59 34.5t48.5 56.5t31 81h17zM779 243q-8 86 -96 104v18q34 6 62.5 30t33.5 73h17
v-225h-17zM911 514q-10 49 -38 85t-65.5 53t-66.5 24.5t-58 9.5v18h245v-190h-17zM621 704v-704h-178q-19 -4 -43 -7v17q35 4 55.5 31t20.5 96v429q0 70 -20 97.5t-56 31.5v17q24 -4 40 -8h181z" />
    <glyph glyph-name="oe" unicode="&#x153;" horiz-adv-x="783" 
d="M188 229q0 -127 8.5 -170t41.5 -49v-18q-98 6 -147.5 71.5t-49.5 165.5t49.5 167t147.5 74v-19q-32 -7 -41 -51.5t-9 -170.5zM572 76q38 -9 78 9t60 46l19 -10q-7 -24 -17 -43t-29.5 -41t-52.5 -34t-78 -12q-76 0 -143 65q-52 -58 -130 -65v19q32 7 41 50.5t9 168.5
q0 122 -9.5 168.5t-40.5 53.5v19q82 -7 131 -68q60 60 120 68v-17q-33 -15 -48.5 -71t-15.5 -127h163q0 172 -58 198v17q89 -6 129.5 -62.5t40.5 -169.5h-275q3 -73 29 -112t77 -50z" />
    <glyph glyph-name="Racute" unicode="&#x154;" horiz-adv-x="728" 
d="M604 115q9 -35 34 -58.5t45.5 -31t37.5 -8.5v-17h-92h-52.5t-39 3.5t-30 4.5t-21 12.5t-17 17t-13 28t-14 37t-15 51.5t-20.5 64q-28 86 -110 101v19q35 1 58 7t44.5 23t32 53t10.5 92t-10.5 92t-32 53t-44.5 22.5t-58 6.5v17q59 -1 102.5 -6t84 -17.5t66 -33t40.5 -54.5
t15 -80q0 -87 -49.5 -128.5t-145.5 -52.5q56 6 108 -43.5t86 -173.5zM235 704v-583q0 -49 20.5 -76.5t53.5 -27.5v-17h-291v17q33 0 52.5 27t19.5 77v477q0 89 -72 89v17h217zM183 735l169 163l112 -35l-244 -128h-37z" />
    <glyph glyph-name="racute" unicode="&#x155;" horiz-adv-x="425" 
d="M190 122q0 -48 8 -73t33 -32v-17h-207v17q26 8 33 32.5t7 72.5v222q0 26 -10 40.5t-40 29.5v17l176 40v-349zM308 466q15 7 40 3.5t41 -16.5q23 -20 25 -51.5t-18 -53.5q-20 -23 -50.5 -25.5t-54.5 17.5q-23 21 -23 49q0 4 -6.5 5t-17.5 -4t-23 -16l-10 14q41 54 97 78z
M82 541l169 163l112 -35l-244 -128h-37z" />
    <glyph glyph-name="Rcaron" unicode="&#x158;" horiz-adv-x="728" 
d="M604 115q9 -35 34 -58.5t45.5 -31t37.5 -8.5v-17h-92h-52.5t-39 3.5t-30 4.5t-21 12.5t-17 17t-13 28t-14 37t-15 51.5t-20.5 64q-28 86 -110 101v19q35 1 58 7t44.5 23t32 53t10.5 92t-10.5 92t-32 53t-44.5 22.5t-58 6.5v17q59 -1 102.5 -6t84 -17.5t66 -33t40.5 -54.5
t15 -80q0 -87 -49.5 -128.5t-145.5 -52.5q56 6 108 -43.5t86 -173.5zM235 704v-583q0 -49 20.5 -76.5t53.5 -27.5v-17h-291v17q33 0 52.5 27t19.5 77v477q0 89 -72 89v17h217zM150 922h36l119 -77l118 77h37l-155 -187z" />
    <glyph glyph-name="rcaron" unicode="&#x159;" horiz-adv-x="425" 
d="M190 122q0 -48 8 -73t33 -32v-17h-207v17q26 8 33 32.5t7 72.5v222q0 26 -10 40.5t-40 29.5v17l176 40v-349zM308 466q15 7 40 3.5t41 -16.5q23 -20 25 -51.5t-18 -53.5q-20 -23 -50.5 -25.5t-54.5 17.5q-23 21 -23 49q0 4 -6.5 5t-17.5 -4t-23 -16l-10 14q41 54 97 78z
M45 705h36l119 -77l118 77h37l-155 -187z" />
    <glyph glyph-name="Sacute" unicode="&#x15a;" horiz-adv-x="616" 
d="M63 245q36 -97 72 -144q61 -80 153 -91v-18q-76 3 -136.5 18t-83.5 29l-22 14v192h17zM416 377q67 -44 104 -93t41.5 -103t-33.5 -108q-2 -3 -5.5 -8t-18 -17.5t-32.5 -23t-50.5 -20t-70.5 -12.5v17q30 9 47 36t18 60t-19 70.5t-59 66.5l-154 97q-229 144 -112 298
q2 3 5.5 7.5t18 16t32.5 21.5t50 18.5t69 11.5v-17q-41 -12 -58.5 -48.5t0.5 -84t73 -83.5zM519 497q-66 179 -209 197v18q67 -2 123.5 -14t79.5 -22l23 -11v-168h-17zM166 735l169 163l112 -35l-244 -128h-37z" />
    <glyph glyph-name="sacute" unicode="&#x15b;" horiz-adv-x="444" 
d="M356 329q-8 20 -13.5 32.5t-20.5 35.5t-38.5 37t-53.5 18v18q44 -1 80 -8.5t50 -13.5l13 -7v-112h-17zM303 259q67 -42 86.5 -101t-17.5 -113q-4 -5 -11.5 -13t-38.5 -22.5t-69 -17.5v19q19 6 29 22t9 35.5t-14.5 41.5t-37.5 38l-101 61q-73 44 -91 101t23 111
q4 5 11.5 12t38 20.5t68.5 16.5v-19q-25 -7 -36 -28t1.5 -49.5t48.5 -51.5zM68 163q1 -2 5.5 -14.5t7 -18.5t8.5 -20t11.5 -22.5t14 -21t18 -20.5t21.5 -16.5t26.5 -13.5t30.5 -7v-18q-48 2 -88 13.5t-56 21.5l-16 11v126h17zM99 541l169 163l112 -35l-244 -128h-37z" />
    <glyph glyph-name="Scedilla" unicode="&#x15e;" horiz-adv-x="616" 
d="M63 245q36 -97 72 -144q61 -80 153 -91v-18q-76 3 -136.5 18t-83.5 29l-22 14v192h17zM416 377q67 -44 104 -93t41.5 -103t-33.5 -108q-2 -3 -5.5 -8t-18 -17.5t-32.5 -23t-50.5 -20t-70.5 -12.5v17q30 9 47 36t18 60t-19 70.5t-59 66.5l-154 97q-229 144 -112 298
q2 3 5.5 7.5t18 16t32.5 21.5t50 18.5t69 11.5v-17q-41 -12 -58.5 -48.5t0.5 -84t73 -83.5zM519 497q-66 179 -209 197v18q67 -2 123.5 -14t79.5 -22l23 -11v-168h-17zM264 -66q73 22 111 -8t33 -75q-4 -31 -24 -51t-40.5 -26t-40.5 -6q-47 0 -71 21q-14 11 -11 31
q3 13 14 19.5t24 3.5q29 -7 24 -37q-1 -9 -8 -14q-1 -1 0 -3t8 -3.5t20 -1.5q24 0 37.5 15t12.5 39q0 23 -24.5 50t-73.5 19z" />
    <glyph glyph-name="scedilla" unicode="&#x15f;" horiz-adv-x="444" 
d="M356 329q-8 20 -13.5 32.5t-20.5 35.5t-38.5 37t-53.5 18v18q44 -1 80 -8.5t50 -13.5l13 -7v-112h-17zM303 259q67 -42 86.5 -101t-17.5 -113q-4 -5 -11.5 -13t-38.5 -22.5t-69 -17.5v19q19 6 29 22t9 35.5t-14.5 41.5t-37.5 38l-101 61q-73 44 -91 101t23 111
q4 5 11.5 12t38 20.5t68.5 16.5v-19q-25 -7 -36 -28t1.5 -49.5t48.5 -51.5zM68 163q1 -2 5.5 -14.5t7 -18.5t8.5 -20t11.5 -22.5t14 -21t18 -20.5t21.5 -16.5t26.5 -13.5t30.5 -7v-18q-48 2 -88 13.5t-56 21.5l-16 11v126h17zM188 -66q73 22 111 -8t33 -75q-4 -31 -24 -51
t-40.5 -26t-40.5 -6q-47 0 -71 21q-14 11 -11 31q3 13 14 19.5t24 3.5q29 -7 24 -37q-1 -9 -8 -14q-1 -1 0 -3t8 -3.5t20 -1.5q24 0 37.5 15t12.5 39q0 23 -24.5 50t-73.5 19z" />
    <glyph glyph-name="Scaron" unicode="&#x160;" horiz-adv-x="616" 
d="M63 245q36 -97 72 -144q61 -80 153 -91v-18q-76 3 -136.5 18t-83.5 29l-22 14v192h17zM416 377q67 -44 104 -93t41.5 -103t-33.5 -108q-2 -3 -5.5 -8t-18 -17.5t-32.5 -23t-50.5 -20t-70.5 -12.5v17q30 9 47 36t18 60t-19 70.5t-59 66.5l-154 97q-229 144 -112 298
q2 3 5.5 7.5t18 16t32.5 21.5t50 18.5t69 11.5v-17q-41 -12 -58.5 -48.5t0.5 -84t73 -83.5zM519 497q-66 179 -209 197v18q67 -2 123.5 -14t79.5 -22l23 -11v-168h-17zM137 922h36l119 -77l118 77h37l-155 -187z" />
    <glyph glyph-name="scaron" unicode="&#x161;" horiz-adv-x="444" 
d="M64 682h36l119 -77l118 77h37l-155 -187zM356 329q-8 20 -13.5 32.5t-20.5 35.5t-38.5 37t-53.5 18v18q44 -1 80 -8.5t50 -13.5l13 -7v-112h-17zM303 259q67 -42 86.5 -101t-17.5 -113q-4 -5 -11.5 -13t-38.5 -22.5t-69 -17.5v19q19 6 29 22t9 35.5t-14.5 41.5t-37.5 38
l-101 61q-73 44 -91 101t23 111q4 5 11.5 12t38 20.5t68.5 16.5v-19q-25 -7 -36 -28t1.5 -49.5t48.5 -51.5zM68 163q1 -2 5.5 -14.5t7 -18.5t8.5 -20t11.5 -22.5t14 -21t18 -20.5t21.5 -16.5t26.5 -13.5t30.5 -7v-18q-48 2 -88 13.5t-56 21.5l-16 11v126h17z" />
    <glyph glyph-name="uni0162" unicode="&#x162;" horiz-adv-x="698" 
d="M19 704h658v-201h-17q-2 50 -25.5 87.5t-56 55t-64 28t-53.5 12.5l-22 1h-19v-566q0 -48 25.5 -76t59.5 -28v-17h-315v17q34 0 59.5 28t25.5 76v566h-19q-9 0 -23 -1.5t-51 -12t-66 -28t-53.5 -55t-26.5 -87.5h-17v201zM304 -61q73 22 111 -8t33 -75q-4 -31 -24 -51
t-40.5 -26t-40.5 -6q-47 0 -71 21q-14 11 -11 31q3 13 14 19.5t24 3.5q29 -7 24 -37q-1 -9 -8 -14q-1 -1 0 -3t8 -3.5t20 -1.5q24 0 37.5 15t12.5 39q0 23 -24.5 50t-73.5 19z" />
    <glyph glyph-name="uni0163" unicode="&#x163;" horiz-adv-x="354" 
d="M269 62q39 0 60 35l15 -9q-16 -38 -58 -67.5t-90 -29.5q-64 0 -95 33.5t-31 119.5v301h-50l-3 17h53v134l125 21v-155h119l-4 -17h-115v-298q0 -85 74 -85zM128 -61q73 22 111 -8t33 -75q-4 -31 -24 -51t-40.5 -26t-40.5 -6q-47 0 -71 21q-14 11 -11 31q3 13 14 19.5
t24 3.5q29 -7 24 -37q-1 -9 -8 -14q-1 -1 0 -3t8 -3.5t20 -1.5q24 0 37.5 15t12.5 39q0 23 -24.5 50t-73.5 19z" />
    <glyph glyph-name="Tcaron" unicode="&#x164;" horiz-adv-x="698" 
d="M19 704h658v-201h-17q-2 50 -25.5 87.5t-56 55t-64 28t-53.5 12.5l-22 1h-19v-566q0 -48 25.5 -76t59.5 -28v-17h-315v17q34 0 59.5 28t25.5 76v566h-19q-9 0 -23 -1.5t-51 -12t-66 -28t-53.5 -55t-26.5 -87.5h-17v201zM194 922h36l119 -77l118 77h37l-155 -187z" />
    <glyph glyph-name="tcaron" unicode="&#x165;" horiz-adv-x="386" 
d="M268 704h97q0 -38 -13.5 -73.5t-33 -59t-39 -41.5t-33.5 -26l-13 -9l-13 15q5 4 13 15t21.5 60.5t13.5 118.5zM269 62q39 0 60 35l15 -9q-16 -38 -58 -67.5t-90 -29.5q-64 0 -95 33.5t-31 119.5v301h-50l-3 17h53v134l125 21v-155h119l-4 -17h-115v-298q0 -85 74 -85z
" />
    <glyph glyph-name="Uring" unicode="&#x16e;" horiz-adv-x="752" 
d="M405 51q63 0 114 50.5t51 138.5h17q0 -61 -17.5 -107.5t-43.5 -72.5t-61.5 -42.5t-65 -21.5t-59.5 -5q-106 0 -177 68.5t-71 186.5v353q0 44 -22.5 66t-57.5 22v17h318v-17q-93 0 -93 -88v-360q0 -86 47.5 -137t120.5 -51zM434 687v17h302v-17q-42 0 -73 -15t-45 -37.5
t-22 -44.5t-8 -38l-1 -15h-17q0 6 -0.5 16t-8 36t-20 46t-40.5 36t-67 16zM365 935q-23 0 -38.5 -16t-15.5 -39t16 -39t38 -16q23 0 39 16t16 39t-16 39t-39 16zM365 975q40 0 68 -27.5t28 -67.5q0 -39 -28 -67t-68 -28q-39 0 -67.5 28t-28.5 67t28.5 67t67.5 28z" />
    <glyph glyph-name="uring" unicode="&#x16f;" horiz-adv-x="561" 
d="M493 92q0 -35 9 -44t42 -13v-17l-148 -26q-12 -2 -19 3t-8 11l-1 5v344v12q0 41 -6.5 52.5t-40.5 15.5v17l172 19v-379zM331 81l12 -20q-27 -30 -68 -50t-76 -20q-63 0 -94.5 33.5t-31.5 119.5v214v26.5t-1.5 17.5t-4.5 14.5t-10 8t-16 7t-24 3.5v17l180 19v-324
q0 -83 84 -83q28 0 50 17zM294 670q-23 0 -38.5 -16t-15.5 -39t16 -39t38 -16q23 0 39 16t16 39t-16 39t-39 16zM294 710q40 0 68 -27.5t28 -67.5q0 -39 -28 -67t-68 -28q-39 0 -67.5 28t-28.5 67t28.5 67t67.5 28z" />
    <glyph glyph-name="Uhungarumlaut" unicode="&#x170;" horiz-adv-x="752" 
d="M405 51q63 0 114 50.5t51 138.5h17q0 -61 -17.5 -107.5t-43.5 -72.5t-61.5 -42.5t-65 -21.5t-59.5 -5q-106 0 -177 68.5t-71 186.5v353q0 44 -22.5 66t-57.5 22v17h318v-17q-93 0 -93 -88v-360q0 -86 47.5 -137t120.5 -51zM434 687v17h302v-17q-42 0 -73 -15t-45 -37.5
t-22 -44.5t-8 -38l-1 -15h-17q0 6 -0.5 16t-8 36t-20 46t-40.5 36t-67 16zM233 735l169 163l112 -35l-244 -128h-37zM413 735l169 163l112 -35l-244 -128h-37z" />
    <glyph glyph-name="uhungarumlaut" unicode="&#x171;" horiz-adv-x="561" 
d="M493 92q0 -35 9 -44t42 -13v-17l-148 -26q-12 -2 -19 3t-8 11l-1 5v344v12q0 41 -6.5 52.5t-40.5 15.5v17l172 19v-379zM331 81l12 -20q-27 -30 -68 -50t-76 -20q-63 0 -94.5 33.5t-31.5 119.5v214v26.5t-1.5 17.5t-4.5 14.5t-10 8t-16 7t-24 3.5v17l180 19v-324
q0 -83 84 -83q28 0 50 17zM123 541l169 163l112 -35l-244 -128h-37zM303 541l169 163l112 -35l-244 -128h-37z" />
    <glyph glyph-name="Ydieresis" unicode="&#x178;" horiz-adv-x="771" 
d="M290 774q-24 0 -41.5 17t-17.5 42q0 24 17.5 41.5t41.5 17.5q25 0 42 -17.5t17 -41.5q0 -25 -17 -42t-42 -17zM478 774q-24 0 -41.5 17t-17.5 42q0 24 17.5 41.5t41.5 17.5q25 0 42.5 -17.5t17.5 -41.5q0 -25 -17.5 -42t-42.5 -17zM456 121q0 -48 25.5 -76t59.5 -28v-17
h-315v17q34 0 59.5 28t25.5 76v155q-65 116 -114 199t-65 109l-16 25q-20 35 -42.5 54t-35 22t-29.5 3v16h319v-16q-11 0 -17.5 -0.5t-18.5 -6.5t-15 -17t3 -34t25 -56l151 -247v-206zM458 687v17h300v-17q-123 0 -236 -221l-12 15q2 4 5 11.5t9.5 29t10.5 41t3.5 43t-7 41
t-25.5 29t-48 11.5z" />
    <glyph glyph-name="Zacute" unicode="&#x179;" horiz-adv-x="617" 
d="M75 704h310l-11 -17q-99 0 -185 -54.5t-113 -130.5h-20zM271 17q54 0 106 24.5t88 61t60.5 70.5t33.5 60h18l-25 -233h-290zM594 704l-379 -704h-191l407 704h163zM187 735l169 163l112 -35l-244 -128h-37z" />
    <glyph glyph-name="zacute" unicode="&#x17a;" horiz-adv-x="463" 
d="M65 462h192l-10 -19q-136 -12 -170 -113h-17zM430 462l-253 -462h-148l269 462h132zM228 20q121 17 163 132h17l-9 -152h-181zM145 541l169 163l112 -35l-244 -128h-37z" />
    <glyph glyph-name="Zdotaccent" unicode="&#x17b;" horiz-adv-x="617" 
d="M75 704h310l-11 -17q-99 0 -185 -54.5t-113 -130.5h-20zM271 17q54 0 106 24.5t88 61t60.5 70.5t33.5 60h18l-25 -233h-290zM594 704l-379 -704h-191l407 704h163zM392 847q0 -25 -17.5 -42.5t-41.5 -17.5q-25 0 -42.5 17.5t-17.5 42.5q0 24 17.5 41t42.5 17
q24 0 41.5 -17t17.5 -41z" />
    <glyph glyph-name="zdotaccent" unicode="&#x17c;" horiz-adv-x="463" 
d="M65 462h192l-10 -19q-136 -12 -170 -113h-17zM430 462l-253 -462h-148l269 462h132zM228 20q121 17 163 132h17l-9 -152h-181zM301 627q0 -25 -17.5 -42.5t-41.5 -17.5q-25 0 -42.5 17.5t-17.5 42.5q0 24 17.5 41t42.5 17q24 0 41.5 -17t17.5 -41z" />
    <glyph glyph-name="Zcaron" unicode="&#x17d;" horiz-adv-x="617" 
d="M75 704h310l-11 -17q-99 0 -185 -54.5t-113 -130.5h-20zM271 17q54 0 106 24.5t88 61t60.5 70.5t33.5 60h18l-25 -233h-290zM594 704l-379 -704h-191l407 704h163zM187 922h36l119 -77l118 77h37l-155 -187z" />
    <glyph glyph-name="zcaron" unicode="&#x17e;" horiz-adv-x="466" 
d="M84 682h36l119 -77l118 77h37l-155 -187zM65 462h192l-10 -19q-136 -12 -170 -113h-17zM430 462l-253 -462h-148l269 462h132zM228 20q121 17 163 132h17l-9 -152h-181z" />
    <glyph glyph-name="florin" unicode="&#x192;" horiz-adv-x="695" 
d="M294 385q18 143 80 241t151 108v-17q-24 -17 -45.5 -71.5t-30.5 -101.5l-9 -46l-15 -113h122l-6 -17h-118l-37 -270q-23 -171 -76 -250.5t-147 -85.5v17q23 17 43.5 71.5t29.5 100.5l10 46l47 371h-76l2 17h75zM103 -203q-7 -1 -4 -7q4 -7 22 -10v-17q-32 4 -55 19
t-32 29q-20 33 -4 68q11 22 35 30.5t46 -2.5t30 -34.5t-3 -46.5q-10 -22 -35 -29zM651 684q20 -33 4 -68q-11 -22 -34.5 -30.5t-45.5 2.5q-23 11 -31 34.5t3 46.5t34 29q8 3 1 11q-4 5 -16 7v17q29 -5 52.5 -20t32.5 -29z" />
    <glyph glyph-name="uni0218" unicode="&#x218;" horiz-adv-x="616" 
d="M357 -240q19 28 31 59t11.5 68t-23.5 60q-24 24 -58.5 24t-58.5 -24q-24 -25 -24 -59.5t25 -57.5q20 -20 56 -24q6 -4 6 -19.5t-17 -43.5t-43 -48l11 -14q52 28 84 79zM63 245q36 -97 72 -144q61 -80 153 -91v-18q-76 3 -136.5 18t-83.5 29l-22 14v192h17zM416 377
q67 -44 104 -93t41.5 -103t-33.5 -108q-2 -3 -5.5 -8t-18 -17.5t-32.5 -23t-50.5 -20t-70.5 -12.5v17q30 9 47 36t18 60t-19 70.5t-59 66.5l-154 97q-229 144 -112 298q2 3 5.5 7.5t18 16t32.5 21.5t50 18.5t69 11.5v-17q-41 -12 -58.5 -48.5t0.5 -84t73 -83.5zM519 497
q-66 179 -209 197v18q67 -2 123.5 -14t79.5 -22l23 -11v-168h-17z" />
    <glyph glyph-name="uni0219" unicode="&#x219;" horiz-adv-x="444" 
d="M267 -240q19 28 31 59t11.5 68t-23.5 60q-24 24 -58.5 24t-58.5 -24q-24 -25 -24 -59.5t25 -57.5q20 -20 56 -24q6 -4 6 -19.5t-17 -43.5t-43 -48l11 -14q52 28 84 79zM356 329q-8 20 -13.5 32.5t-20.5 35.5t-38.5 37t-53.5 18v18q44 -1 80 -8.5t50 -13.5l13 -7v-112h-17
zM303 259q67 -42 86.5 -101t-17.5 -113q-4 -5 -11.5 -13t-38.5 -22.5t-69 -17.5v19q19 6 29 22t9 35.5t-14.5 41.5t-37.5 38l-101 61q-73 44 -91 101t23 111q4 5 11.5 12t38 20.5t68.5 16.5v-19q-25 -7 -36 -28t1.5 -49.5t48.5 -51.5zM68 163q1 -2 5.5 -14.5t7 -18.5
t8.5 -20t11.5 -22.5t14 -21t18 -20.5t21.5 -16.5t26.5 -13.5t30.5 -7v-18q-48 2 -88 13.5t-56 21.5l-16 11v126h17z" />
    <glyph glyph-name="uni021A" unicode="&#x21a;" horiz-adv-x="698" 
d="M377 -240q19 28 31 59t11.5 68t-23.5 60q-24 24 -58.5 24t-58.5 -24q-24 -25 -24 -59.5t25 -57.5q20 -20 56 -24q6 -4 6 -19.5t-17 -43.5t-43 -48l11 -14q52 28 84 79zM19 704h658v-201h-17q-2 50 -25.5 87.5t-56 55t-64 28t-53.5 12.5l-22 1h-19v-566q0 -48 25.5 -76
t59.5 -28v-17h-315v17q34 0 59.5 28t25.5 76v566h-19q-9 0 -23 -1.5t-51 -12t-66 -28t-53.5 -55t-26.5 -87.5h-17v201z" />
    <glyph glyph-name="uni021B" unicode="&#x21b;" horiz-adv-x="354" 
d="M231 -240q19 28 31 59t11.5 68t-23.5 60q-24 24 -58.5 24t-58.5 -24q-24 -25 -24 -59.5t25 -57.5q20 -20 56 -24q6 -4 6 -19.5t-17 -43.5t-43 -48l11 -14q52 28 84 79zM269 62q39 0 60 35l15 -9q-16 -38 -58 -67.5t-90 -29.5q-64 0 -95 33.5t-31 119.5v301h-50l-3 17h53
v134l125 21v-155h119l-4 -17h-115v-298q0 -85 74 -85z" />
    <glyph glyph-name="circumflex" unicode="&#x2c6;" horiz-adv-x="310" 
d="M310 531h-36l-119 77l-119 -77h-36l155 188z" />
    <glyph glyph-name="caron" unicode="&#x2c7;" horiz-adv-x="312" 
d="M0 720h36l119 -77l118 77h37l-155 -187z" />
    <glyph glyph-name="uni02C9" unicode="&#x2c9;" horiz-adv-x="305" 
d="M330 583h-355v76h355v-76z" />
    <glyph glyph-name="breve" unicode="&#x2d8;" horiz-adv-x="267" 
d="M135 631q116 0 116 73h17q0 -63 -33 -105.5t-100 -42.5q-68 0 -102 42.5t-34 105.5h17q0 -73 119 -73z" />
    <glyph glyph-name="dotaccent" unicode="&#x2d9;" 
d="M199 646q0 -25 -17.5 -42.5t-41.5 -17.5q-25 0 -42.5 17.5t-17.5 42.5q0 24 17.5 41t42.5 17q24 0 41.5 -17t17.5 -41z" />
    <glyph glyph-name="ring" unicode="&#x2da;" 
d="M141 692q-23 0 -38.5 -16t-15.5 -39t16 -39t38 -16q23 0 39 16t16 39t-16 39t-39 16zM141 732q40 0 68 -27.5t28 -67.5q0 -39 -28 -67t-68 -28q-39 0 -67.5 28t-28.5 67t28.5 67t67.5 28z" />
    <glyph glyph-name="ogonek" unicode="&#x2db;" 
d="M247 -12q-45 -24 -65 -53.5t-13 -58.5q5 -19 20.5 -28t28.5 -8l13 1q30 5 30 35h17q0 -20 -2.5 -32.5t-17 -27t-41.5 -19.5q-28 -4 -47.5 -0.5t-32 11.5t-19 16t-8.5 14l-3 7q-15 58 23.5 96t116.5 64v-17z" />
    <glyph glyph-name="tilde" unicode="&#x2dc;" horiz-adv-x="445" 
d="M266 550l-120 43q-20 5 -48 5.5t-59 -14t-43 -39.5l-15 6q20 49 47 80.5t51.5 42t46 14t34.5 0.5l13 -3l119 -44q32 -11 82.5 1.5t68.5 49.5l15 -8q-20 -49 -47.5 -80.5t-51.5 -42t-45.5 -14t-34.5 -0.5z" />
    <glyph glyph-name="hungarumlaut" unicode="&#x2dd;" horiz-adv-x="550" 
d="M87 557l169 163l112 -35l-244 -128h-37zM267 557l169 163l112 -35l-244 -128h-37z" />
    <glyph glyph-name="uni03A9" unicode="&#x3a9;" horiz-adv-x="738" 
d="M692 175h17l-31 -175h-269q5 25 23 71.5t35 91.5t31 121.5t14 160.5q0 78 -8.5 131.5t-25 82t-34.5 41t-44 16.5v17q127 -9 195 -88t68 -195q0 -72 -23.5 -133t-83.5 -124q-14 -14 -33 -29t-31 -25.5t-15 -19.5h113q79 0 102 56zM75 450q0 116 68 195t195 88v-17
q-34 -5 -56.5 -25.5t-39 -81.5t-16.5 -164q0 -84 14 -160.5t31 -121.5t35 -91.5t23 -71.5h-269l-31 175h17q23 -56 102 -56h113q-3 9 -15 19.5t-31 25.5t-33 29q-60 63 -83.5 124t-23.5 133z" />
    <glyph glyph-name="uni03BC" unicode="&#x3bc;" horiz-adv-x="557" 
d="M336 64q-20 -36 -61.5 -54.5t-83.5 -18.5v-148q0 -36 10 -48.5t42 -15.5v-17l-147 -26q-13 -2 -20 2.5t-8 10.5l-1 6v603v26.5t-1.5 17.5t-4.5 14.5t-10 8t-16 7t-24 3.5v17l180 19v-324q0 -83 84 -83q28 0 50 17zM487 92q0 -35 9 -44t42 -13v-17l-148 -26q-12 -2 -19 3
t-8 11l-1 5v344v12q0 41 -6.5 52.5t-40.5 15.5v17l172 19v-379z" />
    <glyph glyph-name="pi" unicode="&#x3c0;" horiz-adv-x="582" 
d="M525 66l16 -9q-5 -29 -28.5 -47.5t-65.5 -18.5q-25 0 -43 10t-26 24.5t-13 29.5t-5 25l-1 10v282h-115l-13 -197q-1 -34 -18.5 -68.5t-41.5 -60.5t-47.5 -47t-39.5 -32l-17 -11l-10 13q44 34 75 98t34 114l13 191q-101 -5 -155 -75l-16 10q2 6 6 16.5t19 36.5t32.5 46.5
t47.5 37.5t63 18h257q61 0 86.5 11.5t29.5 51.5h17q0 -75 -22.5 -114t-91.5 -39v-257q0 -30 10 -47.5t20 -19.5l10 -3q12 0 20 5.5t10 10.5z" />
    <glyph glyph-name="uni2010" unicode="&#x2010;" horiz-adv-x="447" 
d="M379 208h-315v93h315v-93z" />
    <glyph glyph-name="endash" unicode="&#x2013;" horiz-adv-x="561" 
d="M0 286h561v-68h-561v68z" />
    <glyph glyph-name="emdash" unicode="&#x2014;" horiz-adv-x="1055" 
d="M0 286h1055v-68h-1055v68z" />
    <glyph glyph-name="quoteleft" unicode="&#x2018;" horiz-adv-x="268" 
d="M103 653q32 51 84 79l11 -14q-26 -20 -43 -48t-17 -43.5t6 -19.5q36 -4 56 -24q25 -23 25 -57.5t-24 -59.5q-24 -24 -58.5 -24t-58.5 24q-23 23 -23.5 60t11.5 68t31 59z" />
    <glyph glyph-name="quoteright" unicode="&#x2019;" horiz-adv-x="273" 
d="M177 522q-32 -51 -84 -79l-11 14q26 20 43 48t17 43.5t-6 19.5q-36 4 -56 24q-25 23 -25 57.5t24 59.5q24 24 58.5 24t58.5 -24q23 -23 23.5 -60t-11.5 -68t-31 -59z" />
    <glyph glyph-name="quotesinglbase" unicode="&#x201a;" 
d="M180 -53q-32 -51 -84 -79l-11 14q26 20 43 48t17 43.5t-6 19.5q-36 4 -56 24q-25 23 -25 57.5t24 59.5q24 24 58.5 24t58.5 -24q23 -23 23.5 -60t-11.5 -68t-31 -59z" />
    <glyph glyph-name="quotedblleft" unicode="&#x201c;" horiz-adv-x="529" 
d="M94 658q32 51 84 79l11 -14q-26 -20 -43 -48t-17 -43.5t6 -19.5q36 -4 56 -24q25 -23 25 -57.5t-24 -59.5q-24 -24 -58.5 -24t-58.5 24q-23 23 -23.5 60t11.5 68t31 59zM344 658q32 51 84 79l11 -14q-26 -20 -43 -48t-17 -43.5t6 -19.5q36 -4 56 -24q25 -23 25 -57.5
t-24 -59.5q-24 -24 -58.5 -24t-58.5 24q-23 23 -23.5 60t11.5 68t31 59z" />
    <glyph glyph-name="quotedblright" unicode="&#x201d;" horiz-adv-x="521" 
d="M177 522q-32 -51 -84 -79l-11 14q26 20 43 48t17 43.5t-6 19.5q-36 4 -56 24q-25 23 -25 57.5t24 59.5q24 24 58.5 24t58.5 -24q23 -23 23.5 -60t-11.5 -68t-31 -59zM427 522q-32 -51 -84 -79l-11 14q26 20 43 48t17 43.5t-6 19.5q-36 4 -56 24q-25 23 -25 57.5t24 59.5
q24 24 58.5 24t58.5 -24q23 -23 23.5 -60t-11.5 -68t-31 -59z" />
    <glyph glyph-name="quotedblbase" unicode="&#x201e;" horiz-adv-x="521" 
d="M175 -53q-32 -51 -84 -79l-11 14q26 20 43 48t17 43.5t-6 19.5q-36 4 -56 24q-25 23 -25 57.5t24 59.5q24 24 58.5 24t58.5 -24q23 -23 23.5 -60t-11.5 -68t-31 -59zM425 -53q-32 -51 -84 -79l-11 14q26 20 43 48t17 43.5t-6 19.5q-36 4 -56 24q-25 23 -25 57.5t24 59.5
q24 24 58.5 24t58.5 -24q23 -23 23.5 -60t-11.5 -68t-31 -59z" />
    <glyph glyph-name="dagger" unicode="&#x2020;" horiz-adv-x="425" 
d="M212 645q-20 0 -34.5 14.5t-14.5 34.5t14.5 34t34.5 14t34 -14t14 -34t-14 -34.5t-34 -14.5zM122 454q21 -15 39 -44l-5 -4q-10 12 -24 20.5t-22.5 8.5t-10.5 -2q-2 -18 -12 -28q-12 -13 -29 -13t-30 12q-12 13 -12.5 30t12.5 29q12 12 30 12.5t34 -5.5t30 -16zM221 403
q-2 -56 44 -111q-22 -114 -34 -253t-13 -221l-1 -83h-9q0 34 -1 91t-13.5 204.5t-34.5 261.5q20 26 31 53.5t12 42.5l1 15q0 27 -11.5 71t-11.5 71v6.5t2 15t5 18.5t9.5 14.5t15.5 6.5q14 0 22 -15t9 -31l1 -15q0 -26 -11.5 -70t-11.5 -72zM395 463q13 -12 13 -29t-13 -30
q-12 -12 -29 -12t-30 13q-10 10 -12 28q-2 2 -10.5 2t-22.5 -8.5t-24 -20.5l-5 4q18 30 40 44q14 10 29.5 16t33.5 5.5t30 -12.5z" />
    <glyph glyph-name="daggerdbl" unicode="&#x2021;" horiz-adv-x="541" 
d="M333 246q-25 -17 -38.5 -43t-14.5 -43l-2 -17q0 -33 15 -71t15 -70v-8t-2.5 -18t-6 -23t-11.5 -18t-19 -8q-18 0 -28 18.5t-11 37.5l-1 19q0 32 15 69t15 72q0 8 -1.5 20.5t-15.5 40t-39 42.5q25 17 39 43t16 43l1 18q0 32 -15 70t-15 71v8t2.5 18t6 23t12 18t19.5 8
q17 0 27 -19t11 -37l1 -19q0 -33 -15 -70t-15 -71q0 -8 1.5 -20.5t15 -40t38.5 -43.5zM407 422q-3 3 -13 2.5t-28 -10t-30 -24.5l-5 4q20 34 48 54q17 12 36 19.5t42 7t37 -15.5q15 -15 15 -36t-15 -36q-16 -15 -37 -15t-36 15q-14 14 -14 35zM269 616q-25 0 -42.5 17
t-17.5 42t17.5 42.5t42.5 17.5q24 0 41.5 -17.5t17.5 -42.5t-17.5 -42t-41.5 -17zM269 -121q24 0 41.5 -17.5t17.5 -41.5q0 -25 -17.5 -42.5t-41.5 -17.5q-25 0 -42.5 17.5t-17.5 42.5q0 24 17.5 41.5t42.5 17.5zM116 387q-15 -15 -36 -15t-37 15q-15 15 -15 36t15 36
q14 15 37 15.5t42 -7t36 -19.5q26 -18 48 -54l-6 -4q-12 15 -29 24.5t-27 10t-13 -2.5q-2 -22 -15 -35zM421 110q15 16 36 16t37 -16q15 -15 15 -36t-15 -36q-14 -14 -37 -15t-42 6.5t-36 19.5q-31 24 -48 55l5 4q12 -15 30 -25t28 -10.5t13 2.5q0 21 14 35zM131 75
q2 -3 12 -2.5t27.5 10.5t29.5 25l6 -4q-19 -33 -48 -55q-17 -12 -36 -19.5t-42 -6.5t-37 15q-15 15 -15 36t15 36q15 16 36.5 16t36.5 -16q13 -13 15 -35z" />
    <glyph glyph-name="bullet" unicode="&#x2022;" horiz-adv-x="500" 
d="M250 220q-50 0 -86 35.5t-36 85.5q0 51 36 86.5t86 35.5q51 0 86.5 -35.5t35.5 -86.5q0 -50 -35.5 -85.5t-86.5 -35.5z" />
    <glyph glyph-name="ellipsis" unicode="&#x2026;" horiz-adv-x="866" 
d="M255 76q0 -35 -25 -59.5t-60 -24.5t-59.5 24.5t-24.5 59.5t24.5 60t59.5 25t60 -25t25 -60zM520 76q0 -35 -24.5 -59.5t-59.5 -24.5t-60 24.5t-25 59.5t25 60t60 25t59.5 -25t24.5 -60zM786 76q0 -35 -25 -59.5t-60 -24.5t-60 24.5t-25 59.5t25 60t60 25t60 -25t25 -60z
" />
    <glyph glyph-name="perthousand" unicode="&#x2030;" horiz-adv-x="1131" 
d="M127 0l456 704h65l-456 -704h-65zM157 679q138 0 138 -182q0 -83 -31 -129.5t-107 -46.5q-77 0 -108 46.5t-31 129.5q0 182 139 182zM157 338q33 0 41.5 27.5t8.5 131.5q0 103 -9 134t-41 31q-33 0 -42 -30.5t-9 -134.5q0 -102 9 -130.5t42 -28.5zM618 383
q138 0 138 -182q0 -83 -31 -129.5t-107 -46.5q-77 0 -108 46.5t-31 129.5q0 182 139 182zM618 42q33 0 41.5 27.5t8.5 131.5q0 103 -9 134t-41 31q-33 0 -42 -30.5t-9 -134.5q0 -102 9 -130.5t42 -28.5zM957 383q138 0 138 -182q0 -83 -31 -129.5t-107 -46.5
q-77 0 -108 46.5t-31 129.5q0 182 139 182zM957 42q33 0 41.5 27.5t8.5 131.5q0 103 -9 134t-41 31q-33 0 -42 -30.5t-9 -134.5q0 -102 9 -130.5t42 -28.5z" />
    <glyph glyph-name="guilsinglleft" unicode="&#x2039;" horiz-adv-x="339" 
d="M281 505v-39l-123 -200l123 -194v-39l-231 233z" />
    <glyph glyph-name="guilsinglright" unicode="&#x203a;" horiz-adv-x="339" 
d="M48 466v39l231 -239l-231 -233v39l123 194z" />
    <glyph glyph-name="fraction" unicode="&#x2044;" horiz-adv-x="351" 
d="M458 734h65l-605 -734h-64z" />
    <glyph glyph-name="Euro" unicode="&#x20ac;" horiz-adv-x="623" 
d="M124 422q33 271 249 289v-18q-57 -10 -80 -70t-28 -201h226l-13 -17h-214v-53v-52h210l-12 -17h-197q5 -142 28 -202t80 -71v-18q-216 18 -249 291h-102l12 17h88q-3 25 -3 52q0 23 3 53h-100l12 17h90zM547 540q0 59 -29 101t-82 52v19q46 -1 73.5 -10t54.5 -29v-133
h-17zM564 31q-48 -36 -128 -40v20q52 10 81.5 52t29.5 101h17v-133z" />
    <glyph glyph-name="afii61289" unicode="&#x2113;" horiz-adv-x="359" 
d="M281 48q35 8 48 48l16 -5q-3 -42 -36 -71t-70 -29q-32 0 -57 8t-48.5 28t-36 61t-12.5 101v32l-63 -48v52l63 50v205q0 73 14 128t36.5 83.5t49 40t52.5 4.5t47 -29l-10 -14q-26 34 -43 -2q-22 -43 -22 -188v-152l26 25q78 75 70 202q9 1 25 3q6 -67 -13 -133.5
t-59 -104.5l-50 -47l-2 -113q-5 -74 15.5 -107t59.5 -28z" />
    <glyph glyph-name="trademark" unicode="&#x2122;" horiz-adv-x="720" 
d="M13 704h268v-82h-17q0 29 -20 45t-40 18l-20 2h-7v-210q0 -20 10 -31.5t24 -11.5v-17h-128v17q14 0 24 11.5t10 31.5v210h-7q-3 0 -8.5 -0.5t-19.5 -4t-24.5 -9.5t-19 -19.5t-8.5 -31.5h-17v82zM662 476q0 -20 10.5 -31t25.5 -11v-17h-123v17q29 0 29 42v177l-100 -239
h-17l-106 238v-123q1 -1 0 -10t1.5 -23.5t6.5 -28t15 -23.5t27 -10v-17h-123v17q27 0 41 24t15 48v23v144q-10 14 -42 14v17h103l95 -205l84 205h90v-17q-32 0 -32 -36v-175z" />
    <glyph glyph-name="Omega" unicode="&#x2126;" horiz-adv-x="739" 
d="M692 175h17l-31 -175h-269q5 25 23 71.5t35 91.5t31 121.5t14 160.5q0 78 -8.5 131.5t-25 82t-34.5 41t-44 16.5v17q127 -9 195 -88t68 -195q0 -72 -23.5 -133t-83.5 -124q-14 -14 -33 -29t-31 -25.5t-15 -19.5h113q79 0 102 56zM75 450q0 116 68 195t195 88v-17
q-34 -5 -56.5 -25.5t-39 -81.5t-16.5 -164q0 -84 14 -160.5t31 -121.5t35 -91.5t23 -71.5h-269l-31 175h17q23 -56 102 -56h113q-3 9 -15 19.5t-31 25.5t-33 29q-60 63 -83.5 124t-23.5 133z" />
    <glyph glyph-name="estimated" unicode="&#x212e;" horiz-adv-x="892" 
d="M180 605v-207h536v202q-112 101 -271 101q-154 0 -265 -96zM445 735q171 0 292 -108t121 -260h-678v-238q109 -95 265 -95q163 0 276 106h48q-58 -66 -142.5 -103t-181.5 -37q-171 0 -292 107.5t-121 259.5t121 260t292 108z" />
    <glyph glyph-name="partialdiff" unicode="&#x2202;" horiz-adv-x="572" 
d="M61 668q57 66 171 74v-20q-49 -13 -83.5 -59.5t-33.5 -94.5l-20 -7zM294 742q119 -14 184.5 -123.5t50.5 -286.5q-12 -151 -71.5 -239.5t-168.5 -100.5v19q69 44 94 319q-10 34 -41 58.5t-56 24.5q-42 0 -71.5 -53.5t-38.5 -153.5q-8 -99 4 -142t47 -53v-19
q-95 9 -145 68t-41 167q4 47 15.5 86t33 74t59 55t87.5 20q43 0 90.5 -24.5t60.5 -72.5q11 124 0.5 201t-33 112t-60.5 45v19z" />
    <glyph glyph-name="Delta" unicode="&#x2206;" horiz-adv-x="714" 
d="M375 738l294 -706l-15 -32h-616l-6 26l1 2l287 692zM87 44h422l-211 483z" />
    <glyph glyph-name="product" unicode="&#x220f;" horiz-adv-x="839" 
d="M809 687q-40 0 -68 -25t-28 -74v-539q0 -55 28.5 -86t67.5 -31v-17h-355v17q39 0 67.5 31t28.5 86v537q0 49 -28 75t-68 26h-74q-39 0 -67 -26t-28 -75v-537q0 -55 28.5 -86t66.5 -31v-17h-354v17q39 0 67 31t28 86v539q0 49 -27 74t-68 25v17h783v-17z" />
    <glyph glyph-name="summation" unicode="&#x2211;" horiz-adv-x="680" 
d="M271 687q-3 5 -9 17h343l22 -231h-17q-30 85 -130 148.5t-209 65.5zM158 -98h-88l193 338l-248 464h191l209 -364zM628 168h16l-27 -266h-398q2 5 8 17h9q300 0 392 249z" />
    <glyph glyph-name="minus" unicode="&#x2212;" horiz-adv-x="626" 
d="M581 208h-533v93h533v-93z" />
    <glyph glyph-name="uni2215" unicode="&#x2215;" horiz-adv-x="352" 
d="M458 734h65l-605 -734h-64z" />
    <glyph glyph-name="uni2219" unicode="&#x2219;" 
d="M203 298q0 -26 -18.5 -44t-44.5 -18t-44 18t-18 44t18 44.5t44 18.5t44.5 -18.5t18.5 -44.5z" />
    <glyph glyph-name="radical" unicode="&#x221a;" horiz-adv-x="565" 
d="M352 78l137 789l54 -15l-180 -1031l-18 -7l-192 450q-17 40 -45 61t-56 10l-6 15l159 69z" />
    <glyph glyph-name="infinity" unicode="&#x221e;" horiz-adv-x="799" 
d="M626 235q23 23 23 56q0 34 -23 57t-57 23q-35 0 -56 -23l-57 -57l57 -56q24 -24 56 -24q31 0 57 24zM275 235l56 57l-57 56q-21 23 -56 23q-34 0 -57 -23t-23 -57q0 -33 23 -56q26 -24 57 -24t57 24zM688 410q50 -49 50 -118.5t-50 -118.5q-50 -50 -119 -50t-119 50
l-56 56l-57 -56q-50 -50 -119 -50q-71 0 -121 50q-47 49 -46.5 118.5t46.5 119.5q49 49 121 49q69 0 119 -50l57 -56l56 56q50 50 119 50t119 -50z" />
    <glyph glyph-name="integral" unicode="&#x222b;" horiz-adv-x="406" 
d="M96 -178q-7 -3 6 -9q2 -1 5 -2v-19q-54 8 -74 36q-20 29 -9 60q8 21 28.5 30t40.5 0q21 -7 30 -28t1 -41q-9 -22 -28 -27zM135 446q-15 173 18.5 269.5t107.5 108.5v-19q-40 -33 -26 -194l35 -441q15 -174 -18 -270t-107 -108v19q40 35 25 195zM373 788q21 -26 8 -60
q-8 -21 -28.5 -30t-40.5 0q-21 8 -30 28t-1 41q10 23 30 28q5 0 -6 7q-3 2 -6 3v19q50 -7 74 -36z" />
    <glyph glyph-name="approxequal" unicode="&#x2248;" horiz-adv-x="532" 
d="M312 305l-120 43q-20 5 -48 5.5t-59 -14t-43 -39.5l-15 6q20 49 47 80.5t51.5 42t46 14t34.5 0.5l13 -3l119 -44q32 -11 82.5 1.5t68.5 49.5l15 -8q-20 -49 -47.5 -80.5t-51.5 -42t-45.5 -14t-34.5 -0.5zM312 123l-120 43q-20 5 -48 5.5t-59 -14t-43 -39.5l-15 6
q20 49 47 80.5t51.5 42t46 14t34.5 0.5l13 -3l119 -44q32 -11 82.5 1.5t68.5 49.5l15 -8q-20 -49 -47.5 -80.5t-51.5 -42t-45.5 -14t-34.5 -0.5z" />
    <glyph glyph-name="notequal" unicode="&#x2260;" horiz-adv-x="527" 
d="M480 344h-148l-56 -123h204v-68h-237l-57 -124l-62 28l44 96h-122v68h154l56 123h-210v68h243l62 135l61 -29l-48 -106h116v-68z" />
    <glyph glyph-name="lessequal" unicode="&#x2264;" horiz-adv-x="532" 
d="M47 67h432v-87h-432v87zM220 344l259 -136v-103l-423 216v47l423 217v-105z" />
    <glyph glyph-name="greaterequal" unicode="&#x2265;" horiz-adv-x="532" 
d="M55 67h432v-87h-432v87zM55 208l259 136l-259 136v105l423 -217v-47l-423 -216v103z" />
    <glyph glyph-name="lozenge" unicode="&#x25ca;" horiz-adv-x="559" 
d="M301 733l208 -406l-208 -406h-45l-208 406l208 406h45zM418 327l-140 269l-140 -269l140 -269z" />
    <glyph glyph-name="zero.taboldstyle" unicode="&#xf643;" horiz-adv-x="580" 
d="M203 229q0 -122 11 -165.5t49 -52.5v-19q-207 16 -207 237q0 108 53.5 170t153.5 70v-19q-38 -9 -49 -53.5t-11 -167.5zM535 229q0 -223 -209 -237v18q38 9 49 53.5t11 165.5q0 122 -11 167t-49 54v19q209 -16 209 -240z" />
    <glyph glyph-name="one.taboldstyle" unicode="&#xf644;" horiz-adv-x="513" 
d="M204 95v270q0 35 -16 44t-59 9v17l200 36v-376q0 -27 7 -44.5t21 -24t24.5 -8t28.5 -1.5v-17h-300v17q19 0 32 2t29 8.5t24.5 23.5t8.5 44z" />
    <glyph glyph-name="two.taboldstyle" unicode="&#xf645;" horiz-adv-x="537" 
d="M85 371q11 34 58 68l5 -14q-21 -14 -12 -18q1 -1 2 -1q23 2 40 -15q16 -17 16 -40t-17 -39t-40 -16t-39 17q-23 25 -13 58zM445 174h17l-48 -174h-342l105 111q85 78 112 132.5t19 104.5q-7 39 -36.5 68t-64.5 32l-6 16q29 8 67.5 6.5t73 -9.5t60.5 -33.5t30 -64.5
q5 -46 -13 -84.5t-49.5 -63.5t-63.5 -43t-63.5 -34t-41.5 -26l153 5q61 0 91 57z" />
    <glyph glyph-name="three.taboldstyle" unicode="&#xf646;" horiz-adv-x="554" 
d="M182 -216q-9 -4 7 -15q17 -11 49 -15v-19q-95 6 -142 49q-15 13 -22.5 34.5t-2.5 42.5q7 32 34 49.5t58 9.5q31 -7 47.5 -34.5t8.5 -59.5q-6 -25 -37 -42zM510 -12q4 -58 -15.5 -105.5t-52.5 -77t-69 -46.5t-72 -22v17q54 12 74.5 64.5t14.5 118.5q-2 18 -10.5 38
t-27.5 46t-58.5 46.5t-93.5 27.5v17q59 18 92 52.5t37 69.5t-7 67t-33 50q-23 19 -58 21.5t-70.5 -16t-53.5 -55.5l-17 4q6 46 27 80.5t46 50t49 24.5t40 10l16 1q42 0 80.5 -17.5t63.5 -49t34 -70.5t-11 -87.5t-68 -95.5q65 -26 102.5 -70.5t40.5 -92.5z" />
    <glyph glyph-name="four.taboldstyle" unicode="&#xf647;" horiz-adv-x="582" 
d="M527 -48h-104v-72q0 -45 6.5 -73t21 -39t25.5 -13.5t32 -2.5v-17h-315v17q20 0 31.5 3t26 13.5t21 37t6.5 69.5v77h-229v17l63 96l14 -7q-7 -13 -7.5 -21t5.5 -11t11 -3.5t14 -0.5h129v295l101 154l44 -9v-440h104v-70z" />
    <glyph glyph-name="five.taboldstyle" unicode="&#xf648;" horiz-adv-x="553" 
d="M491 462l-43 -131h-327l24 131h346zM93 179q98 22 169 12.5t117.5 -31.5t74.5 -59t39 -70.5t11 -66.5q0 -101 -62 -160t-160 -68v17q77 10 106.5 61t12.5 108q-4 13 -11.5 27.5t-24 35t-40 36t-60 30t-84 16t-110.5 -4.5zM187 -223q-13 -8 4 -17q10 -5 28 -7v-17
q-72 6 -124 45q-15 14 -22 36t-3 43q8 31 35.5 47.5t58.5 9.5q31 -8 47.5 -35t9.5 -58t-34 -47z" />
    <glyph glyph-name="six.taboldstyle" unicode="&#xf649;" horiz-adv-x="592" 
d="M407 680q5 0 -5 6q-8 4 -22 7v17q69 -10 102 -60q9 -15 9 -35t-10 -36q-15 -25 -42.5 -31t-52.5 9q-24 15 -30 43t9 52q16 23 42 28zM548 232q0 -105 -60.5 -168t-156.5 -72v19q38 10 54 56t16 145q0 98 -26 157.5t-67 59.5q-28 0 -61 -25.5t-44 -68.5q2 -147 16 -225
t50 -99v-19q-110 10 -167 94t-57 227q0 166 79 274t193 123v-17q-113 -28 -114 -316q36 94 158 94q51 0 89 -21.5t58.5 -57.5t30 -76t9.5 -84z" />
    <glyph glyph-name="seven.taboldstyle" unicode="&#xf64a;" horiz-adv-x="556" 
d="M457 333h-290q-27 0 -52.5 -14.5t-40.5 -43.5h-17l24 187h451zM194 -257q0 136 47.5 263.5t166.5 263.5h17q-31 -68 -50.5 -137.5t-27 -143t-9.5 -122.5t-2 -124h-142z" />
    <glyph glyph-name="eight.taboldstyle" unicode="&#xf64b;" horiz-adv-x="574" 
d="M539 202q0 -102 -56.5 -153t-153.5 -57v19q37 9 58.5 39.5t21.5 80.5q0 29 -13.5 55t-39 47t-46 34t-49.5 28q-31 16 -42 23q-24 -13 -44.5 -53t-20.5 -107q0 -58 29 -98.5t83 -49.5v-19q-222 10 -222 161q0 61 48 112t109 65q-67 41 -99.5 92t-32.5 102q0 84 51 132
t133 56v-21q-63 -20 -63 -104q0 -48 38 -87t122 -72q52 25 52 127q0 119 -87 138v19q81 -6 129.5 -43.5t48.5 -100.5q0 -49 -33 -92.5t-92 -56.5q73 -37 122 -96.5t49 -119.5z" />
    <glyph glyph-name="nine.taboldstyle" unicode="&#xf64c;" horiz-adv-x="574" 
d="M541 139q0 -178 -69.5 -284t-202.5 -119v17q71 7 92 69t22 252q-33 -83 -158 -83q-67 0 -111 37t-60 87.5t-16 110.5q0 115 58.5 175t157.5 68v-20q-38 -11 -53.5 -58t-15.5 -145q0 -97 25.5 -155t67.5 -58q29 0 61.5 21.5t43.5 63.5q0 288 -67 331v20q109 -11 167 -99
t58 -231zM173 -232q-7 0 6 -6q11 -5 28 -8v-18q-82 9 -115 65q-10 15 -10 38t12 41q16 27 46.5 34t57.5 -10q26 -17 33 -47.5t-10 -57.5q-17 -26 -48 -31z" />
    <glyph glyph-name="dollar.taboldstyle" unicode="&#xf653;" horiz-adv-x="594" 
d="M296 8q56 0 87 26t32.5 62.5t-19 77t-58.5 68.5l-42 26v-260zM279 467v229q-40 0 -66 -22t-32 -54t14.5 -71.5t66.5 -69.5zM416 377q67 -44 104 -93t41.5 -103t-33.5 -108q-34 -42 -84 -62t-148 -20v-122h-17v122q-73 4 -131 19.5t-80 29.5l-22 13v192h8
q75 -209 225 -236v270l-95 60q-229 144 -112 298q2 3 6 8t21 18.5t38.5 23.5t59.5 18t82 8v122h17v-122q71 -1 131 -13t85 -24l24 -11v-168h-8q-7 20 -17 40t-30.5 49t-44.5 51t-61 39t-79 20v-240z" />
    <glyph glyph-name="cent.taboldstyle" unicode="&#xf654;" horiz-adv-x="533" 
d="M317 82v371q-44 -9 -80 -56t-36 -146q0 -136 116 -169zM480 129l14 -9q-12 -42 -53 -81t-107 -48v-109h-17v109q-118 0 -180 72t-62 170q0 90 64.5 161t177.5 77v122h17v-515q37 -5 83 11t63 40zM465 427q31 -28 20 -67q-8 -27 -31.5 -41t-50.5 -7t-41 31t-6 50
q6 26 31 40q9 4 -9 12q-7 4 -17 6v18q64 -7 104 -42z" />
    <glyph glyph-name="dollar.oldstyle" unicode="&#xf724;" horiz-adv-x="594" 
d="M296 8q56 0 87 26t32.5 62.5t-19 77t-58.5 68.5l-42 26v-260zM279 467v229q-40 0 -66 -22t-32 -54t14.5 -71.5t66.5 -69.5zM416 377q67 -44 104 -93t41.5 -103t-33.5 -108q-34 -42 -84 -62t-148 -20v-122h-17v122q-73 4 -131 19.5t-80 29.5l-22 13v192h8
q75 -209 225 -236v270l-95 60q-229 144 -112 298q2 3 6 8t21 18.5t38.5 23.5t59.5 18t82 8v122h17v-122q71 -1 131 -13t85 -24l24 -11v-168h-8q-7 20 -17 40t-30.5 49t-44.5 51t-61 39t-79 20v-240z" />
    <glyph glyph-name="zero.oldstyle" unicode="&#xf730;" horiz-adv-x="580" 
d="M203 229q0 -122 11 -165.5t49 -52.5v-19q-207 16 -207 237q0 108 53.5 170t153.5 70v-19q-38 -9 -49 -53.5t-11 -167.5zM535 229q0 -223 -209 -237v18q38 9 49 53.5t11 165.5q0 122 -11 167t-49 54v19q209 -16 209 -240z" />
    <glyph glyph-name="one.oldstyle" unicode="&#xf731;" horiz-adv-x="513" 
d="M204 95v270q0 35 -16 44t-59 9v17l200 36v-376q0 -27 7 -44.5t21 -24t24.5 -8t28.5 -1.5v-17h-300v17q19 0 32 2t29 8.5t24.5 23.5t8.5 44z" />
    <glyph glyph-name="two.oldstyle" unicode="&#xf732;" horiz-adv-x="537" 
d="M85 371q11 34 58 68l5 -14q-21 -14 -12 -18q1 -1 2 -1q23 2 40 -15q16 -17 16 -40t-17 -39t-40 -16t-39 17q-23 25 -13 58zM445 174h17l-48 -174h-342l105 111q85 78 112 132.5t19 104.5q-7 39 -36.5 68t-64.5 32l-6 16q29 8 67.5 6.5t73 -9.5t60.5 -33.5t30 -64.5
q5 -46 -13 -84.5t-49.5 -63.5t-63.5 -43t-63.5 -34t-41.5 -26l153 5q61 0 91 57z" />
    <glyph glyph-name="three.oldstyle" unicode="&#xf733;" horiz-adv-x="554" 
d="M182 -216q-9 -4 7 -15q17 -11 49 -15v-19q-95 6 -142 49q-15 13 -22.5 34.5t-2.5 42.5q7 32 34 49.5t58 9.5q31 -7 47.5 -34.5t8.5 -59.5q-6 -25 -37 -42zM510 -12q4 -58 -15.5 -105.5t-52.5 -77t-69 -46.5t-72 -22v17q54 12 74.5 64.5t14.5 118.5q-2 18 -10.5 38
t-27.5 46t-58.5 46.5t-93.5 27.5v17q59 18 92 52.5t37 69.5t-7 67t-33 50q-23 19 -58 21.5t-70.5 -16t-53.5 -55.5l-17 4q6 46 27 80.5t46 50t49 24.5t40 10l16 1q42 0 80.5 -17.5t63.5 -49t34 -70.5t-11 -87.5t-68 -95.5q65 -26 102.5 -70.5t40.5 -92.5z" />
    <glyph glyph-name="four.oldstyle" unicode="&#xf734;" horiz-adv-x="582" 
d="M527 -48h-104v-72q0 -45 6.5 -73t21 -39t25.5 -13.5t32 -2.5v-17h-315v17q20 0 31.5 3t26 13.5t21 37t6.5 69.5v77h-229v17l63 96l14 -7q-7 -13 -7.5 -21t5.5 -11t11 -3.5t14 -0.5h129v295l101 154l44 -9v-440h104v-70z" />
    <glyph glyph-name="five.oldstyle" unicode="&#xf735;" horiz-adv-x="553" 
d="M491 462l-43 -131h-327l24 131h346zM93 179q98 22 169 12.5t117.5 -31.5t74.5 -59t39 -70.5t11 -66.5q0 -101 -62 -160t-160 -68v17q77 10 106.5 61t12.5 108q-4 13 -11.5 27.5t-24 35t-40 36t-60 30t-84 16t-110.5 -4.5zM187 -223q-13 -8 4 -17q10 -5 28 -7v-17
q-72 6 -124 45q-15 14 -22 36t-3 43q8 31 35.5 47.5t58.5 9.5q31 -8 47.5 -35t9.5 -58t-34 -47z" />
    <glyph glyph-name="six.oldstyle" unicode="&#xf736;" horiz-adv-x="592" 
d="M407 680q5 0 -5 6q-8 4 -22 7v17q69 -10 102 -60q9 -15 9 -35t-10 -36q-15 -25 -42.5 -31t-52.5 9q-24 15 -30 43t9 52q16 23 42 28zM548 232q0 -105 -60.5 -168t-156.5 -72v19q38 10 54 56t16 145q0 98 -26 157.5t-67 59.5q-28 0 -61 -25.5t-44 -68.5q2 -147 16 -225
t50 -99v-19q-110 10 -167 94t-57 227q0 166 79 274t193 123v-17q-113 -28 -114 -316q36 94 158 94q51 0 89 -21.5t58.5 -57.5t30 -76t9.5 -84z" />
    <glyph glyph-name="seven.oldstyle" unicode="&#xf737;" horiz-adv-x="556" 
d="M457 333h-290q-27 0 -52.5 -14.5t-40.5 -43.5h-17l24 187h451zM194 -257q0 136 47.5 263.5t166.5 263.5h17q-31 -68 -50.5 -137.5t-27 -143t-9.5 -122.5t-2 -124h-142z" />
    <glyph glyph-name="eight.oldstyle" unicode="&#xf738;" horiz-adv-x="574" 
d="M539 202q0 -102 -56.5 -153t-153.5 -57v19q37 9 58.5 39.5t21.5 80.5q0 29 -13.5 55t-39 47t-46 34t-49.5 28q-31 16 -42 23q-24 -13 -44.5 -53t-20.5 -107q0 -58 29 -98.5t83 -49.5v-19q-222 10 -222 161q0 61 48 112t109 65q-67 41 -99.5 92t-32.5 102q0 84 51 132
t133 56v-21q-63 -20 -63 -104q0 -48 38 -87t122 -72q52 25 52 127q0 119 -87 138v19q81 -6 129.5 -43.5t48.5 -100.5q0 -49 -33 -92.5t-92 -56.5q73 -37 122 -96.5t49 -119.5z" />
    <glyph glyph-name="nine.oldstyle" unicode="&#xf739;" horiz-adv-x="574" 
d="M541 139q0 -178 -69.5 -284t-202.5 -119v17q71 7 92 69t22 252q-33 -83 -158 -83q-67 0 -111 37t-60 87.5t-16 110.5q0 115 58.5 175t157.5 68v-20q-38 -11 -53.5 -58t-15.5 -145q0 -97 25.5 -155t67.5 -58q29 0 61.5 21.5t43.5 63.5q0 288 -67 331v20q109 -11 167 -99
t58 -231zM173 -232q-7 0 6 -6q11 -5 28 -8v-18q-82 9 -115 65q-10 15 -10 38t12 41q16 27 46.5 34t57.5 -10q26 -17 33 -47.5t-10 -57.5q-17 -26 -48 -31z" />
    <glyph glyph-name="cent.oldstyle" unicode="&#xf7a2;" horiz-adv-x="533" 
d="M317 82v371q-44 -9 -80 -56t-36 -146q0 -136 116 -169zM480 129l14 -9q-12 -42 -53 -81t-107 -48v-109h-17v109q-118 0 -180 72t-62 170q0 90 64.5 161t177.5 77v122h17v-515q37 -5 83 11t63 40zM465 427q31 -28 20 -67q-8 -27 -31.5 -41t-50.5 -7t-41 31t-6 50
q6 26 31 40q9 4 -9 12q-7 4 -17 6v18q64 -7 104 -42z" />
    <glyph glyph-name="fi" unicode="&#xfb01;" horiz-adv-x="591" 
d="M512 113q0 -48 8 -73.5t33 -31.5v-8h-205v8q26 7 32.5 32t6.5 73v250q0 31 -12.5 56.5t-37.5 25.5h-129v-332q0 -47 8.5 -72.5t32.5 -32.5v-8h-205v8q26 8 33 33t7 72v332h-64l-2 17h66v23q0 134 60.5 194.5t186.5 64.5v-17q-20 -2 -37.5 -11t-39 -30t-34 -66t-12.5 -109
v-49h130h174v-349zM411 698q15 3 1 14t-40 14v18q44 -4 77 -23t45 -39q24 -44 5 -83q-13 -27 -41.5 -36.5t-55.5 3.5q-27 14 -36.5 42t3.5 55q14 27 42 35z" />
    <glyph glyph-name="fl" unicode="&#xfb02;" horiz-adv-x="573" 
d="M520 113q0 -46 8 -68t33 -28v-17h-205v17q26 7 32.5 28.5t6.5 67.5v519q0 49 -35 64q-13 5 -25.5 8t-32.5 3.5t-37 -10.5t-32.5 -31.5t-24.5 -62.5t-9 -101v-40h107l-3 -17h-104v-332q0 -46 8 -67.5t33 -28.5v-17h-206v17q26 8 33 29.5t7 66.5v332h-64l-2 17h66v80
q0 97 50.5 150.5t124.5 52.5q59 0 111 -32l160 33v-633z" />
    <glyph glyph-name="NULL" horiz-adv-x="0" 
 />
    <glyph glyph-name="CR" 
 />
    <glyph glyph-name="two.superior" horiz-adv-x="270" 
d="M207 464h17l-23 -85h-170l104 152q38 65 4 102q-25 26 -59 15q-24 -8 -35 -32l-16 3q3 24 13.5 41.5t23.5 25.5t25.5 12.5t20.5 5.5h9q34 0 56 -22t22 -53q0 -43 -50 -104l-60 -87h77q27 0 41 26z" />
    <glyph glyph-name="one.superior" horiz-adv-x="232" 
d="M150 435q0 -38 40 -38v-17h-147v17q46 0 46 38v174q0 16 -9.5 19.5t-19.5 -1.5l-9 -5l-12 17l95 65h16v-269z" />
    <glyph glyph-name="a.superior" horiz-adv-x="311" 
d="M156 513v64q-69 -16 -69 -57q0 -4 1 -9t9.5 -14t24.5 -9q24 0 34 25zM247 486q8 0 10 10l13 -5q-2 -15 -18 -26t-42 -11q-5 0 -13.5 1t-23 10.5t-16.5 25.5q-5 -15 -27 -26t-49 -11q-7 0 -17 1.5t-26.5 14.5t-16.5 37q0 37 23.5 51t92.5 31q12 3 19 5v31q0 39 -20 54
t-49 2q-14 -7 -13 -12q14 0 20 -11q7 -10 4.5 -22t-12.5 -18q-10 -7 -22 -5t-19 12q-10 13 -2 31q11 25 39 39q11 6 24 8.5t21 2.5l8 -1q49 0 68 -27t19 -77v-78q0 -4 0.5 -10.5t7 -17t17.5 -9.5z" />
    <glyph glyph-name="three.superior" horiz-adv-x="276" 
d="M236 485q3 -55 -33.5 -84t-75.5 -29q-47 0 -80 26q-17 12 -12 35q3 14 15.5 22t26.5 5q14 -4 22 -16.5t5 -26.5q-5 -15 -17 -20q-5 -2 5 -5q11 -4 35 -4q28 0 43 24.5t9 51.5q-11 59 -85 68v18q35 11 49.5 31t10 38.5t-19.5 29.5q-16 14 -39.5 9t-35.5 -30l-17 2
q4 33 24.5 51.5t39.5 20.5l18 2q33 0 58 -20t25 -54t-36 -69q30 -11 46.5 -32.5t18.5 -43.5z" />
    <glyph glyph-name="o.superior" horiz-adv-x="327" 
d="M146 705q119 0 119 -127q0 -69 -29 -96.5t-90 -27.5q-59 0 -88.5 29t-29.5 95q0 69 29.5 98t88.5 29zM146 471q13 0 21 2.5t17 12.5t13 32.5t4 59.5t-4.5 60.5t-13.5 33.5t-17 13t-20 3q-17 0 -26.5 -4.5t-18.5 -30t-9 -75.5q0 -37 4.5 -60t13.5 -32.5t16 -12t20 -2.5z
" />
    </font>
</defs>
</svg>
