<?xml version="1.0" standalone="no"?>
<!DOCTYPE svg PUBLIC "-//W3C//DTD SVG 1.1//EN" "http://www.w3.org/Graphics/SVG/1.1/DTD/svg11.dtd" >
<svg xmlns="http://www.w3.org/2000/svg" xmlns:xlink="http://www.w3.org/1999/xlink" version="1.1">
<metadata>
Created by FontForge 20230101 at Wed Jul 26 10:39:04 2017
 By Pablo Velazquez
Copyright (c) 2017 by Emil Bertell. All rights reserved.
</metadata>
<defs>
<font id="Karu-MediumItalic" horiz-adv-x="0" >
  <font-face 
    font-family="Karu Medium Italic"
    font-weight="500"
    font-style="italic"
    font-stretch="normal"
    units-per-em="2048"
    panose-1="0 0 6 0 0 0 0 0 0 0"
    ascent="1638"
    descent="-410"
    x-height="977"
    cap-height="1425"
    bbox="-1450 -696 2607 2101"
    underline-thickness="0"
    underline-position="0"
    unicode-range="U+000D-FB02"
  />
<missing-glyph horiz-adv-x="1017" 
d="M834 1528v-2034h-646v2034h646zM678 1391h-336v-66h131v-76h-133v-67h338v67h-135v76h135v66zM543 1128h-203v-210h338v69h-135v141zM473 1061v-74h-65v74h65zM678 862h-338v-65h133v-76h-133v-68h203v144h135v65zM678 741h-68v-135h-270v-69h338v204zM678 494h-205v-115
h70v47h67v-96h-202v164h-68v-232h338v232zM678 141h-338v-229h338v229zM610 74v-97h-202v97h202zM678 -135h-338v-68h141l-141 -96v-66h338v66h-209l143 96h66v68z" />
    <glyph glyph-name="uniFB01" unicode="fi" horiz-adv-x="1075" 
d="M1047 977l-164 -977h-242l127 772h-317l-199 -1221h-244l201 1221h-123l31 205h127l18 115q43 262 149 365q105 102 308 102q198 0 358 -89l-92 -192q-103 72 -240 72q-103 0 -159 -54q-57 -57 -82 -204l-19 -115h562z" />
    <glyph glyph-name="uniFB02" unicode="fl" horiz-adv-x="1079" 
d="M737 1559q101 0 219 -21q121 -23 179 -55l-242 -1483h-242l217 1337q-53 11 -118 13q-100 0 -160 -54.5t-82 -183.5l-23 -135h168l-32 -205h-168l-201 -1221h-244l201 1221h-123l31 205h125l28 176q37 225 154 316q116 90 313 90z" />
    <glyph glyph-name="f_b.liga" unicode="fb" horiz-adv-x="1773" 
d="M1401 1008q136 0 234 -95q96 -96 96 -288q0 -293 -153 -475q-153 -183 -392 -183q-189 0 -281 156l-31 -123h-227l219 1329q-66 20 -145 21q-172 0 -205 -185l-31 -188h179l-33 -205h-178l-201 -1221h-244l199 1221h-121l31 205h125l34 215q33 190 140.5 278.5
t298.5 88.5q57 0 115.5 -5t119.5 -15q124 -21 189 -46l-107 -645q138 160 369 160zM1161 186q137 0 230 110q92 110 92 263q0 122 -58 174q-59 53 -141 53q-187 0 -293 -178l-45 -274q29 -70 86 -109t129 -39z" />
    <glyph glyph-name="f_f_i.liga" unicode="ffi" horiz-adv-x="1695" 
d="M1667 977l-164 -977h-241l127 772h-318l-199 -1221h-243l200 1221h-376l-201 -1221h-244l201 1221h-123l31 205h125l41 246q56 336 346 336q152 0 264 -76l-88 -180q-64 47 -137 47q-119 0 -146 -154l-37 -219h379l19 115q43 262 149 365q105 102 307 102q198 0 359 -89
l-92 -192q-103 72 -240 72q-103 0 -159 -54q-56 -56 -83 -204l-18 -115h561z" />
    <glyph glyph-name="f_f_l.liga" unicode="ffl" horiz-adv-x="1669" 
d="M1327 1559q101 0 219 -21q60 -11 104.5 -24.5t73.5 -30.5l-241 -1483h-242l217 1337q-53 11 -119 13q-100 0 -159.5 -54.5t-81.5 -183.5l-23 -135h168l-33 -205h-168l-200 -1221h-244l201 1221h-342l-205 -1221h-244l203 1221h-125l31 205h129l33 201q33 209 128 295
t246 86q206 0 357 -95q110 95 317 95zM831 977l29 176q12 81 37 141q-87 54 -203 56q-76 0 -119 -47.5t-57 -157.5l-29 -168h342z" />
    <glyph glyph-name="f_h.liga" unicode="fh" horiz-adv-x="1705" 
d="M1384 1008q143 0 210 -97t38 -268l-106 -645h-244l96 577q38 213 -131 213q-154 0 -256 -180l-98 -608l-244 4l219 1333q-51 14 -127 15q-50 0 -88 -12.5t-66 -41t-46.5 -73t-28.5 -109.5l-23 -139h175l-33 -205h-176l-203 -1221h-244l201 1221h-123l31 205h127l30 188
q34 218 150 307q116 87 321 87q51 0 104.5 -5t112.5 -15q117 -21 173 -56l-111 -682q129 207 360 207z" />
    <glyph glyph-name="f_k.liga" unicode="fk" horiz-adv-x="1624" 
d="M1663 977l-360 -359l213 -618h-265l-141 430l-178 -178l-41 -252h-244l221 1341q-47 11 -104 13q-113 0 -173 -54q-61 -55 -85 -202l-21 -121h179l-33 -205h-178l-201 -1221h-244l201 1221h-123l31 205h125l30 184q38 220 155 309q119 89 314 89q111 0 222 -21
q55 -11 98 -24.5t74 -30.5l-160 -967l401 461h287z" />
    <glyph glyph-name=".notdef" horiz-adv-x="1017" 
d="M834 1528v-2034h-646v2034h646zM678 1391h-336v-66h131v-76h-133v-67h338v67h-135v76h135v66zM543 1128h-203v-210h338v69h-135v141zM473 1061v-74h-65v74h65zM678 862h-338v-65h133v-76h-133v-68h203v144h135v65zM678 741h-68v-135h-270v-69h338v204zM678 494h-205v-115
h70v47h67v-96h-202v164h-68v-232h338v232zM678 141h-338v-229h338v229zM610 74v-97h-202v97h202zM678 -135h-338v-68h141l-141 -96v-66h338v66h-209l143 96h66v68z" />
    <glyph glyph-name=".null" 
 />
    <glyph glyph-name="nonmarkingreturn" unicode="&#xd;" horiz-adv-x="512" 
 />
    <glyph glyph-name="space" unicode=" " horiz-adv-x="380" 
 />
    <glyph glyph-name="exclam" unicode="!" horiz-adv-x="593" 
d="M571 1425l-186 -1015h-221l147 1015h260zM74 117q0 72 53 123t125 51q63 0 105 -43t42 -105q0 -72 -51 -123t-121 -51q-66 0 -109 44q-44 44 -44 104z" />
    <glyph glyph-name="quotedbl" unicode="&#x22;" horiz-adv-x="743" 
d="M500 1528l-113 -584h-180l41 584h252zM844 1528l-144 -584h-180l72 584h252z" />
    <glyph glyph-name="numbersign" unicode="#" horiz-adv-x="1308" 
d="M1298 909h-149l-131 -346h196l-57 -209h-217l-133 -354h-234l134 354h-306l-133 -354h-233l133 354h-133l59 209h152l129 346h-197l58 207h217l114 309h236l-117 -309h305l115 309h235l-116 -309h131zM784 563l129 346h-303l-131 -346h305z" />
    <glyph glyph-name="dollar" unicode="$" horiz-adv-x="1007" 
d="M602 834q161 -63 252 -152q90 -90 90 -252q0 -182 -113 -289t-292 -127l-25 -159h-221l26 170q-177 33 -335 159l100 226q173 -164 387 -164q92 0 155 42q62 42 62 122q0 74 -49 114q-49 39 -168 90q-162 66 -241.5 158t-79.5 229q0 175 106 284q107 110 285 128l22 148
h221l-24 -160q134 -28 284 -133l-110 -203q-150 123 -318 123q-94 0 -150 -40t-56 -122q0 -33 11 -59.5t34 -49t59.5 -42.5t87.5 -41z" />
    <glyph glyph-name="percent" unicode="%" horiz-adv-x="1644" 
d="M418 760q-133 0 -210 80t-77 211q0 173 116 291q116 116 296 116q137 0 212 -79q74 -80 74 -210q0 -174 -117 -291q-118 -118 -294 -118zM344 0l795 1425h245l-794 -1425h-246zM440 924q93 0 158 68q64 67 64 155q0 70 -36.5 110.5t-105.5 40.5q-96 0 -158 -66
q-63 -67 -63 -157q0 -66 36 -108.5t105 -42.5zM1178 -33q-133 0 -210 81q-77 82 -77 210q0 174 117 291q116 117 295 117q137 0 212 -79q74 -80 74 -210q0 -173 -117 -292q-118 -118 -294 -118zM1200 131q96 0 159 67q62 67 62 156q0 70 -36 111t-105 41q-95 0 -157 -66
q-62 -68 -62 -157q0 -66 35 -109t104 -43z" />
    <glyph glyph-name="ampersand" unicode="&#x26;" horiz-adv-x="1298" 
d="M1296 696q-51 -295 -252 -489l152 -207h-287l-51 72q-196 -104 -444 -105q-178 0 -274.5 78t-96.5 234q0 145 98 255q96 108 265 173q-113 169 -113 321q0 195 129 312q130 116 348 116q84 0 151 -19t113.5 -57.5t71 -95.5t24.5 -133q0 -162 -120 -288
q-122 -126 -301 -195l223 -303q119 134 147 331h217zM737 1249q-99 0 -158 -58q-61 -58 -61 -153q0 -112 100 -245l5 -7q283 115 282 310q0 72 -43 112.5t-125 40.5zM481 174q142 0 264 55l-251 351q-205 -91 -205 -250q0 -75 52 -115.5t140 -40.5z" />
    <glyph glyph-name="quotesingle" unicode="'" horiz-adv-x="399" 
d="M500 1528l-127 -584h-183l58 584h252z" />
    <glyph glyph-name="parenleft" unicode="(" horiz-adv-x="604" 
d="M557 1739l180 -129q-295 -386 -385 -955q-20 -138 -25 -271.5t6 -267.5q21 -264 101 -464l-215 -88q-94 201 -127 508q-33 305 12 602q23 155 65.5 301.5t103.5 289.5q121 282 284 474z" />
    <glyph glyph-name="parenright" unicode=")" horiz-adv-x="606" 
d="M102 -446l-180 129q298 395 383 954q43 274 22 540q-23 264 -102 463l215 89q94 -202 126 -508q16 -154 13.5 -304t-24.5 -299q-46 -303 -170 -588q-123 -283 -283 -476z" />
    <glyph glyph-name="asterisk" unicode="*" horiz-adv-x="841" 
d="M926 1133l-295 -46l166 -266l-191 -86l-84 312l-184 -289l-156 116l244 228l-283 98l105 182l239 -176l2 320l201 -19l-90 -307l287 127z" />
    <glyph glyph-name="plus" unicode="+" horiz-adv-x="1118" 
d="M1063 793l-35 -213h-342l-59 -373h-221l59 373h-344l35 213h342l57 358h221l-57 -358h344z" />
    <glyph glyph-name="comma" unicode="," horiz-adv-x="450" 
d="M201 279q141 -4 141 -193q0 -174 -113 -320q-114 -146 -280 -204l-64 129q209 86 281 274h-21q-54 4 -87 40.5t-33 96.5q0 82 52 130q53 47 124 47z" />
    <glyph glyph-name="hyphen" unicode="-" horiz-adv-x="821" 
d="M59 461l35 209h692l-32 -209h-695z" />
    <glyph glyph-name="period" unicode="." horiz-adv-x="458" 
d="M10 98q0 76 56 129q55 52 127 52q30 0 55 -10t43 -28t27.5 -42t9.5 -52q0 -73 -56 -126q-56 -52 -129 -52q-61 0 -97 37t-36 92z" />
    <glyph glyph-name="slash" unicode="/" horiz-adv-x="983" 
d="M1014 1669l-797 -1898h-246l795 1898h248z" />
    <glyph glyph-name="zero" unicode="0" horiz-adv-x="1323" 
d="M567 -33q-226 0 -356 145q-131 145 -131 420q0 251 92 462q91 209 265 336q173 126 392 126q209 0 345 -136q135 -136 135 -425q0 -181 -49 -346t-140 -296q-89 -129 -233 -208q-144 -78 -320 -78zM602 213q189 0 313 195q125 194 125 466q0 175 -68 258q-69 82 -179 82
q-186 0 -314 -194q-129 -195 -129 -457q0 -350 252 -350z" />
    <glyph glyph-name="one" unicode="1" horiz-adv-x="606" 
d="M606 1425l-235 -1425h-254l198 1208l-149 -2l35 219h405z" />
    <glyph glyph-name="two" unicode="2" horiz-adv-x="1101" 
d="M659 418l-239 -191h616l-39 -227h-968l37 211l321 270q207 166 301 289q94 122 94 254q0 193 -202 193q-169 0 -344 -134l-84 209q232 164 499 164q185 0 297 -91q113 -92 113 -290q-1 -331 -402 -657z" />
    <glyph glyph-name="three" unicode="3" horiz-adv-x="1071" 
d="M748 731q104 -37 166.5 -118t62.5 -203q0 -212 -143 -328q-143 -115 -373 -115q-272 0 -481 180l135 197q134 -133 317 -133q120 0 200 64q81 63 81 171q0 96 -72 145q-72 48 -180 48h-101l31 176h94q116 0 207 69q92 68 92 175q0 81 -50.5 119.5t-137.5 38.5
q-198 0 -371 -138l-67 215q225 162 522 162q387 0 387 -313q0 -153 -91 -257q-90 -105 -228 -155z" />
    <glyph glyph-name="four" unicode="4" horiz-adv-x="1181" 
d="M1143 477l-35 -207h-186l-45 -270h-250l45 270h-678l37 217l755 938h326l-158 -948h189zM283 477h424l116 699z" />
    <glyph glyph-name="five" unicode="5" horiz-adv-x="1069" 
d="M1028 1196h-559l-66 -397q126 68 256 67q136 0 242 -85q107 -86 107 -269q0 -265 -157 -404q-157 -141 -396 -141q-281 0 -451 152l102 215q121 -121 332 -121q125 0 211 71t86 210q0 94 -49 141t-127 47q-156 0 -266 -111l-158 74l131 780h801z" />
    <glyph glyph-name="six" unicode="6" horiz-adv-x="1204" 
d="M770 879q61 0 121.5 -17.5t120.5 -57.5t96.5 -119t36.5 -185q-2 -240 -155 -386q-154 -147 -412 -147q-214 0 -348 133q-136 133 -136 412q0 408 211 676t539 268q229 0 381 -137l-162 -189q-97 91 -236 93q-181 0 -308 -160q-129 -162 -148 -391q57 94 159 150.5
t240 56.5zM588 205q125 0 209 78q84 77 84 198q0 114 -61 160q-62 47 -152 47q-126 0 -212 -79q-87 -79 -87 -187q0 -49 15 -89t43.5 -68.5t69 -44t91.5 -15.5z" />
    <glyph glyph-name="seven" unicode="7" horiz-adv-x="1003" 
d="M176 1425h905l-618 -1425h-283l551 1194h-594z" />
    <glyph glyph-name="eight" unicode="8" horiz-adv-x="1185" 
d="M879 723q227 -72 227 -315q0 -210 -157 -325q-158 -116 -449 -116q-463 0 -463 352q0 156 91 262q92 106 243 146q-178 90 -178 295q0 179 139 306q140 128 403 128q204 0 319 -85t115 -257q0 -141 -82 -241t-208 -150zM700 1223q-121 0 -193 -69q-73 -69 -73 -173
q0 -93 54 -139.5t145 -46.5q114 0 197 74q81 74 81 171q0 46 -15.5 80.5t-43 57t-66.5 34t-86 11.5zM535 205q150 0 235 66q84 65 84 172t-70 153q-71 47 -176 47q-133 0 -217 -69q-84 -70 -84 -175q2 -194 228 -194z" />
    <glyph glyph-name="nine" unicode="9" horiz-adv-x="1183" 
d="M690 1456q91 0 168.5 -30t145.5 -95t107.5 -181.5t39.5 -272.5q0 -245 -80 -450q-80 -204 -242 -332q-164 -128 -383 -128q-267 0 -452 174l129 213q129 -145 309 -145q174 0 285 135q111 136 139 377q-135 -168 -377 -168q-143 0 -244 89q-102 89 -102 265
q0 225 153 387q152 162 404 162zM592 745q117 0 202 78t85 166q0 103 -62 168q-63 64 -155 64q-117 0 -193 -88t-76 -199q0 -93 52.5 -141t146.5 -48z" />
    <glyph glyph-name="colon" unicode=":" horiz-adv-x="458" 
d="M125 786q0 76 56 129q55 52 126 52q30 0 55 -10t43 -28t27.5 -42t9.5 -51q0 -73 -56 -126t-128 -53q-61 0 -97 37t-36 92zM10 98q0 76 56 129q55 52 127 52q30 0 55 -10t43 -28t27.5 -42t9.5 -52q0 -73 -56 -126q-56 -52 -129 -52q-61 0 -97 37t-36 92z" />
    <glyph glyph-name="semicolon" unicode=";" horiz-adv-x="450" 
d="M307 954q61 0 98 -37t37 -94q0 -73 -56 -126q-55 -52 -128 -52q-61 0 -97 37t-36 92q0 76 55 128t127 52zM201 279q141 -4 141 -193q0 -174 -113 -320q-114 -146 -280 -204l-64 129q209 86 281 274h-21q-54 4 -87 40.5t-33 96.5q0 82 52 130q53 47 124 47z" />
    <glyph glyph-name="less" unicode="&#x3c;" horiz-adv-x="917" 
d="M946 1153l-37 -240l-661 -243l583 -250l-38 -240l-764 365l32 205l9 49z" />
    <glyph glyph-name="equal" unicode="=" horiz-adv-x="1128" 
d="M190 997h914l-35 -213h-913zM117 537h913l-35 -215h-913z" />
    <glyph glyph-name="greater" unicode="&#x3e;" horiz-adv-x="919" 
d="M952 799l-32 -207l-9 -47l-880 -365l39 240l663 250l-586 243l37 240z" />
    <glyph glyph-name="question" unicode="?" horiz-adv-x="997" 
d="M1010 1092q0 -185 -115 -297t-303 -144l-39 -211h-223l45 340q171 -2 273 71q102 74 102 189q0 94 -57 143q-58 48 -142 48q-151 -1 -281 -107l-104 179q189 152 461 151q170 0 277 -92q106 -91 106 -270zM416 293q32 0 57.5 -11t43.5 -31t28 -47t10 -59q0 -74 -53 -124
t-129 -50q-31 0 -57.5 11t-45 31t-29 47t-10.5 59q0 75 54 124q53 50 131 50z" />
    <glyph glyph-name="at" unicode="@" horiz-adv-x="1837" 
d="M1364 940l-82 -491q-33 -185 74 -187q73 0 126 80q51 77 74 183q21 102 21 208q0 260 -139 396q-139 135 -357 135q-239 0 -430 -129t-291 -337q-102 -208 -102 -448q0 -243 133 -386q134 -144 402 -144q303 0 546 112l17 -155q-264 -119 -578 -119q-320 -2 -506 170
q-188 173 -188 485q0 299 129 552t366 406q236 152 529 152q282 0 463 -171q182 -171 182 -502q0 -83 -11.5 -161.5t-36 -149t-62.5 -131.5t-90 -110q-106 -98 -246 -98q-93 0 -151 45t-77 123q-129 -161 -323 -159q-119 0 -189.5 76.5t-70.5 232.5q0 223 117 386
q115 163 313 163q172 0 227 -150l39 123h172zM846 289q37 0 72.5 10.5t67 31.5t56.5 51.5t41 70.5l27 157q-4 93 -48 137t-114 44q-111 0 -177 -98q-66 -99 -66 -230q0 -85 39 -129.5t102 -44.5z" />
    <glyph glyph-name="A" unicode="A" horiz-adv-x="1267" 
d="M889 0l-45 338h-490l-151 -338h-256l684 1425h297l227 -1425h-266zM449 545h366l-84 626z" />
    <glyph glyph-name="B" unicode="B" horiz-adv-x="1259" 
d="M961 750q254 -44 253 -285q0 -227 -167 -346q-169 -119 -437 -119h-542l235 1425h574q368 0 366 -288q0 -69 -19.5 -130t-56 -110.5t-88.5 -86.5t-118 -60zM979 1047q0 156 -199 155h-260l-63 -389h274q102 0 175 67t73 167zM643 227q139 0 230 67q90 66 90 187
q0 172 -211 172h-322l-72 -426h285z" />
    <glyph glyph-name="C" unicode="C" horiz-adv-x="1304" 
d="M666 -33q-115 0 -213.5 33t-183.5 104t-133 196t-48 296q0 226 97 419q95 192 293 317q196 124 456 124q295 0 469 -156l-154 -217q-129 129 -338 129q-241 0 -396 -173t-155 -427q0 -205 102 -301q101 -96 255 -96q124 0 242 44q116 44 196 116l59 -238
q-95 -77 -245 -123q-153 -47 -303 -47z" />
    <glyph glyph-name="D" unicode="D" horiz-adv-x="1404" 
d="M770 1425q292 0 455 -137q161 -137 161 -420q0 -209 -69 -376q-70 -168 -189 -273q-121 -106 -274 -162.5t-328 -56.5h-458l235 1425h467zM522 233q64 -1 128.5 11t124.5 37.5t114.5 64.5t97.5 92q57 69 92 172.5t35 231.5q0 356 -389 356h-203l-160 -965h160z" />
    <glyph glyph-name="E" unicode="E" horiz-adv-x="1124" 
d="M1200 1196h-678l-57 -350h526l-35 -207h-526l-68 -410h680l-38 -229h-934l233 1425h936z" />
    <glyph glyph-name="F" unicode="F" horiz-adv-x="1077" 
d="M1176 1194h-656l-59 -358h504l-35 -213h-504l-102 -623h-256l235 1425h911z" />
    <glyph glyph-name="G" unicode="G" horiz-adv-x="1425" 
d="M733 604l33 203h598l-123 -754q-260 -86 -539 -86q-126 0 -230 32t-193 101t-139 193t-50 295q0 369 237 619q236 249 611 249q133 0 265 -44q129 -43 216 -124l-174 -198q-145 127 -336 127q-243 0 -395 -177q-152 -179 -152 -436q0 -203 106 -296q105 -93 273 -93
q154 0 277 43l57 346h-342z" />
    <glyph glyph-name="H" unicode="H" horiz-adv-x="1411" 
d="M1163 1425h254l-235 -1425h-254l102 625h-604l-102 -625h-256l235 1425h256l-94 -567h604z" />
    <glyph glyph-name="I" unicode="I" horiz-adv-x="552" 
d="M557 1425l-233 -1425h-256l235 1425h254z" />
    <glyph glyph-name="J" unicode="J" horiz-adv-x="929" 
d="M291 -33q-200 0 -342 119l90 221q97 -113 244 -112q213 0 258 274l159 956h254l-157 -960q-45 -272 -176 -385t-330 -113z" />
    <glyph glyph-name="K" unicode="K" horiz-adv-x="1255" 
d="M1370 1425l-522 -528l280 -897h-297l-204 674l-230 -234l-73 -440h-256l235 1425h256l-104 -630l614 630h301z" />
    <glyph glyph-name="L" unicode="L" horiz-adv-x="987" 
d="M360 231h568l-39 -231h-823l237 1425h256z" />
    <glyph glyph-name="M" unicode="M" horiz-adv-x="1683" 
d="M1376 1425h301l-223 -1425h-248l162 975l-500 -883h-188l-217 916l-162 -1008h-231l233 1425h301l236 -954z" />
    <glyph glyph-name="N" unicode="N" horiz-adv-x="1378" 
d="M1155 1425h231l-237 -1425h-242l-442 985l-162 -985h-235l235 1425h240l446 -999z" />
    <glyph glyph-name="O" unicode="O" horiz-adv-x="1536" 
d="M668 -33q-246 0 -414 153q-168 152 -168 458q0 368 239 624q239 255 611 256q229 0 401 -138q87 -69 138 -190t51 -280q0 -175 -59 -333t-167 -281q-107 -122 -272 -196q-164 -73 -360 -73zM707 215q239 0 393 186q155 185 155 422q0 189 -101 290q-100 99 -259 99
q-228 0 -382 -178q-155 -179 -155 -420q0 -202 97 -300q96 -99 252 -99z" />
    <glyph glyph-name="P" unicode="P" horiz-adv-x="1224" 
d="M862 1425q201 0 308.5 -99t107.5 -296q0 -254 -160 -404q-160 -151 -444 -151h-275l-77 -475h-256l237 1425h559zM678 700q159 0 245 83q85 82 85 218q0 97 -57 146t-163 49h-268l-82 -496h240z" />
    <glyph glyph-name="Q" unicode="Q" horiz-adv-x="1533" 
d="M668 -33q-246 0 -414 153q-168 152 -168 458q0 368 239 624q239 255 611 256q229 0 401 -138q87 -69 138 -190t51 -280q0 -175 -59 -333t-167 -281q-107 -122 -272 -196q-164 -73 -360 -73zM707 215q239 0 393 186q155 185 155 422q0 189 -101 290q-100 99 -259 99
q-228 0 -382 -178q-155 -179 -155 -420q0 -202 97 -300q96 -99 252 -99zM1249 -358l-760 8l33 203l762 -9z" />
    <glyph glyph-name="R" unicode="R" horiz-adv-x="1280" 
d="M1282 1077q0 -178 -102 -304q-104 -126 -275 -177l250 -596h-301l-213 569h-225l-94 -569h-256l237 1425h578q401 0 401 -348zM520 1196l-69 -422h251q142 0 224 69q82 67 82 185q0 85 -53 126.5t-144 41.5h-291z" />
    <glyph glyph-name="S" unicode="S" horiz-adv-x="1081" 
d="M471 -33q-277 0 -477 166l104 242q147 -170 377 -170q114 0 187 56q71 56 71 145q0 43 -14 73.5t-48 56.5q-17 13 -33.5 23t-32.5 18t-38 17t-51 20q-166 67 -255 160q-87 92 -87 252q0 190 131 310t369 120q257 0 456 -129l-145 -213q-142 109 -315 109q-105 0 -167 -46
q-63 -46 -63 -122q0 -78 45 -120q44 -41 152 -85q42 -17 74 -31t55 -27q48 -26 110 -75q63 -49 92 -121.5t29 -169.5q0 -210 -149 -335q-149 -124 -377 -124z" />
    <glyph glyph-name="T" unicode="T" horiz-adv-x="1058" 
d="M1192 1425l-39 -231h-377l-196 -1194h-256l198 1194h-377l37 231h1010z" />
    <glyph glyph-name="U" unicode="U" horiz-adv-x="1366" 
d="M604 -33q-272 0 -386 179q-114 178 -66 458l135 821h254l-140 -845q-27 -166 28 -269q54 -104 204 -104q146 0 240 96.5t124 276.5l142 845h254l-140 -831q-102 -627 -649 -627z" />
    <glyph glyph-name="V" unicode="V" horiz-adv-x="1351" 
d="M1186 1425h266l-727 -1425h-299l-213 1425h274l125 -931q6 -76 9 -135.5t4 -102.5q17 39 44.5 102.5t65.5 151.5z" />
    <glyph glyph-name="W" unicode="W" horiz-adv-x="1921" 
d="M1747 1425h262l-567 -1425h-297l-78 752q-3 32 -6.5 108t-7.5 199q-73 -209 -111 -293l-358 -766h-297l-62 1425h273l8 -929q-2 -29 -4 -77t-4 -114q17 48 36 94t39 93l420 923h252l94 -893q8 -118 9 -213q26 75 42 124.5t23 72.5z" />
    <glyph glyph-name="X" unicode="X" horiz-adv-x="1265" 
d="M1352 1425l-504 -688l289 -737h-277l-221 590l-387 -590h-287l533 758l-277 667h279l202 -542l371 542h279z" />
    <glyph glyph-name="Y" unicode="Y" horiz-adv-x="1189" 
d="M1323 1425l-594 -907l-86 -518h-254l86 524l-295 901h279l184 -661l401 661h279z" />
    <glyph glyph-name="Z" unicode="Z" horiz-adv-x="1134" 
d="M1182 1425l-35 -215l-797 -985l699 2l-39 -227h-1006l37 213l778 983h-647l39 229h971z" />
    <glyph glyph-name="bracketleft" unicode="[" horiz-adv-x="540" 
d="M629 1503h-156l-270 -1720h155l-30 -193h-400l330 2106h399z" />
    <glyph glyph-name="backslash" unicode="\" horiz-adv-x="942" 
d="M766 -252h-244l-344 1935h244z" />
    <glyph glyph-name="bracketright" unicode="]" horiz-adv-x="540" 
d="M264 1696h400l-330 -2106h-400l31 193h156l270 1720h-158z" />
    <glyph glyph-name="asciicircum" unicode="^" horiz-adv-x="1101" 
d="M1073 705h-239l-140 624l-354 -624h-240l502 823h254z" />
    <glyph glyph-name="underscore" unicode="_" horiz-adv-x="1003" 
d="M-55 -219l32 172h873l-31 -172h-874z" />
    <glyph glyph-name="grave" unicode="`" horiz-adv-x="1228" 
d="M571 1128h-168l-188 443h248z" />
    <glyph glyph-name="a" unicode="a" horiz-adv-x="1134" 
d="M889 977h227l-162 -977h-229l12 127q-142 -160 -358 -160q-150 0 -243 101t-93 286q0 299 156 477q155 177 383 177q88 0 161 -41.5t115 -110.5zM487 190q178 0 285 170l43 275q-55 156 -209 156q-126 0 -221 -105q-94 -106 -94 -268q0 -106 52.5 -167t143.5 -61z" />
    <glyph glyph-name="b" unicode="b" horiz-adv-x="1148" 
d="M776 1008q136 0 234 -95q96 -96 96 -288q0 -293 -152 -475q-153 -183 -393 -183q-190 0 -280 156l-31 -123h-227l251 1528h244l-112 -680q136 160 370 160zM537 186q137 0 229 110t92 263q0 122 -58 174q-59 53 -141 53q-190 0 -292 -180l-45 -272q29 -70 86 -109
t129 -39z" />
    <glyph glyph-name="c" unicode="c" horiz-adv-x="897" 
d="M817 90q-154 -123 -395 -123q-165 0 -271 97q-108 96 -108 309q0 282 172 458q173 177 420 177q181 0 311 -115l-137 -176q-83 76 -191 76q-129 0 -228 -105q-99 -106 -99 -272q0 -57 15 -99t42.5 -70.5t65 -42.5t82.5 -14q167 0 276 99z" />
    <glyph glyph-name="d" unicode="d" horiz-adv-x="1136" 
d="M963 1526h245l-252 -1524l-225 -2l8 125q-141 -158 -358 -158q-154 0 -247 102q-93 101 -93 289q0 292 157 471q156 179 382 179q184 0 274 -144zM487 186q179 0 285 172l47 293q-55 143 -207 144q-130 0 -225 -107q-94 -107 -94 -276q0 -105 51.5 -165.5t142.5 -60.5z
" />
    <glyph glyph-name="e" unicode="e" horiz-adv-x="1003" 
d="M944 430h-661v-22q0 -228 231 -230q177 0 322 94l55 -188q-184 -117 -426 -117q-184 0 -304 96q-120 95 -120 299q0 274 165 460t423 186q156 0 247 -87t91 -274q0 -111 -23 -217zM586 821q-90 0 -167 -68q-78 -70 -112 -180h434q2 19 3 33t1 25q1 190 -159 190z" />
    <glyph glyph-name="f" unicode="f" horiz-adv-x="671" 
d="M629 1559q152 0 264 -76l-88 -180q-64 47 -137 47q-119 0 -146 -154l-37 -219h179l-33 -205h-178l-201 -1221h-244l201 1221h-123l31 205h125l41 246q56 336 346 336z" />
    <glyph glyph-name="g" unicode="g" horiz-adv-x="1138" 
d="M915 977h209l-161 -981q-27 -155 -82.5 -262t-133.5 -164q-79 -57 -165.5 -82t-194.5 -25q-255 0 -416 140l84 207q135 -132 326 -134q285 0 340 330l18 111q-135 -150 -348 -150q-161 0 -255 103q-95 103 -95 295q0 293 156 468q154 175 383 175q200 0 294 -156z
M489 190q178 0 291 164l47 275q-55 162 -225 162q-129 0 -223 -106t-94 -269q0 -53 14.5 -95t41.5 -71t64.5 -44.5t83.5 -15.5z" />
    <glyph glyph-name="h" unicode="h" horiz-adv-x="1081" 
d="M760 1008q143 0 210 -97q67 -98 38 -268l-107 -645h-244l97 577q38 213 -131 213q-156 0 -254 -180l-101 -608l-243 4l249 1524h244l-119 -725q130 205 361 205z" />
    <glyph glyph-name="i" unicode="i" horiz-adv-x="485" 
d="M240 1292q0 73 48 119q49 47 115 47q57 0 88 -33.5t31 -87.5q0 -72 -48 -117q-47 -46 -120 -46q-49 0 -81.5 29t-32.5 89zM446 977l-163 -977h-242l162 977h243z" />
    <glyph glyph-name="j" unicode="j" horiz-adv-x="477" 
d="M348 1174q-49 0 -80.5 29t-31.5 89q0 72 47 119t114 47q57 0 88 -33.5t31 -87.5q0 -36 -12.5 -66t-34.5 -51.5t-53 -33.5t-68 -12zM-182 -528l-35 206q202 6 240 218l176 1081h241l-174 -1086q-33 -208 -141 -305q-108 -98 -307 -114z" />
    <glyph glyph-name="k" unicode="k" horiz-adv-x="999" 
d="M1038 977l-360 -359l213 -618h-264l-142 430l-178 -178l-41 -252h-243l251 1528h244l-166 -1010l400 459h286z" />
    <glyph glyph-name="l" unicode="l" horiz-adv-x="454" 
d="M516 1528l-248 -1528h-241l247 1528h242z" />
    <glyph glyph-name="m" unicode="m" horiz-adv-x="1656" 
d="M1339 1008q151 0 213 -94t33 -273l-106 -641h-244l94 578q32 210 -125 208q-137 0 -227 -172l-100 -614h-244l96 584q38 207 -123 207q-135 0 -227 -164l-107 -627h-241l162 977h225l-15 -164q123 195 345 195q219 0 241 -220q29 49 66 89.5t81 69.5t95 45t108 16z" />
    <glyph glyph-name="n" unicode="n" horiz-adv-x="1087" 
d="M768 1008q143 0 209 -97q65 -99 37 -268l-105 -645h-245l96 577q38 213 -133 213q-154 0 -252 -182l-103 -606h-243l164 977h243l-30 -176q135 207 362 207z" />
    <glyph glyph-name="o" unicode="o" horiz-adv-x="1099" 
d="M461 -33q-184 0 -301 102q-117 101 -117 312q0 262 171 445q171 182 439 182q171 0 287 -101q115 -102 115 -313q0 -279 -171 -453t-423 -174zM485 193q127 -4 224 96q96 100 106 254q6 126 -52 184q-60 60 -147 61q-131 5 -230 -99q-100 -104 -101 -255q-4 -119 51 -179
t149 -62z" />
    <glyph glyph-name="p" unicode="p" horiz-adv-x="1153" 
d="M782 1008q133 0 232 -96q98 -98 98 -287q0 -293 -155 -475q-156 -183 -396 -183q-184 0 -270 137l-101 -608h-243l246 1481h217l-9 -143q135 174 381 174zM537 186q138 0 232 111q95 112 95 262q0 122 -58 174q-59 53 -140 53q-186 0 -289 -172l-49 -290q27 -66 83 -102
t126 -36z" />
    <glyph glyph-name="q" unicode="q" horiz-adv-x="1132" 
d="M903 977h213l-248 -1483h-243l102 621q-135 -146 -348 -148q-154 0 -246 101t-92 292q0 289 156 469q155 179 376 179q97 0 172.5 -42t114.5 -112zM489 190q81 0 154.5 42t124.5 118l47 283q-53 158 -211 158q-126 0 -221 -108q-94 -107 -94 -269q0 -105 53.5 -164.5
t146.5 -59.5z" />
    <glyph glyph-name="r" unicode="r" horiz-adv-x="698" 
d="M684 995q48 0 78 -8l-41 -223q-33 6 -68 6q-111 0 -182.5 -74.5t-120.5 -232.5l-78 -463h-243l164 977h235l-29 -215q105 233 285 233z" />
    <glyph glyph-name="s" unicode="s" horiz-adv-x="786" 
d="M481 272q0 18 -6.5 34t-17 28.5t-22.5 22t-24 14.5t-30.5 12t-44.5 16q-258 83 -258 291q0 142 101 231q101 87 282 87q177 0 332 -80l-103 -174q-103 68 -237 67q-144 0 -146 -104q0 -82 133 -127q134 -44 203 -107q70 -64 70 -188q0 -152 -115 -240t-295 -88
q-212 0 -342 94l82 183q109 -88 264 -88q78 0 126 30.5t48 85.5z" />
    <glyph glyph-name="t" unicode="t" horiz-adv-x="692" 
d="M444 772l-69 -416q-28 -174 98 -174q91 0 180 58l9 -201q-124 -72 -289 -72q-72 0 -125 21.5t-85 66.5t-41.5 113.5t5.5 161.5l74 442h-115l31 205h116l52 303h243l-51 -303h262l-32 -205h-263z" />
    <glyph glyph-name="u" unicode="u" horiz-adv-x="1067" 
d="M795 977h243l-161 -977h-244l26 160q-133 -193 -356 -193q-137 0 -201 100q-64 99 -36 273l106 637h244l-97 -574q-16 -103 14.5 -160t108.5 -57q150 0 252 181z" />
    <glyph glyph-name="v" unicode="v" horiz-adv-x="1001" 
d="M813 977h264l-540 -977h-279l-170 977h248l106 -768z" />
    <glyph glyph-name="w" unicode="w" horiz-adv-x="1419" 
d="M1225 977h258l-465 -977h-225l-70 666l-303 -666h-240l-80 977h246l14 -746l318 736h194l70 -727z" />
    <glyph glyph-name="x" unicode="x" horiz-adv-x="954" 
d="M1004 977l-379 -481l229 -496h-262l-152 383l-239 -383h-262l383 522l-216 455h261l137 -354l237 354h263z" />
    <glyph glyph-name="y" unicode="y" horiz-adv-x="1021" 
d="M834 977h258l-828 -1483h-254l289 490l-207 993h254l115 -731z" />
    <glyph glyph-name="z" unicode="z" horiz-adv-x="821" 
d="M838 977l-31 -186l-528 -601h460l-30 -190h-736l33 188l518 598h-436l31 191h719z" />
    <glyph glyph-name="braceleft" unicode="{" horiz-adv-x="628" 
d="M549 1729q128 0 231 -50l-39 -196q-94 39 -147 39q-56 0 -97 -40q-42 -40 -42 -122q0 -31 5 -77.5t15 -110.5t14.5 -114t4.5 -87q0 -105 -56 -188q-57 -82 -143 -111q125 -45 125 -185q0 -103 -97 -304q-98 -204 -98 -275q0 -118 119 -123q83 0 141 18l-49 -200
q-84 -18 -180 -15q-64 1 -117 17.5t-90 48t-57.5 77t-20.5 105.5q0 109 105 328q104 220 104 309q0 57 -30.5 85t-108.5 28l33 200q88 0 135 42t47 147q0 35 -4.5 88.5t-14.5 125.5t-15 124.5t-5 85.5q0 153 87 241q87 89 245 89z" />
    <glyph glyph-name="bar" unicode="|" horiz-adv-x="591" 
d="M614 1653l-315 -1874h-244l316 1874h243z" />
    <glyph glyph-name="braceright" unicode="}" horiz-adv-x="628" 
d="M506 844q0 -57 30.5 -85t108.5 -28l-33 -201q-90 0 -137 -43t-47 -145q0 -70 21 -214q10 -72 15 -124.5t5 -85.5q0 -153 -87 -241q-87 -89 -245 -89q-125 0 -233 50l41 196q95 -39 145 -39q55 0 98 40t43 122q0 29 -4.5 76t-14.5 111t-14.5 114.5t-4.5 87.5q0 108 56 190
q56 80 142 109q-125 41 -125 184q0 100 98 304q97 201 97 276q0 119 -121 123q-81 0 -141 -19l51 201q71 14 180 15q129 0 207 -66t78 -184q0 -108 -104 -327q-105 -217 -105 -308z" />
    <glyph glyph-name="asciitilde" unicode="~" horiz-adv-x="1040" 
d="M356 676q-44 0 -92 -19q-25 -10 -44 -19.5t-33 -18.5q-14 -10 -35.5 -25t-49.5 -35l35 232q131 110 248 108q79 0 206 -72q127 -73 193 -73q46 0 97 20q25 10 43 18.5t30 16.5q11 8 32 23t50 38l-35 -237q-112 -101 -247 -103q-91 0 -216 73q-127 73 -182 73z" />
    <glyph glyph-name="exclamdown" unicode="&#xa1;" horiz-adv-x="593" 
d="M535 942q0 -72 -53 -123q-54 -51 -126 -51q-63 0 -105 43q-42 44 -42 104q0 72 51 124q51 51 121 51q67 0 110 -43q44 -44 44 -105zM37 -367l186 1016h221l-147 -1016h-260z" />
    <glyph glyph-name="cent" unicode="&#xa2;" horiz-adv-x="915" 
d="M811 539l68 -193q-91 -76 -254 -102l-39 -244h-224l39 248q-144 32 -226 144q-83 113 -83 284q0 252 131 419q130 166 344 195l37 238h221l-39 -248q130 -33 224 -125l-138 -176q-55 56 -120 78l-93 -592q91 20 152 74zM332 707q0 -158 108 -220l88 564
q-88 -37 -142 -125t-54 -219z" />
    <glyph glyph-name="sterling" unicode="&#xa3;" horiz-adv-x="1130" 
d="M874 1221q-134 0 -226 -89q-92 -90 -144 -307h440l-31 -209h-446q-11 -85 -19 -181t-12 -206h582l-37 -229h-1018l37 229h176q6 225 27 387h-137l32 209h138q39 183 99 310t142 196q82 68 172 96.5t205 28.5q238 0 401 -133l-127 -207q-117 105 -254 105z" />
    <glyph glyph-name="currency" unicode="&#xa4;" horiz-adv-x="1212" 
d="M1192 803q0 -278 -203 -445l86 -186l-207 -102l-86 182q-96 -27 -190 -27q-114 0 -215 43l-137 -162l-170 127l141 168q-86 112 -86 265q0 259 170 426l-109 194l193 105l98 -181q117 45 238 45q146 0 252 -61l141 170l170 -129l-154 -184q68 -107 68 -248zM356 696
q0 -121 75 -189q75 -69 183 -69q144 0 245 97q102 96 102 251q0 117 -78 189t-191 72q-126 0 -230 -94q-106 -94 -106 -257z" />
    <glyph glyph-name="yen" unicode="&#xa5;" horiz-adv-x="1224" 
d="M1321 1425l-408 -569h252l-30 -209h-359l-26 -164h358l-33 -207h-358l-43 -276h-254l43 276h-357l33 207h357l24 164h-356l33 209h245l-225 569h279l186 -555l350 555h289z" />
    <glyph glyph-name="brokenbar" unicode="&#xa6;" horiz-adv-x="591" 
d="M614 1653l-145 -862h-246l148 862h243zM444 641l-145 -862h-244l146 862h243z" />
    <glyph glyph-name="section" unicode="&#xa7;" horiz-adv-x="1218" 
d="M750 909q192 -45 290 -114q97 -70 97 -213q0 -114 -78 -194q-77 -78 -201 -101q111 -85 111 -238q0 -168 -142 -276q-143 -107 -401 -107t-457 109l123 198q131 -96 365 -96q109 0 185 36q75 36 75 118q0 59 -59 94q-61 35 -207 68q-181 39 -270 116t-89 205q0 60 18 111
t51.5 90t81 66.5t107.5 41.5q-102 86 -102 246q0 179 140 283q140 103 380 104q269 -5 461 -110l-129 -207q-166 106 -365 106q-241 0 -239 -158q0 -67 54 -105q54 -39 200 -73zM713 358q77 5 127 49q51 44 51 105q0 70 -65 114q-68 45 -238 89q-23 6 -49 15t-56 20
q-66 -12 -106.5 -55.5t-40.5 -110.5q0 -62 51 -109q51 -46 188 -78q92 -22 138 -39z" />
    <glyph glyph-name="dieresis" unicode="&#xa8;" horiz-adv-x="1228" 
d="M188 1370q11 60 59 101q48 42 108 42q59 0 92 -41q32 -43 22 -102q-7 -57 -55 -98q-47 -41 -106 -41t-94 41q-34 40 -26 98zM633 1370q8 59 56 101t108 42q58 0 93 -41q35 -42 24 -101q-10 -59 -59 -100q-47 -40 -105 -40t-93 41t-24 98z" />
    <glyph glyph-name="copyright" unicode="&#xa9;" horiz-adv-x="1832" 
d="M1096 1563q315 0 494 -182q179 -184 179 -468q0 -416 -264 -682t-678 -266q-322 0 -498 174q-177 174 -177 471q0 397 272 675t672 278zM1667 901q0 262 -167 417t-419 155q-342 0 -582 -252q-241 -251 -241 -600q0 -268 159 -415q158 -147 429 -147q342 0 582 241
q239 242 239 601zM1280 430q-157 -133 -377 -133q-168 0 -267 93t-99 269q0 250 154 419q153 169 394 169q183 0 299 -104l-149 -166q-70 61 -172 61q-127 0 -207 -98t-80 -233q0 -47 14 -83.5t38.5 -62t59.5 -38.5t77 -13q120 0 229 82z" />
    <glyph glyph-name="guillemotleft" unicode="&#xab;" horiz-adv-x="1046" 
d="M549 793l-352 -226l274 -235l-35 -236l-403 373l35 221l518 357zM1063 1047l-37 -254l-352 -226l274 -235l-35 -236l-403 373l35 221z" />
    <glyph glyph-name="logicalnot" unicode="&#xac;" horiz-adv-x="1105" 
d="M1063 850l-80 -508h-215l45 293h-713l33 215h930z" />
    <glyph glyph-name="registered" unicode="&#xae;" horiz-adv-x="1126" 
d="M748 1587q199 0 310 -112t111 -291q0 -253 -164 -425q-165 -171 -425 -171q-197 0 -309 109q-113 108 -113 288q0 255 169 428q170 174 421 174zM594 666q215 0 353 149t138 359q0 161 -97 249t-253 88q-214 0 -353 -151q-140 -152 -140 -363q0 -158 95 -244
q95 -87 257 -87zM905 1225q0 -128 -123 -181l76 -200h-129l-59 178h-90l-31 -178h-119l88 528h213q174 0 174 -147zM621 1264l-27 -156h63q123 0 123 94q0 61 -78 62h-81z" />
    <glyph glyph-name="macron" unicode="&#xaf;" horiz-adv-x="1228" 
d="M195 1462h706l-33 -202h-708z" />
    <glyph glyph-name="degree" unicode="&#xb0;" horiz-adv-x="749" 
d="M426 799q-67 0 -120 19t-90 54.5t-56 86.5t-19 114q0 170 110 283q109 112 288 112q138 0 211 -76t73 -212q0 -167 -109 -273q-109 -108 -288 -108zM453 946q93 0 154 64q61 62 61 157q0 76 -40 117t-112 41q-92 0 -154 -65q-63 -66 -63 -160q0 -75 41 -114.5t113 -39.5z
" />
    <glyph glyph-name="plusminus" unicode="&#xb1;" horiz-adv-x="1124" 
d="M748 969h344l-35 -215h-342l-43 -277h-221l43 277h-344l34 215h342l43 274h222zM47 102l33 215h909l-33 -215h-909z" />
    <glyph glyph-name="acute" unicode="&#xb4;" horiz-adv-x="1228" 
d="M711 1571l-334 -443h-168l256 443h246z" />
    <glyph glyph-name="paragraph" unicode="&#xb6;" horiz-adv-x="1003" 
d="M768 1425h272l-219 -1304q-40 -244 -182 -357q-140 -112 -330 -112q-127 0 -232 50q-103 49 -161 118l113 203q117 -140 264 -142q225 0 276 287l52 293h-13q-121 0 -211 31t-145 93.5t-74 157t2 222.5q78 460 588 460z" />
    <glyph glyph-name="periodcentered" unicode="&#xb7;" horiz-adv-x="458" 
d="M104 668q0 75 56 128q55 52 127 52q30 0 55 -10t43 -28t27.5 -42t9.5 -51q0 -73 -56 -126q-56 -52 -128 -52q-61 0 -97.5 37t-36.5 92z" />
    <glyph glyph-name="cedilla" unicode="&#xb8;" horiz-adv-x="1228" 
d="M375 -154q172 0 172 -172q0 -129 -93 -202q-94 -72 -231 -72q-154 0 -258 63l70 131q86 -53 184 -53q66 0 108 34t42 91q0 66 -72 66q-61 0 -104 -43l-115 43l160 291h157l-123 -195q56 18 103 18z" />
    <glyph glyph-name="guillemotright" unicode="&#xbb;" horiz-adv-x="1062" 
d="M578 690l-33 -219l-533 -375l41 256l363 240l-289 221l35 234zM645 1047l416 -357l-35 -219l-530 -375l41 256l362 240l-289 221z" />
    <glyph glyph-name="questiondown" unicode="&#xbf;" horiz-adv-x="999" 
d="M590 729q-31 0 -57 11t-44 31t-28 47t-10 59q0 74 53 124t129 50q32 0 57.5 -11t44.5 -31t29 -47t10 -59q0 -74 -53 -124t-131 -50zM735 -102l105 -179q-189 -152 -461 -151q-169 0 -276 92t-107 270q0 185 115 297q114 113 303 144l39 211h223l-45 -340q-171 2 -272 -71
q-103 -73 -103 -189q0 -94 58 -143q57 -48 141 -48q150 3 280 107z" />
    <glyph glyph-name="Agrave" unicode="&#xc0;" horiz-adv-x="1267" 
d="M887 1575h-172l-209 442h246zM889 0l-45 338h-490l-151 -338h-256l684 1425h297l227 -1425h-266zM449 545h366l-84 626z" />
    <glyph glyph-name="Aacute" unicode="&#xc1;" horiz-adv-x="1267" 
d="M1300 1999l-413 -424h-195l340 424h268zM631 1425h297l227 -1425h-266l-45 338h-490l-151 -338h-256zM449 545h366l-84 626z" />
    <glyph glyph-name="Acircumflex" unicode="&#xc2;" horiz-adv-x="1267" 
d="M874 1845l-227 -276h-172l326 450h205l174 -450h-172zM631 1425h297l227 -1425h-266l-45 338h-490l-151 -338h-256zM449 545h366l-84 626z" />
    <glyph glyph-name="Atilde" unicode="&#xc3;" horiz-adv-x="1267" 
d="M705 1761q-76 0 -111 -215h-178q50 410 262 410q46 0 90 -35q22 -17 39.5 -36.5t31.5 -39.5q28 -42 61 -75q35 -35 65 -35q78 0 112 217h180q-51 -412 -270 -412q-58 0 -111 56q-26 28 -50 55t-44 55q-42 55 -77 55zM631 1425h297l227 -1425h-266l-45 338h-490l-151 -338
h-256zM449 545h366l-84 626z" />
    <glyph glyph-name="Adieresis" unicode="&#xc4;" horiz-adv-x="1267" 
d="M602 1608q-59 0 -94 42t-24 101q11 60 58 101q48 42 108 42q59 0 93 -42q33 -43 23 -101q-11 -60 -58 -101q-49 -42 -106 -42zM1061 1894q62 0 96 -42q35 -43 25 -101q-11 -59 -59 -101t-109 -42q-59 0 -94 42q-35 43 -25 101q11 60 59 101q48 42 107 42zM631 1425h297
l227 -1425h-266l-45 338h-490l-151 -338h-256zM449 545h366l-84 626z" />
    <glyph glyph-name="Aring" unicode="&#xc5;" horiz-adv-x="1267" 
d="M803 1561q-122 0 -180 70q-60 69 -41 184t103 187q83 69 204 69q122 0 180 -72q59 -72 41 -184t-101 -183t-206 -71zM729 1815q-10 -55 16.5 -88t80.5 -33t91 31.5t46 89.5q8 57 -17 90.5t-79 33.5t-92 -33.5t-46 -90.5zM889 0l-45 338h-490l-151 -338h-256l684 1425h297
l227 -1425h-266zM449 545h366l-84 626z" />
    <glyph glyph-name="AE" unicode="&#xc6;" horiz-adv-x="1851" 
d="M1919 1196h-645l-49 -354h493l-35 -207h-487l-55 -406h628l-38 -229h-881l47 338h-498l-213 -338h-270l897 1425h1143zM528 545h398l90 651h-78z" />
    <glyph glyph-name="Ccedilla" unicode="&#xc7;" horiz-adv-x="1304" 
d="M911 1212q-241 0 -396 -173t-155 -427q0 -205 102 -301q101 -96 255 -96q124 0 242 44q116 44 196 116l59 -238q-91 -73 -237 -120q-73 -23 -146 -35.5t-147 -14.5l-88 -139q56 18 102 18q172 0 172 -172q0 -129 -93 -202q-93 -72 -230 -72q-154 0 -258 63l69 131
q86 -53 185 -53q66 0 107.5 34t41.5 91q0 66 -71 66q-62 0 -105 -43l-115 43l136 245q-199 35 -324 186t-125 433q0 226 97 419q95 192 293 317q196 124 456 124q295 0 469 -156l-154 -217q-129 129 -338 129z" />
    <glyph glyph-name="Egrave" unicode="&#xc8;" horiz-adv-x="1124" 
d="M864 1575h-172l-209 442h246zM1200 1196h-678l-57 -350h526l-35 -207h-526l-68 -410h680l-38 -229h-934l233 1425h936z" />
    <glyph glyph-name="Eacute" unicode="&#xc9;" horiz-adv-x="1124" 
d="M1278 1999l-414 -424h-194l340 424h268zM70 0l233 1425h936l-39 -229h-678l-57 -350h526l-35 -207h-526l-68 -410h680l-38 -229h-934z" />
    <glyph glyph-name="Ecircumflex" unicode="&#xca;" horiz-adv-x="1124" 
d="M852 1845l-227 -276h-172l325 450h205l174 -450h-172zM1200 1196h-678l-57 -350h526l-35 -207h-526l-68 -410h680l-38 -229h-934l233 1425h936z" />
    <glyph glyph-name="Edieresis" unicode="&#xcb;" horiz-adv-x="1124" 
d="M580 1608q-59 0 -94 42q-35 43 -25 101q11 60 58 101q48 42 108 42q59 0 93 -42q35 -42 24 -101t-59 -101t-105 -42zM991 1608q-59 0 -94 42t-24 101q11 60 58 101q48 42 107 42q62 0 96 -42q35 -43 25 -101q-11 -60 -58 -101q-49 -42 -110 -42zM1200 1196h-678l-57 -350
h526l-35 -207h-526l-68 -410h680l-38 -229h-934l233 1425h936z" />
    <glyph glyph-name="Igrave" unicode="&#xcc;" horiz-adv-x="552" 
d="M369 1575l-209 442h246l135 -442h-172zM557 1425l-233 -1425h-256l235 1425h254z" />
    <glyph glyph-name="Iacute" unicode="&#xcd;" horiz-adv-x="552" 
d="M954 1999l-413 -424h-195l340 424h268zM557 1425l-233 -1425h-256l235 1425h254z" />
    <glyph glyph-name="Icircumflex" unicode="&#xce;" horiz-adv-x="552" 
d="M659 2019l175 -450h-172l-134 276l-227 -276h-172l326 450h204zM68 0l235 1425h254l-233 -1425h-256z" />
    <glyph glyph-name="Idieresis" unicode="&#xcf;" horiz-adv-x="552" 
d="M256 1608q-59 0 -94 42q-35 43 -25 101q11 60 59 101q48 42 107 42t93 -42q35 -42 24 -101q-11 -60 -58 -101q-49 -42 -106 -42zM668 1608q-59 0 -94 42q-35 43 -25 101q11 60 58 101q48 42 108 42q62 0 96 -42q35 -43 25 -101q-11 -59 -59 -101t-109 -42zM557 1425
l-233 -1425h-256l235 1425h254z" />
    <glyph glyph-name="Eth" unicode="&#xd0;" horiz-adv-x="1404" 
d="M770 1425q292 0 455 -137q161 -137 161 -420q0 -209 -69 -376q-70 -168 -189 -273q-121 -106 -274 -162.5t-328 -56.5h-458l106 643h-102l34 209h103l94 573h467zM522 233q64 -1 128.5 11t124.5 37.5t114.5 64.5t97.5 92q57 69 92 172.5t35 231.5q0 356 -389 356h-203
l-57 -346h334l-35 -209h-334l-68 -410h160z" />
    <glyph glyph-name="Ntilde" unicode="&#xd1;" horiz-adv-x="1378" 
d="M770 1761q-76 0 -111 -215h-178q50 410 262 410q47 0 91 -35q22 -17 39.5 -36.5t31.5 -39.5q28 -42 61 -75q33 -35 64 -35q79 0 113 217h180q-51 -412 -270 -412q-58 0 -111 56q-26 28 -50 55t-45 55q-42 55 -77 55zM1155 1425h231l-237 -1425h-242l-442 985l-162 -985
h-235l235 1425h240l446 -999z" />
    <glyph glyph-name="Ograve" unicode="&#xd2;" horiz-adv-x="1536" 
d="M860 1575l-209 442h246l135 -442h-172zM668 -33q-246 0 -414 153q-168 152 -168 458q0 368 239 624q239 255 611 256q229 0 401 -138q87 -69 138 -190t51 -280q0 -175 -59 -333t-167 -281q-107 -122 -272 -196q-164 -73 -360 -73zM707 215q239 0 393 186q155 185 155 422
q0 189 -101 290q-100 99 -259 99q-228 0 -382 -178q-155 -179 -155 -420q0 -202 97 -300q96 -99 252 -99z" />
    <glyph glyph-name="Oacute" unicode="&#xd3;" horiz-adv-x="1536" 
d="M1446 1999l-414 -424h-194l340 424h268zM668 -33q-246 0 -414 153q-168 152 -168 458q0 368 239 624q239 255 611 256q229 0 401 -138q87 -69 138 -190t51 -280q0 -175 -59 -333t-167 -281q-107 -122 -272 -196q-164 -73 -360 -73zM707 215q239 0 393 186
q155 185 155 422q0 189 -101 290q-100 99 -259 99q-228 0 -382 -178q-155 -179 -155 -420q0 -202 97 -300q96 -99 252 -99z" />
    <glyph glyph-name="Ocircumflex" unicode="&#xd4;" horiz-adv-x="1536" 
d="M1020 1845l-227 -276h-172l325 450h205l174 -450h-172zM936 1458q229 0 401 -138q87 -69 138 -190t51 -280q0 -175 -59 -333t-167 -281q-107 -122 -273 -196q-164 -73 -359 -73q-246 0 -414 153q-168 152 -168 458q0 368 239 624q239 255 611 256zM707 215q239 0 393 186
q155 185 155 422q0 189 -101 290q-100 99 -259 99q-228 0 -382 -178q-155 -179 -155 -420q0 -202 97 -300q96 -99 252 -99z" />
    <glyph glyph-name="Otilde" unicode="&#xd5;" horiz-adv-x="1536" 
d="M850 1761q-76 0 -111 -215h-178q50 410 262 410q46 0 90 -35q22 -17 39.5 -36.5t31.5 -39.5t29.5 -39t32.5 -36q33 -35 64 -35q79 0 113 217h180q-51 -412 -270 -412q-58 0 -111 56q-26 28 -50 55t-45 55q-42 55 -77 55zM668 -33q-246 0 -414 153q-168 152 -168 458
q0 368 239 624q239 255 611 256q229 0 401 -138q87 -69 138 -190t51 -280q0 -175 -59 -333t-167 -281q-107 -122 -272 -196q-164 -73 -360 -73zM707 215q239 0 393 186q155 185 155 422q0 189 -101 290q-100 99 -259 99q-228 0 -382 -178q-155 -179 -155 -420
q0 -202 97 -300q96 -99 252 -99z" />
    <glyph glyph-name="Odieresis" unicode="&#xd6;" horiz-adv-x="1536" 
d="M748 1608q-59 0 -94 42q-36 42 -25 101q11 60 58 101q48 42 108 42q59 0 93 -42q35 -42 24 -101t-59 -101t-105 -42zM1159 1608q-59 0 -94 42t-24 101q11 60 58 101q48 42 107 42q62 0 96 -42q35 -43 25 -101q-11 -60 -58 -101q-49 -42 -110 -42zM668 -33
q-246 0 -414 153q-168 152 -168 458q0 368 239 624q239 255 611 256q229 0 401 -138q87 -69 138 -190t51 -280q0 -175 -59 -333t-167 -281q-107 -122 -272 -196q-164 -73 -360 -73zM707 215q239 0 393 186q155 185 155 422q0 189 -101 290q-100 99 -259 99q-228 0 -382 -178
q-155 -179 -155 -420q0 -202 97 -300q96 -99 252 -99z" />
    <glyph glyph-name="multiply" unicode="&#xd7;" horiz-adv-x="1067" 
d="M1055 1012l-346 -318l243 -317l-172 -141l-235 305l-332 -305l-133 141l346 317l-244 318l174 141l236 -305l332 305z" />
    <glyph glyph-name="Oslash" unicode="&#xd8;" horiz-adv-x="1536" 
d="M1561 1348l-131 -134q96 -150 96 -364q0 -175 -59 -333t-167 -281q-107 -122 -273 -196q-164 -73 -359 -73q-212 0 -363 109l-108 -111l-148 119l129 131q-92 148 -92 363q0 368 239 624q239 255 611 256q209 0 360 -106l105 104zM358 614q0 -105 29 -186l717 727
q-88 57 -209 57q-228 0 -382 -178q-155 -179 -155 -420zM1255 823q0 99 -32 183l-721 -732q85 -59 205 -59q238 0 393 185t155 423z" />
    <glyph glyph-name="Ugrave" unicode="&#xd9;" horiz-adv-x="1366" 
d="M774 1575l-209 442h246l135 -442h-172zM604 -33q-272 0 -386 179q-114 178 -66 458l135 821h254l-140 -845q-27 -166 28 -269q54 -104 204 -104q146 0 240 96.5t124 276.5l142 845h254l-140 -831q-102 -627 -649 -627z" />
    <glyph glyph-name="Uacute" unicode="&#xda;" horiz-adv-x="1366" 
d="M1360 1999l-414 -424h-194l340 424h268zM604 -33q-272 0 -386 179q-114 178 -66 458l135 821h254l-140 -845q-27 -166 28 -269q54 -104 204 -104q146 0 240 96.5t124 276.5l142 845h254l-140 -831q-102 -627 -649 -627z" />
    <glyph glyph-name="Ucircumflex" unicode="&#xdb;" horiz-adv-x="1366" 
d="M934 1845l-227 -276h-172l325 450h205l174 -450h-172zM1139 1425h254l-140 -831q-102 -627 -649 -627q-272 0 -386 179q-114 178 -66 458l135 821h254l-140 -845q-27 -166 28 -269q54 -104 204 -104q146 0 240 96.5t124 276.5z" />
    <glyph glyph-name="Udieresis" unicode="&#xdc;" horiz-adv-x="1366" 
d="M662 1608q-59 0 -94 42q-36 42 -25 101q11 60 58 101q48 42 108 42q59 0 93 -42q35 -42 24 -101t-59 -101t-105 -42zM1073 1608q-59 0 -94 42t-24 101q11 60 58 101q48 42 107 42q62 0 96 -42q35 -43 25 -101q-11 -60 -58 -101q-49 -42 -110 -42zM604 -33
q-272 0 -386 179q-114 178 -66 458l135 821h254l-140 -845q-27 -166 28 -269q54 -104 204 -104q146 0 240 96.5t124 276.5l142 845h254l-140 -831q-102 -627 -649 -627z" />
    <glyph glyph-name="Yacute" unicode="&#xdd;" horiz-adv-x="1189" 
d="M1274 1999l-414 -424h-194l340 424h268zM1323 1425l-594 -907l-86 -518h-254l86 524l-295 901h279l184 -661l401 661h279z" />
    <glyph glyph-name="Thorn" unicode="&#xde;" horiz-adv-x="1210" 
d="M799 1200q204 0 311 -92.5t107 -280.5q0 -238 -155 -387t-448 -149h-243l-49 -291h-256l237 1425h256l-37 -225h277zM618 516q161 0 244 79q84 80 84 193q0 182 -219 183h-244l-75 -455h210z" />
    <glyph glyph-name="germandbls" unicode="&#xdf;" horiz-adv-x="1054" 
d="M758 743q115 -27 183 -119q67 -91 67 -223q0 -199 -112 -314q-113 -116 -288 -116q-142 0 -243 49l34 185q75 -35 158 -35q105 0 163 73q58 71 58 187q0 105 -61 166t-176 61h-33l22 160h29q119 0 189 106q69 105 69 236q0 188 -153 189q-102 0 -162 -90.5t-90 -284.5
l-234 -1430h-241l231 1424q52 323 175 458q122 134 347 134q146 0 249 -88t103 -275q0 -172 -83 -294q-84 -121 -201 -159z" />
    <glyph glyph-name="agrave" unicode="&#xe0;" horiz-adv-x="1134" 
d="M791 1128h-168l-189 443h248zM889 977h227l-162 -977h-229l12 127q-142 -160 -358 -160q-150 0 -243 101t-93 286q0 299 156 477q155 177 383 177q88 0 161 -41.5t115 -110.5zM487 190q178 0 285 170l43 275q-55 156 -209 156q-126 0 -221 -105q-94 -106 -94 -268
q0 -106 52.5 -167t143.5 -61z" />
    <glyph glyph-name="aacute" unicode="&#xe1;" horiz-adv-x="1134" 
d="M1096 1571l-334 -443h-168l256 443h246zM889 977h227l-162 -977h-229l12 127q-142 -160 -358 -160q-150 0 -243 101t-93 286q0 299 156 477q155 177 383 177q88 0 161 -41.5t115 -110.5zM487 190q178 0 285 170l43 275q-55 156 -209 156q-126 0 -221 -105
q-94 -106 -94 -268q0 -106 52.5 -167t143.5 -61z" />
    <glyph glyph-name="acircumflex" unicode="&#xe2;" horiz-adv-x="1134" 
d="M752 1405l-226 -277h-172l324 451h205l176 -451h-172zM889 977h227l-162 -977h-229l12 127q-142 -160 -358 -160q-150 0 -243 101t-93 286q0 299 156 477q155 177 383 177q88 0 161 -41.5t115 -110.5zM487 190q178 0 285 170l43 275q-55 156 -209 156q-126 0 -221 -105
q-94 -106 -94 -268q0 -106 52.5 -167t143.5 -61z" />
    <glyph glyph-name="atilde" unicode="&#xe3;" horiz-adv-x="1134" 
d="M584 1360q-69 0 -103 -217h-180q51 413 264 411q35 0 68 -19t51 -40q9 -11 22.5 -27t30.5 -38q67 -97 109 -99q74 0 108 219h181q-51 -414 -267 -413q-27 0 -49.5 8t-44 23.5t-43 40t-47.5 57.5q-6 6 -16.5 20t-15.5 21q-5 6 -13 17t-13 15q-11 8 -21 14.5t-21 6.5z
M858 856l31 121h227l-162 -977h-229l12 127q-142 -160 -358 -160q-150 0 -243 101t-93 286q0 299 156 477q155 177 383 177q88 0 161 -41.5t115 -110.5zM487 190q178 0 285 170l43 275q-55 156 -209 156q-126 0 -221 -105q-94 -106 -94 -268q0 -106 52.5 -167t143.5 -61z
" />
    <glyph glyph-name="adieresis" unicode="&#xe4;" horiz-adv-x="1134" 
d="M609 1272q-49 -41 -107 -41q-60 0 -93 41q-34 40 -26 98q11 60 58 101q48 42 108 42q59 0 92 -41q33 -43 23 -102q-7 -57 -55 -98zM944 1231q-58 0 -93 41t-24 98q8 59 57 101q48 42 108 42q58 0 93 -41q33 -43 23 -101q-10 -60 -58 -100q-49 -40 -106 -40zM889 977h227
l-162 -977h-229l12 127q-142 -160 -358 -160q-150 0 -243 101t-93 286q0 299 156 477q155 177 383 177q88 0 161 -41.5t115 -110.5zM487 190q178 0 285 170l43 275q-55 156 -209 156q-126 0 -221 -105q-94 -106 -94 -268q0 -106 52.5 -167t143.5 -61z" />
    <glyph glyph-name="aring" unicode="&#xe5;" horiz-adv-x="1134" 
d="M750 1169q-104 0 -164 57q-60 56 -60 146q0 133 91 220q90 87 223 87q52 0 93.5 -15t70 -43t44 -66t15.5 -85q0 -125 -88 -213t-225 -88zM819 1559q-65 0 -109 -47q-44 -49 -44 -119q0 -48 27.5 -74.5t72.5 -26.5q62 0 112 44q48 44 48 116q0 51 -29 79t-78 28zM889 977
h227l-162 -977h-229l12 127q-142 -160 -358 -160q-150 0 -243 101t-93 286q0 299 156 477q155 177 383 177q88 0 161 -41.5t115 -110.5zM487 190q178 0 285 170l43 275q-55 156 -209 156q-126 0 -221 -105q-94 -106 -94 -268q0 -106 52.5 -167t143.5 -61z" />
    <glyph glyph-name="ae" unicode="&#xe6;" horiz-adv-x="1617" 
d="M1245 1008q77 0 138.5 -23t105 -68t67 -112t23.5 -156q0 -35 -2.5 -67.5t-7.5 -61.5l-10 -63h-658q-1 -8 -1.5 -21t-0.5 -30q0 -225 229 -226q168 0 330 90l53 -178q-197 -125 -426 -125q-284 0 -346 207q-73 -98 -189 -152q-117 -55 -243 -55q-69 0 -124 16t-94 47.5
t-60 80t-21 112.5q0 158 107 257q107 98 278 98q166 0 279 -74l10 67q14 117 -27 173.5t-153 56.5q-160 0 -285 -74l-57 170q180 111 413 111q250 0 301 -172q144 172 371 172zM1190 819q-98 0 -167 -70q-70 -71 -101 -182h430q1 9 1.5 21.5t0.5 29.5q0 103 -44.5 152
t-119.5 49zM389 133q158 0 246 139l14 90q-70 84 -205 84q-88 0 -145 -51t-57 -127q0 -66 39 -100.5t108 -34.5z" />
    <glyph glyph-name="ccedilla" unicode="&#xe7;" horiz-adv-x="897" 
d="M817 90q-118 -94 -282 -115l-93 -147q56 18 103 18q172 0 172 -172q0 -129 -93 -202q-94 -72 -231 -72q-154 0 -258 63l70 131q86 -53 184 -53q66 0 108 34t42 91q0 66 -72 66q-62 0 -105 -43l-114 43l131 237q-151 12 -243 109q-93 96 -93 295q0 282 172 458
q173 177 420 177q181 0 311 -115l-137 -176q-83 76 -191 76q-129 0 -228 -105q-99 -106 -99 -272q0 -57 15 -99t42.5 -70.5t65 -42.5t82.5 -14q167 0 276 99z" />
    <glyph glyph-name="egrave" unicode="&#xe8;" horiz-adv-x="1003" 
d="M696 1128h-168l-188 443h248zM944 430h-661v-22q0 -228 231 -230q177 0 322 94l55 -188q-184 -117 -426 -117q-184 0 -304 96q-120 95 -120 299q0 274 165 460t423 186q156 0 247 -87t91 -274q0 -111 -23 -217zM586 821q-90 0 -167 -68q-78 -70 -112 -180h434q2 19 3 33
t1 25q1 190 -159 190z" />
    <glyph glyph-name="eacute" unicode="&#xe9;" horiz-adv-x="1003" 
d="M1001 1571l-333 -443h-168l256 443h245zM629 1008q156 0 247 -87t91 -274q0 -111 -23 -217h-661v-22q0 -228 231 -230q177 0 322 94l55 -188q-184 -117 -426 -117q-184 0 -304 96q-120 95 -120 299q0 274 165 460t423 186zM586 821q-90 0 -167 -68q-78 -70 -112 -180h434
q2 19 3 33t1 25q1 190 -159 190z" />
    <glyph glyph-name="ecircumflex" unicode="&#xea;" horiz-adv-x="1003" 
d="M657 1405l-225 -277h-172l324 451h204l177 -451h-172zM944 430h-661v-22q0 -228 231 -230q177 0 322 94l55 -188q-184 -117 -426 -117q-184 0 -304 96q-120 95 -120 299q0 274 165 460t423 186q156 0 247 -87t91 -274q0 -111 -23 -217zM586 821q-90 0 -167 -68
q-78 -70 -112 -180h434q2 19 3 33t1 25q1 190 -159 190z" />
    <glyph glyph-name="edieresis" unicode="&#xeb;" horiz-adv-x="1003" 
d="M514 1272q-47 -41 -106 -41q-60 0 -93 41q-34 40 -26 98q11 60 58 101q48 42 108 42q59 0 92 -41t22 -102q-7 -57 -55 -98zM790 1471q48 42 107 42q58 0 93 -41q35 -42 24 -101q-10 -60 -58 -100q-49 -40 -106 -40q-58 0 -93 41t-24 98q8 59 57 101zM629 1008
q156 0 247 -87t91 -274q0 -111 -23 -217h-661v-22q0 -228 231 -230q177 0 322 94l55 -188q-184 -117 -426 -117q-184 0 -304 96q-120 95 -120 299q0 274 165 460t423 186zM586 821q-90 0 -167 -68q-78 -70 -112 -180h434q2 19 3 33t1 25q1 190 -159 190z" />
    <glyph glyph-name="igrave" unicode="&#xec;" horiz-adv-x="491" 
d="M438 1128h-168l-188 443h248zM449 977l-164 -977h-242l162 977h244z" />
    <glyph glyph-name="iacute" unicode="&#xed;" horiz-adv-x="491" 
d="M743 1571l-333 -443h-168l256 443h245zM449 977l-164 -977h-242l162 977h244z" />
    <glyph glyph-name="icircumflex" unicode="&#xee;" horiz-adv-x="491" 
d="M530 1579l177 -451h-172l-136 277l-225 -277h-172l324 451h204zM43 0l162 977h244l-164 -977h-242z" />
    <glyph glyph-name="idieresis" unicode="&#xef;" horiz-adv-x="491" 
d="M31 1370q11 60 58 101q48 42 108 42q59 0 92 -41t22 -102q-7 -57 -55 -98q-47 -41 -106 -41q-60 0 -93 41q-34 40 -26 98zM475 1370q8 59 57 101q48 42 107 42q58 0 93 -41q35 -42 24 -101q-10 -59 -59 -100q-47 -40 -105 -40t-93 41t-24 98zM449 977l-164 -977h-242
l162 977h244z" />
    <glyph glyph-name="eth" unicode="&#xf0;" horiz-adv-x="1110" 
d="M1135 1284l-172 -90q102 -181 102 -414q0 -390 -171 -602q-171 -211 -435 -211q-195 0 -306 108q-112 106 -112 294q0 222 135 358q135 137 340 137q213 0 309 -180q2 33 3 60t1 47q0 175 -61 301l-238 -125l-79 161l202 107q-128 109 -344 121l47 192q296 -12 496 -209
l205 107zM479 186q106 0 190 79.5t126 234.5q-56 182 -236 182q-113 0 -193 -80q-81 -79 -81 -207q0 -47 13.5 -85.5t38.5 -66t61 -42.5t81 -15z" />
    <glyph glyph-name="ntilde" unicode="&#xf1;" horiz-adv-x="1087" 
d="M530 1360q-68 0 -102 -217h-180q51 413 264 411q35 0 67.5 -19t51.5 -40q9 -11 22.5 -27t30.5 -38q67 -97 109 -99q74 0 108 219h180q-51 -415 -266 -413q-27 0 -49.5 8t-44 23.5t-43 40t-47.5 57.5q-6 6 -16.5 20t-15.5 21q-5 6 -13 17t-13 15q-12 8 -21.5 14.5
t-21.5 6.5zM768 1008q143 0 209 -97q65 -99 37 -268l-105 -645h-245l96 577q38 213 -133 213q-154 0 -252 -182l-103 -606h-243l164 977h243l-30 -176q135 207 362 207z" />
    <glyph glyph-name="ograve" unicode="&#xf2;" horiz-adv-x="1099" 
d="M760 1128h-168l-189 443h248zM461 -33q-184 0 -301 102q-117 101 -117 312q0 262 171 445q171 182 439 182q171 0 287 -101q115 -102 115 -313q0 -279 -171 -453t-423 -174zM485 193q127 -4 224 96q96 100 106 254q6 126 -52 184q-60 60 -147 61q-131 5 -230 -99
q-100 -104 -101 -255q-4 -119 51 -179t149 -62z" />
    <glyph glyph-name="oacute" unicode="&#xf3;" horiz-adv-x="1099" 
d="M1065 1571l-334 -443h-168l256 443h246zM461 -33q-184 0 -301 102q-117 101 -117 312q0 262 171 445q171 182 439 182q171 0 287 -101q115 -102 115 -313q0 -279 -171 -453t-423 -174zM485 193q127 -4 224 96q96 100 106 254q6 126 -52 184q-60 60 -147 61
q-131 5 -230 -99q-100 -104 -101 -255q-4 -119 51 -179t149 -62z" />
    <glyph glyph-name="ocircumflex" unicode="&#xf4;" horiz-adv-x="1099" 
d="M721 1405l-225 -277h-172l323 451h205l176 -451h-172zM653 1008q171 0 287 -101q115 -102 115 -313q0 -279 -171 -453t-423 -174q-184 0 -301 102q-117 101 -117 312q0 262 171 445q171 182 439 182zM815 543q6 126 -52 184q-60 60 -147 61q-131 5 -230 -99
q-100 -104 -101 -255q-4 -119 51 -179t149 -62q127 -4 224 96q96 100 106 254z" />
    <glyph glyph-name="otilde" unicode="&#xf5;" horiz-adv-x="1099" 
d="M553 1360q-68 0 -102 -217h-181q51 412 265 411q35 0 67.5 -19t51.5 -40q9 -11 22.5 -27t30.5 -38q68 -97 108 -99q75 0 109 219h180q-51 -415 -266 -413q-27 0 -49.5 8t-44 23.5t-43.5 40t-48 57.5q-6 6 -16 20l-15 21q-6 6 -14 17t-13 15q-11 8 -21 14.5t-21 6.5z
M461 -33q-184 0 -301 102q-117 101 -117 312q0 262 171 445q171 182 439 182q171 0 287 -101q115 -102 115 -313q0 -279 -171 -453t-423 -174zM485 193q127 -4 224 96q96 100 106 254q6 126 -52 184q-60 60 -147 61q-131 5 -230 -99q-100 -104 -101 -255q-4 -119 51 -179
t149 -62z" />
    <glyph glyph-name="odieresis" unicode="&#xf6;" horiz-adv-x="1099" 
d="M352 1370q11 60 59 101q48 42 108 42q59 0 92 -41q32 -43 22 -102q-7 -57 -55 -98q-49 -41 -107 -41t-93 41q-34 40 -26 98zM797 1370q8 59 56 101t108 42q58 0 93 -41q33 -43 23 -101q-10 -60 -58 -100q-47 -40 -106 -40t-92 41q-35 41 -24 98zM461 -33q-184 0 -301 102
q-117 101 -117 312q0 262 171 445q171 182 439 182q171 0 287 -101q115 -102 115 -313q0 -279 -171 -453t-423 -174zM485 193q127 -4 224 96q96 100 106 254q6 126 -52 184q-60 60 -147 61q-131 5 -230 -99q-100 -104 -101 -255q-4 -119 51 -179t149 -62z" />
    <glyph glyph-name="divide" unicode="&#xf7;" horiz-adv-x="1165" 
d="M516 1104q12 72 70 121q56 49 129 49q71 0 112 -50t29 -120q-11 -71 -67 -120q-59 -50 -130 -50t-111 49q-42 50 -32 121zM158 803h952l-33 -215h-954zM420 165q-41 49 -31 120q11 72 68 122q58 50 129 50q70 0 112 -50q41 -52 31 -122t-67 -119q-58 -49 -129 -49
q-72 0 -113 48z" />
    <glyph glyph-name="oslash" unicode="&#xf8;" horiz-adv-x="1097" 
d="M1094 926l-95 -95q54 -96 56 -237q0 -280 -172 -453q-172 -174 -424 -174q-151 0 -252 66l-84 -84l-125 119l92 92q-47 91 -47 221q0 261 170 445q170 182 440 182q130 0 228 -56l80 80zM283 434q0 -41 6 -76l411 414q-42 16 -84 16q-133 5 -231 -99q-97 -103 -102 -255z
M813 543q1 55 -6 94l-420 -422q47 -23 98 -22q127 -4 224 96q97 101 104 254z" />
    <glyph glyph-name="ugrave" unicode="&#xf9;" horiz-adv-x="1067" 
d="M729 1128h-168l-188 443h248zM795 977h243l-161 -977h-244l26 160q-133 -193 -356 -193q-137 0 -201 100q-64 99 -36 273l106 637h244l-97 -574q-16 -103 14.5 -160t108.5 -57q150 0 252 181z" />
    <glyph glyph-name="uacute" unicode="&#xfa;" horiz-adv-x="1067" 
d="M1034 1571l-334 -443h-168l256 443h246zM795 977h243l-161 -977h-244l26 160q-133 -193 -356 -193q-137 0 -201 100q-64 99 -36 273l106 637h244l-97 -574q-16 -103 14.5 -160t108.5 -57q150 0 252 181z" />
    <glyph glyph-name="ucircumflex" unicode="&#xfb;" horiz-adv-x="1067" 
d="M690 1405l-225 -277h-172l323 451h205l176 -451h-172zM795 977h243l-161 -977h-244l26 160q-133 -193 -356 -193q-137 0 -201 100q-64 99 -36 273l106 637h244l-97 -574q-16 -103 14.5 -160t108.5 -57q150 0 252 181z" />
    <glyph glyph-name="udieresis" unicode="&#xfc;" horiz-adv-x="1067" 
d="M547 1272q-47 -41 -106 -41t-94 41q-34 40 -25 98q11 60 58 101q48 42 108 42q59 0 92 -41q32 -43 22 -102q-7 -57 -55 -98zM822 1471q48 42 108 42q58 0 93 -41q35 -42 24 -101q-10 -59 -59 -100q-47 -40 -105 -40t-93 41t-24 98q8 59 56 101zM694 367l101 610h243
l-161 -977h-244l26 160q-133 -193 -356 -193q-137 0 -201 100q-64 99 -36 273l106 637h244l-97 -574q-16 -103 14.5 -160t108.5 -57q150 2 252 181z" />
    <glyph glyph-name="yacute" unicode="&#xfd;" horiz-adv-x="1021" 
d="M999 1571l-333 -443h-168l256 443h245zM834 977h258l-828 -1483h-254l289 490l-207 993h254l115 -731z" />
    <glyph glyph-name="thorn" unicode="&#xfe;" horiz-adv-x="1153" 
d="M782 1008q133 0 232 -96q98 -98 98 -287q0 -293 -155 -475q-156 -183 -396 -183q-184 0 -268 137l-103 -608h-243l340 2032h243l-112 -676q134 156 364 156zM537 186q138 0 232 111q95 112 95 262q0 122 -58 174q-59 53 -140 53q-184 0 -289 -170l-47 -292
q27 -66 82 -102t125 -36z" />
    <glyph glyph-name="ydieresis" unicode="&#xff;" horiz-adv-x="1021" 
d="M512 1272q-47 -41 -106 -41q-60 0 -93 41q-34 40 -26 98q11 60 58 101q48 42 108 42q59 0 92 -41t22 -102q-7 -57 -55 -98zM848 1231q-58 0 -93 41t-24 98q8 59 57 101q48 42 107 42q58 0 93 -41q35 -42 24 -101q-10 -59 -59 -100q-47 -40 -105 -40zM834 977h258
l-828 -1483h-254l289 490l-207 993h254l115 -731z" />
    <glyph glyph-name="Amacron" unicode="&#x100;" horiz-adv-x="1267" 
d="M506 1882h706l-32 -203h-709zM631 1425h297l227 -1425h-266l-45 338h-490l-151 -338h-256zM449 545h366l-84 626z" />
    <glyph glyph-name="amacron" unicode="&#x101;" horiz-adv-x="1134" 
d="M1102 1462l-33 -202h-709l35 202h707zM889 977h227l-162 -977h-229l12 127q-142 -160 -358 -160q-150 0 -243 101t-93 286q0 299 156 477q155 177 383 177q88 0 161 -41.5t115 -110.5zM487 190q178 0 285 170l43 275q-55 156 -209 156q-126 0 -221 -105
q-94 -106 -94 -268q0 -106 52.5 -167t143.5 -61z" />
    <glyph glyph-name="Abreve" unicode="&#x102;" horiz-adv-x="1267" 
d="M811 1587q-184 0 -261 106.5t-30 313.5h191q-51 -258 125 -258q177 0 208 258h193q-25 -208 -134 -314t-292 -106zM631 1425h297l227 -1425h-266l-45 338h-490l-151 -338h-256zM449 545h366l-84 626z" />
    <glyph glyph-name="abreve" unicode="&#x103;" horiz-adv-x="1134" 
d="M711 1157q-184 0 -261 106.5t-30 313.5h190q-49 -258 125 -258q176 0 209 258h193q-23 -208 -133 -314t-293 -106zM858 856l31 121h227l-162 -977h-229l12 127q-142 -160 -358 -160q-150 0 -243 101t-93 286q0 299 156 477q155 177 383 177q88 0 161 -41.5t115 -110.5z
M487 190q178 0 285 170l43 275q-55 156 -209 156q-126 0 -221 -105q-94 -106 -94 -268q0 -106 52.5 -167t143.5 -61z" />
    <glyph glyph-name="Aogonek" unicode="&#x104;" horiz-adv-x="1267" 
d="M836 -340q0 -82 80 -82q78 0 167 53l13 -163q-139 -70 -281 -70q-103 0 -154 48t-51 130q0 255 346 424h-67l-45 338h-490l-151 -338h-256l684 1425h297l227 -1425q-319 -163 -319 -340zM449 545h366l-84 626z" />
    <glyph glyph-name="aogonek" unicode="&#x105;" horiz-adv-x="1134" 
d="M901 0q-273 -155 -283 -305q-5 -86 82 -86q75 0 170 49l13 -164q-141 -66 -281 -65q-113 0 -164 56t-41 146q18 220 330 383l10 113q-142 -160 -358 -160q-150 0 -243 101t-93 286q0 299 156 477q155 177 383 177q88 0 161 -41.5t115 -110.5l31 121h227l-162 -977h-53z
M487 190q178 0 285 170l43 275q-55 156 -209 156q-126 0 -221 -105q-94 -106 -94 -268q0 -106 52.5 -167t143.5 -61z" />
    <glyph glyph-name="Cacute" unicode="&#x106;" horiz-adv-x="1304" 
d="M1399 1999l-414 -424h-194l339 424h269zM666 -33q-115 0 -213.5 33t-183.5 104t-133 196t-48 296q0 226 97 419q95 192 293 317q196 124 456 124q295 0 469 -156l-154 -217q-129 129 -338 129q-241 0 -396 -173t-155 -427q0 -205 102 -301q101 -96 255 -96q124 0 242 44
q116 44 196 116l59 -238q-95 -77 -245 -123q-153 -47 -303 -47z" />
    <glyph glyph-name="cacute" unicode="&#x107;" horiz-adv-x="897" 
d="M1032 1571l-334 -443h-168l256 443h246zM817 90q-154 -123 -395 -123q-165 0 -271 97q-108 96 -108 309q0 282 172 458q173 177 420 177q181 0 311 -115l-137 -176q-83 76 -191 76q-129 0 -228 -105q-99 -106 -99 -272q0 -57 15 -99t42.5 -70.5t65 -42.5t82.5 -14
q167 0 276 99z" />
    <glyph glyph-name="Cdotaccent" unicode="&#x10a;" horiz-adv-x="1304" 
d="M791 1753q7 61 58 105q49 43 109 43q61 0 97 -43q35 -43 24 -105q-7 -58 -58 -102q-49 -43 -110 -43t-95 43q-35 45 -25 102zM666 -33q-115 0 -213.5 33t-183.5 104t-133 196t-48 296q0 226 97 419q95 192 293 317q196 124 456 124q295 0 469 -156l-154 -217
q-129 129 -338 129q-241 0 -396 -173t-155 -427q0 -205 102 -301q101 -96 255 -96q124 0 242 44q116 44 196 116l59 -238q-95 -77 -245 -123q-153 -47 -303 -47z" />
    <glyph glyph-name="cdotaccent" unicode="&#x10b;" horiz-adv-x="897" 
d="M530 1311q8 62 60 105q52 44 113 44q60 0 98 -44q38 -43 27 -105t-61 -106t-113 -44q-64 0 -99 45t-25 105zM817 90q-154 -123 -395 -123q-165 0 -271 97q-108 96 -108 309q0 282 172 458q173 177 420 177q181 0 311 -115l-137 -176q-83 76 -191 76q-129 0 -228 -105
q-99 -106 -99 -272q0 -57 15 -99t42.5 -70.5t65 -42.5t82.5 -14q167 0 276 99z" />
    <glyph glyph-name="Ccaron" unicode="&#x10c;" horiz-adv-x="1304" 
d="M1004 1577h-205l-174 453h172l133 -277l227 277h172zM911 1212q-241 0 -396 -173t-155 -427q0 -205 102 -301q101 -96 255 -96q124 0 242 44q116 44 196 116l59 -238q-95 -77 -245 -123q-153 -47 -303 -47q-115 0 -213.5 33t-183.5 104t-133 196t-48 296q0 226 97 419
q95 192 293 317q196 124 456 124q295 0 469 -156l-154 -217q-129 129 -338 129z" />
    <glyph glyph-name="ccaron" unicode="&#x10d;" horiz-adv-x="897" 
d="M739 1128h-204l-175 451h172l134 -276l227 276h172zM618 793q-129 0 -228 -105q-99 -106 -99 -272q0 -57 15 -99t42.5 -70.5t65 -42.5t82.5 -14q167 0 276 99l45 -199q-154 -123 -395 -123q-165 0 -271 97q-108 96 -108 309q0 282 172 458q173 177 420 177
q181 0 311 -115l-137 -176q-85 76 -191 76z" />
    <glyph glyph-name="Dcaron" unicode="&#x10e;" horiz-adv-x="1404" 
d="M969 1577h-205l-174 453h172l133 -277l227 277h172zM770 1425q292 0 455 -137q161 -137 161 -420q0 -209 -69 -376q-70 -168 -189 -273q-121 -106 -274 -162.5t-328 -56.5h-458l235 1425h467zM522 233q64 -1 128.5 11t124.5 37.5t114.5 64.5t97.5 92q57 69 92 172.5
t35 231.5q0 356 -389 356h-203l-160 -965h160z" />
    <glyph glyph-name="dcaron" unicode="&#x10f;" horiz-adv-x="1142" 
d="M1300 1532h228l-193 -617h-147zM963 1526h245l-252 -1524l-225 -2l8 125q-141 -158 -358 -158q-154 0 -247 102q-93 101 -93 289q0 292 157 471q156 179 382 179q184 0 274 -144zM487 186q179 0 285 172l47 293q-55 143 -207 144q-130 0 -225 -107q-94 -107 -94 -276
q0 -105 51.5 -165.5t142.5 -60.5z" />
    <glyph glyph-name="Dcroat" unicode="&#x110;" horiz-adv-x="1404" 
d="M770 1425q292 0 455 -137q161 -137 161 -420q0 -209 -69 -376q-70 -168 -189 -273q-121 -106 -274 -162.5t-328 -56.5h-458l106 643h-102l34 209h103l94 573h467zM522 233q64 -1 128.5 11t124.5 37.5t114.5 64.5t97.5 92q57 69 92 172.5t35 231.5q0 356 -389 356h-203
l-57 -346h334l-35 -209h-334l-68 -410h160z" />
    <glyph glyph-name="dcroat" unicode="&#x111;" horiz-adv-x="1136" 
d="M1290 1411l-35 -209h-100l-199 -1200l-225 -2l8 125q-141 -158 -358 -158q-154 0 -247 102q-93 101 -93 289q0 292 157 471q156 179 382 179q184 0 274 -144l55 338h-399l35 209h399l19 115h245l-18 -115h100zM487 186q179 0 285 172l47 293q-55 143 -207 144
q-130 0 -225 -107q-94 -107 -94 -276q0 -105 51.5 -165.5t142.5 -60.5z" />
    <glyph glyph-name="Emacron" unicode="&#x112;" horiz-adv-x="1124" 
d="M1190 1882l-33 -203h-708l34 203h707zM1200 1196h-678l-57 -350h526l-35 -207h-526l-68 -410h680l-38 -229h-934l233 1425h936z" />
    <glyph glyph-name="emacron" unicode="&#x113;" horiz-adv-x="1003" 
d="M301 1462h707l-33 -202h-709zM629 1008q156 0 247 -87t91 -274q0 -111 -23 -217h-661v-22q0 -228 231 -230q177 0 322 94l55 -188q-184 -117 -426 -117q-184 0 -304 96q-120 95 -120 299q0 274 165 460t423 186zM586 821q-90 0 -167 -68q-78 -70 -112 -180h434q2 19 3 33
t1 25q1 190 -159 190z" />
    <glyph glyph-name="Edotaccent" unicode="&#x116;" horiz-adv-x="1124" 
d="M791 1608q-62 0 -96 43q-36 43 -25 102q7 61 58 105q49 43 110 43q62 0 96 -43q35 -43 24 -105q-7 -58 -58 -102q-49 -43 -109 -43zM1200 1196h-678l-57 -350h526l-35 -207h-526l-68 -410h680l-38 -229h-934l233 1425h936z" />
    <glyph glyph-name="edotaccent" unicode="&#x117;" horiz-adv-x="1003" 
d="M736 1205q-50 -44 -113 -44q-64 0 -99 44t-24 106q7 61 59 105t113 44q60 0 98 -44q38 -43 27 -105t-61 -106zM944 430h-661v-22q0 -228 231 -230q177 0 322 94l55 -188q-184 -117 -426 -117q-184 0 -304 96q-120 95 -120 299q0 274 165 460t423 186q156 0 247 -87
t91 -274q0 -111 -23 -217zM586 821q-90 0 -167 -68q-78 -70 -112 -180h434q2 19 3 33t1 25q1 190 -159 190z" />
    <glyph glyph-name="Eogonek" unicode="&#x118;" horiz-adv-x="1124" 
d="M1200 1196h-678l-57 -350h526l-35 -207h-526l-68 -410h680l-38 -229q-318 -163 -320 -340q0 -82 80 -82q79 0 168 53l12 -163q-139 -70 -280 -70q-103 0 -154 48t-51 130q0 255 346 424h-735l233 1425h936z" />
    <glyph glyph-name="eogonek" unicode="&#x119;" horiz-adv-x="1003" 
d="M944 430h-661v-22q0 -228 231 -230q177 0 322 94l55 -188l-17 -10q-179 -110 -257 -182q-80 -72 -80 -152t84 -80q76 0 167 49l13 -164q-136 -66 -281 -65q-105 0 -156 47.5t-51 128.5q0 177 205 313q-8 -1 -21 -1.5t-32 -0.5q-184 0 -304 96q-120 95 -120 299
q0 274 165 460t423 186q156 0 247 -87t91 -274q0 -111 -23 -217zM586 821q-90 0 -167 -68q-78 -70 -112 -180h434q2 19 3 33t1 25q1 190 -159 190z" />
    <glyph glyph-name="Ecaron" unicode="&#x11a;" horiz-adv-x="1124" 
d="M883 1577h-205l-174 453h172l133 -277l227 277h172zM1200 1196h-678l-57 -350h526l-35 -207h-526l-68 -410h680l-38 -229h-934l233 1425h936z" />
    <glyph glyph-name="ecaron" unicode="&#x11b;" horiz-adv-x="1003" 
d="M709 1128h-205l-174 451h172l133 -276l227 276h172zM629 1008q156 0 247 -87t91 -274q0 -111 -23 -217h-661v-22q0 -228 231 -230q177 0 322 94l55 -188q-184 -117 -426 -117q-184 0 -304 96q-120 95 -120 299q0 274 165 460t423 186zM586 821q-90 0 -167 -68
q-78 -70 -112 -180h434q2 19 3 33t1 25q1 190 -159 190z" />
    <glyph glyph-name="Gbreve" unicode="&#x11e;" horiz-adv-x="1425" 
d="M909 1587q-184 0 -261 106.5t-30 313.5h191q-51 -258 125 -258t209 258h192q-25 -208 -134 -314t-292 -106zM733 604l33 203h598l-123 -754q-260 -86 -539 -86q-126 0 -230 32t-193 101t-139 193t-50 295q0 369 237 619q236 249 611 249q133 0 265 -44q129 -43 216 -124
l-174 -198q-145 127 -336 127q-243 0 -395 -177q-152 -179 -152 -436q0 -203 106 -296q105 -93 273 -93q154 0 277 43l57 346h-342z" />
    <glyph glyph-name="gbreve" unicode="&#x11f;" horiz-adv-x="1138" 
d="M688 1155q-184 0 -261 106.5t-30 313.5h191q-51 -258 125 -258t209 258h192q-23 -208 -133 -314t-293 -106zM915 977h209l-161 -981q-27 -155 -82.5 -262t-133.5 -164q-79 -57 -165.5 -82t-194.5 -25q-255 0 -416 140l84 207q135 -132 326 -134q285 0 340 330l18 111
q-135 -150 -348 -150q-161 0 -255 103q-95 103 -95 295q0 293 156 468q154 175 383 175q200 0 294 -156zM489 190q178 0 291 164l47 275q-55 162 -225 162q-129 0 -223 -106t-94 -269q0 -53 14.5 -95t41.5 -71t64.5 -44.5t83.5 -15.5z" />
    <glyph glyph-name="Gdotaccent" unicode="&#x120;" horiz-adv-x="1425" 
d="M911 1608q-62 0 -96 43q-34 44 -24 102q7 61 58 105q49 43 109 43q61 0 97 -43q35 -43 24 -105q-7 -58 -58 -102q-50 -43 -110 -43zM733 604l33 203h598l-123 -754q-260 -86 -539 -86q-126 0 -230 32t-193 101t-139 193t-50 295q0 369 237 619q236 249 611 249
q133 0 265 -44q129 -43 216 -124l-174 -198q-145 127 -336 127q-243 0 -395 -177q-152 -179 -152 -436q0 -203 106 -296q105 -93 273 -93q154 0 277 43l57 346h-342z" />
    <glyph glyph-name="gdotaccent" unicode="&#x121;" horiz-adv-x="1138" 
d="M808 1203q-50 -44 -113 -44q-64 0 -99 44q-35 45 -25 106q8 62 60 105q52 44 113 44q60 0 98 -44q38 -43 27 -105t-61 -106zM915 977h209l-161 -981q-27 -155 -82.5 -262t-133.5 -164q-79 -57 -165.5 -82t-194.5 -25q-255 0 -416 140l84 207q135 -132 326 -134
q285 0 340 330l18 111q-135 -150 -348 -150q-161 0 -255 103q-95 103 -95 295q0 293 156 468q154 175 383 175q200 0 294 -156zM489 190q178 0 291 164l47 275q-55 162 -225 162q-129 0 -223 -106t-94 -269q0 -53 14.5 -95t41.5 -71t64.5 -44.5t83.5 -15.5z" />
    <glyph glyph-name="uni0122" unicode="&#x122;" horiz-adv-x="1425" 
d="M733 604l33 203h598l-123 -754q-260 -86 -539 -86q-126 0 -230 32t-193 101t-139 193t-50 295q0 369 237 619q236 249 611 249q133 0 265 -44q129 -43 216 -124l-174 -198q-145 127 -336 127q-243 0 -395 -177q-152 -179 -152 -436q0 -203 106 -296q105 -93 273 -93
q154 0 277 43l57 346h-342zM649 -106q82 0 120 -60.5t22 -163.5q-45 -252 -318 -366l-63 121q161 66 213 174q-5 -1 -12 -1.5t-17 -0.5q-30 0 -54 10t-40 28.5t-22.5 46t-0.5 62.5q11 66 60 108q50 42 112 42z" />
    <glyph glyph-name="uni0123" unicode="&#x123;" horiz-adv-x="1138" 
d="M688 1163q-85 0 -120.5 57.5t-18.5 157.5q20 123 102 222q83 99 215 143l60 -119q-169 -72 -219 -192q24 8 53 8q24 0 45.5 -8.5t36 -24.5t21 -40t1.5 -56q-6 -35 -22.5 -62.5t-40 -46.5t-52.5 -29t-61 -10zM915 977h209l-161 -981q-27 -155 -82.5 -262t-133.5 -164
q-79 -57 -165.5 -82t-194.5 -25q-255 0 -416 140l84 207q135 -132 326 -134q285 0 340 330l18 111q-135 -150 -348 -150q-161 0 -255 103q-95 103 -95 295q0 293 156 468q154 175 383 175q200 0 294 -156zM489 190q178 0 291 164l47 275q-55 162 -225 162q-129 0 -223 -106
t-94 -269q0 -53 14.5 -95t41.5 -71t64.5 -44.5t83.5 -15.5z" />
    <glyph glyph-name="Hbar" unicode="&#x126;" horiz-adv-x="1411" 
d="M1479 1196l-35 -197h-96l-166 -999h-254l86 518h-604l-86 -518h-256l165 999h-96l33 197h94l39 229h256l-39 -229h604l39 229h254l-39 -229h101zM1051 739l43 260h-605l-43 -260h605z" />
    <glyph glyph-name="hbar" unicode="&#x127;" horiz-adv-x="1081" 
d="M760 1008q143 0 210 -97q67 -98 38 -268l-107 -645h-244l97 577q38 213 -131 213q-156 0 -254 -180l-101 -608l-243 4l192 1178h-96l35 209h96l22 137h244l-22 -137h405l-35 -209h-405l-62 -379q130 205 361 205z" />
    <glyph glyph-name="Imacron" unicode="&#x12a;" horiz-adv-x="552" 
d="M125 1679l35 203h706l-32 -203h-709zM557 1425l-233 -1425h-256l235 1425h254z" />
    <glyph glyph-name="imacron" unicode="&#x12b;" horiz-adv-x="491" 
d="M43 1462h707l-33 -202h-709zM449 977l-164 -977h-242l162 977h244z" />
    <glyph glyph-name="Iogonek" unicode="&#x12e;" horiz-adv-x="552" 
d="M324 0q-318 -163 -320 -340q0 -82 80 -82q79 0 168 53l12 -163q-139 -70 -280 -70q-103 0 -154 48t-51 130q0 255 346 424h-57l235 1425h254z" />
    <glyph glyph-name="iogonek" unicode="&#x12f;" horiz-adv-x="491" 
d="M301 1416q52 44 113 44q60 0 98 -44q38 -43 27 -105t-61 -106t-113 -44q-64 0 -99 44t-24 106q7 61 59 105zM43 0l162 977h244l-164 -977q-310 -167 -320 -326q-5 -86 82 -86q73 0 170 50l12 -164q-139 -66 -280 -66q-57 0 -98 15t-66.5 41.5t-35.5 64t-5 82.5
q18 226 340 389h-41z" />
    <glyph glyph-name="Idotaccent" unicode="&#x130;" horiz-adv-x="552" 
d="M346 1753q7 61 59 105q49 43 109 43q62 0 96 -43q35 -45 25 -105q-7 -58 -58 -102q-50 -43 -110 -43q-62 0 -96 43q-35 45 -25 102zM557 1425l-233 -1425h-256l235 1425h254z" />
    <glyph glyph-name="dotlessi" unicode="&#x131;" horiz-adv-x="491" 
d="M449 977l-164 -977h-242l162 977h244z" />
    <glyph glyph-name="uni0136" unicode="&#x136;" horiz-adv-x="1255" 
d="M1370 1425l-522 -528l280 -897h-297l-204 674l-230 -234l-73 -440h-256l235 1425h256l-104 -630l614 630h301zM537 -106q82 0 119.5 -60.5t21.5 -163.5q-45 -252 -318 -366l-63 121q161 66 213 174q-5 -1 -12 -1.5t-17 -0.5q-30 0 -54 10t-40 28.5t-22 46t0 62.5
q11 66 60 108q50 42 112 42z" />
    <glyph glyph-name="uni0137" unicode="&#x137;" horiz-adv-x="999" 
d="M1038 977l-360 -359l213 -618h-264l-142 430l-178 -178l-41 -252h-243l251 1528h244l-166 -1010l400 459h286zM397 -106q82 0 120 -60.5t22 -163.5q-45 -252 -318 -366l-63 121q161 66 213 174q-5 -1 -12 -1.5t-17 -0.5q-30 0 -54 10t-40 28.5t-22.5 46t-0.5 62.5
q11 66 60 108q50 42 112 42z" />
    <glyph glyph-name="Lacute" unicode="&#x139;" horiz-adv-x="987" 
d="M958 1999l-413 -424h-195l340 424h268zM559 1425l-199 -1194h568l-39 -231h-823l237 1425h256z" />
    <glyph glyph-name="lacute" unicode="&#x13a;" horiz-adv-x="454" 
d="M911 2101l-413 -424h-195l340 424h268zM516 1528l-248 -1528h-241l247 1528h242z" />
    <glyph glyph-name="uni013B" unicode="&#x13b;" horiz-adv-x="987" 
d="M360 231h568l-39 -231h-823l237 1425h256zM471 -106q82 0 120 -60.5t21 -163.5q-45 -252 -317 -366l-64 121q161 66 213 174q-5 -1 -12 -1.5t-16 -0.5q-30 0 -54 10t-40 28.5t-22.5 46t-0.5 62.5q11 66 60 108q50 42 112 42z" />
    <glyph glyph-name="uni013C" unicode="&#x13c;" horiz-adv-x="454" 
d="M516 1528l-248 -1528h-241l247 1528h242zM127 -106q82 0 120 -60.5t21 -163.5q-45 -252 -317 -366l-64 121q161 66 213 174q-5 -1 -12 -1.5t-16 -0.5q-30 0 -54 10t-40 28.5t-22.5 46t-0.5 62.5q11 67 60 108q50 42 112 42z" />
    <glyph glyph-name="Lcaron" unicode="&#x13d;" horiz-adv-x="987" 
d="M563 1577h-205l-174 453h172l133 -277l228 277h172zM360 231h568l-39 -231h-823l237 1425h256z" />
    <glyph glyph-name="lcaron" unicode="&#x13e;" horiz-adv-x="634" 
d="M852 1532l-193 -617h-147l113 617h227zM516 1528l-248 -1528h-241l247 1528h242z" />
    <glyph glyph-name="Lslash" unicode="&#x141;" horiz-adv-x="987" 
d="M360 231h568l-39 -231h-823l100 598l-221 -84l-62 197l322 123l98 591h256l-82 -489l215 82l74 -195l-328 -123z" />
    <glyph glyph-name="lslash" unicode="&#x142;" horiz-adv-x="776" 
d="M893 913l-352 -133l-127 -780h-242l111 684l-211 -80l-62 197l312 119l98 608h242l-82 -512l239 92z" />
    <glyph glyph-name="Nacute" unicode="&#x143;" horiz-adv-x="1378" 
d="M1366 1999l-414 -424h-194l340 424h268zM1155 1425h231l-237 -1425h-242l-442 985l-162 -985h-235l235 1425h240l446 -999z" />
    <glyph glyph-name="nacute" unicode="&#x144;" horiz-adv-x="1087" 
d="M1042 1571l-333 -443h-168l256 443h245zM768 1008q143 0 209 -97q65 -99 37 -268l-105 -645h-245l96 577q38 213 -133 213q-154 0 -252 -182l-103 -606h-243l164 977h243l-30 -176q135 207 362 207z" />
    <glyph glyph-name="uni0145" unicode="&#x145;" horiz-adv-x="1378" 
d="M1155 1425h231l-237 -1425h-242l-442 985l-162 -985h-235l235 1425h240l446 -999zM590 -106q82 0 120 -60.5t21 -163.5q-45 -252 -317 -366l-64 121q161 66 213 174q-5 -1 -12 -1.5t-16 -0.5q-30 0 -54 10t-40 28.5t-22.5 46t-0.5 62.5q11 66 60 108q50 42 112 42z" />
    <glyph glyph-name="uni0146" unicode="&#x146;" horiz-adv-x="1087" 
d="M768 1008q143 0 209 -97q65 -99 37 -268l-105 -645h-245l96 577q38 213 -133 213q-154 0 -252 -182l-103 -606h-243l164 977h243l-30 -176q135 207 362 207zM444 -106q82 0 120 -60.5t22 -163.5q-45 -252 -318 -366l-63 121q161 66 213 174q-5 -1 -12 -1.5t-17 -0.5
q-30 0 -54 10t-40 28.5t-22.5 46t-0.5 62.5q11 66 60 108q50 42 112 42z" />
    <glyph glyph-name="Ncaron" unicode="&#x147;" horiz-adv-x="1378" 
d="M971 1577h-205l-174 453h172l133 -277l227 277h172zM1155 1425h231l-237 -1425h-242l-442 985l-162 -985h-235l235 1425h240l446 -999z" />
    <glyph glyph-name="ncaron" unicode="&#x148;" horiz-adv-x="1087" 
d="M750 1128h-205l-174 451h172l133 -276l227 276h172zM768 1008q143 0 209 -97q65 -99 37 -268l-105 -645h-245l96 577q38 213 -133 213q-154 0 -252 -182l-103 -606h-243l164 977h243l-30 -176q135 207 362 207z" />
    <glyph glyph-name="Eng" unicode="&#x14a;" horiz-adv-x="1368" 
d="M1155 1425h231l-227 -1353q-45 -292 -167 -411q-121 -118 -302 -118q-186 0 -328 109l91 194q91 -86 219 -86q193 0 241 226l-448 999l-162 -985h-235l235 1425h240l446 -997z" />
    <glyph glyph-name="eng" unicode="&#x14b;" horiz-adv-x="1085" 
d="M768 1008q143 0 209 -97q65 -99 37 -268l-117 -702q-34 -213 -151 -314q-116 -99 -328 -116l-33 204q229 6 268 230l107 630q38 213 -133 213q-154 0 -252 -182l-103 -606h-243l164 977h243l-30 -176q135 207 362 207z" />
    <glyph glyph-name="Omacron" unicode="&#x14c;" horiz-adv-x="1536" 
d="M616 1679l35 203h707l-33 -203h-709zM668 -33q-246 0 -414 153q-168 152 -168 458q0 368 239 624q239 255 611 256q229 0 401 -138q87 -69 138 -190t51 -280q0 -175 -59 -333t-167 -281q-107 -122 -272 -196q-164 -73 -360 -73zM707 215q239 0 393 186q155 185 155 422
q0 189 -101 290q-100 99 -259 99q-228 0 -382 -178q-155 -179 -155 -420q0 -202 97 -300q96 -99 252 -99z" />
    <glyph glyph-name="omacron" unicode="&#x14d;" horiz-adv-x="1099" 
d="M365 1462h706l-33 -202h-708zM461 -33q-184 0 -301 102q-117 101 -117 312q0 262 171 445q171 182 439 182q171 0 287 -101q115 -102 115 -313q0 -279 -171 -453t-423 -174zM485 193q127 -4 224 96q96 100 106 254q6 126 -52 184q-60 60 -147 61q-131 5 -230 -99
q-100 -104 -101 -255q-4 -119 51 -179t149 -62z" />
    <glyph glyph-name="Ohungarumlaut" unicode="&#x150;" horiz-adv-x="1536" 
d="M1137 2015l-283 -440h-152l195 440h240zM1577 2015l-410 -440h-170l334 440h246zM668 -33q-246 0 -414 153q-168 152 -168 458q0 368 239 624q239 255 611 256q229 0 401 -138q87 -69 138 -190t51 -280q0 -175 -59 -333t-167 -281q-107 -122 -272 -196q-164 -73 -360 -73
zM707 215q239 0 393 186q155 185 155 422q0 189 -101 290q-100 99 -259 99q-228 0 -382 -178q-155 -179 -155 -420q0 -202 97 -300q96 -99 252 -99z" />
    <glyph glyph-name="ohungarumlaut" unicode="&#x151;" horiz-adv-x="1099" 
d="M864 1571l-280 -443h-152l195 443h237zM1278 1571l-410 -443h-170l332 443h248zM461 -33q-184 0 -301 102q-117 101 -117 312q0 262 171 445q171 182 439 182q171 0 287 -101q115 -102 115 -313q0 -279 -171 -453t-423 -174zM485 193q127 -4 224 96q96 100 106 254
q6 126 -52 184q-60 60 -147 61q-131 5 -230 -99q-100 -104 -101 -255q-4 -119 51 -179t149 -62z" />
    <glyph glyph-name="OE" unicode="&#x152;" horiz-adv-x="2084" 
d="M2163 1196h-678l-58 -350h531l-33 -207h-532l-70 -410h680l-39 -229h-934l6 43q-167 -76 -377 -76q-114 0 -213.5 35t-181.5 107t-130 191t-48 278q0 369 240 624q239 254 610 254q182 0 319 -86l11 55h934zM705 215q224 0 385 143l116 713q-100 141 -299 141
q-228 0 -389 -180q-160 -179 -160 -424q0 -198 97 -295q96 -98 250 -98z" />
    <glyph glyph-name="oe" unicode="&#x153;" horiz-adv-x="1759" 
d="M1700 442h-658q-1 -6 -1.5 -14.5t-0.5 -19.5q0 -228 230 -230q178 0 323 94l54 -188q-181 -117 -424 -117q-255 0 -353 176q-164 -176 -409 -176q-184 0 -301 102q-117 101 -117 312q0 262 171 445q171 182 439 182q237 0 332 -185q157 183 399 185q79 0 142 -21.5
t107 -65.5t67.5 -112.5t23.5 -161.5q1 -90 -24 -205zM1343 821q-91 0 -168 -69q-78 -72 -112 -185h436q2 20 3 36.5t1 27.5q0 190 -160 190zM815 543q6 126 -52 184q-60 60 -147 61q-131 5 -230 -99q-100 -104 -101 -255q-4 -119 51 -179t149 -62q127 -4 224 96
q96 100 106 254z" />
    <glyph glyph-name="Racute" unicode="&#x154;" horiz-adv-x="1280" 
d="M1339 1999l-413 -424h-195l340 424h268zM1282 1077q0 -178 -102 -304q-104 -126 -275 -177l250 -596h-301l-213 569h-225l-94 -569h-256l237 1425h578q401 0 401 -348zM702 774q142 0 224 69q82 67 82 185q0 85 -53 126.5t-144 41.5h-291l-69 -422h251z" />
    <glyph glyph-name="racute" unicode="&#x155;" horiz-adv-x="698" 
d="M903 1571l-334 -443h-168l256 443h246zM399 762q104 233 285 233q48 0 78 -8l-41 -223q-33 6 -68 6q-111 0 -182.5 -74.5t-120.5 -232.5l-78 -463h-243l164 977h235z" />
    <glyph glyph-name="uni0156" unicode="&#x156;" horiz-adv-x="1280" 
d="M1282 1077q0 -178 -102 -304q-104 -126 -275 -177l250 -596h-301l-213 569h-225l-94 -569h-256l237 1425h578q401 0 401 -348zM520 1196l-69 -422h251q142 0 224 69q82 67 82 185q0 85 -53 126.5t-144 41.5h-291zM561 -106q82 0 120 -60.5t21 -163.5q-45 -252 -317 -366
l-63 121q161 66 213 174q-5 -1 -12 -1.5t-17 -0.5q-30 0 -54 10t-40 28.5t-22.5 46t-0.5 62.5q11 66 60 108q50 42 112 42z" />
    <glyph glyph-name="uni0157" unicode="&#x157;" horiz-adv-x="698" 
d="M684 995q48 0 78 -8l-41 -223q-33 6 -68 6q-111 0 -182.5 -74.5t-120.5 -232.5l-78 -463h-243l164 977h235l-29 -215q105 233 285 233zM133 -106q82 0 120 -60.5t21 -163.5q-45 -252 -317 -366l-63 121q159 65 212 174q-5 -1 -12 -1.5t-16 -0.5q-30 0 -54 10t-40 28.5
t-22.5 46t-0.5 62.5q11 67 60 108q50 42 112 42z" />
    <glyph glyph-name="Rcaron" unicode="&#x158;" horiz-adv-x="1280" 
d="M944 1577h-205l-174 453h172l133 -277l228 277h172zM1282 1077q0 -178 -102 -304q-104 -126 -275 -177l250 -596h-301l-213 569h-225l-94 -569h-256l237 1425h578q401 0 401 -348zM520 1196l-69 -422h251q142 0 224 69q82 67 82 185q0 85 -53 126.5t-144 41.5h-291z" />
    <glyph glyph-name="rcaron" unicode="&#x159;" horiz-adv-x="698" 
d="M610 1128h-204l-175 451h172l134 -276l227 276h172zM399 762q104 233 285 233q48 0 78 -8l-41 -223q-33 6 -68 6q-111 0 -182.5 -74.5t-120.5 -232.5l-78 -463h-243l164 977h235z" />
    <glyph glyph-name="Sacute" unicode="&#x15a;" horiz-adv-x="1081" 
d="M1227 1999l-414 -424h-195l340 424h269zM471 -33q-277 0 -477 166l104 242q147 -170 377 -170q114 0 187 56q71 56 71 145q0 43 -14 73.5t-48 56.5q-17 13 -33.5 23t-32.5 18t-38 17t-51 20q-166 67 -255 160q-87 92 -87 252q0 190 131 310t369 120q257 0 456 -129
l-145 -213q-142 109 -315 109q-105 0 -167 -46q-63 -46 -63 -122q0 -78 45 -120q44 -41 152 -85q42 -17 74 -31t55 -27q48 -26 110 -75q63 -49 92 -121.5t29 -169.5q0 -210 -149 -335q-149 -124 -377 -124z" />
    <glyph glyph-name="sacute" unicode="&#x15b;" horiz-adv-x="786" 
d="M874 1571l-333 -443h-168l256 443h245zM481 272q0 18 -6.5 34t-17 28.5t-22.5 22t-24 14.5t-30.5 12t-44.5 16q-258 83 -258 291q0 142 101 231q101 87 282 87q177 0 332 -80l-103 -174q-103 68 -237 67q-144 0 -146 -104q0 -82 133 -127q134 -44 203 -107
q70 -64 70 -188q0 -152 -115 -240t-295 -88q-212 0 -342 94l82 183q109 -88 264 -88q78 0 126 30.5t48 85.5z" />
    <glyph glyph-name="Scedilla" unicode="&#x15e;" horiz-adv-x="1081" 
d="M637 850q42 -17 74 -31t55 -27q48 -26 110 -75q63 -49 92 -121.5t29 -169.5q0 -194 -129 -316q-129 -121 -329 -141l-72 -112q29 11 57.5 17t57.5 5q76 0 121 -42.5t45 -127.5q0 -142 -93 -215q-95 -74 -241 -74q-159 0 -244 68l70 137q10 -12 28 -23t41 -20t51 -14.5
t58 -5.5q72 0 113.5 32.5t41.5 90.5q0 73 -71 71q-67 0 -119 -47l-113 43l125 219q-228 19 -401 162l104 242q147 -170 377 -170q114 0 187 56q71 56 71 145q0 43 -14 73.5t-48 56.5q-17 13 -33.5 23t-32.5 18t-38 17t-51 20q-166 67 -255 160q-87 92 -87 252q0 190 131 310
t369 120q257 0 456 -129l-145 -213q-142 109 -315 109q-105 0 -167 -46q-63 -46 -63 -122q0 -78 46 -120q44 -41 151 -85z" />
    <glyph glyph-name="scedilla" unicode="&#x15f;" horiz-adv-x="786" 
d="M440 590q134 -44 203 -107q70 -64 70 -188q0 -128 -87 -214t-231 -108l-92 -145q56 18 103 18q172 0 172 -172q0 -129 -93 -202q-94 -72 -231 -72q-154 0 -258 63l70 131q86 -53 184 -53q66 0 107.5 34t41.5 91q0 66 -71 66q-62 0 -105 -43l-114 43l131 237
q-161 12 -279 92l82 183q109 -88 264 -88q78 0 126 30.5t48 85.5q0 18 -6.5 34t-17 28.5t-22.5 22t-24 14.5t-30.5 12t-44.5 16q-258 83 -258 291q0 142 101 231q101 87 282 87q177 0 332 -80l-103 -174q-103 68 -237 67q-144 0 -146 -104q0 -82 133 -127z" />
    <glyph glyph-name="Scaron" unicode="&#x160;" horiz-adv-x="1081" 
d="M831 1577h-204l-174 453h172l133 -277l227 277h172zM670 1223q-105 0 -167 -46q-63 -46 -63 -122q0 -78 45 -120q44 -41 152 -85q42 -17 74 -31t55 -27q48 -26 110 -75q63 -49 92 -121.5t29 -169.5q0 -210 -149 -335q-149 -124 -377 -124q-277 0 -477 166l104 242
q147 -170 377 -170q114 0 187 56q71 56 71 145q0 43 -14 73.5t-48 56.5q-17 13 -33.5 23t-32.5 18t-38 17t-51 20q-166 67 -255 160q-87 92 -87 252q0 190 131 310t369 120q257 0 456 -129l-145 -213q-142 109 -315 109z" />
    <glyph glyph-name="scaron" unicode="&#x161;" horiz-adv-x="786" 
d="M582 1128h-205l-174 451h172l133 -276l227 276h172zM453 821q-144 0 -146 -104q0 -82 133 -127q134 -44 203 -107q70 -64 70 -188q0 -152 -115 -240t-295 -88q-212 0 -342 94l82 183q109 -88 264 -88q78 0 126 30.5t48 85.5q0 18 -6.5 34t-17 28.5t-22.5 22t-24 14.5
t-30.5 12t-44.5 16q-258 83 -258 291q0 142 101 231q101 87 282 87q177 0 332 -80l-103 -174q-101 67 -237 67z" />
    <glyph glyph-name="uni0162" unicode="&#x162;" horiz-adv-x="1058" 
d="M580 0h-66l-90 -143q58 23 115 22q76 0 121 -42.5t45 -127.5q0 -142 -93 -215q-95 -74 -241 -74q-159 0 -244 68l70 137q10 -12 28 -23t41 -20t51 -14.5t58 -5.5q72 0 113.5 32.5t41.5 90.5q0 73 -71 71q-67 0 -119 -47l-113 43l142 248h-45l198 1194h-377l37 231h1010
l-39 -231h-377z" />
    <glyph glyph-name="uni0163" unicode="&#x163;" horiz-adv-x="692" 
d="M444 772l-69 -416q-28 -174 98 -174q91 0 180 58l9 -201q-89 -50 -187 -64l-92 -147q56 18 102 18q172 0 172 -172q0 -129 -93 -202q-93 -72 -230 -72q-154 0 -258 63l69 131q86 -53 185 -53q66 0 107.5 34t41.5 91q0 66 -71 66q-62 0 -105 -43l-115 43l131 239
q-247 31 -192 359l74 442h-115l31 205h116l52 303h243l-51 -303h262l-32 -205h-263z" />
    <glyph glyph-name="Tcaron" unicode="&#x164;" horiz-adv-x="1058" 
d="M813 1577h-205l-174 453h172l133 -277l228 277h172zM1192 1425l-39 -231h-377l-196 -1194h-256l198 1194h-377l37 231h1010z" />
    <glyph glyph-name="tcaron" unicode="&#x165;" horiz-adv-x="737" 
d="M930 1677l-193 -616h-147l112 616h228zM528 1280l-51 -303h262l-32 -205h-263l-69 -416q-28 -174 98 -174q91 0 180 58l9 -201q-124 -72 -289 -72q-72 0 -125 21.5t-85 66.5t-41.5 113.5t5.5 161.5l74 442h-115l31 205h116l52 303h243z" />
    <glyph glyph-name="Tbar" unicode="&#x166;" horiz-adv-x="1075" 
d="M1153 1194h-377l-76 -459h254l-34 -209h-254l-86 -526h-256l88 526h-238l35 209h237l76 459h-377l37 231h1010z" />
    <glyph glyph-name="tbar" unicode="&#x167;" horiz-adv-x="733" 
d="M713 825h-260l-33 -192h268l-22 -144h-269l-22 -133q-28 -174 98 -174q91 0 180 58l9 -201q-124 -72 -289 -72q-72 0 -125 21.5t-85 66.5t-41.5 113.5t5.5 161.5l27 159h-109l23 144h110l31 192h-119l27 152h116l52 303h243l-51 -303h262z" />
    <glyph glyph-name="Umacron" unicode="&#x16a;" horiz-adv-x="1366" 
d="M530 1679l35 203h707l-33 -203h-709zM604 -33q-272 0 -386 179q-114 178 -66 458l135 821h254l-140 -845q-27 -166 28 -269q54 -104 204 -104q146 0 240 96.5t124 276.5l142 845h254l-140 -831q-102 -627 -649 -627z" />
    <glyph glyph-name="umacron" unicode="&#x16b;" horiz-adv-x="1067" 
d="M1040 1462l-32 -202h-709l35 202h706zM694 367l101 610h243l-161 -977h-244l26 160q-133 -193 -356 -193q-137 0 -201 100q-64 99 -36 273l106 637h244l-97 -574q-16 -103 14.5 -160t108.5 -57q150 2 252 181z" />
    <glyph glyph-name="Uring" unicode="&#x16e;" horiz-adv-x="1366" 
d="M641 1815q19 115 103 187q83 69 204 69t181 -72q59 -72 41 -184q-19 -112 -102 -183t-206 -71q-122 0 -180 70q-59 69 -41 184zM976 1726q39 33 46 89q8 58 -17 91t-79 33t-91.5 -33.5t-46.5 -90.5q-10 -55 16.5 -88t80.5 -33q53 0 91 32zM604 -33q-272 0 -386 179
q-114 178 -66 458l135 821h254l-140 -845q-27 -166 28 -269q54 -104 204 -104q146 0 240 96.5t124 276.5l142 845h254l-140 -831q-102 -627 -649 -627z" />
    <glyph glyph-name="uring" unicode="&#x16f;" horiz-adv-x="1067" 
d="M688 1169q-52 0 -93.5 15t-70 41.5t-44 64t-15.5 82.5q0 133 90 220t223 87q52 0 93.5 -15t70 -43t44 -66t15.5 -85q0 -125 -88 -213t-225 -88zM758 1559q-66 0 -110 -47q-44 -49 -44 -119q0 -48 27.5 -74.5t73.5 -26.5q62 0 111 44q48 44 48 116q0 51 -28.5 79t-77.5 28
zM795 977h243l-161 -977h-244l26 160q-133 -193 -356 -193q-137 0 -201 100q-64 99 -36 273l106 637h244l-97 -574q-16 -103 14.5 -160t108.5 -57q150 0 252 181z" />
    <glyph glyph-name="Uhungarumlaut" unicode="&#x170;" horiz-adv-x="1366" 
d="M1051 2015l-283 -440h-152l195 440h240zM1491 2015l-410 -440h-170l334 440h246zM604 -33q-272 0 -386 179q-114 178 -66 458l135 821h254l-140 -845q-27 -166 28 -269q54 -104 204 -104q146 0 240 96.5t124 276.5l142 845h254l-140 -831q-102 -627 -649 -627z" />
    <glyph glyph-name="uhungarumlaut" unicode="&#x171;" horiz-adv-x="1067" 
d="M834 1571l-281 -443h-152l195 443h238zM838 1128h-170l331 443h248zM694 367l101 610h243l-161 -977h-244l26 160q-133 -193 -356 -193q-137 0 -201 100q-64 99 -36 273l106 637h244l-97 -574q-16 -103 14.5 -160t108.5 -57q150 2 252 181z" />
    <glyph glyph-name="Uogonek" unicode="&#x172;" horiz-adv-x="1366" 
d="M1139 1425h254l-140 -831q-73 -451 -383 -580q-313 -163 -313 -336q0 -82 80 -82q80 1 168 54l12 -164q-139 -70 -280 -70q-103 0 -154 48.5t-51 129.5q0 212 254 373q-262 7 -372 186q-110 178 -62 451l135 821h254l-140 -845q-27 -166 28 -269q54 -104 204 -104
q146 0 240 96.5t124 276.5z" />
    <glyph glyph-name="uogonek" unicode="&#x173;" horiz-adv-x="1067" 
d="M877 0q-310 -167 -320 -326q-5 -86 82 -86q73 0 170 50l12 -164q-139 -66 -280 -66q-57 0 -97.5 15t-66 41.5t-36 64t-5.5 82.5q18 226 340 389h-43l26 160q-133 -193 -356 -193q-137 0 -201 100q-64 99 -36 273l106 637h244l-97 -574q-16 -103 14.5 -160t108.5 -57
q150 0 252 181l101 610h243z" />
    <glyph glyph-name="Wcircumflex" unicode="&#x174;" horiz-adv-x="1921" 
d="M1212 1845l-227 -276h-172l326 450h204l175 -450h-172zM1747 1425h262l-567 -1425h-297l-78 752q-3 32 -6.5 108t-7.5 199q-73 -209 -111 -293l-358 -766h-297l-62 1425h273l8 -929q-2 -29 -4 -77t-4 -114q17 48 36 94t39 93l420 923h252l94 -893q8 -118 9 -213
q26 75 42 124.5t23 72.5z" />
    <glyph glyph-name="wcircumflex" unicode="&#x175;" horiz-adv-x="1419" 
d="M864 1405l-225 -277h-172l324 451h204l176 -451h-172zM1225 977h258l-465 -977h-225l-70 666l-303 -666h-240l-80 977h246l14 -746l318 736h194l70 -727z" />
    <glyph glyph-name="Ycircumflex" unicode="&#x176;" horiz-adv-x="1189" 
d="M848 1845l-227 -276h-172l325 450h205l174 -450h-172zM1323 1425l-594 -907l-86 -518h-254l86 524l-295 901h279l184 -661l401 661h279z" />
    <glyph glyph-name="ycircumflex" unicode="&#x177;" horiz-adv-x="1021" 
d="M655 1405l-225 -277h-172l324 451h204l177 -451h-172zM834 977h258l-828 -1483h-254l289 490l-207 993h254l115 -731z" />
    <glyph glyph-name="Ydieresis" unicode="&#x178;" horiz-adv-x="1189" 
d="M575 1608q-59 0 -94 42t-24 101q11 60 58 101q48 42 108 42q59 0 93 -42q35 -42 24 -101t-59 -101q-49 -42 -106 -42zM987 1608q-59 0 -94 42t-24 101q11 60 58 101q48 42 107 42q62 0 96 -42q35 -43 25 -101q-11 -60 -58 -101q-49 -42 -110 -42zM1323 1425l-594 -907
l-86 -518h-254l86 524l-295 901h279l184 -661l401 661h279z" />
    <glyph glyph-name="Zacute" unicode="&#x179;" horiz-adv-x="1134" 
d="M1249 1999l-413 -424h-195l340 424h268zM172 1196l39 229h971l-35 -215l-797 -985l699 2l-39 -227h-1006l37 213l778 983h-647z" />
    <glyph glyph-name="zacute" unicode="&#x17a;" horiz-adv-x="821" 
d="M909 1571l-334 -443h-167l256 443h245zM88 786l31 191h719l-31 -186l-528 -601h460l-30 -190h-736l33 188l518 598h-436z" />
    <glyph glyph-name="Zdotaccent" unicode="&#x17b;" horiz-adv-x="1134" 
d="M762 1608q-62 0 -96 43q-35 45 -25 102q7 61 59 105q49 43 109 43q62 0 96 -43q35 -45 25 -105q-7 -58 -58 -102q-50 -43 -110 -43zM1182 1425l-35 -215l-797 -985l699 2l-39 -227h-1006l37 213l778 983h-647l39 229h971z" />
    <glyph glyph-name="zdotaccent" unicode="&#x17c;" horiz-adv-x="821" 
d="M644 1205q-50 -44 -113 -44q-64 0 -99 44t-24 106q7 61 59 105t113 44q60 0 98 -44q38 -43 27 -105t-61 -106zM838 977l-31 -186l-528 -601h460l-30 -190h-736l33 188l518 598h-436l31 191h719z" />
    <glyph glyph-name="Zcaron" unicode="&#x17d;" horiz-adv-x="1134" 
d="M854 1577h-205l-174 453h172l133 -277l228 277h172zM1182 1425l-35 -215l-797 -985l699 2l-39 -227h-1006l37 213l778 983h-647l39 229h971z" />
    <glyph glyph-name="zcaron" unicode="&#x17e;" horiz-adv-x="821" 
d="M616 1128h-204l-174 451h172l133 -276l227 276h172zM88 786l31 191h719l-31 -186l-528 -601h460l-30 -190h-736l33 188l518 598h-436z" />
    <glyph glyph-name="uni01CD" unicode="&#x1cd;" horiz-adv-x="1267" 
d="M905 1577h-205l-174 453h172l133 -277l228 277h172zM631 1425h297l227 -1425h-266l-45 338h-490l-151 -338h-256zM449 545h366l-84 626z" />
    <glyph glyph-name="uni01CE" unicode="&#x1ce;" horiz-adv-x="1134" 
d="M803 1128h-205l-174 451h172l133 -276l227 276h172zM858 856l31 121h227l-162 -977h-229l12 127q-142 -160 -358 -160q-150 0 -243 101t-93 286q0 299 156 477q155 177 383 177q88 0 161 -41.5t115 -110.5zM487 190q178 0 285 170l43 275q-55 156 -209 156
q-126 0 -221 -105q-94 -106 -94 -268q0 -106 52.5 -167t143.5 -61z" />
    <glyph glyph-name="uni01CF" unicode="&#x1cf;" horiz-adv-x="552" 
d="M713 2030h172l-326 -453h-205l-174 453h172l133 -277zM68 0l235 1425h254l-233 -1425h-256z" />
    <glyph glyph-name="uni01D0" unicode="&#x1d0;" horiz-adv-x="491" 
d="M604 1579h172l-325 -451h-205l-174 451h172l133 -276zM43 0l162 977h244l-164 -977h-242z" />
    <glyph glyph-name="uni01D1" unicode="&#x1d1;" horiz-adv-x="1536" 
d="M1051 1577h-205l-174 453h172l133 -277l227 277h172zM936 1458q229 0 401 -138q87 -69 138 -190t51 -280q0 -175 -59 -333t-167 -281q-107 -122 -273 -196q-164 -73 -359 -73q-246 0 -414 153q-168 152 -168 458q0 368 239 624q239 255 611 256zM707 215q239 0 393 186
q155 185 155 422q0 189 -101 290q-100 99 -259 99q-228 0 -382 -178q-155 -179 -155 -420q0 -202 97 -300q96 -99 252 -99z" />
    <glyph glyph-name="uni01D2" unicode="&#x1d2;" horiz-adv-x="1099" 
d="M772 1128h-205l-174 451h172l133 -276l228 276h172zM653 1008q171 0 287 -101q115 -102 115 -313q0 -279 -171 -453t-423 -174q-184 0 -301 102q-117 101 -117 312q0 262 171 445q171 182 439 182zM815 543q6 126 -52 184q-60 60 -147 61q-131 5 -230 -99
q-100 -104 -101 -255q-4 -119 51 -179t149 -62q127 -4 224 96q96 100 106 254z" />
    <glyph glyph-name="uni01D3" unicode="&#x1d3;" horiz-adv-x="1366" 
d="M965 1577h-205l-174 453h172l133 -277l227 277h172zM1139 1425h254l-140 -831q-102 -627 -649 -627q-272 0 -386 179q-114 178 -66 458l135 821h254l-140 -845q-27 -166 28 -269q54 -104 204 -104q146 0 240 96.5t124 276.5z" />
    <glyph glyph-name="uni01D4" unicode="&#x1d4;" horiz-adv-x="1067" 
d="M741 1128h-204l-175 451h173l133 -276l227 276h172zM694 367l101 610h243l-161 -977h-244l26 160q-133 -193 -356 -193q-137 0 -201 100q-64 99 -36 273l106 637h244l-97 -574q-16 -103 14.5 -160t108.5 -57q150 2 252 181z" />
    <glyph glyph-name="uni0218" unicode="&#x218;" horiz-adv-x="1081" 
d="M637 850q42 -17 74 -31t55 -27q48 -26 110 -75q63 -49 92 -121.5t29 -169.5q0 -210 -149 -335q-149 -124 -377 -124q-277 0 -477 166l104 242q147 -170 377 -170q114 0 187 56q71 56 71 145q0 43 -14 73.5t-48 56.5q-17 13 -33.5 23t-32.5 18t-38 17t-51 20
q-166 67 -255 160q-87 92 -87 252q0 190 131 310t369 120q257 0 456 -129l-145 -213q-142 109 -315 109q-105 0 -167 -46q-63 -46 -63 -122q0 -78 46 -120q44 -41 151 -85zM473 -106q82 0 120 -60.5t21 -163.5q-45 -252 -317 -366l-64 121q161 66 213 174q-5 -1 -12 -1.5
t-16 -0.5q-30 0 -54 10t-40 28.5t-22.5 46t-0.5 62.5q11 66 60 108q50 42 112 42z" />
    <glyph glyph-name="uni0219" unicode="&#x219;" horiz-adv-x="786" 
d="M440 590q134 -44 203 -107q70 -64 70 -188q0 -152 -115 -240t-295 -88q-212 0 -342 94l82 183q109 -88 264 -88q78 0 126 30.5t48 85.5q0 18 -6.5 34t-17 28.5t-22.5 22t-24 14.5t-30.5 12t-44.5 16q-258 83 -258 291q0 142 101 231q101 87 282 87q177 0 332 -80
l-103 -174q-103 68 -237 67q-144 0 -146 -104q0 -82 133 -127zM299 -106q82 0 120 -60.5t21 -163.5q-45 -252 -317 -366l-64 121q161 66 213 174q-5 -1 -12 -1.5t-16 -0.5q-30 0 -54 10t-40 28.5t-22.5 46t-0.5 62.5q11 66 60 108q50 42 112 42z" />
    <glyph glyph-name="uni021A" unicode="&#x21a;" horiz-adv-x="1058" 
d="M1192 1425l-39 -231h-377l-196 -1194h-256l198 1194h-377l37 231h1010zM430 -106q82 0 120 -60.5t21 -163.5q-45 -252 -317 -366l-64 121q161 66 213 174q-5 -1 -12 -1.5t-16 -0.5q-30 0 -54 10t-40 28.5t-22.5 46t-0.5 62.5q11 66 60 108q50 42 112 42z" />
    <glyph glyph-name="uni021B" unicode="&#x21b;" horiz-adv-x="692" 
d="M444 772l-69 -416q-28 -174 98 -174q91 0 180 58l9 -201q-124 -72 -289 -72q-72 0 -125 21.5t-85 66.5t-41.5 113.5t5.5 161.5l74 442h-115l31 205h116l52 303h243l-51 -303h262l-32 -205h-263zM379 -106q82 0 120 -60.5t21 -163.5q-45 -252 -317 -366l-64 121
q161 66 213 174q-5 -1 -12 -1.5t-16 -0.5q-30 0 -54 10t-40 28.5t-22.5 46t-0.5 62.5q11 66 60 108q50 42 112 42z" />
    <glyph glyph-name="uni0237" unicode="&#x237;" horiz-adv-x="477" 
d="M-182 -528l-35 206q202 6 240 218l176 1081h241l-174 -1086q-33 -208 -141 -305q-108 -98 -307 -114z" />
    <glyph glyph-name="circumflex" unicode="&#x2c6;" horiz-adv-x="1228" 
d="M848 1128h-172l-135 277l-226 -277h-172l324 451h205z" />
    <glyph glyph-name="caron" unicode="&#x2c7;" horiz-adv-x="1228" 
d="M756 1579h172l-326 -451h-205l-174 451h172l133 -276z" />
    <glyph glyph-name="breve" unicode="&#x2d8;" horiz-adv-x="1228" 
d="M225 1577h191q-51 -258 125 -258t209 258h192q-23 -208 -133 -314t-293 -106q-184 0 -261 106.5t-30 313.5z" />
    <glyph glyph-name="dotaccent" unicode="&#x2d9;" horiz-adv-x="1228" 
d="M172 1311q8 62 60 105q52 44 113 44q60 0 98 -44q36 -44 26 -105q-11 -63 -60 -106q-52 -44 -114 -44q-63 0 -98 45t-25 105z" />
    <glyph glyph-name="ring" unicode="&#x2da;" horiz-adv-x="1228" 
d="M393 1169q-52 0 -93.5 15t-70 41.5t-44 64t-15.5 82.5q0 133 90 220t223 87q105 0 164 -58q60 -58 60 -151q0 -125 -88 -213t-226 -88zM410 1292q62 0 111 44q48 44 48 116q0 51 -28.5 79t-77.5 28q-66 0 -110 -47q-44 -49 -44 -119q0 -48 28 -74.5t73 -26.5z" />
    <glyph glyph-name="ogonek" unicode="&#x2db;" horiz-adv-x="1228" 
d="M119 -555q-57 0 -98 15t-66.5 41.5t-35.5 64t-5 82.5q25 285 528 471l13 -82q-310 -167 -320 -326q-5 -86 82 -86q75 0 170 49l12 -163q-139 -66 -280 -66z" />
    <glyph glyph-name="tilde" unicode="&#x2dc;" horiz-adv-x="1228" 
d="M432 1360q-68 0 -102 -217h-180q51 413 264 411q35 0 67.5 -19t51.5 -40q9 -11 22.5 -27t30.5 -38q68 -97 108 -99q75 0 109 219h180q-51 -415 -266 -413q-27 0 -49.5 8t-44 23.5t-43.5 40t-48 57.5q-6 6 -16 20l-15 21q-5 6 -13.5 17t-13.5 15q-11 8 -20.5 14.5
t-21.5 6.5z" />
    <glyph glyph-name="hungarumlaut" unicode="&#x2dd;" horiz-adv-x="1228" 
d="M641 1571l-281 -443h-151l194 443h238zM1055 1571l-410 -443h-170l332 443h248z" />
    <glyph glyph-name="gravecomb" unicode="&#x300;" 
d="M61 1128h-167l-189 443h248z" />
    <glyph glyph-name="acutecomb" unicode="&#x301;" 
d="M203 1571l-334 -443h-168l256 443h246z" />
    <glyph glyph-name="uni0302" unicode="&#x302;" 
d="M78 1128h-172l-135 277l-226 -277h-172l324 451h205z" />
    <glyph glyph-name="tildecomb" unicode="&#x303;" 
d="M-426 1360q-68 0 -102 -217h-181q51 412 265 411q35 0 67.5 -19t50.5 -40q10 -11 23.5 -27t30.5 -38q67 -97 108 -99q74 0 109 219h180q-51 -415 -266 -413q-27 0 -49.5 8t-44 23.5t-43.5 40t-48 57.5q-6 6 -16 20l-15 21q-5 6 -13.5 17t-13.5 15q-11 8 -21 14.5t-21 6.5
z" />
    <glyph glyph-name="uni0304" unicode="&#x304;" 
d="M-575 1462h706l-33 -202h-708z" />
    <glyph glyph-name="uni0306" unicode="&#x306;" 
d="M-575 1577h190q-51 -258 125 -258t209 258h192q-23 -208 -132.5 -314t-293.5 -106t-260.5 106.5t-29.5 313.5z" />
    <glyph glyph-name="uni0307" unicode="&#x307;" 
d="M-190 1311q7 61 59 105t112 44q61 0 99 -44q38 -43 27 -105t-61 -106t-114 -44t-98 45q-35 44 -24 105z" />
    <glyph glyph-name="uni0308" unicode="&#x308;" 
d="M-618 1370q11 60 58 101q48 42 107 42q60 0 92 -41q33 -43 23 -102q-7 -57 -55 -98q-47 -41 -107 -41q-58 0 -93 41q-33 40 -25 98zM-174 1370q8 59 56 101t107 42t94 -41q35 -42 24 -101q-10 -59 -59 -100q-47 -40 -105 -40t-93 41t-24 98z" />
    <glyph glyph-name="uni030A" unicode="&#x30a;" 
d="M-174 1169q-52 0 -93.5 15t-70 41.5t-44 64t-15.5 82.5q0 133 90 220t223 87q52 0 93.5 -15t70 -43t44 -66t15.5 -85q0 -125 -88 -213t-225 -88zM-158 1292q62 0 111 44q49 43 49 116q0 51 -28.5 79t-77.5 28q-66 0 -110 -47q-44 -49 -44 -119q0 -48 27.5 -74.5
t72.5 -26.5z" />
    <glyph glyph-name="uni030B" unicode="&#x30b;" 
d="M-221 1571l-281 -443h-151l194 443h238zM193 1571l-410 -443h-170l332 443h248z" />
    <glyph glyph-name="uni030C" unicode="&#x30c;" 
d="M-31 1579h172l-325 -451h-205l-174 451h172l133 -276z" />
    <glyph glyph-name="uni0312" unicode="&#x312;" 
d="M-6 1442q49 0 82 -33t22 -96q-6 -35 -22.5 -62.5t-40 -46.5t-52.5 -29t-61 -10q-85 0 -120 57.5t-19 157.5q19 123 102 222t215 143l60 -119q-170 -72 -219 -192q24 8 53 8z" />
    <glyph glyph-name="uni0326" unicode="&#x326;" 
d="M-356 -106q82 0 119.5 -60.5t21.5 -163.5q-45 -252 -317 -366l-64 121q160 66 213 174q-5 -1 -12 -1.5t-17 -0.5q-30 0 -54 10t-40 28.5t-22 46t0 62.5q11 67 59 108q49 42 113 42z" />
    <glyph glyph-name="uni0327" unicode="&#x327;" 
d="M-332 -154q172 0 172 -172q0 -129 -93 -202q-93 -72 -230 -72q-155 0 -258 63l69 131q86 -53 185 -53q66 0 107.5 34t41.5 91q0 66 -72 66q-61 0 -104 -43l-115 43l160 291h158l-123 -195q55 18 102 18z" />
    <glyph glyph-name="uni0328" unicode="&#x328;" 
d="M-459 -555q-57 0 -98 15t-66.5 41.5t-35.5 64t-5 82.5q26 285 529 471l12 -82q-309 -166 -319 -326q-5 -86 82 -86q75 0 170 49l12 -163q-140 -66 -281 -66z" />
    <glyph glyph-name="uni0335" unicode="&#x335;" 
d="M-793 461l35 209h746l-35 -209h-746z" />
    <glyph glyph-name="uni0336" unicode="&#x336;" 
 />
    <glyph glyph-name="uni0337" unicode="&#x337;" 
d="M-872 438l-62 197l809 307l74 -194z" />
    <glyph glyph-name="uni0338" unicode="&#x338;" 
d="M61 1348l-1364 -1383l-147 119l1352 1372z" />
    <glyph glyph-name="Wgrave" unicode="&#x1e80;" horiz-adv-x="1921" 
d="M1225 1575h-172l-209 442h246zM1747 1425h262l-567 -1425h-297l-78 752q-3 32 -6.5 108t-7.5 199q-73 -209 -111 -293l-358 -766h-297l-62 1425h273l8 -929q-2 -29 -4 -77t-4 -114q17 48 36 94t39 93l420 923h252l94 -893q8 -118 9 -213q26 75 42 124.5t23 72.5z" />
    <glyph glyph-name="wgrave" unicode="&#x1e81;" horiz-adv-x="1419" 
d="M903 1128h-168l-188 443h248zM1225 977h258l-465 -977h-225l-70 666l-303 -666h-240l-80 977h246l14 -746l318 736h194l70 -727z" />
    <glyph glyph-name="Wacute" unicode="&#x1e82;" horiz-adv-x="1921" 
d="M1638 1999l-413 -424h-195l340 424h268zM1747 1425h262l-567 -1425h-297l-78 752q-3 32 -6.5 108t-7.5 199q-73 -209 -111 -293l-358 -766h-297l-62 1425h273l8 -929q-2 -29 -4 -77t-4 -114q17 48 36 94t39 93l420 923h252l94 -893q8 -118 9 -213q26 75 42 124.5t23 72.5
z" />
    <glyph glyph-name="wacute" unicode="&#x1e83;" horiz-adv-x="1419" 
d="M1208 1571l-334 -443h-167l256 443h245zM1225 977h258l-465 -977h-225l-70 666l-303 -666h-240l-80 977h246l14 -746l318 736h194l70 -727z" />
    <glyph glyph-name="Wdieresis" unicode="&#x1e84;" horiz-adv-x="1921" 
d="M940 1608q-59 0 -94 42q-35 43 -25 101q11 60 59 101q48 42 108 42q59 0 93 -42q33 -43 23 -101q-11 -60 -58 -101q-49 -42 -106 -42zM1352 1608q-59 0 -94 42q-35 43 -25 101q11 60 58 101q48 42 108 42q62 0 96 -42q35 -43 25 -101q-11 -59 -59 -101t-109 -42z
M1747 1425h262l-567 -1425h-297l-78 752q-3 32 -6.5 108t-7.5 199q-73 -209 -111 -293l-358 -766h-297l-62 1425h273l8 -929q-2 -29 -4 -77t-4 -114q17 48 36 94t39 93l420 923h252l94 -893q8 -118 9 -213q26 75 42 124.5t23 72.5z" />
    <glyph glyph-name="wdieresis" unicode="&#x1e85;" horiz-adv-x="1419" 
d="M721 1272q-47 -41 -106 -41t-94 41q-34 40 -25 98q11 60 58 101q48 42 108 42q59 0 92 -41q32 -43 22 -102q-7 -57 -55 -98zM1057 1231q-58 0 -93 41t-24 98q8 59 56 101t108 42q58 0 93 -41q35 -42 24 -101q-10 -59 -59 -100q-47 -40 -105 -40zM1225 977h258l-465 -977
h-225l-70 666l-303 -666h-240l-80 977h246l14 -746l318 736h194l70 -727z" />
    <glyph glyph-name="Ygrave" unicode="&#x1ef2;" horiz-adv-x="1189" 
d="M860 1575h-172l-209 442h246zM1323 1425l-594 -907l-86 -518h-254l86 524l-295 901h279l184 -661l401 661h279z" />
    <glyph glyph-name="ygrave" unicode="&#x1ef3;" horiz-adv-x="1021" 
d="M694 1128h-168l-188 443h248zM834 977h258l-828 -1483h-254l289 490l-207 993h254l115 -731z" />
    <glyph glyph-name="endash" unicode="&#x2013;" horiz-adv-x="1118" 
d="M59 461l35 209h987l-32 -209h-990z" />
    <glyph glyph-name="emdash" unicode="&#x2014;" horiz-adv-x="1368" 
d="M55 461l33 209h1239l-33 -209h-1239z" />
    <glyph glyph-name="quoteleft" unicode="&#x2018;" horiz-adv-x="430" 
d="M342 1186q45 -2 72.5 -30.5t27.5 -82.5q0 -66 -45 -108q-44 -43 -114 -43q-69 0 -104.5 46.5t-35.5 131.5q0 161 99 279q97 117 250 169l53 -114q-105 -27 -169.5 -93.5t-80.5 -160.5q23 6 47 6z" />
    <glyph glyph-name="quoteright" unicode="&#x2019;" horiz-adv-x="419" 
d="M387 1548q69 0 104 -46.5t35 -131.5q0 -159 -98 -278t-250 -170l-53 114q105 27 169 93.5t81 160.5q-22 -6 -47 -6q-45 2 -73 30.5t-28 82.5q0 33 12 60.5t33 48t50.5 31.5t64.5 11z" />
    <glyph glyph-name="quotedblleft" unicode="&#x201c;" horiz-adv-x="780" 
d="M342 1186q45 -2 72.5 -30.5t27.5 -82.5q0 -66 -45 -108q-44 -43 -114 -43q-69 0 -104.5 46.5t-35.5 131.5q0 161 99 279q97 117 250 169l53 -114q-105 -27 -169.5 -93.5t-80.5 -160.5q23 6 47 6zM713 1186q45 -2 72.5 -30.5t27.5 -82.5q0 -33 -12 -60.5t-33 -48
t-50.5 -31.5t-64.5 -11q-69 0 -104 46.5t-35 131.5q0 161 99 279q97 118 249 169l53 -114q-105 -27 -169 -93.5t-80 -160.5q23 6 47 6z" />
    <glyph glyph-name="quotedblright" unicode="&#x201d;" horiz-adv-x="782" 
d="M387 1548q69 0 104 -46.5t35 -131.5q0 -159 -98 -278t-250 -170l-53 114q105 27 169 93.5t81 160.5q-22 -6 -47 -6q-45 2 -73 30.5t-28 82.5q0 33 12 60.5t33 48t50.5 31.5t64.5 11zM758 1548q69 0 104 -46.5t35 -131.5q0 -159 -98 -278q-100 -119 -250 -170l-53 114
q105 27 169 93.5t80 160.5q-22 -6 -47 -6q-45 2 -72.5 30.5t-27.5 82.5q0 33 12 60.5t33 48t50.5 31.5t64.5 11z" />
    <glyph glyph-name="dagger" unicode="&#x2020;" horiz-adv-x="1228" 
 />
    <glyph glyph-name="daggerdbl" unicode="&#x2021;" horiz-adv-x="1228" 
 />
    <glyph glyph-name="bullet" unicode="&#x2022;" horiz-adv-x="602" 
d="M106 666q7 102 85 173q76 70 180 70q88 0 142 -59q54 -58 46 -145q-7 -99 -86 -170q-77 -70 -178 -70q-90 0 -142 58q-53 58 -47 143z" />
    <glyph glyph-name="ellipsis" unicode="&#x2026;" horiz-adv-x="1214" 
d="M10 98q0 76 56 129q55 52 127 52q30 0 55 -10t43 -28t27.5 -42t9.5 -52q0 -73 -56 -126q-56 -52 -129 -52q-61 0 -97 37t-36 92zM389 98q0 76 56 129q55 52 126 52q30 0 55 -10t43 -28t28 -42t10 -52q0 -73 -56 -126q-56 -52 -129 -52q-61 0 -97 37t-36 92zM766 98
q0 76 56 129q55 52 126 52q30 0 55 -10t43 -28t27.5 -42t9.5 -52q0 -73 -56 -126q-55 -52 -128 -52q-61 0 -97 37t-36 92z" />
    <glyph glyph-name="perthousand" unicode="&#x2030;" horiz-adv-x="2377" 
d="M418 760q-133 0 -210 80t-77 211q0 173 116 291q116 116 296 116q137 0 212 -79q74 -80 74 -210q0 -174 -117 -291q-118 -118 -294 -118zM344 0l795 1425h245l-794 -1425h-246zM440 924q93 0 158 68q64 67 64 155q0 70 -36.5 110.5t-105.5 40.5q-96 0 -158 -66
q-63 -67 -63 -157q0 -66 36 -108.5t105 -42.5zM1178 -33q-133 0 -210 81q-77 82 -77 210q0 174 117 291q116 117 295 117q137 0 212 -79q74 -80 74 -210q0 -173 -117 -292q-118 -118 -294 -118zM1913 -33q-133 0 -210 80t-77 211q0 173 116 291q116 117 296 117
q135 0 210 -79q74 -80 74 -210q0 -175 -116 -293q-117 -117 -293 -117zM1200 131q96 0 159 67q62 67 62 156q0 70 -36 111t-105 41q-95 0 -157 -66q-62 -68 -62 -157q0 -66 35 -109t104 -43zM1935 131q93 0 158 68q64 67 64 155q0 70 -36.5 111t-105.5 41q-97 0 -159 -66
q-62 -68 -62 -157q0 -69 35.5 -110.5t105.5 -41.5z" />
    <glyph glyph-name="guilsinglleft" unicode="&#x2039;" horiz-adv-x="759" 
d="M709 1047l-37 -250l-447 -230l369 -239l-35 -232l-526 373l35 221z" />
    <glyph glyph-name="guilsinglright" unicode="&#x203a;" horiz-adv-x="757" 
d="M203 1047l530 -357l-35 -219l-645 -375l43 250l451 246l-379 225z" />
    <glyph glyph-name="fraction" unicode="&#x2044;" horiz-adv-x="933" 
d="M993 1425l-710 -1425h-269l711 1425h268z" />
    <glyph glyph-name="Euro" unicode="&#x20ac;" horiz-adv-x="1357" 
d="M1024 1212q-158 0 -283 -78q-126 -80 -194 -212h483l-41 -136h-493q-16 -58 -21 -133h494l-37 -141h-451q22 -154 115 -225q92 -72 223 -72q114 0 228 44q112 43 192 116l59 -238q-95 -77 -241 -123q-150 -47 -289 -47q-106 0 -198 29t-173 90t-131.5 169.5t-60.5 256.5
h-187l37 141h148q1 31 5 64t11 69h-145l43 136h141q89 237 293 386q202 148 493 148q280 0 443 -147l-133 -226q-129 129 -330 129z" />
    <glyph glyph-name="trademark" unicode="&#x2122;" horiz-adv-x="1429" 
d="M688 1278h-182l-94 -573h-170l94 573h-170l22 147h523zM1331 1425h187l-115 -720h-154l78 460l-225 -413h-103l-94 432l-78 -479h-147l119 720h178l110 -473z" />
    <glyph glyph-name="partialdiff" unicode="&#x2202;" horiz-adv-x="1228" 
 />
    <glyph glyph-name="emptyset" unicode="&#x2205;" horiz-adv-x="1228" 
 />
    <glyph glyph-name="product" unicode="&#x220f;" horiz-adv-x="1228" 
 />
    <glyph glyph-name="summation" unicode="&#x2211;" horiz-adv-x="1228" 
 />
    <glyph glyph-name="minus" unicode="&#x2212;" horiz-adv-x="1124" 
d="M156 786h913l-35 -215h-913z" />
    <glyph glyph-name="radical" unicode="&#x221a;" horiz-adv-x="1228" 
 />
    <glyph glyph-name="infinity" unicode="&#x221e;" horiz-adv-x="1228" 
 />
    <glyph glyph-name="integral" unicode="&#x222b;" horiz-adv-x="1228" 
 />
    <glyph glyph-name="approxequal" unicode="&#x2248;" horiz-adv-x="1228" 
 />
    <glyph glyph-name="notequal" unicode="&#x2260;" horiz-adv-x="1128" 
d="M1069 784h-281l-163 -247h405l-35 -215h-512l-135 -205l-172 78l84 127h-178l35 215h284l162 247h-407l34 213h515l120 185l172 -80l-69 -105h176z" />
    <glyph glyph-name="lessequal" unicode="&#x2264;" horiz-adv-x="1228" 
 />
    <glyph glyph-name="greaterequal" unicode="&#x2265;" horiz-adv-x="1228" 
 />
    <glyph glyph-name="lozenge" unicode="&#x25ca;" horiz-adv-x="1228" 
 />
    <glyph glyph-name="uniFB00" unicode="&#xfb00;" horiz-adv-x="1228" 
 />
    <glyph glyph-name="A.swash" horiz-adv-x="1665" 
d="M1292 0l-45 338h-489l-152 -338h-256l584 1217h-215q-196 0 -305 -73q-111 -73 -111 -204q0 -197 227 -203l-77 -182q-181 1 -273 113q-92 110 -92 260q0 224 171 360q172 137 507 137h565l228 -1425h-267zM852 545h367l-84 626z" />
    <glyph glyph-name="AE.aalt" horiz-adv-x="1662" 
d="M1647 842h-535l-29 -209h402l-27 -174h-397l-33 -240h510l-31 -219h-759l28 213h-409l-150 -213h-262l717 1057h1003zM510 418h293l57 424h-55z" />
    <glyph glyph-name="Aacute.swash" horiz-adv-x="1665" 
d="M1636 1999l-413 -424h-195l340 424h268zM1331 1425l228 -1425h-267l-45 338h-489l-152 -338h-256l584 1217h-215q-196 0 -305 -73q-111 -73 -111 -204q0 -197 227 -203l-77 -182q-181 1 -273 113q-92 110 -92 260q0 224 171 360q172 137 507 137h565zM852 545h367
l-84 626z" />
    <glyph glyph-name="Abreve.swash" horiz-adv-x="1665" 
d="M1147 1587q-184 0 -261 106.5t-30 313.5h191q-51 -258 125 -258q177 0 208 258h193q-25 -208 -134 -314t-292 -106zM1331 1425l228 -1425h-267l-45 338h-489l-152 -338h-256l584 1217h-215q-196 0 -305 -73q-111 -73 -111 -204q0 -197 227 -203l-77 -182q-181 1 -273 113
q-92 110 -92 260q0 224 171 360q172 137 507 137h565zM852 545h367l-84 626z" />
    <glyph glyph-name="Acircumflex.swash" horiz-adv-x="1665" 
d="M1210 1845l-227 -276h-172l326 450h204l175 -450h-173zM1292 0l-45 338h-489l-152 -338h-256l584 1217h-215q-196 0 -305 -73q-111 -73 -111 -204q0 -197 227 -203l-77 -182q-181 1 -273 113q-92 110 -92 260q0 224 171 360q172 137 507 137h565l228 -1425h-267zM852 545
h367l-84 626z" />
    <glyph glyph-name="Adieresis.swash" horiz-adv-x="1665" 
d="M938 1608q-59 0 -94 42q-35 43 -25 101q11 60 59 101q48 42 107 42t93 -42q35 -42 24 -101q-11 -60 -58 -101q-49 -42 -106 -42zM1350 1608q-59 0 -94 42q-35 43 -25 101q11 60 58 101q48 42 108 42q62 0 96 -42q35 -43 25 -101q-11 -59 -59 -101t-109 -42zM1292 0
l-45 338h-489l-152 -338h-256l584 1217h-215q-196 0 -305 -73q-111 -73 -111 -204q0 -197 227 -203l-77 -182q-181 1 -273 113q-92 110 -92 260q0 224 171 360q172 137 507 137h565l228 -1425h-267zM852 545h367l-84 626z" />
    <glyph glyph-name="Agrave.swash" horiz-adv-x="1665" 
d="M1223 1575h-172l-209 442h245zM1292 0l-45 338h-489l-152 -338h-256l584 1217h-215q-196 0 -305 -73q-111 -73 -111 -204q0 -197 227 -203l-77 -182q-181 1 -273 113q-92 110 -92 260q0 224 171 360q172 137 507 137h565l228 -1425h-267zM852 545h367l-84 626z" />
    <glyph glyph-name="Amacron.swash" horiz-adv-x="1665" 
d="M1548 1882l-32 -203h-709l35 203h706zM1292 0l-45 338h-489l-152 -338h-256l584 1217h-215q-196 0 -305 -73q-111 -73 -111 -204q0 -197 227 -203l-77 -182q-181 1 -273 113q-92 110 -92 260q0 224 171 360q172 137 507 137h565l228 -1425h-267zM852 545h367l-84 626z
" />
    <glyph glyph-name="Aogonek.swash" horiz-adv-x="1665" 
d="M1272 -338q0 -82 80 -82q79 0 168 53l12 -163q-139 -70 -281 -70q-103 0 -153.5 48t-50.5 130q0 252 342 422h-97l-45 338h-489l-152 -338h-256l584 1217h-215q-196 0 -305 -73q-111 -73 -111 -204q0 -197 227 -203l-77 -182q-181 1 -273 113q-92 110 -92 260
q0 224 171 360q172 137 507 137h565l223 -1402l37 -21q-319 -163 -319 -340zM852 545h367l-84 626z" />
    <glyph glyph-name="Aring.swash" horiz-adv-x="1665" 
d="M1139 1561q-122 0 -180 70q-60 69 -41 184t103 187q83 69 204 69q122 0 180 -72q59 -72 41 -184q-20 -114 -101 -183q-83 -71 -206 -71zM1065 1815q-10 -55 16 -88t80 -33t91.5 31.5t46.5 89.5q8 57 -17.5 90.5t-79.5 33.5t-91.5 -33.5t-45.5 -90.5zM1292 0l-45 338h-489
l-152 -338h-256l584 1217h-215q-196 0 -305 -73q-111 -73 -111 -204q0 -197 227 -203l-77 -182q-181 1 -273 113q-92 110 -92 260q0 224 171 360q172 137 507 137h565l228 -1425h-267zM852 545h367l-84 626z" />
    <glyph glyph-name="Atilde.swash" horiz-adv-x="1665" 
d="M1040 1761q-75 0 -110 -215h-178q50 410 262 410q46 0 90 -35q22 -17 39.5 -36.5t31.5 -39.5q28 -42 61 -75q35 -35 64 -35q79 0 113 217h180q-51 -412 -270 -412q-58 0 -111 56q-26 28 -50 55t-45 55q-42 55 -77 55zM1331 1425l228 -1425h-267l-45 338h-489l-152 -338
h-256l584 1217h-215q-196 0 -305 -73q-111 -73 -111 -204q0 -197 227 -203l-77 -182q-181 1 -273 113q-92 110 -92 260q0 224 171 360q172 137 507 137h565zM852 545h367l-84 626z" />
    <glyph glyph-name="B.swash" horiz-adv-x="1746" 
d="M1448 750q254 -44 254 -285q0 -227 -168 -346q-169 -119 -436 -119h-543l201 1217h-74q-212 0 -319 -82.5t-107 -233.5q0 -211 276 -211l-30 -186q-220 0 -341 110q-120 110 -120 285q0 106 35 195.5t112 166.5t218.5 120.5t336.5 43.5h621q367 0 367 -288
q0 -140 -76 -240q-76 -102 -207 -147zM1466 1047q0 157 -198 155h-260l-64 -389h275q102 0 175 67q72 68 72 167zM1130 227q139 0 230 67q90 66 90 187q0 172 -211 172h-321l-72 -426h284z" />
    <glyph glyph-name="C.swash" horiz-adv-x="1357" 
d="M633 -74q-266 0 -410 155q-145 154 -145 431q0 255 104 471q104 215 297 344q194 129 434 129q183 0 299 -98q115 -97 115 -307q0 -131 -49 -291h-227q47 123 47 221q0 109 -59 168t-167 59q-230 0 -376 -198q-146 -200 -146 -457q0 -178 93 -279q92 -102 257 -102
q281 0 484 215l76 -227q-107 -103 -269 -168q-163 -66 -358 -66z" />
    <glyph glyph-name="Cacute.swash" horiz-adv-x="1357" 
d="M1425 1999l-413 -424h-195l340 424h268zM633 -74q-266 0 -410 155q-145 154 -145 431q0 255 104 471q104 215 297 344q194 129 434 129q183 0 299 -98q115 -97 115 -307q0 -131 -49 -291h-227q47 123 47 221q0 109 -59 168t-167 59q-230 0 -376 -198q-146 -200 -146 -457
q0 -178 93 -279q92 -102 257 -102q281 0 484 215l76 -227q-107 -103 -269 -168q-163 -66 -358 -66z" />
    <glyph glyph-name="Ccaron.swash" horiz-adv-x="1357" 
d="M1030 1577h-205l-174 453h172l133 -277l228 277h172zM913 1456q183 0 299 -98q115 -97 115 -307q0 -131 -49 -291h-227q47 123 47 221q0 109 -59 168t-167 59q-230 0 -376 -198q-146 -200 -146 -457q0 -178 93 -279q92 -102 257 -102q281 0 484 215l76 -227
q-107 -103 -269 -168q-163 -66 -358 -66q-266 0 -410 155q-145 154 -145 431q0 255 104 471t296 344q194 129 435 129z" />
    <glyph glyph-name="Ccedilla.swash" horiz-adv-x="1357" 
d="M1278 760h-227q47 123 47 221q0 109 -59 168t-167 59q-230 0 -376 -198q-146 -200 -146 -457q0 -178 93 -279q92 -102 257 -102q281 0 484 215l76 -227q-95 -94 -244 -157q-148 -65 -324 -75l-74 -116q29 11 57.5 17t57.5 5q76 0 121 -42.5t45 -127.5q0 -142 -93 -215
q-94 -74 -241 -74q-160 0 -243 68l69 137q10 -12 28 -23t41.5 -20t51 -14.5t57.5 -5.5q72 0 114 32.5t42 90.5q0 72 -72 71q-68 0 -118 -47l-113 43l127 223q-228 26 -349 177q-122 152 -122 405q0 255 104 471q104 215 297 344q194 129 434 129q183 0 299 -98
q115 -97 115 -307q0 -131 -49 -291z" />
    <glyph glyph-name="Cdotaccent.swash" horiz-adv-x="1357" 
d="M817 1753q7 61 59 105q49 43 109 43q62 0 96 -43q35 -45 25 -105q-7 -58 -58 -102q-50 -43 -110 -43q-62 0 -96 43q-35 45 -25 102zM633 -74q-266 0 -410 155q-145 154 -145 431q0 255 104 471q104 215 297 344q194 129 434 129q183 0 299 -98q115 -97 115 -307
q0 -131 -49 -291h-227q47 123 47 221q0 109 -59 168t-167 59q-230 0 -376 -198q-146 -200 -146 -457q0 -178 93 -279q92 -102 257 -102q281 0 484 215l76 -227q-107 -103 -269 -168q-163 -66 -358 -66z" />
    <glyph glyph-name="D.swash" horiz-adv-x="1861" 
d="M1227 1425q292 0 455 -137q161 -137 161 -420q0 -209 -69 -376q-71 -169 -190 -273q-121 -106 -273.5 -162.5t-327.5 -56.5h-459l201 1217h-74q-211 0 -317.5 -82.5t-106.5 -233.5q0 -103 70.5 -157t204.5 -54l-29 -186q-220 0 -342 110q-121 109 -121 285
q0 105 35.5 195t113.5 167t218 120.5t336 43.5h514zM979 233q65 -1 129 11t124 37.5t114 64.5t98 92q57 69 92 172.5t35 231.5q0 356 -389 356h-203l-160 -965h160z" />
    <glyph glyph-name="Dcaron.swash" horiz-adv-x="1861" 
d="M1425 1577h-204l-174 453h172l133 -277l227 277h172zM1227 1425q292 0 455 -137q161 -137 161 -420q0 -209 -69 -376q-71 -169 -190 -273q-121 -106 -273.5 -162.5t-327.5 -56.5h-459l201 1217h-74q-211 0 -317.5 -82.5t-106.5 -233.5q0 -103 70.5 -157t204.5 -54
l-29 -186q-220 0 -342 110q-121 109 -121 285q0 105 35.5 195t113.5 167t218 120.5t336 43.5h514zM979 233q65 -1 129 11t124 37.5t114 64.5t98 92q57 69 92 172.5t35 231.5q0 356 -389 356h-203l-160 -965h160z" />
    <glyph glyph-name="Dcroat.swash" horiz-adv-x="1404" 
d="M770 1425q292 0 455 -137q161 -137 161 -420q0 -209 -69 -376q-70 -168 -189 -273q-121 -106 -274 -162.5t-328 -56.5h-458l106 643h-102l34 209h103l94 573h467zM522 233q64 -1 128.5 11t124.5 37.5t114.5 64.5t97.5 92q57 69 92 172.5t35 231.5q0 356 -389 356h-203
l-57 -346h334l-35 -209h-334l-68 -410h160z" />
    <glyph glyph-name="E.swash" horiz-adv-x="1642" 
d="M1718 1196h-678l-57 -350h526l-34 -207h-527l-67 -410h680l-39 -229h-934l198 1217h-104q-212 0 -319 -82.5t-107 -233.5q0 -211 276 -211l-30 -186q-220 0 -341 110q-120 110 -120 285q0 106 35 195.5t112 166.5t218.5 120.5t336.5 43.5h1014z" />
    <glyph glyph-name="Eacute.swash" horiz-adv-x="1642" 
d="M1456 1999l-414 -424h-194l340 424h268zM1718 1196h-678l-57 -350h526l-34 -207h-527l-67 -410h680l-39 -229h-934l198 1217h-104q-212 0 -319 -82.5t-107 -233.5q0 -211 276 -211l-30 -186q-220 0 -341 110q-120 110 -120 285q0 106 35 195.5t112 166.5t218.5 120.5
t336.5 43.5h1014z" />
    <glyph glyph-name="Ecaron.swash" horiz-adv-x="1642" 
d="M1061 1577h-205l-174 453h172l133 -277l227 277h172zM1718 1196h-678l-57 -350h526l-34 -207h-527l-67 -410h680l-39 -229h-934l198 1217h-104q-212 0 -319 -82.5t-107 -233.5q0 -211 276 -211l-30 -186q-220 0 -341 110q-120 110 -120 285q0 106 35 195.5t112 166.5
t218.5 120.5t336.5 43.5h1014z" />
    <glyph glyph-name="Ecircumflex.swash" horiz-adv-x="1642" 
d="M1030 1845l-227 -276h-172l325 450h205l174 -450h-172zM1718 1196h-678l-57 -350h526l-34 -207h-527l-67 -410h680l-39 -229h-934l198 1217h-104q-212 0 -319 -82.5t-107 -233.5q0 -211 276 -211l-30 -186q-220 0 -341 110q-120 110 -120 285q0 106 35 195.5t112 166.5
t218.5 120.5t336.5 43.5h1014z" />
    <glyph glyph-name="Edieresis.swash" horiz-adv-x="1642" 
d="M758 1608q-59 0 -94 42q-35 43 -25 101q11 60 58 101q48 42 108 42q59 0 93 -42q35 -42 24 -101t-59 -101t-105 -42zM1169 1608q-59 0 -94 42t-24 101q11 60 58 101q48 42 108 42q62 0 96 -42q35 -43 25 -101q-11 -59 -59 -101q-49 -42 -110 -42zM1718 1196h-678
l-57 -350h526l-34 -207h-527l-67 -410h680l-39 -229h-934l198 1217h-104q-212 0 -319 -82.5t-107 -233.5q0 -211 276 -211l-30 -186q-220 0 -341 110q-120 110 -120 285q0 106 35 195.5t112 166.5t218.5 120.5t336.5 43.5h1014z" />
    <glyph glyph-name="Edotaccent.swash" horiz-adv-x="1642" 
d="M969 1608q-62 0 -96 43q-35 45 -25 102q7 61 58 105q49 43 110 43q62 0 96 -43q35 -45 25 -105q-7 -58 -58 -102q-50 -43 -110 -43zM1718 1196h-678l-57 -350h526l-34 -207h-527l-67 -410h680l-39 -229h-934l198 1217h-104q-212 0 -319 -82.5t-107 -233.5
q0 -211 276 -211l-30 -186q-220 0 -341 110q-120 110 -120 285q0 106 35 195.5t112 166.5t218.5 120.5t336.5 43.5h1014z" />
    <glyph glyph-name="Egrave.swash" horiz-adv-x="1642" 
d="M1042 1575h-172l-208 442h245zM1718 1196h-678l-57 -350h526l-34 -207h-527l-67 -410h680l-39 -229h-934l198 1217h-104q-212 0 -319 -82.5t-107 -233.5q0 -211 276 -211l-30 -186q-220 0 -341 110q-120 110 -120 285q0 106 35 195.5t112 166.5t218.5 120.5t336.5 43.5
h1014z" />
    <glyph glyph-name="Emacron.swash" horiz-adv-x="1642" 
d="M1368 1882l-33 -203h-708l35 203h706zM1718 1196h-678l-57 -350h526l-34 -207h-527l-67 -410h680l-39 -229h-934l198 1217h-104q-212 0 -319 -82.5t-107 -233.5q0 -211 276 -211l-30 -186q-220 0 -341 110q-120 110 -120 285q0 106 35 195.5t112 166.5t218.5 120.5
t336.5 43.5h1014z" />
    <glyph glyph-name="Eng.aalt" horiz-adv-x="1202" 
d="M948 1057h226l-177 -1043q-61 -373 -389 -372q-158 0 -280 75l80 189q71 -60 176 -62q145 0 184 146l-365 674l-110 -664h-230l175 1057h233l365 -676z" />
    <glyph glyph-name="Eogonek.swash" horiz-adv-x="1685" 
d="M1718 1196h-678l-57 -350h526l-34 -207h-527l-67 -410h680l-39 -229q-318 -163 -320 -340q0 -82 80 -82q79 0 168 53l12 -163q-139 -70 -280 -70q-103 0 -154 48t-51 130q0 255 346 424h-735l198 1217h-104q-212 0 -319 -82.5t-107 -233.5q0 -211 276 -211l-30 -186
q-220 0 -341 110q-120 110 -120 285q0 106 35 195.5t112 166.5t218.5 120.5t336.5 43.5h1014z" />
    <glyph glyph-name="Eth.swash" horiz-adv-x="1982" 
d="M1348 1425q292 0 455 -137q161 -137 161 -420q0 -209 -69 -376q-71 -169 -190 -273q-121 -106 -273.5 -162.5t-327.5 -56.5h-459l100 608h-194l35 209h194l66 400h-74q-240 0 -362.5 -94.5t-122.5 -268.5q0 -69 19.5 -122t55 -90t86 -56t113.5 -19l-29 -186
q-221 0 -341 130q-121 130 -121 341q0 115 38 211.5t122 181.5t238 132.5t366 47.5h514zM1100 233q65 -1 129 11t124 37.5t114 64.5t98 92q57 69 92 172.5t35 231.5q0 356 -389 356h-203l-64 -381h295l-35 -209h-295l-61 -375h160z" />
    <glyph glyph-name="F.c2sc" horiz-adv-x="954" 
d="M995 829h-544l-41 -247h409l-26 -205h-418l-62 -377h-250l175 1057h786z" />
    <glyph glyph-name="F.swash" horiz-adv-x="1603" 
d="M1702 1194h-655l-60 -358h504l-35 -213h-504l-102 -623h-256l201 1217h-93q-212 0 -319 -82.5t-107 -233.5q0 -211 277 -211l-27 -186q-222 0 -344 110q-121 109 -121 285q0 105 35.5 195t113.5 167t218 120.5t336 43.5h977z" />
    <glyph glyph-name="G.salt" horiz-adv-x="1394" 
d="M823 805h625l-18 -115q-57 -366 -257 -545q-199 -178 -511 -178q-233 0 -386 150q-153 149 -153 446q0 181 56.5 340t159.5 284q102 123 268 197q165 72 368 72q131 0 263 -44q66 -22 117 -51.5t89 -66.5l-174 -200q-133 123 -332 123q-254 0 -401 -185
q-148 -185 -148 -430q0 -186 87 -284q87 -99 231 -99q166 0 284 96q117 95 158 275h-363z" />
    <glyph glyph-name="G.swash" horiz-adv-x="1376" 
d="M1012 334l41 262h254l-78 -492q-100 -626 -705 -624q-159 0 -296 48q-136 48 -195 105l98 222q129 -140 401 -142q81 0 144 14.5t125 52.5t104.5 111.5t63.5 182.5q-151 -84 -361 -84q-258 0 -402 147q-145 145 -145 404q0 391 234 653q232 262 604 262q424 0 424 -387
q0 -119 -33 -244h-243q27 87 26 164q0 221 -229 221q-225 0 -369 -184q-145 -184 -145 -418q0 -183 87.5 -277.5t262.5 -94.5q184 0 332 98z" />
    <glyph glyph-name="Gbreve.salt" horiz-adv-x="1394" 
d="M942 1587q-184 0 -261 106.5t-30 313.5h191q-49 -258 125 -258q176 0 209 258h192q-25 -208 -134 -314t-292 -106zM823 805h625l-18 -115q-57 -366 -257 -545q-199 -178 -511 -178q-233 0 -386 150q-153 149 -153 446q0 181 56.5 340t159.5 284q102 123 268 197
q165 72 368 72q131 0 263 -44q66 -22 117 -51.5t89 -66.5l-174 -200q-133 123 -332 123q-254 0 -401 -185q-148 -185 -148 -430q0 -186 87 -284q87 -99 231 -99q166 0 284 96q117 95 158 275h-363z" />
    <glyph glyph-name="Gbreve.swash" horiz-adv-x="1376" 
d="M938 1587q-184 0 -261 106.5t-30 313.5h191q-51 -258 125 -258q177 0 208 258h193q-25 -208 -134 -314t-292 -106zM1290 825h-243q27 87 26 164q0 221 -229 221q-225 0 -369 -184q-145 -184 -145 -418q0 -183 87.5 -277.5t262.5 -94.5q183 0 332 98l41 262h254l-78 -492
q-100 -626 -705 -624q-159 0 -296 48q-136 48 -195 105l98 222q129 -140 401 -142q81 0 144 14.5t125 52.5t104.5 111.5t63.5 182.5q-151 -84 -361 -84q-258 0 -402 147q-145 145 -145 404q0 391 234 653q232 262 604 262q424 0 424 -387q0 -119 -33 -244z" />
    <glyph glyph-name="Gdotaccent.salt" horiz-adv-x="1394" 
d="M944 1608q-62 0 -96 43q-35 45 -25 102q7 61 59 105q49 43 109 43q62 0 96 -43q35 -45 25 -105q-7 -58 -58 -102q-50 -43 -110 -43zM823 805h625l-18 -115q-57 -366 -257 -545q-199 -178 -511 -178q-233 0 -386 150q-153 149 -153 446q0 181 56.5 340t159.5 284
q102 123 268 197q165 72 368 72q131 0 263 -44q66 -22 117 -51.5t89 -66.5l-174 -200q-133 123 -332 123q-254 0 -401 -185q-148 -185 -148 -430q0 -186 87 -284q87 -99 231 -99q166 0 284 96q117 95 158 275h-363z" />
    <glyph glyph-name="Gdotaccent.swash" horiz-adv-x="1376" 
d="M940 1608q-62 0 -96 43q-35 45 -25 102q7 61 59 105q49 43 109 43q62 0 96 -43q35 -45 25 -105q-7 -58 -58 -102q-50 -43 -110 -43zM1012 334l41 262h254l-78 -492q-100 -626 -705 -624q-159 0 -296 48q-136 48 -195 105l98 222q129 -140 401 -142q81 0 144 14.5
t125 52.5t104.5 111.5t63.5 182.5q-151 -84 -361 -84q-258 0 -402 147q-145 145 -145 404q0 391 234 653q232 262 604 262q424 0 424 -387q0 -119 -33 -244h-243q27 87 26 164q0 221 -229 221q-225 0 -369 -184q-145 -184 -145 -418q0 -183 87.5 -277.5t262.5 -94.5
q184 0 332 98z" />
    <glyph glyph-name="H.swash" horiz-adv-x="1939" 
d="M1692 1425h254l-236 -1425h-254l103 625h-605l-102 -625h-256l201 1217h-95q-212 0 -319 -82.5t-107 -233.5q0 -211 277 -211l-27 -186q-222 0 -344 110q-121 109 -121 285q0 105 35.5 195t113.5 167t218 120.5t336 43.5h323l-94 -567h604z" />
    <glyph glyph-name="Hbar.aalt" horiz-adv-x="1234" 
d="M1255 913l-32 -192h-78l-119 -721h-250l58 348h-461l-58 -348h-249l118 721h-75l30 192h76l25 144h249l-24 -144h461l24 144h250l-24 -144h79zM868 565l27 156h-461l-26 -156h460z" />
    <glyph glyph-name="I.c2sc" horiz-adv-x="522" 
d="M487 1057l-174 -1057h-250l175 1057h249z" />
    <glyph glyph-name="I.swash" horiz-adv-x="1038" 
d="M1042 1425l-233 -1425h-256l201 1217h-64q-212 0 -319 -82.5t-107 -233.5q0 -211 277 -211l-27 -186q-222 0 -344 110q-121 109 -121 285q0 105 36 195t113 167t217.5 120.5t336.5 43.5h290z" />
    <glyph glyph-name="Iacute.swash" horiz-adv-x="1038" 
d="M1440 1999l-414 -424h-195l340 424h269zM1042 1425l-233 -1425h-256l201 1217h-64q-212 0 -319 -82.5t-107 -233.5q0 -211 277 -211l-27 -186q-222 0 -344 110q-121 109 -121 285q0 105 36 195t113 167t217.5 120.5t336.5 43.5h290z" />
    <glyph glyph-name="Icircumflex.swash" horiz-adv-x="1038" 
d="M1145 2019l174 -450h-172l-133 276l-228 -276h-172l326 450h205zM1042 1425l-233 -1425h-256l201 1217h-64q-212 0 -319 -82.5t-107 -233.5q0 -211 277 -211l-27 -186q-222 0 -344 110q-121 109 -121 285q0 105 36 195t113 167t217.5 120.5t336.5 43.5h290z" />
    <glyph glyph-name="Idieresis.swash" horiz-adv-x="1038" 
d="M741 1608q-59 0 -94 42t-24 101q11 60 58 101q48 42 108 42q59 0 93 -42q33 -43 23 -101q-11 -60 -58 -101q-49 -42 -106 -42zM1200 1894q62 0 96 -42q35 -43 25 -101q-11 -60 -58 -101q-49 -42 -110 -42q-59 0 -94 42q-35 43 -25 101q11 60 59 101q48 42 107 42z
M1042 1425l-233 -1425h-256l201 1217h-64q-212 0 -319 -82.5t-107 -233.5q0 -211 277 -211l-27 -186q-222 0 -344 110q-121 109 -121 285q0 105 36 195t113 167t217.5 120.5t336.5 43.5h290z" />
    <glyph glyph-name="Idotaccent.c2sc" horiz-adv-x="522" 
d="M279 1391q7 61 59 105t113 44q60 0 98 -44q38 -43 27 -105t-61 -106t-113 -44t-98 45t-25 105zM487 1057l-174 -1057h-250l175 1057h249z" />
    <glyph glyph-name="Idotaccent.swash" horiz-adv-x="1038" 
d="M999 1901q62 0 96 -43q35 -45 25 -105q-7 -58 -58 -102q-49 -43 -110 -43q-62 0 -96 43q-35 45 -25 102q7 61 59 105q49 43 109 43zM1042 1425l-233 -1425h-256l201 1217h-64q-212 0 -319 -82.5t-107 -233.5q0 -211 277 -211l-27 -186q-222 0 -344 110q-121 109 -121 285
q0 105 36 195t113 167t217.5 120.5t336.5 43.5h290z" />
    <glyph glyph-name="Igrave.swash" horiz-adv-x="1038" 
d="M1026 1575h-172l-209 442h246zM1042 1425l-233 -1425h-256l201 1217h-64q-212 0 -319 -82.5t-107 -233.5q0 -211 277 -211l-27 -186q-222 0 -344 110q-121 109 -121 285q0 105 36 195t113 167t217.5 120.5t336.5 43.5h290z" />
    <glyph glyph-name="Imacron.swash" horiz-adv-x="1038" 
d="M645 1882h707l-33 -203h-709zM1042 1425l-233 -1425h-256l201 1217h-64q-212 0 -319 -82.5t-107 -233.5q0 -211 277 -211l-27 -186q-222 0 -344 110q-121 109 -121 285q0 105 36 195t113 167t217.5 120.5t336.5 43.5h290z" />
    <glyph glyph-name="Iogonek.swash" horiz-adv-x="1038" 
d="M809 0q-318 -163 -320 -340q0 -82 80 -82q79 0 168 53l13 -163q-139 -70 -281 -70q-103 0 -154 48t-51 130q0 255 346 424h-57l201 1217h-64q-212 0 -319 -82.5t-107 -233.5q0 -211 277 -211l-27 -186q-222 0 -344 110q-121 109 -121 285q0 105 36 195t113 167
t217.5 120.5t336.5 43.5h290z" />
    <glyph glyph-name="J.c2sc" horiz-adv-x="825" 
d="M258 -29q-168 0 -299 84l82 224q83 -78 195 -78q174 0 208 205l115 651h248l-115 -692q-34 -212 -145 -303q-110 -91 -289 -91z" />
    <glyph glyph-name="J.swash" horiz-adv-x="1177" 
d="M1208 1425l-180 -1149q-31 -198 -96 -334.5t-158 -207.5q-46 -35 -92 -59.5t-95 -39.5t-101 -21.5t-111 -6.5q-201 0 -332 108q-131 110 -131 320q0 274 192 440q189 166 510 158l-32 -217q-198 8 -314 -92q-118 -100 -118 -265q0 -112 62.5 -173.5t180.5 -61.5
q308 0 379 452l148 926h-433l35 223h686z" />
    <glyph glyph-name="K.swash" horiz-adv-x="1781" 
d="M1896 1425l-522 -528l281 -897h-297l-205 674l-229 -234l-74 -440h-256l201 1217h-84q-212 0 -319 -82.5t-107 -233.5q0 -211 276 -211l-29 -186q-220 0 -341 110q-121 109 -121 285q0 105 35 195t113 167t218.5 120.5t335.5 43.5h313l-104 -630l614 630h301z" />
    <glyph glyph-name="L.swash" horiz-adv-x="1521" 
d="M895 231h567l-39 -231h-823l203 1217h-123q-212 0 -319 -82.5t-107 -233.5q0 -211 276 -211l-32 -186q-218 0 -339 110q-120 110 -120 285q0 105 36 195t113 167t217.5 120.5t335.5 43.5h353z" />
    <glyph glyph-name="Lacute.swash" horiz-adv-x="1521" 
d="M1493 1999l-414 -424h-194l340 424h268zM1094 1425l-199 -1194h567l-39 -231h-823l203 1217h-123q-212 0 -319 -82.5t-107 -233.5q0 -211 276 -211l-32 -186q-218 0 -339 110q-120 110 -120 285q0 105 36 195t113 167t217.5 120.5t335.5 43.5h353z" />
    <glyph glyph-name="Lcaron.swash" horiz-adv-x="1521" 
d="M1098 1577h-205l-174 453h172l133 -277l227 277h172zM895 231h567l-39 -231h-823l203 1217h-123q-212 0 -319 -82.5t-107 -233.5q0 -211 276 -211l-32 -186q-218 0 -339 110q-120 110 -120 285q0 105 36 195t113 167t217.5 120.5t335.5 43.5h353z" />
    <glyph glyph-name="Lslash.swash" horiz-adv-x="1585" 
d="M958 231h568l-39 -231h-823l102 608l-117 -43l-61 197l217 82l61 373h-123q-225 0 -340.5 -96.5t-115.5 -272.5q0 -128 70 -194t206 -66l-31 -185q-221 0 -340 123q-120 123 -120 320q-1 67 11.5 131t40 123t72 111t107.5 95q82 54 209.5 86.5t292.5 32.5h352l-80 -477
l320 121l73 -195l-432 -161z" />
    <glyph glyph-name="M.swash" horiz-adv-x="2240" 
d="M1935 1425h301l-223 -1425h-248l162 975l-500 -883h-188l-217 916l-162 -1008h-231l198 1217h-116q-212 0 -319 -82.5t-107 -233.5q0 -211 276 -211l-33 -186q-220 2 -338 111q-120 108 -120 284q0 105 35 195t113 167t218.5 120.5t335.5 43.5h391l236 -954z" />
    <glyph glyph-name="N.swash" horiz-adv-x="1906" 
d="M1683 1425h232l-238 -1425h-241l-443 985l-162 -985h-235l201 1217h-86q-212 0 -319 -82.5t-107 -233.5q0 -211 276 -211l-33 -186q-220 2 -338 111q-120 108 -120 284q0 105 35 195t113 167t218.5 120.5t335.5 43.5h299l447 -999z" />
    <glyph glyph-name="Nacute.swash" horiz-adv-x="1906" 
d="M1894 1999l-413 -424h-195l340 424h268zM1683 1425h232l-238 -1425h-241l-443 985l-162 -985h-235l201 1217h-86q-212 0 -319 -82.5t-107 -233.5q0 -211 276 -211l-33 -186q-220 2 -338 111q-120 108 -120 284q0 105 35 195t113 167t218.5 120.5t335.5 43.5h299l447 -999
z" />
    <glyph glyph-name="Ncaron.swash" horiz-adv-x="1906" 
d="M1499 1577h-205l-174 453h172l133 -277l228 277h172zM1683 1425h232l-238 -1425h-241l-443 985l-162 -985h-235l201 1217h-86q-212 0 -319 -82.5t-107 -233.5q0 -211 276 -211l-33 -186q-220 2 -338 111q-120 108 -120 284q0 105 35 195t113 167t218.5 120.5t335.5 43.5
h299l447 -999z" />
    <glyph glyph-name="Ntilde.swash" horiz-adv-x="1906" 
d="M1298 1761q-75 0 -110 -215h-178q50 410 262 410q46 0 90 -35q22 -17 39.5 -36.5t31.5 -39.5q28 -42 61 -75q35 -35 65 -35q78 0 112 217h180q-51 -412 -270 -412q-58 0 -111 56q-26 28 -50 55t-45 55q-42 55 -77 55zM1683 1425h232l-238 -1425h-241l-443 985l-162 -985
h-235l201 1217h-86q-212 0 -319 -82.5t-107 -233.5q0 -211 276 -211l-33 -186q-220 2 -338 111q-120 108 -120 284q0 105 35 195t113 167t218.5 120.5t335.5 43.5h299l447 -999z" />
    <glyph glyph-name="O.swash" horiz-adv-x="1536" 
d="M1348 1114q154 -109 153 -364q0 -341 -227 -562t-576 -221q-285 0 -450 159q-166 159 -166 433q0 385 228 641q226 256 597 256q88 0 155.5 -22t113 -62.5t69 -98.5t23.5 -130q0 -25 -3 -50t-8 -51zM725 215q224 0 372 141q148 139 148 351q0 115 -53 186
q-77 -110 -219 -172q-144 -62 -311 -62l36 191q131 0 228 64q96 63 96 171q0 66 -42 102t-114 36q-224 0 -366 -181q-144 -181 -144 -430q0 -187 100 -291q99 -106 269 -106z" />
    <glyph glyph-name="OE.aalt" horiz-adv-x="1802" 
d="M1792 842h-559l-35 -205h432l-28 -180h-435l-39 -236h551l-30 -221h-807l2 16q-130 -45 -305 -45q-197 0 -333 118q-136 119 -138 357q-1 274 184 457q187 182 475 182q174 -4 285 -57l4 29h807zM604 203q173 0 285 84l80 481q-88 82 -248 82q-167 0 -276 -109
q-111 -109 -109 -270q2 -133 74.5 -200.5t193.5 -67.5z" />
    <glyph glyph-name="Oacute.swash" horiz-adv-x="1536" 
d="M1446 1999l-414 -424h-194l340 424h268zM1348 1114q154 -109 153 -364q0 -341 -227 -562t-576 -221q-285 0 -450 159q-166 159 -166 433q0 385 228 641q226 256 597 256q88 0 155.5 -22t113 -62.5t69 -98.5t23.5 -130q0 -25 -3 -50t-8 -51zM725 215q224 0 372 141
q148 139 148 351q0 115 -53 186q-77 -110 -219 -172q-144 -62 -311 -62l36 191q131 0 228 64q96 63 96 171q0 66 -42 102t-114 36q-224 0 -366 -181q-144 -181 -144 -430q0 -187 100 -291q99 -106 269 -106z" />
    <glyph glyph-name="Ocircumflex.swash" horiz-adv-x="1536" 
d="M1020 1845l-227 -276h-172l325 450h205l174 -450h-172zM1348 1114q154 -109 153 -364q0 -341 -227 -562t-576 -221q-285 0 -450 159q-166 159 -166 433q0 385 228 641q226 256 597 256q88 0 155.5 -22t113 -62.5t69 -98.5t23.5 -130q0 -25 -3 -50t-8 -51zM725 215
q224 0 372 141q148 139 148 351q0 115 -53 186q-77 -110 -219 -172q-144 -62 -311 -62l36 191q131 0 228 64q96 63 96 171q0 66 -42 102t-114 36q-224 0 -366 -181q-144 -181 -144 -430q0 -187 100 -291q99 -106 269 -106z" />
    <glyph glyph-name="Odieresis.swash" horiz-adv-x="1536" 
d="M748 1608q-59 0 -94 42q-36 42 -25 101q11 60 58 101q48 42 108 42q59 0 93 -42q35 -42 24 -101t-59 -101t-105 -42zM1159 1608q-59 0 -94 42t-24 101q11 60 58 101q48 42 107 42q62 0 96 -42q35 -43 25 -101q-11 -60 -58 -101q-49 -42 -110 -42zM1348 1114
q154 -109 153 -364q0 -341 -227 -562t-576 -221q-285 0 -450 159q-166 159 -166 433q0 385 228 641q226 256 597 256q88 0 155.5 -22t113 -62.5t69 -98.5t23.5 -130q0 -25 -3 -50t-8 -51zM725 215q224 0 372 141q148 139 148 351q0 115 -53 186q-77 -110 -219 -172
q-144 -62 -311 -62l36 191q131 0 228 64q96 63 96 171q0 66 -42 102t-114 36q-224 0 -366 -181q-144 -181 -144 -430q0 -187 100 -291q99 -106 269 -106z" />
    <glyph glyph-name="Ograve.swash" horiz-adv-x="1536" 
d="M1032 1575h-172l-209 442h246zM1348 1114q154 -109 153 -364q0 -341 -227 -562t-576 -221q-285 0 -450 159q-166 159 -166 433q0 385 228 641q226 256 597 256q88 0 155.5 -22t113 -62.5t69 -98.5t23.5 -130q0 -25 -3 -50t-8 -51zM725 215q224 0 372 141q148 139 148 351
q0 115 -53 186q-77 -110 -219 -172q-144 -62 -311 -62l36 191q131 0 228 64q96 63 96 171q0 66 -42 102t-114 36q-224 0 -366 -181q-144 -181 -144 -430q0 -187 100 -291q99 -106 269 -106z" />
    <glyph glyph-name="Ohungarumlaut.swash" horiz-adv-x="1536" 
d="M1137 2015l-283 -440h-152l195 440h240zM1167 1575h-170l334 440h246zM1348 1114q154 -109 153 -364q0 -341 -227 -562t-576 -221q-285 0 -450 159q-166 159 -166 433q0 385 228 641q226 256 597 256q88 0 155.5 -22t113 -62.5t69 -98.5t23.5 -130q0 -25 -3 -50t-8 -51z
M725 215q224 0 372 141q148 139 148 351q0 115 -53 186q-77 -110 -219 -172q-144 -62 -311 -62l36 191q131 0 228 64q96 63 96 171q0 66 -42 102t-114 36q-224 0 -366 -181q-144 -181 -144 -430q0 -187 100 -291q99 -106 269 -106z" />
    <glyph glyph-name="Omacron.swash" horiz-adv-x="1536" 
d="M1358 1882l-33 -203h-709l35 203h707zM1348 1114q154 -109 153 -364q0 -341 -227 -562t-576 -221q-285 0 -450 159q-166 159 -166 433q0 385 228 641q226 256 597 256q88 0 155.5 -22t113 -62.5t69 -98.5t23.5 -130q0 -25 -3 -50t-8 -51zM725 215q224 0 372 141
q148 139 148 351q0 115 -53 186q-77 -110 -219 -172q-144 -62 -311 -62l36 191q131 0 228 64q96 63 96 171q0 66 -42 102t-114 36q-224 0 -366 -181q-144 -181 -144 -430q0 -187 100 -291q99 -106 269 -106z" />
    <glyph glyph-name="Otilde.swash" horiz-adv-x="1536" 
d="M850 1761q-76 0 -111 -215h-178q50 410 262 410q46 0 90 -35q22 -17 39.5 -36.5t31.5 -39.5t29.5 -39t32.5 -36q33 -35 64 -35q79 0 113 217h180q-51 -412 -270 -412q-58 0 -111 56q-26 28 -50 55t-45 55q-42 55 -77 55zM1348 1114q154 -109 153 -364q0 -341 -227 -562
t-576 -221q-285 0 -450 159q-166 159 -166 433q0 385 228 641q226 256 597 256q88 0 155.5 -22t113 -62.5t69 -98.5t23.5 -130q0 -25 -3 -50t-8 -51zM725 215q224 0 372 141q148 139 148 351q0 115 -53 186q-77 -110 -219 -172q-144 -62 -311 -62l36 191q131 0 228 64
q96 63 96 171q0 66 -42 102t-114 36q-224 0 -366 -181q-144 -181 -144 -430q0 -187 100 -291q99 -106 269 -106z" />
    <glyph glyph-name="P.swash" horiz-adv-x="1763" 
d="M1403 1425q201 0 308.5 -99t107.5 -296q0 -254 -160 -404q-160 -151 -445 -151h-274l-78 -475h-256l201 1202h-111q-197 0 -294 -76.5t-97 -218.5q0 -209 268 -209l-6 -211q-248 2 -367 122q-120 120 -120 302q0 105 31.5 192t100.5 163q69 75 193 117t297 42h701z
M1219 700q159 0 245 83q84 83 84 218q0 97 -56.5 146t-162.5 49h-268l-82 -496h240z" />
    <glyph glyph-name="Q.salt" horiz-adv-x="1533" 
d="M1526 850q0 -204 -80 -387q-80 -182 -227 -305l153 -248l-221 -143l-160 258q-149 -56 -323 -58q-246 0 -414 153q-168 152 -168 458q0 368 239 624q239 255 611 256q229 0 401 -138q87 -69 138 -190t51 -280zM358 614q0 -202 97 -300q96 -99 252 -99q239 0 393 186
q155 185 155 422q0 189 -101 290q-100 99 -259 99q-228 0 -382 -178q-155 -179 -155 -420z" />
    <glyph glyph-name="Q.swash" horiz-adv-x="1536" 
d="M768 -31q16 -7 38 -18.5t51 -28.5t52.5 -29.5t40.5 -20.5q18 -9 41 -17.5t48.5 -15t53 -11t52.5 -4.5q118 0 231 61l-18 -225q-112 -51 -246 -51q-115 0 -234 54q-60 27 -116 54t-110 53q-106 54 -191 54q-149 0 -330 -92l16 223q123 57 248 72q-151 69 -232 205t-81 327
q0 385 228 641q226 256 597 256q88 0 155.5 -22t113 -62.5t69 -98.5t23.5 -130q0 -25 -3 -50t-8 -51l91 72q154 -109 153 -364q0 -323 -204 -541q-206 -218 -529 -240zM866 1223q-224 0 -366 -181q-144 -181 -144 -430q0 -187 100 -291q99 -106 269 -106q224 0 372 141
q148 139 148 351q0 115 -53 186q-77 -110 -219 -172q-144 -62 -311 -62l36 191q131 0 228 64q96 63 96 171q0 66 -42 102t-114 36z" />
    <glyph glyph-name="R.swash" horiz-adv-x="1777" 
d="M1782 1077q0 -178 -102 -304q-104 -126 -275 -177l250 -596h-301l-213 569h-226l-94 -569h-256l201 1202h-100q-400 0 -402 -297q0 -207 268 -207l-6 -211q-248 0 -367 120q-120 120 -120 302q0 105 31.5 193t101.5 164q70 75 196.5 117t303.5 42h708q402 0 402 -348z
M1020 1196l-70 -422h252q141 0 223 69q82 67 82 185q0 85 -52.5 126.5t-143.5 41.5h-291z" />
    <glyph glyph-name="Racute.swash" horiz-adv-x="1777" 
d="M1839 1999l-414 -424h-194l340 424h268zM1782 1077q0 -178 -102 -304q-104 -126 -275 -177l250 -596h-301l-213 569h-226l-94 -569h-256l201 1202h-100q-400 0 -402 -297q0 -207 268 -207l-6 -211q-248 0 -367 120q-120 120 -120 302q0 105 31.5 193t101.5 164
q70 75 196.5 117t303.5 42h708q402 0 402 -348zM1202 774q141 0 223 69q82 67 82 185q0 85 -52.5 126.5t-143.5 41.5h-291l-70 -422h252z" />
    <glyph glyph-name="Rcaron.swash" horiz-adv-x="1777" 
d="M1444 1577h-205l-174 453h172l133 -277l227 277h172zM1782 1077q0 -178 -102 -304q-104 -126 -275 -177l250 -596h-301l-213 569h-226l-94 -569h-256l201 1202h-100q-400 0 -402 -297q0 -207 268 -207l-6 -211q-248 0 -367 120q-120 120 -120 302q0 105 31.5 193
t101.5 164q70 75 196.5 117t303.5 42h708q402 0 402 -348zM1020 1196l-70 -422h252q141 0 223 69q82 67 82 185q0 85 -52.5 126.5t-143.5 41.5h-291z" />
    <glyph glyph-name="S.swash" horiz-adv-x="1097" 
d="M440 -309q-112 0 -200.5 27.5t-149.5 82t-93 137t-32 193.5q0 25 2.5 55t7.5 66l242 41q-5 -34 -7.5 -60.5t-2.5 -46.5q0 -134 68 -198t194 -64q132 0 208 63q77 65 77 175q0 88 -54 152q-28 32 -67.5 67t-93.5 74q-167 118 -253 231q-85 110 -85 264q0 222 152 365
q152 141 392 141q162 0 264 -78q101 -78 101 -245q0 -95 -37 -218l-229 3q11 35 17 69t5 68q0 168 -164 168q-105 0 -173 -69q-68 -70 -68 -169q0 -83 56 -147q28 -32 75.5 -71t114.5 -85q151 -103 231 -208q80 -107 80 -275q0 -242 -160 -375t-418 -133z" />
    <glyph glyph-name="Sacute.swash" horiz-adv-x="1097" 
d="M1251 1999l-413 -424h-195l340 424h268zM440 -309q-112 0 -200.5 27.5t-149.5 82t-93 137t-32 193.5q0 25 2.5 55t7.5 66l242 41q-5 -34 -7.5 -60.5t-2.5 -46.5q0 -134 68 -198t194 -64q132 0 208 63q77 65 77 175q0 88 -54 152q-28 32 -67.5 67t-93.5 74
q-167 118 -253 231q-85 110 -85 264q0 222 152 365q152 141 392 141q162 0 264 -78q101 -78 101 -245q0 -95 -37 -218l-229 3q11 35 17 69t5 68q0 168 -164 168q-105 0 -173 -69q-68 -70 -68 -169q0 -83 56 -147q28 -32 75.5 -71t114.5 -85q151 -103 231 -208
q80 -107 80 -275q0 -242 -160 -375t-418 -133z" />
    <glyph glyph-name="Scaron.swash" horiz-adv-x="1097" 
d="M856 1577h-205l-174 453h172l133 -277l228 277h172zM745 1456q162 0 264 -78q101 -78 101 -245q0 -95 -37 -218l-229 3q11 35 17 69t5 68q0 168 -164 168q-105 0 -173 -69q-68 -70 -68 -169q0 -83 56 -147q28 -32 75.5 -71t114.5 -85q151 -103 231 -208q80 -107 80 -275
q0 -242 -160 -375t-418 -133q-112 0 -200.5 27.5t-149.5 82t-93 137t-32 193.5q0 25 2.5 55t7.5 66l242 41q-5 -34 -7.5 -60.5t-2.5 -46.5q0 -134 68 -198t194 -64q132 0 208 63q77 65 77 175q0 88 -54 152q-28 32 -67.5 67t-93.5 74q-167 118 -253 231q-85 110 -85 264
q0 223 151 365q152 141 393 141z" />
    <glyph glyph-name="Scedilla.c2sc" horiz-adv-x="948" 
d="M545 633q70 -20 109 -39q20 -10 43.5 -23.5t51.5 -30.5q109 -73 109 -221q2 -151 -92 -236q-94 -86 -256 -106l-94 -149q56 18 102 18q172 0 172 -172q0 -129 -93 -202q-93 -72 -230 -72q-154 0 -258 63l69 131q86 -53 184 -53q66 0 108 34t42 91q0 66 -72 66
q-61 0 -104 -43l-115 43l133 241q-204 13 -344 117l84 215q123 -123 330 -123q39 0 71 9.5t55 26.5t35.5 41t12.5 52q0 24 -9.5 42t-29.5 33t-51.5 27.5t-75.5 26.5q-300 90 -301 324q0 144 110 233q109 88 322 88q211 0 381 -86l-123 -204q-123 80 -268 79
q-75 0 -119.5 -29.5t-42.5 -78.5q0 -51 35 -77q35 -28 119 -56z" />
    <glyph glyph-name="Scedilla.swash" horiz-adv-x="1097" 
d="M1073 915l-229 3q26 77 24 141q0 166 -166 166q-106 0 -173 -64q-68 -65 -68 -162q0 -83 56 -150q28 -34 73 -70.5t108 -78.5q139 -84 220 -179q79 -92 79 -232q0 -176 -128 -262t-314 -86h-20l-58 -97q54 25 117 25q76 0 121 -42.5t45 -127.5q0 -138 -92 -209
q-92 -70 -242 -70q-162 0 -244 70l70 135q10 -12 28 -23t41.5 -20t51 -14.5t57.5 -5.5q156 0 156 112q0 72 -72 72q-67 0 -119 -47l-110 43l114 213q-240 44 -397 233l115 234q42 -57 92.5 -103t107 -78.5t118.5 -49.5t126 -17q81 0 126.5 32t45.5 95q0 62 -45 105
q-23 22 -60 48t-89 58q-166 96 -252 209t-86 264q0 201 153 336q152 135 391 135q160 0 263 -79q102 -79 102 -249q0 -92 -37 -213z" />
    <glyph glyph-name="T.swash" horiz-adv-x="1470" 
d="M1599 1425l-32 -225h-404l-188 -1200h-256l188 1200h-239q-209 0 -314.5 -81t-105.5 -226q0 -203 274 -203l-28 -186q-218 0 -340 108q-121 106 -121 273q0 112 34 203.5t112 170.5q78 78 218.5 122t335.5 44h866z" />
    <glyph glyph-name="Tbar.aalt" horiz-adv-x="1470" 
d="M1567 1200h-404l-78 -504h244l-35 -209h-243l-76 -487h-256l76 487h-246l35 209h245l78 504h-239q-209 0 -314.5 -81t-105.5 -226q0 -203 274 -203l-28 -186q-218 0 -340 108q-121 106 -121 273q0 112 34 203.5t112 170.5q78 78 218.5 122t335.5 44h866z" />
    <glyph glyph-name="Tcaron.swash" horiz-adv-x="1470" 
d="M1196 1577h-205l-174 453h172l133 -277l228 277h172zM1599 1425l-32 -225h-404l-188 -1200h-256l188 1200h-239q-209 0 -314.5 -81t-105.5 -226q0 -203 274 -203l-28 -186q-218 0 -340 108q-121 106 -121 273q0 112 34 203.5t112 170.5q78 78 218.5 122t335.5 44h866z
" />
    <glyph glyph-name="Thorn.aalt" horiz-adv-x="1075" 
d="M678 903q368 0 366 -297q0 -181 -130 -290q-130 -111 -375 -111h-193l-35 -205h-250l177 1057h251l-26 -154h215zM565 420q53 0 93 12t67 33t41 49t14 61q0 109 -145 109h-209l-43 -264h182z" />
    <glyph glyph-name="U.swash" horiz-adv-x="1914" 
d="M1688 1425h254l-140 -831q-102 -627 -649 -627q-272 0 -386 179q-113 178 -67 458l101 613h-115q-200 0 -301.5 -70.5t-101.5 -206.5q0 -106 71 -167.5t203 -61.5l-31 -187q-219 0 -339 117q-121 117 -121 297q0 99 34.5 181.5t109.5 154.5t211.5 111.5t326.5 39.5h342
l-140 -845q-27 -166 28 -269q54 -104 204 -104q146 0 240 96.5t124 276.5z" />
    <glyph glyph-name="Uacute.swash" horiz-adv-x="1914" 
d="M1894 1999l-413 -424h-195l340 424h268zM1688 1425h254l-140 -831q-102 -627 -649 -627q-272 0 -386 179q-113 178 -67 458l101 613h-115q-200 0 -301.5 -70.5t-101.5 -206.5q0 -106 71 -167.5t203 -61.5l-31 -187q-219 0 -339 117q-121 117 -121 297q0 99 34.5 181.5
t109.5 154.5t211.5 111.5t326.5 39.5h342l-140 -845q-27 -166 28 -269q54 -104 204 -104q146 0 240 96.5t124 276.5z" />
    <glyph glyph-name="Ucircumflex.swash" horiz-adv-x="1914" 
d="M1468 1845l-227 -276h-172l326 450h204l175 -450h-172zM1688 1425h254l-140 -831q-102 -627 -649 -627q-272 0 -386 179q-113 178 -67 458l101 613h-115q-200 0 -301.5 -70.5t-101.5 -206.5q0 -106 71 -167.5t203 -61.5l-31 -187q-219 0 -339 117q-121 117 -121 297
q0 99 34.5 181.5t109.5 154.5t211.5 111.5t326.5 39.5h342l-140 -845q-27 -166 28 -269q54 -104 204 -104q146 0 240 96.5t124 276.5z" />
    <glyph glyph-name="Udieresis.swash" horiz-adv-x="1914" 
d="M1196 1608q-59 0 -94 42q-35 43 -25 101q11 60 59 101q48 42 108 42q59 0 93 -42q33 -43 23 -101q-11 -60 -58 -101q-49 -42 -106 -42zM1608 1608q-59 0 -94 42q-35 43 -25 101q11 60 58 101q48 42 108 42q62 0 96 -42q35 -43 25 -101q-11 -59 -59 -101t-109 -42z
M1688 1425h254l-140 -831q-102 -627 -649 -627q-272 0 -386 179q-113 178 -67 458l101 613h-115q-200 0 -301.5 -70.5t-101.5 -206.5q0 -106 71 -167.5t203 -61.5l-31 -187q-219 0 -339 117q-121 117 -121 297q0 99 34.5 181.5t109.5 154.5t211.5 111.5t326.5 39.5h342
l-140 -845q-27 -166 28 -269q54 -104 204 -104q146 0 240 96.5t124 276.5z" />
    <glyph glyph-name="Ugrave.swash" horiz-adv-x="1914" 
d="M1481 1575h-172l-209 442h246zM1688 1425h254l-140 -831q-102 -627 -649 -627q-272 0 -386 179q-113 178 -67 458l101 613h-115q-200 0 -301.5 -70.5t-101.5 -206.5q0 -106 71 -167.5t203 -61.5l-31 -187q-219 0 -339 117q-121 117 -121 297q0 99 34.5 181.5t109.5 154.5
t211.5 111.5t326.5 39.5h342l-140 -845q-27 -166 28 -269q54 -104 204 -104q146 0 240 96.5t124 276.5z" />
    <glyph glyph-name="Uhungarumlaut.swash" horiz-adv-x="1914" 
d="M1585 2015l-282 -440h-152l195 440h239zM1616 1575h-170l334 440h245zM1546 580l142 845h254l-140 -831q-102 -627 -649 -627q-272 0 -386 179q-113 178 -67 458l101 613h-115q-200 0 -301.5 -70.5t-101.5 -206.5q0 -106 71 -167.5t203 -61.5l-31 -187q-219 0 -339 117
q-121 117 -121 297q0 99 34.5 181.5t109.5 154.5t211.5 111.5t326.5 39.5h342l-140 -845q-27 -166 28 -269q54 -104 204 -104q146 0 239.5 97t124.5 276z" />
    <glyph glyph-name="Umacron.swash" horiz-adv-x="1914" 
d="M1806 1882l-32 -203h-709l35 203h706zM1688 1425h254l-140 -831q-102 -627 -649 -627q-272 0 -386 179q-113 178 -67 458l101 613h-115q-200 0 -301.5 -70.5t-101.5 -206.5q0 -106 71 -167.5t203 -61.5l-31 -187q-219 0 -339 117q-121 117 -121 297q0 99 34.5 181.5
t109.5 154.5t211.5 111.5t326.5 39.5h342l-140 -845q-27 -166 28 -269q54 -104 204 -104q146 0 240 96.5t124 276.5z" />
    <glyph glyph-name="Uogonek.swash" horiz-adv-x="1914" 
d="M1688 1425h254l-140 -831q-78 -471 -409 -588q-312 -163 -314 -338q0 -82 80 -82t168 54l12 -164q-139 -70 -280 -70q-103 0 -154 48t-51 130q0 221 270 383q-256 10 -362 187q-107 176 -62 450l101 613h-115q-200 0 -301.5 -70.5t-101.5 -206.5q0 -106 71 -167.5
t203 -61.5l-31 -187q-219 0 -339 117q-121 117 -121 297q0 99 34.5 181.5t109.5 154.5t211.5 111.5t326.5 39.5h342l-140 -845q-27 -166 28 -269q54 -104 204 -104q146 0 240 96.5t124 276.5z" />
    <glyph glyph-name="Uring.swash" horiz-adv-x="1914" 
d="M1397 1561q-122 0 -180 70q-60 69 -41 184t103 187q83 69 204 69q122 0 180 -72q59 -72 41 -184t-101 -183t-206 -71zM1323 1815q-10 -55 16.5 -88t80.5 -33t91 31.5t46 89.5q8 57 -17.5 90.5t-79.5 33.5t-91.5 -33.5t-45.5 -90.5zM1688 1425h254l-140 -831
q-102 -627 -649 -627q-272 0 -386 179q-113 178 -67 458l101 613h-115q-200 0 -301.5 -70.5t-101.5 -206.5q0 -106 71 -167.5t203 -61.5l-31 -187q-219 0 -339 117q-121 117 -121 297q0 99 34.5 181.5t109.5 154.5t211.5 111.5t326.5 39.5h342l-140 -845q-27 -166 28 -269
q54 -104 204 -104q146 0 240 96.5t124 276.5z" />
    <glyph glyph-name="V.swash" horiz-adv-x="1808" 
d="M1714 1425h266l-727 -1425h-299l-182 1217h-123q-200 0 -302.5 -70.5t-102.5 -206.5q0 -106 71 -167.5t205 -61.5l-33 -187q-217 0 -337 117q-121 117 -121 297q0 99 34.5 181.5t109.5 154.5t211.5 111.5t326.5 39.5h305l125 -931q12 -151 12 -238q17 39 44.5 102.5
t66.5 151.5z" />
    <glyph glyph-name="W.c2sc" horiz-adv-x="1683" 
d="M1462 1057h258l-450 -1057h-303l-64 492q-3 38 -5.5 96.5t-4.5 138.5q-23 -66 -47 -124t-47 -109l-250 -494h-297l-74 1057h268l27 -563q-2 -60 -5.5 -114t-8.5 -104l37.5 97.5t33.5 83.5l297 596h250l76 -566q8 -62 12 -190l56 170z" />
    <glyph glyph-name="W.salt" horiz-adv-x="1978" 
d="M1896 1415l261 -2l-715 -1419l-264 4l-134 577l-348 -573l-266 6l-186 1428l274 -2l117 -1133l340 571l-129 558l260 -5l55 -239l142 237l253 -4l-325 -536l131 -582z" />
    <glyph glyph-name="W.swash" horiz-adv-x="2457" 
d="M2345 1425h262l-567 -1425h-297l-78 752q-3 32 -6.5 108t-7.5 199q-73 -209 -111 -293l-358 -766h-297l-54 1217h-98q-200 0 -301.5 -70.5t-101.5 -206.5q0 -106 71 -167.5t203 -61.5l-33 -187q-217 0 -337 117q-121 117 -121 297q0 99 34.5 181.5t109.5 154.5
t211.5 111.5t326.5 39.5h301l8 -929q-2 -29 -4 -77t-4 -114q17 48 36 94t39 93l420 923h252l94 -893q8 -118 9 -213q26 75 42 124.5t23 72.5z" />
    <glyph glyph-name="Wacute.swash" horiz-adv-x="2457" 
d="M2236 1999l-413 -424h-195l340 424h268zM2345 1425h262l-567 -1425h-297l-78 752q-3 32 -6.5 108t-7.5 199q-73 -209 -111 -293l-358 -766h-297l-54 1217h-98q-200 0 -301.5 -70.5t-101.5 -206.5q0 -106 71 -167.5t203 -61.5l-33 -187q-217 0 -337 117q-121 117 -121 297
q0 99 34.5 181.5t109.5 154.5t211.5 111.5t326.5 39.5h301l8 -929q-2 -29 -4 -77t-4 -114q17 48 36 94t39 93l420 923h252l94 -893q8 -118 9 -213q26 75 42 124.5t23 72.5z" />
    <glyph glyph-name="Wcircumflex.swash" horiz-adv-x="2457" 
d="M1810 1845l-227 -276h-172l326 450h205l174 -450h-172zM2345 1425h262l-567 -1425h-297l-78 752q-3 32 -6.5 108t-7.5 199q-73 -209 -111 -293l-358 -766h-297l-54 1217h-98q-200 0 -301.5 -70.5t-101.5 -206.5q0 -106 71 -167.5t203 -61.5l-33 -187q-217 0 -337 117
q-121 117 -121 297q0 99 34.5 181.5t109.5 154.5t211.5 111.5t326.5 39.5h301l8 -929q-2 -29 -4 -77t-4 -114q17 48 36 94t39 93l420 923h252l94 -893q8 -118 9 -213q26 75 42 124.5t23 72.5z" />
    <glyph glyph-name="Wdieresis.swash" horiz-adv-x="2457" 
d="M1538 1608q-59 0 -94 42t-24 101q11 60 58 101q48 42 108 42q59 0 93 -42q33 -43 23 -101q-11 -60 -58 -101q-49 -42 -106 -42zM1950 1608q-59 0 -94 42q-35 43 -25 101q11 60 58 101q48 42 108 42q62 0 96 -42q35 -43 25 -101q-11 -59 -59 -101t-109 -42zM2345 1425h262
l-567 -1425h-297l-78 752q-3 32 -6.5 108t-7.5 199q-73 -209 -111 -293l-358 -766h-297l-54 1217h-98q-200 0 -301.5 -70.5t-101.5 -206.5q0 -106 71 -167.5t203 -61.5l-33 -187q-217 0 -337 117q-121 117 -121 297q0 99 34.5 181.5t109.5 154.5t211.5 111.5t326.5 39.5h301
l8 -929q-2 -29 -4 -77t-4 -114q17 48 36 94t39 93l420 923h252l94 -893q8 -118 9 -213q26 75 42 124.5t23 72.5z" />
    <glyph glyph-name="Wgrave.swash" horiz-adv-x="2457" 
d="M1823 1575h-172l-209 442h246zM2345 1425h262l-567 -1425h-297l-78 752q-3 32 -6.5 108t-7.5 199q-73 -209 -111 -293l-358 -766h-297l-54 1217h-98q-200 0 -301.5 -70.5t-101.5 -206.5q0 -106 71 -167.5t203 -61.5l-33 -187q-217 0 -337 117q-121 117 -121 297
q0 99 34.5 181.5t109.5 154.5t211.5 111.5t326.5 39.5h301l8 -929q-2 -29 -4 -77t-4 -114q17 48 36 94t39 93l420 923h252l94 -893q8 -118 9 -213q26 75 42 124.5t23 72.5z" />
    <glyph glyph-name="X.swash" horiz-adv-x="1652" 
d="M1821 1425q-123 -159 -245 -332t-247 -362l248 -731h-279l-178 580l-387 -580h-287l549 770q-79 444 -381 444q-130 0 -210 -75q-80 -77 -80 -207q0 -104 77 -164q76 -61 224 -49l-31 -184q-240 -14 -363 101q-125 114 -125 296q0 216 137 355q137 138 378 138
q205 0 355 -135t218 -395q93 152 179.5 284t168.5 246h279z" />
    <glyph glyph-name="Y.swash" horiz-adv-x="1693" 
d="M1847 1425q-174 -211 -328 -436.5t-292 -470.5l-80 -518h-256l80 500q-5 323 -97 511q-94 189 -270 189q-116 0 -193 -75q-77 -77 -77 -199q0 -109 76 -172q74 -64 235 -43l-27 -197q-252 -23 -382 94t-130 307q0 221 144 366q143 144 381 144q236 0 367 -170
q130 -169 159 -475q152 324 414 645h276z" />
    <glyph glyph-name="Yacute.swash" horiz-adv-x="1693" 
d="M1731 1999l-414 -424h-195l340 424h269zM1847 1425q-174 -211 -328 -436.5t-292 -470.5l-80 -518h-256l80 500q-5 323 -97 511q-94 189 -270 189q-116 0 -193 -75q-77 -77 -77 -199q0 -109 76 -172q74 -64 235 -43l-27 -197q-252 -23 -382 94t-130 307q0 221 144 366
q143 144 381 144q236 0 367 -170q130 -169 159 -475q152 324 414 645h276z" />
    <glyph glyph-name="Ycircumflex.swash" horiz-adv-x="1693" 
d="M1305 1845l-228 -276h-172l326 450h205l174 -450h-172zM1847 1425q-174 -211 -328 -436.5t-292 -470.5l-80 -518h-256l80 500q-5 323 -97 511q-94 189 -270 189q-116 0 -193 -75q-77 -77 -77 -199q0 -109 76 -172q74 -64 235 -43l-27 -197q-252 -23 -382 94t-130 307
q0 221 144 366q143 144 381 144q236 0 367 -170q130 -169 159 -475q152 324 414 645h276z" />
    <glyph glyph-name="Ydieresis.swash" horiz-adv-x="1693" 
d="M1032 1608q-59 0 -94 42t-24 101q11 60 58 101q48 42 108 42q59 0 93 -42q33 -43 23 -101q-11 -60 -58 -101q-49 -42 -106 -42zM1444 1608q-59 0 -94 42q-35 43 -25 101q11 60 59 101q48 42 107 42q62 0 96 -42q35 -43 25 -101q-11 -60 -58 -101q-49 -42 -110 -42z
M1847 1425q-174 -211 -328 -436.5t-292 -470.5l-80 -518h-256l80 500q-5 323 -97 511q-94 189 -270 189q-116 0 -193 -75q-77 -77 -77 -199q0 -109 76 -172q74 -64 235 -43l-27 -197q-252 -23 -382 94t-130 307q0 221 144 366q143 144 381 144q236 0 367 -170
q130 -169 159 -475q152 324 414 645h276z" />
    <glyph glyph-name="Ygrave.swash" horiz-adv-x="1693" 
d="M1317 1575h-172l-209 442h246zM1847 1425q-174 -211 -328 -436.5t-292 -470.5l-80 -518h-256l80 500q-5 323 -97 511q-94 189 -270 189q-116 0 -193 -75q-77 -77 -77 -199q0 -109 76 -172q74 -64 235 -43l-27 -197q-252 -23 -382 94t-130 307q0 221 144 366
q143 144 381 144q236 0 367 -170q130 -169 159 -475q152 324 414 645h276z" />
    <glyph glyph-name="Z.swash" horiz-adv-x="1251" 
d="M956 733q102 -45 178 -142t76 -251q0 -222 -124 -365q-125 -143 -318 -143q-117 0 -234 41q-118 41 -206 81q-89 40 -146 40q-96 0 -180 -51l-29 213l875 1038h-686l37 231h1018l-35 -215l-854 -991q61 -11 188 -73q128 -64 223 -64q106 0 166 69q60 68 60 168
q0 154 -168 238z" />
    <glyph glyph-name="Zacute.swash" horiz-adv-x="1251" 
d="M1206 1999l-413 -424h-195l340 424h268zM956 733q102 -45 178 -142t76 -251q0 -222 -124 -365q-125 -143 -318 -143q-117 0 -234 41q-118 41 -206 81q-89 40 -146 40q-96 0 -180 -51l-29 213l875 1038h-686l37 231h1018l-35 -215l-854 -991q61 -11 188 -73
q128 -64 223 -64q106 0 166 69q60 68 60 168q0 154 -168 238z" />
    <glyph glyph-name="Zcaron.swash" horiz-adv-x="1251" 
d="M811 1577h-205l-174 453h172l133 -277l228 277h172zM956 733q102 -45 178 -142t76 -251q0 -222 -124 -365q-125 -143 -318 -143q-117 0 -234 41q-118 41 -206 81q-89 40 -146 40q-96 0 -180 -51l-29 213l875 1038h-686l37 231h1018l-35 -215l-854 -991q61 -11 188 -73
q128 -64 223 -64q106 0 166 69q60 68 60 168q0 154 -168 238z" />
    <glyph glyph-name="Zdotaccent.swash" horiz-adv-x="1251" 
d="M719 1608q-62 0 -96 43q-35 45 -25 102q7 61 59 105q49 43 109 43q62 0 96 -43q35 -45 25 -105q-7 -58 -58 -102q-50 -43 -110 -43zM956 733q102 -45 178 -142t76 -251q0 -222 -124 -365q-125 -143 -318 -143q-117 0 -234 41q-118 41 -206 81q-89 40 -146 40
q-96 0 -180 -51l-29 213l875 1038h-686l37 231h1018l-35 -215l-854 -991q61 -11 188 -73q128 -64 223 -64q106 0 166 69q60 68 60 168q0 154 -168 238z" />
    <glyph glyph-name="a.aalt" horiz-adv-x="1105" 
d="M729 0l-35 213h-391l-104 -213h-250l545 1057h290l207 -1057h-262zM399 408h265l-64 409z" />
    <glyph glyph-name="aacute.aalt" horiz-adv-x="1105" 
d="M1055 1651l-334 -443h-168l256 443h246zM494 1057h290l207 -1057h-262l-35 213h-391l-104 -213h-250zM399 408h265l-64 409z" />
    <glyph glyph-name="abreve.aalt" horiz-adv-x="1105" 
d="M670 1237q-184 0 -261 106.5t-30 313.5h190q-49 -258 125 -258q176 0 209 258h193q-23 -208 -133 -314t-293 -106zM494 1057h290l207 -1057h-262l-35 213h-391l-104 -213h-250zM399 408h265l-64 409z" />
    <glyph glyph-name="acircumflex.aalt" horiz-adv-x="1105" 
d="M711 1485l-226 -277h-172l324 451h205l176 -451h-172zM494 1057h290l207 -1057h-262l-35 213h-391l-104 -213h-250zM399 408h265l-64 409z" />
    <glyph glyph-name="acutecomb.aalt" 
d="M236 1550l-414 -424h-195l340 424h269z" />
    <glyph glyph-name="adieresis.aalt" horiz-adv-x="1105" 
d="M568 1352q-49 -41 -107 -41q-60 0 -93 41q-34 40 -26 98q11 60 59 101q48 42 107 42t92 -42q33 -43 23 -101q-7 -57 -55 -98zM843 1551q48 42 108 42q59 0 93 -42q33 -43 23 -101q-11 -59 -58 -99t-106 -40q-58 0 -93 41t-24 98q8 59 57 101zM494 1057h290l207 -1057
h-262l-35 213h-391l-104 -213h-250zM399 408h265l-64 409z" />
    <glyph glyph-name="agrave.aalt" horiz-adv-x="1105" 
d="M750 1208h-168l-189 443h248zM729 0l-35 213h-391l-104 -213h-250l545 1057h290l207 -1057h-262zM399 408h265l-64 409z" />
    <glyph glyph-name="amacron.aalt" horiz-adv-x="1105" 
d="M354 1542h707l-33 -203h-709zM494 1057h290l207 -1057h-262l-35 213h-391l-104 -213h-250zM399 408h265l-64 409z" />
    <glyph glyph-name="aogonek.aalt" horiz-adv-x="1105" 
d="M754 -412q73 0 170 50l12 -164q-139 -66 -281 -66q-57 0 -98 15t-66.5 41.5t-35.5 64t-4 82.5q18 226 340 389h-62l-35 213h-391l-104 -213h-250l545 1057h290l191 -977q2 2 4 2l12 -82q-309 -166 -319 -326q-5 -86 82 -86zM399 408h265l-64 409z" />
    <glyph glyph-name="aring.aalt" horiz-adv-x="1105" 
d="M709 1249q-104 0 -164 57q-60 56 -60 146q0 133 91 220q90 87 223 87q105 0 164 -58q59 -59 59 -151q0 -125 -88 -213t-225 -88zM778 1638q-65 0 -109 -47t-44 -118q0 -48 27.5 -74.5t72.5 -26.5q62 0 112 44q48 44 48 116q0 51 -29 78.5t-78 27.5zM494 1057h290
l207 -1057h-262l-35 213h-391l-104 -213h-250zM399 408h265l-64 409z" />
    <glyph glyph-name="atilde.aalt" horiz-adv-x="1105" 
d="M543 1440q-69 0 -103 -217h-180q51 413 264 411q35 0 68 -19.5t52 -40.5q9 -11 22 -27t30 -38q68 -98 109 -98q74 0 108 219h181q-51 -414 -267 -413q-27 0 -49.5 8t-44 23.5t-43 40t-47.5 57.5q-6 6 -16.5 20t-15.5 21q-5 6 -13 17t-13 15q-11 8 -21 14.5t-21 6.5z
M494 1057h290l207 -1057h-262l-35 213h-391l-104 -213h-250zM399 408h265l-64 409z" />
    <glyph glyph-name="b.aalt" horiz-adv-x="1132" 
d="M842 557q205 -34 205 -213q0 -118 -71 -198t-181 -113q-111 -33 -256 -33h-476l175 1057h503q317 0 320 -221q0 -99 -58 -171.5t-161 -107.5zM805 752q0 90 -125 90h-227l-37 -226h233q63 0 110 38q46 37 46 98zM592 217q46 0 84.5 9.5t66 28.5t42.5 46.5t14 63.5
q0 98 -133 98h-277l-41 -246h244z" />
    <glyph glyph-name="c.aalt" horiz-adv-x="1120" 
d="M535 -29q-91 0 -169.5 24.5t-148.5 78.5t-109.5 149t-39.5 228q0 260 174 446t485 184q242 0 401 -114l-135 -205q-117 90 -276 90q-172 0 -274 -108q-103 -109 -103 -275q0 -136 70 -200q69 -66 180 -66q207 0 346 114l63 -223q-169 -123 -464 -123z" />
    <glyph glyph-name="cacute.aalt" horiz-adv-x="1120" 
d="M1133 1651l-334 -443h-168l256 443h246zM535 -29q-91 0 -169.5 24.5t-148.5 78.5t-109.5 149t-39.5 228q0 260 174 446t485 184q242 0 401 -114l-135 -205q-117 90 -276 90q-172 0 -274 -108q-103 -109 -103 -275q0 -136 70 -200q69 -66 180 -66q207 0 346 114l63 -223
q-169 -123 -464 -123z" />
    <glyph glyph-name="ccaron.aalt" horiz-adv-x="1120" 
d="M840 1208h-205l-174 451h172l133 -277l227 277h172zM717 852q-172 0 -274 -108q-103 -109 -103 -275q0 -136 70 -200q69 -66 180 -66q207 0 346 114l63 -223q-169 -123 -464 -123q-91 0 -169.5 24.5t-148.5 78.5t-109.5 149t-39.5 228q0 260 174 446t485 184
q242 0 401 -114l-135 -205q-115 90 -276 90z" />
    <glyph glyph-name="ccedilla.aalt" horiz-adv-x="1120" 
d="M999 94q-146 -109 -403 -121l-92 -145q56 18 102 18q172 0 172 -172q0 -129 -93 -202q-93 -72 -230 -72q-154 0 -258 63l69 131q86 -53 185 -53q66 0 107.5 34t41.5 91q0 66 -72 66q-61 0 -104 -43l-115 43l135 245q-165 26 -270 140q-106 113 -106 334q0 260 174 446
t485 184q242 0 401 -114l-135 -205q-117 90 -276 90q-172 0 -274 -108q-103 -109 -103 -275q0 -136 70 -200q69 -66 180 -66q207 0 346 114z" />
    <glyph glyph-name="cdotaccent.aalt" horiz-adv-x="1120" 
d="M631 1391q7 61 59 105t113 44q60 0 98 -44q38 -43 27 -105q-11 -63 -60 -106q-52 -44 -114 -44q-63 0 -98 45t-25 105zM535 -29q-91 0 -169.5 24.5t-148.5 78.5t-109.5 149t-39.5 228q0 260 174 446t485 184q242 0 401 -114l-135 -205q-117 90 -276 90q-172 0 -274 -108
q-103 -109 -103 -275q0 -136 70 -200q69 -66 180 -66q207 0 346 114l63 -223q-169 -123 -464 -123z" />
    <glyph glyph-name="d.aalt" horiz-adv-x="1234" 
d="M705 1057q479 0 479 -430q0 -303 -201 -465t-512 -162h-408l175 1057h467zM500 223q174 0 296 92t122 281q0 128 -70.5 186t-216.5 58h-178l-103 -617h150z" />
    <glyph glyph-name="dcaron.aalt" horiz-adv-x="1234" 
d="M829 1208h-204l-174 451h172l133 -277l227 277h172zM705 1057q479 0 479 -430q0 -303 -201 -465t-512 -162h-408l175 1057h467zM500 223q174 0 296 92t122 281q0 128 -70.5 186t-216.5 58h-178l-103 -617h150z" />
    <glyph glyph-name="dcroat.aalt" horiz-adv-x="1234" 
d="M705 1057q479 0 479 -430q0 -303 -201 -465t-512 -162h-408l74 451h-67l28 188h70l70 418h467zM500 223q174 0 296 92t122 281q0 128 -70.5 186t-216.5 58h-178l-33 -201h266l-29 -188h-268l-39 -228h150z" />
    <glyph glyph-name="e.aalt" horiz-adv-x="1015" 
d="M1016 831h-563l-33 -202h426l-27 -170h-428l-39 -234h549l-31 -225h-804l172 1057h806z" />
    <glyph glyph-name="eacute.aalt" horiz-adv-x="1015" 
d="M1042 1651l-333 -443h-168l256 443h245zM1016 831h-563l-33 -202h426l-27 -170h-428l-39 -234h549l-31 -225h-804l172 1057h806z" />
    <glyph glyph-name="ecaron.aalt" horiz-adv-x="1015" 
d="M750 1208h-205l-174 451h172l133 -277l227 277h172zM66 0l172 1057h806l-28 -226h-563l-33 -202h426l-27 -170h-428l-39 -234h549l-31 -225h-804z" />
    <glyph glyph-name="ecircumflex.aalt" horiz-adv-x="1015" 
d="M698 1485l-225 -277h-172l324 451h204l177 -451h-172zM1016 831h-563l-33 -202h426l-27 -170h-428l-39 -234h549l-31 -225h-804l172 1057h806z" />
    <glyph glyph-name="edieresis.aalt" horiz-adv-x="1015" 
d="M555 1352q-47 -41 -106 -41q-60 0 -93 41q-34 40 -26 98q11 60 58 101q48 42 108 42q59 0 92 -42t22 -101q-7 -57 -55 -98zM831 1551q48 42 107 42t93 -42q35 -42 24 -101q-10 -58 -59 -99q-47 -40 -105 -40t-93 41t-24 98q8 59 57 101zM66 0l172 1057h806l-28 -226h-563
l-33 -202h426l-27 -170h-428l-39 -234h549l-31 -225h-804z" />
    <glyph glyph-name="edotaccent.aalt" horiz-adv-x="1015" 
d="M777 1285q-50 -44 -113 -44q-64 0 -99 44t-24 106q7 61 59 105t113 44q60 0 98 -44q38 -43 27 -105t-61 -106zM1016 831h-563l-33 -202h426l-27 -170h-428l-39 -234h549l-31 -225h-804l172 1057h806z" />
    <glyph glyph-name="egrave.aalt" horiz-adv-x="1015" 
d="M737 1208h-168l-188 443h248zM1016 831h-563l-33 -202h426l-27 -170h-428l-39 -234h549l-31 -225h-804l172 1057h806z" />
    <glyph glyph-name="eight.oldstyle" horiz-adv-x="1157" 
d="M840 723q231 -76 231 -315q0 -209 -152 -325q-154 -116 -430 -116q-201 0 -323 93q-123 92 -123 268q0 150 87 253q86 102 230 146q-174 89 -174 295q0 178 134 306t385 128q187 0 299 -86q110 -86 110 -262q0 -139 -77 -237t-197 -148zM670 1233q-113 0 -181 -71
q-69 -72 -69 -181q0 -97 48.5 -143.5t135.5 -46.5q108 0 185 74q75 74 75 175q0 98 -53 145.5t-141 47.5zM518 195q144 0 223 69q80 68 80 178q0 109 -66 158q-67 49 -167 49q-129 0 -211 -70t-82 -178q0 -99 59 -152.5t164 -53.5z" />
    <glyph glyph-name="eight.oldstyle.case" horiz-adv-x="1185" 
d="M879 723q227 -72 227 -315q0 -210 -157 -325q-158 -116 -449 -116q-463 0 -463 352q0 156 91 262q92 106 243 146q-178 90 -178 295q0 179 139 306q140 128 403 128q204 0 319 -85t115 -257q0 -141 -82 -241t-208 -150zM700 1223q-121 0 -193 -69q-73 -69 -73 -173
q0 -93 54 -139.5t145 -46.5q114 0 197 74q81 74 81 171q0 46 -15.5 80.5t-43 57t-66.5 34t-86 11.5zM535 205q150 0 235 66q84 65 84 172t-70 153q-71 47 -176 47q-133 0 -217 -69q-84 -70 -84 -175q2 -194 228 -194z" />
    <glyph glyph-name="emacron.aalt" horiz-adv-x="1015" 
d="M1049 1542l-33 -203h-709l35 203h707zM66 0l172 1057h806l-28 -226h-563l-33 -202h426l-27 -170h-428l-39 -234h549l-31 -225h-804z" />
    <glyph glyph-name="eogonek.aalt" horiz-adv-x="1015" 
d="M1016 831h-563l-33 -202h426l-27 -170h-428l-39 -234h549l-31 -225q-309 -166 -319 -326q-5 -86 82 -86q75 0 170 50l12 -164q-139 -66 -280 -66q-57 0 -98 15t-66.5 41.5t-36 64t-4.5 82.5q18 226 340 389h-604l172 1057h806z" />
    <glyph glyph-name="eth.aalt" horiz-adv-x="1234" 
d="M705 1057q479 0 479 -430q0 -303 -201 -465t-512 -162h-408l74 451h-67l28 188h70l70 418h467zM500 223q174 0 296 92t122 281q0 128 -70.5 186t-216.5 58h-178l-33 -201h266l-29 -188h-268l-39 -228h150z" />
    <glyph glyph-name="f.salt" horiz-adv-x="632" 
d="M639 1559q152 0 266 -72l-90 -180q-65 43 -137 43q-119 0 -146 -154l-36 -219h178l-31 -205h-180l-146 -881q-39 -221 -150 -324q-113 -102 -349 -95l-33 206q243 -23 289 218l145 876h-123l31 205h125l41 246q57 336 346 336z" />
    <glyph glyph-name="five.oldstyle" horiz-adv-x="1032" 
d="M954 825h-555l-63 -391q113 66 254 66q126 0 231 -84q54 -43 85.5 -122.5t31.5 -187.5q0 -248 -155 -379q-155 -130 -402 -130q-284 0 -457 151l113 205q116 -129 338 -129q130 0 215 69q86 71 86 209q0 112 -53 166t-146 54q-148 0 -246 -91l-157 74l119 750h800z" />
    <glyph glyph-name="five.oldstyle.case" horiz-adv-x="1069" 
d="M1028 1196h-559l-66 -397q126 68 256 67q136 0 242 -85q107 -86 107 -269q0 -265 -157 -404q-157 -141 -396 -141q-281 0 -451 152l102 215q121 -121 332 -121q125 0 211 71t86 210q0 94 -49 141t-127 47q-156 0 -266 -111l-158 74l131 780h801z" />
    <glyph glyph-name="four.oldstyle" horiz-adv-x="1134" 
d="M1038 188l-34 -190h-175l-55 -356h-254l58 356h-621l31 197l669 858h338l-135 -865h178zM217 188h391l103 641z" />
    <glyph glyph-name="four.oldstyle.case" horiz-adv-x="1181" 
d="M1143 477l-35 -207h-186l-45 -270h-250l45 270h-678l37 217l755 938h326l-158 -948h189zM283 477h424l116 699z" />
    <glyph glyph-name="g.aalt" horiz-adv-x="1214" 
d="M602 418l27 196h518l-92 -577q-213 -66 -451 -66q-109 0 -199.5 23.5t-168.5 75.5q-78 51 -123 144.5t-45 223.5q-2 288 185 467q188 180 507 180q267 0 422 -131l-164 -192q-121 90 -281 90q-193 0 -300 -111q-107 -114 -103 -282q1 -127 84 -190q82 -64 207 -64
q121 0 215 31l30 182h-268z" />
    <glyph glyph-name="gbreve.aalt" horiz-adv-x="1214" 
d="M739 1237q-184 0 -261 106.5t-29 313.5h190q-49 -258 125 -258q176 0 209 258h192q-23 -208 -133 -314t-293 -106zM602 418l27 196h518l-92 -577q-213 -66 -451 -66q-109 0 -199.5 23.5t-168.5 75.5q-78 51 -123 144.5t-45 223.5q-2 288 185 467q188 180 507 180
q267 0 422 -131l-164 -192q-121 90 -281 90q-193 0 -300 -111q-107 -114 -103 -282q1 -127 84 -190q82 -64 207 -64q121 0 215 31l30 182h-268z" />
    <glyph glyph-name="gdotaccent.aalt" horiz-adv-x="1214" 
d="M859 1285q-50 -44 -113 -44q-64 0 -99 44t-24 106q7 61 59 105t113 44q60 0 98 -44q38 -43 27 -105t-61 -106zM602 418l27 196h518l-92 -577q-213 -66 -451 -66q-109 0 -199.5 23.5t-168.5 75.5q-78 51 -123 144.5t-45 223.5q-2 288 185 467q188 180 507 180
q267 0 422 -131l-164 -192q-121 90 -281 90q-193 0 -300 -111q-107 -114 -103 -282q1 -127 84 -190q82 -64 207 -64q121 0 215 31l30 182h-268z" />
    <glyph glyph-name="glyph1" 
 />
    <glyph glyph-name="glyph2" horiz-adv-x="681" 
 />
    <glyph glyph-name="glyph634" horiz-adv-x="356" 
d="M489 1532l-192 -617h-147l112 617h227z" />
    <glyph glyph-name="gravecomb.aalt" 
d="M-88 1126l-209 443h246l135 -443h-172z" />
    <glyph glyph-name="h.aalt" horiz-adv-x="1234" 
d="M950 1057h248l-172 -1057h-252l72 430h-461l-72 -430h-250l175 1057h251l-65 -400h461z" />
    <glyph glyph-name="i.locl" horiz-adv-x="491" 
d="M242 1311q7 61 59 105t113 44q60 0 98 -44q38 -43 27 -105t-61 -106t-113 -44t-98 45t-25 105zM449 977l-164 -977h-242l162 977h244z" />
    <glyph glyph-name="iacute.aalt" horiz-adv-x="522" 
d="M780 1651l-334 -443h-167l256 443h245zM487 1057l-174 -1057h-250l175 1057h249z" />
    <glyph glyph-name="icircumflex.aalt" horiz-adv-x="522" 
d="M567 1659l176 -451h-172l-135 277l-225 -277h-172l323 451h205zM63 0l175 1057h249l-174 -1057h-250z" />
    <glyph glyph-name="idieresis.aalt" horiz-adv-x="522" 
d="M68 1450q11 60 58 101q48 42 108 42q59 0 92 -42q32 -43 22 -101q-7 -57 -55 -98q-47 -41 -106 -41q-60 0 -93 41q-34 40 -26 98zM512 1450q8 59 56 101t108 42q59 0 93 -42q35 -42 24 -101q-10 -58 -59 -99q-47 -40 -105 -40t-93 41t-24 98zM487 1057l-174 -1057h-250
l175 1057h249z" />
    <glyph glyph-name="igrave.aalt" horiz-adv-x="522" 
d="M475 1208h-168l-188 443h248zM487 1057l-174 -1057h-250l175 1057h249z" />
    <glyph glyph-name="imacron.aalt" horiz-adv-x="522" 
d="M80 1542h706l-32 -203h-709zM487 1057l-174 -1057h-250l175 1057h249z" />
    <glyph glyph-name="iogonek.aalt" horiz-adv-x="522" 
d="M313 0q-309 -166 -319 -326q-5 -86 82 -86q75 0 170 50l12 -164q-139 -66 -281 -66q-57 0 -98 15t-66.5 41.5t-35.5 64t-4 82.5q18 226 340 389h-50l175 1057h249z" />
    <glyph glyph-name="k.aalt" horiz-adv-x="1114" 
d="M1171 1057l-419 -400l239 -657h-293l-159 453l-179 -170l-47 -283h-250l175 1057h251l-75 -449l465 449h292z" />
    <glyph glyph-name="l.aalt" horiz-adv-x="870" 
d="M350 219h457l-31 -219h-715l177 1057h251z" />
    <glyph glyph-name="lacute.aalt" horiz-adv-x="870" 
d="M786 1651l-333 -443h-168l256 443h245zM350 219h457l-31 -219h-715l177 1057h251z" />
    <glyph glyph-name="lcaron.aalt" horiz-adv-x="870" 
d="M494 1208h-205l-174 451h172l133 -277l227 277h172zM489 1057l-139 -838h457l-31 -219h-715l177 1057h251z" />
    <glyph glyph-name="lslash.aalt" horiz-adv-x="870" 
d="M350 219h457l-31 -219h-715l70 422l-174 -66l-61 197l276 104l66 400h251l-49 -297l265 100l73 -194l-377 -142z" />
    <glyph glyph-name="m.aalt" horiz-adv-x="1474" 
d="M1126 1057h301l-161 -1057h-242l90 541q6 37 15 83t20 101q-35 -63 -60.5 -107.5t-41.5 -70.5l-299 -469h-154l-152 489l-39 156q-6 -97 -18 -170l-92 -553h-227l172 1057h282l199 -670z" />
    <glyph glyph-name="n.aalt" horiz-adv-x="1208" 
d="M946 1057h228l-175 -1057h-235l-361 666l-110 -666h-230l175 1057h233l363 -674z" />
    <glyph glyph-name="nacute.aalt" horiz-adv-x="1208" 
d="M1124 1651l-333 -443h-168l256 443h245zM946 1057h228l-175 -1057h-235l-361 666l-110 -666h-230l175 1057h233l363 -674z" />
    <glyph glyph-name="ncaron.aalt" horiz-adv-x="1208" 
d="M831 1208h-204l-174 451h172l133 -277l227 277h172zM946 1057h228l-175 -1057h-235l-361 666l-110 -666h-230l175 1057h233l363 -674z" />
    <glyph glyph-name="nine.oldstyle" horiz-adv-x="1134" 
d="M596 1087q185 0 319 -140q132 -139 132 -441q0 -246 -76 -444q-76 -200 -234 -328q-158 -127 -375 -127q-241 0 -419 157l106 207q116 -141 305 -141q185 0 298 143q112 143 139 402q-133 -189 -394 -191q-145 0 -243 89q-99 89 -99 266q0 226 148 387q147 161 393 161z
M500 371q119 0 204 79q84 78 84 168q0 108 -62 176q-61 66 -153 66q-119 0 -195 -88q-77 -89 -77 -205q0 -94 53 -145t146 -51z" />
    <glyph glyph-name="nine.oldstyle.case" horiz-adv-x="1183" 
d="M690 1456q91 0 168.5 -30t145.5 -95t107.5 -181.5t39.5 -272.5q0 -245 -80 -450q-80 -204 -242 -332q-164 -128 -383 -128q-267 0 -452 174l129 213q129 -145 309 -145q174 0 285 135q111 136 139 377q-135 -168 -377 -168q-143 0 -244 89q-102 89 -102 265
q0 225 153 387q152 162 404 162zM592 745q117 0 202 78t85 166q0 103 -62 168q-63 64 -155 64q-117 0 -193 -88t-76 -199q0 -93 52.5 -141t146.5 -48z" />
    <glyph glyph-name="ntilde.aalt" horiz-adv-x="1208" 
d="M612 1440q-68 0 -102 -217h-180q51 413 264 411q35 0 67.5 -19.5t51.5 -40.5q9 -11 22.5 -27t30.5 -38q68 -98 108 -98q75 0 109 219h180q-51 -415 -266 -413q-27 0 -49.5 8t-44 23.5t-43 40t-47.5 57.5q-6 6 -16.5 20t-15.5 21q-5 6 -13.5 17t-13.5 15q-11 8 -20.5 14.5
t-21.5 6.5zM946 1057h228l-175 -1057h-235l-361 666l-110 -666h-230l175 1057h233l363 -674z" />
    <glyph glyph-name="o.aalt" horiz-adv-x="1310" 
d="M555 -33q-208 0 -347 118q-141 119 -142 351q-1 274 191 464t497 187q207 0 354 -117q148 -119 149 -358q2 -272 -189 -458q-190 -187 -513 -187zM594 199q176 0 288 117q111 115 109 274q-1 129 -76 197q-74 67 -192 67q-171 0 -280 -112q-111 -112 -109 -271
q2 -137 72.5 -204.5t187.5 -67.5z" />
    <glyph glyph-name="oacute.aalt" horiz-adv-x="1310" 
d="M1167 1651l-333 -443h-168l256 443h245zM555 -33q-208 0 -347 118q-141 119 -142 351q-1 274 191 464t497 187q207 0 354 -117q148 -119 149 -358q2 -272 -189 -458q-190 -187 -513 -187zM594 199q176 0 288 117q111 115 109 274q-1 129 -76 197q-74 67 -192 67
q-171 0 -280 -112q-111 -112 -109 -271q2 -137 72.5 -204.5t187.5 -67.5z" />
    <glyph glyph-name="ocircumflex.aalt" horiz-adv-x="1310" 
d="M823 1485l-225 -277h-172l324 451h204l176 -451h-172zM1257 612q2 -272 -189 -458q-190 -187 -513 -187q-208 0 -347 118q-141 119 -142 351q-1 274 191 464t497 187q207 0 354 -117q148 -119 149 -358zM594 199q176 0 288 117q111 115 109 274q-1 129 -76 197
q-74 67 -192 67q-171 0 -280 -112q-111 -112 -109 -271q2 -137 72.5 -204.5t187.5 -67.5z" />
    <glyph glyph-name="odieresis.aalt" horiz-adv-x="1310" 
d="M455 1450q11 60 58 101q48 42 108 42q59 0 92 -42q32 -43 22 -101q-7 -57 -55 -98q-47 -41 -106 -41q-60 0 -93 41q-34 40 -26 98zM899 1450q8 59 57 101q48 42 107 42t93 -42q35 -42 24 -101q-10 -58 -59 -99q-47 -40 -105 -40t-93 41t-24 98zM555 -33q-208 0 -347 118
q-141 119 -142 351q-1 274 191 464t497 187q207 0 354 -117q148 -119 149 -358q2 -272 -189 -458q-190 -187 -513 -187zM594 199q176 0 288 117q111 115 109 274q-1 129 -76 197q-74 67 -192 67q-171 0 -280 -112q-111 -112 -109 -271q2 -137 72.5 -204.5t187.5 -67.5z" />
    <glyph glyph-name="ograve.aalt" horiz-adv-x="1310" 
d="M862 1208h-168l-188 443h248zM555 -33q-208 0 -347 118q-141 119 -142 351q-1 274 191 464t497 187q207 0 354 -117q148 -119 149 -358q2 -272 -189 -458q-190 -187 -513 -187zM594 199q176 0 288 117q111 115 109 274q-1 129 -76 197q-74 67 -192 67q-171 0 -280 -112
q-111 -112 -109 -271q2 -137 72.5 -204.5t187.5 -67.5z" />
    <glyph glyph-name="ohungarumlaut.aalt" horiz-adv-x="1310" 
d="M967 1651l-281 -443h-151l194 443h238zM1380 1651l-409 -443h-170l332 443h247zM555 -33q-208 0 -347 118q-141 119 -142 351q-1 274 191 464t497 187q207 0 354 -117q148 -119 149 -358q2 -272 -189 -458q-190 -187 -513 -187zM594 199q176 0 288 117q111 115 109 274
q-1 129 -76 197q-74 67 -192 67q-171 0 -280 -112q-111 -112 -109 -271q2 -137 72.5 -204.5t187.5 -67.5z" />
    <glyph glyph-name="omacron.aalt" horiz-adv-x="1310" 
d="M467 1542h707l-33 -203h-709zM555 -33q-208 0 -347 118q-141 119 -142 351q-1 274 191 464t497 187q207 0 354 -117q148 -119 149 -358q2 -272 -189 -458q-190 -187 -513 -187zM594 199q176 0 288 117q111 115 109 274q-1 129 -76 197q-74 67 -192 67q-171 0 -280 -112
q-111 -112 -109 -271q2 -137 72.5 -204.5t187.5 -67.5z" />
    <glyph glyph-name="one.oldstyle" horiz-adv-x="581" 
d="M522 1057l-172 -1057h-246l140 848h-119l35 209h362z" />
    <glyph glyph-name="one.oldstyle.case" horiz-adv-x="606" 
d="M606 1425l-235 -1425h-254l198 1208l-149 -2l35 219h405z" />
    <glyph glyph-name="otilde.aalt" horiz-adv-x="1310" 
d="M655 1440q-68 0 -102 -217h-180q51 413 264 411q35 0 67.5 -19.5t51.5 -40.5q9 -11 22.5 -27t30.5 -38q68 -98 109 -98q74 0 108 219h180q-51 -415 -266 -413q-27 0 -49.5 8t-44 23.5t-43 40t-47.5 57.5q-6 6 -16.5 20t-15.5 21q-5 6 -13.5 17t-13.5 15q-11 8 -20.5 14.5
t-21.5 6.5zM555 -33q-208 0 -347 118q-141 119 -142 351q-1 274 191 464t497 187q207 0 354 -117q148 -119 149 -358q2 -272 -189 -458q-190 -187 -513 -187zM594 199q176 0 288 117q111 115 109 274q-1 129 -76 197q-74 67 -192 67q-171 0 -280 -112q-111 -112 -109 -271
q2 -137 72.5 -204.5t187.5 -67.5z" />
    <glyph glyph-name="p.aalt" horiz-adv-x="1083" 
d="M721 1057q369 0 369 -320q0 -189 -134 -302q-136 -113 -376 -113h-215l-54 -322h-250l177 1057h483zM602 541q109 0 165 48t56 126q0 117 -157 116h-215l-50 -290h201z" />
    <glyph glyph-name="q.aalt" horiz-adv-x="1318" 
d="M555 -33q-208 0 -347 118q-141 119 -142 351q-1 274 191 464t497 187q207 0 354 -117q148 -119 149 -358q2 -272 -189 -458q-190 -187 -513 -187zM594 199q176 0 288 117q111 115 109 274q-1 129 -76 197q-74 67 -192 67q-171 0 -280 -112q-111 -112 -109 -271
q2 -137 72.5 -204.5t187.5 -67.5zM1092 -330l-656 6l27 199l655 -6z" />
    <glyph glyph-name="r.aalt" horiz-adv-x="1144" 
d="M1092 780q1 -66 -18.5 -122t-56.5 -102t-90.5 -79.5t-121.5 -54.5l205 -422h-295l-168 393h-170l-66 -393h-250l177 1057h510q167 0 254.5 -69.5t89.5 -207.5zM453 842l-43 -252h215q94 0 147 41t53 108q0 102 -133 103h-239z" />
    <glyph glyph-name="racute.aalt" horiz-adv-x="1144" 
d="M1102 1651l-334 -443h-168l256 443h246zM1092 780q1 -66 -18.5 -122t-56.5 -102t-90.5 -79.5t-121.5 -54.5l205 -422h-295l-168 393h-170l-66 -393h-250l177 1057h510q167 0 254.5 -69.5t89.5 -207.5zM625 590q94 0 147 41t53 108q0 102 -133 103h-239l-43 -252h215z" />
    <glyph glyph-name="rcaron.aalt" horiz-adv-x="1144" 
d="M809 1208h-205l-174 451h172l133 -277l228 277h172zM1092 780q1 -66 -18.5 -122t-56.5 -102t-90.5 -79.5t-121.5 -54.5l205 -422h-295l-168 393h-170l-66 -393h-250l177 1057h510q167 0 254.5 -69.5t89.5 -207.5zM625 590q94 0 147 41t53 108q0 102 -133 103h-239
l-43 -252h215z" />
    <glyph glyph-name="s.aalt" horiz-adv-x="948" 
d="M414 -29q-237 0 -404 119l84 215q123 -123 330 -123q39 0 71 9.5t55 26.5t35.5 41t12.5 52q0 24 -9.5 42t-29.5 33t-51.5 27.5t-75.5 26.5q-300 90 -301 324q0 144 110 233q109 88 322 88q211 0 381 -86l-123 -204q-123 80 -268 79q-75 0 -119.5 -29.5t-42.5 -78.5
q0 -51 35 -77q35 -28 119 -56q70 -20 109 -39q20 -10 43.5 -23.5t51.5 -30.5q109 -73 109 -221q2 -171 -119 -259q-122 -89 -325 -89z" />
    <glyph glyph-name="sacute.aalt" horiz-adv-x="948" 
d="M1001 1651l-333 -443h-168l256 443h245zM414 -29q-237 0 -404 119l84 215q123 -123 330 -123q39 0 71 9.5t55 26.5t35.5 41t12.5 52q0 24 -9.5 42t-29.5 33t-51.5 27.5t-75.5 26.5q-300 90 -301 324q0 144 110 233q109 88 322 88q211 0 381 -86l-123 -204
q-123 80 -268 79q-75 0 -119.5 -29.5t-42.5 -78.5q0 -51 35 -77q35 -28 119 -56q70 -20 109 -39q20 -10 43.5 -23.5t51.5 -30.5q109 -73 109 -221q2 -171 -119 -259q-122 -89 -325 -89z" />
    <glyph glyph-name="scaron.aalt" horiz-adv-x="948" 
d="M709 1208h-205l-174 451h172l133 -277l227 277h172zM553 874q-75 0 -119.5 -29.5t-42.5 -78.5q0 -51 35 -77q35 -28 119 -56q70 -20 109 -39q20 -10 43.5 -23.5t51.5 -30.5q109 -73 109 -221q2 -170 -120 -259t-324 -89q-237 0 -404 119l84 215q123 -123 330 -123
q39 0 71 9.5t55 26.5t35.5 41t12.5 52q0 24 -9.5 42t-29.5 33t-51.5 27.5t-75.5 26.5q-300 90 -301 324q0 144 110 233q109 88 322 88q211 0 381 -86l-123 -204q-121 79 -268 79z" />
    <glyph glyph-name="seven.oldstyle" horiz-adv-x="937" 
d="M106 1057h877l-547 -1417h-282l481 1185h-567z" />
    <glyph glyph-name="seven.oldstyle.case" horiz-adv-x="1003" 
d="M176 1425h905l-618 -1425h-283l551 1194h-594z" />
    <glyph glyph-name="six.oldstyle" horiz-adv-x="1148" 
d="M752 879q149 0 250 -92q100 -93 100 -287q0 -241 -147 -387q-149 -146 -398 -146q-205 0 -334 142q-129 141 -129 428q0 392 202 655q203 264 513 264q205 0 360 -113l-135 -190q-103 80 -237 80q-178 0 -303 -170q-126 -171 -142 -412q56 99 162 164q104 64 238 64z
M571 197q121 0 199 81q78 80 78 209q0 110 -59 160q-59 49 -144 49q-114 0 -197 -80q-83 -81 -83 -194q0 -99 55 -161q55 -64 151 -64z" />
    <glyph glyph-name="six.oldstyle.case" horiz-adv-x="1204" 
d="M770 879q61 0 121.5 -17.5t120.5 -57.5t96.5 -119t36.5 -185q-2 -240 -155 -386q-154 -147 -412 -147q-214 0 -348 133q-136 133 -136 412q0 408 211 676t539 268q229 0 381 -137l-162 -189q-97 91 -236 93q-181 0 -308 -160q-129 -162 -148 -391q57 94 159 150.5
t240 56.5zM588 205q125 0 209 78q84 77 84 198q0 114 -61 160q-62 47 -152 47q-126 0 -212 -79q-87 -79 -87 -187q0 -49 15 -89t43.5 -68.5t69 -44t91.5 -15.5z" />
    <glyph glyph-name="t.aalt" horiz-adv-x="935" 
d="M989 1057l-28 -228h-316l-135 -829h-250l137 829h-299l31 228h860z" />
    <glyph glyph-name="tcaron.aalt" horiz-adv-x="935" 
d="M682 1208h-205l-174 451h172l133 -277l228 277h172zM98 829l31 228h860l-28 -228h-316l-135 -829h-250l137 829h-299z" />
    <glyph glyph-name="three.oldstyle" horiz-adv-x="997" 
d="M621 367q118 -33 183.5 -118.5t65.5 -219.5q0 -203 -150 -317q-152 -113 -374 -113q-252 0 -455 180l132 184q123 -141 315 -141q117 0 204 63q87 64 87 176q0 102 -78 154q-78 51 -199 51h-100l31 180h94q112 0 209 71q96 71 96 181q0 168 -182 168q-168 0 -332 -125
l-107 181q213 166 514 165q70 0 131.5 -15t119.5 -49q57 -34 90.5 -101.5t33.5 -161.5q0 -146 -92 -247t-237 -146z" />
    <glyph glyph-name="three.oldstyle.case" horiz-adv-x="1071" 
d="M748 731q104 -37 166.5 -118t62.5 -203q0 -212 -143 -328q-143 -115 -373 -115q-272 0 -481 180l135 197q134 -133 317 -133q120 0 200 64q81 63 81 171q0 96 -72 145q-72 48 -180 48h-101l31 176h94q116 0 207 69q92 68 92 175q0 81 -50.5 119.5t-137.5 38.5
q-198 0 -371 -138l-67 215q225 162 522 162q387 0 387 -313q0 -153 -91 -257q-90 -105 -228 -155z" />
    <glyph glyph-name="tildecomb.aalt" 
d="M-414 1384q-75 0 -110 -215h-178q50 410 262 410q46 0 90 -35q22 -17 39 -36.5t31 -39.5t29.5 -39t32.5 -36q35 -35 64 -35q79 0 113 217h180q-51 -412 -270 -412q-59 0 -112 56q-26 28 -49.5 55t-44.5 55q-42 55 -77 55z" />
    <glyph glyph-name="two.oldstyle" horiz-adv-x="1011" 
d="M389 203h543l-39 -203h-854l35 221q312 140 451 243q137 101 137 226q0 176 -189 176q-167 0 -309 -139l-105 170q196 190 486 190q89 0 160 -21t120.5 -63.5t76 -106t26.5 -148.5q0 -327 -539 -545z" />
    <glyph glyph-name="two.oldstyle.case" horiz-adv-x="1101" 
d="M659 418l-239 -191h616l-39 -227h-968l37 211l321 270q207 166 301 289q94 122 94 254q0 193 -202 193q-169 0 -344 -134l-84 209q232 164 499 164q185 0 297 -91q113 -92 113 -290q-1 -331 -402 -657z" />
    <glyph glyph-name="u.aalt" horiz-adv-x="1193" 
d="M522 -29q-237 0 -338 140q-100 139 -61 383l92 563h252l-98 -590q-18 -120 22 -193q39 -75 154 -75q114 0 186 70t94 200l99 588h247l-92 -561q-45 -270 -181 -397.5t-376 -127.5z" />
    <glyph glyph-name="uacute.aalt" horiz-adv-x="1193" 
d="M1112 1651l-334 -443h-168l256 443h246zM522 -29q-237 0 -338 140q-100 139 -61 383l92 563h252l-98 -590q-18 -120 22 -193q39 -75 154 -75q114 0 186 70t94 200l99 588h247l-92 -561q-45 -270 -181 -397.5t-376 -127.5z" />
    <glyph glyph-name="ucircumflex.aalt" horiz-adv-x="1193" 
d="M768 1485l-225 -277h-172l323 451h205l176 -451h-172zM924 1057h247l-92 -561q-45 -270 -181 -397.5t-376 -127.5q-237 0 -338 140q-100 139 -61 383l92 563h252l-98 -590q-18 -120 22 -193q39 -75 154 -75q114 0 186 70t94 200z" />
    <glyph glyph-name="udieresis.aalt" horiz-adv-x="1193" 
d="M399 1450q11 60 59 101q48 42 108 42q59 0 92 -42q32 -43 22 -101q-7 -57 -55 -98q-47 -41 -106 -41t-94 41q-34 40 -26 98zM844 1450q8 59 56 101t108 42q59 0 93 -42q35 -42 24 -101q-10 -58 -59 -99q-47 -40 -105 -40t-93 41t-24 98zM522 -29q-237 0 -338 140
q-100 139 -61 383l92 563h252l-98 -590q-18 -120 22 -193q39 -75 154 -75q114 0 186 70t94 200l99 588h247l-92 -561q-45 -270 -181 -397.5t-376 -127.5z" />
    <glyph glyph-name="ugrave.aalt" horiz-adv-x="1193" 
d="M807 1208h-168l-188 443h247zM522 -29q-237 0 -338 140q-100 139 -61 383l92 563h252l-98 -590q-18 -120 22 -193q39 -75 154 -75q114 0 186 70t94 200l99 588h247l-92 -561q-45 -270 -181 -397.5t-376 -127.5z" />
    <glyph glyph-name="uhungarumlaut.aalt" horiz-adv-x="1193" 
d="M911 1651l-280 -443h-152l195 443h237zM1325 1651l-410 -443h-170l332 443h248zM522 -29q-237 0 -338 140q-100 139 -61 383l92 563h252l-98 -590q-18 -120 22 -193q39 -75 154 -75q114 0 186 70t94 200l99 588h247l-92 -561q-45 -270 -181 -397.5t-376 -127.5z" />
    <glyph glyph-name="umacron.aalt" horiz-adv-x="1193" 
d="M412 1542h706l-33 -203h-708zM522 -29q-237 0 -338 140q-100 139 -61 383l92 563h252l-98 -590q-18 -120 22 -193q39 -75 154 -75q114 0 186 70t94 200l99 588h247l-92 -561q-45 -270 -181 -397.5t-376 -127.5z" />
    <glyph glyph-name="uni0122.salt" horiz-adv-x="1394" 
d="M823 805h625l-18 -115q-57 -366 -257 -545q-199 -178 -511 -178q-233 0 -386 150q-153 149 -153 446q0 181 56.5 340t159.5 284q102 123 268 197q165 72 368 72q131 0 263 -44q66 -22 117 -51.5t89 -66.5l-174 -200q-133 123 -332 123q-254 0 -401 -185
q-148 -185 -148 -430q0 -186 87 -284q87 -99 231 -99q166 0 284 96q117 95 158 275h-363zM700 -106q82 0 120 -60.5t22 -163.5q-45 -252 -318 -366l-63 121q161 66 213 174q-5 -1 -12 -1.5t-17 -0.5q-30 0 -54 10t-40 28.5t-22.5 46t-0.5 62.5q11 66 60 108q50 42 112 42z
" />
    <glyph glyph-name="uni0122.swash" horiz-adv-x="1376" 
d="M1012 334l41 262h254l-78 -492q-39 -251 -123 -391q-84 -139 -229 -217l-146 166q180 111 238 412q-151 -84 -361 -84q-258 0 -402 147q-145 145 -145 404q0 391 234 653q232 262 604 262q424 0 424 -387q0 -119 -33 -244h-243q27 87 26 164q0 221 -229 221
q-225 0 -369 -184q-145 -184 -145 -418q0 -183 87.5 -277.5t262.5 -94.5q184 0 332 98zM512 -104q82 0 120 -60.5t21 -163.5q-45 -252 -317 -366l-64 121q161 66 213 174q-5 -1 -12 -1.5t-16 -0.5q-30 0 -54 10t-40 28.5t-22.5 46t-0.5 62.5q11 66 60 108q50 42 112 42z" />
    <glyph glyph-name="uni0123.aalt" horiz-adv-x="1214" 
d="M602 418l27 196h518l-92 -577q-213 -66 -451 -66q-109 0 -199.5 23.5t-168.5 75.5q-78 51 -123 144.5t-45 223.5q-2 288 185 467q188 180 507 180q267 0 422 -131l-164 -192q-121 90 -281 90q-193 0 -300 -111q-107 -114 -103 -282q1 -127 84 -190q82 -64 207 -64
q121 0 215 31l30 182h-268zM535 -106q82 0 119.5 -60.5t21.5 -163.5q-45 -252 -318 -366l-63 121q161 66 213 174q-5 -1 -12 -1.5t-17 -0.5q-30 0 -54 10t-40 28.5t-22.5 46t-0.5 62.5q11 66 60 108q50 42 113 42z" />
    <glyph glyph-name="uni0136.swash" horiz-adv-x="1781" 
d="M1896 1425l-522 -528l281 -897h-297l-205 674l-229 -234l-74 -440h-256l201 1217h-84q-212 0 -319 -82.5t-107 -233.5q0 -211 276 -211l-29 -186q-220 0 -341 110q-121 109 -121 285q0 105 35 195t113 167t218.5 120.5t335.5 43.5h313l-104 -630l614 630h301zM1063 -106
q82 0 120 -60.5t21 -163.5q-45 -252 -317 -366l-64 121q161 66 213 174q-5 -1 -12 -1.5t-16 -0.5q-30 0 -54 10t-40 28.5t-22.5 46t-0.5 62.5q11 66 60 108q50 42 112 42z" />
    <glyph glyph-name="uni0137.aalt" horiz-adv-x="1114" 
d="M1171 1057l-419 -400l239 -657h-293l-159 453l-179 -170l-47 -283h-250l175 1057h251l-75 -449l465 449h292zM473 -106q82 0 120 -60.5t21 -163.5q-45 -252 -317 -366l-64 121q161 66 213 174q-5 -1 -12 -1.5t-16 -0.5q-30 0 -54 10t-40 28.5t-22.5 46t-0.5 62.5
q11 66 60 108q50 42 112 42z" />
    <glyph glyph-name="uni013B.swash" horiz-adv-x="1521" 
d="M895 231h567l-39 -231h-823l203 1217h-123q-212 0 -319 -82.5t-107 -233.5q0 -211 276 -211l-32 -186q-218 0 -339 110q-120 110 -120 285q0 105 36 195t113 167t217.5 120.5t335.5 43.5h353zM1006 -106q82 0 119.5 -60.5t21.5 -163.5q-45 -252 -318 -366l-63 121
q161 66 213 174q-5 -1 -12 -1.5t-17 -0.5q-30 0 -54 10t-40 28.5t-22 46t0 62.5q11 66 60 108q50 42 112 42z" />
    <glyph glyph-name="uni013C.aalt" horiz-adv-x="870" 
d="M350 219h457l-31 -219h-715l177 1057h251zM424 -106q82 0 120 -60.5t21 -163.5q-45 -252 -317 -366l-64 121q161 66 213 174q-5 -1 -12 -1.5t-16 -0.5q-30 0 -54 10t-40 28.5t-22.5 46t-0.5 62.5q11 66 60 108q50 42 112 42z" />
    <glyph glyph-name="uni0145.swash" horiz-adv-x="1906" 
d="M1683 1425h232l-238 -1425h-241l-443 985l-162 -985h-235l201 1217h-86q-212 0 -319 -82.5t-107 -233.5q0 -211 276 -211l-33 -186q-220 2 -338 111q-120 108 -120 284q0 105 35 195t113 167t218.5 120.5t335.5 43.5h299l447 -999zM1118 -106q82 0 120 -60.5t22 -163.5
q-45 -252 -318 -366l-63 121q161 66 213 174q-5 -1 -12 -1.5t-17 -0.5q-30 0 -54 10t-40 28.5t-22.5 46t-0.5 62.5q11 66 60 108q50 42 112 42z" />
    <glyph glyph-name="uni0146.aalt" horiz-adv-x="1208" 
d="M946 1057h228l-175 -1057h-235l-361 666l-110 -666h-230l175 1057h233l363 -674zM512 -106q82 0 120 -60.5t21 -163.5q-45 -252 -317 -366l-64 121q161 66 213 174q-5 -1 -12 -1.5t-16 -0.5q-30 0 -54 10t-40 28.5t-22.5 46t-0.5 62.5q11 66 60 108q50 42 112 42z" />
    <glyph glyph-name="uni0156.swash" horiz-adv-x="1777" 
d="M1782 1077q0 -178 -102 -304q-104 -126 -275 -177l250 -596h-301l-213 569h-226l-94 -569h-256l201 1202h-100q-400 0 -402 -297q0 -207 268 -207l-6 -211q-248 0 -367 120q-120 120 -120 302q0 105 31.5 193t101.5 164q70 75 196.5 117t303.5 42h708q402 0 402 -348z
M1020 1196l-70 -422h252q141 0 223 69q82 67 82 185q0 85 -52.5 126.5t-143.5 41.5h-291zM1061 -106q82 0 120 -60.5t21 -163.5q-45 -252 -317 -366l-64 121q161 66 213 174q-5 -1 -12 -1.5t-16 -0.5q-30 0 -54 10t-40 28.5t-22.5 46t-0.5 62.5q11 66 60 108q50 42 112 42z
" />
    <glyph glyph-name="uni0157.aalt" horiz-adv-x="1144" 
d="M1092 780q1 -66 -18.5 -122t-56.5 -102t-90.5 -79.5t-121.5 -54.5l205 -422h-295l-168 393h-170l-66 -393h-250l177 1057h510q167 0 254.5 -69.5t89.5 -207.5zM453 842l-43 -252h215q94 0 147 41t53 108q0 102 -133 103h-239zM492 -106q82 0 119.5 -60.5t21.5 -163.5
q-45 -252 -318 -366l-63 121q161 66 213 174q-5 -1 -12 -1.5t-17 -0.5q-30 0 -54 10t-40 28.5t-22.5 46t-0.5 62.5q11 66 60 108q50 42 113 42z" />
    <glyph glyph-name="uni0162.c2sc" horiz-adv-x="935" 
d="M510 0h-33l-108 -172q56 18 102 18q172 0 172 -172q0 -129 -93 -202q-93 -72 -231 -72q-154 0 -258 63l70 131q86 -53 184 -53q66 0 108 34t42 91q0 66 -72 66q-61 0 -104 -43l-115 43l148 268h-62l137 829h-299l31 228h860l-28 -228h-316z" />
    <glyph glyph-name="uni0162.swash" horiz-adv-x="1470" 
d="M975 0h-64l-90 -143q29 11 57.5 17t57.5 5q76 0 121 -42.5t45 -127.5q0 -142 -93 -215q-95 -74 -241 -74q-159 0 -244 68l70 137q10 -12 28 -23t41.5 -20t51 -14.5t57.5 -5.5q72 0 114 32.5t42 90.5q0 72 -72 71q-67 0 -119 -47l-112 43l141 248h-47l188 1200h-239
q-209 0 -314.5 -81t-105.5 -226q0 -203 274 -203l-28 -186q-218 0 -340 108q-121 106 -121 273q0 112 34 203.5t112 170.5q78 78 218.5 122t335.5 44h866l-32 -225h-404z" />
    <glyph glyph-name="uni01CD.swash" horiz-adv-x="1665" 
d="M1241 1577h-205l-174 453h172l133 -277l228 277h172zM1331 1425l228 -1425h-267l-45 338h-489l-152 -338h-256l584 1217h-215q-196 0 -305 -73q-111 -73 -111 -204q0 -197 227 -203l-77 -182q-181 1 -273 113q-92 110 -92 260q0 224 171 360q172 137 507 137h565z
M852 545h367l-84 626z" />
    <glyph glyph-name="uni01CE.aalt" horiz-adv-x="1105" 
d="M762 1208h-205l-174 451h172l133 -277l227 277h172zM494 1057h290l207 -1057h-262l-35 213h-391l-104 -213h-250zM399 408h265l-64 409z" />
    <glyph glyph-name="uni01CF.swash" horiz-adv-x="1038" 
d="M1198 2030h172l-326 -453h-204l-174 453h172l133 -277zM1042 1425l-233 -1425h-256l201 1217h-64q-212 0 -319 -82.5t-107 -233.5q0 -211 277 -211l-27 -186q-222 0 -344 110q-121 109 -121 285q0 105 36 195t113 167t217.5 120.5t336.5 43.5h290z" />
    <glyph glyph-name="uni01D0.aalt" horiz-adv-x="522" 
d="M641 1659h172l-326 -451h-204l-174 451h172l133 -277zM63 0l175 1057h249l-174 -1057h-250z" />
    <glyph glyph-name="uni01D1.swash" horiz-adv-x="1536" 
d="M1051 1577h-205l-174 453h172l133 -277l227 277h172zM1348 1114q154 -109 153 -364q0 -341 -227 -562t-576 -221q-285 0 -450 159q-166 159 -166 433q0 385 228 641q226 256 597 256q88 0 155.5 -22t113 -62.5t69 -98.5t23.5 -130q0 -25 -3 -50t-8 -51zM725 215
q224 0 372 141q148 139 148 351q0 115 -53 186q-77 -110 -219 -172q-144 -62 -311 -62l36 191q131 0 228 64q96 63 96 171q0 66 -42 102t-114 36q-224 0 -366 -181q-144 -181 -144 -430q0 -187 100 -291q99 -106 269 -106z" />
    <glyph glyph-name="uni01D2.aalt" horiz-adv-x="1310" 
d="M874 1208h-204l-174 451h172l133 -277l227 277h172zM1257 612q2 -272 -189 -458q-190 -187 -513 -187q-208 0 -347 118q-141 119 -142 351q-1 274 191 464t497 187q207 0 354 -117q148 -119 149 -358zM594 199q176 0 288 117q111 115 109 274q-1 129 -76 197
q-74 67 -192 67q-171 0 -280 -112q-111 -112 -109 -271q2 -137 72.5 -204.5t187.5 -67.5z" />
    <glyph glyph-name="uni01D3.swash" horiz-adv-x="1914" 
d="M1499 1577h-205l-174 453h172l133 -277l228 277h172zM1688 1425h254l-140 -831q-102 -627 -649 -627q-272 0 -386 179q-113 178 -67 458l101 613h-115q-200 0 -301.5 -70.5t-101.5 -206.5q0 -106 71 -167.5t203 -61.5l-31 -187q-219 0 -339 117q-121 117 -121 297
q0 99 34.5 181.5t109.5 154.5t211.5 111.5t326.5 39.5h342l-140 -845q-27 -166 28 -269q54 -104 204 -104q146 0 240 96.5t124 276.5z" />
    <glyph glyph-name="uni01D4.aalt" horiz-adv-x="1193" 
d="M819 1208h-205l-174 451h172l133 -277l228 277h172zM924 1057h247l-92 -561q-45 -270 -181 -397.5t-376 -127.5q-237 0 -338 140q-100 139 -61 383l92 563h252l-98 -590q-18 -120 22 -193q39 -75 154 -75q114 0 186 70t94 200z" />
    <glyph glyph-name="uni0218.swash" horiz-adv-x="1097" 
d="M1073 915l-229 3q26 77 24 141q0 166 -166 166q-106 0 -173 -64q-68 -65 -68 -162q0 -83 56 -150q28 -34 73 -70.5t108 -78.5q139 -84 220 -179q79 -92 79 -232q0 -176 -128 -262t-314 -86q-346 0 -553 247l115 234q42 -57 92.5 -103t107 -78.5t118.5 -49.5t126 -17
q81 0 126.5 32t45.5 95q0 62 -45 105q-23 22 -60 48t-89 58q-166 96 -252 209t-86 264q0 201 153 336q152 135 391 135q160 0 263 -79q102 -79 102 -249q0 -92 -37 -213zM487 -106q82 0 120 -60.5t22 -163.5q-45 -252 -318 -366l-63 121q161 66 213 174q-5 -1 -12 -1.5
t-17 -0.5q-30 0 -54 10t-40 28.5t-22.5 46t-0.5 62.5q11 66 60 108q50 42 112 42z" />
    <glyph glyph-name="uni0219.aalt" horiz-adv-x="948" 
d="M545 633q70 -20 109 -39q20 -10 43.5 -23.5t51.5 -30.5q109 -73 109 -221q2 -170 -120 -259t-324 -89q-237 0 -404 119l84 215q123 -123 330 -123q39 0 71 9.5t55 26.5t35.5 41t12.5 52q0 24 -9.5 42t-29.5 33t-51.5 27.5t-75.5 26.5q-300 90 -301 324q0 144 110 233
q109 88 322 88q211 0 381 -86l-123 -204q-123 80 -268 79q-75 0 -119.5 -29.5t-42.5 -78.5q0 -51 35 -77q35 -28 119 -56zM412 -106q82 0 119.5 -60.5t21.5 -163.5q-45 -252 -317 -366l-64 121q161 66 213 174q-5 -1 -12 -1.5t-17 -0.5q-30 0 -54 10t-40 28.5t-22 46t0 62.5
q11 66 60 108q50 42 112 42z" />
    <glyph glyph-name="uni021A.swash" horiz-adv-x="1470" 
d="M1599 1425l-32 -225h-404l-188 -1200h-256l188 1200h-239q-209 0 -314.5 -81t-105.5 -226q0 -203 274 -203l-28 -186q-218 0 -340 108q-121 106 -121 273q0 112 34 203.5t112 170.5q78 78 218.5 122t335.5 44h866zM827 -106q82 0 120 -60.5t22 -163.5q-45 -252 -318 -366
l-63 121q161 66 213 174q-5 -1 -12 -1.5t-17 -0.5q-30 0 -54 10t-40 28.5t-22.5 46t-0.5 62.5q11 66 60 108q50 42 112 42z" />
    <glyph glyph-name="uni021B.aalt" horiz-adv-x="935" 
d="M989 1057l-28 -228h-316l-135 -829h-250l137 829h-299l31 228h860zM365 -106q82 0 119.5 -60.5t21.5 -163.5q-45 -252 -318 -366l-63 121q161 66 213 174q-5 -1 -12 -1.5t-17 -0.5q-30 0 -54 10t-40 28.5t-22 46t0 62.5q11 66 60 108q50 42 112 42z" />
    <glyph glyph-name="uni0302.aalt" 
d="M74 1126h-172l-133 277l-228 -277h-172l326 451h205z" />
    <glyph glyph-name="uni0304.aalt" 
d="M-625 1231l35 203h707l-33 -203h-709z" />
    <glyph glyph-name="uni0306.aalt" 
d="M-580 1559h191q-49 -257 125 -259q176 0 209 259h192q-25 -208 -133.5 -314t-292.5 -106t-261 106.5t-30 313.5z" />
    <glyph glyph-name="uni0307.aalt" 
d="M-188 1305q7 59 58 104q49 43 110 43q62 0 96 -43t24 -104q-7 -58 -58 -102q-50 -44 -110 -44q-61 0 -96 44t-24 102z" />
    <glyph glyph-name="uni0308.aalt" 
d="M-477 1159q-60 0 -94 42q-35 43 -25 102q11 60 58 101q49 42 108 42q58 0 93 -42q34 -41 23 -101q-11 -61 -58 -102q-48 -42 -105 -42zM-66 1159q-60 0 -94 42q-35 43 -25 102q11 59 59 101t108 42q62 0 96 -42q35 -43 25 -101q-10 -59 -59 -102q-50 -42 -110 -42z" />
    <glyph glyph-name="uni030A.aalt" 
d="M-412 1366q19 115 103 187q84 69 204 69q121 0 181 -71q59 -73 41 -185q-19 -112 -102 -183t-205 -71q-121 0 -181 70q-59 69 -41 184zM-77 1277q39 32 46 89t-18 91t-78 34q-54 0 -91.5 -34t-45.5 -91q-10 -55 16 -88t80 -33q53 0 91 32z" />
    <glyph glyph-name="uni030B.aalt" 
d="M-272 1567l-283 -441h-152l195 441h240zM168 1567l-410 -441h-170l334 441h246z" />
    <glyph glyph-name="uni030C.aalt" 
d="M-31 1581h172l-325 -453h-205l-174 453h172l133 -276z" />
    <glyph glyph-name="uni0326.aalt" 
d="M-356 -106q82 0 119.5 -60.5t21.5 -163.5q-45 -252 -317 -366l-64 121q160 66 213 174q-5 -1 -12 -1.5t-17 -0.5q-30 0 -54 10t-40 28.5t-22 46t0 62.5q11 67 59 108q49 42 113 42z" />
    <glyph glyph-name="uni0327.aalt" 
d="M-336 -98q76 0 121 -42.5t45 -127.5q0 -142 -93 -215q-94 -74 -241 -74q-159 0 -244 68l70 137q10 -12 28 -23.5t41.5 -20.5t51 -14.5t57.5 -5.5q72 0 114 33t42 90q0 72 -72 72q-67 0 -119 -47l-112 43l166 291h147l-117 -187q60 23 115 23z" />
    <glyph glyph-name="uni0328.aalt" 
d="M-483 -555q-103 0 -154 48t-51 130q0 156 130 276q129 120 329 197l86 -49q-318 -163 -320 -340q0 -82 80 -82q79 0 168 53l12 -163q-139 -70 -280 -70z" />
    <glyph glyph-name="uogonek.aalt" horiz-adv-x="1193" 
d="M924 1057h247l-92 -561q-66 -409 -356 -498q-273 -155 -283 -305q-5 -86 82 -86q76 0 170 49l13 -164q-141 -66 -281 -65q-113 0 -164 56t-41 146q13 192 258 344q-213 14 -302 152t-52 369l92 563h252l-98 -590q-18 -120 22 -193q39 -75 154 -75q114 0 186 70t94 200z
" />
    <glyph glyph-name="uring.aalt" horiz-adv-x="1193" 
d="M766 1249q-52 0 -93.5 15t-70 41.5t-44 64t-15.5 82.5q0 133 90 220t223 87q105 0 164 -58q59 -59 59 -151q0 -125 -88 -213t-225 -88zM782 1372q62 0 112 44q48 44 48 116q0 51 -28.5 78.5t-77.5 27.5q-66 0 -110 -47t-44 -118q0 -48 27.5 -74.5t72.5 -26.5zM522 -29
q-237 0 -338 140q-100 139 -61 383l92 563h252l-98 -590q-18 -120 22 -193q39 -75 154 -75q114 0 186 70t94 200l99 588h247l-92 -561q-45 -270 -181 -397.5t-376 -127.5z" />
    <glyph glyph-name="v.aalt" horiz-adv-x="1189" 
d="M971 1057h260l-580 -1057h-295l-194 1057h266l104 -615q5 -51 15 -202q20 54 43 106t49 105z" />
    <glyph glyph-name="w.salt" horiz-adv-x="1406" 
d="M1307 973h239l-461 -975l-249 2l-88 412l-250 -410h-232l-92 979l242 -2l37 -735l241 428l-65 305h235v-2h230l-179 -291l82 -455z" />
    <glyph glyph-name="wacute.aalt" horiz-adv-x="1683" 
d="M1366 1651l-334 -443h-168l256 443h246zM1462 1057h258l-450 -1057h-303l-64 492q-3 38 -5.5 96.5t-4.5 138.5q-23 -66 -47 -124t-47 -109l-250 -494h-297l-74 1057h268l27 -563q-2 -60 -5.5 -114t-8.5 -104l37.5 97.5t33.5 83.5l297 596h250l76 -566q8 -62 12 -190
l56 170z" />
    <glyph glyph-name="wcircumflex.aalt" horiz-adv-x="1683" 
d="M1022 1485l-225 -277h-172l323 451h205l176 -451h-172zM1462 1057h258l-450 -1057h-303l-64 492q-3 38 -5.5 96.5t-4.5 138.5q-23 -66 -47 -124t-47 -109l-250 -494h-297l-74 1057h268l27 -563q-2 -60 -5.5 -114t-8.5 -104l37.5 97.5t33.5 83.5l297 596h250l76 -566
q8 -62 12 -190l56 170z" />
    <glyph glyph-name="wdieresis.aalt" horiz-adv-x="1683" 
d="M879 1352q-49 -41 -107 -41t-93 41q-34 40 -26 98q11 60 59 101q48 42 108 42q59 0 92 -42q32 -43 22 -101q-7 -57 -55 -98zM1214 1311q-58 0 -93 41q-34 40 -23 98q8 59 56 101t108 42q59 0 93 -42q35 -42 24 -101q-10 -58 -59 -99q-49 -40 -106 -40zM1462 1057h258
l-450 -1057h-303l-64 492q-3 38 -5.5 96.5t-4.5 138.5q-23 -66 -47 -124t-47 -109l-250 -494h-297l-74 1057h268l27 -563q-2 -60 -5.5 -114t-8.5 -104l37.5 97.5t33.5 83.5l297 596h250l76 -566q8 -62 12 -190l56 170z" />
    <glyph glyph-name="wgrave.aalt" horiz-adv-x="1683" 
d="M1061 1208h-168l-188 443h247zM1462 1057h258l-450 -1057h-303l-64 492q-3 38 -5.5 96.5t-4.5 138.5q-23 -66 -47 -124t-47 -109l-250 -494h-297l-74 1057h268l27 -563q-2 -60 -5.5 -114t-8.5 -104l37.5 97.5t33.5 83.5l297 596h250l76 -566q8 -62 12 -190l56 170z" />
    <glyph glyph-name="x.aalt" horiz-adv-x="1110" 
d="M1133 1057l-390 -514l242 -543h-270l-180 408l-285 -408h-281l412 567l-229 490h272l164 -379l272 379h273z" />
    <glyph glyph-name="y.aalt" horiz-adv-x="1058" 
d="M1130 1057l-489 -721l-57 -336h-250l59 354l-258 703h273l147 -469l303 469h272z" />
    <glyph glyph-name="yacute.aalt" horiz-adv-x="1058" 
d="M1038 1651l-333 -443h-168l256 443h245zM1130 1057l-489 -721l-57 -336h-250l59 354l-258 703h273l147 -469l303 469h272z" />
    <glyph glyph-name="ycircumflex.aalt" horiz-adv-x="1058" 
d="M694 1485l-225 -277h-172l324 451h204l176 -451h-172zM1130 1057l-489 -721l-57 -336h-250l59 354l-258 703h273l147 -469l303 469h272z" />
    <glyph glyph-name="ydieresis.aalt" horiz-adv-x="1058" 
d="M551 1352q-47 -41 -106 -41t-94 41q-34 40 -25 98q11 60 58 101q48 42 108 42q59 0 92 -42q32 -43 22 -101q-7 -57 -55 -98zM887 1311q-58 0 -93 41t-24 98q8 59 56 101t108 42q59 0 93 -42q35 -42 24 -101q-10 -58 -59 -99q-47 -40 -105 -40zM1130 1057l-489 -721
l-57 -336h-250l59 354l-258 703h273l147 -469l303 469h272z" />
    <glyph glyph-name="ygrave.aalt" horiz-adv-x="1058" 
d="M733 1208h-168l-188 443h248zM1130 1057l-489 -721l-57 -336h-250l59 354l-258 703h273l147 -469l303 469h272z" />
    <glyph glyph-name="z.aalt" horiz-adv-x="978" 
d="M999 1057l-26 -211l-617 -629l543 2l-31 -219h-862l31 209l612 633h-516l31 215h835z" />
    <glyph glyph-name="zacute.aalt" horiz-adv-x="978" 
d="M1018 1651l-334 -443h-168l256 443h246zM133 842l31 215h835l-26 -211l-617 -629l543 2l-31 -219h-862l31 209l612 633h-516z" />
    <glyph glyph-name="zcaron.aalt" horiz-adv-x="978" 
d="M725 1208h-205l-174 451h172l133 -277l228 277h172zM133 842l31 215h835l-26 -211l-617 -629l543 2l-31 -219h-862l31 209l612 633h-516z" />
    <glyph glyph-name="zdotaccent.aalt" horiz-adv-x="978" 
d="M753 1285q-52 -44 -114 -44q-63 0 -98 44q-35 45 -25 106q8 62 60 105q52 44 113 44q60 0 98 -44q36 -44 26 -105q-11 -63 -60 -106zM999 1057l-26 -211l-617 -629l543 2l-31 -219h-862l31 209l612 633h-516l31 215h835z" />
    <glyph glyph-name="zero.oldstyle" horiz-adv-x="1204" 
d="M500 -31q-206 0 -325 115q-120 116 -120 340q0 276 183 471q182 195 485 195q189 0 313 -112q125 -113 125 -345q0 -271 -173 -468q-172 -196 -488 -196zM526 170q172 0 283 135t111 318q0 137 -63 203q-65 65 -163 65q-175 0 -284 -136q-111 -136 -111 -315
q0 -270 227 -270z" />
    <glyph glyph-name="zero.oldstyle.case" horiz-adv-x="1323" 
d="M567 -33q-226 0 -356 145q-131 145 -131 420q0 251 92 462q91 209 265 336q173 126 392 126q209 0 345 -136q135 -136 135 -425q0 -181 -49 -346t-140 -296q-89 -129 -233 -208q-144 -78 -320 -78zM602 213q189 0 313 195q125 194 125 466q0 175 -68 258q-69 82 -179 82
q-186 0 -314 -194q-129 -195 -129 -457q0 -350 252 -350z" />
    </font>
</defs>
</svg>
