<?xml version="1.0" standalone="no"?>
<!DOCTYPE svg PUBLIC "-//W3C//DTD SVG 1.1//EN" "http://www.w3.org/Graphics/SVG/1.1/DTD/svg11.dtd" >
<svg xmlns="http://www.w3.org/2000/svg" xmlns:xlink="http://www.w3.org/1999/xlink" version="1.1">
<metadata>
Created by FontForge 20230101 at Wed Jul 26 10:39:03 2017
 By Pablo Velazquez
Copyright (c) 2017 by Emil Bertell. All rights reserved.
</metadata>
<defs>
<font id="Karu-Regular" horiz-adv-x="0" >
  <font-face 
    font-family="Karu Regular"
    font-weight="400"
    font-stretch="normal"
    units-per-em="2048"
    panose-1="0 0 5 0 0 0 0 0 0 0"
    ascent="1638"
    descent="-410"
    x-height="973"
    cap-height="1421"
    bbox="-881 -653 2439 2116"
    underline-thickness="0"
    underline-position="0"
    unicode-range="U+000D-FB02"
  />
<missing-glyph horiz-adv-x="1013" 
d="M831 1524v-2026h-643v2026h643zM676 1389h-336v-68h133v-74h-135v-67h338v67h-135v74h135v68zM541 1126h-203v-211h338v70h-135v141zM473 1059v-74h-67v74h67zM676 862h-338v-67h135v-76h-135v-66h203v142h135v67zM676 739h-68v-133h-270v-69h338v202zM676 494h-203v-115
h68v47h67v-96h-202v164h-68v-230h338v230zM676 141h-338v-227h338v227zM608 76v-96h-202v96h202zM676 -133h-338v-68h143l-143 -94v-67h338v67h-207l141 94h66v68z" />
    <glyph glyph-name="uniFB01" unicode="fi" horiz-adv-x="1097" 
d="M371 1157v-184h274v-125h-274v-848h-160v848h-152v125h152v192q0 389 352 389q184 0 305 -79l-59 -127q-97 71 -231 69q-207 0 -207 -260zM774 973h160v-973h-160v973z" />
    <glyph glyph-name="uniFB02" unicode="fl" horiz-adv-x="1062" 
d="M584 1554q200 0 344 -67v-1487h-160v1393q-36 11 -78.5 17t-93.5 5q-98 0 -161 -60q-64 -61 -64 -190v-192h274v-125h-274v-848h-160v848h-152v125h152v192q0 206 101 298q100 91 272 91z" />
    <glyph glyph-name="f_b.liga" unicode="fb" horiz-adv-x="1781" 
d="M1292 1004q178 0 299 -133t121 -386q0 -250 -127 -383t-311 -133q-236 0 -346 203v-172h-160v1391q-75 27 -168 26q-51 0 -93 -15.5t-72.5 -47t-47 -80.5t-16.5 -115v-186h274v-125h-274v-848h-160v848h-152v125h152v186q0 109 29.5 188.5t85.5 124.5t122 63.5t148 18.5
q202 0 332 -67v-686q125 203 364 203zM1241 115q129 0 220 93q91 92 91 277q0 187 -88 281t-211 94q-112 0 -194 -63.5t-131 -178.5v-262q43 -118 123.5 -179.5t189.5 -61.5z" />
    <glyph glyph-name="f_f_i.liga" unicode="ffi" horiz-adv-x="1744" 
 />
    <glyph glyph-name="f_f_l.liga" unicode="ffl" horiz-adv-x="1695" 
d="M371 1214v-241h274v-125h-274v-848h-160v848h-152v125h152v258q0 168 74.5 245.5t206.5 77.5q175 0 284 -84l-53 -118q-72 63 -195 63q-157 0 -157 -201zM1217 1554q200 0 344 -67v-1487h-160v1393q-36 11 -78.5 17t-93.5 5q-98 0 -161 -60q-64 -61 -64 -190v-192h274
v-125h-274v-848h-160v848h-152v125h152v192q0 207 102 298q100 91 271 91z" />
    <glyph glyph-name="f_h.liga" unicode="fh" horiz-adv-x="1716" 
d="M1260 1004q76 0 137 -23.5t103.5 -70t65.5 -115.5t23 -160v-635h-159v596q0 136 -62 201q-63 63 -162 63q-184 0 -278 -205v-655h-160v1389q-72 27 -160 26q-54 0 -98 -15t-75 -46.5t-47.5 -80t-16.5 -116.5v-184h274v-125h-274v-848h-160v848h-152v125h152v190
q0 391 387 391q195 0 330 -67v-684q49 93 133 147t199 54z" />
    <glyph glyph-name="f_k.liga" unicode="fk" horiz-adv-x="1615" 
d="M1411 0l-278 496l-205 -226v-270h-160v1391q-74 26 -166 24q-112 0 -171.5 -61.5t-59.5 -182.5v-198h274v-125h-274v-848h-160v848h-152v125h152v203q0 99 25 170.5t73 117.5t118.5 68t162.5 22q42 0 87 -4.5t93 -12.5q95 -16 158 -50v-1022l448 508h193l-318 -346
l355 -627h-195z" />
    <glyph glyph-name=".notdef" horiz-adv-x="1013" 
d="M831 1524v-2026h-643v2026h643zM676 1389h-336v-68h133v-74h-135v-67h338v67h-135v74h135v68zM541 1126h-203v-211h338v70h-135v141zM473 1059v-74h-67v74h67zM676 862h-338v-67h135v-76h-135v-66h203v142h135v67zM676 739h-68v-133h-270v-69h338v202zM676 494h-203v-115
h68v47h67v-96h-202v164h-68v-230h338v230zM676 141h-338v-227h338v227zM608 76v-96h-202v96h202zM676 -133h-338v-68h143l-143 -94v-67h338v67h-207l141 94h66v68z" />
    <glyph glyph-name=".null" 
 />
    <glyph glyph-name="nonmarkingreturn" unicode="&#xd;" horiz-adv-x="512" 
 />
    <glyph glyph-name="space" unicode=" " horiz-adv-x="428" 
 />
    <glyph glyph-name="exclam" unicode="!" horiz-adv-x="565" 
d="M371 1421l-13 -1046h-153l-12 1046h178zM190 6q-38 38 -38 94t38 94q37 37 95 37q53 0 91 -38q38 -40 38 -93q0 -55 -38 -93t-91 -38q-58 0 -95 37z" />
    <glyph glyph-name="quotedbl" unicode="&#x22;" horiz-adv-x="667" 
d="M272 1524l-10 -580h-123l-37 580h170zM565 1524l-37 -580h-122l-11 580h170z" />
    <glyph glyph-name="numbersign" unicode="#" horiz-adv-x="1259" 
d="M1227 965h-211l-94 -441h208v-137h-239l-84 -387h-156l84 387h-397l-84 -387h-156l84 387h-149v137h180l96 441h-180v137h209l70 319h155l-69 -319h397l70 319h155l-69 -319h180v-137zM766 524l94 441h-395l-96 -441h397z" />
    <glyph glyph-name="dollar" unicode="$" horiz-adv-x="1026" 
d="M963 395q0 -158 -94 -251t-253 -117v-125h-147v118q-224 11 -418 148l47 151q169 -134 371 -145v485q-178 57 -269 152.5t-91 251.5q0 146 94 237q95 92 266 105v131h147v-133q174 -18 324 -111l-61 -141q-124 84 -263 102v-467q39 -15 72 -28.5t62.5 -29t56 -33
t51.5 -40.5q51 -45 78 -110t27 -150zM276 1067q0 -88 48 -142.5t145 -90.5v421q-93 -12 -143 -59.5t-50 -128.5zM616 184q85 23 133 73.5t48 131.5q0 84 -46 135t-135 86v-426z" />
    <glyph glyph-name="percent" unicode="%" horiz-adv-x="1673" 
d="M53 1110q0 152 95 247t244 95t242 -95q93 -94 93 -247q0 -152 -93 -248t-242 -96t-244 96q-95 97 -95 248zM1200 1421l-557 -1421h-162l557 1421h162zM612 1110q0 95 -61 163q-62 68 -161 68q-98 0 -160 -68q-62 -70 -62 -164t62 -162t162 -68t160 68t60 163zM944 313
q0 151 95 248q95 96 244 96t243 -96q94 -95 94 -248t-94 -248q-94 -96 -243 -96t-244 96q-95 97 -95 248zM1503 313q0 97 -61 165q-61 69 -160 69q-97 0 -159 -68q-62 -70 -62 -164q0 -97 61 -164q60 -69 160 -69t161 69q60 68 60 162z" />
    <glyph glyph-name="ampersand" unicode="&#x26;" horiz-adv-x="1273" 
d="M1221 696q0 -312 -181 -512l166 -184h-196l-80 90q-175 -121 -428 -121q-197 0 -308 93q-112 91 -112 253q0 267 307 385q-94 110 -142 205t-48 205q0 80 25.5 143.5t75.5 107.5t123 67.5t167 23.5q177 0 281 -89q102 -88 102 -251q0 -286 -369 -438l340 -381
q131 157 131 403h146zM586 1313q-109 0 -172 -57q-64 -58 -64 -150q0 -152 168 -338l10 -12q299 128 299 334q0 50 -16 91t-47 70.5t-76 45.5t-102 16zM520 109q176 0 314 90l-371 415q-117 -49 -169 -113.5t-52 -162.5q0 -106 76 -167q76 -62 202 -62z" />
    <glyph glyph-name="quotesingle" unicode="'" horiz-adv-x="374" 
d="M272 1524l-24 -580h-123l-23 580h170z" />
    <glyph glyph-name="parenleft" unicode="(" horiz-adv-x="542" 
d="M377 1722l127 -75q-242 -407 -242 -1002t242 -1001l-127 -76q-134 202 -207 488q-74 288 -74 589q0 302 74 590q73 286 207 487z" />
    <glyph glyph-name="parenright" unicode=")" horiz-adv-x="544" 
d="M166 -432l-129 76q244 406 244 1001q0 602 -244 1008l129 73q132 -201 206 -487q74 -291 74 -594q0 -301 -74 -589q-38 -145 -89 -266t-117 -222z" />
    <glyph glyph-name="asterisk" unicode="*" horiz-adv-x="919" 
d="M842 1194l-303 -90l204 -270l-116 -66l-158 303l-156 -303l-116 66l202 268l-311 92l47 125l293 -143l-33 325h135l-24 -323l289 141z" />
    <glyph glyph-name="plus" unicode="+" horiz-adv-x="1103" 
d="M997 760v-142h-372v-407h-148v407h-373v142h373v387h148v-387h372z" />
    <glyph glyph-name="comma" unicode="," horiz-adv-x="479" 
d="M233 223q66 0 104 -51.5t38 -151.5q0 -154 -72 -278q-72 -122 -192 -178l-60 86q190 103 213 323q-16 -4 -39 -4q-49 0 -82.5 34t-33.5 91t35 93t89 36z" />
    <glyph glyph-name="hyphen" unicode="-" horiz-adv-x="813" 
d="M63 502v137h687v-137h-687z" />
    <glyph glyph-name="period" unicode="." horiz-adv-x="489" 
d="M150 6q-37 37 -37 94t37 94q36 37 94 37q53 0 91 -38q38 -40 38 -93q0 -55 -38 -93t-91 -38q-57 0 -94 37z" />
    <glyph glyph-name="slash" unicode="/" horiz-adv-x="927" 
d="M868 1661l-647 -1890h-162l648 1890h161z" />
    <glyph glyph-name="zero" unicode="0" horiz-adv-x="1312" 
d="M664 -31q-270 0 -426 201t-156 553q0 338 160 534q159 195 422 195q262 0 415 -192q152 -194 152 -537q0 -359 -148 -556q-148 -198 -419 -198zM664 129q187 0 290 157q103 155 103 437q0 271 -103 420q-104 149 -290 149t-297 -151t-111 -418q0 -278 110 -436t298 -158z
" />
    <glyph glyph-name="one" unicode="1" horiz-adv-x="505" 
d="M346 1421v-1421h-166v1278h-123v143h289z" />
    <glyph glyph-name="two" unicode="2" horiz-adv-x="1056" 
d="M307 150h727v-150h-942v137l289 287q87 84 152.5 160t111.5 148q92 143 92 286q0 128 -75 201q-76 73 -195 73q-186 0 -371 -149l-84 127q218 180 480 180q183 0 304 -107q119 -108 119 -303q0 -99 -30.5 -193t-90.5 -182q-31 -44 -61 -82.5t-59 -72.5q-30 -34 -66.5 -71
t-79.5 -79z" />
    <glyph glyph-name="three" unicode="3" horiz-adv-x="1050" 
d="M709 735q132 -33 215 -127q84 -94 84 -243q0 -196 -131 -297q-133 -101 -345 -101q-276 0 -485 185l82 131q101 -84 186 -120q86 -36 205 -36q133 0 221 67q88 66 88 197q0 141 -96 208q-95 67 -246 67h-100l2 125h94q128 0 219 74q89 74 89 202q0 115 -72 172t-195 57
q-205 0 -368 -145l-78 123q195 180 481 180q82 0 152.5 -19t129.5 -61t93.5 -112t34.5 -164q0 -131 -71 -226q-73 -97 -189 -137z" />
    <glyph glyph-name="four" unicode="4" horiz-adv-x="1181" 
d="M1153 428v-145h-221v-283h-164v283h-698v145l630 1006h232v-1006h221zM248 428h520v852z" />
    <glyph glyph-name="five" unicode="5" horiz-adv-x="1107" 
d="M614 858q178 0 288 -104q110 -105 110 -312q0 -233 -139 -353t-357 -120q-144 0 -264 52q-121 51 -199 126l72 140q164 -158 377 -158q138 0 236 83q96 83 96 234q0 143 -75 212t-194 69q-47 0 -88.5 -11t-77 -29.5t-64.5 -43t-50 -51.5l-123 45v784h756v-149h-596v-510
q122 96 292 96z" />
    <glyph glyph-name="six" unicode="6" horiz-adv-x="1220" 
d="M713 1296q-189 0 -308 -149q-118 -149 -118 -432q0 -23 1 -46t3 -48q47 115 152.5 182t271.5 67q198 0 317 -110q117 -111 117 -320q0 -210 -136 -340q-137 -131 -370 -131q-127 0 -226 45.5t-167 136t-103.5 227t-35.5 318.5q0 359 160 558q159 200 436 200
q226 0 389 -154l-97 -129q-121 127 -286 125zM676 737q-155 0 -252 -82q-98 -83 -98 -215q0 -128 89 -222q89 -93 228 -93q147 0 240 87q92 87 92 232q0 72 -21 127t-60 92t-94 55.5t-124 18.5z" />
    <glyph glyph-name="seven" unicode="7" horiz-adv-x="985" 
d="M27 1421h874l-448 -1421h-187l422 1270h-661v151z" />
    <glyph glyph-name="eight" unicode="8" horiz-adv-x="1224" 
d="M844 727q132 -37 205 -128.5t73 -227.5q0 -200 -137 -301t-372 -101q-236 0 -373 101q-138 101 -138 301q0 138 72.5 228.5t204.5 127.5q-51 21 -93 54t-71.5 77t-46 98.5t-16.5 118.5q0 170 118 275q118 104 343 104t343 -103q117 -103 117 -274q0 -64 -16.5 -119
t-47 -99t-72.5 -77.5t-93 -54.5zM909 1049q0 60 -20.5 106t-59 78t-93 48.5t-123.5 16.5q-138 0 -218 -66q-80 -68 -80 -183q0 -123 83 -197t214 -74q129 0 213 75t84 196zM365 594q-93 -67 -93 -195q0 -127 92 -198q92 -72 249 -72t248 72q91 70 91 198t-94 195
q-95 68 -246 68q-153 0 -247 -68z" />
    <glyph glyph-name="nine" unicode="9" horiz-adv-x="1222" 
d="M545 127q191 0 309 144q119 143 119 425q0 56 -6 111q-49 -111 -152.5 -177.5t-257.5 -66.5q-187 0 -305 110q-117 110 -117 316q0 209 131 337t355 128q249 0 388 -183q140 -185 140 -540q0 -374 -154 -567q-154 -195 -434 -195q-267 0 -455 172l91 138
q55 -69 145.5 -110.5t202.5 -41.5zM598 692q135 0 236 83q100 82 100 208q0 131 -86 223t-223 92q-144 0 -230 -85q-88 -85 -88 -228q0 -145 81 -219q82 -74 210 -74z" />
    <glyph glyph-name="colon" unicode=":" horiz-adv-x="641" 
d="M150 721q-37 37 -37 93q0 57 37 94q36 38 94 38q54 0 91 -39q38 -40 38 -93q0 -54 -38 -92t-91 -38q-57 0 -94 37zM150 12q-37 37 -37 94t37 94q36 38 94 38q54 0 91 -39q38 -40 38 -93q0 -55 -38 -93t-91 -38q-57 0 -94 37z" />
    <glyph glyph-name="semicolon" unicode=";" horiz-adv-x="602" 
d="M240 684q-28 0 -52.5 10t-41.5 27t-27 41t-10 52t9.5 52t27 42t41.5 28t53 10q54 0 91 -39q38 -40 38 -93q0 -54 -38 -92t-91 -38zM233 223q66 0 104 -51.5t38 -151.5q0 -154 -72 -278q-72 -122 -192 -178l-60 86q190 103 213 323q-16 -4 -39 -4q-49 0 -82.5 34t-33.5 91
t35 93t89 36z" />
    <glyph glyph-name="less" unicode="&#x3c;" horiz-adv-x="966" 
d="M858 1126v-159l-684 -293l684 -297v-160l-807 373v170z" />
    <glyph glyph-name="equal" unicode="=" horiz-adv-x="1114" 
d="M104 956h906v-139h-906v139zM104 500h906v-140h-906v140z" />
    <glyph glyph-name="greater" unicode="&#x3e;" horiz-adv-x="966" 
d="M106 1126l809 -366v-170l-809 -373v160l687 297l-687 293v159z" />
    <glyph glyph-name="question" unicode="?" horiz-adv-x="1019" 
d="M506 1452q82 0 153.5 -22t130.5 -67t91 -121t32 -175q0 -175 -100 -281q-101 -108 -268 -129l-4 -237h-154l-8 336h43q143 0 232 77t89 211q0 125 -77 190q-77 64 -193 64q-187 0 -342 -149l-78 117q78 78 196 132q119 54 257 54zM461 231q55 0 93 -38q38 -40 38 -93
q0 -55 -38 -93t-93 -38q-27 0 -51 10t-42 27t-28 41.5t-10 52.5t10 52t28 41.5t42 27.5t51 10z" />
    <glyph glyph-name="at" unicode="@" horiz-adv-x="1867" 
d="M1184 940h114v-491q0 -209 123 -209q86 0 136.5 85t50.5 271q0 181 -51 318.5t-142 221.5t-204.5 124t-247.5 40q-136 0 -258 -51t-219 -148t-154 -250q-58 -152 -58 -341q0 -153 42 -281t124 -227t213.5 -155t302.5 -56q154 0 274 27q123 29 236 88l33 -111
q-246 -119 -543 -119q-362 0 -583 219q-221 221 -221 617q0 211 67 382q67 175 178 286q112 113 257.5 174t308.5 61q159 0 293.5 -47.5t243.5 -144.5t170 -256.5t61 -370.5q0 -126 -30.5 -227.5t-105.5 -172.5q-76 -71 -186 -71q-87 0 -147 44.5t-84 125.5
q-45 -85 -123.5 -132.5t-177.5 -47.5q-147 0 -237 108q-91 106 -91 312q0 205 96 317q96 111 252 111q188 0 270 -175zM909 238q92 0 165 58t89 167v131q-16 127 -80.5 187.5t-156.5 60.5q-104 0 -172 -80t-68 -223q0 -145 64 -222q63 -79 159 -79z" />
    <glyph glyph-name="A" unicode="A" horiz-adv-x="1243" 
d="M1026 0l-117 344h-592l-110 -344h-164l469 1421h197l493 -1421h-176zM362 483h500l-256 762z" />
    <glyph glyph-name="B" unicode="B" horiz-adv-x="1286" 
d="M932 758q66 -12 119.5 -40.5t90.5 -72.5t57 -102.5t20 -130.5q0 -190 -121 -301t-340 -111h-565v1421h542q198 0 301 -84.5t103 -251.5q0 -115 -54 -199.5t-153 -127.5zM973 1055q0 219 -266 219h-349v-479h359q107 0 181 70q75 69 75 190zM758 147q134 0 213 73
q80 74 80 208q0 129 -79 190.5t-216 61.5h-398v-533h400z" />
    <glyph glyph-name="C" unicode="C" horiz-adv-x="1368" 
d="M717 -31q-297 0 -471 198t-174 544q0 341 199 540q198 199 505 199q308 0 514 -190l-96 -136q-167 164 -416 164q-233 0 -382 -155q-150 -156 -150 -420q0 -269 133 -424q134 -156 354 -156q317 0 492 252l88 -139q-201 -277 -596 -277z" />
    <glyph glyph-name="D" unicode="D" horiz-adv-x="1435" 
d="M604 1421q343 0 539 -171t196 -515q0 -353 -199 -543q-199 -192 -536 -192h-411v1421h411zM594 152q264 0 417 157q152 157 152 426q0 264 -149 401q-149 136 -420 136h-236v-1120h236z" />
    <glyph glyph-name="E" unicode="E" horiz-adv-x="1189" 
d="M1096 1272h-752v-457h600v-137h-600v-526h752v-152h-920v1421h920v-149z" />
    <glyph glyph-name="F" unicode="F" horiz-adv-x="1163" 
d="M1094 1272h-736v-465h584v-139h-584v-668h-165v1421h901v-149z" />
    <glyph glyph-name="G" unicode="G" horiz-adv-x="1392" 
d="M713 791h571v-717q-271 -103 -539 -105q-311 0 -494 197q-183 196 -183 545q0 343 193 542q192 199 493 199q332 0 530 -199l-104 -120q-160 160 -422 159q-229 0 -373 -158q-145 -158 -145 -423q0 -267 140 -424q140 -156 376 -156q204 0 360 68v452h-403v140z" />
    <glyph glyph-name="H" unicode="H" horiz-adv-x="1431" 
d="M1090 1421h165v-1421h-165v668h-746v-668h-168v1421h168v-602h746v602z" />
    <glyph glyph-name="I" unicode="I" horiz-adv-x="520" 
d="M344 1421v-1421h-168v1421h168z" />
    <glyph glyph-name="J" unicode="J" horiz-adv-x="919" 
d="M358 -31q-217 0 -352 150l49 170q21 -36 50 -66.5t66 -52.5t81 -34.5t94 -12.5q125 0 196 86q70 85 70 293v919h168v-909q0 -543 -422 -543z" />
    <glyph glyph-name="K" unicode="K" horiz-adv-x="1263" 
d="M1024 0l-422 758l-244 -275v-483h-165v1421h165v-714l631 714h199l-463 -524l498 -897h-199z" />
    <glyph glyph-name="L" unicode="L" horiz-adv-x="983" 
d="M176 1421h168v-1269h621v-152h-789v1421z" />
    <glyph glyph-name="M" unicode="M" horiz-adv-x="1714" 
d="M1536 0h-164v1120l-448 -1042h-138l-452 1046v-1124h-158v1421h193l493 -1104l477 1104h191z" />
    <glyph glyph-name="N" unicode="N" horiz-adv-x="1396" 
d="M1065 1421h156v-1421h-162l-725 1116v-1116h-158v1421h160l729 -1124v1124z" />
    <glyph glyph-name="O" unicode="O" horiz-adv-x="1521" 
d="M760 -31q-309 0 -500 203q-192 203 -192 551q0 335 196 532q195 197 496 197q146 0 271.5 -48.5t220.5 -141.5q95 -94 148.5 -232t53.5 -307q0 -353 -190 -553q-190 -201 -504 -201zM760 131q234 0 376 160t142 432q0 258 -144 414q-146 155 -374 155q-230 0 -373 -155
q-143 -157 -143 -414q0 -271 145 -431q144 -161 371 -161z" />
    <glyph glyph-name="P" unicode="P" horiz-adv-x="1208" 
d="M713 1421q221 0 341 -102t120 -309q0 -105 -31 -185t-90 -134t-144.5 -81.5t-195.5 -27.5h-355v-582h-165v1421h520zM702 729q69 0 124.5 19t93.5 55t58.5 87.5t20.5 117.5q0 132 -77 198t-222 66h-342v-543h344z" />
    <glyph glyph-name="Q" unicode="Q" horiz-adv-x="1521" 
d="M760 -31q-309 0 -500 203q-192 203 -192 551q0 335 196 532q195 197 496 197q146 0 271.5 -48.5t220.5 -141.5q95 -94 148.5 -232t53.5 -307q0 -353 -190 -553q-190 -201 -504 -201zM760 131q234 0 376 160t142 432q0 258 -144 414q-146 155 -374 155q-230 0 -373 -155
q-143 -157 -143 -414q0 -271 145 -431q144 -161 371 -161zM1321 -311h-739v133h739v-133z" />
    <glyph glyph-name="R" unicode="R" horiz-adv-x="1333" 
d="M1026 0l-358 604h-310v-604h-165v1421h550q105 0 188 -25.5t140.5 -75.5t88 -124.5t30.5 -173.5q0 -164 -91 -273q-92 -110 -253 -137l379 -612h-199zM358 1272v-529h373q65 0 117 18t89 53t57 85.5t20 116.5q0 129 -77 192.5t-208 63.5h-371z" />
    <glyph glyph-name="S" unicode="S" horiz-adv-x="1058" 
d="M510 -31q-259 0 -453 129l62 154q158 -125 387 -125q142 0 225 64q84 63 84 182q0 49 -17.5 89t-41.5 66q-24 25 -71 50q-23 12 -43.5 21.5t-39.5 16.5t-43.5 14.5t-56.5 16.5q-97 30 -171.5 69t-124 91.5t-75 119.5t-25.5 152q0 172 113 273q112 100 318 100
q242 0 436 -125l-78 -143q-156 116 -350 114q-128 0 -198.5 -55t-70.5 -158q0 -111 70 -171t209 -103q78 -25 132 -45q27 -11 55.5 -25t59.5 -31q62 -37 98 -79q38 -43 62.5 -107t24.5 -145q0 -203 -130 -306q-131 -104 -347 -104z" />
    <glyph glyph-name="T" unicode="T" horiz-adv-x="1024" 
d="M1028 1421v-151h-418v-1270h-166v1270h-417v151h1001z" />
    <glyph glyph-name="U" unicode="U" horiz-adv-x="1402" 
d="M702 -31q-246 0 -393 162t-147 444v846h166v-854q0 -201 105 -318q103 -118 269 -118q168 0 271 118q102 119 102 318v854h166v-846q0 -286 -146 -446q-147 -160 -393 -160z" />
    <glyph glyph-name="V" unicode="V" horiz-adv-x="1333" 
d="M1104 1421h170l-520 -1421h-197l-481 1421h178l346 -1040q5 -13 18 -60q7 -23 13 -45.5t11 -43.5t10 -39.5t10 -34.5q7 26 25.5 87t47.5 158z" />
    <glyph glyph-name="W" unicode="W" horiz-adv-x="1859" 
d="M1640 1421h172l-366 -1421h-197l-260 920q-31 107 -63 249q-20 -78 -37 -140.5t-31 -110.5l-287 -918h-194l-328 1421h178l230 -1063q11 -68 17.5 -108.5t8.5 -54.5q10 45 20 84.5t21 76.5l326 1051h168l293 -1034q22 -84 39 -170l7.5 35t9.5 50t9.5 51t7.5 36z" />
    <glyph glyph-name="X" unicode="X" horiz-adv-x="1226" 
d="M1174 0h-189l-375 647l-368 -647h-189l445 748l-424 673h186l356 -583l353 583h184l-422 -673z" />
    <glyph glyph-name="Y" unicode="Y" horiz-adv-x="1132" 
d="M1110 1421l-463 -843v-578h-166v573l-458 848h186l358 -688l359 688h184z" />
    <glyph glyph-name="Z" unicode="Z" horiz-adv-x="1075" 
d="M268 150h776v-150h-972v141l702 1131h-733v149h940v-139z" />
    <glyph glyph-name="bracketleft" unicode="[" horiz-adv-x="473" 
d="M424 1554h-156v-1822h156v-133h-315v2089h315v-134z" />
    <glyph glyph-name="backslash" unicode="\" horiz-adv-x="905" 
d="M868 -229h-161l-648 1890h162z" />
    <glyph glyph-name="bracketright" unicode="]" horiz-adv-x="473" 
d="M49 1688h316v-2089h-316v133h156v1822h-156v134z" />
    <glyph glyph-name="asciicircum" unicode="^" horiz-adv-x="1058" 
d="M983 719h-160l-291 684l-299 -684h-157l370 807h170z" />
    <glyph glyph-name="underscore" unicode="_" horiz-adv-x="987" 
d="M63 -174v119h859v-119h-859z" />
    <glyph glyph-name="grave" unicode="`" horiz-adv-x="1228" 
d="M403 1128h-114l-248 431h170z" />
    <glyph glyph-name="a" unicode="a" horiz-adv-x="1005" 
d="M494 1004q180 0 280 -98.5t100 -299.5v-606h-157v137q-54 -76 -140.5 -122t-195.5 -46q-136 0 -228 78t-92 227q0 158 99 237q97 79 241 79q183 0 316 -98v102q0 141 -67.5 205.5t-184.5 64.5q-170 0 -295 -80l-59 115q156 105 383 105zM426 86q53 0 98.5 13.5t82.5 38.5
t64.5 59t45.5 75v103q-116 104 -281 104q-95 0 -157 -52q-64 -52 -64 -148q0 -88 61 -140q61 -53 150 -53z" />
    <glyph glyph-name="b" unicode="b" horiz-adv-x="1148" 
d="M659 1004q178 0 299 -133t121 -386q0 -250 -127 -383t-311 -133q-236 0 -346 203v-172h-160v1524h160v-723q125 203 364 203zM608 115q130 0 221 93q91 92 91 277q0 187 -88 281t-211 94q-112 0 -195 -63.5t-131 -178.5v-262q43 -118 123.5 -179.5t189.5 -61.5z" />
    <glyph glyph-name="c" unicode="c" horiz-adv-x="968" 
d="M918 131q-147 -162 -392 -162q-206 0 -331 137t-125 381q0 239 135 378t342 139q208 0 362 -142l-100 -108q-27 24 -54 44t-58.5 33.5t-68 21t-81.5 7.5q-133 0 -225 -98q-93 -97 -93 -275q0 -180 87 -275t223 -95q165 0 284 125z" />
    <glyph glyph-name="d" unicode="d" horiz-adv-x="1146" 
d="M854 1524h160v-1524h-160v174q-129 -205 -367 -205q-182 0 -299 132q-118 131 -118 386q0 251 127 384t311 133q231 0 346 -189v709zM526 115q114 0 197 62.5t131 174.5v293q-42 105 -122 161t-189 56q-130 0 -221 -94q-93 -94 -93 -280q0 -188 85 -280q86 -93 212 -93z
" />
    <glyph glyph-name="e" unicode="e" horiz-adv-x="1015" 
d="M889 217l61 -119q-169 -129 -418 -129q-218 0 -340 137t-122 379q0 236 130 378q131 141 335 141q186 0 300 -126q113 -127 113 -372v-51h-719q8 -174 93.5 -258t226.5 -84q188 0 340 104zM528 874q-112 0 -194 -79q-84 -80 -101 -230h558q-12 158 -84 234
q-73 75 -179 75z" />
    <glyph glyph-name="f" unicode="f" horiz-adv-x="632" 
d="M528 1415q-158 0 -157 -201v-241h274v-125h-274v-848h-160v848h-152v125h152v258q0 168 74.5 245.5t206.5 77.5q175 0 284 -84l-53 -118q-72 63 -195 63z" />
    <glyph glyph-name="g" unicode="g" horiz-adv-x="925" 
d="M608 80q75 0 134.5 -19t101.5 -55t64 -88.5t22 -118.5q0 -164 -127 -248q-128 -83 -342 -83q-211 0 -324.5 71.5t-113.5 212.5q0 150 137 225q-115 57 -115 195q0 30 9 59.5t26 57t40.5 51t51.5 39.5q-100 100 -100 264q0 170 104 266q104 95 268 95q95 0 172 -31h293
v-121h-139q57 -85 57 -209q0 -170 -107 -268q-108 -99 -276 -99q-107 0 -190 43q-74 -51 -74 -124q0 -115 131 -115h297zM451 881q-102 0 -172 -61t-70 -179q0 -115 69 -177q68 -63 173 -63q104 0 173 63q68 62 68 177q0 118 -69 179q-70 61 -172 61zM461 -403q145 0 233 49
t88 147q0 76 -50.5 116t-135.5 40h-264q-78 -14 -123 -60.5t-45 -113.5q0 -90 80 -134t217 -44z" />
    <glyph glyph-name="h" unicode="h" horiz-adv-x="1083" 
d="M627 1004q75 0 135.5 -23.5t103 -70t65.5 -115.5t23 -160v-635h-159v596q0 69 -16 118.5t-45.5 82t-70 48t-90.5 15.5q-184 0 -278 -205v-655h-160v1524h160v-721q48 93 132.5 147t199.5 54z" />
    <glyph glyph-name="i" unicode="i" horiz-adv-x="479" 
d="M242 1208q-48 0 -79.5 31.5t-31.5 79.5t31.5 79.5t79.5 31.5q23 0 42.5 -9t34 -24t23 -35.5t8.5 -43.5t-8.5 -43t-23 -35t-34 -23.5t-42.5 -8.5zM160 0v973h159v-973h-159z" />
    <glyph glyph-name="j" unicode="j" horiz-adv-x="462" 
d="M155 1252q-26 24 -30.5 57t7.5 63t38.5 50t62.5 18q23 0 42.5 -8.5t34.5 -23.5t23.5 -35t8.5 -43t-8.5 -43t-23 -35t-34.5 -24t-43 -9q-46 0 -78 33zM145 -178v1151h160v-1151q0 -168 -68.5 -254t-211.5 -107l-45 138q165 18 165 223z" />
    <glyph glyph-name="k" unicode="k" horiz-adv-x="983" 
d="M778 0l-278 496l-205 -226v-270h-160v1524h160v-1059l448 508h193l-318 -346l355 -627h-195z" />
    <glyph glyph-name="l" unicode="l" horiz-adv-x="430" 
d="M295 1524v-1524h-160v1524h160z" />
    <glyph glyph-name="m" unicode="m" horiz-adv-x="1685" 
d="M1245 1004q72 0 129.5 -23.5t98 -70t62 -115.5t21.5 -160v-635h-159v598q0 68 -15 117t-42.5 80.5t-65 47t-82.5 15.5q-93 0 -160 -58.5t-102 -158.5v-6v-635h-160v598q0 135 -60 198q-62 62 -153 62q-170 0 -256 -201v-657h-160v973h160v-166q43 91 121.5 144t189.5 53
q115 0 195 -59t108 -177q39 105 124 170q86 66 206 66z" />
    <glyph glyph-name="n" unicode="n" horiz-adv-x="1093" 
d="M639 1004q147 0 237 -93q89 -95 89 -276v-635h-160v596q0 135 -61 199q-61 63 -158 63t-169.5 -53t-115.5 -150v-655h-160v973h160v-170q49 93 134.5 147t203.5 54z" />
    <glyph glyph-name="o" unicode="o" horiz-adv-x="1110" 
d="M906 107q-136 -138 -351 -138t-351 139q-136 137 -136 379q0 240 136 379q137 138 351 138q215 0 351 -138q136 -139 136 -379q0 -243 -136 -380zM324 213q94 -94 232 -94q139 0 233 97t94 273q0 175 -95 273q-96 98 -233 96q-142 -2 -233 -96q-93 -94 -93 -274t95 -275z
" />
    <glyph glyph-name="p" unicode="p" horiz-adv-x="1148" 
d="M662 1004q178 0 298 -132q119 -134 119 -387t-124 -384q-124 -132 -310 -132q-124 0 -211.5 55t-138.5 152v-678h-160v1475h160v-205q122 236 367 236zM612 117q127 0 218 93q90 93 90 275q0 183 -89 278q-90 93 -215 93q-112 0 -194 -64t-127 -182v-237
q42 -120 122.5 -188t194.5 -68z" />
    <glyph glyph-name="q" unicode="q" horiz-adv-x="1146" 
d="M854 973h160v-1475h-160v676q-60 -94 -153.5 -149.5t-213.5 -55.5q-182 0 -299 132q-118 131 -118 386q0 251 127 384t315 133q227 0 342 -187v156zM526 115q114 0 197 62.5t131 174.5v293q-42 105 -121 161t-188 56q-129 0 -222 -94q-94 -94 -94 -280q0 -188 85 -280
q86 -93 212 -93z" />
    <glyph glyph-name="r" unicode="r" horiz-adv-x="690" 
d="M612 1001q30 0 60 -8v-145q-137 20 -236 -63q-100 -82 -135 -259v-526h-160v973h160v-254q34 128 118 206q82 76 193 76z" />
    <glyph glyph-name="s" unicode="s" horiz-adv-x="841" 
d="M391 430q-163 39 -242 109q-81 69 -81 198q0 128 90.5 197.5t257.5 69.5q193 0 338 -78l-60 -121q-119 71 -272 69q-205 0 -205 -137q0 -63 52.5 -105t164.5 -71q76 -16 129.5 -37.5t102.5 -55.5q98 -67 98 -206q0 -140 -102 -217q-103 -76 -277 -76q-207 0 -332 78
l47 125q122 -74 283 -74q109 0 167 44t58 116q-5 52 -26 81t-70 52q-34 15 -56 21q-11 3 -27 7.5t-38 10.5z" />
    <glyph glyph-name="t" unicode="t" horiz-adv-x="739" 
d="M680 176l49 -125q-121 -82 -270 -82q-272 0 -273 340v539h-137v125h137v311h160v-311h313v-125h-313v-522q0 -213 150 -213q99 0 184 63z" />
    <glyph glyph-name="u" unicode="u" horiz-adv-x="1079" 
d="M778 973h160v-973h-160v170q-48 -93 -131 -147t-201 -54q-73 0 -132.5 23.5t-101.5 70t-64.5 115.5t-22.5 160v635h160v-594q0 -136 62 -200q61 -64 155 -64q185 0 276 202v656z" />
    <glyph glyph-name="v" unicode="v" horiz-adv-x="997" 
d="M809 973h174l-410 -973h-182l-377 973h170l303 -834z" />
    <glyph glyph-name="w" unicode="w" horiz-adv-x="1380" 
d="M1190 973h170l-289 -973h-160l-229 754l-248 -754h-158l-256 973h166l183 -770l243 770h148l229 -762z" />
    <glyph glyph-name="x" unicode="x" horiz-adv-x="890" 
d="M870 0h-172l-249 403l-254 -403h-172l329 489l-321 484h172l254 -398l231 398h174l-309 -479z" />
    <glyph glyph-name="y" unicode="y" horiz-adv-x="978" 
d="M791 973h170l-601 -1475h-167l217 508l-392 967h170l299 -789z" />
    <glyph glyph-name="z" unicode="z" horiz-adv-x="755" 
d="M211 129h522v-129h-698v127l481 719h-498v127h680v-125z" />
    <glyph glyph-name="braceleft" unicode="{" horiz-adv-x="647" 
d="M422 1597q-58 0 -102 -40q-46 -40 -46 -127q0 -64 31 -156q16 -48 31.5 -97t31.5 -102q31 -105 31 -198q0 -171 -133 -211q133 -43 133 -211q0 -96 -31 -199q-31 -106 -63 -198q-31 -92 -31 -156q0 -89 46 -129q46 -41 102 -41q89 0 162 32v-137q-51 -14 -102 -21.5
t-103 -6.5q-113 0 -190 68q-78 69 -78 210q0 80 66 280q65 201 65 283q0 85 -41.5 120.5t-137.5 35.5v139q94 0 136.5 36t42.5 118q0 84 -65 285q-66 198 -66 278q0 141 78 211q76 70 190 70q100 0 205 -29v-137q-72 30 -162 30z" />
    <glyph glyph-name="bar" unicode="|" horiz-adv-x="505" 
d="M334 1649v-1866h-160v1866h160z" />
    <glyph glyph-name="braceright" unicode="}" horiz-adv-x="647" 
d="M584 596q-94 0 -135 -35.5t-41 -120.5q0 -82 65 -283q64 -198 64 -280q0 -141 -77 -210q-77 -68 -192 -68q-103 0 -205 28v137q73 -33 162 -32q57 0 104 41q46 40 46 129q2 45 -18.5 111t-45.5 140.5t-45 153t-18 148.5q0 171 135 211q-135 41 -135 211q0 90 32 198
q32 105 63 198q32 94 32 157q0 87 -46 127t-104 40q-90 0 -162 -30v137q104 29 205 29q116 0 192 -70q77 -71 77 -211q0 -82 -64 -278q-65 -201 -65 -285q0 -82 40.5 -118t135.5 -36v-139z" />
    <glyph glyph-name="asciitilde" unicode="~" horiz-adv-x="962" 
d="M287 723q-57 0 -107.5 -32t-113.5 -89v150q107 116 225 114q59 0 129 -36q35 -19 69 -37.5t68 -37.5q68 -38 123 -38t105.5 30.5t111.5 90.5v-154q-100 -111 -231 -111q-64 0 -132 37q-35 19 -68 37.5t-65 37.5q-65 38 -114 38z" />
    <glyph glyph-name="exclamdown" unicode="&#xa1;" horiz-adv-x="565" 
d="M285 1014q53 0 91 -38t38 -92q0 -55 -38 -93q-37 -39 -91 -39q-28 0 -52.5 10t-42.5 27.5t-28 42t-10 52.5t10 52t28 41t42.5 27t52.5 10zM371 -438h-178l12 1046h153z" />
    <glyph glyph-name="cent" unicode="&#xa2;" horiz-adv-x="929" 
d="M899 389q-48 -49 -125.5 -84t-165.5 -47v-258h-147v256q-179 19 -286 156q-107 136 -107 362q0 210 110 349q110 137 283 167v240h147v-236q164 -14 287 -114l-76 -119q-101 78 -211 90v-748q134 18 223 111zM227 776q0 -156 63.5 -249t170.5 -117v727
q-105 -32 -169 -124q-65 -95 -65 -237z" />
    <glyph glyph-name="sterling" unicode="&#xa3;" horiz-adv-x="1124" 
d="M510 152h567v-152h-997v152h258q-6 29 -20.5 85.5t-37.5 141.5t-40 153.5t-27 122.5h-162v140h137q-12 98 -12 190q0 231 126 348t337 117q225 0 405 -123l-77 -137q-139 106 -312 106q-73 0 -130 -22.5t-95 -63.5t-58 -100t-20 -133q0 -43 2.5 -88.5t7.5 -93.5h519v-140
h-496q26 -139 102 -417z" />
    <glyph glyph-name="currency" unicode="&#xa4;" horiz-adv-x="1150" 
d="M1092 739q0 -227 -142 -368l131 -181l-120 -81l-130 176q-114 -56 -256 -58q-133 0 -241 52l-125 -170l-121 81l125 170q-154 142 -154 379t156 379l-127 170l121 84l127 -172q111 51 239 51q139 0 254 -57l132 178l120 -84l-133 -180q144 -144 144 -369zM213 741
q0 -174 106 -273q105 -99 256 -99q150 0 258 102q107 102 107 270t-107 270q-109 101 -258 101t-256 -98q-106 -99 -106 -273z" />
    <glyph glyph-name="yen" unicode="&#xa5;" horiz-adv-x="1286" 
d="M1153 1421l-354 -606h309v-137h-383v-217h383v-139h-383v-322h-168v322h-383v139h383v217h-383v137h309l-356 606h186l332 -600l324 600h184z" />
    <glyph glyph-name="brokenbar" unicode="&#xa6;" horiz-adv-x="505" 
d="M334 1649v-852h-160v852h160zM334 635v-852h-160v852h160z" />
    <glyph glyph-name="section" unicode="&#xa7;" horiz-adv-x="1136" 
d="M877 256q147 -88 147 -254q0 -139 -116 -232q-118 -92 -369 -92q-237 0 -424 101l61 133q143 -92 361 -92q325 0 323 180q0 84 -84 135q-85 52 -303 98q-178 43 -273.5 129.5t-95.5 233.5q0 99 53 168.5t146 97.5q-135 96 -135 273q0 139 105 227q103 88 331 88
q267 0 467 -94l-63 -137q-172 90 -404 90q-272 2 -272 -179q0 -90 68 -144q67 -54 251 -97q55 -13 100 -25.5t82 -25.5q70 -26 138 -68q66 -42 96.5 -101t30.5 -141q0 -101 -60 -175q-63 -75 -161 -97zM262 629q0 -92 64 -155q62 -63 231 -107q101 -25 168 -45
q93 -10 155 43q60 53 60 133q0 96 -77 152q-76 56 -294 108q-42 10 -78 21t-65 22q-81 -10 -122.5 -56t-41.5 -116z" />
    <glyph glyph-name="dieresis" unicode="&#xa8;" horiz-adv-x="1228" 
d="M72 1299q-25 22 -29.5 54t7 60.5t37 48t58.5 17.5q21 0 40.5 -8.5t33.5 -22.5t22.5 -33.5t8.5 -41.5t-8.5 -41t-22.5 -33.5t-33.5 -22.5t-40.5 -8q-43 0 -73 31zM499 1299q-15 15 -22.5 34.5t-7.5 39.5t7.5 40t22.5 35q28 31 74 31q45 0 75 -31q15 -15 22.5 -35t7.5 -40
t-7.5 -39.5t-22.5 -34.5q-30 -31 -75 -31q-46 0 -74 31z" />
    <glyph glyph-name="copyright" unicode="&#xa9;" horiz-adv-x="1832" 
d="M121 762q0 350 216 576q216 225 578 225q360 0 579 -231q218 -233 218 -570q0 -341 -217 -568q-217 -229 -580 -229q-367 0 -580 222q-214 220 -214 575zM1628 762q0 83 -15 159.5t-43 144.5t-68 126t-89 103q-99 91 -227 141.5t-271 50.5q-142 0 -269 -50.5t-226 -141.5
q-49 -45 -89 -103t-68 -126t-43 -144.5t-15 -159.5q0 -221 97 -387q98 -167 257 -249q161 -83 358 -83q99 0 189 21t168.5 62.5t143.5 103.5t113 145q97 166 97 387zM1274 426q-140 -119 -340 -119q-188 0 -304 122t-116 343q0 214 124 339q125 126 314 126q171 0 305 -98
l-81 -111q-92 68 -218 68q-123 0 -205 -85q-83 -86 -83 -239q0 -158 79 -240q78 -83 199 -83q143 0 248 90z" />
    <glyph glyph-name="guillemotleft" unicode="&#xab;" horiz-adv-x="1036" 
d="M45 508v141l479 379v-162l-374 -288l374 -302v-161zM997 1028v-162l-366 -288l366 -302v-161l-469 393v141z" />
    <glyph glyph-name="logicalnot" unicode="&#xac;" horiz-adv-x="1128" 
d="M1024 813v-471h-143v332h-779v139h922z" />
    <glyph glyph-name="registered" unicode="&#xae;" horiz-adv-x="1126" 
d="M201 1446q133 139 363 139q228 0 362 -140q133 -139 133 -360q0 -217 -133 -356t-363 -139q-228 0 -362 137q-133 136 -133 358t133 361zM563 653q183 0 305 116q121 115 121 316t-120 319q-121 118 -305 118q-185 0 -306 -118t-121 -319t121 -316q122 -116 305 -116z
M780 1200q0 -116 -106 -156l114 -202h-100l-98 188q-10 -2 -15 -2h-108v-186h-88v528h213q188 0 188 -170zM467 1102h92q127 0 127 94q0 49 -25.5 71.5t-82.5 22.5h-111v-188z" />
    <glyph glyph-name="macron" unicode="&#xaf;" horiz-adv-x="1228" 
d="M41 1432h692v-136h-692v136z" />
    <glyph glyph-name="degree" unicode="&#xb0;" horiz-adv-x="749" 
d="M375 807q-147 0 -235 91q-89 92 -89 235q0 146 88 235q89 90 236 90t235 -91t88 -234t-88 -234q-89 -92 -235 -92zM222 973q59 -60 154 -60q96 0 154 60q58 58 58 162q0 98 -59 160q-60 61 -154 61q-95 0 -153 -61q-60 -61 -60 -160q0 -102 60 -162z" />
    <glyph glyph-name="plusminus" unicode="&#xb1;" horiz-adv-x="1105" 
d="M479 489v306h-373v139h373v303h148v-303h372v-139h-372v-306h-148zM104 281h897v-140h-897v140z" />
    <glyph glyph-name="acute" unicode="&#xb4;" horiz-adv-x="1228" 
d="M401 1559l-247 -431h-113l192 431h168z" />
    <glyph glyph-name="paragraph" unicode="&#xb6;" horiz-adv-x="942" 
d="M588 1421h194v-1626h-164v719h-32q-117 0 -208 28.5t-153.5 86t-95.5 144.5t-33 204q0 444 492 444z" />
    <glyph glyph-name="periodcentered" unicode="&#xb7;" horiz-adv-x="489" 
d="M150 607q-37 37 -37 94q0 56 37 93q36 37 94 37q53 0 91 -38q38 -40 38 -93q0 -55 -38 -93t-91 -38q-56 0 -94 38z" />
    <glyph glyph-name="cedilla" unicode="&#xb8;" horiz-adv-x="1228" 
d="M410 -160q93 0 145.5 -50.5t52.5 -147.5q0 -115 -78 -176q-79 -60 -206 -60q-142 0 -240 72l43 94q27 -23 78 -43.5t114 -20.5q78 0 123 34t45 100q0 48 -28 78t-82 30q-83 0 -133 -53l-90 33l114 288h115l-92 -204q57 26 119 26z" />
    <glyph glyph-name="guillemotright" unicode="&#xbb;" horiz-adv-x="1036" 
d="M39 866v162l469 -379v-141l-469 -393v161l367 302zM512 1028l479 -379v-141l-479 -393v161l375 302l-375 288v162z" />
    <glyph glyph-name="questiondown" unicode="&#xbf;" horiz-adv-x="1019" 
d="M553 752q-53 0 -91 39q-38 38 -38 93q0 54 38 92t91 38q29 0 53 -10t41 -27t27 -41t10 -52t-10 -52.5t-27 -42t-41 -27.5t-53 -10zM883 -166l78 -117q-77 -79 -194 -132q-118 -54 -259 -54q-82 0 -153.5 22t-128.5 67q-58 45 -92 121t-34 175q0 173 101 282
q101 107 268 128l4 237h154l8 -336h-41q-144 0 -233 -76q-91 -76 -91 -212q0 -126 78 -190q77 -64 195 -64q188 -2 340 149z" />
    <glyph glyph-name="Agrave" unicode="&#xc0;" horiz-adv-x="1243" 
d="M659 1573h-118l-279 430h168zM1026 0l-117 344h-592l-110 -344h-164l469 1421h197l493 -1421h-176zM362 483h500l-256 762z" />
    <glyph glyph-name="Aacute" unicode="&#xc1;" horiz-adv-x="1243" 
d="M975 1993l-311 -420h-132l263 420h180zM1026 0l-117 344h-592l-110 -344h-164l469 1421h197l493 -1421h-176zM362 483h500l-256 762z" />
    <glyph glyph-name="Acircumflex" unicode="&#xc2;" horiz-adv-x="1243" 
d="M602 1874l-205 -313h-133l264 448h146l266 -448h-131zM1026 0l-117 344h-592l-110 -344h-164l469 1421h197l493 -1421h-176zM362 483h500l-256 762z" />
    <glyph glyph-name="Atilde" unicode="&#xc3;" horiz-adv-x="1243" 
d="M348 1546h-115q-16 396 170 398q39 0 79 -24q41 -24 66 -48q13 -13 28 -30t34 -40q17 -22 30.5 -37t22.5 -24q8 -10 20 -19.5t26 -19.5q29 -21 55 -21q91 0 86 261h117q14 -401 -181 -402q-55 0 -104 36.5t-107 102.5l-12 15q-17 19 -29 32.5t-20 21.5t-18 17t-21 18
q-25 17 -45 17q-87 0 -82 -254zM1026 0l-117 344h-592l-110 -344h-164l469 1421h197l493 -1421h-176zM362 483h500l-256 762z" />
    <glyph glyph-name="Adieresis" unicode="&#xc4;" horiz-adv-x="1243" 
d="M416 1622q-24 0 -44 8.5t-34.5 23.5t-22.5 35t-8 42q0 45 30.5 76.5t78.5 31.5q21 0 40.5 -8.5t34 -23t23 -34t8.5 -42.5q0 -22 -8.5 -42t-23 -35t-34 -23.5t-40.5 -8.5zM876 1654q-16 -16 -36 -24t-41 -8t-41 8t-35 24t-23 36t-8 41t8 41t23 36t35 24t41 8t41 -8t36 -24
t24 -36t8 -41t-8 -41t-24 -36zM1026 0l-117 344h-592l-110 -344h-164l469 1421h197l493 -1421h-176zM362 483h500l-256 762z" />
    <glyph glyph-name="Aring" unicode="&#xc5;" horiz-adv-x="1243" 
d="M606 1565q-111 0 -176 66q-65 65 -65 169q0 106 67 173q66 67 174 67q111 0 178 -67q66 -67 66 -172t-65 -170q-66 -66 -179 -66zM606 1944q-60 0 -97.5 -40t-37.5 -104q0 -63 37 -101t100 -38t99 36.5t36 102.5q0 69 -38 106.5t-99 37.5zM1026 0l-117 344h-592
l-110 -344h-164l469 1421h197l493 -1421h-176zM362 483h500l-256 762z" />
    <glyph glyph-name="AE" unicode="&#xc6;" horiz-adv-x="1677" 
d="M1583 1272l-602 2l18 -459h433v-137h-428l22 -526h557v-152h-721l-12 344h-512l-143 -344h-166l594 1421h960v-149zM844 483l-31 791h-90l-328 -791h449z" />
    <glyph glyph-name="Ccedilla" unicode="&#xc7;" horiz-adv-x="1368" 
d="M1313 246q-180 -248 -520 -273l-66 -145q56 27 121 27q93 0 146 -51t53 -148q0 -117 -79 -178q-79 -60 -208 -60q-141 0 -240 72l45 96q12 -12 32 -23.5t45 -20.5t54.5 -15t61.5 -6q78 0 123 34.5t45 98.5q0 48 -29.5 78t-83.5 30q-82 0 -133 -53l-88 35l90 227
q-282 12 -446 209t-164 531q0 341 199 540q198 199 505 199q308 0 514 -190l-96 -136q-167 164 -416 164q-233 0 -382 -155q-150 -156 -150 -420q0 -269 133 -424q134 -156 354 -156q317 0 492 252z" />
    <glyph glyph-name="Egrave" unicode="&#xc8;" horiz-adv-x="1189" 
d="M641 1573h-119l-280 430h170zM1096 1272h-752v-457h600v-137h-600v-526h752v-152h-920v1421h920v-149z" />
    <glyph glyph-name="Eacute" unicode="&#xc9;" horiz-adv-x="1189" 
d="M956 1993l-311 -420h-131l262 420h180zM1096 1272h-752v-457h600v-137h-600v-526h752v-152h-920v1421h920v-149z" />
    <glyph glyph-name="Ecircumflex" unicode="&#xca;" horiz-adv-x="1189" 
d="M584 1874l-207 -313h-131l264 448h145l267 -448h-134zM1096 1272h-752v-457h600v-137h-600v-526h752v-152h-920v1421h920v-149z" />
    <glyph glyph-name="Edieresis" unicode="&#xcb;" horiz-adv-x="1189" 
d="M395 1622q-22 0 -41.5 8.5t-34 23.5t-22.5 35t-8 42q0 23 8 42.5t22.5 34t34 23t41.5 8.5q23 0 42.5 -8.5t33.5 -23t22.5 -34t8.5 -42.5q0 -22 -8.5 -42t-22.5 -35t-33.5 -23.5t-42.5 -8.5zM856 1654q-32 -32 -77 -32q-46 0 -76 32q-15 16 -23 36t-8 41t8 41t23 36
q30 31 76 31t77 -31q15 -16 23 -36t8 -41t-8 -41t-23 -36zM1096 1272h-752v-457h600v-137h-600v-526h752v-152h-920v1421h920v-149z" />
    <glyph glyph-name="Igrave" unicode="&#xcc;" horiz-adv-x="520" 
d="M195 1573l-279 430h170l229 -430h-120zM344 1421v-1421h-168v1421h168z" />
    <glyph glyph-name="Iacute" unicode="&#xcd;" horiz-adv-x="520" 
d="M631 1993l-314 -420h-131l263 420h182zM344 1421v-1421h-168v1421h168z" />
    <glyph glyph-name="Icircumflex" unicode="&#xce;" horiz-adv-x="520" 
d="M330 2009l266 -448h-133l-205 313l-207 -313h-133l266 448h146zM176 0v1421h168v-1421h-168z" />
    <glyph glyph-name="Idieresis" unicode="&#xcf;" horiz-adv-x="520" 
d="M70 1622q-22 0 -42 8.5t-35 23.5t-23.5 35t-8.5 42q0 23 8.5 42.5t23.5 34t35 23t42 8.5q23 0 42 -8.5t33.5 -23t22.5 -34t8 -42.5q0 -22 -8 -42t-22.5 -35t-33.5 -23.5t-42 -8.5zM531 1654q-32 -32 -77 -32t-77 32q-15 16 -23 36t-8 41t8 41t23 36q31 31 77 31t77 -31
q15 -16 22.5 -36t7.5 -41t-7.5 -41t-22.5 -36zM344 1421v-1421h-168v1421h168z" />
    <glyph glyph-name="Eth" unicode="&#xd0;" horiz-adv-x="1435" 
d="M604 1421q343 0 539 -171t196 -515q0 -353 -199 -543q-199 -192 -536 -192h-411v657h-166v138h166v626h411zM594 152q264 0 417 157q152 157 152 426q0 264 -149 401q-149 136 -420 136h-236v-477h353v-138h-353v-505h236z" />
    <glyph glyph-name="Ntilde" unicode="&#xd1;" horiz-adv-x="1396" 
d="M440 1546h-114q-16 396 170 398q20 0 40 -6.5t38.5 -17t35.5 -23.5t30 -25q13 -13 28.5 -30t33.5 -40q17 -22 30.5 -37t22.5 -24q8 -10 20 -19.5t26 -19.5q29 -21 55 -21q91 0 86 261h117q14 -400 -180 -402q-55 0 -104.5 36.5t-106.5 102.5q-2 2 -5 6t-8 9
q-31 38 -48 54q-8 8 -18.5 17t-21.5 18q-25 17 -43 17q-89 0 -84 -254zM1065 1421h156v-1421h-162l-725 1116v-1116h-158v1421h160l729 -1124v1124z" />
    <glyph glyph-name="Ograve" unicode="&#xd2;" horiz-adv-x="1521" 
d="M694 1573l-278 430h168l229 -430h-119zM760 -31q-309 0 -500 203q-192 203 -192 551q0 335 196 532q195 197 496 197q146 0 271.5 -48.5t220.5 -141.5q95 -94 148.5 -232t53.5 -307q0 -353 -190 -553q-190 -201 -504 -201zM760 131q234 0 376 160t142 432q0 258 -144 414
q-146 155 -374 155q-230 0 -373 -155q-143 -157 -143 -414q0 -271 145 -431q144 -161 371 -161z" />
    <glyph glyph-name="Oacute" unicode="&#xd3;" horiz-adv-x="1521" 
d="M1128 1993l-311 -420h-131l262 420h180zM760 -31q-309 0 -500 203q-192 203 -192 551q0 335 196 532q195 197 496 197q146 0 271.5 -48.5t220.5 -141.5q95 -94 148.5 -232t53.5 -307q0 -353 -190 -553q-190 -201 -504 -201zM760 131q234 0 376 160t142 432
q0 258 -144 414q-146 155 -374 155q-230 0 -373 -155q-143 -157 -143 -414q0 -271 145 -431q144 -161 371 -161z" />
    <glyph glyph-name="Ocircumflex" unicode="&#xd4;" horiz-adv-x="1521" 
d="M756 1874l-205 -313h-133l264 448h145l267 -448h-131zM760 1452q146 0 271.5 -48.5t220.5 -141.5q95 -94 148.5 -232t53.5 -307q0 -353 -190 -553q-190 -201 -504 -201q-309 0 -500 203q-192 203 -192 551q0 335 196 532q195 197 496 197zM760 131q234 0 376 160t142 432
q0 258 -144 414q-146 155 -374 155q-230 0 -373 -155q-143 -157 -143 -414q0 -271 145 -431q144 -161 371 -161z" />
    <glyph glyph-name="Otilde" unicode="&#xd5;" horiz-adv-x="1521" 
d="M584 1800q-87 0 -82 -254h-115q-16 396 170 398q39 0 79 -24q41 -24 66 -48q13 -13 28 -30t34 -40q17 -22 30.5 -37t22.5 -24q8 -10 20 -19.5t26 -19.5q29 -21 55 -21q91 0 86 261h116q14 -400 -180 -402q-55 0 -104.5 36.5t-106.5 102.5l-12 15q-17 19 -29 32.5
t-20 21.5t-18.5 17t-21.5 18q-25 17 -44 17zM760 -31q-309 0 -500 203q-192 203 -192 551q0 335 196 532q195 197 496 197q146 0 271.5 -48.5t220.5 -141.5q95 -94 148.5 -232t53.5 -307q0 -353 -190 -553q-190 -201 -504 -201zM760 131q234 0 376 160t142 432
q0 258 -144 414q-146 155 -374 155q-230 0 -373 -155q-143 -157 -143 -414q0 -271 145 -431q144 -161 371 -161z" />
    <glyph glyph-name="Odieresis" unicode="&#xd6;" horiz-adv-x="1521" 
d="M569 1622q-48 0 -78 32t-30 77t30 76.5t78 31.5q21 0 40.5 -8.5t34.5 -23t23.5 -34t8.5 -42.5q0 -45 -32 -77t-75 -32zM1029 1654q-16 -16 -36 -24t-41 -8t-40.5 8t-35.5 24t-23.5 36t-7.5 41t7.5 41t23.5 36t35.5 24t40.5 8t41 -8t36 -24t24 -36t8 -41t-8 -41t-24 -36z
M760 -31q-309 0 -500 203q-192 203 -192 551q0 335 196 532q195 197 496 197q146 0 271.5 -48.5t220.5 -141.5q95 -94 148.5 -232t53.5 -307q0 -353 -190 -553q-190 -201 -504 -201zM760 131q234 0 376 160t142 432q0 258 -144 414q-146 155 -374 155q-230 0 -373 -155
q-143 -157 -143 -414q0 -271 145 -431q144 -161 371 -161z" />
    <glyph glyph-name="multiply" unicode="&#xd7;" horiz-adv-x="1052" 
d="M938 1040l-317 -342l317 -342l-98 -92l-314 334l-311 -334l-100 92l319 342l-319 342l100 93l311 -334l314 334z" />
    <glyph glyph-name="Oslash" unicode="&#xd8;" horiz-adv-x="1521" 
d="M1464 1348l-149 -160q139 -190 139 -465q0 -353 -190 -553q-190 -201 -504 -201q-259 0 -438 146l-136 -146l-125 92l152 166q-145 196 -145 496q0 335 196 532q195 197 496 197q263 0 448 -152l129 140zM238 723q0 -218 94 -369l766 828q-137 117 -338 116
q-230 0 -376 -156q-146 -158 -146 -419zM1284 723q0 196 -86 338l-764 -825q136 -113 326 -113q239 0 381 162q143 163 143 438z" />
    <glyph glyph-name="Ugrave" unicode="&#xd9;" horiz-adv-x="1402" 
d="M637 1573l-281 430h170l230 -430h-119zM702 -31q-246 0 -393 162t-147 444v846h166v-854q0 -201 105 -318q103 -118 269 -118q168 0 271 118q102 119 102 318v854h166v-846q0 -286 -146 -446q-147 -160 -393 -160z" />
    <glyph glyph-name="Uacute" unicode="&#xda;" horiz-adv-x="1402" 
d="M1071 1993l-311 -420h-131l262 420h180zM702 -31q-246 0 -393 162t-147 444v846h166v-854q0 -201 105 -318q103 -118 269 -118q168 0 271 118q102 119 102 318v854h166v-846q0 -286 -146 -446q-147 -160 -393 -160z" />
    <glyph glyph-name="Ucircumflex" unicode="&#xdb;" horiz-adv-x="1402" 
d="M698 1874l-206 -313h-132l265 448h145l266 -448h-133zM1075 1421h166v-846q0 -286 -146 -446q-147 -160 -393 -160t-393 162t-147 444v846h166v-854q0 -201 105 -318q103 -118 269 -118q168 0 271 118q102 119 102 318v854z" />
    <glyph glyph-name="Udieresis" unicode="&#xdc;" horiz-adv-x="1402" 
d="M510 1622q-22 0 -42 8.5t-34 23.5t-22.5 35t-8.5 42q0 23 8.5 42.5t22.5 34t34 23t42 8.5q23 0 42 -8.5t33.5 -23t22.5 -34t8 -42.5q0 -22 -8 -42t-22.5 -35t-33.5 -23.5t-42 -8.5zM971 1654q-32 -32 -77 -32t-77 32q-15 16 -23 36t-8 41t8 41t23 36q31 31 77 31t77 -31
q15 -16 22.5 -36t7.5 -41t-7.5 -41t-22.5 -36zM702 -31q-246 0 -393 162t-147 444v846h166v-854q0 -201 105 -318q103 -118 269 -118q168 0 271 118q102 119 102 318v854h166v-846q0 -286 -146 -446q-147 -160 -393 -160z" />
    <glyph glyph-name="Yacute" unicode="&#xdd;" horiz-adv-x="1132" 
d="M934 1993l-311 -420h-131l262 420h180zM1110 1421l-463 -843v-578h-166v573l-458 848h186l358 -688l359 688h184z" />
    <glyph glyph-name="Thorn" unicode="&#xde;" horiz-adv-x="1173" 
d="M621 1147q225 0 347 -103.5t122 -310.5q0 -206 -123 -316q-124 -110 -344 -110h-279v-307h-168v1421h168v-274h277zM610 453q144 0 226 75q82 73 82 205q0 130 -80.5 197t-227.5 67h-266v-544h266z" />
    <glyph glyph-name="germandbls" unicode="&#xdf;" horiz-adv-x="1089" 
d="M702 774q138 -39 221 -148q83 -110 83 -261q0 -187 -101 -285q-103 -99 -276 -103q-114 -2 -213 35l16 133q74 -35 168 -34q121 0 184.5 73.5t63.5 200.5q0 142 -85 228q-85 87 -237 87h-49v123h58q104 0 185 89t81 229q0 135 -72 207q-73 71 -182 71q-57 0 -101.5 -15
t-82.5 -54q-39 -39 -59.5 -114.5t-20.5 -186.5v-1049h-160v1004q0 161 28.5 268.5t87.5 169.5t135 87t185 25q162 0 276 -90q57 -45 89 -123.5t32 -181.5q0 -124 -72 -234q-75 -111 -182 -151z" />
    <glyph glyph-name="agrave" unicode="&#xe0;" horiz-adv-x="1005" 
d="M571 1128h-114l-248 431h170zM494 1004q180 0 280 -98.5t100 -299.5v-606h-157v137q-54 -76 -140.5 -122t-195.5 -46q-136 0 -228 78t-92 227q0 158 99 237q97 79 241 79q183 0 316 -98v102q0 141 -67.5 205.5t-184.5 64.5q-170 0 -295 -80l-59 115q156 105 383 105z
M426 86q53 0 98.5 13.5t82.5 38.5t64.5 59t45.5 75v103q-116 104 -281 104q-95 0 -157 -52q-64 -52 -64 -148q0 -88 61 -140q61 -53 150 -53z" />
    <glyph glyph-name="aacute" unicode="&#xe1;" horiz-adv-x="1005" 
d="M811 1559l-248 -431h-112l192 431h168zM494 1004q180 0 280 -98.5t100 -299.5v-606h-157v137q-54 -76 -140.5 -122t-195.5 -46q-136 0 -228 78t-92 227q0 158 99 237q97 79 241 79q183 0 316 -98v102q0 141 -67.5 205.5t-184.5 64.5q-170 0 -295 -80l-59 115
q156 105 383 105zM426 86q53 0 98.5 13.5t82.5 38.5t64.5 59t45.5 75v103q-116 104 -281 104q-95 0 -157 -52q-64 -52 -64 -148q0 -88 61 -140q61 -53 150 -53z" />
    <glyph glyph-name="acircumflex" unicode="&#xe2;" horiz-adv-x="1005" 
d="M510 1456l-207 -328h-121l254 443h146l256 -443h-121zM494 1004q180 0 280 -98.5t100 -299.5v-606h-157v137q-54 -76 -140.5 -122t-195.5 -46q-136 0 -228 78t-92 227q0 158 99 237q97 79 241 79q183 0 316 -98v102q0 141 -67.5 205.5t-184.5 64.5q-170 0 -295 -80
l-59 115q156 105 383 105zM426 86q53 0 98.5 13.5t82.5 38.5t64.5 59t45.5 75v103q-116 104 -281 104q-95 0 -157 -52q-64 -52 -64 -148q0 -88 61 -140q61 -53 150 -53z" />
    <glyph glyph-name="atilde" unicode="&#xe3;" horiz-adv-x="1005" 
d="M260 1149h-117q-8 207 37 301t139 94q39 0 79 -24q39 -25 64 -48l27.5 -30t38.5 -41q33 -43 51 -63q16 -20 45 -40q28 -20 52 -20q90 0 86 262h115q13 -397 -177 -397q-25 0 -45 6.5t-39 14.5q-12 5 -26.5 17.5t-22.5 18.5q-3 2 -10 8.5t-14.5 14l-14 14l-8.5 8.5l-9 9
t-14.5 15.5t-14.5 15.5l-9 9q-17 20 -28.5 35t-19.5 24q-15 17 -39 36q-24 18 -44 18q-48 0 -66 -62t-16 -196zM494 1004q180 0 280 -98.5t100 -299.5v-606h-157v137q-54 -76 -140.5 -122t-195.5 -46q-136 0 -228 78t-92 227q0 158 99 237q97 79 241 79q183 0 316 -98v102
q0 141 -67.5 205.5t-184.5 64.5q-170 0 -295 -80l-59 115q156 105 383 105zM426 86q53 0 98.5 13.5t82.5 38.5t64.5 59t45.5 75v103q-116 104 -281 104q-95 0 -157 -52q-64 -52 -64 -148q0 -88 61 -140q61 -53 150 -53z" />
    <glyph glyph-name="adieresis" unicode="&#xe4;" horiz-adv-x="1005" 
d="M297 1268q-45 0 -74.5 30t-29.5 75t29.5 75.5t74.5 30.5q21 0 40 -8.5t32.5 -22.5t21.5 -33.5t8 -41.5q0 -45 -29.5 -75t-72.5 -30zM799 1299q-15 -15 -35 -23t-40 -8t-40 8t-35 23t-23 34.5t-8 39.5t8 40t23 35t35 23t40 8t40 -8t35 -23t22.5 -35t7.5 -40t-7.5 -39.5
t-22.5 -34.5zM494 1004q180 0 280 -98.5t100 -299.5v-606h-157v137q-54 -76 -140.5 -122t-195.5 -46q-136 0 -228 78t-92 227q0 158 99 237q97 79 241 79q183 0 316 -98v102q0 141 -67.5 205.5t-184.5 64.5q-170 0 -295 -80l-59 115q156 105 383 105zM426 86q53 0 98.5 13.5
t82.5 38.5t64.5 59t45.5 75v103q-116 104 -281 104q-95 0 -157 -52q-64 -52 -64 -148q0 -88 61 -140q61 -53 150 -53z" />
    <glyph glyph-name="aring" unicode="&#xe5;" horiz-adv-x="1005" 
d="M510 1180q-112 0 -180 68t-68 173q0 109 69 178q68 68 179 68t180 -69q68 -71 68 -175q0 -107 -67 -174q-67 -69 -181 -69zM510 1571q-63 0 -102 -40.5t-39 -109.5t38.5 -106t103.5 -37t103.5 38t38.5 105q0 70 -40 110t-103 40zM494 1004q180 0 280 -98.5t100 -299.5
v-606h-157v137q-54 -76 -140.5 -122t-195.5 -46q-136 0 -228 78t-92 227q0 158 99 237q97 79 241 79q183 0 316 -98v102q0 141 -67.5 205.5t-184.5 64.5q-170 0 -295 -80l-59 115q156 105 383 105zM426 86q53 0 98.5 13.5t82.5 38.5t64.5 59t45.5 75v103q-116 104 -281 104
q-95 0 -157 -52q-64 -52 -64 -148q0 -88 61 -140q61 -53 150 -53z" />
    <glyph glyph-name="ae" unicode="&#xe6;" horiz-adv-x="1654" 
d="M1528 217l63 -119q-78 -57 -182.5 -93t-218.5 -36q-293 0 -387 232q-52 -105 -164 -169q-111 -63 -242 -63q-145 0 -240 77q-96 77 -96 228q0 156 98 231t240 75q186 0 320 -101v115q0 71 -17.5 122t-50.5 84t-80 48.5t-106 15.5q-167 0 -295 -80l-59 115
q157 103 376 105q262 0 336 -203q119 203 363 203q179 0 288 -124t109 -368v-39h-709q6 -184 90.5 -272t229.5 -88q183 0 334 104zM1169 874q-115 0 -195 -80q-82 -82 -95 -237h553q-5 81 -26 140.5t-55.5 99t-81 58.5t-100.5 19zM428 86q52 0 97 13.5t82 38.5t65.5 59
t46.5 75v97q-109 115 -281 114q-94 0 -158 -52q-65 -53 -65 -150q0 -90 61 -142q61 -53 152 -53z" />
    <glyph glyph-name="ccedilla" unicode="&#xe7;" horiz-adv-x="968" 
d="M918 131q-136 -149 -359 -160l-76 -168q58 29 121 29q93 0 146 -52t53 -149q0 -115 -79 -175t-208 -60q-141 0 -240 72l46 96q27 -25 78 -45.5t114 -20.5q78 0 123 35t45 98q0 48 -29.5 78.5t-83.5 30.5q-82 0 -133 -53l-88 34l101 254q-175 26 -276 158
q-103 133 -103 354q0 239 135 378t342 139q208 0 362 -142l-100 -108q-27 24 -54 44t-58.5 33.5t-68 21t-81.5 7.5q-133 0 -225 -98q-93 -97 -93 -275q0 -180 87 -275t223 -95q165 0 284 125z" />
    <glyph glyph-name="egrave" unicode="&#xe8;" horiz-adv-x="1015" 
d="M592 1128h-115l-248 431h170zM889 217l61 -119q-169 -129 -418 -129q-218 0 -340 137t-122 379q0 236 130 378q131 141 335 141q186 0 300 -126q113 -127 113 -372v-51h-719q8 -174 93.5 -258t226.5 -84q188 0 340 104zM528 874q-112 0 -194 -79q-84 -80 -101 -230h558
q-12 158 -84 234q-73 75 -179 75z" />
    <glyph glyph-name="eacute" unicode="&#xe9;" horiz-adv-x="1015" 
d="M831 1559l-247 -431h-113l193 431h167zM889 217l61 -119q-169 -129 -418 -129q-218 0 -340 137t-122 379q0 236 130 378q131 141 335 141q186 0 300 -126q113 -127 113 -372v-51h-719q8 -174 93.5 -258t226.5 -84q188 0 340 104zM528 874q-112 0 -194 -79
q-84 -80 -101 -230h558q-12 158 -84 234q-73 75 -179 75z" />
    <glyph glyph-name="ecircumflex" unicode="&#xea;" horiz-adv-x="1015" 
d="M530 1456l-206 -328h-119l252 443h145l256 -443h-121zM889 217l61 -119q-169 -129 -418 -129q-218 0 -340 137t-122 379q0 236 130 378q131 141 335 141q186 0 300 -126q113 -127 113 -372v-51h-719q8 -174 93.5 -258t226.5 -84q188 0 340 104zM528 874q-112 0 -194 -79
q-84 -80 -101 -230h558q-12 158 -84 234q-73 75 -179 75z" />
    <glyph glyph-name="edieresis" unicode="&#xeb;" horiz-adv-x="1015" 
d="M317 1268q-45 0 -74.5 30t-29.5 75t29.5 75.5t74.5 30.5q21 0 40 -8.5t33 -22.5t22 -33.5t8 -41.5t-8 -41t-22 -33.5t-33 -22.5t-40 -8zM819 1299q-15 -15 -35 -23t-40 -8t-39.5 8t-34.5 23t-23 34.5t-8 39.5t8 40t23 35t34.5 23t39.5 8t40 -8t35 -23t23 -35t8 -40
t-8 -39.5t-23 -34.5zM889 217l61 -119q-169 -129 -418 -129q-218 0 -340 137t-122 379q0 236 130 378q131 141 335 141q186 0 300 -126q113 -127 113 -372v-51h-719q8 -174 93.5 -258t226.5 -84q188 0 340 104zM528 874q-112 0 -194 -79q-84 -80 -101 -230h558
q-12 158 -84 234q-73 75 -179 75z" />
    <glyph glyph-name="igrave" unicode="&#xec;" horiz-adv-x="479" 
d="M301 1128h-115l-247 431h170zM319 973v-973h-159v973h159z" />
    <glyph glyph-name="iacute" unicode="&#xed;" horiz-adv-x="479" 
d="M541 1559l-248 -431h-115l193 431h170zM319 973v-973h-159v973h159z" />
    <glyph glyph-name="icircumflex" unicode="&#xee;" horiz-adv-x="479" 
d="M311 1571l256 -443h-121l-206 328l-207 -328h-121l254 443h145zM160 0v973h159v-973h-159z" />
    <glyph glyph-name="idieresis" unicode="&#xef;" horiz-adv-x="479" 
d="M-49 1299q-26 22 -30 54t8 60.5t37.5 48t58.5 17.5q45 0 74.5 -30.5t29.5 -75.5t-29.5 -75t-74.5 -30q-43 0 -74 31zM379 1299q-15 15 -23 34.5t-8 39.5t8 40t23 35t35 23t40 8t40 -8t35 -23t22.5 -35t7.5 -40t-7.5 -39.5t-22.5 -34.5t-35 -23t-40 -8t-40 8t-35 23z
M319 973v-973h-159v973h159z" />
    <glyph glyph-name="eth" unicode="&#xf0;" horiz-adv-x="1085" 
d="M846 1225q164 -208 164 -523q0 -365 -131 -549t-375 -184q-201 0 -318 126q-118 125 -118 333q0 197 116 310q115 112 301 112q63 0 117.5 -17t99.5 -47.5t79 -74t55 -97.5q2 26 3 51.5t1 49.5q0 261 -129 424l-359 -226l-59 93l338 213q-187 152 -514 143l-6 147
q420 14 659 -204l176 110l58 -92zM512 125q131 0 210 91t79 218q0 128 -84 210q-85 83 -199 83q-122 0 -199 -77t-77 -212q0 -136 77 -225q76 -88 193 -88z" />
    <glyph glyph-name="ntilde" unicode="&#xf1;" horiz-adv-x="1093" 
d="M297 1149h-117q-8 207 37 301t139 94q39 0 79 -24q39 -25 64 -48l27.5 -30t38.5 -41q17 -22 29.5 -37t21.5 -25q17 -20 46 -40q29 -21 51 -21q90 0 86 262h114q13 -397 -176 -397q-23 -2 -45 6t-39 16q-12 4 -26.5 16.5t-22.5 18.5q-3 2 -10 8.5t-14.5 14l-14 14
l-8.5 8.5q-6 7 -23 26q-9 10 -14.5 15.5l-7.5 7.5q-17 20 -29.5 35t-20.5 24q-16 17 -39 36q-24 18 -44 18q-48 0 -66 -62t-16 -196zM639 1004q147 0 237 -93q89 -95 89 -276v-635h-160v596q0 135 -61 199q-61 63 -158 63t-169.5 -53t-115.5 -150v-655h-160v973h160v-170
q49 90 135 145.5t203 55.5z" />
    <glyph glyph-name="ograve" unicode="&#xf2;" horiz-adv-x="1110" 
d="M616 1128h-114l-248 431h170zM906 107q-136 -138 -351 -138t-351 139q-136 137 -136 379q0 240 136 379q137 138 351 138q215 0 351 -138q136 -139 136 -379q0 -243 -136 -380zM324 213q94 -94 232 -94q139 0 233 97t94 273q0 175 -95 273q-96 98 -233 96
q-142 -2 -233 -96q-93 -94 -93 -274t95 -275z" />
    <glyph glyph-name="oacute" unicode="&#xf3;" horiz-adv-x="1110" 
d="M856 1559l-248 -431h-112l190 431h170zM906 107q-136 -138 -351 -138t-351 139q-136 137 -136 379q0 240 136 379q137 138 351 138q215 0 351 -138q136 -139 136 -379q0 -243 -136 -380zM324 213q94 -94 232 -94q139 0 233 97t94 273q0 175 -95 273q-96 98 -233 96
q-142 -2 -233 -96q-93 -94 -93 -274t95 -275z" />
    <glyph glyph-name="ocircumflex" unicode="&#xf4;" horiz-adv-x="1110" 
d="M555 1456l-207 -328h-121l254 443h146l256 -443h-121zM204 866q137 138 351 138q215 0 351 -138q136 -139 136 -379q0 -243 -136 -380q-136 -138 -351 -138t-351 139q-136 137 -136 379q0 240 136 379zM324 213q94 -94 232 -94q139 0 233 97t94 273q0 175 -95 273
q-96 98 -233 96q-142 -2 -233 -96q-93 -94 -93 -274t95 -275z" />
    <glyph glyph-name="otilde" unicode="&#xf5;" horiz-adv-x="1110" 
d="M387 1407q-48 0 -67 -62t-15 -196h-117q-8 207 36 301t141 94q39 0 79 -24q39 -25 63 -48l27.5 -30t38.5 -41q17 -22 29.5 -37t21.5 -25q8 -10 19.5 -20t25.5 -20q27 -21 52 -21q90 0 86 262h115q13 -397 -177 -397q-23 -2 -45 6t-39 16q-12 4 -27.5 16.5t-22.5 18.5
q-3 2 -9.5 8.5l-14 14l-14 14l-8.5 8.5q-6 7 -23 26q-9 10 -15 15.5t-9 7.5q-17 20 -28.5 35t-19.5 24q-15 17 -39 36q-24 18 -44 18zM906 107q-136 -138 -351 -138t-351 139q-136 137 -136 379q0 240 136 379q137 138 351 138q215 0 351 -138q136 -139 136 -379
q0 -243 -136 -380zM324 213q94 -94 232 -94q139 0 233 97t94 273q0 175 -95 273q-96 98 -233 96q-142 -2 -233 -96q-93 -94 -93 -274t95 -275z" />
    <glyph glyph-name="odieresis" unicode="&#xf6;" horiz-adv-x="1110" 
d="M267 1299q-25 22 -29.5 54t7 60.5t37 48t60.5 17.5q21 0 40 -8.5t32.5 -22.5t21.5 -33.5t8 -41.5q0 -45 -29.5 -75t-72.5 -30q-45 0 -75 31zM695 1299q-15 15 -23 34.5t-8 39.5t8 40t23 35t34.5 23t39.5 8t40 -8t35 -23t22.5 -35t7.5 -40t-7.5 -39.5t-22.5 -34.5t-35 -23
t-40 -8t-39.5 8t-34.5 23zM906 107q-136 -138 -351 -138t-351 139q-136 137 -136 379q0 240 136 379q137 138 351 138q215 0 351 -138q136 -139 136 -379q0 -243 -136 -380zM324 213q94 -94 232 -94q139 0 233 97t94 273q0 175 -95 273q-96 98 -233 96q-142 -2 -233 -96
q-93 -94 -93 -274t95 -275z" />
    <glyph glyph-name="divide" unicode="&#xf7;" horiz-adv-x="1142" 
d="M482 994q-40 37 -40 96q0 57 39 97t97 40q57 0 96 -40t39 -96q0 -57 -39 -96t-96 -39q-56 0 -96 38zM90 772h963v-141h-963v141zM482 213q-40 39 -40 97q0 57 39 96q40 38 97 38q56 0 96 -38q39 -39 39 -96q0 -58 -39 -97t-96 -39t-96 39z" />
    <glyph glyph-name="oslash" unicode="&#xf8;" horiz-adv-x="1110" 
d="M887 885q157 -143 155 -398q0 -243 -136 -380q-136 -138 -351 -138q-133 0 -240 56l-94 -142l-90 62l94 143q-158 142 -157 399q0 240 136 379q137 138 351 138q135 0 244 -58l88 135l94 -55zM219 487q0 -174 90 -276l410 618q-74 41 -164 41q-145 -1 -240 -99
q-96 -97 -96 -284zM555 106q143 0 241 101q97 100 97 280q0 169 -88 273l-410 -617q71 -37 160 -37z" />
    <glyph glyph-name="ugrave" unicode="&#xf9;" horiz-adv-x="1079" 
d="M600 1128h-113l-249 431h170zM778 973h160v-973h-160v170q-48 -93 -131 -147t-201 -54q-73 0 -132.5 23.5t-101.5 70t-64.5 115.5t-22.5 160v635h160v-594q0 -136 62 -200q61 -64 155 -64q185 0 276 202v656z" />
    <glyph glyph-name="uacute" unicode="&#xfa;" horiz-adv-x="1079" 
d="M842 1559l-248 -431h-115l193 431h170zM778 973h160v-973h-160v170q-48 -93 -131 -147t-201 -54q-73 0 -132.5 23.5t-101.5 70t-64.5 115.5t-22.5 160v635h160v-594q0 -136 62 -200q61 -64 155 -64q185 0 276 202v656z" />
    <glyph glyph-name="ucircumflex" unicode="&#xfb;" horiz-adv-x="1079" 
d="M539 1456l-207 -328h-119l254 443h145l254 -443h-118zM778 973h160v-973h-160v170q-48 -93 -131 -147t-201 -54q-73 0 -132.5 23.5t-101.5 70t-64.5 115.5t-22.5 160v635h160v-594q0 -136 62 -200q61 -64 155 -64q185 0 276 202v656z" />
    <glyph glyph-name="udieresis" unicode="&#xfc;" horiz-adv-x="1079" 
d="M326 1268q-45 0 -75 30t-30 75t30 75.5t75 30.5q21 0 40 -8.5t33.5 -22.5t22.5 -33.5t8 -41.5t-8 -41t-22.5 -33.5t-33.5 -22.5t-40 -8zM829 1299q-30 -31 -75 -31t-75 31q-15 15 -22.5 34.5t-7.5 39.5t7.5 40t22.5 35q30 31 75 31t75 -31q15 -15 22 -35t7 -40t-7 -39.5
t-22 -34.5zM778 973h160v-973h-160v170q-48 -93 -131 -147t-201 -54q-73 0 -132.5 23.5t-101.5 70t-64.5 115.5t-22.5 160v635h160v-594q0 -136 62 -200q61 -64 155 -64q185 0 276 202v656z" />
    <glyph glyph-name="yacute" unicode="&#xfd;" horiz-adv-x="978" 
d="M791 1559l-248 -431h-115l193 431h170zM791 973h170l-601 -1475h-167l217 508l-392 967h170l299 -789z" />
    <glyph glyph-name="thorn" unicode="&#xfe;" horiz-adv-x="1148" 
d="M662 1004q178 0 298 -132q119 -134 119 -387t-124 -384q-124 -132 -310 -132q-124 0 -211.5 55t-138.5 152v-678h-160v2026h160v-756q122 236 367 236zM612 117q127 0 218 93q90 93 90 275q0 183 -89 278q-90 93 -215 93q-112 0 -194 -64t-127 -182v-237
q42 -120 122.5 -188t194.5 -68z" />
    <glyph glyph-name="ydieresis" unicode="&#xff;" horiz-adv-x="978" 
d="M276 1268q-45 0 -75.5 30t-30.5 75t30.5 75.5t75.5 30.5q21 0 40 -8.5t33 -22.5t22 -33.5t8 -41.5t-8 -41t-22 -33.5t-33 -22.5t-40 -8zM779 1299q-15 -15 -35 -23t-40.5 -8t-40 8t-34.5 23t-23 34.5t-8 39.5t8 40t23 35t34.5 23t40 8t40.5 -8t35 -23t22.5 -35t7.5 -40
t-7.5 -39.5t-22.5 -34.5zM791 973h170l-601 -1475h-167l217 508l-392 967h170l299 -789z" />
    <glyph glyph-name="Amacron" unicode="&#x100;" horiz-adv-x="1243" 
d="M956 1845v-135h-692v135h692zM1026 0l-117 344h-592l-110 -344h-164l469 1421h197l493 -1421h-176zM362 483h500l-256 762z" />
    <glyph glyph-name="amacron" unicode="&#x101;" horiz-adv-x="1005" 
d="M856 1432v-136h-692v136h692zM494 1004q180 0 280 -98.5t100 -299.5v-606h-157v137q-54 -76 -140.5 -122t-195.5 -46q-136 0 -228 78t-92 227q0 158 99 237q97 79 241 79q183 0 316 -98v102q0 141 -67.5 205.5t-184.5 64.5q-170 0 -295 -80l-59 115q156 105 383 105z
M426 86q53 0 98.5 13.5t82.5 38.5t64.5 59t45.5 75v103q-116 104 -281 104q-95 0 -157 -52q-64 -52 -64 -148q0 -88 61 -140q61 -53 150 -53z" />
    <glyph glyph-name="Abreve" unicode="&#x102;" horiz-adv-x="1243" 
d="M608 1591q-170 0 -259 102.5t-77 297.5h127q-12 -289 209 -289q219 0 207 289h127q12 -195 -76 -297.5t-258 -102.5zM1026 0l-117 344h-592l-110 -344h-164l469 1421h197l493 -1421h-176zM362 483h500l-256 762z" />
    <glyph glyph-name="abreve" unicode="&#x103;" horiz-adv-x="1005" 
d="M512 1169q-170 0 -259 102.5t-77 297.5h127q-12 -289 207 -289q220 0 207 289h129q10 -196 -76.5 -298t-257.5 -102zM494 1004q180 0 280 -98.5t100 -299.5v-606h-157v137q-54 -76 -140.5 -122t-195.5 -46q-136 0 -228 78t-92 227q0 158 99 237q97 79 241 79
q183 0 316 -98v102q0 141 -67.5 205.5t-184.5 64.5q-170 0 -295 -80l-59 115q156 105 383 105zM426 86q53 0 98.5 13.5t82.5 38.5t64.5 59t45.5 75v103q-116 104 -281 104q-95 0 -157 -52q-64 -52 -64 -148q0 -88 61 -140q61 -53 150 -53z" />
    <glyph glyph-name="Aogonek" unicode="&#x104;" horiz-adv-x="1243" 
d="M969 -469q99 0 194 53l31 -114q-123 -62 -268 -64q-113 0 -170.5 59.5t-57.5 157.5q0 114 84.5 211.5t243.5 167.5l-117 342h-592l-110 -344h-164l469 1421h197l493 -1421h-14q-346 -156 -346 -342q0 -127 127 -127zM362 483h500l-256 762z" />
    <glyph glyph-name="aogonek" unicode="&#x105;" horiz-adv-x="1005" 
d="M891 -412l31 -114q-122 -68 -256 -68q-106 0 -159.5 53.5t-53.5 141.5q0 225 299 399h-35v137q-54 -76 -140.5 -122t-195.5 -46q-136 0 -228 78t-92 227q0 158 99 237q97 79 241 79q183 0 316 -98v102q0 141 -67.5 205.5t-184.5 64.5q-170 0 -295 -80l-59 115
q156 103 383 105q180 0 280 -98.5t100 -299.5v-606q-55 -44 -72 -57q-9 -7 -24.5 -19.5t-38.5 -32.5q-45 -38 -60 -60q-8 -11 -18 -25t-23 -32q-26 -37 -35 -70q-9 -35 -9 -71q0 -102 113 -102q96 0 184 57zM426 86q53 0 98.5 13.5t82.5 38.5t64.5 59t45.5 75v103
q-116 104 -281 104q-95 0 -157 -52q-64 -52 -64 -148q0 -88 61 -140q61 -53 150 -53z" />
    <glyph glyph-name="Cacute" unicode="&#x106;" horiz-adv-x="1368" 
d="M1067 2007l-248 -430h-112l190 430h170zM717 -31q-297 0 -471 198t-174 544q0 341 199 540q198 199 505 199q308 0 514 -190l-96 -136q-167 164 -416 164q-233 0 -382 -155q-150 -156 -150 -420q0 -269 133 -424q134 -156 354 -156q317 0 492 252l88 -139
q-201 -277 -596 -277z" />
    <glyph glyph-name="cacute" unicode="&#x107;" horiz-adv-x="968" 
d="M836 1559l-250 -431h-113l193 431h170zM918 131q-147 -162 -392 -162q-206 0 -331 137t-125 381q0 239 135 378t342 139q208 0 362 -142l-100 -108q-27 24 -54 44t-58.5 33.5t-68 21t-81.5 7.5q-133 0 -225 -98q-93 -97 -93 -275q0 -180 87 -275t223 -95q165 0 284 125z
" />
    <glyph glyph-name="Cdotaccent" unicode="&#x10a;" horiz-adv-x="1368" 
d="M696 1650q-34 33 -34 83t34 84q33 34 82 34q24 0 45.5 -9t37.5 -25t25 -37.5t9 -46.5t-9 -46t-25 -37t-37.5 -25t-45.5 -9q-49 0 -82 34zM717 -31q-297 0 -471 198t-174 544q0 341 199 540q198 199 505 199q308 0 514 -190l-96 -136q-167 164 -416 164q-233 0 -382 -155
q-150 -156 -150 -420q0 -269 133 -424q134 -156 354 -156q317 0 492 252l88 -139q-201 -277 -596 -277z" />
    <glyph glyph-name="cdotaccent" unicode="&#x10b;" horiz-adv-x="968" 
d="M462 1201q-34 34 -34 83q0 50 34 84q35 35 83 35q26 0 47.5 -9.5t37.5 -25.5t25 -38t9 -46t-9 -45.5t-25 -37.5t-37.5 -25t-47.5 -9q-49 0 -83 34zM918 131q-147 -162 -392 -162q-206 0 -331 137t-125 381q0 239 135 378t342 139q208 0 362 -142l-100 -108q-27 24 -54 44
t-58.5 33.5t-68 21t-81.5 7.5q-133 0 -225 -98q-93 -97 -93 -275q0 -180 87 -275t223 -95q165 0 284 125z" />
    <glyph glyph-name="Ccaron" unicode="&#x10c;" horiz-adv-x="1368" 
d="M840 1573h-146l-266 448h133l207 -313l205 313h133zM1225 385l88 -139q-201 -275 -596 -277q-297 0 -471 198t-174 544q0 341 199 540q198 199 505 199q308 0 514 -190l-96 -136q-167 164 -416 164q-233 0 -382 -155q-150 -156 -150 -420q0 -269 133 -424
q134 -156 354 -156q318 0 492 252z" />
    <glyph glyph-name="ccaron" unicode="&#x10d;" horiz-adv-x="968" 
d="M606 1128h-147l-252 443h119l206 -328l209 328h119zM823 242l95 -111q-147 -162 -392 -162q-206 0 -331 137t-125 381q0 239 135 378t342 139q208 0 362 -142l-100 -108q-27 24 -54 44t-58.5 33.5t-68 21t-81.5 7.5q-133 0 -225 -98q-93 -97 -93 -275q0 -180 87 -275
t223 -95q165 0 284 125z" />
    <glyph glyph-name="Dcaron" unicode="&#x10e;" horiz-adv-x="1435" 
d="M756 1573h-146l-264 448h131l207 -313l205 313h133zM604 1421q343 0 539 -171t196 -515q0 -353 -199 -543q-199 -192 -536 -192h-411v1421h411zM594 152q264 0 417 157q152 157 152 426q0 264 -149 401q-149 136 -420 136h-236v-1120h236z" />
    <glyph glyph-name="dcaron" unicode="&#x10f;" horiz-adv-x="1241" 
d="M1128 1532h170l-92 -612h-112zM854 815v709h160v-1524h-160v174q-129 -205 -367 -205q-182 0 -299 132q-118 131 -118 386q0 251 127 384t311 133q230 -1 346 -189zM526 115q114 0 197 62.5t131 174.5v293q-42 105 -122 161t-189 56q-130 0 -221 -94q-93 -94 -93 -280
q0 -188 85 -280q86 -93 212 -93z" />
    <glyph glyph-name="Dcroat" unicode="&#x110;" horiz-adv-x="1435" 
d="M604 1421q343 0 539 -171t196 -515q0 -353 -199 -543q-199 -192 -536 -192h-411v657h-166v138h166v626h411zM594 152q264 0 417 157q152 157 152 426q0 264 -149 401q-149 136 -420 136h-236v-477h353v-138h-353v-505h236z" />
    <glyph glyph-name="dcroat" unicode="&#x111;" horiz-adv-x="1146" 
d="M1133 1366v-127h-119v-1239h-160v174q-129 -205 -367 -205q-182 0 -299 132q-118 131 -118 386q0 251 127 384t311 133q231 0 346 -189v424h-444v127h444v158h160v-158h119zM526 115q114 0 197 62.5t131 174.5v293q-42 105 -122 161t-189 56q-130 0 -221 -94
q-93 -94 -93 -280q0 -188 85 -280q86 -93 212 -93z" />
    <glyph glyph-name="Emacron" unicode="&#x112;" horiz-adv-x="1189" 
d="M938 1845v-135h-692v135h692zM1096 1272h-752v-457h600v-137h-600v-526h752v-152h-920v1421h920v-149z" />
    <glyph glyph-name="emacron" unicode="&#x113;" horiz-adv-x="1015" 
d="M877 1432v-136h-693v136h693zM889 217l61 -119q-169 -129 -418 -129q-218 0 -340 137t-122 379q0 236 130 378q131 141 335 141q186 0 300 -126q113 -127 113 -372v-51h-719q8 -174 93.5 -258t226.5 -84q188 0 340 104zM528 874q-112 0 -194 -79q-84 -80 -101 -230h558
q-12 158 -84 234q-73 75 -179 75z" />
    <glyph glyph-name="Edotaccent" unicode="&#x116;" horiz-adv-x="1189" 
d="M600 1616q-24 0 -45.5 9t-37.5 25t-25 37t-9 46t9 46.5t25 37.5t37.5 25t45.5 9t45.5 -9t37.5 -25t25 -37.5t9 -46.5t-9 -46t-25 -37t-37.5 -25t-45.5 -9zM1096 1272h-752v-457h600v-137h-600v-526h752v-152h-920v1421h920v-149z" />
    <glyph glyph-name="edotaccent" unicode="&#x117;" horiz-adv-x="1015" 
d="M543 1167q-24 0 -45.5 9t-37.5 25t-25 37.5t-9 45.5q0 50 34 84q35 35 83 35q49 0 84 -35t35 -84q0 -24 -9 -45.5t-25 -37.5t-37.5 -25t-47.5 -9zM889 217l61 -119q-169 -129 -418 -129q-218 0 -340 137t-122 379q0 236 130 378q131 141 335 141q186 0 300 -126
q113 -127 113 -372v-51h-719q8 -174 93.5 -258t226.5 -84q188 0 340 104zM528 874q-112 0 -194 -79q-84 -80 -101 -230h558q-12 158 -84 234q-73 75 -179 75z" />
    <glyph glyph-name="Eogonek" unicode="&#x118;" horiz-adv-x="1189" 
d="M1096 1272h-752v-457h600v-137h-600v-528h752v-150h-70q-301 -147 -301 -322q0 -127 125 -127q103 0 194 54l31 -115q-124 -63 -266 -63q-115 0 -172 59t-57 158q0 105 72 195.5t208 160.5h-684v1421h920v-149z" />
    <glyph glyph-name="eogonek" unicode="&#x119;" horiz-adv-x="1015" 
d="M956 -313l31 -115q-122 -68 -256 -68q-106 0 -160.5 53.5t-54.5 141.5q0 152 135 281q-29 -5 -58.5 -7.5t-60.5 -3.5q-218 0 -340 137t-122 379q0 236 130 378q131 141 335 141q186 0 300 -126q113 -127 113 -372v-51h-719q8 -174 93.5 -258t226.5 -84q188 0 340 104
l61 -119q-14 -10 -29.5 -20t-31.5 -21q-57 -45 -99.5 -84.5t-71.5 -76.5q-59 -73 -59 -164q0 -101 113 -103q96 2 184 58zM528 874q-112 0 -194 -79q-84 -80 -101 -230h558q-12 158 -84 234q-73 75 -179 75z" />
    <glyph glyph-name="Ecaron" unicode="&#x11a;" horiz-adv-x="1189" 
d="M662 1573h-146l-266 448h133l207 -313l205 313h133zM1096 1272h-752v-457h600v-137h-600v-526h752v-152h-920v1421h920v-149z" />
    <glyph glyph-name="ecaron" unicode="&#x11b;" horiz-adv-x="1015" 
d="M602 1128h-145l-252 443h119l206 -328l207 328h121zM889 217l61 -119q-169 -129 -418 -129q-218 0 -340 137t-122 379q0 236 130 378q131 141 335 141q186 0 300 -126q113 -127 113 -372v-51h-719q8 -174 93.5 -258t226.5 -84q188 0 340 104zM528 874q-112 0 -194 -79
q-84 -80 -101 -230h558q-12 158 -84 234q-73 75 -179 75z" />
    <glyph glyph-name="Gbreve" unicode="&#x11e;" horiz-adv-x="1392" 
d="M756 1618q-170 0 -259 102.5t-77 296.5h127q-12 -289 207 -288q221 0 207 288h129q10 -196 -76.5 -297.5t-257.5 -101.5zM713 791h571v-717q-271 -103 -539 -105q-311 0 -494 197q-183 196 -183 545q0 343 193 542q192 199 493 199q332 0 530 -199l-104 -120
q-160 160 -422 159q-229 0 -373 -158q-145 -158 -145 -423q0 -267 140 -424q140 -156 376 -156q204 0 360 68v452h-403v140z" />
    <glyph glyph-name="gbreve" unicode="&#x11f;" horiz-adv-x="925" 
d="M479 1169q-170 0 -259 102.5t-77 297.5h127q-12 -289 207 -289q220 0 207 289h129q10 -196 -76.5 -298t-257.5 -102zM608 80q75 0 134.5 -19t101.5 -55t64 -88.5t22 -118.5q0 -164 -127 -248q-128 -83 -342 -83q-211 0 -324.5 71.5t-113.5 212.5q0 150 137 225
q-115 57 -115 195q0 30 9 59.5t26 57t40.5 51t51.5 39.5q-100 100 -100 264q0 170 104 266q104 95 268 95q95 0 172 -31h293v-121h-139q57 -85 57 -209q0 -170 -107 -268q-108 -99 -276 -99q-107 0 -190 43q-74 -51 -74 -124q0 -115 131 -115h297zM451 881q-102 0 -172 -61
t-70 -179q0 -115 69 -177q68 -63 173 -63q104 0 173 63q68 62 68 177q0 118 -69 179q-70 61 -172 61zM461 -403q145 0 233 49t88 147q0 76 -50.5 116t-135.5 40h-264q-78 -14 -123 -60.5t-45 -113.5q0 -90 80 -134t217 -44z" />
    <glyph glyph-name="Gdotaccent" unicode="&#x120;" horiz-adv-x="1392" 
d="M766 1616q-24 0 -45.5 9t-37.5 25t-25 37t-9 46t9 46.5t25 37.5t37.5 25t45.5 9q26 0 47.5 -9t37.5 -25t25 -37.5t9 -46.5t-9 -46t-25 -37t-37.5 -25t-47.5 -9zM713 791h571v-717q-271 -103 -539 -105q-311 0 -494 197q-183 196 -183 545q0 343 193 542q192 199 493 199
q332 0 530 -199l-104 -120q-160 160 -422 159q-229 0 -373 -158q-145 -158 -145 -423q0 -267 140 -424q140 -156 376 -156q204 0 360 68v452h-403v140z" />
    <glyph glyph-name="gdotaccent" unicode="&#x121;" horiz-adv-x="925" 
d="M489 1167q-24 0 -45.5 9t-37 25t-24.5 37.5t-9 45.5t9 46t24.5 38t37 25.5t45.5 9.5q49 0 84 -35t35 -84q0 -48 -35 -83q-34 -34 -84 -34zM608 80q75 0 134.5 -19t101.5 -55t64 -88.5t22 -118.5q0 -164 -127 -248q-128 -83 -342 -83q-211 0 -324.5 71.5t-113.5 212.5
q0 150 137 225q-115 57 -115 195q0 30 9 59.5t26 57t40.5 51t51.5 39.5q-100 100 -100 264q0 170 104 266q104 95 268 95q95 0 172 -31h293v-121h-139q57 -85 57 -209q0 -170 -107 -268q-108 -99 -276 -99q-107 0 -190 43q-74 -51 -74 -124q0 -115 131 -115h297zM451 881
q-102 0 -172 -61t-70 -179q0 -115 69 -177q68 -63 173 -63q104 0 173 63q68 62 68 177q0 118 -69 179q-70 61 -172 61zM461 -403q145 0 233 49t88 147q0 76 -50.5 116t-135.5 40h-264q-78 -14 -123 -60.5t-45 -113.5q0 -90 80 -134t217 -44z" />
    <glyph glyph-name="uni0122" unicode="&#x122;" horiz-adv-x="1392" 
d="M713 791h571v-717q-271 -103 -539 -105q-311 0 -494 197q-183 196 -183 545q0 343 193 542q192 199 493 199q332 0 530 -199l-104 -120q-160 160 -422 159q-229 0 -373 -158q-145 -158 -145 -423q0 -267 140 -424q140 -156 376 -156q204 0 360 68v452h-403v140zM713 -121
q69 0 107 -50.5t38 -143.5q0 -236 -223 -338l-60 86q78 35 121 84t56 127q-19 -8 -45 -9q-48 0 -80.5 32t-32.5 89q0 27 9.5 50t25.5 39t38 25t46 9z" />
    <glyph glyph-name="uni0123" unicode="&#x123;" horiz-adv-x="925" 
d="M471 1180q-70 0 -106.5 49.5t-36.5 140.5q0 115 54 202.5t169 135.5l55 -86q-81 -37 -124.5 -88.5t-53.5 -136.5q28 14 59 14q43 0 74 -28.5t31 -79.5q0 -57 -35 -90t-86 -33zM608 80q75 0 134.5 -19t101.5 -55t64 -88.5t22 -118.5q0 -164 -127 -248q-128 -83 -342 -83
q-211 0 -324.5 71.5t-113.5 212.5q0 150 137 225q-115 57 -115 195q0 30 9 59.5t26 57t40.5 51t51.5 39.5q-100 100 -100 264q0 170 104 266q104 95 268 95q95 0 172 -31h293v-121h-139q57 -85 57 -209q0 -170 -107 -268q-108 -99 -276 -99q-107 0 -190 43q-74 -51 -74 -124
q0 -115 131 -115h297zM451 881q-102 0 -172 -61t-70 -179q0 -115 69 -177q68 -63 173 -63q104 0 173 63q68 62 68 177q0 118 -69 179q-70 61 -172 61zM461 -403q145 0 233 49t88 147q0 76 -50.5 116t-135.5 40h-264q-78 -14 -123 -60.5t-45 -113.5q0 -90 80 -134t217 -44z
" />
    <glyph glyph-name="Hbar" unicode="&#x126;" horiz-adv-x="1431" 
d="M1376 1182v-138h-121v-1044h-165v618h-746v-618h-168v1044h-119v138h119v239h168v-239h746v239h165v-239h121zM1090 766v278h-746v-278h746z" />
    <glyph glyph-name="hbar" unicode="&#x127;" horiz-adv-x="1083" 
d="M627 1004q75 0 135.5 -23.5t103 -70t65.5 -115.5t23 -160v-635h-159v596q0 69 -16 118.5t-45.5 82t-70 48t-90.5 15.5q-184 0 -278 -205v-655h-160v1198h-106v125h106v201h160v-201h457v-125h-457v-395q48 93 132.5 147t199.5 54z" />
    <glyph glyph-name="Imacron" unicode="&#x12a;" horiz-adv-x="520" 
d="M-82 1710v135h694v-135h-694zM344 1421v-1421h-168v1421h168z" />
    <glyph glyph-name="imacron" unicode="&#x12b;" horiz-adv-x="479" 
d="M-106 1432h692v-136h-692v136zM319 973v-973h-159v973h159z" />
    <glyph glyph-name="Iogonek" unicode="&#x12e;" horiz-adv-x="520" 
d="M319 -416l31 -114q-122 -62 -266 -64q-113 0 -171 59.5t-58 157.5q0 114 83.5 210.5t239.5 166.5h-2v1421h168v-1421q-344 -156 -344 -342q0 -127 125 -127q102 0 194 53z" />
    <glyph glyph-name="iogonek" unicode="&#x12f;" horiz-adv-x="479" 
d="M252 1167q-24 0 -45.5 9t-37.5 25t-25 37.5t-9 45.5q0 50 34 84q35 35 83 35t83 -35q34 -34 34 -84q0 -24 -9 -45.5t-25 -37.5t-37.5 -25t-45.5 -9zM154 -463q96 0 184 57l31 -114q-122 -68 -256 -68q-106 0 -159.5 52t-53.5 143q0 220 288 393h-28v973h159v-965l3 -2
l-3 -2v-4h-6q-58 -46 -82 -67q-13 -11 -30.5 -26.5t-40.5 -36.5q-44 -41 -64 -72q-20 -29 -36.5 -72t-16.5 -86q0 -103 111 -103z" />
    <glyph glyph-name="Idotaccent" unicode="&#x130;" horiz-adv-x="520" 
d="M190 1650q-34 33 -34 83t34 84q33 34 84 34q24 0 45.5 -9t37.5 -25t25 -37.5t9 -46.5t-9 -46t-24.5 -37t-37 -25t-46.5 -9q-51 0 -84 34zM344 1421v-1421h-168v1421h168z" />
    <glyph glyph-name="dotlessi" unicode="&#x131;" horiz-adv-x="479" 
d="M319 973v-973h-159v973h159z" />
    <glyph glyph-name="uni0136" unicode="&#x136;" horiz-adv-x="1263" 
d="M725 897l498 -897h-199l-422 758l-244 -275v-483h-165v1421h165v-714l631 714h199zM633 -121q69 0 107 -50.5t38 -143.5q0 -236 -225 -338l-57 86q78 35 120.5 84t55.5 127q-22 -7 -47 -9q-48 0 -80.5 32t-32.5 89q0 55 35 89t86 34z" />
    <glyph glyph-name="uni0137" unicode="&#x137;" horiz-adv-x="983" 
d="M618 627l355 -627h-195l-278 496l-205 -226v-270h-160v1524h160v-1059l448 508h193zM492 -121q69 0 107 -50.5t38 -143.5q0 -236 -223 -338l-60 86q78 35 121 84t55 127q-19 -7 -47 -9q-48 0 -79 32t-31 89q0 55 34 89t85 34z" />
    <glyph glyph-name="Lacute" unicode="&#x139;" horiz-adv-x="983" 
d="M561 2007l-248 -430h-114l192 430h170zM176 1421h168v-1269h621v-152h-789v1421z" />
    <glyph glyph-name="lacute" unicode="&#x13a;" horiz-adv-x="430" 
d="M518 2032l-248 -430h-114l192 430h170zM295 1524v-1524h-160v1524h160z" />
    <glyph glyph-name="uni013B" unicode="&#x13b;" horiz-adv-x="983" 
d="M344 152h621v-152h-789v1421h168v-1269zM582 -121q69 0 107 -50.5t38 -143.5q0 -236 -223 -338l-60 86q78 35 121 84t56 127q-19 -7 -46 -9q-49 0 -80.5 32t-31.5 89q0 27 9.5 50t25.5 39t38 25t46 9z" />
    <glyph glyph-name="uni013C" unicode="&#x13c;" horiz-adv-x="430" 
d="M295 1524v-1524h-160v1524h160zM215 -121q69 0 107 -50.5t38 -143.5q0 -236 -225 -338l-57 86q78 35 120 84t56 127q-22 -7 -47 -9q-48 0 -80.5 32t-32.5 89q0 55 35 89t86 34z" />
    <glyph glyph-name="Lcaron" unicode="&#x13d;" horiz-adv-x="983" 
d="M334 1573h-146l-266 448h133l207 -313l205 313h133zM344 152h621v-152h-789v1421h168v-1269z" />
    <glyph glyph-name="lcaron" unicode="&#x13e;" horiz-adv-x="536" 
d="M633 1526l-90 -613h-115l35 613h170zM295 1524v-1524h-160v1524h160z" />
    <glyph glyph-name="Lslash" unicode="&#x141;" horiz-adv-x="983" 
d="M344 152h621v-152h-789v537l-180 -115l-62 125l242 147v727h168v-639l408 258l63 -122l-471 -293v-473z" />
    <glyph glyph-name="lslash" unicode="&#x142;" horiz-adv-x="712" 
d="M715 1034l-285 -186v-848h-160v743l-192 -129l-80 123l272 181v606h160v-502l209 137z" />
    <glyph glyph-name="Nacute" unicode="&#x143;" horiz-adv-x="1396" 
d="M1001 2007l-247 -430h-115l192 430h170zM1065 1421h156v-1421h-162l-725 1116v-1116h-158v1421h160l729 -1124v1124z" />
    <glyph glyph-name="nacute" unicode="&#x144;" horiz-adv-x="1093" 
d="M848 1559l-248 -431h-113l193 431h168zM639 1004q147 0 237 -93q89 -95 89 -276v-635h-160v596q0 135 -61 199q-61 63 -158 63t-169.5 -53t-115.5 -150v-655h-160v973h160v-170q49 93 134.5 147t203.5 54z" />
    <glyph glyph-name="uni0145" unicode="&#x145;" horiz-adv-x="1396" 
d="M1065 1421h156v-1421h-162l-725 1116v-1116h-158v1421h160l729 -1124v1124zM698 -121q69 0 107.5 -50.5t38.5 -143.5q0 -236 -223 -338l-60 86q78 35 121 84t55 127q-19 -8 -45 -9q-49 0 -80.5 32t-31.5 89q0 27 9.5 50t25.5 39t37.5 25t45.5 9z" />
    <glyph glyph-name="uni0146" unicode="&#x146;" horiz-adv-x="1093" 
d="M639 1004q147 0 237 -93q89 -95 89 -276v-635h-160v596q0 135 -61 199q-61 63 -158 63t-169.5 -53t-115.5 -150v-655h-160v973h160v-170q49 93 134.5 147t203.5 54zM547 -121q69 0 107 -50.5t38 -143.5q0 -236 -225 -338l-57 86q78 35 120.5 84t55.5 127q-19 -7 -47 -9
q-48 0 -80.5 32t-32.5 89q0 55 35 89t86 34z" />
    <glyph glyph-name="Ncaron" unicode="&#x147;" horiz-adv-x="1396" 
d="M772 1573h-145l-265 448h134l204 -313l207 313h131zM1065 1421h156v-1421h-162l-725 1116v-1116h-158v1421h160l729 -1124v1124z" />
    <glyph glyph-name="ncaron" unicode="&#x148;" horiz-adv-x="1093" 
d="M618 1128h-145l-252 443h119l207 -328l207 328h120zM639 1004q147 0 237 -93q89 -95 89 -276v-635h-160v596q0 135 -61 199q-61 63 -158 63t-169.5 -53t-115.5 -150v-655h-160v973h160v-170q49 93 134.5 147t203.5 54z" />
    <glyph glyph-name="Eng" unicode="&#x14a;" horiz-adv-x="1392" 
d="M1221 1421v-1360q0 -506 -394 -505q-147 0 -262 61l37 150q85 -62 211 -64q231 0 250 291l-729 1122v-1116h-158v1421h160l729 -1124v1124h156z" />
    <glyph glyph-name="eng" unicode="&#x14b;" horiz-adv-x="1093" 
d="M639 1004q75 0 135.5 -23.5t102.5 -71t65 -118t23 -164.5v-588q0 -439 -342 -488l-45 136q109 14 168 99.5t59 242.5v557q0 145 -61 209q-61 63 -158 63t-169.5 -53t-115.5 -150v-655h-160v973h160v-170q49 93 134.5 147t203.5 54z" />
    <glyph glyph-name="Omacron" unicode="&#x14c;" horiz-adv-x="1521" 
d="M418 1710v135h692v-135h-692zM760 -31q-309 0 -500 203q-192 203 -192 551q0 335 196 532q195 197 496 197q146 0 271.5 -48.5t220.5 -141.5q95 -94 148.5 -232t53.5 -307q0 -353 -190 -553q-190 -201 -504 -201zM760 131q234 0 376 160t142 432q0 258 -144 414
q-146 155 -374 155q-230 0 -373 -155q-143 -157 -143 -414q0 -271 145 -431q144 -161 371 -161z" />
    <glyph glyph-name="omacron" unicode="&#x14d;" horiz-adv-x="1110" 
d="M209 1432h692v-136h-692v136zM906 107q-136 -138 -351 -138t-351 139q-136 137 -136 379q0 240 136 379q137 138 351 138q215 0 351 -138q136 -139 136 -379q0 -243 -136 -380zM324 213q94 -94 232 -94q139 0 233 97t94 273q0 175 -95 273q-96 98 -233 96
q-142 -2 -233 -96q-93 -94 -93 -274t95 -275z" />
    <glyph glyph-name="Ohungarumlaut" unicode="&#x150;" horiz-adv-x="1521" 
d="M858 2003l-205 -430h-104l143 430h166zM1257 2003l-327 -430h-117l274 430h170zM760 -31q-309 0 -500 203q-192 203 -192 551q0 335 196 532q195 197 496 197q146 0 271.5 -48.5t220.5 -141.5q95 -94 148.5 -232t53.5 -307q0 -353 -190 -553q-190 -201 -504 -201z
M760 131q234 0 376 160t142 432q0 258 -144 414q-146 155 -374 155q-230 0 -373 -155q-143 -157 -143 -414q0 -271 145 -431q144 -161 371 -161z" />
    <glyph glyph-name="ohungarumlaut" unicode="&#x151;" horiz-adv-x="1110" 
d="M653 1559l-202 -431h-105l143 431h164zM1057 1559l-328 -431h-113l271 431h170zM906 107q-136 -138 -351 -138t-351 139q-136 137 -136 379q0 240 136 379q137 138 351 138q215 0 351 -138q136 -139 136 -379q0 -243 -136 -380zM324 213q94 -94 232 -94q139 0 233 97
t94 273q0 175 -95 273q-96 98 -233 96q-142 -2 -233 -96q-93 -94 -93 -274t95 -275z" />
    <glyph glyph-name="OE" unicode="&#x152;" horiz-adv-x="2084" 
d="M1991 1272h-721v-457h569v-137h-569v-526h721v-152h-885v29q-155 -59 -340 -60q-313 0 -505 203q-193 202 -193 551q0 334 198 532q197 197 500 197q180 0 340 -66v35h885v-149zM766 131q218 0 340 107v948q-127 106 -340 106q-230 0 -376 -155q-146 -157 -146 -414
q0 -270 146 -431t376 -161z" />
    <glyph glyph-name="oe" unicode="&#x153;" horiz-adv-x="1830" 
d="M1702 217l61 -119q-169 -129 -415 -129q-276 0 -387 224q-61 -106 -166.5 -165t-239.5 -59q-215 0 -351 139q-136 137 -136 379q0 240 136 379q137 138 351 138q136 0 243 -60t167 -174q57 112 157 173t226 61q188 0 302 -124q113 -125 113 -368v-39h-721
q6 -182 91.5 -271t228.5 -89q188 0 340 104zM1341 874q-113 0 -196 -80q-85 -82 -98 -237h559q-11 163 -83 240q-74 77 -182 77zM324 213q94 -94 232 -94q139 0 233 97t94 273q0 175 -95 273q-96 98 -233 96q-142 -2 -233 -96q-93 -94 -93 -274t95 -275z" />
    <glyph glyph-name="Racute" unicode="&#x154;" horiz-adv-x="1333" 
d="M969 2007l-248 -430h-113l193 430h168zM1026 0l-358 604h-310v-604h-165v1421h550q105 0 188 -25.5t140.5 -75.5t88 -124.5t30.5 -173.5q0 -164 -91 -273q-92 -110 -253 -137l379 -612h-199zM358 1272v-529h373q65 0 117 18t89 53t57 85.5t20 116.5q0 129 -77 192.5
t-208 63.5h-371z" />
    <glyph glyph-name="racute" unicode="&#x155;" horiz-adv-x="690" 
d="M647 1559l-248 -431h-114l192 431h170zM612 1001q30 0 60 -8v-145q-137 20 -236 -63q-100 -82 -135 -259v-526h-160v973h160v-254q34 128 118 206q82 76 193 76z" />
    <glyph glyph-name="uni0156" unicode="&#x156;" horiz-adv-x="1333" 
d="M846 612l379 -612h-199l-358 604h-310v-604h-165v1421h550q105 0 188 -25.5t140.5 -75.5t88 -124.5t30.5 -173.5q0 -164 -91 -273q-92 -110 -253 -137zM358 1272v-529h373q65 0 117 18t89 53t57 85.5t20 116.5q0 129 -77 192.5t-208 63.5h-371zM668 -121q69 0 107 -50.5
t38 -143.5q0 -236 -225 -338l-58 86q78 35 121 84t56 127q-22 -8 -48 -9q-48 0 -80 32t-32 89q0 55 35 89t86 34z" />
    <glyph glyph-name="uni0157" unicode="&#x157;" horiz-adv-x="690" 
d="M612 1001q30 0 60 -8v-145q-137 20 -236 -63q-100 -82 -135 -259v-526h-160v973h160v-254q34 128 118 206q82 76 193 76zM225 -121q69 0 107.5 -50.5t38.5 -143.5q0 -236 -224 -338l-59 86q78 35 121 84t55 127q-19 -8 -45 -9q-48 0 -80.5 32t-32.5 89q0 27 9.5 50
t25.5 39t38 25t46 9z" />
    <glyph glyph-name="Rcaron" unicode="&#x158;" horiz-adv-x="1333" 
d="M741 1573h-145l-266 448h133l207 -313l204 313h134zM1026 0l-358 604h-310v-604h-165v1421h550q105 0 188 -25.5t140.5 -75.5t88 -124.5t30.5 -173.5q0 -164 -91 -273q-92 -110 -253 -137l379 -612h-199zM358 1272v-529h373q65 0 117 18t89 53t57 85.5t20 116.5
q0 129 -77 192.5t-208 63.5h-371z" />
    <glyph glyph-name="rcaron" unicode="&#x159;" horiz-adv-x="690" 
d="M418 1128h-146l-254 443h121l207 -328l207 328h121zM301 719q34 128 118 206q82 76 193 76q30 0 60 -8v-145q-137 20 -236 -63q-100 -82 -135 -259v-526h-160v973h160v-254z" />
    <glyph glyph-name="Sacute" unicode="&#x15a;" horiz-adv-x="1058" 
d="M831 2007l-247 -430h-115l193 430h169zM510 -31q-259 0 -453 129l62 154q158 -125 387 -125q142 0 225 64q84 63 84 182q0 49 -17.5 89t-41.5 66q-24 25 -71 50q-23 12 -43.5 21.5t-39.5 16.5t-43.5 14.5t-56.5 16.5q-97 30 -171.5 69t-124 91.5t-75 119.5t-25.5 152
q0 172 113 273q112 100 318 100q242 0 436 -125l-78 -143q-156 116 -350 114q-128 0 -198.5 -55t-70.5 -158q0 -111 70 -171t209 -103q78 -25 132 -45q27 -11 55.5 -25t59.5 -31q62 -37 98 -79q38 -43 62.5 -107t24.5 -145q0 -203 -130 -306q-131 -104 -347 -104z" />
    <glyph glyph-name="sacute" unicode="&#x15b;" horiz-adv-x="841" 
d="M719 1559l-248 -431h-113l193 431h168zM391 430q-163 39 -242 109q-81 69 -81 198q0 128 90.5 197.5t257.5 69.5q193 0 338 -78l-60 -121q-119 71 -272 69q-205 0 -205 -137q0 -63 52.5 -105t164.5 -71q76 -16 129.5 -37.5t102.5 -55.5q98 -67 98 -206q0 -140 -102 -217
q-103 -76 -277 -76q-207 0 -332 78l47 125q122 -74 283 -74q109 0 167 44t58 116q-5 52 -26 81t-70 52q-34 15 -56 21q-11 3 -27 7.5t-38 10.5z" />
    <glyph glyph-name="Scedilla" unicode="&#x15e;" horiz-adv-x="1058" 
d="M987 379q0 -182 -106 -284q-105 -102 -289 -122l-76 -170q56 29 119 29q94 0 147.5 -52t53.5 -149q0 -115 -80 -175q-79 -60 -207 -60q-141 0 -240 72l43 96q27 -25 78 -45.5t117 -20.5q76 0 122 35t46 98q0 48 -29.5 78.5t-83.5 30.5q-83 0 -133 -53l-90 34l100 248
q-242 8 -422 129l62 154q158 -125 387 -125q142 0 225 64q84 63 84 182q0 49 -17.5 89t-41.5 66q-24 25 -71 50q-23 12 -43.5 21.5t-39.5 16.5t-43.5 14.5t-56.5 16.5q-97 30 -171.5 69t-124 91.5t-75 119.5t-25.5 152q0 172 113 273q112 100 318 100q242 0 436 -125
l-78 -143q-156 116 -350 114q-128 0 -198.5 -55t-70.5 -158q0 -111 70 -171t209 -103q78 -25 132 -45q27 -11 55.5 -25t59.5 -31q62 -37 98 -79q38 -43 62.5 -107t24.5 -145z" />
    <glyph glyph-name="scedilla" unicode="&#x15f;" horiz-adv-x="841" 
d="M496 -168q93 0 145.5 -52t52.5 -149q0 -115 -78 -175q-79 -60 -208 -60q-141 0 -240 72l45 96q25 -25 77 -45.5t116 -20.5q78 0 122.5 35t44.5 98q0 48 -29 78.5t-83 30.5q-82 0 -133 -53l-88 34l98 250q-174 7 -285 76l47 125q122 -74 283 -74q109 0 167 44t58 116
q-5 52 -26 81t-70 52q-34 15 -56 21q-11 3 -27 7.5t-38 10.5q-163 39 -242 109q-81 69 -81 198q0 128 90.5 197.5t257.5 69.5q193 0 338 -78l-60 -121q-119 71 -272 69q-205 0 -205 -137q0 -63 52.5 -105t164.5 -71q76 -16 129.5 -37.5t102.5 -55.5q98 -67 98 -206
q0 -127 -83 -200.5t-228 -88.5l-78 -170q56 29 121 29z" />
    <glyph glyph-name="Scaron" unicode="&#x160;" horiz-adv-x="1058" 
d="M604 1573h-147l-264 448h133l206 -313l205 313h133zM555 811q78 -25 132 -45q27 -11 55.5 -25t59.5 -31q62 -37 98 -79q38 -43 62.5 -107t24.5 -145q0 -203 -130 -306q-131 -104 -347 -104q-259 0 -453 129l62 154q158 -125 387 -125q142 0 225 64q84 63 84 182
q0 49 -17.5 89t-41.5 66q-24 25 -71 50q-23 12 -43.5 21.5t-39.5 16.5t-43.5 14.5t-56.5 16.5q-97 30 -171.5 69t-124 91.5t-75 119.5t-25.5 152q0 172 113 273q112 100 318 100q242 0 436 -125l-78 -143q-156 116 -350 114q-128 0 -198.5 -55t-70.5 -158q0 -111 70 -171
t209 -103z" />
    <glyph glyph-name="scaron" unicode="&#x161;" horiz-adv-x="841" 
d="M489 1128h-145l-252 443h119l207 -328l207 328h120zM434 561q76 -16 129.5 -37.5t102.5 -55.5q98 -67 98 -206q0 -140 -102 -217q-103 -76 -277 -76q-207 0 -332 78l47 125q122 -74 283 -74q109 0 167 44t58 116q-5 52 -26 81t-70 52q-34 15 -56 21q-11 3 -27 7.5
t-38 10.5q-163 39 -242 109q-81 69 -81 198q0 128 90.5 197.5t257.5 69.5q193 0 338 -78l-60 -121q-119 71 -272 69q-205 0 -205 -137q0 -63 51.5 -105t165.5 -71z" />
    <glyph glyph-name="uni0162" unicode="&#x162;" horiz-adv-x="1024" 
d="M610 0h-24l-88 -197q56 29 120 29q93 0 146 -52t53 -149q0 -115 -79 -175t-208 -60q-141 0 -239 72l45 96q25 -25 75.5 -45.5t116.5 -20.5q78 0 123 35t45 98q0 48 -29 78.5t-83 30.5q-82 0 -133 -53l-91 34l113 279h-29v1270h-417v151h1001v-151h-418v-1270z" />
    <glyph glyph-name="uni0163" unicode="&#x163;" horiz-adv-x="739" 
d="M463 -168q93 0 146 -52t53 -149q0 -115 -80 -175q-79 -60 -207 -60q-141 0 -240 72l45 96q25 -25 76 -45.5t117 -20.5q78 0 123 35t45 98q0 48 -29.5 78.5t-83.5 30.5q-82 0 -133 -53l-90 34l112 281q-131 72 -131 307v539h-137v125h137v311h160v-311h313v-125h-313v-522
q0 -213 150 -213q99 0 184 63l49 -125q-121 -82 -270 -82q-11 0 -21.5 0.5t-19.5 1.5l-76 -168q56 29 121 29z" />
    <glyph glyph-name="Tcaron" unicode="&#x164;" horiz-adv-x="1024" 
d="M600 1573h-145l-265 448h134l204 -313l207 313h131zM1028 1421v-151h-418v-1270h-166v1270h-417v151h1001z" />
    <glyph glyph-name="tcaron" unicode="&#x165;" horiz-adv-x="741" 
d="M639 1620l-92 -510h-103l37 510h158zM680 176l49 -125q-121 -82 -270 -82q-272 0 -273 340v539h-137v125h137v311h160v-311h313v-125h-313v-522q0 -213 150 -213q99 0 184 63z" />
    <glyph glyph-name="Tbar" unicode="&#x166;" horiz-adv-x="1024" 
d="M1028 1270h-418v-590h279v-137h-279v-543h-166v543h-278v137h278v590h-417v151h1001v-151z" />
    <glyph glyph-name="tbar" unicode="&#x167;" horiz-adv-x="741" 
d="M686 170l43 -119q-121 -82 -270 -82q-272 0 -273 340v164h-135v100h135v287h-137v113h137v311h160v-311h313v-113h-313v-287h307v-100h-307v-158q0 -209 152 -209q105 2 188 64z" />
    <glyph glyph-name="Umacron" unicode="&#x16a;" horiz-adv-x="1402" 
d="M360 1710v135h693v-135h-693zM702 -31q-246 0 -393 162t-147 444v846h166v-854q0 -201 105 -318q103 -118 269 -118q168 0 271 118q102 119 102 318v854h166v-846q0 -286 -146 -446q-147 -160 -393 -160z" />
    <glyph glyph-name="umacron" unicode="&#x16b;" horiz-adv-x="1079" 
d="M887 1432v-136h-694v136h694zM778 973h160v-973h-160v170q-48 -93 -131 -147t-201 -54q-73 0 -132.5 23.5t-101.5 70t-64.5 115.5t-22.5 160v635h160v-594q0 -136 62 -200q61 -64 155 -64q185 0 276 202v656z" />
    <glyph glyph-name="Uring" unicode="&#x16e;" horiz-adv-x="1402" 
d="M455 1872q0 106 69 175q68 69 178 69q111 0 180 -70q68 -71 68 -175q0 -107 -67 -174q-67 -69 -181 -69q-112 0 -180 68q-67 67 -67 176zM844 1872q0 69 -39 108t-103 39q-63 0 -102 -40.5t-39 -106.5q0 -69 39 -107.5t103 -38.5q63 0 102 38t39 108zM702 -31
q-246 0 -393 162t-147 444v846h166v-854q0 -201 105 -318q103 -118 269 -118q168 0 271 118q102 119 102 318v854h166v-846q0 -286 -146 -446q-147 -160 -393 -160z" />
    <glyph glyph-name="uring" unicode="&#x16f;" horiz-adv-x="1079" 
d="M541 1180q-114 0 -182 68t-68 175q0 106 69 175q68 69 181 69q112 0 179 -69q68 -71 68 -175q0 -107 -67 -174q-67 -69 -180 -69zM541 1571q-63 0 -103.5 -41t-40.5 -107q0 -69 39 -107t104 -38t103.5 38t38.5 107t-39 108.5t-102 39.5zM778 973h160v-973h-160v170
q-48 -93 -131 -147t-201 -54q-73 0 -132.5 23.5t-101.5 70t-64.5 115.5t-22.5 160v635h160v-594q0 -136 62 -200q61 -64 155 -64q185 0 276 202v656z" />
    <glyph glyph-name="Uhungarumlaut" unicode="&#x170;" horiz-adv-x="1402" 
d="M799 2003l-203 -430h-104l143 430h164zM1200 2003l-328 -430h-118l276 430h170zM702 -31q-246 0 -393 162t-147 444v846h166v-854q0 -201 105 -318q103 -118 269 -118q168 0 271 118q102 119 102 318v854h166v-846q0 -286 -146 -446q-147 -160 -393 -160z" />
    <glyph glyph-name="uhungarumlaut" unicode="&#x171;" horiz-adv-x="1079" 
d="M639 1559l-205 -431h-104l143 431h166zM715 1128h-115l272 431h170zM778 317v656h160v-973h-160v170q-48 -93 -131 -147t-201 -54q-73 0 -132.5 23.5t-101.5 70t-64.5 115.5t-22.5 160v635h160v-594q0 -136 62 -200q61 -64 155 -64q184 -1 276 202z" />
    <glyph glyph-name="Uogonek" unicode="&#x172;" horiz-adv-x="1402" 
d="M1075 1421h166v-846q0 -114 -24 -208t-69 -167.5t-110.5 -124t-148.5 -77.5q-295 -147 -295 -320q0 -127 125 -127q103 0 194 54l31 -115q-124 -63 -266 -63q-115 0 -172 59t-57 158q0 188 227 325q-234 11 -373 171q-141 161 -141 435v846h166v-854q0 -201 105 -318
q103 -118 269 -118q168 0 271 118q102 119 102 318v854z" />
    <glyph glyph-name="uogonek" unicode="&#x173;" horiz-adv-x="1079" 
d="M956 -412l31 -114q-122 -68 -256 -68q-106 0 -160.5 53.5t-54.5 141.5q0 225 301 399h-39v170q-48 -93 -131 -147t-201 -54q-73 0 -132.5 23.5t-101.5 70t-64.5 115.5t-22.5 160v635h160v-594q0 -136 62 -200q61 -64 155 -64q185 0 276 202v656h160v-973h2
q-55 -44 -72 -57q-9 -7 -24.5 -19.5t-38.5 -32.5q-44 -36 -61 -60q-8 -10 -19 -25t-22 -32.5t-20.5 -35.5t-13.5 -34q-10 -33 -10 -71q0 -102 113 -102q96 0 184 57z" />
    <glyph glyph-name="Wcircumflex" unicode="&#x174;" horiz-adv-x="1859" 
d="M926 1874l-207 -313h-131l264 448h145l267 -448h-134zM1640 1421h172l-366 -1421h-197l-260 920q-31 107 -63 249q-20 -78 -37 -140.5t-31 -110.5l-287 -918h-194l-328 1421h178l230 -1063q11 -68 17.5 -108.5t8.5 -54.5q10 45 20 84.5t21 76.5l326 1051h168l293 -1034
q22 -84 39 -170l7.5 35t9.5 50t9.5 51t7.5 36z" />
    <glyph glyph-name="wcircumflex" unicode="&#x175;" horiz-adv-x="1380" 
d="M684 1456l-207 -328h-121l254 443h146l256 -443h-121zM1190 973h170l-289 -973h-160l-229 754l-248 -754h-158l-256 973h166l183 -770l243 770h148l229 -762z" />
    <glyph glyph-name="Ycircumflex" unicode="&#x176;" horiz-adv-x="1132" 
d="M561 1874l-205 -313h-133l264 448h146l266 -448h-131zM1110 1421l-463 -843v-578h-166v573l-458 848h186l358 -688l359 688h184z" />
    <glyph glyph-name="ycircumflex" unicode="&#x177;" horiz-adv-x="978" 
d="M489 1456l-206 -328h-121l254 443h145l256 -443h-121zM791 973h170l-601 -1475h-167l217 508l-392 967h170l299 -789z" />
    <glyph glyph-name="Ydieresis" unicode="&#x178;" horiz-adv-x="1132" 
d="M375 1622q-24 0 -44 8.5t-34.5 23.5t-22.5 35t-8 42q0 45 30.5 76.5t78.5 31.5q21 0 40.5 -8.5t34 -23t23 -34t8.5 -42.5q0 -22 -8.5 -42t-23 -35t-34 -23.5t-40.5 -8.5zM835 1654q-16 -16 -36 -24t-41 -8t-41 8t-36 24t-24 36t-8 41t8 41t24 36t36 24t41 8t41 -8t36 -24
t24 -36t8 -41t-8 -41t-24 -36zM1110 1421l-463 -843v-578h-166v573l-458 848h186l358 -688l359 688h184z" />
    <glyph glyph-name="Zacute" unicode="&#x179;" horiz-adv-x="1075" 
d="M885 2007l-248 -430h-115l193 430h170zM268 150h776v-150h-972v141l702 1131h-733v149h940v-139z" />
    <glyph glyph-name="zacute" unicode="&#x17a;" horiz-adv-x="755" 
d="M680 1559l-248 -431h-115l193 431h170zM211 129h522v-129h-698v127l481 719h-498v127h680v-125z" />
    <glyph glyph-name="Zdotaccent" unicode="&#x17b;" horiz-adv-x="1075" 
d="M596 1616q-51 0 -84 33.5t-33 83.5q0 25 8.5 46.5t24.5 37.5t37.5 25t46.5 9q24 0 45.5 -9t37.5 -25t25 -37.5t9 -46.5t-9 -46t-25 -37t-37.5 -25t-45.5 -9zM268 150h776v-150h-972v141l702 1131h-733v149h940v-139z" />
    <glyph glyph-name="zdotaccent" unicode="&#x17c;" horiz-adv-x="755" 
d="M391 1167q-25 0 -46.5 9t-37.5 25t-24.5 37.5t-8.5 45.5t8.5 46t24.5 38t37.5 25.5t46.5 9.5q48 0 83 -35q34 -34 34 -84q0 -24 -9 -45.5t-25 -37.5t-37.5 -25t-45.5 -9zM211 129h522v-129h-698v127l481 719h-498v127h680v-125z" />
    <glyph glyph-name="Zcaron" unicode="&#x17d;" horiz-adv-x="1075" 
d="M657 1573h-147l-264 448h133l207 -313l205 313h133zM268 150h776v-150h-972v141l702 1131h-733v149h940v-139z" />
    <glyph glyph-name="zcaron" unicode="&#x17e;" horiz-adv-x="755" 
d="M451 1128h-146l-254 443h121l207 -328l207 328h119zM211 129h522v-129h-698v127l481 719h-498v127h680v-125z" />
    <glyph glyph-name="uni01CD" unicode="&#x1cd;" horiz-adv-x="1243" 
d="M680 1573h-145l-265 448h133l205 -313l205 313h133zM1026 0l-117 344h-592l-110 -344h-164l469 1421h197l493 -1421h-176zM362 483h500l-256 762z" />
    <glyph glyph-name="uni01CE" unicode="&#x1ce;" horiz-adv-x="1005" 
d="M582 1128h-146l-254 443h121l207 -328l207 328h121zM494 1004q180 0 280 -98.5t100 -299.5v-606h-157v137q-54 -76 -140.5 -122t-195.5 -46q-136 0 -228 78t-92 227q0 158 99 237q97 79 241 79q183 0 316 -98v102q0 141 -67.5 205.5t-184.5 64.5q-170 0 -295 -80l-59 115
q156 105 383 105zM426 86q53 0 98.5 13.5t82.5 38.5t64.5 59t45.5 75v103q-116 104 -281 104q-95 0 -157 -52q-64 -52 -64 -148q0 -88 61 -140q61 -53 150 -53z" />
    <glyph glyph-name="uni01CF" unicode="&#x1cf;" horiz-adv-x="520" 
d="M334 1573h-146l-264 448h133l205 -313l207 313h131zM176 0v1421h168v-1421h-168z" />
    <glyph glyph-name="uni01D0" unicode="&#x1d0;" horiz-adv-x="479" 
d="M311 1128h-145l-254 443h121l207 -328l206 328h121zM160 0v973h159v-973h-159z" />
    <glyph glyph-name="uni01D1" unicode="&#x1d1;" horiz-adv-x="1521" 
d="M834 1573h-146l-264 448h131l207 -313l205 313h133zM760 1452q146 0 271.5 -48.5t220.5 -141.5q95 -94 148.5 -232t53.5 -307q0 -353 -190 -553q-190 -201 -504 -201q-309 0 -500 203q-192 203 -192 551q0 335 196 532q195 197 496 197zM760 131q234 0 376 160t142 432
q0 258 -144 414q-146 155 -374 155q-230 0 -373 -155q-143 -157 -143 -414q0 -271 145 -431q144 -161 371 -161z" />
    <glyph glyph-name="uni01D2" unicode="&#x1d2;" horiz-adv-x="1110" 
d="M627 1128h-146l-254 443h121l207 -328l207 328h121zM204 866q137 138 351 138q215 0 351 -138q136 -139 136 -379q0 -243 -136 -380q-136 -138 -351 -138t-351 139q-136 137 -136 379q0 240 136 379zM324 213q94 -94 232 -94q139 0 233 97t94 273q0 175 -95 273
q-96 98 -233 96q-142 -2 -233 -96q-93 -94 -93 -274t95 -275z" />
    <glyph glyph-name="uni01D3" unicode="&#x1d3;" horiz-adv-x="1402" 
d="M776 1573h-145l-266 448h133l207 -313l204 313h133zM1075 1421h166v-846q0 -286 -146 -446q-147 -160 -393 -160t-393 162t-147 444v846h166v-854q0 -201 105 -318q103 -118 269 -118q168 0 271 118q102 119 102 318v854z" />
    <glyph glyph-name="uni01D4" unicode="&#x1d4;" horiz-adv-x="1079" 
d="M612 1128h-145l-254 443h119l207 -328l209 328h118zM778 973h160v-973h-160v170q-48 -93 -131 -147t-201 -54q-73 0 -132.5 23.5t-101.5 70t-64.5 115.5t-22.5 160v635h160v-594q0 -136 62 -200q61 -64 155 -64q185 0 276 202v656z" />
    <glyph glyph-name="uni0218" unicode="&#x218;" horiz-adv-x="1058" 
d="M555 811q78 -25 132 -45q27 -11 55.5 -25t59.5 -31q62 -37 98 -79q38 -43 62.5 -107t24.5 -145q0 -203 -130 -306q-131 -104 -347 -104q-259 0 -453 129l62 154q158 -125 387 -125q142 0 225 64q84 63 84 182q0 49 -17.5 89t-41.5 66q-24 25 -71 50q-23 12 -43.5 21.5
t-39.5 16.5t-43.5 14.5t-56.5 16.5q-97 30 -171.5 69t-124 91.5t-75 119.5t-25.5 152q0 172 113 273q112 100 318 100q242 0 436 -125l-78 -143q-156 116 -350 114q-128 0 -198.5 -55t-70.5 -158q0 -111 70 -171t209 -103zM545 -121q69 0 107 -50.5t38 -143.5
q0 -236 -223 -338l-59 86q78 35 120.5 84t55.5 127q-19 -7 -47 -9q-48 0 -79.5 32t-31.5 89q0 55 34 89t85 34z" />
    <glyph glyph-name="uni0219" unicode="&#x219;" horiz-adv-x="841" 
d="M434 561q76 -16 129.5 -37.5t102.5 -55.5q98 -67 98 -206q0 -140 -102 -217q-103 -76 -277 -76q-207 0 -332 78l47 125q122 -74 283 -74q109 0 167 44t58 116q-5 52 -26 81t-70 52q-34 15 -56 21q-11 3 -27 7.5t-38 10.5q-163 39 -242 109q-81 69 -81 198
q0 128 90.5 197.5t257.5 69.5q193 0 338 -78l-60 -121q-119 71 -272 69q-205 0 -205 -137q0 -63 51.5 -105t165.5 -71zM406 -121q66 0 104.5 -50.5t38.5 -143.5q0 -236 -223 -338l-58 86q78 35 120 84t56 127q-22 -7 -47 -9q-48 0 -80 32t-32 89q0 55 35 89t86 34z" />
    <glyph glyph-name="uni021A" unicode="&#x21a;" horiz-adv-x="1024" 
d="M27 1421h1001v-151h-418v-1270h-166v1270h-417v151zM526 -121q69 0 107.5 -50.5t38.5 -143.5q0 -236 -223 -338l-60 86q81 35 122.5 84t53.5 127q-19 -8 -45 -9q-48 0 -80 32t-32 89q0 27 9.5 50t25.5 39t37.5 25t45.5 9z" />
    <glyph glyph-name="uni021B" unicode="&#x21b;" horiz-adv-x="739" 
d="M459 -31q-272 0 -273 340v539h-137v125h137v311h160v-311h313v-125h-313v-522q0 -213 150 -213q99 0 184 63l49 -125q-119 -82 -270 -82zM371 -121q69 0 107 -50.5t38 -143.5q0 -236 -223 -338l-60 86q78 35 121 84t56 127q-19 -8 -45 -9q-49 0 -81 32t-32 89q0 55 34 89
t85 34z" />
    <glyph glyph-name="circumflex" unicode="&#x2c6;" horiz-adv-x="1228" 
d="M684 1128h-121l-207 328l-206 -328h-121l254 443h145z" />
    <glyph glyph-name="caron" unicode="&#x2c7;" horiz-adv-x="1228" 
d="M575 1571h119l-254 -443h-145l-254 443h119l209 -328z" />
    <glyph glyph-name="breve" unicode="&#x2d8;" horiz-adv-x="1228" 
d="M43 1569h129q-13 -289 207 -289q219 0 207 289h127q12 -195 -76 -297.5t-256 -102.5q-171 0 -259.5 102t-78.5 298z" />
    <glyph glyph-name="dotaccent" unicode="&#x2d9;" horiz-adv-x="1228" 
d="M75 1201q-34 34 -34 83q0 50 34 84q35 35 83 35q49 0 84 -35q34 -34 34 -84q0 -24 -9 -45.5t-24.5 -37.5t-37 -25t-47.5 -9q-49 0 -83 34z" />
    <glyph glyph-name="ring" unicode="&#x2da;" horiz-adv-x="1071" 
d="M29 1423q0 106 69 175q68 69 181 69q112 0 179 -69q68 -71 68 -175q0 -107 -67 -174q-67 -69 -180 -69q-115 0 -182 67q-68 68 -68 176zM420 1423q0 69 -39 108.5t-102 39.5t-103.5 -41t-40.5 -107q0 -69 39 -107t104 -38t103.5 37.5t38.5 107.5z" />
    <glyph glyph-name="ogonek" unicode="&#x2db;" horiz-adv-x="1228" 
d="M270 -547q-106 0 -160.5 53.5t-54.5 141.5q0 250 369 436l55 -37q-29 -22 -47 -36t-26 -21t-23.5 -19.5t-38.5 -32.5q-44 -36 -61 -60q-8 -10 -19 -25t-22 -32.5t-20.5 -35.5t-13.5 -34q-9 -35 -9 -70q0 -102 112 -103q94 0 185 57l30 -114q-122 -68 -256 -68z" />
    <glyph glyph-name="tilde" unicode="&#x2dc;" horiz-adv-x="1228" 
d="M242 1407q-48 0 -67 -62t-17 -196h-115q-8 207 36 301t140 94q38 0 78 -24q42 -26 65 -48l27.5 -30t36.5 -41q17 -22 30.5 -37l22.5 -25q8 -10 19.5 -20t25.5 -20q27 -21 51 -21q90 0 87 262h114q13 -397 -178 -397q-20 -2 -44 6t-40 16q-10 4 -25.5 16.5t-23.5 18.5
q-4 3 -10.5 9.5l-13 13t-12.5 13t-9 9.5q-6 7 -23 26q-9 10 -15 15.5t-9 7.5q-17 20 -28.5 35t-19.5 24q-8 8 -18 17t-22 19q-25 18 -43 18z" />
    <glyph glyph-name="hungarumlaut" unicode="&#x2dd;" horiz-adv-x="1228" 
d="M324 1559l-203 -431h-105l144 431h164zM727 1559l-328 -431h-112l270 431h170z" />
    <glyph glyph-name="gravecomb" unicode="&#x300;" 
d="M-41 1128h-115l-247 431h170z" />
    <glyph glyph-name="acutecomb" unicode="&#x301;" 
d="M-39 1559l-250 -431h-112l192 431h170z" />
    <glyph glyph-name="uni0302" unicode="&#x302;" 
d="M-29 1128h-121l-206 328l-207 -328h-121l254 443h145z" />
    <glyph glyph-name="tildecomb" unicode="&#x303;" 
d="M-575 1407q-48 0 -67.5 -62t-16.5 -196h-115q-10 207 35 301t139 94q38 0 79 -24q39 -25 64 -48q13 -12 29.5 -30t36.5 -41q17 -22 29.5 -37t21.5 -25t20.5 -20t25.5 -20q28 -21 50 -21q90 0 86 262h115q16 -397 -176 -397q-23 -2 -45.5 6t-39.5 16q-11 4 -25.5 16.5
t-22.5 18.5q-3 2 -10 8.5t-14.5 14l-14 14t-9.5 8.5q-7 7 -23 26q-8 10 -13.5 15.5l-7.5 7.5q-17 20 -29 35t-20 24q-16 18 -40 36t-42 18z" />
    <glyph glyph-name="uni0304" unicode="&#x304;" 
d="M-733 1432h692v-136h-692v136z" />
    <glyph glyph-name="uni0306" unicode="&#x306;" 
d="M-713 1569h129q-13 -289 207 -289q219 0 207 289h127q12 -195 -76 -297.5t-256 -102.5q-171 0 -259.5 102t-78.5 298z" />
    <glyph glyph-name="uni0307" unicode="&#x307;" 
d="M-218 1201q-28 25 -33 60.5t8 67.5t42 54t68 20q48 0 83 -35q34 -34 34 -84q0 -24 -9 -45.5t-25 -37.5t-37.5 -25t-45.5 -9q-51 0 -85 34z" />
    <glyph glyph-name="uni0308" unicode="&#x308;" 
d="M-648 1299q-24 22 -28.5 54t7 60.5t36.5 48t60 17.5q21 0 40 -8.5t32.5 -22.5t21.5 -33.5t8 -41.5q0 -45 -29.5 -75t-72.5 -30q-45 0 -75 31zM-221 1299q-15 15 -23 34.5t-8 39.5t8 40t23 35t35 23t40 8t39.5 -8t34.5 -23t23 -35t8 -40t-8 -39.5t-23 -34.5t-34.5 -23
t-39.5 -8t-40 8t-35 23z" />
    <glyph glyph-name="uni030A" unicode="&#x30a;" 
d="M-520 1423q0 105 68 175q69 69 180 69t179 -69q68 -71 68 -175q0 -106 -68 -174q-68 -69 -179 -69q-114 0 -181 67t-67 176zM-129 1423q0 69 -40 108.5t-103 39.5t-102.5 -41t-39.5 -107q0 -69 38.5 -107t103.5 -38t104 37.5t39 107.5z" />
    <glyph glyph-name="uni030B" unicode="&#x30b;" 
d="M-430 1559l-203 -431h-104l143 431h164zM-27 1559l-327 -431h-113l270 431h170z" />
    <glyph glyph-name="uni030C" unicode="&#x30c;" 
d="M-160 1571h119l-256 -443h-145l-252 443h119l206 -328z" />
    <glyph glyph-name="uni0312" unicode="&#x312;" 
d="M-162 1411q21 0 40 -7.5t33.5 -21t23 -33.5t8.5 -46q0 -28 -9.5 -51t-26.5 -39t-39.5 -24.5t-47.5 -8.5q-69 0 -106.5 49.5t-37.5 140.5q0 115 55.5 202.5t170.5 135.5l55 -86q-82 -37 -125 -89t-55 -136q30 14 61 14z" />
    <glyph glyph-name="uni0326" unicode="&#x326;" 
d="M-250 -121q69 0 107.5 -50.5t38.5 -143.5q0 -236 -226 -338l-57 86q78 35 121 84t55 127q-22 -7 -47 -9q-48 0 -80.5 32t-32.5 89q0 55 35 89t86 34z" />
    <glyph glyph-name="uni0327" unicode="&#x327;" 
d="M-297 -160q93 0 146 -50.5t53 -147.5q0 -115 -79 -176q-80 -60 -206 -60q-143 0 -240 72l43 94q27 -23 78 -43.5t115 -20.5q78 0 123 34t45 100q0 48 -28.5 78t-82.5 30q-83 0 -133 -53l-90 33l115 288h114l-92 -204q57 26 119 26z" />
    <glyph glyph-name="uni0328" unicode="&#x328;" 
d="M-311 -547q-106 0 -160.5 53.5t-54.5 141.5q0 250 368 436l56 -37q-29 -22 -47.5 -36t-26.5 -21t-23.5 -19.5t-38.5 -32.5q-44 -36 -61 -60q-8 -10 -19 -25t-22 -32.5t-20.5 -35.5t-13.5 -34q-9 -35 -9 -70q0 -101 113 -103q94 0 184 57l31 -114q-122 -68 -256 -68z" />
    <glyph glyph-name="uni0335" unicode="&#x335;" 
d="M-764 502v137h723v-137h-723z" />
    <glyph glyph-name="uni0336" unicode="&#x336;" 
 />
    <glyph glyph-name="uni0337" unicode="&#x337;" 
d="M-756 197l-125 100l723 811l129 -94z" />
    <glyph glyph-name="uni0338" unicode="&#x338;" 
 />
    <glyph glyph-name="Wgrave" unicode="&#x1e80;" horiz-adv-x="1859" 
d="M983 1573h-119l-280 430h170zM1640 1421h172l-366 -1421h-197l-260 920q-31 107 -63 249q-20 -78 -37 -140.5t-31 -110.5l-287 -918h-194l-328 1421h178l230 -1063q11 -68 17.5 -108.5t8.5 -54.5q10 45 20 84.5t21 76.5l326 1051h168l293 -1034q22 -84 39 -170l7.5 35
t9.5 50t9.5 51t7.5 36z" />
    <glyph glyph-name="wgrave" unicode="&#x1e81;" horiz-adv-x="1380" 
d="M745 1128h-114l-248 431h170zM1190 973h170l-289 -973h-160l-229 754l-248 -754h-158l-256 973h166l183 -770l243 770h148l229 -762z" />
    <glyph glyph-name="Wacute" unicode="&#x1e82;" horiz-adv-x="1859" 
d="M1298 1993l-311 -420h-131l262 420h180zM1640 1421h172l-366 -1421h-197l-260 920q-31 107 -63 249q-20 -78 -37 -140.5t-31 -110.5l-287 -918h-194l-328 1421h178l230 -1063q11 -68 17.5 -108.5t8.5 -54.5q10 45 20 84.5t21 76.5l326 1051h168l293 -1034q22 -84 39 -170
l7.5 35t9.5 50t9.5 51t7.5 36z" />
    <glyph glyph-name="wacute" unicode="&#x1e83;" horiz-adv-x="1380" 
d="M985 1559l-248 -431h-114l192 431h170zM1190 973h170l-289 -973h-160l-229 754l-248 -754h-158l-256 973h166l183 -770l243 770h148l229 -762z" />
    <glyph glyph-name="Wdieresis" unicode="&#x1e84;" horiz-adv-x="1859" 
d="M737 1622q-22 0 -41.5 8.5t-34 23.5t-22.5 35t-8 42q0 23 8 42.5t22.5 34t34 23t41.5 8.5q23 0 42.5 -8.5t33.5 -23t22.5 -34t8.5 -42.5q0 -22 -8.5 -42t-22.5 -35t-33.5 -23.5t-42.5 -8.5zM1199 1654q-32 -32 -78 -32t-76 32q-15 16 -23 36t-8 41t8 41t24 36t35.5 24
t40.5 8t41 -8t36 -24t24 -36t8 -41t-8 -41t-24 -36zM1640 1421h172l-366 -1421h-197l-260 920q-31 107 -63 249q-20 -78 -37 -140.5t-31 -110.5l-287 -918h-194l-328 1421h178l230 -1063q11 -68 17.5 -108.5t8.5 -54.5q10 45 20 84.5t21 76.5l326 1051h168l293 -1034
q22 -84 39 -170l7.5 35t9.5 50t9.5 51t7.5 36z" />
    <glyph glyph-name="wdieresis" unicode="&#x1e85;" horiz-adv-x="1380" 
d="M469 1268q-21 0 -40 8t-33.5 22.5t-22.5 33.5t-8 41t8 41.5t22.5 33.5t33.5 22.5t40 8.5t40 -8.5t33.5 -22.5t22.5 -33.5t8 -41.5q0 -45 -29.5 -75t-74.5 -30zM972 1299q-30 -31 -74 -31t-74 31q-15 15 -23 34.5t-8 39.5t8 40t23 35q30 31 74 31t74 -31q15 -15 22 -35
t7 -40t-7 -39.5t-22 -34.5zM1190 973h170l-289 -973h-160l-229 754l-248 -754h-158l-256 973h166l183 -770l243 770h148l229 -762z" />
    <glyph glyph-name="Ygrave" unicode="&#x1ef2;" horiz-adv-x="1132" 
d="M618 1573h-118l-281 430h170zM1110 1421l-463 -843v-578h-166v573l-458 848h186l358 -688l359 688h184z" />
    <glyph glyph-name="ygrave" unicode="&#x1ef3;" horiz-adv-x="978" 
d="M551 1128h-115l-248 431h170zM791 973h170l-601 -1475h-167l217 508l-392 967h170l299 -789z" />
    <glyph glyph-name="endash" unicode="&#x2013;" horiz-adv-x="1103" 
d="M63 502v137h977v-137h-977z" />
    <glyph glyph-name="emdash" unicode="&#x2014;" horiz-adv-x="1345" 
d="M63 502v137h1217v-137h-1217z" />
    <glyph glyph-name="quoteleft" unicode="&#x2018;" horiz-adv-x="473" 
d="M256 1126q45 0 73.5 -27t28.5 -78t-31 -81.5t-79 -30.5q-72 0 -112 59.5t-40 168.5q0 131 66 239q65 107 180 156l57 -84q-86 -29 -142 -110q-57 -83 -58 -181q-1 -13 -0.5 -23.5t2.5 -19.5q24 12 55 12z" />
    <glyph glyph-name="quoteright" unicode="&#x2019;" horiz-adv-x="473" 
d="M225 1538q70 0 111 -59t41 -168q0 -131 -66 -238q-68 -109 -180 -158l-57 84q85 28 141 110q54 79 59 181q0 13 -0.5 23.5t-1.5 19.5q-25 -12 -57 -12q-43 0 -71.5 27.5t-28.5 78.5t30.5 81t79.5 30z" />
    <glyph glyph-name="quotesinglbase" unicode="&#x201a;" horiz-adv-x="1228" 
d="M233 223q66 0 104 -51.5t38 -151.5q0 -154 -72 -278q-72 -122 -192 -178l-60 86q190 103 213 323q-16 -4 -39 -4q-49 0 -82.5 34t-33.5 91t35 93t89 36z" />
    <glyph glyph-name="quotedblleft" unicode="&#x201c;" horiz-adv-x="1228" 
d="M256 1126q45 0 73.5 -27t28.5 -78t-31 -81.5t-79 -30.5q-72 0 -112 59.5t-40 168.5q0 131 66 239q65 107 180 156l57 -84q-86 -29 -142 -110q-57 -83 -58 -181q-1 -13 -0.5 -23.5t2.5 -19.5q24 12 55 12z" />
    <glyph glyph-name="quotedblright" unicode="&#x201d;" horiz-adv-x="1228" 
d="M225 1538q70 0 111 -59t41 -168q0 -131 -66 -238q-68 -109 -180 -158l-57 84q85 28 141 110q54 79 59 181q0 13 -0.5 23.5t-1.5 19.5q-25 -12 -57 -12q-43 0 -71.5 27.5t-28.5 78.5t30.5 81t79.5 30z" />
    <glyph glyph-name="quotedblbase" unicode="&#x201e;" horiz-adv-x="1228" 
d="M233 223q66 0 104 -51.5t38 -151.5q0 -154 -72 -278q-72 -122 -192 -178l-60 86q190 103 213 323q-16 -4 -39 -4q-49 0 -82.5 34t-33.5 91t35 93t89 36z" />
    <glyph glyph-name="dagger" unicode="&#x2020;" horiz-adv-x="735" 
d="M711 973v-137h-265v-1207h-159v1207h-262v137h262v448h159v-448h265z" />
    <glyph glyph-name="daggerdbl" unicode="&#x2021;" horiz-adv-x="735" 
d="M711 836h-265v-629h265v-137h-265v-441h-159v441h-262v137h262v629h-262v137h262v448h159v-448h265v-137z" />
    <glyph glyph-name="bullet" unicode="&#x2022;" horiz-adv-x="528" 
d="M127 556q-55 54 -55 135q0 82 55 138q56 56 139 56q78 0 134 -56q55 -56 55 -138q0 -81 -55 -135t-134 -54q-83 0 -139 54z" />
    <glyph glyph-name="ellipsis" unicode="&#x2026;" horiz-adv-x="1187" 
d="M150 6q-37 37 -37 94t37 94q36 37 94 37q53 0 91 -38q38 -40 38 -93q0 -55 -38 -93t-91 -38q-57 0 -94 37zM499 6q-38 38 -38 94t38 94q37 37 93 37q55 0 93 -38q38 -40 38 -93q0 -55 -38 -93t-93 -38q-56 0 -93 37zM847 6q-38 38 -38 94t38 94q37 37 93 37q54 0 92 -38
q37 -38 37 -93q0 -56 -37 -93q-38 -38 -92 -38q-56 0 -93 37z" />
    <glyph glyph-name="perthousand" unicode="&#x2030;" horiz-adv-x="2385" 
d="M53 1110q0 152 95 247t244 95t242 -95q93 -94 93 -247q0 -152 -93 -248t-242 -96t-244 96q-95 97 -95 248zM1200 1421l-557 -1421h-162l557 1421h162zM612 1110q0 95 -61 163q-62 68 -161 68q-98 0 -160 -68q-62 -70 -62 -164t62 -162t162 -68t160 68t60 163zM944 313
q0 151 95 248q95 96 244 96t243 -96q94 -95 94 -248t-94 -248q-94 -96 -243 -96t-244 96q-95 97 -95 248zM1659 313q0 153 94 248q95 96 244 96t243 -96q93 -96 93 -248t-93 -248q-94 -96 -243 -96t-244 96q-94 95 -94 248zM1503 313q0 97 -61 165q-61 69 -160 69
q-97 0 -159 -68q-62 -70 -62 -164q0 -97 61 -164q60 -69 160 -69t161 69q60 68 60 162zM2218 313q0 97 -61 165q-61 69 -161 69t-160 -68q-60 -69 -60 -164q0 -96 60 -164q60 -69 161 -69q100 0 161 69q60 68 60 162z" />
    <glyph glyph-name="guilsinglleft" unicode="&#x2039;" horiz-adv-x="706" 
d="M612 1028v-162l-450 -288l450 -302v-161l-567 393v141z" />
    <glyph glyph-name="guilsinglright" unicode="&#x203a;" horiz-adv-x="704" 
d="M94 1028l568 -379v-139l-568 -395v161l451 302l-451 288v162z" />
    <glyph glyph-name="fraction" unicode="&#x2044;" horiz-adv-x="860" 
d="M825 1421l-626 -1421h-164l627 1421h163z" />
    <glyph glyph-name="Euro" unicode="&#x20ac;" horiz-adv-x="1355" 
d="M1225 385l88 -139q-201 -275 -596 -277q-250 0 -414 150q-164 149 -205 418h-168v98h158q-1 19 -1.5 37.5t-0.5 38.5q0 25 1 49t3 47h-160v98h174q55 256 238 401q182 144 434 144q308 0 514 -190l-96 -136q-167 164 -416 164q-183 0 -314 -100q-132 -101 -179 -283h565
v-98h-584q-6 -45 -6 -94q0 -20 1 -39t3 -39h586v-98h-574q39 -191 160 -297q122 -107 297 -107q318 0 492 252z" />
    <glyph glyph-name="trademark" unicode="&#x2122;" horiz-adv-x="1462" 
d="M23 1317v106h567v-106h-232v-608h-116v608h-219zM1309 709v352q0 38 1 86t3 106l-226 -493h-75l-226 493q2 -51 3 -99t2 -93v-352h-105v714h131l238 -532l229 532h131l4 -714h-110z" />
    <glyph glyph-name="partialdiff" unicode="&#x2202;" horiz-adv-x="1228" 
 />
    <glyph glyph-name="emptyset" unicode="&#x2205;" horiz-adv-x="1228" 
 />
    <glyph glyph-name="product" unicode="&#x220f;" horiz-adv-x="1228" 
 />
    <glyph glyph-name="summation" unicode="&#x2211;" horiz-adv-x="1228" 
 />
    <glyph glyph-name="minus" unicode="&#x2212;" horiz-adv-x="1114" 
d="M104 750h906v-142h-906v142z" />
    <glyph glyph-name="radical" unicode="&#x221a;" horiz-adv-x="1228" 
 />
    <glyph glyph-name="infinity" unicode="&#x221e;" horiz-adv-x="1228" 
 />
    <glyph glyph-name="integral" unicode="&#x222b;" horiz-adv-x="1228" 
 />
    <glyph glyph-name="approxequal" unicode="&#x2248;" horiz-adv-x="1228" 
 />
    <glyph glyph-name="notequal" unicode="&#x2260;" horiz-adv-x="1114" 
d="M1010 817h-285l-176 -317h461v-140h-541l-111 -198l-120 55l79 143h-213v140h291l178 317h-469v139h547l99 174l120 -55l-65 -119h205v-139z" />
    <glyph glyph-name="lessequal" unicode="&#x2264;" horiz-adv-x="1228" 
 />
    <glyph glyph-name="greaterequal" unicode="&#x2265;" horiz-adv-x="1228" 
 />
    <glyph glyph-name="lozenge" unicode="&#x25ca;" horiz-adv-x="1228" 
 />
    <glyph glyph-name="A.c2sc" horiz-adv-x="1150" 
d="M928 0l-97 238h-528l-90 -238h-158l414 1053h193l432 -1053h-166zM346 354h440l-225 566z" />
    <glyph glyph-name="A.swash" horiz-adv-x="1622" 
d="M1403 0l-115 344h-592l-110 -344h-166l426 1284h-242q-420 0 -420 -289q0 -128 76.5 -195t220.5 -69l-39 -129q-105 4 -184 38.5t-127 91.5t-70 122.5t-22 138.5q0 87 28.5 159.5t91.5 135.5t179 98t276 35h277h196l492 -1421h-176zM739 483h502l-256 762z" />
    <glyph glyph-name="AE.aalt" horiz-adv-x="1384" 
d="M1305 915h-461l12 -305l338 -2v-123h-332l15 -346h428v-139h-580l-10 244h-389l-103 -244h-157l454 1053h785v-138zM709 360l-23 555h-74l-235 -555h332z" />
    <glyph glyph-name="Aacute.c2sc" horiz-adv-x="1150" 
d="M868 1636l-247 -430h-115l192 430h170zM928 0l-97 238h-528l-90 -238h-158l414 1053h193l432 -1053h-166zM346 354h440l-225 566z" />
    <glyph glyph-name="Aacute.swash" horiz-adv-x="1622" 
d="M1354 1993l-314 -420h-131l262 420h183zM1403 0l-115 344h-592l-110 -344h-166l426 1284h-242q-420 0 -420 -289q0 -128 76.5 -195t220.5 -69l-39 -129q-105 4 -184 38.5t-127 91.5t-70 122.5t-22 138.5q0 87 28.5 159.5t91.5 135.5t179 98t276 35h277h196l492 -1421
h-176zM739 483h502l-256 762z" />
    <glyph glyph-name="Abreve.c2sc" horiz-adv-x="1150" 
d="M569 1247q-171 0 -259.5 102t-78.5 298h129q-13 -289 207 -289t207 289h129q10 -195 -78 -297.5t-256 -102.5zM928 0l-97 238h-528l-90 -238h-158l414 1053h193l432 -1053h-166zM346 354h440l-225 566z" />
    <glyph glyph-name="Abreve.swash" horiz-adv-x="1622" 
d="M985 1591q-168 0 -257 102.5t-79 297.5h127q-12 -289 209 -289q219 0 207 289h127q12 -195 -76 -297.5t-258 -102.5zM1403 0l-115 344h-592l-110 -344h-166l426 1284h-242q-420 0 -420 -289q0 -128 76.5 -195t220.5 -69l-39 -129q-105 4 -184 38.5t-127 91.5t-70 122.5
t-22 138.5q0 87 28.5 159.5t91.5 135.5t179 98t276 35h277h196l492 -1421h-176zM739 483h502l-256 762z" />
    <glyph glyph-name="Acircumflex.c2sc" horiz-adv-x="1150" 
d="M567 1534l-207 -328h-120l254 443h145l256 -443h-121zM928 0l-97 238h-528l-90 -238h-158l414 1053h193l432 -1053h-166zM346 354h440l-225 566z" />
    <glyph glyph-name="Acircumflex.swash" horiz-adv-x="1622" 
d="M981 1874l-207 -313h-133l264 448h148l266 -448h-133zM1403 0l-115 344h-592l-110 -344h-166l426 1284h-242q-420 0 -420 -289q0 -128 76.5 -195t220.5 -69l-39 -129q-105 4 -184 38.5t-127 91.5t-70 122.5t-22 138.5q0 87 28.5 159.5t91.5 135.5t179 98t276 35h277h196
l492 -1421h-176zM739 483h502l-256 762z" />
    <glyph glyph-name="Adieresis.c2sc" horiz-adv-x="1150" 
d="M354 1346q-45 0 -75.5 29t-30.5 74t30.5 75t75.5 30q21 0 40 -8t33 -22.5t22 -33.5t8 -41q0 -45 -30 -74t-73 -29zM856 1376q-15 -15 -35 -22.5t-40 -7.5t-39.5 7.5t-34.5 22.5q-31 28 -31 73q0 44 31 75q15 15 34.5 22.5t39.5 7.5t40 -7.5t35 -22.5q31 -31 31 -75
q0 -45 -31 -73zM928 0l-97 238h-528l-90 -238h-158l414 1053h193l432 -1053h-166zM346 354h440l-225 566z" />
    <glyph glyph-name="Adieresis.swash" horiz-adv-x="1622" 
d="M793 1622q-22 0 -42 8.5t-35 23.5t-23.5 35t-8.5 42q0 23 8.5 42.5t23.5 34t35 23t42 8.5q23 0 42 -8.5t33.5 -23t22.5 -34t8 -42.5q0 -22 -8 -42t-22.5 -35t-33.5 -23.5t-42 -8.5zM1254 1654q-32 -32 -77 -32q-47 0 -77 32q-15 16 -23 36t-8 41t8 41t23 36q30 31 76 31
t77 -31q16 -16 23.5 -36t7.5 -41t-7.5 -41t-22.5 -36zM1403 0l-115 344h-592l-110 -344h-166l426 1284h-242q-420 0 -420 -289q0 -128 76.5 -195t220.5 -69l-39 -129q-105 4 -184 38.5t-127 91.5t-70 122.5t-22 138.5q0 87 28.5 159.5t91.5 135.5t179 98t276 35h277h196
l492 -1421h-176zM739 483h502l-256 762z" />
    <glyph glyph-name="Agrave.c2sc" horiz-adv-x="1150" 
d="M629 1206h-115l-248 430h170zM928 0l-97 238h-528l-90 -238h-158l414 1053h193l432 -1053h-166zM346 354h440l-225 566z" />
    <glyph glyph-name="Agrave.swash" horiz-adv-x="1622" 
d="M1038 1573h-120l-279 430h170zM1403 0l-115 344h-592l-110 -344h-166l426 1284h-242q-420 0 -420 -289q0 -128 76.5 -195t220.5 -69l-39 -129q-105 4 -184 38.5t-127 91.5t-70 122.5t-22 138.5q0 87 28.5 159.5t91.5 135.5t179 98t276 35h277h196l492 -1421h-176z
M739 483h502l-256 762z" />
    <glyph glyph-name="Amacron.c2sc" horiz-adv-x="1150" 
d="M913 1507v-133h-692v133h692zM928 0l-97 238h-528l-90 -238h-158l414 1053h193l432 -1053h-166zM346 354h440l-225 566z" />
    <glyph glyph-name="Amacron.swash" horiz-adv-x="1622" 
d="M1333 1845v-135h-692v135h692zM1403 0l-115 344h-592l-110 -344h-166l426 1284h-242q-420 0 -420 -289q0 -128 76.5 -195t220.5 -69l-39 -129q-105 4 -184 38.5t-127 91.5t-70 122.5t-22 138.5q0 87 28.5 159.5t91.5 135.5t179 98t276 35h277h196l492 -1421h-176z
M739 483h502l-256 762z" />
    <glyph glyph-name="Aogonek.c2sc" horiz-adv-x="1150" 
d="M862 -440q93 0 182 55l31 -115q-119 -66 -252 -65q-109 0 -164 54.5t-55 156.5q0 106 85 206q86 100 231 168l-89 218h-528l-90 -238h-158l414 1053h193l432 -1053h-58q-129 -79 -209 -157q-79 -76 -79 -167q-2 -116 114 -116zM346 354h440l-225 566z" />
    <glyph glyph-name="Aogonek.swash" horiz-adv-x="1622" 
d="M1348 -469q102 0 194 53l31 -114q-123 -62 -266 -64q-115 0 -172.5 59.5t-57.5 157.5q0 114 84.5 210.5t241.5 168.5l-115 342h-592l-110 -344h-166l426 1284h-242q-420 0 -420 -289q0 -128 76.5 -195t220.5 -69l-39 -129q-105 4 -184 38.5t-127 91.5t-70 122.5
t-22 138.5q0 87 28.5 159.5t91.5 135.5t179 98t276 35h277h196l492 -1421h-12q-344 -156 -344 -342q0 -127 125 -127zM739 483h502l-256 762z" />
    <glyph glyph-name="Aring.c2sc" horiz-adv-x="1150" 
d="M567 1257q-112 0 -180 68t-68 174q0 109 69 178q70 68 179 68q111 0 180 -70q68 -71 68 -175q0 -106 -67 -174q-67 -69 -181 -69zM567 1649q-63 0 -102 -40.5t-39 -109.5t39 -106t103 -37q63 0 102 38t39 105q0 70 -39.5 110t-102.5 40zM928 0l-97 238h-528l-90 -238
h-158l414 1053h193l432 -1053h-166zM346 354h440l-225 566z" />
    <glyph glyph-name="Aring.swash" horiz-adv-x="1622" 
d="M985 1565q-113 0 -178 66q-66 65 -66 169q0 106 67 173q66 67 177 67q109 0 176 -67q66 -67 66 -172t-65 -170q-66 -66 -177 -66zM985 1944q-61 0 -99 -40t-38 -104q0 -63 38 -101t100 -38t98 36.5t36 102.5q0 69 -37 106.5t-98 37.5zM1403 0l-115 344h-592l-110 -344
h-166l426 1284h-242q-420 0 -420 -289q0 -128 76.5 -195t220.5 -69l-39 -129q-105 4 -184 38.5t-127 91.5t-70 122.5t-22 138.5q0 87 28.5 159.5t91.5 135.5t179 98t276 35h277h196l492 -1421h-176zM739 483h502l-256 762z" />
    <glyph glyph-name="Atilde.c2sc" horiz-adv-x="1150" 
d="M315 1227h-114q-8 207 36 300t140 93q38 0 79 -23q20 -12 36 -24t28 -23l27.5 -30t38.5 -43q17 -20 29.5 -35.5t20.5 -25.5q16 -20 45 -40t52 -20q90 0 86 262h115q13 -397 -178 -397q-22 0 -43 6.5t-40 14.5q-11 5 -26.5 17.5t-23.5 18.5q-4 3 -10.5 9t-13.5 12.5
t-12.5 12.5t-8.5 9q-2 2 -9 9.5t-15 16t-15 16t-9 9.5q-17 20 -28.5 35t-19.5 23t-17.5 16.5t-20.5 18.5q-24 18 -45 18q-48 0 -67 -61t-17 -195zM928 0l-97 238h-528l-90 -238h-158l414 1053h193l432 -1053h-166zM346 354h440l-225 566z" />
    <glyph glyph-name="Atilde.swash" horiz-adv-x="1622" 
d="M725 1546h-115q-16 396 170 398q39 0 79 -24q41 -24 66 -48q13 -13 28 -30t34 -40q17 -22 30.5 -37t22.5 -24q8 -10 20 -19.5t26 -19.5q29 -21 55 -21q91 0 86 261h116q14 -400 -180 -402q-55 0 -104 36.5t-107 102.5l-12 15q-31 38 -48 54q-19 17 -41 35q-25 17 -42 17
q-89 0 -84 -254zM1403 0l-115 344h-592l-110 -344h-166l426 1284h-242q-420 0 -420 -289q0 -128 76.5 -195t220.5 -69l-39 -129q-105 4 -184 38.5t-127 91.5t-70 122.5t-22 138.5q0 87 28.5 159.5t91.5 135.5t179 98t276 35h277h196l492 -1421h-176zM739 483h502l-256 762z
" />
    <glyph glyph-name="B.swash" horiz-adv-x="1718" 
d="M1362 758q66 -12 119.5 -40.5t91 -72.5t58 -102.5t20.5 -130.5q0 -190 -121 -301t-340 -111h-567v1276h-58q-426 0 -426 -299q0 -136 78.5 -211.5t226.5 -75.5v-141q-118 0 -207 35.5t-143 98.5t-80 137t-26 159q0 93 28.5 168.5t92.5 139.5q63 63 177 98.5t275 35.5h62
h544q196 0 300 -84.5t104 -251.5q0 -115 -55 -199.5t-154 -127.5zM1405 1055q0 219 -266 219h-348v-479h358q107 0 181 70q75 69 75 190zM1188 147q68 0 122.5 18.5t92.5 54.5t59 88.5t21 119.5q0 129 -79 190.5t-218 61.5h-395v-533h397z" />
    <glyph glyph-name="C.swash" horiz-adv-x="1368" 
d="M707 -72q-295 0 -465 200t-170 534q0 362 195 575q194 213 495 213q250 0 380 -175q130 -174 83 -513h-158q43 252 -44 389t-273 137q-221 0 -362 -169q-142 -169 -142 -455q0 -258 129 -417t348 -159q307 0 506 244l76 -148q-96 -111 -248 -183q-152 -73 -350 -73z" />
    <glyph glyph-name="Cacute.swash" horiz-adv-x="1368" 
d="M1126 1993l-311 -420h-131l262 420h180zM707 -72q-295 0 -465 200t-170 534q0 362 195 575q194 213 495 213q250 0 380 -175q130 -174 83 -513h-158q43 252 -44 389t-273 137q-221 0 -362 -169q-142 -169 -142 -455q0 -258 129 -417t348 -159q307 0 506 244l76 -148
q-96 -111 -248 -183q-152 -73 -350 -73z" />
    <glyph glyph-name="Ccaron.swash" horiz-adv-x="1368" 
d="M831 1573h-145l-264 448h131l207 -313l205 313h133zM1229 332l76 -148q-96 -111 -249 -183q-152 -73 -349 -73q-295 0 -465 200t-170 534q0 362 195 575q194 213 495 213q250 0 380 -175q130 -174 83 -513h-158q43 252 -44 389t-273 137q-221 0 -362 -169
q-142 -169 -142 -455q0 -258 129 -417t348 -159q307 0 506 244z" />
    <glyph glyph-name="Ccedilla.swash" horiz-adv-x="1368" 
d="M1305 184q-87 -99 -223 -170q-69 -36 -145.5 -56.5t-164.5 -27.5l-65 -145q56 27 118 27q93 0 146 -51t53 -148q0 -117 -79 -177q-80 -59 -206 -59q-144 0 -239 70l43 96q27 -23 78 -44t114 -21q78 0 123 34.5t45 100.5q0 48 -28 77t-82 29q-84 0 -134 -53l-90 35l93 229
q-275 17 -432 214q-158 199 -158 518q0 362 195 575q194 213 495 213q250 0 380 -175q130 -174 83 -513h-158q43 252 -44 389t-273 137q-221 0 -362 -169q-142 -169 -142 -455q0 -258 129 -417t348 -159q307 0 506 244z" />
    <glyph glyph-name="Cdotaccent.swash" horiz-adv-x="1368" 
d="M680 1655q-33 33 -33 80t33 80q34 32 80 32q47 0 79 -32q31 -32 31 -80t-31 -80q-31 -33 -79 -33q-47 0 -80 33zM707 -72q-295 0 -465 200t-170 534q0 362 195 575q194 213 495 213q250 0 380 -175q130 -174 83 -513h-158q43 252 -44 389t-273 137q-221 0 -362 -169
q-142 -169 -142 -455q0 -258 129 -417t348 -159q307 0 506 244l76 -148q-96 -111 -248 -183q-152 -73 -350 -73z" />
    <glyph glyph-name="D.swash" horiz-adv-x="1855" 
d="M1022 1421q342 0 540 -171q197 -171 197 -515q0 -353 -199 -543q-199 -192 -538 -192h-412v1276h-26q-434 0 -434 -299q0 -136 78 -211.5t223 -75.5v-141q-118 0 -206 35.5t-141 98.5t-78.5 137t-25.5 159q0 93 28.5 168.5t93.5 139.5q65 63 181 98.5t281 35.5h26h412z
M1012 152q267 0 418 157q152 156 153 426q0 265 -150 401q-151 136 -421 136h-236v-1120h236z" />
    <glyph glyph-name="Dcaron.swash" horiz-adv-x="1855" 
d="M1174 1573h-146l-264 448h133l205 -313l207 313h131zM1022 1421q342 0 540 -171q197 -171 197 -515q0 -353 -199 -543q-199 -192 -538 -192h-412v1276h-26q-434 0 -434 -299q0 -136 78 -211.5t223 -75.5v-141q-118 0 -206 35.5t-141 98.5t-78.5 137t-25.5 159
q0 93 28.5 168.5t93.5 139.5q65 63 181 98.5t281 35.5h26h412zM1012 152q267 0 418 157q152 156 153 426q0 265 -150 401q-151 136 -421 136h-236v-1120h236z" />
    <glyph glyph-name="Dcroat.swash" horiz-adv-x="1953" 
d="M1122 1421q340 0 538 -171t198 -515q0 -352 -200 -543q-199 -192 -536 -192h-413v641h-189v137h189v498h-43q-516 0 -516 -381q0 -155 87 -259t261 -104v-141q-130 0 -227.5 42t-156.5 115t-87.5 160.5t-28.5 186.5q0 112 34 200.5t108 165.5t208 118.5t324 41.5h37h413z
M1110 152q266 0 419 157q152 157 152 426q0 264 -149 401q-149 136 -422 136h-233v-494h366v-137h-366v-489h233z" />
    <glyph glyph-name="E.swash" horiz-adv-x="1677" 
d="M1569 1272h-752v-457h600v-137h-600v-526h752v-152h-920v1276h-69q-430 0 -430 -299q0 -136 78 -211.5t223 -75.5v-141q-118 0 -206 35.5t-141 98.5t-78.5 137t-25.5 159q0 93 28.5 168.5t92.5 139.5q63 63 179.5 98.5t279.5 35.5h69h920v-149z" />
    <glyph glyph-name="Eacute.swash" horiz-adv-x="1677" 
d="M1319 1993l-311 -420h-131l262 420h180zM1569 1272h-752v-457h600v-137h-600v-526h752v-152h-920v1276h-69q-430 0 -430 -299q0 -136 78 -211.5t223 -75.5v-141q-118 0 -206 35.5t-141 98.5t-78.5 137t-25.5 159q0 93 28.5 168.5t92.5 139.5q63 63 179.5 98.5t279.5 35.5
h69h920v-149z" />
    <glyph glyph-name="Ecaron.swash" horiz-adv-x="1677" 
d="M1024 1573h-145l-267 448h133l207 -313l205 313h133zM1569 1272h-752v-457h600v-137h-600v-526h752v-152h-920v1276h-69q-430 0 -430 -299q0 -136 78 -211.5t223 -75.5v-141q-118 0 -206 35.5t-141 98.5t-78.5 137t-25.5 159q0 93 28.5 168.5t92.5 139.5
q63 63 179.5 98.5t279.5 35.5h69h920v-149z" />
    <glyph glyph-name="Ecircumflex.swash" horiz-adv-x="1677" 
d="M946 1874l-207 -313h-131l264 448h146l266 -448h-133zM1569 1272h-752v-457h600v-137h-600v-526h752v-152h-920v1276h-69q-430 0 -430 -299q0 -136 78 -211.5t223 -75.5v-141q-118 0 -206 35.5t-141 98.5t-78.5 137t-25.5 159q0 93 28.5 168.5t92.5 139.5
q63 63 179.5 98.5t279.5 35.5h69h920v-149z" />
    <glyph glyph-name="Edieresis.swash" horiz-adv-x="1677" 
d="M758 1622q-22 0 -42 8.5t-34 23.5t-22.5 35t-8.5 42q0 23 8.5 42.5t22.5 34t34 23t42 8.5q23 0 42 -8.5t33.5 -23t22.5 -34t8 -42.5q0 -22 -8 -42t-22.5 -35t-33.5 -23.5t-42 -8.5zM1219 1654q-32 -32 -77 -32t-77 32q-15 16 -23 36t-8 41t8 41t23 36q31 31 77 31t77 -31
q15 -16 22.5 -36t7.5 -41t-7.5 -41t-22.5 -36zM1569 1272h-752v-457h600v-137h-600v-526h752v-152h-920v1276h-69q-430 0 -430 -299q0 -136 78 -211.5t223 -75.5v-141q-118 0 -206 35.5t-141 98.5t-78.5 137t-25.5 159q0 93 28.5 168.5t92.5 139.5q63 63 179.5 98.5
t279.5 35.5h69h920v-149z" />
    <glyph glyph-name="Edotaccent.swash" horiz-adv-x="1677" 
d="M1031 1655q-31 -33 -80 -33q-47 0 -79 33q-32 34 -32 80t32 80q32 32 79 32q48 0 80 -32q32 -34 32 -80t-32 -80zM1569 1272h-752v-457h600v-137h-600v-526h752v-152h-920v1276h-69q-430 0 -430 -299q0 -136 78 -211.5t223 -75.5v-141q-118 0 -206 35.5t-141 98.5
t-78.5 137t-25.5 159q0 93 28.5 168.5t92.5 139.5q63 63 179.5 98.5t279.5 35.5h69h920v-149z" />
    <glyph glyph-name="Egrave.swash" horiz-adv-x="1677" 
d="M1004 1573h-119l-281 430h170zM1569 1272h-752v-457h600v-137h-600v-526h752v-152h-920v1276h-69q-430 0 -430 -299q0 -136 78 -211.5t223 -75.5v-141q-118 0 -206 35.5t-141 98.5t-78.5 137t-25.5 159q0 93 28.5 168.5t92.5 139.5q63 63 179.5 98.5t279.5 35.5h69h920
v-149z" />
    <glyph glyph-name="Emacron.swash" horiz-adv-x="1677" 
d="M1300 1845v-135h-692v135h692zM1569 1272h-752v-457h600v-137h-600v-526h752v-152h-920v1276h-69q-430 0 -430 -299q0 -136 78 -211.5t223 -75.5v-141q-118 0 -206 35.5t-141 98.5t-78.5 137t-25.5 159q0 93 28.5 168.5t92.5 139.5q63 63 179.5 98.5t279.5 35.5h69h920
v-149z" />
    <glyph glyph-name="Eng.aalt" horiz-adv-x="1171" 
d="M860 1053h152v-1012q0 -200 -87 -291q-87 -92 -237 -92q-114 0 -199 43l33 143q62 -41 150 -41q173 0 186 193l-541 784v-780h-153v1053h153l543 -789v789z" />
    <glyph glyph-name="Eogonek.swash" horiz-adv-x="1677" 
d="M1552 -416l31 -114q-123 -62 -268 -64q-113 0 -170.5 59.5t-57.5 157.5q0 114 83.5 210.5t240.5 166.5h-762v1276h-69q-430 0 -430 -299q0 -136 78 -211.5t223 -75.5v-141q-118 0 -206 35.5t-141 98.5t-78.5 137t-25.5 159q0 93 28.5 168.5t92.5 139.5q63 63 179.5 98.5
t279.5 35.5h69h920v-149h-752v-457h600v-137h-600v-526h752v-144l8 -8q-346 -156 -346 -342q0 -127 125 -127q101 0 196 53z" />
    <glyph glyph-name="Eth.swash" horiz-adv-x="1953" 
d="M1122 1421q340 0 538 -171t198 -515q0 -352 -200 -543q-199 -192 -536 -192h-413v641h-189v137h189v498h-43q-516 0 -516 -381q0 -155 87 -259t261 -104v-141q-130 0 -227.5 42t-156.5 115t-87.5 160.5t-28.5 186.5q0 112 34 200.5t108 165.5t208 118.5t324 41.5h37h413z
M1110 152q266 0 419 157q152 157 152 426q0 264 -149 401q-149 136 -422 136h-233v-494h366v-137h-366v-489h233z" />
    <glyph glyph-name="F.swash" horiz-adv-x="1650" 
d="M1581 1272h-733v-465h582v-139h-582v-668h-168v1276h-94q-430 0 -430 -299q0 -136 79 -211.5t228 -75.5v-141q-120 0 -209 35.5t-143 98.5t-79.5 137t-25.5 159q0 93 28.5 168.5t91.5 139.5q63 63 178 98.5t276 35.5h100h901v-149z" />
    <glyph glyph-name="G.c2sc" horiz-adv-x="1173" 
d="M596 596h465v-543q-216 -76 -436 -76q-252 0 -398 146q-147 146 -147 403q0 255 154 403q152 148 399 148q259 0 422 -143l-99 -125q-122 109 -319 109q-173 0 -280 -106q-109 -106 -109 -286q0 -182 105 -286q104 -105 280 -105q153 0 264 43v285h-301v133z" />
    <glyph glyph-name="G.salt" horiz-adv-x="1482" 
d="M727 795h662v-74q0 -189 -51.5 -334.5t-142.5 -236.5t-210.5 -137t-265.5 -46q-289 0 -469 200t-180 544q0 339 194 541q194 200 498 200q165 0 302 -55.5t230 -155.5l-112 -119q-162 168 -422 168q-230 0 -372 -157q-144 -157 -144 -422q0 -263 134 -421
q133 -157 345 -157q215 0 349 131t147 387h-492v144z" />
    <glyph glyph-name="G.swash" horiz-adv-x="1392" 
d="M1282 63q0 -140 -31 -245t-85 -169q-53 -62 -131 -103q-77 -40 -155.5 -55t-174.5 -15q-172 0 -298 43q-127 43 -204 102l57 154q32 -30 76 -56.5t100 -46t123.5 -30.5t145.5 -11q87 0 154 17.5t129 60.5t95 126.5t33 207.5v8q-169 -71 -381 -69q-322 0 -500 190
t-178 541q0 341 192 540q190 199 494 199q91 0 165.5 -16t143.5 -61q67 -43 113 -112q45 -69 66.5 -179t7.5 -257h-162q16 97 1 182t-51 148t-111 99t-183 36q-223 0 -363 -158q-141 -159 -141 -421q0 -267 138 -419q136 -151 387 -151q203 0 362 70l-2 365h166z" />
    <glyph glyph-name="Gbreve.c2sc" horiz-adv-x="1173" 
d="M635 1249q-171 0 -259.5 102t-78.5 298h129q-13 -289 207 -289q219 0 207 289h127q12 -195 -76 -297.5t-256 -102.5zM596 596h465v-543q-216 -76 -436 -76q-252 0 -398 146q-147 146 -147 403q0 255 154 403q152 148 399 148q259 0 422 -143l-99 -125q-122 109 -319 109
q-173 0 -280 -106q-109 -106 -109 -286q0 -182 105 -286q104 -105 280 -105q153 0 264 43v285h-301v133z" />
    <glyph glyph-name="Gbreve.salt" horiz-adv-x="1482" 
d="M743 1591q-84 0 -149 26t-108.5 76.5t-63.5 125.5t-14 172h127q-12 -289 208 -289q219 0 207 289h127q12 -195 -76 -297.5t-258 -102.5zM727 795h662v-74q0 -189 -51.5 -334.5t-142.5 -236.5t-210.5 -137t-265.5 -46q-289 0 -469 200t-180 544q0 339 194 541
q194 200 498 200q165 0 302 -55.5t230 -155.5l-112 -119q-162 168 -422 168q-230 0 -372 -157q-144 -157 -144 -422q0 -263 134 -421q133 -157 345 -157q215 0 349 131t147 387h-492v144z" />
    <glyph glyph-name="Gbreve.swash" horiz-adv-x="1392" 
d="M756 1591q-170 0 -259 102.5t-77 297.5h127q-12 -289 207 -289q220 0 207 289h129q10 -196 -76.5 -298t-257.5 -102zM1282 63q0 -140 -31 -245t-85 -169q-53 -62 -131 -103q-77 -40 -155.5 -55t-174.5 -15q-85 0 -160 11.5t-138.5 31t-114.5 46t-89 56.5l57 154
q32 -30 76 -56.5t100 -46t123.5 -30.5t145.5 -11q87 0 154 17.5t129 60.5t95 126.5t33 207.5v8q-169 -71 -381 -69q-322 0 -500 190t-178 541q0 341 192 540q190 199 494 199q91 0 165.5 -16t143.5 -61q67 -43 113 -112q45 -69 66.5 -179t7.5 -257h-162q16 97 1 182t-51 148
t-111 99t-183 36q-223 0 -363 -158q-141 -159 -141 -421q0 -267 138 -419q136 -151 387 -151q203 0 362 70l-2 365h166z" />
    <glyph glyph-name="Gdotaccent.c2sc" horiz-adv-x="1173" 
d="M645 1247q-25 0 -47 9t-38 25t-25 37.5t-9 45.5t9 46t25 38t38 25.5t47 9.5q48 0 83 -35q34 -34 34 -84q0 -24 -9 -45.5t-25 -37.5t-37.5 -25t-45.5 -9zM596 596h465v-543q-216 -76 -436 -76q-252 0 -398 146q-147 146 -147 403q0 255 154 403q152 148 399 148
q259 0 422 -143l-99 -125q-122 109 -319 109q-173 0 -280 -106q-109 -106 -109 -286q0 -182 105 -286q104 -105 280 -105q153 0 264 43v285h-301v133z" />
    <glyph glyph-name="Gdotaccent.swash" horiz-adv-x="1392" 
d="M835 1655q-31 -33 -79 -33q-47 0 -80 33t-33 80t33 80q34 32 80 32q47 0 79 -32q31 -32 31 -80t-31 -80zM1282 63q0 -140 -31 -245t-85 -169q-53 -62 -131 -103q-77 -40 -155.5 -55t-174.5 -15q-172 0 -298 43q-127 43 -204 102l57 154q32 -30 76 -56.5t100 -46
t123.5 -30.5t145.5 -11q87 0 154 17.5t129 60.5t95 126.5t33 207.5v8q-169 -71 -381 -69q-322 0 -500 190t-178 541q0 341 192 540q190 199 494 199q91 0 165.5 -16t143.5 -61q67 -43 113 -112q45 -69 66.5 -179t7.5 -257h-162q16 97 1 182t-51 148t-111 99t-183 36
q-223 0 -363 -158q-141 -159 -141 -421q0 -267 138 -419q136 -151 387 -151q203 0 362 70l-2 365h166z" />
    <glyph glyph-name="H.swash" horiz-adv-x="1949" 
d="M1606 1421h168v-1421h-168v668h-744v-668h-168v1276h-114q-430 0 -430 -297q0 -136 79 -212.5t228 -76.5v-141q-120 0 -209 35.5t-142 98.5q-106 126 -106 296q0 93 28.5 168.5t92.5 139.5q63 63 177.5 98.5t274.5 35.5h121h168v-602h744v602z" />
    <glyph glyph-name="Hbar.aalt" horiz-adv-x="1204" 
d="M1130 879v-121h-92v-758h-164v424h-546v-424h-164v758h-90v121h90v174h164v-174h546v174h164v-174h92zM874 559v199h-546v-199h546z" />
    <glyph glyph-name="I.c2sc" horiz-adv-x="491" 
d="M328 1053v-1053h-164v1053h164z" />
    <glyph glyph-name="I.swash" horiz-adv-x="962" 
d="M618 1421h168v-1421h-168v1276h-34q-434 0 -434 -297q0 -136 79 -212.5t228 -76.5v-141q-120 0 -209 35.5t-142 98.5q-106 126 -106 296q0 93 28.5 168.5t92.5 139.5q63 63 179.5 98.5t279.5 35.5h38z" />
    <glyph glyph-name="Iacute.swash" horiz-adv-x="962" 
d="M1081 1993l-313 -420h-131l262 420h182zM618 1421h168v-1421h-168v1276h-34q-434 0 -434 -297q0 -136 79 -212.5t228 -76.5v-141q-120 0 -209 35.5t-142 98.5q-106 126 -106 296q0 93 28.5 168.5t92.5 139.5q63 63 179.5 98.5t279.5 35.5h38z" />
    <glyph glyph-name="Icircumflex.swash" horiz-adv-x="962" 
d="M780 2009l267 -448h-134l-204 313l-207 -313h-133l264 448h147zM618 1421h168v-1421h-168v1276h-34q-434 0 -434 -297q0 -136 79 -212.5t228 -76.5v-141q-120 0 -209 35.5t-142 98.5q-106 126 -106 296q0 93 28.5 168.5t92.5 139.5q63 63 179.5 98.5t279.5 35.5h38z" />
    <glyph glyph-name="Idieresis.swash" horiz-adv-x="962" 
d="M520 1622q-45 0 -76.5 30.5t-31.5 77.5q0 23 8.5 43t23 34.5t34.5 23t42 8.5q23 0 42.5 -8.5t33.5 -23t22.5 -34t8.5 -42.5q0 -22 -8.5 -42t-22.5 -35t-33.5 -23.5t-42.5 -8.5zM828 1808q15 16 34.5 24t40.5 8t41 -8t36 -24t24 -36t8 -41t-8 -41t-24 -36t-36 -24t-41 -8
t-40.5 8t-34.5 23q-31 30 -31 77t31 78zM618 1421h168v-1421h-168v1276h-34q-434 0 -434 -297q0 -136 79 -212.5t228 -76.5v-141q-120 0 -209 35.5t-142 98.5q-106 126 -106 296q0 93 28.5 168.5t92.5 139.5q63 63 179.5 98.5t279.5 35.5h38z" />
    <glyph glyph-name="Idotaccent.c2sc" horiz-adv-x="491" 
d="M175 1281q-28 25 -33 60.5t8 67.5t42 54t68 20q48 0 83 -35q34 -34 34 -84q0 -24 -9 -45.5t-25 -37.5t-37.5 -25t-45.5 -9q-51 0 -85 34zM328 1053v-1053h-164v1053h164z" />
    <glyph glyph-name="Idotaccent.swash" horiz-adv-x="962" 
d="M633 1815q34 32 80 32t80 -32q32 -34 32 -80t-32 -80q-33 -33 -80 -33t-80 33t-33 80t33 80zM618 1421h168v-1421h-168v1276h-34q-434 0 -434 -297q0 -136 79 -212.5t228 -76.5v-141q-120 0 -209 35.5t-142 98.5q-106 126 -106 296q0 93 28.5 168.5t92.5 139.5
q63 63 179.5 98.5t279.5 35.5h38z" />
    <glyph glyph-name="Igrave.swash" horiz-adv-x="962" 
d="M766 1573h-121l-278 430h170zM618 1421h168v-1421h-168v1276h-34q-434 0 -434 -297q0 -136 79 -212.5t228 -76.5v-141q-120 0 -209 35.5t-142 98.5q-106 126 -106 296q0 93 28.5 168.5t92.5 139.5q63 63 179.5 98.5t279.5 35.5h38z" />
    <glyph glyph-name="Imacron.swash" horiz-adv-x="962" 
d="M369 1845h692v-135h-692v135zM618 1421h168v-1421h-168v1276h-34q-434 0 -434 -297q0 -136 79 -212.5t228 -76.5v-141q-120 0 -209 35.5t-142 98.5q-106 126 -106 296q0 93 28.5 168.5t92.5 139.5q63 63 179.5 98.5t279.5 35.5h38z" />
    <glyph glyph-name="Iogonek.swash" horiz-adv-x="962" 
d="M756 -410l30 -114q-122 -62 -266 -64q-113 0 -171 59.5t-58 157.5q0 114 84.5 210.5t242.5 168.5v1268h-34q-434 0 -434 -297q0 -136 79 -212.5t228 -76.5v-141q-120 0 -209 35.5t-142 98.5q-106 126 -106 296q0 93 28.5 168.5t92.5 139.5q63 63 179.5 98.5t279.5 35.5
h38h168v-1421h-18q-332 -155 -332 -338q0 -125 125 -125q103 0 195 53z" />
    <glyph glyph-name="J.swash" horiz-adv-x="1134" 
d="M827 1421h168v-1206q0 -161 -41.5 -278t-116.5 -185t-163.5 -99.5t-196.5 -31.5q-99 0 -182 30t-151 88t-106 154t-38 222q0 217 165 365q165 147 462 147v-140q-197 0 -333 -100t-136 -272q0 -159 82 -250q83 -92 235 -92q154 -1 253 106q99 109 99 326v1071h-438v145
h438z" />
    <glyph glyph-name="K.swash" horiz-adv-x="1699" 
d="M1458 0l-422 758l-241 -275v-483h-168v1276h-49q-428 0 -428 -299q0 -136 79 -211.5t228 -75.5v-141q-120 0 -209 35.5t-142 98.5q-106 126 -106 296q0 93 28.5 168.5t92.5 139.5q63 63 177.5 98.5t274.5 35.5h54h168v-714l630 714h199l-463 -524l496 -897h-199z" />
    <glyph glyph-name="L.swash" horiz-adv-x="1511" 
d="M872 152h621v-152h-786v1276h-129q-428 0 -428 -299q0 -136 79 -211.5t228 -75.5v-141q-120 0 -209 35.5t-142 98.5q-106 126 -106 296q0 93 28.5 168.5t92.5 139.5q63 63 177.5 98.5t274.5 35.5h134h165v-1269z" />
    <glyph glyph-name="Lacute.swash" horiz-adv-x="1511" 
d="M1169 1993l-313 -420h-131l262 420h182zM872 152h621v-152h-786v1276h-129q-428 0 -428 -299q0 -136 79 -211.5t228 -75.5v-141q-120 0 -209 35.5t-142 98.5q-106 126 -106 296q0 93 28.5 168.5t92.5 139.5q63 63 177.5 98.5t274.5 35.5h134h165v-1269z" />
    <glyph glyph-name="Lcaron.swash" horiz-adv-x="1511" 
d="M872 1573h-145l-264 448h133l205 -313l207 313h131zM872 152h621v-152h-786v1276h-129q-428 0 -428 -299q0 -136 79 -211.5t228 -75.5v-141q-120 0 -209 35.5t-142 98.5q-106 126 -106 296q0 93 28.5 168.5t92.5 139.5q63 63 177.5 98.5t274.5 35.5h134h165v-1269z" />
    <glyph glyph-name="Lslash.swash" horiz-adv-x="1433" 
d="M795 152h620v-152h-788v506l-262 -164l-64 117l326 203v614h-113q-175 0 -273 -81t-98 -218q0 -139 107 -240l-119 -67q-131 134 -131 317q0 193 132 314q132 120 392 120h103h168v-655l350 219l69 -115l-419 -262v-456z" />
    <glyph glyph-name="M.swash" horiz-adv-x="2228" 
d="M2052 0h-164v1120l-450 -1042h-138l-452 1046v-1124h-156v1276h-114q-428 0 -428 -299q0 -136 79 -211.5t228 -75.5v-141q-120 0 -209 35.5t-142 98.5q-106 126 -106 296q0 93 28.5 168.5t92.5 139.5q63 63 177.5 98.5t274.5 35.5h119h191l495 -1104l477 1104h189z" />
    <glyph glyph-name="N.swash" horiz-adv-x="1871" 
d="M1538 1421h156v-1421h-162l-725 1116v-1116h-156v1276h-73q-428 0 -428 -299q0 -136 79 -211.5t228 -75.5v-141q-120 0 -209 35.5t-142 98.5q-106 126 -106 296q0 93 28.5 168.5t92.5 139.5q63 63 177.5 98.5t274.5 35.5h78h123h35l729 -1124v1124z" />
    <glyph glyph-name="Nacute.swash" horiz-adv-x="1871" 
d="M1542 1993l-311 -420h-131l262 420h180zM1538 1421h156v-1421h-162l-725 1116v-1116h-156v1276h-73q-428 0 -428 -299q0 -136 79 -211.5t228 -75.5v-141q-120 0 -209 35.5t-142 98.5q-106 126 -106 296q0 93 28.5 168.5t92.5 139.5q63 63 177.5 98.5t274.5 35.5h78h123
h35l729 -1124v1124z" />
    <glyph glyph-name="Ncaron.swash" horiz-adv-x="1871" 
d="M1247 1573h-145l-266 448h133l207 -313l204 313h133zM1538 1421h156v-1421h-162l-725 1116v-1116h-156v1276h-73q-428 0 -428 -299q0 -136 79 -211.5t228 -75.5v-141q-120 0 -209 35.5t-142 98.5q-106 126 -106 296q0 93 28.5 168.5t92.5 139.5q63 63 177.5 98.5
t274.5 35.5h78h123h35l729 -1124v1124z" />
    <glyph glyph-name="Ntilde.swash" horiz-adv-x="1871" 
d="M915 1546h-116q-16 396 170 398q40 0 80 -24q41 -24 66 -48q12 -13 27.5 -30t35.5 -40q17 -22 30.5 -37t21.5 -24q8 -10 20 -19.5t26 -19.5q29 -21 53 -21q93 0 88 261h115q14 -400 -180 -402q-55 0 -103 36.5t-108 102.5q-2 2 -5 6t-8 9q-16 19 -27.5 32.5t-19.5 21.5
t-18 17t-22 18q-26 17 -44 17q-88 0 -82 -254zM1538 1421h156v-1421h-162l-725 1116v-1116h-156v1276h-73q-428 0 -428 -299q0 -136 79 -211.5t228 -75.5v-141q-120 0 -209 35.5t-142 98.5q-106 126 -106 296q0 93 28.5 168.5t92.5 139.5q63 63 177.5 98.5t274.5 35.5h78
h123h35l729 -1124v1124z" />
    <glyph glyph-name="O.swash" horiz-adv-x="1521" 
d="M1458 641q5 -293 -191 -482q-196 -190 -507 -190q-313 1 -502 203q-190 200 -190 551q0 335 196 532q195 197 496 197q177 0 278 -97q101 -98 97 -255q0 -26 -3 -52t-10 -51l105 103q50 -30 91.5 -73.5t72 -100.5t48 -128.5t19.5 -156.5zM760 131q232 0 380 146
q145 145 144 350q-2 121 -44.5 212.5t-123.5 139.5q-45 -130 -177 -201q-133 -71 -306 -71l2 141q76 0 148.5 22.5t128.5 78.5q55 55 55 132q2 96 -62 154q-64 57 -168 57q-215 0 -354 -154t-139 -409q0 -274 144 -436q143 -162 372 -162z" />
    <glyph glyph-name="OE.aalt" horiz-adv-x="1685" 
d="M1606 911h-559v-311h436v-100h-436v-357h559v-143h-719v16q-118 -39 -260 -39q-246 0 -396 147q-151 145 -151 408q0 254 155 401q155 146 392 146q137 0 260 -45v19h719v-142zM637 135q150 0 250 60v667q-100 54 -250 56q-170 0 -277 -104q-108 -105 -108 -282
q0 -180 108 -288q106 -109 277 -109z" />
    <glyph glyph-name="Oacute.swash" horiz-adv-x="1521" 
d="M1165 1993l-311 -420h-131l262 420h180zM1458 641q5 -293 -191 -482q-196 -190 -507 -190q-313 1 -502 203q-190 200 -190 551q0 335 196 532q195 197 496 197q177 0 278 -97q101 -98 97 -255q0 -26 -3 -52t-10 -51l105 103q50 -30 91.5 -73.5t72 -100.5t48 -128.5
t19.5 -156.5zM760 131q232 0 380 146q145 145 144 350q-2 121 -44.5 212.5t-123.5 139.5q-45 -130 -177 -201q-133 -71 -306 -71l2 141q76 0 148.5 22.5t128.5 78.5q55 55 55 132q2 96 -62 154q-64 57 -168 57q-215 0 -354 -154t-139 -409q0 -274 144 -436
q143 -162 372 -162z" />
    <glyph glyph-name="Ocircumflex.swash" horiz-adv-x="1521" 
d="M793 1874l-205 -313h-133l264 448h145l266 -448h-131zM1458 641q5 -293 -191 -482q-196 -190 -507 -190q-313 1 -502 203q-190 200 -190 551q0 335 196 532q195 197 496 197q177 0 278 -97q101 -98 97 -255q0 -26 -3 -52t-10 -51l105 103q50 -30 91.5 -73.5t72 -100.5
t48 -128.5t19.5 -156.5zM760 131q232 0 380 146q145 145 144 350q-2 121 -44.5 212.5t-123.5 139.5q-45 -130 -177 -201q-133 -71 -306 -71l2 141q76 0 148.5 22.5t128.5 78.5q55 55 55 132q2 96 -62 154q-64 57 -168 57q-215 0 -354 -154t-139 -409q0 -274 144 -436
q143 -162 372 -162z" />
    <glyph glyph-name="Odieresis.swash" horiz-adv-x="1521" 
d="M606 1622q-48 0 -78 32t-30 77t30 76.5t78 31.5q21 0 40.5 -8.5t34.5 -23t23.5 -34t8.5 -42.5q0 -45 -32 -77t-75 -32zM1066 1654q-16 -16 -36 -24t-41 -8t-40.5 8t-35.5 24t-23.5 36t-7.5 41t7.5 41t23.5 36t35.5 24t40.5 8t41 -8t36 -24t24 -36t8 -41t-8 -41t-24 -36z
M1458 641q5 -293 -191 -482q-196 -190 -507 -190q-313 1 -502 203q-190 200 -190 551q0 335 196 532q195 197 496 197q177 0 278 -97q101 -98 97 -255q0 -26 -3 -52t-10 -51l105 103q50 -30 91.5 -73.5t72 -100.5t48 -128.5t19.5 -156.5zM760 131q232 0 380 146
q145 145 144 350q-2 121 -44.5 212.5t-123.5 139.5q-45 -130 -177 -201q-133 -71 -306 -71l2 141q76 0 148.5 22.5t128.5 78.5q55 55 55 132q2 96 -62 154q-64 57 -168 57q-215 0 -354 -154t-139 -409q0 -274 144 -436q143 -162 372 -162z" />
    <glyph glyph-name="Ograve.swash" horiz-adv-x="1521" 
d="M850 1573h-119l-278 430h168zM1458 641q5 -293 -191 -482q-196 -190 -507 -190q-313 1 -502 203q-190 200 -190 551q0 335 196 532q195 197 496 197q177 0 278 -97q101 -98 97 -255q0 -26 -3 -52t-10 -51l105 103q50 -30 91.5 -73.5t72 -100.5t48 -128.5t19.5 -156.5z
M760 131q232 0 380 146q145 145 144 350q-2 121 -44.5 212.5t-123.5 139.5q-45 -130 -177 -201q-133 -71 -306 -71l2 141q76 0 148.5 22.5t128.5 78.5q55 55 55 132q2 96 -62 154q-64 57 -168 57q-215 0 -354 -154t-139 -409q0 -274 144 -436q143 -162 372 -162z" />
    <glyph glyph-name="Ohungarumlaut.swash" horiz-adv-x="1521" 
d="M895 2003l-205 -430h-104l143 430h166zM967 1573h-117l274 430h170zM1458 641q5 -293 -191 -482q-196 -190 -507 -190q-313 1 -502 203q-190 200 -190 551q0 335 196 532q195 197 496 197q177 0 278 -97q101 -98 97 -255q0 -26 -3 -52t-10 -51l105 103q50 -30 91.5 -73.5
t72 -100.5t48 -128.5t19.5 -156.5zM760 131q232 0 380 146q145 145 144 350q-2 121 -44.5 212.5t-123.5 139.5q-45 -130 -177 -201q-133 -71 -306 -71l2 141q76 0 148.5 22.5t128.5 78.5q55 55 55 132q2 96 -62 154q-64 57 -168 57q-215 0 -354 -154t-139 -409
q0 -274 144 -436q143 -162 372 -162z" />
    <glyph glyph-name="Omacron.swash" horiz-adv-x="1521" 
d="M1147 1845v-135h-692v135h692zM1458 641q5 -293 -191 -482q-196 -190 -507 -190q-313 1 -502 203q-190 200 -190 551q0 335 196 532q195 197 496 197q177 0 278 -97q101 -98 97 -255q0 -26 -3 -52t-10 -51l105 103q50 -30 91.5 -73.5t72 -100.5t48 -128.5t19.5 -156.5z
M760 131q232 0 380 146q145 145 144 350q-2 121 -44.5 212.5t-123.5 139.5q-45 -130 -177 -201q-133 -71 -306 -71l2 141q76 0 148.5 22.5t128.5 78.5q55 55 55 132q2 96 -62 154q-64 57 -168 57q-215 0 -354 -154t-139 -409q0 -274 144 -436q143 -162 372 -162z" />
    <glyph glyph-name="Oslash.aalt" horiz-adv-x="1284" 
d="M1212 989l-116 -117q106 -139 106 -340q0 -260 -153 -407q-154 -148 -406 -148q-200 0 -340 95l-104 -103l-125 88l119 119q-111 143 -111 356q0 249 158 398q158 147 403 147q202 0 344 -102l100 102zM248 532q0 -136 63 -237l563 567q-97 62 -231 64q-175 0 -285 -107
t-110 -287zM1036 532q0 128 -57 222l-561 -566q95 -61 225 -61q178 0 286 110q107 110 107 295z" />
    <glyph glyph-name="Otilde.swash" horiz-adv-x="1521" 
d="M539 1546h-115q-16 396 170 398q39 0 79 -24q41 -24 66 -48q13 -13 28 -30t34 -40q17 -22 30.5 -37t21.5 -24q8 -10 20 -19.5t26 -19.5q29 -21 55 -21q91 0 86 261h117q14 -400 -180 -402q-55 0 -104 36.5t-109 102.5q-1 2 -3.5 6t-6.5 9q-17 19 -29 32.5t-20 21.5
t-18.5 17t-21.5 18q-25 17 -44 17q-87 0 -82 -254zM1458 641q5 -293 -191 -482q-196 -190 -507 -190q-313 1 -502 203q-190 200 -190 551q0 335 196 532q195 197 496 197q177 0 278 -97q101 -98 97 -255q0 -26 -3 -52t-10 -51l105 103q50 -30 91.5 -73.5t72 -100.5
t48 -128.5t19.5 -156.5zM760 131q232 0 380 146q145 145 144 350q-2 121 -44.5 212.5t-123.5 139.5q-45 -130 -177 -201q-133 -71 -306 -71l2 141q76 0 148.5 22.5t128.5 78.5q55 55 55 132q2 96 -62 154q-64 57 -168 57q-215 0 -354 -154t-139 -409q0 -274 144 -436
q143 -162 372 -162z" />
    <glyph glyph-name="P.swash" horiz-adv-x="1636" 
d="M1108 1421q223 0 343 -102t120 -309q0 -105 -31 -185t-90 -134t-144.5 -81.5t-195.5 -27.5h-354v-582h-168v1276h-10q-428 0 -428 -299q0 -136 79 -211.5t228 -75.5v-141q-120 0 -209 35.5t-142 98.5q-106 126 -106 296q0 93 28.5 168.5t92.5 139.5q63 63 177.5 98.5
t274.5 35.5h15h520zM1098 729q69 0 124.5 19t94.5 55t59.5 87.5t20.5 117.5q0 132 -78.5 198t-220.5 66h-342v-543h342z" />
    <glyph glyph-name="Q.salt" horiz-adv-x="1521" 
d="M1454 723q0 -399 -244 -604l162 -203l-125 -104l-176 221q-138 -62 -311 -64q-309 0 -500 203q-192 203 -192 551q0 335 196 532q195 197 496 197q146 0 271.5 -48.5t220.5 -141.5q95 -94 148.5 -232t53.5 -307zM244 723q0 -270 144 -431t372 -161q234 0 376 160t142 432
q0 258 -144 414q-146 155 -374 155q-230 0 -373 -155q-143 -157 -143 -414z" />
    <glyph glyph-name="Q.swash" horiz-adv-x="1521" 
d="M1458 -147l15 -150q-100 -55 -238 -55q-88 0 -186 36q-99 37 -168 81t-157 82t-157 38q-147 0 -315 -90l-21 146q124 64 254 77q-198 77 -307 259q-110 182 -110 446q0 335 196 532q195 197 496 197q177 0 278 -97q101 -98 97 -255q0 -26 -3 -52t-10 -51l105 103
q50 -30 91.5 -73.5t72 -100.5t48 -128.5t19.5 -156.5q5 -283 -180 -471q-186 -189 -479 -199q22 -10 55 -28.5t78 -44.5q88 -52 160 -79q70 -26 145 -26q124 2 221 60zM244 729q0 -273 143 -436q143 -162 373 -162q232 0 380 146q145 145 144 350q-2 121 -44.5 212.5
t-123.5 139.5q-45 -130 -177 -201q-133 -71 -306 -71l2 141q76 0 148.5 22.5t128.5 78.5q55 55 55 132q2 96 -62 154q-64 57 -168 57q-215 0 -354 -154t-139 -409z" />
    <glyph glyph-name="R.swash" horiz-adv-x="1785" 
d="M1479 0l-359 604h-309v-604h-166v1276h-67q-428 0 -428 -299q0 -136 79 -211.5t228 -75.5v-141q-120 0 -209 35.5t-142 98.5q-106 126 -106 296q0 93 28.5 168.5t92.5 139.5q63 63 177.5 98.5t274.5 35.5h72h551q105 0 188 -25.5t140.5 -75.5t87.5 -124.5t30 -173.5
q0 -164 -91 -273q-92 -110 -253 -137l379 -612h-198zM811 1272v-529h373q65 0 117 18t88.5 53t56.5 85.5t20 116.5q0 129 -76.5 192.5t-207.5 63.5h-371z" />
    <glyph glyph-name="Racute.swash" horiz-adv-x="1785" 
d="M1489 1993l-311 -420h-131l262 420h180zM1479 0l-359 604h-309v-604h-166v1276h-67q-428 0 -428 -299q0 -136 79 -211.5t228 -75.5v-141q-120 0 -209 35.5t-142 98.5q-106 126 -106 296q0 93 28.5 168.5t92.5 139.5q63 63 177.5 98.5t274.5 35.5h72h551q105 0 188 -25.5
t140.5 -75.5t87.5 -124.5t30 -173.5q0 -164 -91 -273q-92 -110 -253 -137l379 -612h-198zM811 1272v-529h373q65 0 117 18t88.5 53t56.5 85.5t20 116.5q0 129 -76.5 192.5t-207.5 63.5h-371z" />
    <glyph glyph-name="Rcaron.swash" horiz-adv-x="1785" 
d="M1194 1573h-145l-265 448h131l207 -313l205 313h133zM1479 0l-359 604h-309v-604h-166v1276h-67q-428 0 -428 -299q0 -136 79 -211.5t228 -75.5v-141q-120 0 -209 35.5t-142 98.5q-106 126 -106 296q0 93 28.5 168.5t92.5 139.5q63 63 177.5 98.5t274.5 35.5h72h551
q105 0 188 -25.5t140.5 -75.5t87.5 -124.5t30 -173.5q0 -164 -91 -273q-92 -110 -253 -137l379 -612h-198zM811 1272v-529h373q65 0 117 18t88.5 53t56.5 85.5t20 116.5q0 129 -76.5 192.5t-207.5 63.5h-371z" />
    <glyph glyph-name="S.swash" horiz-adv-x="1079" 
d="M532 -293q-226 0 -366 129q-139 129 -148 395l156 25q1 -99 26.5 -173.5t72 -123.5t113 -73.5t149.5 -24.5q72 0 129.5 16t98 48t62 79.5t21.5 110.5q0 123 -76 208q-77 86 -227 169q-199 112 -307 245q-107 131 -107 310q0 181 114 293q112 112 318 112q207 0 315 -134
q107 -134 68 -392h-151q23 176 -35 274t-201 98q-119 0 -189 -70q-71 -71 -71 -184q0 -126 82 -215q83 -90 246 -186q89 -49 150 -93q31 -22 61 -48.5t60 -58.5q120 -127 120 -326t-132 -305q-133 -105 -352 -105z" />
    <glyph glyph-name="Sacute.swash" horiz-adv-x="1079" 
d="M922 1993l-314 -420h-131l262 420h183zM532 -293q-226 0 -366 129q-139 129 -148 395l156 25q1 -99 26.5 -173.5t72 -123.5t113 -73.5t149.5 -24.5q72 0 129.5 16t98 48t62 79.5t21.5 110.5q0 123 -76 208q-77 86 -227 169q-199 112 -307 245q-107 131 -107 310
q0 181 114 293q112 112 318 112q207 0 315 -134q107 -134 68 -392h-151q23 176 -35 274t-201 98q-119 0 -189 -70q-71 -71 -71 -184q0 -126 82 -215q83 -90 246 -186q89 -49 150 -93q31 -22 61 -48.5t60 -58.5q120 -127 120 -326t-132 -305q-133 -105 -352 -105z" />
    <glyph glyph-name="Scaron.swash" horiz-adv-x="1079" 
d="M625 1573h-146l-264 448h133l205 -313l207 313h131zM625 643q89 -49 150 -93q31 -22 61 -48.5t60 -58.5q120 -127 120 -326t-132 -305q-132 -105 -352 -105q-226 0 -366 129q-139 129 -148 395l156 25q1 -99 26.5 -173.5t72 -123.5t113 -73.5t149.5 -24.5q72 0 129.5 16
t98 48t62 79.5t21.5 110.5q0 123 -76 208q-77 86 -227 169q-199 112 -307 245q-107 131 -107 310q0 181 114 293q112 112 318 112q207 0 315 -134q107 -134 68 -392h-151q23 176 -35 274t-201 98q-119 0 -189 -70q-71 -71 -71 -184q0 -126 82 -215q83 -90 246 -186z" />
    <glyph glyph-name="Scedilla.c2sc" horiz-adv-x="897" 
d="M547 -158q93 0 145.5 -50.5t52.5 -147.5q0 -117 -78 -177q-80 -59 -208 -59q-141 0 -238 70l43 96q27 -23 78 -44.5t115 -21.5q78 0 123 35t45 101q0 48 -30 77t-81 29q-83 0 -133 -53l-90 35l94 237q-186 11 -319 92l53 140q125 -92 307 -92q50 0 91 11.5t70.5 33.5
t45.5 54t16 73q-4 55 -26.5 85t-70.5 53q-17 8 -32 14t-28 11q-25 8 -74 21q-315 82 -316 334q0 66 23.5 119t69 90t112 57t152.5 20q204 0 352 -86l-66 -133q-115 76 -278 76q-94 0 -146.5 -38t-52.5 -105q0 -40 13 -69.5t39.5 -52t65.5 -39.5t91 -32q164 -45 252 -117
q88 -73 88 -208q0 -141 -87 -219q-86 -77 -232 -91l-70 -155q57 26 119 26z" />
    <glyph glyph-name="T.swash" horiz-adv-x="1398" 
d="M1372 1421v-149h-409v-1272h-168v1272h-217q-428 0 -428 -307q0 -138 80 -214.5t233 -76.5v-142q-121 0 -211.5 36t-144.5 99t-80.5 138t-26.5 162q0 94 28.5 172t92.5 144q63 66 177.5 102t274.5 36h799z" />
    <glyph glyph-name="Tbar.aalt" horiz-adv-x="1398" 
d="M1372 1272h-409v-647h278v-138h-278v-487h-168v487h-279v138h279v647h-258q-207 0 -300.5 -67.5t-93.5 -200.5q0 -109 73.5 -171.5t207.5 -62.5v-141q-112 0 -196 31.5t-135 86.5q-51 54 -75 119t-24 140q0 88 26.5 158.5t87.5 131.5q60 60 171 92.5t270 32.5h823v-149z
" />
    <glyph glyph-name="Tcaron.swash" horiz-adv-x="1398" 
d="M952 1573h-145l-266 448h133l207 -313l204 313h134zM1372 1421v-149h-409v-1272h-168v1272h-217q-428 0 -428 -307q0 -138 80 -214.5t233 -76.5v-142q-121 0 -211.5 36t-144.5 99t-80.5 138t-26.5 162q0 94 28.5 172t92.5 144q63 66 177.5 102t274.5 36h799z" />
    <glyph glyph-name="Thorn.aalt" horiz-adv-x="1003" 
d="M541 862q178 0 275 -78.5t97 -238.5q0 -80 -25 -141t-73 -102t-116.5 -62t-155.5 -21h-215v-219h-164v1053h164v-191h213zM537 352q103 0 161 51t58 142q0 87 -58 133.5t-161 46.5h-209v-373h209z" />
    <glyph glyph-name="U.swash" horiz-adv-x="1888" 
d="M1559 1421h167v-846q0 -286 -146 -446q-145 -160 -392 -160q-246 0 -393 162q-148 161 -148 444v701h-69q-428 0 -428 -299q0 -136 79 -211.5t228 -75.5v-141q-120 0 -209 35.5t-142 98.5q-106 126 -106 296q0 93 28.5 168.5t92.5 139.5q63 63 177.5 98.5t274.5 35.5h74
h166v-854q0 -201 105 -318q103 -118 270 -118q168 0 270 118q101 119 101 318v854z" />
    <glyph glyph-name="Uacute.swash" horiz-adv-x="1888" 
d="M1581 1993l-313 -420h-131l262 420h182zM1559 1421h167v-846q0 -286 -146 -446q-145 -160 -392 -160q-246 0 -393 162q-148 161 -148 444v701h-69q-428 0 -428 -299q0 -136 79 -211.5t228 -75.5v-141q-120 0 -209 35.5t-142 98.5q-106 126 -106 296q0 93 28.5 168.5
t92.5 139.5q63 63 177.5 98.5t274.5 35.5h74h166v-854q0 -201 105 -318q103 -118 270 -118q168 0 270 118q101 119 101 318v854z" />
    <glyph glyph-name="Ucircumflex.swash" horiz-adv-x="1888" 
d="M1208 1874l-207 -313h-133l265 448h147l266 -448h-133zM1559 1421h167v-846q0 -286 -146 -446q-145 -160 -392 -160q-246 0 -393 162q-148 161 -148 444v701h-69q-428 0 -428 -299q0 -136 79 -211.5t228 -75.5v-141q-120 0 -209 35.5t-142 98.5q-106 126 -106 296
q0 93 28.5 168.5t92.5 139.5q63 63 177.5 98.5t274.5 35.5h74h166v-854q0 -201 105 -318q103 -118 270 -118q168 0 270 118q101 119 101 318v854z" />
    <glyph glyph-name="Udieresis.swash" horiz-adv-x="1888" 
d="M1020 1622q-22 0 -42 8.5t-35 23.5t-23.5 35t-8.5 42q0 23 8.5 42.5t23.5 34t35 23t42 8.5q23 0 42 -8.5t33.5 -23t22.5 -34t8 -42.5q0 -22 -8 -42t-22.5 -35t-33.5 -23.5t-42 -8.5zM1481 1654q-32 -32 -77 -32t-77 32q-15 16 -23 36t-8 41t8 41t23 36q31 31 77 31
t77 -31q15 -16 22.5 -36t7.5 -41t-7.5 -41t-22.5 -36zM1559 1421h167v-846q0 -286 -146 -446q-145 -160 -392 -160q-246 0 -393 162q-148 161 -148 444v701h-69q-428 0 -428 -299q0 -136 79 -211.5t228 -75.5v-141q-120 0 -209 35.5t-142 98.5q-106 126 -106 296
q0 93 28.5 168.5t92.5 139.5q63 63 177.5 98.5t274.5 35.5h74h166v-854q0 -201 105 -318q103 -118 270 -118q168 0 270 118q101 119 101 318v854z" />
    <glyph glyph-name="Ugrave.swash" horiz-adv-x="1888" 
d="M1266 1573h-121l-279 430h170zM1559 1421h167v-846q0 -286 -146 -446q-145 -160 -392 -160q-246 0 -393 162q-148 161 -148 444v701h-69q-428 0 -428 -299q0 -136 79 -211.5t228 -75.5v-141q-120 0 -209 35.5t-142 98.5q-106 126 -106 296q0 93 28.5 168.5t92.5 139.5
q63 63 177.5 98.5t274.5 35.5h74h166v-854q0 -201 105 -318q103 -118 270 -118q168 0 270 118q101 119 101 318v854z" />
    <glyph glyph-name="Uhungarumlaut.swash" horiz-adv-x="1888" 
d="M1309 2003l-205 -430h-105l144 430h166zM1380 1573h-116l274 430h170zM1559 1421h167v-846q0 -286 -146 -446q-145 -160 -392 -160q-246 0 -393 162q-148 161 -148 444v701h-69q-428 0 -428 -299q0 -136 79 -211.5t228 -75.5v-141q-120 0 -209 35.5t-142 98.5
q-106 126 -106 296q0 93 28.5 168.5t92.5 139.5q63 63 177.5 98.5t274.5 35.5h74h166v-854q0 -201 105 -318q103 -118 270 -118q168 0 270 118q101 119 101 318v854z" />
    <glyph glyph-name="Umacron.swash" horiz-adv-x="1888" 
d="M1561 1845v-135h-693v135h693zM1559 1421h167v-846q0 -286 -146 -446q-145 -160 -392 -160q-246 0 -393 162q-148 161 -148 444v701h-69q-428 0 -428 -299q0 -136 79 -211.5t228 -75.5v-141q-120 0 -209 35.5t-142 98.5q-106 126 -106 296q0 93 28.5 168.5t92.5 139.5
q63 63 177.5 98.5t274.5 35.5h74h166v-854q0 -201 105 -318q103 -118 270 -118q168 0 270 118q101 119 101 318v854z" />
    <glyph glyph-name="Uogonek.swash" horiz-adv-x="1888" 
d="M1559 1421h167v-846q0 -224 -89.5 -371t-252.5 -202q-303 -150 -303 -324q0 -127 125 -127q102 0 195 54l31 -115q-123 -63 -267 -63q-113 0 -170 59t-57 158q0 188 225 325q-236 8 -376 170q-140 163 -140 436v701h-69q-428 0 -428 -299q0 -136 79 -211.5t228 -75.5
v-141q-120 0 -209 35.5t-142 98.5q-106 126 -106 296q0 93 28.5 168.5t92.5 139.5q63 63 177.5 98.5t274.5 35.5h74h166v-854q0 -201 105 -318q103 -118 270 -118q168 0 270 118q101 119 101 318v854z" />
    <glyph glyph-name="Uring.swash" horiz-adv-x="1888" 
d="M1212 1565q-113 0 -178 66q-65 65 -65 169q0 106 67 173q66 67 176 67q109 0 176 -67q66 -67 66 -172t-65 -170q-66 -66 -177 -66zM1212 1944q-61 0 -99 -40t-38 -104q0 -63 38 -101t100 -38t98.5 36.5t36.5 102.5q0 69 -37.5 106.5t-98.5 37.5zM1559 1421h167v-846
q0 -286 -146 -446q-145 -160 -392 -160q-246 0 -393 162q-148 161 -148 444v701h-69q-428 0 -428 -299q0 -136 79 -211.5t228 -75.5v-141q-120 0 -209 35.5t-142 98.5q-106 126 -106 296q0 93 28.5 168.5t92.5 139.5q63 63 177.5 98.5t274.5 35.5h74h166v-854
q0 -201 105 -318q103 -118 270 -118q168 0 270 118q101 119 101 318v854z" />
    <glyph glyph-name="V.swash" horiz-adv-x="1849" 
d="M1620 1421h172l-522 -1421h-197l-432 1276h-63q-428 0 -428 -313q0 -142 94.5 -221.5t271.5 -79.5v-142q-134 0 -235.5 37t-161.5 102q-119 128 -119 306q0 94 28.5 173t92.5 145q63 66 177.5 102t274.5 36h19h178l346 -1040q5 -13 18 -60q7 -23 13 -45.5t11 -43.5
t10 -39.5t10 -34.5q7 26 25.5 87t47.5 158z" />
    <glyph glyph-name="W.c2sc" horiz-adv-x="1558" 
d="M1325 1053h168l-285 -1053h-188l-191 608q-14 52 -27 104.5t-26 106.5q-32 -131 -57 -211l-207 -608h-190l-256 1053h174l170 -725q5 -40 9 -80t7 -82q20 92 39 158l237 714h162l213 -698q13 -51 22 -92.5t15 -73.5q2 11 5 31t7 48t6.5 49.5t4.5 37.5z" />
    <glyph glyph-name="W.salt" horiz-adv-x="2037" 
d="M1853 1421h172l-569 -1421h-178l-277 696l-301 -696h-178l-510 1421h178l435 -1228l299 702l-209 526h168l129 -321l137 321h166l-225 -520l280 -706z" />
    <glyph glyph-name="W.swash" horiz-adv-x="2488" 
d="M2269 1421h170l-366 -1421h-195l-262 920q-14 54 -29.5 115.5t-32.5 133.5q-20 -78 -37 -140.5t-30 -110.5l-287 -918h-196l-293 1276h-133q-414 0 -414 -313q0 -151 87.5 -234.5t250.5 -83.5v-141q-128 0 -223.5 39t-152.5 106q-57 66 -84.5 145.5t-27.5 170.5
q0 94 28 173t90 145t173.5 102t267.5 36h103h178l229 -1063q13 -68 20 -108.5t9 -54.5q10 45 20 84.5t21 76.5l324 1051h168l292 -1034q13 -43 23 -85.5t18 -84.5q2 14 6 35t11 50q12 59 18 87z" />
    <glyph glyph-name="Wacute.c2sc" horiz-adv-x="1558" 
d="M1081 1638l-247 -430h-115l192 430h170zM1325 1053h168l-285 -1053h-188l-191 608q-14 52 -27 104.5t-26 106.5q-32 -131 -57 -211l-207 -608h-190l-256 1053h174l170 -725q5 -40 9 -80t7 -82q20 92 39 158l237 714h162l213 -698q13 -51 22 -92.5t15 -73.5q2 11 5 31
t7 48t6.5 49.5t4.5 37.5z" />
    <glyph glyph-name="Wacute.swash" horiz-adv-x="2488" 
d="M1927 1993l-313 -420h-131l262 420h182zM2269 1421h170l-366 -1421h-195l-262 920q-14 54 -29.5 115.5t-32.5 133.5q-20 -78 -37 -140.5t-30 -110.5l-287 -918h-196l-293 1276h-133q-414 0 -414 -313q0 -151 87.5 -234.5t250.5 -83.5v-141q-128 0 -223.5 39t-152.5 106
q-57 66 -84.5 145.5t-27.5 170.5q0 94 28 173t90 145t173.5 102t267.5 36h103h178l229 -1063q13 -68 20 -108.5t9 -54.5q10 45 20 84.5t21 76.5l324 1051h168l292 -1034q13 -43 23 -85.5t18 -84.5q2 14 6 35t11 50q12 59 18 87z" />
    <glyph glyph-name="Wcircumflex.c2sc" horiz-adv-x="1558" 
d="M780 1536l-209 -328h-118l254 443h145l254 -443h-119zM1325 1053h168l-285 -1053h-188l-191 608q-14 52 -27 104.5t-26 106.5q-32 -131 -57 -211l-207 -608h-190l-256 1053h174l170 -725q5 -40 9 -80t7 -82q20 92 39 158l237 714h162l213 -698q13 -51 22 -92.5t15 -73.5
q2 11 5 31t7 48t6.5 49.5t4.5 37.5z" />
    <glyph glyph-name="Wcircumflex.swash" horiz-adv-x="2488" 
d="M1554 1874l-206 -313h-134l267 448h145l266 -448h-133zM2269 1421h170l-366 -1421h-195l-262 920q-14 54 -29.5 115.5t-32.5 133.5q-20 -78 -37 -140.5t-30 -110.5l-287 -918h-196l-293 1276h-133q-414 0 -414 -313q0 -151 87.5 -234.5t250.5 -83.5v-141
q-128 0 -223.5 39t-152.5 106q-57 66 -84.5 145.5t-27.5 170.5q0 94 28 173t90 145t173.5 102t267.5 36h103h178l229 -1063q13 -68 20 -108.5t9 -54.5q10 45 20 84.5t21 76.5l324 1051h168l292 -1034q13 -43 23 -85.5t18 -84.5q2 14 6 35t11 50q12 59 18 87z" />
    <glyph glyph-name="Wdieresis.c2sc" horiz-adv-x="1558" 
d="M565 1348q-21 0 -40 8t-33.5 22.5t-22.5 33.5t-8 41t8 41.5t22.5 33.5t33.5 22.5t40 8.5t40.5 -8.5t33.5 -22.5t22.5 -33.5t8.5 -41.5t-8.5 -41t-22.5 -33.5t-33.5 -22.5t-40.5 -8zM1068 1379q-30 -31 -75 -31q-46 0 -74 31q-15 15 -22.5 34.5t-7.5 39.5t7.5 40t22.5 35
q28 31 74 31q45 0 75 -31q15 -15 22.5 -35t7.5 -40t-7.5 -39.5t-22.5 -34.5zM1325 1053h168l-285 -1053h-188l-191 608q-14 52 -27 104.5t-26 106.5q-32 -131 -57 -211l-207 -608h-190l-256 1053h174l170 -725q5 -40 9 -80t7 -82q20 92 39 158l237 714h162l213 -698
q13 -51 22 -92.5t15 -73.5q2 11 5 31t7 48t6.5 49.5t4.5 37.5z" />
    <glyph glyph-name="Wdieresis.swash" horiz-adv-x="2488" 
d="M1366 1622q-22 0 -42 8.5t-35 23.5t-23.5 35t-8.5 42q0 23 8.5 42.5t23.5 34t35 23t42 8.5q23 0 42.5 -8.5t33.5 -23t22.5 -34t8.5 -42.5q0 -22 -8.5 -42t-22.5 -35t-33.5 -23.5t-42.5 -8.5zM1827 1654q-32 -32 -77 -32t-77 32q-15 16 -23 36t-8 41t8 41t23 36
q31 31 77 31t77 -31q15 -16 23 -36t8 -41t-8 -41t-23 -36zM2269 1421h170l-366 -1421h-195l-262 920q-14 54 -29.5 115.5t-32.5 133.5q-20 -78 -37 -140.5t-30 -110.5l-287 -918h-196l-293 1276h-133q-414 0 -414 -313q0 -151 87.5 -234.5t250.5 -83.5v-141
q-128 0 -223.5 39t-152.5 106q-57 66 -84.5 145.5t-27.5 170.5q0 94 28 173t90 145t173.5 102t267.5 36h103h178l229 -1063q13 -68 20 -108.5t9 -54.5q10 45 20 84.5t21 76.5l324 1051h168l292 -1034q13 -43 23 -85.5t18 -84.5q2 14 6 35t11 50q12 59 18 87z" />
    <glyph glyph-name="Wgrave.c2sc" horiz-adv-x="1558" 
d="M840 1208h-113l-248 430h168zM1325 1053h168l-285 -1053h-188l-191 608q-14 52 -27 104.5t-26 106.5q-32 -131 -57 -211l-207 -608h-190l-256 1053h174l170 -725q5 -40 9 -80t7 -82q20 92 39 158l237 714h162l213 -698q13 -51 22 -92.5t15 -73.5q2 11 5 31t7 48t6.5 49.5
t4.5 37.5z" />
    <glyph glyph-name="Wgrave.swash" horiz-adv-x="2488" 
d="M1612 1573h-121l-279 430h170zM2269 1421h170l-366 -1421h-195l-262 920q-14 54 -29.5 115.5t-32.5 133.5q-20 -78 -37 -140.5t-30 -110.5l-287 -918h-196l-293 1276h-133q-414 0 -414 -313q0 -151 87.5 -234.5t250.5 -83.5v-141q-128 0 -223.5 39t-152.5 106
q-57 66 -84.5 145.5t-27.5 170.5q0 94 28 173t90 145t173.5 102t267.5 36h103h178l229 -1063q13 -68 20 -108.5t9 -54.5q10 45 20 84.5t21 76.5l324 1051h168l292 -1034q13 -43 23 -85.5t18 -84.5q2 14 6 35t11 50q12 59 18 87z" />
    <glyph glyph-name="X.swash" horiz-adv-x="1710" 
d="M1657 0h-189l-374 647l-369 -647h-188l444 748l-334 528h-69q-428 -2 -428 -299q0 -136 79 -211.5t228 -75.5v-141q-120 0 -209 35.5t-142 98.5q-106 126 -106 296q0 91 27.5 165.5t89.5 138.5q62 63 172.5 99.5t267.5 38.5h166h18l359 -583l352 583h184l-422 -673z" />
    <glyph glyph-name="Y.c2sc" horiz-adv-x="983" 
d="M936 1053l-363 -647v-406h-163v403l-363 650h182l263 -506l266 506h178z" />
    <glyph glyph-name="Y.swash" horiz-adv-x="1660" 
d="M1651 1421q-65 -93 -129.5 -198t-130.5 -226t-120.5 -237t-99.5 -230v-530h-165v504q-49 212 -121.5 379.5t-176.5 279.5q-103 111 -219 111q-123 0 -202 -76q-80 -77 -80 -205q0 -134 97 -210q98 -78 271 -78v-142q-134 0 -235.5 36t-161.5 99q-61 63 -91 137.5
t-30 159.5q0 179 113 303q113 123 322 123t362 -195q153 -199 244 -534q61 190 163 389q51 100 102 184.5t103 155.5h185z" />
    <glyph glyph-name="Yacute.c2sc" horiz-adv-x="983" 
d="M793 1638l-248 -430h-113l193 430h168zM936 1053l-363 -647v-406h-163v403l-363 650h182l263 -506l266 506h178z" />
    <glyph glyph-name="Yacute.swash" horiz-adv-x="1660" 
d="M1458 1993l-311 -420h-131l262 420h180zM1651 1421q-65 -93 -129.5 -198t-130.5 -226t-120.5 -237t-99.5 -230v-530h-165v504q-49 212 -121.5 379.5t-176.5 279.5q-103 111 -219 111q-123 0 -202 -76q-80 -77 -80 -205q0 -134 97 -210q98 -78 271 -78v-142
q-134 0 -235.5 36t-161.5 99q-61 63 -91 137.5t-30 159.5q0 179 113 303q113 123 322 123t362 -195q153 -199 244 -534q61 190 163 389q51 100 102 184.5t103 155.5h185z" />
    <glyph glyph-name="Ycircumflex.c2sc" horiz-adv-x="983" 
d="M492 1536l-207 -328h-119l252 443h145l256 -443h-121zM936 1053l-363 -647v-406h-163v403l-363 650h182l263 -506l266 506h178z" />
    <glyph glyph-name="Ycircumflex.swash" horiz-adv-x="1660" 
d="M1085 1874l-204 -313h-133l264 448h145l266 -448h-131zM1651 1421q-65 -93 -129.5 -198t-130.5 -226t-120.5 -237t-99.5 -230v-530h-165v504q-49 212 -121.5 379.5t-176.5 279.5q-103 111 -219 111q-123 0 -202 -76q-80 -77 -80 -205q0 -134 97 -210q98 -78 271 -78v-142
q-134 0 -235.5 36t-161.5 99q-61 63 -91 137.5t-30 159.5q0 179 113 303q113 123 322 123t362 -195q153 -199 244 -534q61 190 163 389q51 100 102 184.5t103 155.5h185z" />
    <glyph glyph-name="Ydieresis.c2sc" horiz-adv-x="983" 
d="M279 1348q-45 0 -75 30t-30 75t29.5 75.5t75.5 30.5q21 0 40 -8.5t32.5 -22.5t21.5 -33.5t8 -41.5q0 -45 -29.5 -75t-72.5 -30zM781 1379q-15 -15 -35 -23t-40 -8t-40 8t-35 23t-23 34.5t-8 39.5t8 40t23 35t35 23t40 8t40 -8t35 -23t22.5 -35t7.5 -40t-7.5 -39.5
t-22.5 -34.5zM936 1053l-363 -647v-406h-163v403l-363 650h182l263 -506l266 506h178z" />
    <glyph glyph-name="Ydieresis.swash" horiz-adv-x="1660" 
d="M899 1622q-48 0 -78 32t-30 77t30 76.5t78 31.5q21 0 40.5 -8.5t34.5 -23t23.5 -34t8.5 -42.5q0 -45 -32 -77t-75 -32zM1359 1654q-16 -16 -36 -24t-41 -8t-40.5 8t-35.5 24t-23.5 36t-7.5 41t7.5 41t23.5 36t35.5 24t40.5 8t41 -8t36 -24t24 -36t8 -41t-8 -41t-24 -36z
M1651 1421q-65 -93 -129.5 -198t-130.5 -226t-120.5 -237t-99.5 -230v-530h-165v504q-49 212 -121.5 379.5t-176.5 279.5q-103 111 -219 111q-123 0 -202 -76q-80 -77 -80 -205q0 -134 97 -210q98 -78 271 -78v-142q-134 0 -235.5 36t-161.5 99q-61 63 -91 137.5t-30 159.5
q0 179 113 303q113 123 322 123t362 -195q153 -199 244 -534q61 190 163 389q51 100 102 184.5t103 155.5h185z" />
    <glyph glyph-name="Ygrave.swash" horiz-adv-x="1660" 
d="M1143 1573h-119l-281 430h170zM1651 1421q-65 -93 -129.5 -198t-130.5 -226t-120.5 -237t-99.5 -230v-530h-165v504q-49 212 -121.5 379.5t-176.5 279.5q-103 111 -219 111q-123 0 -202 -76q-80 -77 -80 -205q0 -134 97 -210q98 -78 271 -78v-142q-134 0 -235.5 36
t-161.5 99q-61 63 -91 137.5t-30 159.5q0 179 113 303q113 123 322 123t362 -195q153 -199 244 -534q61 190 163 389q51 100 102 184.5t103 155.5h185z" />
    <glyph glyph-name="Z.swash" horiz-adv-x="1142" 
d="M897 725q99 -55 173 -174q73 -118 73 -291q0 -194 -111 -298q-112 -103 -293 -103q-86 0 -191 35q-52 18 -100.5 36t-93.5 36q-90 36 -145 36q-89 0 -166 -43l-43 141l793 1172h-754v149h967v-139l-775 -1128h17q53 2 112.5 -19.5t121.5 -48t124.5 -47.5t120.5 -19
q62 0 110 17.5t81 49.5t50 78t17 103q0 119 -45 195q-44 74 -131 137z" />
    <glyph glyph-name="Zacute.swash" horiz-adv-x="1142" 
d="M981 1993l-313 -420h-131l262 420h182zM897 725q99 -55 173 -174q73 -118 73 -291q0 -194 -111 -298q-112 -103 -293 -103q-86 0 -191 35q-52 18 -100.5 36t-93.5 36q-90 36 -145 36q-89 0 -166 -43l-43 141l793 1172h-754v149h967v-139l-775 -1128h17q53 2 112.5 -19.5
t121.5 -48t124.5 -47.5t120.5 -19q62 0 110 17.5t81 49.5t50 78t17 103q0 119 -45 195q-44 74 -131 137z" />
    <glyph glyph-name="Zcaron.swash" horiz-adv-x="1142" 
d="M686 1573h-145l-267 448h134l206 -313l205 313h133zM897 725q99 -55 173 -174q73 -118 73 -291q0 -194 -111 -298q-112 -103 -293 -103q-86 0 -191 35q-52 18 -100.5 36t-93.5 36q-90 36 -145 36q-89 0 -166 -43l-43 141l793 1172h-754v149h967v-139l-775 -1128h17
q53 2 112.5 -19.5t121.5 -48t124.5 -47.5t120.5 -19q62 0 110 17.5t81 49.5t50 78t17 103q0 119 -45 195q-44 74 -131 137z" />
    <glyph glyph-name="Zdotaccent.swash" horiz-adv-x="1142" 
d="M692 1655q-33 -33 -80 -33q-46 0 -78 33q-32 34 -32 80t32 80q32 32 78 32t80 -32q33 -33 33 -80t-33 -80zM897 725q99 -55 173 -174q73 -118 73 -291q0 -194 -111 -298q-112 -103 -293 -103q-86 0 -191 35q-52 18 -100.5 36t-93.5 36q-90 36 -145 36q-89 0 -166 -43
l-43 141l793 1172h-754v149h967v-139l-775 -1128h17q53 2 112.5 -19.5t121.5 -48t124.5 -47.5t120.5 -19q62 0 110 17.5t81 49.5t50 78t17 103q0 119 -45 195q-44 74 -131 137z" />
    <glyph glyph-name="a.salt" horiz-adv-x="1150" 
d="M850 973h160v-973h-160v176q-130 -207 -367 -207q-184 0 -300 132q-117 132 -117 386q0 251 126 384q124 133 314 133q229 0 344 -189v158zM520 115q114 0 198 63.5t132 175.5v291q-42 105 -121.5 161t-185.5 56q-131 0 -224 -94q-94 -94 -94 -281t85 -279
q86 -93 210 -93z" />
    <glyph glyph-name="aacute.salt" horiz-adv-x="1150" 
d="M905 1559l-250 -431h-112l192 431h170zM850 973h160v-973h-160v176q-130 -207 -367 -207q-184 0 -300 132q-117 132 -117 386q0 251 126 384q124 133 314 133q229 0 344 -189v158zM520 115q114 0 198 63.5t132 175.5v291q-42 105 -121.5 161t-185.5 56q-131 0 -224 -94
q-94 -94 -94 -281t85 -279q86 -93 210 -93z" />
    <glyph glyph-name="abreve.salt" horiz-adv-x="1150" 
d="M604 1169q-170 0 -259 102.5t-77 297.5h127q-12 -289 207 -289q220 0 207 289h129q10 -196 -76.5 -298t-257.5 -102zM850 973h160v-973h-160v176q-130 -207 -367 -207q-184 0 -300 132q-117 132 -117 386q0 251 126 384q124 133 314 133q229 0 344 -189v158zM520 115
q114 0 198 63.5t132 175.5v291q-42 105 -121.5 161t-185.5 56q-131 0 -224 -94q-94 -94 -94 -281t85 -279q86 -93 210 -93z" />
    <glyph glyph-name="acircumflex.salt" horiz-adv-x="1150" 
d="M602 1456l-207 -328h-119l252 443h148l254 -443h-119zM850 973h160v-973h-160v176q-130 -207 -367 -207q-184 0 -300 132q-117 132 -117 386q0 251 126 384q124 133 314 133q229 0 344 -189v158zM520 115q114 0 198 63.5t132 175.5v291q-42 105 -121.5 161t-185.5 56
q-131 0 -224 -94q-94 -94 -94 -281t85 -279q86 -93 210 -93z" />
    <glyph glyph-name="acutecomb.aalt" 
d="M41 1544l-311 -420h-131l262 420h180z" />
    <glyph glyph-name="adieresis.salt" horiz-adv-x="1150" 
d="M389 1268q-45 0 -74.5 30t-29.5 75t29.5 75.5t74.5 30.5q21 0 40 -8.5t33 -22.5t22 -33.5t8 -41.5t-8 -41t-22 -33.5t-33 -22.5t-40 -8zM891 1299q-15 -15 -34.5 -23t-40 -8t-39.5 8t-34 23t-22.5 34.5t-7.5 39.5t7.5 40t22.5 35t34 23t39.5 8t40 -8t34.5 -23t23 -35
t8 -40t-8 -39.5t-23 -34.5zM850 973h160v-973h-160v176q-130 -207 -367 -207q-184 0 -300 132q-117 132 -117 386q0 251 126 384q124 133 314 133q229 0 344 -189v158zM520 115q114 0 198 63.5t132 175.5v291q-42 105 -121.5 161t-185.5 56q-131 0 -224 -94
q-94 -94 -94 -281t85 -279q86 -93 210 -93z" />
    <glyph glyph-name="agrave.salt" horiz-adv-x="1150" 
d="M664 1128h-115l-248 431h170zM850 973h160v-973h-160v176q-130 -207 -367 -207q-184 0 -300 132q-117 132 -117 386q0 251 126 384q124 133 314 133q229 0 344 -189v158zM520 115q114 0 198 63.5t132 175.5v291q-42 105 -121.5 161t-185.5 56q-131 0 -224 -94
q-94 -94 -94 -281t85 -279q86 -93 210 -93z" />
    <glyph glyph-name="amacron.salt" horiz-adv-x="1150" 
d="M948 1432v-136h-692v136h692zM850 973h160v-973h-160v176q-130 -207 -367 -207q-184 0 -300 132q-117 132 -117 386q0 251 126 384q124 133 314 133q229 0 344 -189v158zM520 115q114 0 198 63.5t132 175.5v291q-42 105 -121.5 161t-185.5 56q-131 0 -224 -94
q-94 -94 -94 -281t85 -279q86 -93 210 -93z" />
    <glyph glyph-name="aogonek.salt" horiz-adv-x="1150" 
d="M1028 -412l31 -114q-122 -68 -256 -68q-106 0 -160.5 53.5t-54.5 141.5q0 225 301 399h-39v176q-130 -207 -367 -207q-184 0 -300 132q-117 132 -117 386q0 251 126 384q124 133 314 133q229 0 344 -189v158h160v-973h2q-29 -22 -47 -36t-26 -21t-23.5 -19.5t-38.5 -32.5
q-23 -19 -38.5 -34t-23.5 -26q-7 -10 -18 -25t-22 -32.5t-20.5 -35.5t-13.5 -34q-10 -33 -10 -71q0 -102 113 -102q94 0 184 57zM520 115q114 0 198 63.5t132 175.5v291q-42 105 -121.5 161t-185.5 56q-131 0 -224 -94q-94 -94 -94 -281t85 -279q86 -93 210 -93z" />
    <glyph glyph-name="aring.salt" horiz-adv-x="1150" 
d="M602 1180q-112 0 -180 68t-68 175q0 106 69 175t179 69q111 0 181 -69q69 -70 69 -175q0 -106 -68 -174q-69 -69 -182 -69zM602 1571q-30 0 -56 -10.5t-45 -30t-29.5 -47t-10.5 -60.5q0 -69 39 -107t104 -38t103 38t38 107t-38.5 108.5t-104.5 39.5zM850 973h160v-973
h-160v176q-130 -207 -367 -207q-184 0 -300 132q-117 132 -117 386q0 251 126 384q124 133 314 133q229 0 344 -189v158zM520 115q114 0 198 63.5t132 175.5v291q-42 105 -121.5 161t-185.5 56q-131 0 -224 -94q-94 -94 -94 -281t85 -279q86 -93 210 -93z" />
    <glyph glyph-name="atilde.salt" horiz-adv-x="1150" 
d="M352 1149h-114q-10 207 34.5 301t139.5 94q39 0 79 -24q39 -25 63 -48q12 -12 28.5 -30t38.5 -41q17 -22 29.5 -37t20.5 -25q17 -20 46 -40q29 -21 51 -21q90 0 86 262h115q13 -397 -176 -397q-23 -2 -45.5 6t-39.5 16q-12 4 -26 16.5t-22 18.5q-3 2 -10.5 8.5t-15 14
l-14 14l-8.5 8.5q-6 7 -23 26q-9 10 -14.5 15.5l-7.5 7.5q-17 20 -29.5 35t-19.5 24q-13 15 -38 36q-25 18 -44 18q-48 0 -67 -62t-17 -196zM850 973h160v-973h-160v176q-130 -207 -367 -207q-184 0 -300 132q-117 132 -117 386q0 251 126 384q124 133 314 133
q229 0 344 -189v158zM520 115q114 0 198 63.5t132 175.5v291q-42 105 -121.5 161t-185.5 56q-131 0 -224 -94q-94 -94 -94 -281t85 -279q86 -93 210 -93z" />
    <glyph glyph-name="b.aalt" horiz-adv-x="1093" 
d="M772 557q112 -10 176 -75t64 -177q0 -70 -25 -126.5t-73.5 -96.5t-119 -61t-161.5 -21h-459v1053h449q327 0 325 -246q0 -91 -45.5 -156t-130.5 -94zM799 772q0 141 -189 141h-276v-311h293q68 0 120 46t52 124zM643 139q97 0 153 48t56 135q0 167 -219 165h-299v-348
h309z" />
    <glyph glyph-name="c.aalt" horiz-adv-x="1138" 
d="M629 -29q-254 0 -399 148q-146 148 -146 409q0 256 158 405q157 148 391 148q248 0 405 -135l-90 -129q-63 55 -135 82t-174 27q-162 0 -272 -108q-111 -109 -111 -290q0 -184 105 -292q103 -109 278 -109q183 0 340 119l68 -137q-175 -138 -418 -138z" />
    <glyph glyph-name="cacute.aalt" horiz-adv-x="1138" 
d="M944 1638l-250 -430h-112l192 430h170zM629 -29q-254 0 -399 148q-146 148 -146 409q0 256 158 405q157 148 391 148q248 0 405 -135l-90 -129q-63 55 -135 82t-174 27q-162 0 -272 -108q-111 -109 -111 -290q0 -184 105 -292q103 -109 278 -109q183 0 340 119l68 -137
q-175 -138 -418 -138z" />
    <glyph glyph-name="ccaron.aalt" horiz-adv-x="1138" 
d="M715 1208h-148l-252 443h119l207 -328l209 328h119zM979 246l68 -137q-175 -136 -418 -138q-254 0 -399 148q-146 148 -146 409q0 256 158 405q157 148 391 148q248 0 405 -135l-90 -129q-63 55 -135 82t-174 27q-162 0 -272 -108q-111 -109 -111 -290q0 -184 105 -292
q103 -109 278 -109q183 0 340 119z" />
    <glyph glyph-name="ccedilla.aalt" horiz-adv-x="1138" 
d="M711 -168q93 0 145.5 -52t52.5 -149q0 -115 -78 -175q-79 -60 -208 -60q-140 0 -238 72l43 96q27 -25 78 -45.5t115 -20.5q78 0 122.5 35t44.5 98q0 48 -29 78.5t-83 30.5q-81 0 -131 -53l-90 34l100 252q-221 23 -346 169t-125 386q0 256 158 405q157 148 391 148
q248 0 405 -135l-90 -129q-63 55 -135 82t-174 27q-162 0 -272 -108q-111 -109 -111 -290q0 -184 105 -292q103 -109 278 -109q183 0 340 119l68 -137q-162 -128 -379 -138l-76 -168q56 29 119 29z" />
    <glyph glyph-name="cdotaccent.aalt" horiz-adv-x="1138" 
d="M571 1281q-28 25 -32.5 60.5t8 67.5t40.5 54t66 20q26 0 47.5 -9.5t37.5 -25.5t25 -38t9 -46t-9 -45.5t-24.5 -37.5t-37.5 -25t-48 -9q-49 0 -82 34zM629 -29q-254 0 -399 148q-146 148 -146 409q0 256 158 405q157 148 391 148q248 0 405 -135l-90 -129q-63 55 -135 82
t-174 27q-162 0 -272 -108q-111 -109 -111 -290q0 -184 105 -292q103 -109 278 -109q183 0 340 119l68 -137q-175 -138 -418 -138z" />
    <glyph glyph-name="d.aalt" horiz-adv-x="1208" 
d="M522 1053q276 0 433 -126t157 -384q0 -263 -157 -402q-157 -141 -433 -141h-348v1053h348zM520 147q193 0 306 107t114 289q0 89 -28.5 156.5t-82.5 113.5t-132 69t-177 23h-182v-758h182z" />
    <glyph glyph-name="dcaron.aalt" horiz-adv-x="1208" 
d="M672 1208h-146l-254 443h119l207 -328l209 328h119zM522 1053q276 0 433 -126t157 -384q0 -263 -157 -402q-157 -141 -433 -141h-348v1053h348zM520 147q193 0 306 107t114 289q0 89 -28.5 156.5t-82.5 113.5t-132 69t-177 23h-182v-758h182z" />
    <glyph glyph-name="dcroat.aalt" horiz-adv-x="1208" 
d="M522 1053q276 0 433 -126t157 -384q0 -263 -157 -402q-157 -141 -433 -141h-348v487h-121v119h121v447h348zM520 147q193 0 306 107t114 289q0 89 -28.5 156.5t-82.5 113.5t-132 69t-177 23h-182v-299h360v-119h-360v-340h182z" />
    <glyph glyph-name="e.aalt" horiz-adv-x="989" 
d="M907 911h-579v-301h458v-121h-458v-346h579v-143h-743v1053h743v-142z" />
    <glyph glyph-name="eacute.aalt" horiz-adv-x="989" 
d="M858 1638l-248 -430h-114l192 430h170zM907 911h-579v-301h458v-121h-458v-346h579v-143h-743v1053h743v-142z" />
    <glyph glyph-name="ecaron.aalt" horiz-adv-x="989" 
d="M629 1208h-146l-254 443h119l209 -328l207 328h119zM907 911h-579v-301h458v-121h-458v-346h579v-143h-743v1053h743v-142z" />
    <glyph glyph-name="ecircumflex.aalt" horiz-adv-x="989" 
d="M557 1536l-209 -328h-119l254 443h146l254 -443h-119zM907 911h-579v-301h458v-121h-458v-346h579v-143h-743v1053h743v-142z" />
    <glyph glyph-name="edieresis.aalt" horiz-adv-x="989" 
d="M342 1348q-21 0 -40 8t-33.5 22.5t-22.5 33.5t-8 41t8 41.5t22.5 33.5t33.5 22.5t40 8.5t40 -8.5t33.5 -22.5t22.5 -33.5t8 -41.5t-8 -41t-22.5 -33.5t-33.5 -22.5t-40 -8zM845 1379q-30 -31 -75 -31q-46 0 -74 31q-15 15 -22.5 34.5t-7.5 39.5t7.5 40t22.5 35
q28 31 74 31q45 0 75 -31q15 -15 22 -35t7 -40t-7 -39.5t-22 -34.5zM907 911h-579v-301h458v-121h-458v-346h579v-143h-743v1053h743v-142z" />
    <glyph glyph-name="edotaccent.aalt" horiz-adv-x="989" 
d="M569 1247q-25 0 -47 9t-37.5 25t-24.5 37.5t-9 45.5t9 46t24.5 38t37.5 25.5t47 9.5q48 0 83 -35q34 -34 34 -84q0 -24 -9 -45.5t-25 -37.5t-37.5 -25t-45.5 -9zM907 911h-579v-301h458v-121h-458v-346h579v-143h-743v1053h743v-142z" />
    <glyph glyph-name="egrave.aalt" horiz-adv-x="989" 
d="M616 1208h-112l-248 430h168zM907 911h-579v-301h458v-121h-458v-346h579v-143h-743v1053h743v-142z" />
    <glyph glyph-name="eight.oldstyle" horiz-adv-x="1110" 
d="M760 727q60 -18 109 -50t83.5 -77t53 -102.5t18.5 -126.5q0 -199 -129 -300q-129 -102 -341 -102t-340 102q-128 101 -128 300q0 69 18.5 126.5t52.5 102.5t82.5 77t108.5 50q-47 20 -86 52t-66.5 76t-43 99t-15.5 121q0 173 108 276q106 103 310 103t311 -103
q107 -104 107 -274q0 -66 -15.5 -121t-44 -99t-67.5 -76.5t-86 -53.5zM823 1051q0 121 -71 188.5t-197 67.5q-63 0 -113 -17.5t-85 -50.5t-53.5 -80.5t-18.5 -107.5q0 -123 76 -199q75 -76 194 -76q117 0 193 76q75 77 75 199zM244 399q0 -128 84 -202q85 -74 227 -74
t227 74q84 74 84 202q0 132 -87 202q-88 71 -224 71q-139 0 -225 -71t-86 -202z" />
    <glyph glyph-name="eight.oldstyle.case" horiz-adv-x="1224" 
d="M844 727q132 -37 205 -128.5t73 -227.5q0 -200 -137 -301t-372 -101q-236 0 -373 101q-138 101 -138 301q0 138 72.5 228.5t204.5 127.5q-51 21 -93 54t-71.5 77t-46 98.5t-16.5 118.5q0 170 118 275q118 104 343 104t343 -103q117 -103 117 -274q0 -64 -16.5 -119
t-47 -99t-72.5 -77.5t-93 -54.5zM909 1049q0 60 -20.5 106t-59 78t-93 48.5t-123.5 16.5q-138 0 -218 -66q-80 -68 -80 -183q0 -123 83 -197t214 -74q129 0 213 75t84 196zM365 594q-93 -67 -93 -195q0 -127 92 -198q92 -72 249 -72t248 72q91 70 91 198t-94 195
q-95 68 -246 68q-153 0 -247 -68z" />
    <glyph glyph-name="emacron.aalt" horiz-adv-x="989" 
d="M903 1511v-135h-692v135h692zM907 911h-579v-301h458v-121h-458v-346h579v-143h-743v1053h743v-142z" />
    <glyph glyph-name="eogonek.aalt" horiz-adv-x="989" 
d="M915 -385l29 -115q-118 -66 -250 -65q-109 0 -164 54.5t-55 154.5t73 194q74 95 200 162h-584v1053h743v-142h-579v-301h458v-121h-458v-346h579v-143q-66 -40 -118 -79.5t-92 -77.5q-79 -76 -79 -167q0 -117 115 -116q93 0 182 55z" />
    <glyph glyph-name="eth.aalt" horiz-adv-x="1208" 
d="M522 1053q276 0 433 -126t157 -384q0 -263 -157 -402q-157 -141 -433 -141h-348v487h-121v119h121v447h348zM520 147q193 0 306 107t114 289q0 89 -28.5 156.5t-82.5 113.5t-132 69t-177 23h-182v-299h360v-119h-360v-340h182z" />
    <glyph glyph-name="f.aalt" horiz-adv-x="956" 
d="M895 913h-567v-327h446v-127h-446v-459h-164v1053h731v-140z" />
    <glyph glyph-name="five.oldstyle" horiz-adv-x="989" 
d="M553 494q169 0 270 -100q101 -101 101 -283q1 -118 -37 -202.5t-102 -138.5t-148 -79t-176 -25q-230 0 -402 131l52 142q146 -127 340 -127q135 0 223 75q88 76 88 228q0 126 -73 193t-175 67q-90 0 -168 -42q-79 -42 -117 -97l-114 40v777h739v-150h-590v-514
q128 105 289 105z" />
    <glyph glyph-name="five.oldstyle.case" horiz-adv-x="1107" 
d="M614 858q178 0 288 -104q110 -105 110 -312q0 -233 -139 -353t-357 -120q-144 0 -264 52q-121 51 -199 126l72 140q164 -158 377 -158q138 0 236 83q96 83 96 234q0 143 -75 212t-194 69q-47 0 -88.5 -11t-77 -29.5t-64.5 -43t-50 -51.5l-123 45v784h756v-149h-596v-510
q122 96 292 96z" />
    <glyph glyph-name="four.oldstyle" horiz-adv-x="1083" 
d="M1061 133v-133h-191v-352h-161v352h-691v135l621 918h231v-920h191zM178 133h531v793z" />
    <glyph glyph-name="four.oldstyle.case" horiz-adv-x="1181" 
d="M1153 428v-145h-221v-283h-164v283h-698v145l630 1006h232v-1006h221zM248 428h520v852z" />
    <glyph glyph-name="g.salt" horiz-adv-x="1140" 
d="M850 973h160v-946q0 -132 -30 -232t-78 -162q-48 -61 -115 -100q-68 -39 -133.5 -52t-141.5 -13q-250 0 -397 165l71 121q117 -150 318 -149q70 0 128 19.5t110 62.5q51 43 79.5 123t28.5 194v170q-127 -205 -363 -205q-189 0 -305 131t-116 387q0 251 127 384
q126 133 317 133q228 0 340 -187v156zM526 115q224 0 324 237v293q-42 105 -120 161t-183 56q-133 0 -227 -94q-95 -95 -95 -281q0 -188 84 -280t217 -92z" />
    <glyph glyph-name="gbreve.salt" horiz-adv-x="1140" 
d="M612 1169q-171 0 -259.5 102t-78.5 298h129q-13 -289 207 -289q219 0 207 289h129q10 -195 -78 -297.5t-256 -102.5zM850 973h160v-946q0 -132 -30 -232t-78 -162q-48 -61 -115 -100q-68 -39 -133.5 -52t-141.5 -13q-250 0 -397 165l71 121q117 -150 318 -149
q70 0 128 19.5t110 62.5q51 43 79.5 123t28.5 194v170q-127 -205 -363 -205q-189 0 -305 131t-116 387q0 251 127 384q126 133 317 133q228 0 340 -187v156zM526 115q224 0 324 237v293q-42 105 -120 161t-183 56q-133 0 -227 -94q-95 -95 -95 -281q0 -188 84 -280t217 -92z
" />
    <glyph glyph-name="gdotaccent.salt" horiz-adv-x="1140" 
d="M623 1167q-24 0 -45.5 9t-37.5 25t-25 37.5t-9 45.5t9 46t24.5 38t37 25.5t46.5 9.5q24 0 45.5 -9.5t37 -25.5t24.5 -38t9 -46t-9 -45.5t-24.5 -37.5t-37 -25t-45.5 -9zM850 973h160v-946q0 -132 -30 -232t-78 -162q-48 -61 -115 -100q-68 -39 -133.5 -52t-141.5 -13
q-250 0 -397 165l71 121q117 -150 318 -149q70 0 128 19.5t110 62.5q51 43 79.5 123t28.5 194v170q-127 -205 -363 -205q-189 0 -305 131t-116 387q0 251 127 384q126 133 317 133q228 0 340 -187v156zM526 115q224 0 324 237v293q-42 105 -120 161t-183 56q-133 0 -227 -94
q-95 -95 -95 -281q0 -188 84 -280t217 -92z" />
    <glyph glyph-name="glyph1" 
 />
    <glyph glyph-name="glyph2" horiz-adv-x="681" 
 />
    <glyph glyph-name="glyph367" horiz-adv-x="1392" 
d="M835 1655q-31 -33 -79 -33q-47 0 -80 33t-33 80t33 80q34 32 80 32q47 0 79 -32q31 -32 31 -80t-31 -80zM713 791h571v-717q-271 -103 -539 -105q-311 0 -494 197q-183 196 -183 545q0 343 193 542q192 199 493 199q332 0 530 -199l-104 -120q-160 160 -422 159
q-229 0 -373 -158q-145 -158 -145 -423q0 -267 140 -424q140 -156 376 -156q204 0 360 68v452h-403v140z" />
    <glyph glyph-name="glyph653" horiz-adv-x="292" 
d="M252 1532l-90 -612h-115l35 612h170z" />
    <glyph glyph-name="gravecomb.aalt" 
d="M-166 1124l-278 430h170l229 -430h-121z" />
    <glyph glyph-name="h.aalt" horiz-adv-x="1214" 
d="M887 1053h164v-1053h-164v477h-559v-477h-164v1053h164v-430h559v430z" />
    <glyph glyph-name="i.locl" horiz-adv-x="479" 
d="M169 1201q-34 34 -34 83q0 50 34 84q35 35 83 35t83 -35q34 -34 34 -84q0 -24 -9 -45.5t-25 -37.5t-37.5 -25t-45.5 -9q-49 0 -83 34zM319 973v-973h-159v973h159z" />
    <glyph glyph-name="iacute.aalt" horiz-adv-x="491" 
d="M549 1638l-250 -430h-113l193 430h170zM328 1053v-1053h-164v1053h164z" />
    <glyph glyph-name="icircumflex.aalt" horiz-adv-x="491" 
d="M319 1651l254 -443h-118l-209 328l-207 -328h-119l254 443h145zM164 0v1053h164v-1053h-164z" />
    <glyph glyph-name="idieresis.aalt" horiz-adv-x="491" 
d="M-42 1379q-24 22 -28.5 54t7 60.5t36.5 48t60 17.5q21 0 40 -8.5t33.5 -22.5t22.5 -33.5t8 -41.5t-8 -41t-22.5 -33.5t-33.5 -22.5t-40 -8q-45 0 -75 31zM386 1379q-15 15 -22.5 34.5t-7.5 39.5t7.5 40t22.5 35t34.5 23t39.5 8t40 -8t35 -23t22.5 -35t7.5 -40t-7 -39.5
t-22 -34.5q-30 -31 -75 -31t-75 31zM328 1053v-1053h-164v1053h164z" />
    <glyph glyph-name="igrave.aalt" horiz-adv-x="491" 
d="M307 1208h-112l-250 430h170zM328 1053v-1053h-164v1053h164z" />
    <glyph glyph-name="imacron.aalt" horiz-adv-x="491" 
d="M-100 1511h694v-135h-694v135zM328 1053v-1053h-164v1053h164z" />
    <glyph glyph-name="iogonek.aalt" horiz-adv-x="491" 
d="M334 -385l31 -115q-118 -66 -250 -65q-109 0 -164 54.5t-55 154.5q0 50 18.5 99t54 94.5t86 87t113.5 75.5h-4v1053h164v-1053q-67 -40 -119.5 -79.5t-91.5 -77.5q-78 -77 -78 -167q0 -117 115 -116q92 0 180 55z" />
    <glyph glyph-name="j.aalt" horiz-adv-x="823" 
d="M336 -23q-173 0 -283 105l43 158q77 -113 223 -113q205 0 205 264v662h164v-666q0 -120 -27.5 -202t-78.5 -127q-52 -45 -111 -63t-135 -18z" />
    <glyph glyph-name="k.aalt" horiz-adv-x="1083" 
d="M836 0l-308 539l-190 -205v-334h-164v1053h164v-521l477 521h186l-352 -383l379 -670h-192z" />
    <glyph glyph-name="l.aalt" horiz-adv-x="845" 
d="M328 143h479v-143h-643v1053h164v-910z" />
    <glyph glyph-name="lacute.aalt" horiz-adv-x="845" 
d="M604 1638l-248 -430h-114l192 430h170zM328 143h479v-143h-643v1053h164v-910z" />
    <glyph glyph-name="lcaron.aalt" horiz-adv-x="845" 
d="M375 1208h-146l-254 443h121l207 -328l207 328h121zM328 143h479v-143h-643v1053h164v-910z" />
    <glyph glyph-name="lslash.aalt" horiz-adv-x="876" 
d="M350 143h477v-143h-641v444l-149 -67l-49 119l198 86v471h164v-402l322 144l45 -119l-367 -164v-369z" />
    <glyph glyph-name="m.aalt" horiz-adv-x="1427" 
d="M1106 0v690q0 23 0.5 47t1.5 49q-11 -29 -21 -53.5t-18 -44.5l-305 -625h-105l-303 621q-9 20 -20 46t-25 58q2 -28 3 -52t1 -44v-692h-151v1053h178l379 -779l362 779h174l7 -1053h-158z" />
    <glyph glyph-name="n.aalt" horiz-adv-x="1175" 
d="M864 1053h148v-1053h-154l-547 778v-778h-147v1053h149l551 -789v789z" />
    <glyph glyph-name="nacute.aalt" horiz-adv-x="1175" 
d="M891 1638l-248 -430h-115l193 430h170zM864 1053h148v-1053h-154l-547 778v-778h-147v1053h149l551 -789v789z" />
    <glyph glyph-name="ncaron.aalt" horiz-adv-x="1175" 
d="M662 1208h-146l-254 443h119l209 -328l207 328h118zM864 1053h148v-1053h-154l-547 778v-778h-147v1053h149l551 -789v789z" />
    <glyph glyph-name="nine.oldstyle" horiz-adv-x="1093" 
d="M545 1083q233 0 365 -185q132 -184 132 -554q0 -345 -151 -538t-412 -191q-215 0 -397 104l51 138q138 -99 338 -101q182 0 296 146q114 147 114 420q0 28 -1 55t-3 53q-46 -111 -147 -177q-100 -67 -228 -67q-186 0 -302 113t-116 322q0 205 126 334q126 128 335 128z
M541 311q115 0 209 87t94 216q0 132 -83 227q-82 93 -214 93q-125 0 -212 -89q-87 -88 -87 -233q0 -150 81 -225q80 -76 212 -76z" />
    <glyph glyph-name="nine.oldstyle.case" horiz-adv-x="1222" 
d="M545 127q191 0 309 144q119 143 119 425q0 56 -6 111q-49 -111 -152.5 -177.5t-257.5 -66.5q-187 0 -305 110q-117 110 -117 316q0 209 131 337t355 128q249 0 388 -183q140 -185 140 -540q0 -374 -154 -567q-154 -195 -434 -195q-267 0 -455 172l91 138
q55 -69 145.5 -110.5t202.5 -41.5zM598 692q135 0 236 83q100 82 100 208q0 131 -86 223t-223 92q-144 0 -230 -85q-88 -85 -88 -228q0 -145 81 -219q82 -74 210 -74z" />
    <glyph glyph-name="ntilde.aalt" horiz-adv-x="1175" 
d="M338 1229h-115q-10 207 35 301t139 94q39 0 79 -24q20 -13 36 -25t29 -23q25 -24 65 -71q31 -41 52 -62q9 -10 20.5 -20t25.5 -20q27 -21 50 -21q90 0 86 262h116q13 -397 -178 -397q-21 -2 -44 6t-40 16q-12 4 -26.5 16.5t-22.5 18.5q-4 3 -10.5 9.5l-13 13t-12.5 13
t-9 9.5t-9 9.5t-15 16.5l-23 23q-17 20 -28.5 35t-19.5 24q-8 8 -18 17t-22 19q-25 18 -43 18q-48 0 -67 -62t-17 -196zM864 1053h148v-1053h-154l-547 778v-778h-147v1053h149l551 -789v789z" />
    <glyph glyph-name="o.aalt" horiz-adv-x="1273" 
d="M637 -25q-252 0 -404 150q-153 149 -153 410q0 250 156 397q155 147 401 147q243 0 401 -146q156 -147 156 -398q0 -263 -151 -411q-152 -149 -406 -149zM637 133q174 0 280 109q105 108 105 293q0 174 -107 281q-107 106 -278 106t-277 -106q-108 -106 -108 -281
q0 -182 108 -292q107 -110 277 -110z" />
    <glyph glyph-name="oacute.aalt" horiz-adv-x="1273" 
d="M938 1638l-248 -430h-112l192 430h168zM637 -25q-252 0 -404 150q-153 149 -153 410q0 250 156 397q155 147 401 147q243 0 401 -146q156 -147 156 -398q0 -263 -151 -411q-152 -149 -406 -149zM637 133q174 0 280 109q105 108 105 293q0 174 -107 281q-107 106 -278 106
t-277 -106q-108 -106 -108 -281q0 -182 108 -292q107 -110 277 -110z" />
    <glyph glyph-name="ocircumflex.aalt" horiz-adv-x="1273" 
d="M637 1536l-207 -328h-119l252 443h146l256 -443h-121zM637 1079q243 0 401 -146q156 -147 156 -398q0 -263 -151 -411q-152 -149 -406 -149q-252 0 -404 150q-153 149 -153 410q0 250 156 397q155 147 401 147zM637 133q174 0 280 109q105 108 105 293q0 174 -107 281
q-107 106 -278 106t-277 -106q-108 -106 -108 -281q0 -182 108 -292q107 -110 277 -110z" />
    <glyph glyph-name="odieresis.aalt" horiz-adv-x="1273" 
d="M349 1379q-24 22 -28.5 54t7 60.5t36.5 48t60 17.5q21 0 40 -8.5t32.5 -22.5t21.5 -33.5t8 -41.5q0 -45 -29.5 -75t-72.5 -30q-45 0 -75 31zM776 1379q-15 15 -23 34.5t-8 39.5t8 40t23 35t35 23t40 8t40 -8t35 -23t22.5 -35t7.5 -40t-7.5 -39.5t-22.5 -34.5t-35 -23
t-40 -8t-40 8t-35 23zM637 -25q-252 0 -404 150q-153 149 -153 410q0 250 156 397q155 147 401 147q243 0 401 -146q156 -147 156 -398q0 -263 -151 -411q-152 -149 -406 -149zM637 133q174 0 280 109q105 108 105 293q0 174 -107 281q-107 106 -278 106t-277 -106
q-108 -106 -108 -281q0 -182 108 -292q107 -110 277 -110z" />
    <glyph glyph-name="ogonek.aalt" horiz-adv-x="567" 
 />
    <glyph glyph-name="ograve.aalt" horiz-adv-x="1273" 
d="M698 1208h-114l-248 430h170zM637 -25q-252 0 -404 150q-153 149 -153 410q0 250 156 397q155 147 401 147q243 0 401 -146q156 -147 156 -398q0 -263 -151 -411q-152 -149 -406 -149zM637 133q174 0 280 109q105 108 105 293q0 174 -107 281q-107 106 -278 106
t-277 -106q-108 -106 -108 -281q0 -182 108 -292q107 -110 277 -110z" />
    <glyph glyph-name="ohungarumlaut.aalt" horiz-adv-x="1273" 
d="M737 1638l-205 -430h-104l143 430h166zM1139 1638l-328 -430h-113l271 430h170zM637 -25q-252 0 -404 150q-153 149 -153 410q0 250 156 397q155 147 401 147q243 0 401 -146q156 -147 156 -398q0 -263 -151 -411q-152 -149 -406 -149zM637 133q174 0 280 109
q105 108 105 293q0 174 -107 281q-107 106 -278 106t-277 -106q-108 -106 -108 -281q0 -182 108 -292q107 -110 277 -110z" />
    <glyph glyph-name="omacron.aalt" horiz-adv-x="1273" 
d="M291 1511h692v-135h-692v135zM637 -25q-252 0 -404 150q-153 149 -153 410q0 250 156 397q155 147 401 147q243 0 401 -146q156 -147 156 -398q0 -263 -151 -411q-152 -149 -406 -149zM637 133q174 0 280 109q105 108 105 293q0 174 -107 281q-107 106 -278 106
t-277 -106q-108 -106 -108 -281q0 -182 108 -292q107 -110 277 -110z" />
    <glyph glyph-name="one.oldstyle" horiz-adv-x="524" 
d="M362 1053v-1053h-163v911h-86v142h249z" />
    <glyph glyph-name="one.oldstyle.case" horiz-adv-x="505" 
d="M346 1421v-1421h-166v1278h-123v143h289z" />
    <glyph glyph-name="otilde.aalt" horiz-adv-x="1273" 
d="M469 1487q-48 0 -66 -62t-16 -196h-117q-8 207 37 301t139 94q39 0 79 -24q39 -25 64 -48l27.5 -30t38.5 -41q17 -22 29.5 -37t21.5 -25q8 -10 19.5 -20t25.5 -20q27 -21 52 -21q90 0 86 262h115q13 -397 -177 -397q-23 -2 -45 6t-39 16q-12 4 -26.5 16.5t-22.5 18.5
q-3 2 -10 8.5t-14.5 14l-14 14l-8.5 8.5q-6 7 -23 26q-9 10 -15 15.5t-9 7.5q-17 20 -28.5 35t-19.5 24q-15 17 -39 36q-24 18 -44 18zM637 -25q-252 0 -404 150q-153 149 -153 410q0 250 156 397q155 147 401 147q243 0 401 -146q156 -147 156 -398q0 -263 -151 -411
q-152 -149 -406 -149zM637 133q174 0 280 109q105 108 105 293q0 174 -107 281q-107 106 -278 106t-277 -106q-108 -106 -108 -281q0 -182 108 -292q107 -110 277 -110z" />
    <glyph glyph-name="p.aalt" horiz-adv-x="1011" 
d="M571 1053q395 0 396 -328q0 -166 -99.5 -252t-277.5 -86h-262v-387h-164v1053h407zM569 514q109 0 170.5 55.5t61.5 149.5q0 97 -60 145.5t-172 48.5h-241v-399h241z" />
    <glyph glyph-name="q.aalt" horiz-adv-x="1282" 
d="M637 -25q-252 0 -404 150q-153 149 -153 410q0 250 156 397q155 147 401 147q243 0 401 -146q156 -147 156 -398q0 -263 -151 -411q-152 -149 -406 -149zM637 133q174 0 280 109q105 108 105 293q0 174 -107 281q-107 106 -278 106t-277 -106q-108 -106 -108 -281
q0 -182 108 -292q107 -110 277 -110zM1094 -254h-600v125h600v-125z" />
    <glyph glyph-name="r.aalt" horiz-adv-x="1097" 
d="M823 0l-254 426h-243v-426h-162v1053h442q180 0 278.5 -75t98.5 -226q0 -124 -65.5 -206.5t-186.5 -109.5l281 -436h-189zM326 913v-362h276q99 0 157 49t58 137t-57.5 132t-157.5 44h-276z" />
    <glyph glyph-name="racute.aalt" horiz-adv-x="1097" 
d="M856 1638l-250 -430h-112l192 430h170zM823 0l-254 426h-243v-426h-162v1053h442q180 0 278.5 -75t98.5 -226q0 -124 -65.5 -206.5t-186.5 -109.5l281 -436h-189zM326 913v-362h276q99 0 157 49t58 137t-57.5 132t-157.5 44h-276z" />
    <glyph glyph-name="rcaron.aalt" horiz-adv-x="1097" 
d="M627 1208h-148l-252 443h119l207 -328l209 328h119zM823 0l-254 426h-243v-426h-162v1053h442q180 0 278.5 -75t98.5 -226q0 -124 -65.5 -206.5t-186.5 -109.5l281 -436h-189zM326 913v-362h276q99 0 157 49t58 137t-57.5 132t-157.5 44h-276z" />
    <glyph glyph-name="s.aalt" horiz-adv-x="897" 
d="M438 -31q-217 0 -372 92l53 140q125 -92 307 -92q50 0 91 11.5t70.5 33.5t45.5 54t16 73q-4 55 -26.5 85t-70.5 53q-17 8 -32 14t-28 11q-25 8 -74 21q-315 82 -316 334q0 66 23.5 119t69 90t112 57t152.5 20q204 0 352 -86l-66 -133q-115 76 -278 76q-94 0 -146.5 -38
t-52.5 -105q0 -40 13 -69.5t39.5 -52t65.5 -39.5t91 -32q164 -45 252 -117q88 -73 88 -208q0 -156 -104 -234q-105 -78 -275 -78z" />
    <glyph glyph-name="sacute.aalt" horiz-adv-x="897" 
d="M748 1638l-248 -430h-115l193 430h170zM438 -31q-217 0 -372 92l53 140q125 -92 307 -92q50 0 91 11.5t70.5 33.5t45.5 54t16 73q-4 55 -26.5 85t-70.5 53q-17 8 -32 14t-28 11q-25 8 -74 21q-315 82 -316 334q0 66 23.5 119t69 90t112 57t152.5 20q204 0 352 -86
l-66 -133q-115 76 -278 76q-94 0 -146.5 -38t-52.5 -105q0 -40 13 -69.5t39.5 -52t65.5 -39.5t91 -32q164 -45 252 -117q88 -73 88 -208q0 -156 -104 -234q-105 -78 -275 -78z" />
    <glyph glyph-name="scaron.aalt" horiz-adv-x="897" 
d="M518 1208h-145l-254 443h121l206 -328l207 328h119zM477 606q164 -45 252 -117q88 -73 88 -208q0 -156 -104 -234q-105 -78 -275 -78q-217 0 -372 92l53 140q125 -92 307 -92q50 0 91 11.5t70.5 33.5t45.5 54t16 73q-4 55 -26.5 85t-70.5 53q-17 8 -32 14t-28 11
q-25 8 -74 21q-315 82 -316 334q0 66 23.5 119t69 90t112 57t152.5 20q204 0 352 -86l-66 -133q-115 76 -278 76q-94 0 -146.5 -38t-52.5 -105q0 -40 13 -69.5t39.5 -52t65.5 -39.5t91 -32z" />
    <glyph glyph-name="seven.oldstyle" horiz-adv-x="882" 
d="M12 1055h828l-406 -1356h-182l385 1206h-625v150z" />
    <glyph glyph-name="seven.oldstyle.case" horiz-adv-x="985" 
d="M27 1421h874l-448 -1421h-187l422 1270h-661v151z" />
    <glyph glyph-name="six.oldstyle" horiz-adv-x="1099" 
d="M649 868q175 0 287 -110q111 -111 111 -320q0 -208 -129 -339q-130 -130 -332 -130q-242 0 -372 181.5t-130 545.5q0 358 152 558q151 199 413 198q211 0 387 -104l-67 -131q-132 93 -316 94q-180 0 -291 -152q-112 -152 -112 -440q0 -26 1 -52.5t3 -54.5q50 116 154 186
q103 70 241 70zM582 121q127 0 214 89t87 232q0 150 -78 226q-78 75 -203 75q-120 0 -221 -87q-100 -87 -100 -216q0 -133 84 -226t217 -93z" />
    <glyph glyph-name="six.oldstyle.case" horiz-adv-x="1220" 
d="M713 1296q-189 0 -308 -149q-118 -149 -118 -432q0 -23 1 -46t3 -48q47 115 152.5 182t271.5 67q198 0 317 -110q117 -111 117 -320q0 -210 -136 -340q-137 -131 -370 -131q-127 0 -226 45.5t-167 136t-103.5 227t-35.5 318.5q0 359 160 558q159 200 436 200
q226 0 389 -154l-97 -129q-121 127 -286 125zM676 737q-155 0 -252 -82q-98 -83 -98 -215q0 -128 89 -222q89 -93 228 -93q147 0 240 87q92 87 92 232q0 72 -21 127t-60 92t-94 55.5t-124 18.5z" />
    <glyph glyph-name="t.aalt" horiz-adv-x="983" 
d="M934 1053v-142h-361v-911h-163v911h-361v142h885z" />
    <glyph glyph-name="tcaron.aalt" horiz-adv-x="983" 
d="M563 1208h-145l-254 443h121l207 -328l206 328h121zM934 1053v-142h-361v-911h-163v911h-361v142h885z" />
    <glyph glyph-name="three.oldstyle" horiz-adv-x="956" 
d="M567 342q139 -28 222 -119t83 -233q0 -182 -124 -279q-124 -96 -318 -96q-136 0 -237 36q-100 36 -201 105l69 127q156 -123 349 -123q140 0 222 68q81 67 81 184q0 127 -97 196q-98 68 -245 68h-125v123h98q155 0 252 77q96 77 96 216q0 121 -75 184q-77 62 -197 62
q-196 0 -342 -123l-70 113q37 33 84 61.5t102.5 49t118 32.5t131.5 12q182 0 297 -88t115 -270q0 -139 -78 -240q-79 -103 -211 -143z" />
    <glyph glyph-name="three.oldstyle.case" horiz-adv-x="1050" 
d="M709 735q132 -33 215 -127q84 -94 84 -243q0 -196 -131 -297q-133 -101 -345 -101q-276 0 -485 185l82 131q101 -84 186 -120q86 -36 205 -36q133 0 221 67q88 66 88 197q0 141 -96 208q-95 67 -246 67h-100l2 125h94q128 0 219 74q89 74 89 202q0 115 -72 172t-195 57
q-205 0 -368 -145l-78 123q195 180 481 180q82 0 152.5 -19t129.5 -61t93.5 -112t34.5 -164q0 -131 -71 -226q-73 -97 -189 -137z" />
    <glyph glyph-name="three.salt" horiz-adv-x="1044" 
d="M575 815q203 -11 309 -121q105 -112 105 -282q0 -226 -133 -335q-134 -110 -350 -110q-278 0 -469 185l76 137q90 -86 178 -124t194 -38q140 0 235 77q93 77 93 230q0 150 -107.5 228.5t-326.5 64.5v78l383 467h-662v149h875v-131z" />
    <glyph glyph-name="tildecomb.aalt" 
d="M-578 1393q-85 0 -81 -256h-115q-17 399 170 399q19 0 39.5 -6.5t39.5 -17t35.5 -23t29.5 -25.5q25 -25 63 -69q17 -22 30.5 -37t21.5 -25q17 -20 46 -40q28 -21 55 -21q91 0 86 260h115q16 -400 -178 -402q-55 0 -104 37t-109 103q-1 5 -10 14q-17 19 -29.5 32.5
t-20.5 23.5q-18 19 -40 36q-25 17 -44 17z" />
    <glyph glyph-name="two.oldstyle" horiz-adv-x="960" 
d="M307 137h635v-137h-872l2 131q124 55 227 115.5t190 132.5t135 152t48 165q0 70 -23.5 120t-63.5 76t-81 37t-90 11q-208 0 -357 -135l-73 123q200 156 460 155q82 0 151 -19t126 -60t90 -112t33 -165q0 -104 -53 -202t-138 -172t-171.5 -127.5t-174.5 -88.5z" />
    <glyph glyph-name="two.oldstyle.case" horiz-adv-x="1056" 
d="M307 150h727v-150h-942v137l289 287q87 84 152.5 160t111.5 148q92 143 92 286q0 128 -75 201q-76 73 -195 73q-186 0 -371 -149l-84 127q218 180 480 180q183 0 304 -107q119 -108 119 -303q0 -99 -30.5 -193t-90.5 -182q-31 -44 -61 -82.5t-59 -72.5q-30 -34 -66.5 -71
t-79.5 -79z" />
    <glyph glyph-name="u.aalt" horiz-adv-x="1173" 
d="M588 -25q-200 0 -319 120q-119 121 -119 329v629h163v-621q0 -138 76 -218q77 -81 199 -81q125 0 199 80q73 79 73 219v621h166v-629q0 -213 -118 -331t-320 -118z" />
    <glyph glyph-name="uacute.aalt" horiz-adv-x="1173" 
d="M889 1638l-248 -430h-115l193 430h170zM588 -25q-200 0 -319 120q-119 121 -119 329v629h163v-621q0 -138 76 -218q77 -81 199 -81q125 0 199 80q73 79 73 219v621h166v-629q0 -213 -118 -331t-320 -118z" />
    <glyph glyph-name="ucircumflex.aalt" horiz-adv-x="1173" 
d="M588 1536l-207 -328h-121l254 443h145l256 -443h-120zM860 1053h166v-629q0 -212 -119 -331q-118 -118 -319 -118q-200 0 -319 120q-119 121 -119 329v629h163v-621q0 -138 76 -218q77 -81 199 -81q125 0 199 80q73 79 73 219v621z" />
    <glyph glyph-name="udieresis.aalt" horiz-adv-x="1173" 
d="M299 1379q-25 22 -29.5 54t7.5 60.5t37.5 48t60.5 17.5q21 0 40 -8.5t32.5 -22.5t21.5 -33.5t8 -41.5q0 -45 -29.5 -75t-72.5 -30q-45 0 -76 31zM727 1379q-15 15 -23 34.5t-8 39.5t8 40t23 35t35 23t40 8t40 -8t35 -23t22.5 -35t7.5 -40t-7.5 -39.5t-22.5 -34.5t-35 -23
t-40 -8t-40 8t-35 23zM588 -25q-200 0 -319 120q-119 121 -119 329v629h163v-621q0 -138 76 -218q77 -81 199 -81q125 0 199 80q73 79 73 219v621h166v-629q0 -213 -118 -331t-320 -118z" />
    <glyph glyph-name="ugrave.aalt" horiz-adv-x="1173" 
d="M649 1208h-114l-248 430h170zM588 -25q-200 0 -319 120q-119 121 -119 329v629h163v-621q0 -138 76 -218q77 -81 199 -81q125 0 199 80q73 79 73 219v621h166v-629q0 -213 -118 -331t-320 -118z" />
    <glyph glyph-name="uhungarumlaut.aalt" horiz-adv-x="1173" 
d="M686 1638l-203 -430h-104l143 430h164zM1090 1638l-328 -430h-115l273 430h170zM588 -25q-200 0 -319 120q-119 121 -119 329v629h163v-621q0 -138 76 -218q77 -81 199 -81q125 0 199 80q73 79 73 219v621h166v-629q0 -213 -118 -331t-320 -118z" />
    <glyph glyph-name="umacron.aalt" horiz-adv-x="1173" 
d="M242 1511h692v-135h-692v135zM588 -25q-200 0 -319 120q-119 121 -119 329v629h163v-621q0 -138 76 -218q77 -81 199 -81q125 0 199 80q73 79 73 219v621h166v-629q0 -213 -118 -331t-320 -118z" />
    <glyph glyph-name="uni0122.c2sc" horiz-adv-x="1173" 
d="M596 596h465v-543q-216 -76 -436 -76q-252 0 -398 146q-147 146 -147 403q0 255 154 403q152 148 399 148q259 0 422 -143l-99 -125q-122 109 -319 109q-173 0 -280 -106q-109 -106 -109 -286q0 -182 105 -286q104 -105 280 -105q153 0 264 43v285h-301v133zM604 -121
q69 0 107.5 -50.5t38.5 -143.5q0 -236 -226 -338l-57 86q78 35 121 84t55 127q-22 -7 -47 -9q-48 0 -80.5 32t-32.5 89q0 55 35 89t86 34z" />
    <glyph glyph-name="uni0122.salt" horiz-adv-x="1482" 
d="M727 795h662v-74q0 -189 -51.5 -334.5t-142.5 -236.5t-210.5 -137t-265.5 -46q-289 0 -469 200t-180 544q0 339 194 541q194 200 498 200q165 0 302 -55.5t230 -155.5l-112 -119q-162 168 -422 168q-230 0 -372 -157q-144 -157 -144 -422q0 -263 134 -421
q133 -157 345 -157q215 0 349 131t147 387h-492v144zM741 -121q69 0 107.5 -50.5t38.5 -143.5q0 -236 -223 -338l-60 86q78 35 121 84t55 127q-19 -7 -47 -9q-48 0 -79 32t-31 89q0 55 33.5 89t84.5 34z" />
    <glyph glyph-name="uni0123.salt" horiz-adv-x="1140" 
d="M602 1180q-69 0 -106 49.5t-37 140.5q0 115 55 202.5t170 135.5l55 -86q-81 -37 -124.5 -88.5t-53.5 -136.5q28 14 60 14q43 0 73.5 -28.5t30.5 -79.5q0 -28 -9.5 -51t-26.5 -39t-39 -24.5t-48 -8.5zM850 973h160v-946q0 -132 -30 -232t-78 -162t-115 -99
q-68 -38 -133.5 -52t-141.5 -14q-250 0 -397 165l71 121q117 -150 318 -149q70 0 128 19.5t110 62.5q51 43 79.5 123t28.5 194v170q-127 -205 -363 -205q-189 0 -305 131t-116 387q0 251 127 384q126 133 317 133q228 0 340 -187v156zM526 115q224 0 324 237v293
q-42 105 -120 161t-183 56q-133 0 -227 -94q-95 -95 -95 -281q0 -188 84 -280t217 -92z" />
    <glyph glyph-name="uni0136.swash" horiz-adv-x="1699" 
d="M1161 897l496 -897h-199l-422 758l-241 -275v-483h-168v1276h-49q-428 0 -428 -299q0 -136 79 -211.5t228 -75.5v-141q-120 0 -209 35.5t-142 98.5q-106 126 -106 296q0 93 28.5 168.5t92.5 139.5q63 63 177.5 98.5t274.5 35.5h54h168v-714l630 714h199zM1067 -121
q69 0 107 -50.5t38 -143.5q0 -236 -223 -338l-59 86q81 35 122.5 84t53.5 127q-19 -8 -45 -9q-48 0 -80.5 32t-32.5 89q0 27 9.5 50t25.5 39t38 25t46 9z" />
    <glyph glyph-name="uni0137.aalt" horiz-adv-x="1083" 
d="M649 670l379 -670h-192l-308 539l-190 -205v-334h-164v1053h164v-521l477 521h186zM539 -121q69 0 107 -50.5t38 -143.5q0 -236 -223 -338l-60 86q78 35 121 84t56 127q-19 -8 -48 -9q-48 0 -79 32t-31 89q0 55 34 89t85 34z" />
    <glyph glyph-name="uni013B.swash" horiz-adv-x="1511" 
d="M872 152h621v-152h-786v1276h-129q-428 0 -428 -299q0 -136 79 -211.5t228 -75.5v-141q-120 0 -209 35.5t-142 98.5q-106 126 -106 296q0 93 28.5 168.5t92.5 139.5q63 63 177.5 98.5t274.5 35.5h134h165v-1269zM1133 -121q69 0 107 -50.5t38 -143.5q0 -236 -223 -338
l-60 86q78 35 121 84t55 127q-19 -7 -47 -9q-48 0 -80 32t-32 89q0 55 35 89t86 34z" />
    <glyph glyph-name="uni013C.aalt" horiz-adv-x="845" 
d="M328 143h479v-143h-643v1053h164v-910zM496 -121q69 0 107 -50.5t38 -143.5q0 -236 -225 -338l-58 86q78 35 121 84t56 127q-22 -8 -48 -9q-48 0 -80 32t-32 89q0 55 35 89t86 34z" />
    <glyph glyph-name="uni0145.swash" horiz-adv-x="1871" 
d="M1538 1421h156v-1421h-162l-725 1116v-1116h-156v1276h-73q-428 0 -428 -299q0 -136 79 -211.5t228 -75.5v-141q-120 0 -209 35.5t-142 98.5q-106 126 -106 296q0 93 28.5 168.5t92.5 139.5q63 63 177.5 98.5t274.5 35.5h78h123h35l729 -1124v1124zM1174 -121
q69 0 107 -50.5t38 -143.5q0 -236 -225 -338l-58 86q78 35 121 84t55 127q-22 -7 -47 -9q-48 0 -80 32t-32 89q0 55 35 89t86 34z" />
    <glyph glyph-name="uni0146.aalt" horiz-adv-x="1175" 
d="M864 1053h148v-1053h-154l-547 778v-778h-147v1053h149l551 -789v789zM588 -121q69 0 107 -50.5t38 -143.5q0 -236 -223 -338l-59 86q78 35 120.5 84t55.5 127q-19 -8 -45 -9q-49 0 -81 32t-32 89q0 55 34 89t85 34z" />
    <glyph glyph-name="uni0156.swash" horiz-adv-x="1785" 
d="M1298 612l379 -612h-198l-359 604h-309v-604h-166v1276h-67q-428 0 -428 -299q0 -136 79 -211.5t228 -75.5v-141q-120 0 -209 35.5t-142 98.5q-106 126 -106 296q0 93 28.5 168.5t92.5 139.5q63 63 177.5 98.5t274.5 35.5h72h551q105 0 188 -25.5t140.5 -75.5
t87.5 -124.5t30 -173.5q0 -164 -91 -273q-92 -110 -253 -137zM811 1272v-529h373q65 0 117 18t88.5 53t56.5 85.5t20 116.5q0 129 -76.5 192.5t-207.5 63.5h-371zM1120 -121q69 0 107.5 -50.5t38.5 -143.5q0 -236 -226 -338l-57 86q78 35 121 84t55 127q-22 -7 -47 -9
q-48 0 -80.5 32t-32.5 89q0 55 35 89t86 34z" />
    <glyph glyph-name="uni0157.aalt" horiz-adv-x="1097" 
d="M731 436l281 -436h-189l-254 426h-243v-426h-162v1053h442q180 0 278.5 -75t98.5 -226q0 -124 -65.5 -206.5t-186.5 -109.5zM326 913v-362h276q99 0 157 49t58 137t-57.5 132t-157.5 44h-276zM553 -121q69 0 107 -50.5t38 -143.5q0 -236 -223 -338l-59 86q78 35 121 84
t55 127q-19 -7 -47 -9q-48 0 -80.5 32t-32.5 89q0 55 35 89t86 34z" />
    <glyph glyph-name="uni0162.c2sc" horiz-adv-x="905" 
d="M573 0h-63l-88 -197q56 29 119 29q93 0 145.5 -52t52.5 -149q0 -115 -78 -175q-79 -60 -206 -60q-142 0 -240 72l43 96q27 -25 78 -45.5t115 -20.5q78 0 122.5 35t44.5 98q0 48 -28 78.5t-82 30.5q-83 0 -133 -53l-90 34l118 295l7 -2v897h-361v142h885v-142h-361v-911z
" />
    <glyph glyph-name="uni0162.swash" horiz-adv-x="1398" 
d="M963 0h-33l-80 -176q56 27 119 26q93 0 146.5 -50.5t53.5 -147.5q0 -117 -79 -177q-80 -59 -207 -59q-142 0 -240 70l43 96q27 -23 78 -44t117 -21q76 0 122 34.5t46 100.5q0 45 -29.5 75.5t-83.5 30.5q-83 0 -133 -53l-90 35l104 260h-22v1272h-217q-428 0 -428 -307
q0 -138 80 -214.5t233 -76.5v-142q-121 0 -211.5 36t-144.5 99t-80.5 138t-26.5 162q0 94 28.5 172t92.5 144q63 66 177.5 102t274.5 36h799v-149h-409v-1272z" />
    <glyph glyph-name="uni01CD.swash" horiz-adv-x="1622" 
d="M1057 1573h-146l-264 448h133l205 -313l207 313h131zM1403 0l-115 344h-592l-110 -344h-166l426 1284h-242q-420 0 -420 -289q0 -128 76.5 -195t220.5 -69l-39 -129q-105 4 -184 38.5t-127 91.5t-70 122.5t-22 138.5q0 87 28.5 159.5t91.5 135.5t179 98t276 35h277h196
l492 -1421h-176zM739 483h502l-256 762z" />
    <glyph glyph-name="uni01CE.aalt" horiz-adv-x="1150" 
d="M639 1206h-145l-254 443h120l207 -328l207 328h121zM928 0l-97 238h-528l-90 -238h-158l414 1053h193l432 -1053h-166zM346 354h440l-225 566z" />
    </font>
</defs>
</svg>
