<?xml version="1.0" standalone="no"?>
<!DOCTYPE svg PUBLIC "-//W3C//DTD SVG 1.1//EN" "http://www.w3.org/Graphics/SVG/1.1/DTD/svg11.dtd" >
<svg xmlns="http://www.w3.org/2000/svg" xmlns:xlink="http://www.w3.org/1999/xlink" version="1.1">
<metadata>
Created by FontForge 20230101 at Mon Feb 10 11:37:46 2020
 By Pablo Velazquez
Created by Fabian De Smet
</metadata>
<defs>
<font id="ButlerStencil-ExtraBold" horiz-adv-x="659" >
  <font-face 
    font-family="Butler Stencil"
    font-weight="800"
    font-stretch="normal"
    units-per-em="1000"
    panose-1="2 0 5 3 9 0 0 2 0 3"
    ascent="735"
    descent="-265"
    x-height="462"
    cap-height="704"
    bbox="-147 -340 1168 983"
    underline-thickness="50"
    underline-position="-100"
    unicode-range="U+0020-FB02"
  />
<missing-glyph horiz-adv-x="507" 
d="M290 352l154 -237v476zM104 641l149 -230l149 230h-298zM-1 704h508v-704h-508v704zM62 115l153 237l-153 239v-476zM402 63l-149 232l-149 -232h298z" />
    <glyph glyph-name="f_i" unicode="fi" horiz-adv-x="618" 
d="M429 698q16 4 -3 16q-21 13 -57 17v13q50 -5 92.5 -24t57.5 -46q11 -19 11 -44.5t-11 -45.5q-16 -28 -47.5 -36.5t-59.5 7.5q-29 17 -37 48t8 60q15 27 46 35zM540 113q0 -48 8 -73.5t33 -31.5v-8h-227v8q26 7 32.5 32t6.5 73v255q0 81 -43 81h-119v-336q0 -47 8.5 -72.5
t32.5 -32.5v-8h-227v8q26 7 32.5 32t6.5 73v336h-64l-1 13h65v11q0 267 253 272v-14q-49 -2 -77.5 -61.5t-28.5 -183.5v-24h119q32 0 79.5 4t78.5 8l32 3v-364z" />
    <glyph glyph-name="f_l" unicode="fl" horiz-adv-x="598" 
d="M583 12v-12h-228v12q26 7 32.5 30.5t6.5 70.5v519q0 55 -35 68q-20 6 -40 7.5t-38 -11.5t-31.5 -37t-21.5 -69.5t-8 -107.5v-20h107l-1 -13h-106v-336q0 -47 8 -70.5t33 -30.5v-12h-228v12q26 8 33 31.5t7 69.5v336h-65l-1 13h66v80q0 55 16.5 97t43.5 63.5t55.5 32
t57.5 10.5q71 0 113 -32l183 33v-633q0 -47 8 -71t33 -30z" />
    <glyph glyph-name=".notdef" horiz-adv-x="507" 
d="M290 352l154 -237v476zM104 641l149 -230l149 230h-298zM-1 704h508v-704h-508v704zM62 115l153 237l-153 239v-476zM402 63l-149 232l-149 -232h298z" />
    <glyph glyph-name=".null" horiz-adv-x="0" 
 />
    <glyph glyph-name="nonmarkingreturn" horiz-adv-x="333" 
 />
    <glyph glyph-name="space" unicode=" " horiz-adv-x="272" 
 />
    <glyph glyph-name="exclam" unicode="!" horiz-adv-x="356" 
d="M226 242h-90l-34 503h162zM267 77q0 36 -25.5 61t-60.5 25t-60.5 -25t-25.5 -61t25.5 -61t60.5 -25t60.5 25t25.5 61z" />
    <glyph glyph-name="quotedbl" unicode="&#x22;" horiz-adv-x="558" 
d="M353 376l-32 328h149l-31 -328h-86zM134 376l-33 328h149l-31 -328h-85z" />
    <glyph glyph-name="numbersign" unicode="#" horiz-adv-x="730" 
d="M456 460h-136l-33 -144h135zM692 460h-133l-34 -144h104v-104h-127l-49 -212h-104l49 212h-136l-49 -212h-103l49 212h-115v104h139l33 144h-109v104h133l43 182h103l-42 -182h135l43 182h104l-43 -182h109v-104z" />
    <glyph glyph-name="dollar" unicode="$" horiz-adv-x="601" 
d="M526 498q-52 166 -173 199v13q56 -4 101 -15t62 -20l18 -9v-168h-8zM301 4q63 0 90.5 39.5t10.5 94t-72 94.5l-29 19v-247zM288 480v220q-53 0 -80.5 -34.5t-11.5 -85.5t78 -91zM428 387q101 -66 129 -148.5t-27 -165.5q-66 -82 -229 -82v-122h-13v390l-112 70
q-108 68 -135.5 147t33.5 161q2 3 6.5 8t22.5 18.5t40 23.5t61 18t84 8v122h13v-364zM50 240q10 -36 30 -76t62.5 -88.5t93.5 -67.5v-13q-61 5 -110 18t-67 23l-18 11v193h9z" />
    <glyph glyph-name="percent" unicode="%" horiz-adv-x="1056" 
d="M245 494q0 -104 9 -133.5t42 -29.5q34 0 42 29t8 134q0 106 -9 138t-41 32q-33 0 -42 -32t-9 -138zM449 494q0 -80 -37 -128t-116 -48q-80 0 -117.5 48.5t-37.5 127.5q0 81 37.5 132t117.5 51q79 0 116 -51t37 -132zM776 36q34 0 42 28.5t8 134.5q0 105 -9 137t-41 32
q-33 0 -42 -31.5t-9 -137.5q0 -104 9 -133.5t42 -29.5zM776 381q79 0 116.5 -50.5t37.5 -131.5q0 -80 -37 -128t-117 -48t-117.5 48t-37.5 128q0 81 37.5 131.5t117.5 50.5zM758 704h82l-516 -704h-82z" />
    <glyph glyph-name="ampersand" unicode="&#x26;" horiz-adv-x="824" 
d="M595 287q0 15 -21 9q-16 -4 -30 -19l-7 11q40 59 100 75q47 13 80 -13q23 -20 25.5 -50t-17.5 -54q-20 -23 -50.5 -25.5t-54.5 17.5t-25 49zM686 79q62 0 70 50h14q0 -62 -36.5 -99t-97.5 -39q-99 0 -135 42q-16 13 -59 77q-11 -34 -41 -62t-69.5 -42t-82 -15.5t-83 18
t-66.5 58.5q-100 149 116 285l7 -11q-20 -20 -27 -52t4.5 -74.5t42.5 -83.5q24 -31 59.5 -48t72.5 -9t58 48l-223 321q-49 66 -49 134t43.5 113t115.5 51q98 8 143 -61l-13 -9q-36 45 -92 35q-25 -4 -43.5 -26.5t-21 -56t23.5 -73.5q272 -406 281 -418q38 -53 88 -53z" />
    <glyph glyph-name="quotesingle" unicode="'" horiz-adv-x="294" 
d="M107 376l-32 328h149l-31 -328h-86z" />
    <glyph glyph-name="parenleft" unicode="(" horiz-adv-x="352" 
d="M338 745l14 -13q-125 -147 -125 -481q0 -333 123 -444l-14 -13q-54 31 -97.5 70t-69.5 73.5t-45 79.5t-27.5 72.5t-13 70t-4.5 54v40.5v41t4.5 54.5t13 71t27.5 75t45.5 84.5t70 82t98.5 83z" />
    <glyph glyph-name="parenright" unicode=")" horiz-adv-x="349" 
d="M-2 732l14 13q55 -38 98.5 -83t70 -82t45.5 -84.5t27.5 -75t13 -71t4.5 -54.5v-41v-40.5t-4.5 -54t-13 -70t-27.5 -72.5t-45 -79.5t-69.5 -73.5t-97.5 -70l-14 13q123 111 123 444q0 334 -125 481z" />
    <glyph glyph-name="asterisk" unicode="*" horiz-adv-x="563" 
d="M492 505l-179 -18l134 -120l-97 -70l-73 165l-72 -165l-97 70l134 120l-179 18l38 114l154 -91l-38 176h120l-38 -176l156 91z" />
    <glyph glyph-name="plus" unicode="+" horiz-adv-x="715" 
d="M657 366v-113h-244v-253h-113v253h-244v113h244v253h113v-253h244z" />
    <glyph glyph-name="comma" unicode="," horiz-adv-x="287" 
d="M104 -132l-9 12q26 20 43 48t17 44.5t-6 20.5q-41 6 -63 26q-28 27 -28 66t27 67q27 27 66 27t66 -27q26 -26 25 -67.5t-15 -74t-34 -63.5q-31 -47 -89 -79z" />
    <glyph glyph-name="hyphen" unicode="-" horiz-adv-x="444" 
d="M379 196h-315v116h315v-116z" />
    <glyph glyph-name="period" unicode="." horiz-adv-x="299" 
d="M153 -5q-39 0 -66.5 27t-27.5 66t27.5 67t66.5 28q38 0 65.5 -28t27.5 -67t-27.5 -66t-65.5 -27z" />
    <glyph glyph-name="slash" unicode="/" horiz-adv-x="447" 
d="M430 725l-308 -746h-108l308 746h108z" />
    <glyph glyph-name="zero" unicode="0" horiz-adv-x="663" 
d="M357 712q96 -6 159 -58.5t89 -130t26 -177.5q0 -154 -66 -249.5t-208 -104.5v15q46 11 61 81.5t15 257.5t-15.5 263t-60.5 88v15zM230 346q0 -187 15 -257.5t60 -81.5v-15q-73 5 -126.5 34t-85 77.5t-46.5 108.5t-15 134t15 136t46 113t85 81.5t127 35.5v-15
q-46 -12 -60.5 -86.5t-14.5 -264.5z" />
    <glyph glyph-name="one" unicode="1" horiz-adv-x="419" 
d="M355 12v-12h-281v12q70 0 70 78v434q0 26 -10 37.5t-24 10t-27.5 -7t-23.5 -12.5l-10 -6l-8 12l192 155h63v-623q0 -44 15 -61t44 -17z" />
    <glyph glyph-name="two" unicode="2" horiz-adv-x="497" 
d="M255 290l-13 10q89 139 40 222q-31 53 -98 58q-65 4 -103 -41q-19 -23 -23 -56l-14 -2q-7 55 9.5 101t48 73.5t67.5 42.5t70 15q74 0 127.5 -52t53.5 -121q0 -22 -8 -45t-16 -39.5t-30 -43.5t-31.5 -38t-40.5 -43.5t-39 -40.5zM455 199h12l-54 -199h-385l102 142h229
q28 0 54 14.5t42 42.5z" />
    <glyph glyph-name="three" unicode="3" horiz-adv-x="536" 
d="M144 35q-9 -2 2 -12q15 -15 56 -19v-13q-97 6 -151 67q-13 15 -16 38.5t7 44.5q13 31 45 42.5t61 -2.5q31 -15 42.5 -46t-2.5 -61t-44 -39zM332 390q72 -17 115.5 -65t45.5 -102q1 -50 -12.5 -90t-37 -65t-56 -42t-65 -24.5t-68.5 -10.5v14q49 11 68 61.5t9 119.5
q-24 151 -173 163v13q69 17 99 62t21.5 89t-40.5 68q-22 17 -56 19.5t-65 -13.5t-42 -49l-12 1q0 43 17.5 77.5t45 54.5t58 30.5t59.5 10.5q49 0 90.5 -21t64.5 -56t28.5 -76.5t-19 -86.5t-75.5 -82z" />
    <glyph glyph-name="four" unicode="4" horiz-adv-x="550" 
d="M518 196h-94v-55q0 -60 8.5 -89t20 -34t36.5 -5v-13h-292v13q25 0 36.5 5.5t20 33t8.5 84.5v60h-232v17l64 92l12 -7q-10 -15 -6.5 -22t8.5 -8.5t16 -1.5h138v281l116 166l46 -9v-438h94v-70z" />
    <glyph glyph-name="five" unicode="5" horiz-adv-x="547" 
d="M77 40q-16 15 -23.5 38t-3.5 47q8 33 38 51t64 10q33 -8 51 -37t11 -63q-7 -35 -35 -50q-12 -7 0 -18q11 -9 37 -12v-14q-86 5 -139 48zM82 439q97 19 169 10.5t121.5 -30t79 -57.5t42 -73t11.5 -76q-4 -103 -70 -159t-167 -62v14q67 9 96 60.5t12 111.5q-5 17 -15.5 34
t-33.5 40t-57.5 35.5t-88.5 20.5t-125 -4zM491 704l-46 -149h-341l28 149h359z" />
    <glyph glyph-name="six" unicode="6" horiz-adv-x="597" 
d="M367 438q193 0 193 -220q0 -105 -62 -162.5t-165 -63.5v14q38 6 49 46t11 146q0 198 -80 198q-29 0 -55.5 -17.5t-35.5 -54.5q3 -162 13.5 -232t45.5 -86v-14q-117 10 -178 95.5t-61 230.5q0 172 78 277.5t204 116.5v-14q-101 -31 -102 -342q13 39 55 60.5t90 21.5z
M385 529q-29 18 -36.5 52t10.5 63q19 31 50 35q7 1 -3 8.5t-30 10.5v14q36 -4 66 -19.5t42 -28t18 -22.5q12 -18 11.5 -42.5t-13.5 -44.5q-18 -30 -51.5 -37.5t-63.5 11.5z" />
    <glyph glyph-name="seven" unicode="7" horiz-adv-x="563" 
d="M172 0q18 271 233 503h14q-80 -188 -80 -503h-167zM443 555h-284q-28 0 -56.5 -15t-43.5 -43h-13l33 207h451z" />
    <glyph glyph-name="eight" unicode="8" horiz-adv-x="570" 
d="M370 430q79 -36 123.5 -97.5t44.5 -127.5q0 -100 -56.5 -154t-165.5 -59v13q37 8 60 36.5t25 70.5q3 46 -30 87.5t-85 70.5q-3 2 -40 22t-41 23q-49 -36 -49 -147q0 -71 28 -113t80 -50v-13q-227 8 -227 169q0 64 45 109.5t96 59.5q-123 80 -123 193q0 80 54.5 131
t146.5 58v-14q-28 -8 -45.5 -33t-20.5 -60q-2 -30 11 -56t40 -46.5t52 -34t62 -30.5q42 25 42 122q0 121 -89 138v14q88 -5 135.5 -43.5t47.5 -102.5q0 -51 -37.5 -88t-83.5 -48z" />
    <glyph glyph-name="nine" unicode="9" horiz-adv-x="586" 
d="M183 26q-8 -1 4 -9q11 -8 33 -11v-13q-39 3 -70 19t-42 28t-18 24q-11 17 -10.5 42t12.5 44q19 30 52.5 38t63.5 -11q29 -18 36.5 -52t-11.5 -63q-20 -32 -50 -36zM316 712q120 -9 179.5 -94t59.5 -231q0 -187 -65 -286.5t-218 -108.5v14q19 2 33 7.5t24.5 18t18 24.5
t12.5 37t8 45.5t4.5 59.5t2 69.5t0.5 85.5q-15 -41 -55.5 -63.5t-82.5 -22.5q-200 0 -200 220q0 105 61.5 162t165.5 63v-14q-35 -8 -47.5 -49t-12.5 -142q0 -198 76 -198q33 0 59.5 19.5t35.5 57.5q-2 156 -13.5 226.5t-45.5 85.5v14z" />
    <glyph glyph-name="colon" unicode=":" horiz-adv-x="292" 
d="M149 287q-40 0 -67.5 27.5t-27.5 66.5t27.5 67t67.5 28q38 0 66 -28t28 -67t-28 -66.5t-66 -27.5zM149 -11q-40 0 -67.5 27.5t-27.5 67.5q0 39 27.5 67t67.5 28q38 0 66 -28t28 -67q0 -40 -27.5 -67.5t-66.5 -27.5z" />
    <glyph glyph-name="semicolon" unicode=";" horiz-adv-x="290" 
d="M149 288q-40 0 -67.5 27.5t-27.5 67.5q0 39 27.5 67t67.5 28q39 0 66.5 -28t27.5 -67q0 -40 -27.5 -67.5t-66.5 -27.5zM214 151q26 -26 26 -67.5t-13.5 -74t-33.5 -62.5q-29 -42 -92 -78l-9 12q27 18 44 46t17 44.5t-6 20.5q-41 5 -63 27q-28 27 -28.5 65.5t27.5 66.5
q27 28 65.5 27.5t65.5 -27.5z" />
    <glyph glyph-name="less" unicode="&#x3c;" horiz-adv-x="600" 
d="M223 266l330 -169v-113l-507 260v43l507 260v-114z" />
    <glyph glyph-name="equal" unicode="=" horiz-adv-x="613" 
d="M567 329h-511v100h511v-100zM567 104h-511v100h511v-100z" />
    <glyph glyph-name="greater" unicode="&#x3e;" horiz-adv-x="600" 
d="M377 265l-330 169v113l507 -260v-43l-507 -260v114z" />
    <glyph glyph-name="question" unicode="?" horiz-adv-x="600" 
d="M281 167q36 0 61.5 -25t25.5 -61t-25.5 -61t-61.5 -25q-35 0 -60.5 25t-25.5 61t25.5 61t60.5 25zM206 623q21 -23 20 -54t-23 -52t-53 -19t-53 25q-24 26 -18 74q2 25 23.5 54t55.5 47l4 -13q-9 -7 -12.5 -16.5t-1 -16t8.5 -6.5q26 0 49 -23zM206 716q78 21 147 12
t117.5 -53t51.5 -108q2 -52 -12 -93.5t-39.5 -67t-50 -40.5t-49.5 -21q-43 -11 -69 -39.5t-22 -71.5l-18 -3q0 1 -2.5 15.5t-3 19.5t-1 19.5t2 23.5t7 22.5t13.5 25.5t21 24q34 32 45 75t5 109q-6 65 -46.5 105.5t-92.5 33.5z" />
    <glyph glyph-name="at" unicode="@" horiz-adv-x="938" 
d="M578 258q19 114 -33 115q-41 1 -73 -48.5t-48 -119.5q-17 -78 2.5 -116.5t55.5 -41.5q19 -2 34.5 8.5t21.5 22.5l6 11q1 6 7.5 37.5t14 66.5t12.5 65zM888 237q-6 -63 -28.5 -111.5t-51 -75.5t-65 -44t-65.5 -22t-56 -4q-45 1 -67 23t-18 51q-6 -8 -15 -17.5t-26 -24
t-43 -23.5t-55 -9q-43 0 -70.5 32.5t-35 74t-1.5 79.5q4 25 11.5 51.5t25 60t40.5 59t61 43t84 17.5q26 0 47 -11.5t28.5 -21t7.5 -12.5l5 26l111 -2q-51 -261 -59 -296q-6 -16 -3 -30t23 -14q43 0 91.5 55.5t51.5 156.5q1 45 -3 80t-19 75t-41.5 67.5t-74 48t-113.5 26.5
q-88 8 -161.5 -19.5t-121 -78.5t-77 -112.5t-38.5 -127.5q-1 -7 -2.5 -19t-1.5 -48t5.5 -69t23 -74.5t46 -73t79.5 -56.5t118 -32q57 -6 113 6.5t83 28.5l27 15l7 -11q-3 -3 -9 -8.5t-29 -19t-50 -24t-74 -19t-100 -7.5q-47 0 -95 10.5t-99.5 38t-89.5 68.5t-61.5 109
t-19.5 154q9 207 159 330t356 113q71 -4 133 -28.5t111.5 -69t74.5 -118t16 -166.5z" />
    <glyph glyph-name="A" unicode="A" horiz-adv-x="732" 
d="M633 90q5 -12 10.5 -21.5t9.5 -17t10 -13.5t9 -9.5t9 -6.5t8.5 -4.5t8.5 -3t7.5 -1.5t7.5 -0.5t7 -0.5v-12h-318v12q22 0 32.5 11.5t10 28t-4.5 33t-10 27.5l-5 12l-31 71h-216q-4 -9 -6.5 -28.5t0 -47t12.5 -51.5t36 -40.5t65 -15.5v-12h-267v12q15 1 24.5 5t28.5 20.5
t43 59.5t53 111h222l-116 273l87 223h11z" />
    <glyph glyph-name="B" unicode="B" horiz-adv-x="689" 
d="M37 696v8h234v-704h-234v9q58 0 58 128v429q0 54 -14 92t-44 38zM645 179q0 -42 -11.5 -72.5t-36 -50t-50 -31t-67.5 -17t-74.5 -7t-82.5 -1.5v13q33 0 54.5 5.5t43 21.5t32 51.5t10.5 91.5q0 52 -12.5 87t-35 51t-43.5 22t-49 7v15q103 11 103 170q0 144 -103 155v14
q36 0 58 -0.5t54.5 -4t52.5 -10t43.5 -19t36 -30.5t21.5 -46t9 -63q0 -42 -19 -74.5t-44.5 -50t-56.5 -28.5t-49.5 -14t-28.5 -3q26 0 51 -2t62.5 -13t64.5 -29t47 -54t20 -84z" />
    <glyph glyph-name="C" unicode="C" horiz-adv-x="700" 
d="M253 352q0 -183 32.5 -260t103.5 -86v-14q-152 9 -250.5 109t-98.5 251t98.5 251t250.5 109v-14q-48 -6 -77 -39t-44 -107.5t-15 -199.5zM637 480q-51 203 -196 219v14q159 -5 221 -53l-12 -180h-13zM637 225h13l12 -180q-76 -49 -221 -54v15q69 9 123 64t73 155z" />
    <glyph glyph-name="D" unicode="D" horiz-adv-x="784" 
d="M41 704h236v-704h-236v13q31 0 49 35.5t18 88.5v429q0 50 -18 87.5t-49 37.5v13zM321 704q65 0 121.5 -8.5t114.5 -32.5t98.5 -62t66.5 -102.5t26 -149.5q0 -349 -427 -349v13q32 0 53.5 3t49 13t45.5 32.5t34 58.5t24 94t8 135q0 92 -12.5 157t-30.5 100.5t-48.5 55
t-57 24.5t-65.5 5v13z" />
    <glyph glyph-name="E" unicode="E" 
d="M27 692v12h228v-704h-228v13q58 0 58 124v429q0 53 -14 89.5t-44 36.5zM574 507q-2 38 -18.5 68.5t-43.5 49t-54.5 32t-60 20t-52.5 9.5t-38 4v14h280v-197h-13zM587 207h13v-207h-293v14q25 1 49 4.5t67 15.5t74.5 31t58 56t31.5 86zM453 238q-3 34 -19.5 58t-39.5 34
t-39 14t-29 4h-19v15h19q13 0 29 3.5t39 13.5t39.5 34.5t19.5 58.5h13v-235h-13z" />
    <glyph glyph-name="F" unicode="F" horiz-adv-x="610" 
d="M254 704v-574q0 -41 10.5 -67.5t28.5 -36t28.5 -11.5t24.5 -2v-13h-320v13q58 0 58 124v429q0 53 -14 89.5t-44 36.5v12h228zM306 691v13h291v-197h-13q-4 46 -30 81t-57.5 53t-74 30t-67.5 15.5t-49 4.5zM330 348h-24v15h24q119 10 132 110h13v-235h-13
q-13 100 -132 110z" />
    <glyph glyph-name="G" unicode="G" horiz-adv-x="756" 
d="M627 475q-16 212 -195 224v14q81 -2 134 -14t95 -40l-13 -184h-21zM450 272h282v-13q-47 0 -56.5 -32.5t-9.5 -186.5q-84 -44 -232 -49v14q55 4 74.5 30.5t19.5 92.5q0 46 -4 72.5t-14.5 39.5t-23 16t-36.5 3v13zM254 352q0 -187 28.5 -262.5t99.5 -84.5v-13
q-151 9 -246.5 110.5t-95.5 249.5t95 249t245 111v-14q-71 -9 -98.5 -83.5t-27.5 -262.5z" />
    <glyph glyph-name="H" unicode="H" horiz-adv-x="709" 
d="M643 585v-469v-16v-16.5t0.5 -14t1.5 -14.5l3 -12t5.5 -11.5l8 -8t11 -7t14.5 -3.5v-13h-233v13q16 3 20 24.5t4 65.5v13v213h-242v-213v-13q0 -22 0.5 -33t2.5 -26t7 -22t14 -9v-13h-234v13q8 1 15 3.5t11.5 7l8 8t5.5 11t3 12.5t1.5 14.5t0.5 14.5v16.5v15.5v469v7
q0 22 -1 34t-4.5 29t-13.5 26t-26 10v13h234v-13q-6 -1 -10.5 -4.5t-7 -11t-4 -14t-2 -18t-0.5 -18.5v-21v-19v-241h242v241v15v16v15t-0.5 15t-2 13.5t-3 12t-4 9t-6 7t-8.5 3.5v13h233v-13q-16 -1 -26 -10.5t-13.5 -29t-4 -30t-0.5 -36.5z" />
    <glyph glyph-name="I" unicode="I" horiz-adv-x="398" 
d="M39 704h323v-13q-37 0 -56 -18.5t-19 -70.5v-485q0 -104 75 -104v-13h-323v13q75 0 75 104v485q0 52 -19 70.5t-56 18.5v13z" />
    <glyph glyph-name="J" unicode="J" horiz-adv-x="450" 
d="M104 704h304v-12q-36 0 -51.5 -15.5t-15.5 -61.5v-433q0 -86 -29 -152t-79.5 -105t-106 -60.5t-122.5 -31.5l-4 12q166 60 166 337v310q0 144 -8 172t-54 28v12z" />
    <glyph glyph-name="K" unicode="K" horiz-adv-x="830" 
d="M809 13v-13h-168q-34 0 -55.5 4.5t-39.5 11.5t-39 30.5t-39.5 47.5t-55.5 77l-101 140l154 173q15 16 30.5 48.5t24.5 68.5t-6 62.5t-57 27.5v13h330v-13q-127 0 -353 -270l254 -339q23 -31 49 -47.5t39 -18.5t33 -3zM42 704h294v-13q-37 0 -52.5 -14t-15.5 -65v-514
q0 -49 14 -67t47 -18v-13h-287v13q32 0 44 17.5t12 67.5v514q0 46 -12 62.5t-44 16.5v13z" />
    <glyph glyph-name="L" unicode="L" 
d="M274 612v-612h-228v13q31 0 43.5 23t12.5 75v507q0 44 -15 59t-49 15v12h308v-12q-37 0 -54.5 -15t-17.5 -65zM595 217v-217h-269v15q37 3 73.5 12.5t78.5 30t70.5 61.5t33.5 98h13z" />
    <glyph glyph-name="M" unicode="M" horiz-adv-x="1007" 
d="M172 259q0 -24 2.5 -51t12 -63.5t24 -64t42 -47.5t63.5 -20v-13h-307v13q45 0 77 28t46.5 71.5t20.5 79.5t6 67h13zM53 704h268l249 -498l-83 -215h-13l-315 622q-42 73 -106 78v13zM920 107q0 -94 71 -94v-13h-303v13q33 0 47 21.5t14 72.5v597h233v-13
q-35 0 -48.5 -17.5t-13.5 -63.5v-503z" />
    <glyph glyph-name="N" unicode="N" horiz-adv-x="840" 
d="M183 240q0 -16 1 -31t4.5 -45t13.5 -53.5t24.5 -47t40.5 -37t60 -13.5v-13h-311v13q34 0 61 13.5t43 37t27 48t15.5 52.5t6 45t1.5 31h13zM5 704h282l384 -511v-193h-81l-463 616q-11 15 -22 26.5t-19.5 19t-18 13t-15 8.5t-14.5 5t-11.5 2.5t-11.5 1t-10 0.5v12z
M518 692v12h303v-12q-39 0 -68 -19.5t-44 -46.5t-24.5 -61.5t-11.5 -57.5t-2 -42h-13q0 19 -2.5 42t-11 57.5t-23 61.5t-41.5 46.5t-62 19.5z" />
    <glyph glyph-name="O" unicode="O" horiz-adv-x="789" 
d="M751 347q0 -146 -89.5 -246t-240.5 -109v13q73 7 97.5 78t24.5 264t-25 268t-97 84v13q150 -10 240 -114t90 -251zM247 347q0 -192 24.5 -263t97.5 -79v-13q-150 9 -239 109t-89 246q0 147 89.5 251.5t238.5 113.5v-14q-72 -8 -97 -83t-25 -268z" />
    <glyph glyph-name="P" unicode="P" horiz-adv-x="675" 
d="M262 704v-567q0 -43 7.5 -70t24.5 -38t30.5 -13.5t37.5 -2.5v-13h-329v13q31 0 43.5 25t12.5 78v475q0 101 -62 101v12h235zM450 502q0 63 -7.5 101t-26.5 57t-41 24.5t-61 6.5v13q60 -1 106 -6t90.5 -18t73.5 -35t46.5 -58t17.5 -85q0 -60 -25 -100.5t-74 -61
t-103.5 -29t-131.5 -9.5v13q54 1 80 12.5t41 52t15 122.5z" />
    <glyph glyph-name="Q" unicode="Q" horiz-adv-x="782" 
d="M247 347q0 -192 25 -263t98 -79v-13q-150 9 -239.5 109t-89.5 246q0 147 90 251t239 114v-14q-72 -9 -97.5 -83.5t-25.5 -267.5zM543 347q0 193 -24.5 268t-96.5 83v14q149 -10 239 -114t90 -251q0 -146 -89.5 -246t-239.5 -109v13q72 7 96.5 78t24.5 264zM634 -114
q13 -4 25 -7t22.5 -3t19 0.5t18 3.5t15 4.5t13.5 6t10.5 6t10.5 6.5l7 5l8 -10l-116 -100q-39 -32 -90 -36t-105 12t-145 54l-86 36q-12 5 -22.5 8t-20 3.5t-17 1.5t-15.5 -1.5t-12.5 -3t-11.5 -4.5t-9.5 -5.5t-9 -6t-7.5 -4.5l-9 10q50 43 105.5 67t98 28t78.5 2t55 -9
l19 -6z" />
    <glyph glyph-name="R" unicode="R" horiz-adv-x="755" 
d="M641 121q13 -51 47.5 -78.5t60.5 -29.5v-13h-146q-87 0 -110 30t-54 172q-3 14 -5 22q-18 82 -124 98v14q43 0 65 4.5t41 22.5t25.5 53t6.5 97q0 42 -3 72t-12 49.5t-18 31t-27.5 17t-34 7t-43.5 1.5v13q78 -1 133 -8.5t104.5 -27t74.5 -58.5t25 -97q0 -167 -214 -181
q36 1 64 -7t55 -30t49 -65t40 -109zM258 704v-587q0 -60 13.5 -82t46.5 -22v-13h-295v13q34 0 48 21.5t14 82.5v485q0 47 -14.5 68t-47.5 21v13h235z" />
    <glyph glyph-name="S" unicode="S" horiz-adv-x="620" 
d="M523 498q-7 22 -15 42.5t-25.5 49t-39 49.5t-55 38t-73.5 21v14q68 -2 123.5 -13.5t76.5 -22.5l21 -10v-168h-13zM56 239q7 -22 17 -46.5t30 -57t44.5 -58.5t61.5 -46t79 -25v-15q-77 2 -138.5 16t-83.5 27l-23 13v192h13zM430 387q101 -66 129 -148.5t-27 -165.5
q-2 -3 -6 -8t-19.5 -18t-35.5 -23.5t-55 -20t-76 -11.5v13q32 8 50.5 33t20 57.5t-18.5 70t-60 66.5l-154 97q-108 68 -135.5 147t33.5 161q2 3 6 7.5t19.5 16.5t35 21.5t53.5 18.5t73 11v-13q-32 -7 -51 -30t-20.5 -52.5t20 -64.5t64.5 -63z" />
    <glyph glyph-name="T" unicode="T" horiz-adv-x="727" 
d="M19 704h687v-213h-13q-2 42 -22.5 77t-48.5 57t-60.5 37.5t-57.5 22t-39 6.5h-15v-574q0 -104 65 -104v-13h-305v13q65 0 65 104v574h-15q-19 0 -53 -11t-74 -33t-69.5 -63.5t-31.5 -92.5h-13v213z" />
    <glyph glyph-name="U" unicode="U" horiz-adv-x="760" 
d="M587 508q0 22 -4 47t-16 59t-40 55.5t-68 21.5v13h282v-13q-37 0 -64.5 -15.5t-41.5 -36.5t-22.5 -49.5t-10.5 -46.5t-2 -35h-13zM424 51q71 0 117 48.5t46 129.5h13q0 -121 -73 -179.5t-182 -58.5t-183.5 64t-74.5 181v367q0 46 -13.5 67t-46.5 21v13h302v-13
q-35 0 -51 -18.5t-16 -69.5v-374q0 -86 44 -132t118 -46z" />
    <glyph glyph-name="V" unicode="V" horiz-adv-x="791" 
d="M339 691q-33 0 -40.5 -29t1.5 -58l10 -29l162 -379l-79 -196h-23l-269 610q-16 37 -33 56t-26.5 21.5t-27.5 3.5v13h325v-13zM477 691v13h293v-13q-20 0 -36.5 -6t-40 -26.5t-52 -68.5t-60.5 -122l-12 5q5 14 9.5 37t4.5 55.5t-8 59.5t-33 46.5t-65 19.5z" />
    <glyph glyph-name="W" unicode="W" horiz-adv-x="1138" 
d="M835 704h290v-13q-41 0 -87.5 -45.5t-101.5 -177.5l-13 6q6 20 9.5 50t1.5 71t-27 68.5t-72 27.5v13zM713 691q-34 0 -41.5 -29t2.5 -58l10 -29l153 -373l-75 -202h-27l-255 610q-11 29 -22 46.5t-22.5 24.5t-18 8t-20.5 2v13h316v-13zM337 691q-34 0 -41 -29t2 -58
l10 -29l155 -371l-74 -204h-26l-258 610q-15 38 -31 56.5t-25 21t-27 3.5v13h315v-13z" />
    <glyph glyph-name="X" unicode="X" horiz-adv-x="834" 
d="M320 199q-11 -15 -21.5 -42.5t-17 -61.5t12.5 -58.5t66 -24.5v-12h-304v12q42 2 79 23q75 45 175 175zM526 504q10 13 21.5 39t20.5 61.5t-10 61t-70 25.5v13h303v-13q-112 -4 -255 -198zM704 101q67 -87 116 -89v-12h-335v12q17 3 23.5 14.5t3 26t-10 29t-12.5 24.5
l-6 10l-343 485q-68 88 -120 90v13h353v-13q-33 0 -40.5 -25t24.5 -75z" />
    <glyph glyph-name="Y" unicode="Y" horiz-adv-x="788" 
d="M477 117q0 -104 60 -104v-13h-292v13q61 0 61 104v159q-65 116 -114 200t-65 110l-16 27q-21 36 -38.5 54t-27.5 21t-26 4v12h310v-12q-13 0 -19 -0.5t-14.5 -6.5t-7.5 -17t9.5 -34t28.5 -56l151 -251v-210zM476 691v13h295v-13q-19 0 -41 -8.5t-51 -29.5t-62.5 -66
t-66.5 -109l-10 10q5 10 11 30.5t9.5 51t-0.5 57t-25 45.5t-59 19z" />
    <glyph glyph-name="Z" unicode="Z" horiz-adv-x="635" 
d="M66 704h311l-9 -13q-117 0 -200.5 -52t-103.5 -137h-14zM295 13q118 2 197.5 66t95.5 154h13l-20 -233h-293zM613 704l-369 -704h-221l396 704h194z" />
    <glyph glyph-name="bracketleft" unicode="[" horiz-adv-x="357" 
d="M114 735h225v-13q-26 0 -40 -1.5t-32 -9t-26 -26.5t-8 -49v-693q0 -26 8.5 -42.5t26 -23t32.5 -8.5t39 -2v-13h-225v881z" />
    <glyph glyph-name="backslash" unicode="\" horiz-adv-x="459" 
d="M325 -20l-311 755h113l312 -755h-114z" />
    <glyph glyph-name="bracketright" unicode="]" horiz-adv-x="350" 
d="M11 735h225v-881h-225v13q24 0 39 2t32.5 8.5t26 23t8.5 42.5v693q0 30 -8 49t-26 26.5t-32 9t-40 1.5v13z" />
    <glyph glyph-name="asciicircum" unicode="^" horiz-adv-x="586" 
d="M313 704l185 -328h-48l-157 149l-154 -149h-50l186 328h38z" />
    <glyph glyph-name="underscore" unicode="_" horiz-adv-x="560" 
d="M0 -59h560v-81h-560v81z" />
    <glyph glyph-name="grave" unicode="`" horiz-adv-x="395" 
d="M141 720l196 -163h-59l-274 120z" />
    <glyph glyph-name="a" unicode="a" horiz-adv-x="545" 
d="M173 294q-23 -11 -48 -3.5t-37 30.5q-18 38 4 67q29 37 65 58l6 -12q-22 -17 1 -24q24 -6 36 -30q13 -23 5 -48t-32 -38zM494 52q23 0 28 17l12 -6q-9 -30 -43 -51t-80 -21q-5 0 -12 0.5t-26.5 5.5t-34 14t-26.5 28.5t-12 46.5v155q-106 -24 -106 -123q0 -7 1 -18
t14 -29.5t37 -18.5q19 0 27 7l9 -11q-43 -57 -121 -57q-12 0 -27.5 3t-38.5 12t-38.5 31.5t-15.5 55.5q0 69 47.5 95.5t188.5 60.5q15 4 23 6v63q0 69 -30.5 105t-75.5 25l-6 12q17 6 35 8.5t27 2.5h10q94 0 140 -53.5t46 -146.5v-149v-7.5t2.5 -17t7 -21.5t14.5 -16.5
t24 -7.5z" />
    <glyph glyph-name="b" unicode="b" horiz-adv-x="624" 
d="M374 471q94 0 153 -66.5t59 -172.5q0 -68 -22.5 -117t-61 -74.5t-81 -37t-91.5 -11.5v14q84 16 84 215q0 214 -110 214q-47 0 -70 -41t-23 -102v-117q0 -153 84 -168v-14q-71 7 -112 45q-16 -12 -45.5 -23.5t-49.5 -14t-23 4.5v625q0 26 -10.5 39.5t-40.5 24.5v12l197 40
v-356q46 81 163 81z" />
    <glyph glyph-name="c" unicode="c" horiz-adv-x="511" 
d="M461 131l10 -6q-6 -50 -58 -92t-138 -42q-97 0 -163.5 72t-66.5 170q0 97 64.5 164.5t185.5 72.5v-14q-37 -10 -63 -62.5t-26 -145.5q0 -78 34 -120t94 -48q38 -4 75.5 11t51.5 40zM336 388q9 28 35 40q8 4 -5 15t-37 14v13q81 -6 124 -52q13 -12 18 -32t-1 -39
q-8 -28 -34 -42t-54 -4q-28 8 -41.5 34t-4.5 53z" />
    <glyph glyph-name="d" unicode="d" horiz-adv-x="628" 
d="M563 93q0 -36 10 -48.5t41 -16.5v-13l-170 -23q-12 -2 -19 2.5t-8 9.5l-1 6v75q-17 -45 -63.5 -69.5t-95.5 -24.5q-97 0 -156.5 63t-59.5 179q0 64 20.5 111t56 73.5t78 39t93.5 13.5v-14q-76 -16 -76 -207q0 -109 25 -159t82 -50q39 0 66 27t30 65v171q0 71 -26 109.5
t-67 43.5v14q61 -7 93 -36v198q0 26 -10 38.5t-41 23.5v12l198 40v-653z" />
    <glyph glyph-name="e" unicode="e" horiz-adv-x="530" 
d="M314 55q42 -10 87 11t61 68l13 -5q-13 -55 -67 -96.5t-143 -41.5q-97 0 -163 71t-66 167q0 107 64.5 171t160.5 70v-13q-30 -14 -48.5 -75t-18.5 -129h161q0 180 -59 204v13q193 -8 193 -230h-295q3 -88 34 -130.5t86 -54.5z" />
    <glyph glyph-name="f" unicode="f" horiz-adv-x="362" 
d="M78 462q0 157 50 218t148 64v-13q-31 -14 -41 -75t-10 -194h107l-1 -13h-106v-336q0 -47 8 -70.5t33 -30.5v-12h-227v12q26 7 32.5 30.5t6.5 70.5v336h-65v13h65zM397 689q9 -15 9 -36t-9 -37q-13 -22 -38 -29t-48 6t-30 38.5t7 48.5q12 22 37 27q13 4 7 13q-6 7 -22 9
v13q29 -4 53 -19.5t34 -33.5z" />
    <glyph glyph-name="g" unicode="g" horiz-adv-x="582" 
d="M328 108q27 0 45.5 -1.5t46.5 -11.5t44.5 -27t26 -52t3.5 -84q0 -7 -2.5 -18t-20 -40t-46.5 -52l-8 11q12 14 17 32t4 29l-2 11q0 2 -1.5 5.5t-7.5 12.5t-14.5 16t-25 12.5t-36.5 5.5h-136q-23 0 -45.5 3.5t-50.5 13.5t-45.5 33.5t-17.5 57.5q0 3 0.5 9.5t5 23t13.5 31.5
t28 32.5t46 28.5q-46 18 -67.5 55t-21.5 76q0 63 44.5 104t136.5 45v-14q-22 -5 -30.5 -34t-8.5 -101q0 -68 9.5 -98.5t29.5 -36.5v-15q-44 1 -77 14q-11 -6 -21.5 -18t-15 -25.5t10 -23.5t50.5 -10h140zM565 467q17 -18 15.5 -43t-20.5 -41q-18 -16 -42.5 -14.5t-41.5 19.5
q-17 20 -14 42q1 4 -5 5q-15 0 -32 -17q34 -35 34 -97q0 -57 -43.5 -101t-137.5 -49v15q20 6 29.5 36.5t9.5 98.5q0 69 -9 99t-30 36v14q90 -3 138 -44q38 50 88 59q34 9 61 -18zM169 -170q56 -29 117.5 -33.5t105.5 16.5l8 -11q-64 -47 -146.5 -61.5t-146.5 3.5t-82 58
q-23 49 -1.5 90t64.5 69l8 -9q-14 -22 -11.5 -40.5t16 -34t28.5 -26t27 -15.5z" />
    <glyph glyph-name="h" unicode="h" horiz-adv-x="566" 
d="M213 118q0 -48 8 -73.5t33 -31.5v-13h-228v13q26 7 32.5 32t6.5 73v511q0 26 -10.5 38.5t-40.5 23.5v13l199 42v-628zM508 118q0 -47 8.5 -73.5t32.5 -32.5v-12h-227v12q26 7 33 33t7 73v195q0 43 -19 64t-58 20q-21 0 -43 -17l-11 17q24 32 60.5 53t71.5 21
q145 0 145 -154v-199z" />
    <glyph glyph-name="i" unicode="i" horiz-adv-x="303" 
d="M59 605q0 35 23.5 58.5t58.5 23.5q34 0 58 -24t24 -58t-24 -57.5t-58 -23.5t-58 23.5t-24 57.5zM266 12v-12h-228v12q26 8 33 33t7 72v233q0 26 -10.5 39.5t-41.5 27.5v13l199 41v-354q0 -47 8 -72.5t33 -32.5z" />
    <glyph glyph-name="j" unicode="j" horiz-adv-x="298" 
d="M61 607q0 34 24 57.5t58 23.5t58 -23.5t24 -57.5t-24 -58t-58 -24t-58 24t-24 58zM29 417v13l197 41v-421q0 -225 -208 -278v12q27 7 42.5 67.5t17.5 118.5l1 57v316q0 26 -10 42t-40 32z" />
    <glyph glyph-name="k" unicode="k" horiz-adv-x="603" 
d="M592 13v-13h-163q-47 0 -67 16.5t-67 85.5q-7 10 -11 16l-57 85l106 111q10 11 23 31.5t23 45t0 42t-43 16.5v13h257v-13q-42 -1 -117 -39t-148 -123q33 -46 72.5 -99t63.5 -82l23 -30q45 -63 105 -63zM249 12v-12h-228v12q26 7 33 32t7 73v512q0 27 -11 40.5t-41 24.5
v12l199 40v-629q0 -47 8 -72.5t33 -32.5z" />
    <glyph glyph-name="l" unicode="l" horiz-adv-x="288" 
d="M261 12v-12h-228v12q26 7 33 32t7 73v512q0 27 -11 40.5t-41 24.5v12l199 40v-629q0 -47 8 -72.5t33 -32.5z" />
    <glyph glyph-name="m" unicode="m" horiz-adv-x="810" 
d="M207 116q0 -46 8.5 -71.5t32.5 -32.5v-12h-227v12q18 5 27 22t10.5 33.5t1.5 48.5v232q0 27 -10.5 41.5t-40.5 27.5v13l198 41v-355zM754 118q0 -48 8 -74t33 -32v-12h-228v12q26 7 33 33t7 73v197q0 84 -59 84q-20 0 -39 -14l-12 13q49 73 120 73q65 0 101 -34t36 -118
v-201zM480 118q0 -47 8.5 -73.5t32.5 -32.5v-12h-228v12q26 7 33 33t7 73v197q0 84 -58 84q-20 0 -39 -14l-11 14q49 72 119 72q136 0 136 -155v-198z" />
    <glyph glyph-name="n" unicode="n" horiz-adv-x="565" 
d="M208 116q0 -46 8.5 -71.5t32.5 -32.5v-12h-228v12q18 5 27 22t10.5 33.5t1.5 48.5v235q0 26 -10 39.5t-41 26.5v13l199 41v-355zM502 118q0 -47 8.5 -73.5t32.5 -32.5v-12h-228v12q26 7 33 33t7 73v197q0 40 -19.5 62t-55.5 22q-21 0 -36 -11l-11 16q56 67 124 67
q145 0 145 -152v-201z" />
    <glyph glyph-name="o" unicode="o" horiz-adv-x="569" 
d="M216 231q0 -128 10.5 -173.5t45.5 -52.5v-13q-111 5 -171 72t-60 167t59.5 167t171.5 72v-14q-35 -6 -45.5 -51.5t-10.5 -173.5zM537 231q0 -99 -60 -166.5t-171 -72.5v13q34 7 45 53.5t11 172.5t-11 172t-45 53v14q111 -5 171 -72t60 -167z" />
    <glyph glyph-name="p" unicode="p" horiz-adv-x="632" 
d="M376 471q94 0 153 -66.5t59 -171.5q0 -67 -22 -116t-60 -75.5t-81.5 -38t-93.5 -11.5v14q85 17 85 215q0 214 -110 214q-42 0 -65 -32.5t-27 -83.5v-178q9 -122 83 -134v-14q-51 6 -83 25v-170q0 -47 8 -70.5t33 -29.5v-13h-228v13q26 7 33 30.5t7 69.5v509q0 26 -10 37
t-41 23v13l198 41v-80q44 80 162 80z" />
    <glyph glyph-name="q" unicode="q" horiz-adv-x="629" 
d="M560 -152q0 -47 8 -70.5t33 -29.5v-13h-227v13q25 7 32 30.5t7 69.5v200q-22 -25 -63 -41t-85 -16q-97 0 -156.5 63.5t-59.5 178.5q0 63 20.5 110.5t56.5 74t77.5 39.5t89.5 13v-12q-77 -17 -77 -209q0 -229 106 -229q39 0 65 27.5t26 68.5v200q-2 64 -25.5 99t-60.5 41
v14q75 -4 119 -35q24 16 51 25.5t45 8.5t18 -10v-611z" />
    <glyph glyph-name="r" unicode="r" horiz-adv-x="463" 
d="M212 117q0 -47 8 -72.5t33 -32.5v-12h-228v12q26 8 32.5 32.5t6.5 72.5v233q0 26 -10 40t-41 27v13l199 41v-354zM337 465q18 9 44 4.5t44 -19.5q26 -22 29 -57.5t-20 -60.5q-23 -26 -57.5 -28.5t-61.5 19.5q-27 25 -27 55q0 5 -6 6t-17 -3.5t-22 -15.5l-9 11
q23 31 44.5 51t30.5 24.5t28 13.5z" />
    <glyph glyph-name="s" unicode="s" horiz-adv-x="448" 
d="M309 269q67 -41 85.5 -107t-20.5 -117q-4 -5 -12.5 -13.5t-42 -23t-76.5 -17.5v15q28 6 38.5 29.5t-1.5 53.5t-45 51l-101 61q-71 46 -88.5 107t25.5 114q4 5 12 12.5t41 20.5t75 15v-14q-27 -6 -39 -25.5t-0.5 -47t48.5 -51.5zM367 335q-11 46 -46.5 81t-86.5 41v14
q45 -1 81.5 -8.5t50.5 -14.5l14 -6v-107h-13zM60 159q14 -54 53.5 -100t95.5 -54v-14q-48 2 -88.5 12t-56.5 19l-17 9v128h13z" />
    <glyph glyph-name="t" unicode="t" horiz-adv-x="375" 
d="M353 95l11 -6q-13 -39 -54 -68.5t-92 -29.5q-148 0 -148 153v305h-56l-2 13h58v134l147 21v-155h124l-2 -13h-122v-302q0 -84 76 -84q37 0 60 32z" />
    <glyph glyph-name="u" unicode="u" horiz-adv-x="587" 
d="M344 78l11 -16q-21 -31 -58 -51t-79 -20q-144 0 -144 153v218v26.5t-1.5 17.5t-4.5 14.5t-10 8t-16 7t-24 3.5v12l204 20v-324q0 -85 74 -85q27 0 48 16zM519 90q0 -35 9.5 -45.5t41.5 -14.5v-12l-170 -26q-12 -2 -19 3t-8 11l-1 5v348v12q0 41 -6.5 52.5t-40.5 15.5v12
l194 20v-381z" />
    <glyph glyph-name="v" unicode="v" horiz-adv-x="550" 
d="M271 449q-27 0 -32.5 -19.5t3.5 -39.5l8 -20l109 -223l-61 -156h-35l-192 401q-27 54 -74 57v13h274v-13zM337 462h214v-13q-37 0 -66.5 -30.5t-70.5 -128.5l-12 7q6 18 9 40.5t1 49.5t-21 44.5t-54 17.5v13z" />
    <glyph glyph-name="w" unicode="w" horiz-adv-x="832" 
d="M266 449q-23 0 -26.5 -18.5t4.5 -36.5l9 -19l106 -225l-56 -159h-34l-187 406q-25 49 -69 52v13h253v-13zM549 449q-15 0 -22.5 -7.5t-7 -18.5t3.5 -22t7 -19l3 -7l107 -227l-58 -157h-33l-186 406q-17 32 -29.5 41.5t-27.5 10.5v13h243v-13zM615 462h206v-13
q-34 0 -63 -31.5t-66 -127.5l-11 9q6 19 8 41.5t-1.5 48.5t-22 43t-50.5 17v13z" />
    <glyph glyph-name="x" unicode="x" horiz-adv-x="598" 
d="M20 12q86 0 177 122l11 -10q-2 -2 -4.5 -6t-7.5 -16t-7.5 -22.5t-1.5 -23.5t8.5 -22t25.5 -15.5t46 -6.5v-12h-247v12zM507 59q31 -44 84 -47v-12h-275v12q40 1 -8 75l-224 323q-11 12 -20.5 20t-19 11.5t-14.5 5t-14 2t-10 0.5v13h290v-13q-23 0 -28.5 -17.5t16.5 -52.5
zM383 341l-9 9q4 7 8 14.5t8 24t1.5 29t-17.5 22t-43 9.5v13h237v-13q-105 -2 -185 -108z" />
    <glyph glyph-name="y" unicode="y" horiz-adv-x="570" 
d="M340 462h214v-13q-38 0 -68 -31t-71 -129l-10 9q5 13 8 32t3.5 49t-19 50t-57.5 20v13zM253 -116q-16 -36 -33 -30q-6 2 -7 7q-10 31 -39 44t-59 1.5t-44 -40.5q-12 -29 -1 -59t40 -43q20 -9 46 -6t41 16q40 34 69 107zM363 149l-57 -158h-37l-195 408q-23 47 -72 50v13
h274v-13q-26 0 -32 -18t1 -36l7 -18z" />
    <glyph glyph-name="z" unicode="z" horiz-adv-x="492" 
d="M64 462h198l-8 -15q-146 -11 -183 -117h-12zM296 462h166l-249 -462h-183zM255 15q131 15 174 137h12l-9 -152h-185z" />
    <glyph glyph-name="braceleft" unicode="{" horiz-adv-x="353" 
d="M303 -154l-1 -10q-174 8 -174 167v117q0 24 -1 43.5t-4.5 34t-6 25.5t-8.5 18.5t-9.5 12.5t-12 8.5t-12 4.5t-13 3.5t-12.5 3.5v11q1 0 14 4t15 5t12.5 7t13 12.5t9.5 19t8.5 28t4 38.5t2.5 52v117q0 159 174 167l1 -10q-34 -6 -47 -41.5t-13 -115.5v-144
q0 -79 -39 -111.5t-118 -32.5q81 0 119 -28t38 -105v-144q0 -78 14 -115t46 -42z" />
    <glyph glyph-name="bar" unicode="|" horiz-adv-x="241" 
d="M73 -164v899h94v-899h-94z" />
    <glyph glyph-name="braceright" unicode="}" horiz-adv-x="356" 
d="M53 -164l-1 10q32 5 46 42t14 115v144q0 77 38 105t119 28q-79 0 -118 32.5t-39 111.5v144q0 80 -13 115.5t-47 41.5l1 10q174 -8 174 -167v-117q0 -29 2.5 -52t4 -38.5t8.5 -28t9.5 -19t13 -12.5t12.5 -7t15 -5t14 -4v-11q-3 -1 -12.5 -3.5t-13 -3.5t-12 -4.5t-12 -8.5
t-9.5 -12.5t-8.5 -18.5t-6 -25.5t-4.5 -34t-1 -43.5v-117q0 -159 -174 -167z" />
    <glyph glyph-name="asciitilde" unicode="~" horiz-adv-x="622" 
d="M359 184l-120 45q-20 8 -52 11.5t-67.5 -5t-47.5 -33.5l-10 4q22 52 51 84.5t55.5 42.5t49.5 13t36 -1l14 -4l120 -45q20 -8 52 -11.5t67 5.5t47 34l9 -4q-22 -50 -51 -82.5t-55 -43t-48.5 -14t-36.5 -0.5z" />
    <glyph glyph-name="uni007F" horiz-adv-x="0" 
 />
    <glyph glyph-name="uni00A0" unicode="&#xa0;" horiz-adv-x="272" 
 />
    <glyph glyph-name="exclamdown" unicode="&#xa1;" horiz-adv-x="338" 
d="M130 325h89l35 -500h-161zM175 403q-35 0 -60.5 25t-25.5 60q0 36 25.5 61t60.5 25t60 -25t25 -61q0 -35 -25 -60t-60 -25z" />
    <glyph glyph-name="cent" unicode="&#xa2;" horiz-adv-x="545" 
d="M327 88v369q-38 -9 -65 -61.5t-27 -147.5q0 -127 92 -160zM340 593v-509q39 -12 87 2t63 45l11 -6q-6 -45 -48.5 -85.5t-112.5 -48.5v-109h-13v109q-116 0 -184.5 68t-68.5 174q0 98 65 166t188 72v122h13zM400 428q9 5 -4 16q-10 9 -29 12v14q73 -7 115 -52
q13 -12 18 -32t-1 -39q-8 -28 -34 -42t-54 -4q-28 8 -41.5 34t-4.5 53q9 28 35 40z" />
    <glyph glyph-name="sterling" unicode="&#xa3;" horiz-adv-x="682" 
d="M622 149l14 -2q3 -34 -5 -62.5t-22.5 -44t-29.5 -26t-25 -14.5l-11 -3q-43 -13 -103.5 1t-113.5 44q-61 -51 -173 -51v13q41 0 73 19.5t49 48.5q-63 40 -94 53q-61 23 -99 0.5t-31 -58.5l-14 -3q-6 17 -3.5 38t14.5 42.5t37.5 35t66.5 14.5t101 -18l34 -11q-1 30 -51 111
q-4 7 -53 86h-91v13h85q-24 54 -32.5 102.5t-3 85t20.5 67.5t38 51.5t50.5 35t58 20.5t59.5 6t55 -7l-3 -12q-42 7 -73.5 -2t-49 -35t-18 -67.5t21 -104.5t65.5 -140h156v-13h-148q18 -22 23 -35q61 -106 11 -201l50 -16q56 -20 108 -10.5t56 49.5zM466 691q15 0 2 12
q-6 5 -14 9l5 10q64 -30 87 -83q7 -19 1.5 -43t-21.5 -40q-23 -24 -56.5 -24t-57.5 23q-25 23 -25 56.5t23 57.5q22 22 56 22z" />
    <glyph glyph-name="currency" unicode="&#xa4;" horiz-adv-x="612" 
d="M438 345q0 56 -39.5 95.5t-94.5 39.5q-56 0 -95.5 -39.5t-39.5 -95.5t39.5 -95t95.5 -39t95 39.5t39 94.5zM501 206l89 -88l-58 -59l-89 89q-61 -44 -139 -44t-141 44l-88 -89l-58 59l89 88q-44 63 -44 139q0 79 44 140l-89 88l58 58l88 -88q63 44 141 44t139 -44l89 88
l58 -58l-89 -88q44 -61 44 -140q0 -76 -44 -139z" />
    <glyph glyph-name="yen" unicode="&#xa5;" horiz-adv-x="723" 
d="M292 578l151 -251h161v-13h-161v-81h161v-13h-161v-103q0 -104 60 -104v-13h-292v13q61 0 61 104v103h-164v13h164v43q-2 3 -11 18.5t-11 19.5h-142v13h135l-166 286q-21 36 -38.5 54t-27.5 21t-26 4v12h310v-12q-13 0 -19 -0.5t-14.5 -6.5t-7.5 -17t9.5 -34t28.5 -56z
M442 704h295v-13q-19 0 -41 -8.5t-51 -29.5t-62.5 -66t-66.5 -109l-8 11q7 15 13 43t8.5 66t-19.5 65.5t-68 27.5v13z" />
    <glyph glyph-name="brokenbar" unicode="&#xa6;" horiz-adv-x="238" 
d="M167 735v-375h-96v375h96zM167 186v-377h-96v377h96z" />
    <glyph glyph-name="section" unicode="&#xa7;" horiz-adv-x="566" 
d="M208 -223q-7 -3 8 -10q6 -3 15 -5l-1 -14q-35 5 -62 20t-38 29q-27 33 -9 73q13 26 40 36.5t54 -2.5q26 -12 36 -39.5t-2 -53.5q-14 -26 -41 -34zM186 377q-80 -60 -44 -117q7 -11 20.5 -23t23 -19.5t28.5 -20t24 -16.5l1 -1h2q22 -15 67 -43t49 -30q20 -12 34 -24
q79 63 40 120q-4 6 -9.5 12.5t-13 13t-13 11t-15.5 11.5t-14.5 10t-15.5 10t-14 9q-1 1 -3.5 2.5t-3.5 2.5q-23 15 -68 43.5t-50 31.5q-18 12 -25 17zM404 409q48 -31 78 -72t36.5 -86.5t-22.5 -93t-94 -84.5q88 -70 78 -173q-16 -155 -198 -155l1 14q37 6 59.5 31t26.5 62
q8 72 -76 126l-124 76q-66 42 -96.5 97.5t-8 120.5t110.5 115q-90 67 -78 176q15 155 194 157l-1 -14q-39 -5 -63 -31t-28 -64q-8 -72 81 -127zM359 685q8 3 -2 10q-6 5 -15 7l1 14q34 -5 60.5 -20.5t38.5 -29.5q27 -33 9 -73q-13 -26 -40 -36.5t-54 2.5q-26 12 -36 39.5
t2 53.5q14 26 36 33z" />
    <glyph glyph-name="dieresis" unicode="&#xa8;" horiz-adv-x="332" 
d="M196 636q0 26 19.5 45t45.5 19t45.5 -19t19.5 -45q0 -27 -19.5 -46t-45.5 -19t-45.5 19t-19.5 46zM8 636q0 26 19.5 45t45.5 19t45 -19t19 -45q0 -27 -19 -46t-45 -19t-45.5 19t-19.5 46z" />
    <glyph glyph-name="copyright" unicode="&#xa9;" horiz-adv-x="815" 
d="M538 287h13l4 -99q-45 -31 -138 -31q-92 0 -152.5 57.5t-60.5 146.5t60.5 146.5t152.5 57.5q102 0 138 -30l-4 -100h-13q-19 117 -121 117q-46 0 -69 -41t-23 -150t23.5 -150t68.5 -41q100 0 121 117zM784 368q0 -156 -110.5 -266.5t-266.5 -110.5q-157 0 -267 110.5
t-110 266.5t110 266.5t267 110.5q156 0 266.5 -110.5t110.5 -266.5zM706 368q0 124 -88 212.5t-211 88.5q-124 0 -212 -88.5t-88 -212.5t88 -212t212 -88q123 0 211 88t88 212z" />
    <glyph glyph-name="ordfeminine" unicode="&#xaa;" horiz-adv-x="331" 
d="M157 579q-56 -13 -56 -60v-3.5t1.5 -8t4.5 -9.5t8.5 -7.5t13.5 -3.5q18 0 28 24v68zM270 495l10 -4q-4 -16 -21.5 -27t-42.5 -11h-5.5t-13 2.5t-17 6t-14 11.5t-8.5 19q-5 -17 -25.5 -28t-48.5 -11q-10 0 -21.5 2.5t-26.5 15.5t-15 35q0 36 25 50.5t99 32.5l12 3v32
q0 40 -20 56.5t-48 3.5q-12 -5 -9 -10q1 -1 5 -2q12 -3 20 -15q6 -13 2 -25.5t-16 -19.5q-13 -6 -26 -1.5t-19 15.5q-9 17 2 35q10 20 35 33q10 5 23 7.5t22 2.5h8q97 0 97 -104v-78q0 -4 0.5 -10.5t7 -17t18.5 -9.5q8 0 11 10z" />
    <glyph glyph-name="guillemotleft" unicode="&#xab;" horiz-adv-x="666" 
d="M577 505v-44l-120 -195l120 -189v-44l-259 233zM345 505v-44l-120 -195l120 -189v-44l-258 233z" />
    <glyph glyph-name="logicalnot" unicode="&#xac;" horiz-adv-x="667" 
d="M41 411h586v-345h-103v243h-483v102z" />
    <glyph glyph-name="uni00AD" unicode="&#xad;" horiz-adv-x="444" 
d="M379 196h-315v116h315v-116z" />
    <glyph glyph-name="registered" unicode="&#xae;" horiz-adv-x="819" 
d="M461 456q0 33 -4.5 52.5t-17.5 27.5t-24.5 9.5t-38.5 1.5h-17v-181h17q23 0 32.5 0.5t23 5t18 14t8 26.5t3.5 44zM785 368q0 -156 -110.5 -266.5t-266.5 -110.5t-266.5 110.5t-110.5 266.5t110.5 266.5t266.5 110.5t266.5 -110.5t110.5 -266.5zM707 368q0 124 -87.5 212
t-211.5 88t-211.5 -88t-87.5 -212t87.5 -211.5t211.5 -87.5t211.5 87.5t87.5 211.5zM622 196v-13h-78q-47 1 -58.5 18t-31.5 102q-5 22 -22.5 34.5t-31.5 14.5l-15 1h-26v-101q0 -32 7.5 -44t25.5 -12v-13h-158v13q18 0 25.5 11.5t7.5 44.5v253q0 25 -7.5 34.5t-25.5 9.5v11
h142q45 0 76 -3.5t59.5 -14t42.5 -31.5t14 -53q0 -89 -115 -97q40 2 66.5 -22t44.5 -92q13 -48 58 -51z" />
    <glyph glyph-name="macron" unicode="&#xaf;" horiz-adv-x="360" 
d="M-16 664h393v-85h-393v85z" />
    <glyph glyph-name="degree" unicode="&#xb0;" horiz-adv-x="381" 
d="M188 682q-32 0 -54.5 -22t-22.5 -53t22.5 -53t54.5 -22q31 0 53 22t22 53t-22 53t-53 22zM317 607q0 -53 -38.5 -90.5t-91.5 -37.5q-54 0 -92 37.5t-38 90.5q0 55 38 92.5t92 37.5t92 -38t38 -92z" />
    <glyph glyph-name="plusminus" unicode="&#xb1;" horiz-adv-x="608" 
d="M345 385h215v-91h-215v-157h-90v157h-214v91h214v145h90v-145zM41 -5v90h519v-90h-519z" />
    <glyph glyph-name="twosuperior" unicode="&#xb2;" horiz-adv-x="270" 
d="M210 470h13l-25 -91h-176l98 137q47 73 12 110q-23 25 -57 15q-32 -9 -35 -42h-12q-7 48 24 76.5t67 28.5q34 0 58 -23.5t24 -54.5q0 -23 -11.5 -44t-38.5 -51t-32 -36l-36 -51h86q27 0 41 26z" />
    <glyph glyph-name="threesuperior" unicode="&#xb3;" horiz-adv-x="282" 
d="M121 373q-50 0 -79 32q-14 18 -5 38q7 14 21 19t28 -1q13 -6 18.5 -20.5t-0.5 -27.5q-7 -15 -21 -19q-6 -1 2 -5q11 -6 36 -6q27 0 39.5 24.5t7.5 57.5q-12 65 -78 70v11q32 7 45.5 27t9.5 39t-19 30q-15 13 -38.5 8t-31.5 -27l-10 1q-1 37 26 58t56 21q38 0 62.5 -24.5
t20.5 -60t-42 -62.5q33 -6 53 -28.5t21 -47.5q1 -58 -36.5 -82.5t-85.5 -24.5z" />
    <glyph glyph-name="acute" unicode="&#xb4;" horiz-adv-x="426" 
d="M87 558l196 163l137 -43l-274 -120h-59z" />
    <glyph glyph-name="mu" unicode="&#xb5;" horiz-adv-x="585" 
d="M516 90q0 -35 9.5 -45.5t41.5 -14.5v-13l-170 -25q-12 -2 -19 2.5t-8 10.5l-1 6v348v12q0 41 -6.5 52.5t-40.5 15.5v12l194 20v-381zM340 79l10 -13q-18 -39 -57 -57t-75 -18v-153q0 -36 10 -48.5t42 -15.5v-12l-175 -26q-13 -2 -20 2.5t-8 10.5l-1 6v605v9q0 42 -7 53.5
t-44 16.5v12l203 20v-324q0 -43 18 -63t61 -20q25 0 43 15z" />
    <glyph glyph-name="paragraph" unicode="&#xb6;" horiz-adv-x="720" 
d="M567 548v-653q0 -61 20 -104t55 -43v-13h-170v969h177v-14q-36 0 -59 -43.5t-23 -98.5zM296 704h95v-969h-230v13q22 0 42 5t42.5 19t36 45.5t13.5 77.5v382q-57 0 -99 8t-80 29.5t-58.5 65.5t-20.5 108q0 214 258 216h1z" />
    <glyph glyph-name="periodcentered" unicode="&#xb7;" horiz-adv-x="283" 
d="M141 236q-26 0 -44.5 18.5t-18.5 44.5q0 25 19 44t44 19q26 0 44.5 -18.5t18.5 -44.5t-18.5 -44.5t-44.5 -18.5z" />
    <glyph glyph-name="cedilla" unicode="&#xb8;" horiz-adv-x="280" 
d="M87 -103l14 37q73 20 112 -8t33 -75q-5 -45 -38 -63t-71 -18q-45 0 -70 22q-15 11 -12 33q4 14 16 21t25 4q14 -3 21.5 -14.5t4.5 -25.5t-13 -18q-6 -3 5 -7q8 -2 21 -2q21 0 33 14.5t11 34.5q0 23 -21.5 48t-70.5 17z" />
    <glyph glyph-name="onesuperior" unicode="&#xb9;" horiz-adv-x="242" 
d="M188 393v-13h-133v13q34 0 34 37v183q0 16 -9.5 18.5t-19.5 -3.5l-10 -6l-10 12l90 70h30v-274q0 -37 28 -37z" />
    <glyph glyph-name="ordmasculine" unicode="&#xba;" horiz-adv-x="344" 
d="M218 536q0 90 -9.5 124t-34.5 34q-26 0 -35.5 -34t-9.5 -124q0 -88 10 -119t35 -31q26 0 35 30.5t9 119.5zM313 536q0 -72 -33.5 -117.5t-105.5 -45.5t-106 45.5t-34 117.5q0 73 34 122t106 49t105.5 -48.5t33.5 -122.5z" />
    <glyph glyph-name="guillemotright" unicode="&#xbb;" horiz-adv-x="654" 
d="M83 461v44l259 -239l-259 -233v44l120 189zM315 461v44l258 -239l-258 -233v44l120 189z" />
    <glyph glyph-name="onequarter" unicode="&#xbc;" horiz-adv-x="662" 
d="M447 138v122l-66 -94q-9 -13 -10 -19.5t2 -7.5t10 -1h64zM570 710h83l-558 -674h-82zM214 388v-13h-143v13q36 0 36 41v216q0 11 -4.5 16t-10.5 4t-12.5 -3.5t-11.5 -5.5l-4 -3l-9 12l97 80h33v-316q0 -41 29 -41zM580 102h-49v-23q0 -45 7.5 -55.5t26.5 -10.5v-13h-152
v13q13 0 19 2.5t10.5 17t4.5 43.5v26h-121v9l180 256l25 -4v-225h49v-36z" />
    <glyph glyph-name="onehalf" unicode="&#xbd;" horiz-adv-x="658" 
d="M609 106h10l-29 -106h-196l110 156q51 79 14 120q-26 28 -65 18q-36 -9 -43 -44h-12q-8 55 27.5 87.5t74.5 33.5q38 1 66 -25t28 -62q0 -20 -10.5 -43t-20.5 -36.5t-31 -39.5t-27 -33l-39 -55h91q35 0 52 29zM573 710h83l-558 -674h-82zM217 388v-13h-143v13q36 0 36 41
v216q0 11 -4.5 16t-11 4t-12.5 -3.5t-10 -5.5l-5 -3l-9 12l97 80h33v-316q0 -41 29 -41z" />
    <glyph glyph-name="threequarters" unicode="&#xbe;" horiz-adv-x="656" 
d="M448 138v122l-66 -94q-9 -13 -10 -19.5t2 -7.5t10 -1h64zM571 710h83l-558 -674h-82zM132 372q-60 0 -91 36q-15 19 -5 43q7 16 23 22t32 -1q16 -8 22 -24t-1 -31q-8 -15 -19 -18q-8 -3 2 -8q10 -6 37 -6q33 0 45.5 26.5t6.5 65.5q-3 14 -6.5 23.5t-12 24t-26.5 23
t-44 10.5v12q36 9 52 31t11.5 43.5t-21.5 33.5q-17 14 -42.5 8t-34.5 -31l-13 2q-1 42 29 65.5t63 23.5q43 0 71.5 -27.5t24 -67.5t-48.5 -71q37 -6 59.5 -31.5t23.5 -55.5q1 -66 -41 -93.5t-96 -27.5zM581 102h-49v-23q0 -45 7.5 -55.5t26.5 -10.5v-13h-152v13q13 0 19 2.5
t10.5 17t4.5 43.5v26h-121v9l180 256l25 -4v-225h49v-36z" />
    <glyph glyph-name="questiondown" unicode="&#xbf;" horiz-adv-x="619" 
d="M342 302q-36 0 -61 25t-25 61t25 61t61 25q35 0 60.5 -25t25.5 -61t-25.5 -61t-60.5 -25zM274 -97q6 -64 45.5 -104t90.5 -35l4 -13q-77 -20 -145.5 -10.5t-116.5 53.5t-51 107q-2 52 12.5 93.5t39.5 67t50 40.5t50 21q43 11 69 39.5t22 71.5l17 2q0 -1 2.5 -15.5
t3 -19.5t1 -19.5t-2 -23.5t-7 -22.5t-13.5 -25.5t-21 -24q-34 -32 -45 -74t-5 -109zM526 -55q25 -28 18 -74q-2 -24 -24 -54t-57 -48l-5 14q21 15 17 32q-2 7 -8 7q-29 2 -50 23q-21 24 -19.5 54.5t22.5 51.5q23 21 53.5 19t52.5 -25z" />
    <glyph glyph-name="Agrave" unicode="&#xc0;" horiz-adv-x="732" 
d="M633 90q5 -12 10.5 -21.5t9.5 -17t10 -13.5t9 -9.5t9 -6.5t8.5 -4.5t8.5 -3t7.5 -1.5t7.5 -0.5t7 -0.5v-12h-318v12q22 0 32.5 11.5t10 28t-4.5 33t-10 27.5l-5 12l-31 71h-216q-4 -9 -6.5 -28.5t0 -47t12.5 -51.5t36 -40.5t65 -15.5v-12h-267v12q15 1 24.5 5t28.5 20.5
t43 59.5t53 111h222l-116 273l87 223h11zM309 898l196 -163h-59l-274 120z" />
    <glyph glyph-name="Aacute" unicode="&#xc1;" horiz-adv-x="732" 
d="M633 90q5 -12 10.5 -21.5t9.5 -17t10 -13.5t9 -9.5t9 -6.5t8.5 -4.5t8.5 -3t7.5 -1.5t7.5 -0.5t7 -0.5v-12h-318v12q22 0 32.5 11.5t10 28t-4.5 33t-10 27.5l-5 12l-31 71h-216q-4 -9 -6.5 -28.5t0 -47t12.5 -51.5t36 -40.5t65 -15.5v-12h-267v12q15 1 24.5 5t28.5 20.5
t43 59.5t53 111h222l-116 273l87 223h11zM239 735l196 163l137 -43l-274 -120h-59z" />
    <glyph glyph-name="Acircumflex" unicode="&#xc2;" horiz-adv-x="732" 
d="M633 90q5 -12 10.5 -21.5t9.5 -17t10 -13.5t9 -9.5t9 -6.5t8.5 -4.5t8.5 -3t7.5 -1.5t7.5 -0.5t7 -0.5v-12h-318v12q22 0 32.5 11.5t10 28t-4.5 33t-10 27.5l-5 12l-31 71h-216q-4 -9 -6.5 -28.5t0 -47t12.5 -51.5t36 -40.5t65 -15.5v-12h-267v12q15 1 24.5 5t28.5 20.5
t43 59.5t53 111h222l-116 273l87 223h11zM246 735h-39l160 190l160 -190h-39l-121 79z" />
    <glyph glyph-name="Atilde" unicode="&#xc3;" horiz-adv-x="732" 
d="M412 736l-120 45q-20 8 -51.5 11.5t-66.5 -5t-47 -33.5l-10 3q22 52 50.5 84.5t54.5 43t49 13.5t37 -1l13 -4l119 -45q20 -8 52.5 -11t67.5 6t47 34l9 -5q-22 -50 -51 -82.5t-55 -43t-48.5 -14t-35.5 -0.5zM633 90q5 -12 10.5 -21.5t9.5 -17t10 -13.5t9 -9.5t9 -6.5
t8.5 -4.5t8.5 -3t7.5 -1.5t7.5 -0.5t7 -0.5v-12h-318v12q22 0 32.5 11.5t10 28t-4.5 33t-10 27.5l-5 12l-31 71h-216q-4 -9 -6.5 -28.5t0 -47t12.5 -51.5t36 -40.5t65 -15.5v-12h-267v12q15 1 24.5 5t28.5 20.5t43 59.5t53 111h222l-116 273l87 223h11z" />
    <glyph glyph-name="Adieresis" unicode="&#xc4;" horiz-adv-x="732" 
d="M394 833q0 26 19.5 45t45.5 19t45.5 -19t19.5 -45q0 -27 -19.5 -46t-45.5 -19t-45.5 19t-19.5 46zM206 833q0 26 19.5 45t45.5 19t45 -19t19 -45q0 -27 -19 -46t-45 -19t-45.5 19t-19.5 46zM633 90q5 -12 10.5 -21.5t9.5 -17t10 -13.5t9 -9.5t9 -6.5t8.5 -4.5t8.5 -3
t7.5 -1.5t7.5 -0.5t7 -0.5v-12h-318v12q22 0 32.5 11.5t10 28t-4.5 33t-10 27.5l-5 12l-31 71h-216q-4 -9 -6.5 -28.5t0 -47t12.5 -51.5t36 -40.5t65 -15.5v-12h-267v12q15 1 24.5 5t28.5 20.5t43 59.5t53 111h222l-116 273l87 223h11z" />
    <glyph glyph-name="Aring" unicode="&#xc5;" horiz-adv-x="732" 
d="M364 983q44 0 74.5 -30t30.5 -73t-30.5 -73t-74.5 -30q-43 0 -73.5 30t-30.5 73t30.5 73t73.5 30zM364 830q21 0 35.5 15t14.5 35q0 21 -14.5 35.5t-35.5 14.5q-20 0 -34.5 -14.5t-14.5 -35.5q0 -20 14.5 -35t34.5 -15zM633 90q5 -12 10.5 -21.5t9.5 -17t10 -13.5t9 -9.5
t9 -6.5t8.5 -4.5t8.5 -3t7.5 -1.5t7.5 -0.5t7 -0.5v-12h-318v12q22 0 32.5 11.5t10 28t-4.5 33t-10 27.5l-5 12l-31 71h-216q-4 -9 -6.5 -28.5t0 -47t12.5 -51.5t36 -40.5t65 -15.5v-12h-267v12q15 1 24.5 5t28.5 20.5t43 59.5t53 111h222l-116 273l87 223h11z" />
    <glyph glyph-name="AE" unicode="&#xc6;" horiz-adv-x="1008" 
d="M950 206v-206h-274v14q26 2 52 6.5t64 17.5t66.5 32.5t51 55t27.5 80.5h13zM624 704v-704h-237v13q67 0 67 123v82h-236q-36 -66 -36 -114.5t26 -70t68 -21.5v-12h-273v12q77 5 204 219h247v335q0 125 -75 125v13h245zM923 506q-3 42 -23.5 75.5t-47.5 52t-63.5 31.5
t-61.5 18t-51 7v14h260v-198h-13zM803 238q-8 91 -103 110q-3 1 -4 1h-20v13h20q52 12 76 36q27 28 31 75h13v-235h-13z" />
    <glyph glyph-name="Ccedilla" unicode="&#xc7;" horiz-adv-x="700" 
d="M253 352q0 -183 32.5 -260t103.5 -86v-14q-152 9 -250.5 109t-98.5 251t98.5 251t250.5 109v-14q-48 -6 -77 -39t-44 -107.5t-15 -199.5zM637 480q-51 203 -196 219v14q159 -5 221 -53l-12 -180h-13zM637 225h13l12 -180q-76 -49 -221 -54v15q69 9 123 64t73 155z
M371 -64l-14 -37q49 8 70.5 -17t21.5 -48q1 -20 -11 -34.5t-33 -14.5q-26 2 -26 9q10 4 13 18t-4.5 25.5t-21.5 14.5q-13 3 -25 -4t-16 -21q-3 -22 12 -33q25 -22 70 -22q38 0 71 18t38 63q6 47 -33 75t-112 8z" />
    <glyph glyph-name="Egrave" unicode="&#xc8;" 
d="M27 692v12h228v-704h-228v13q58 0 58 124v429q0 53 -14 89.5t-44 36.5zM574 507q-2 38 -18.5 68.5t-43.5 49t-54.5 32t-60 20t-52.5 9.5t-38 4v14h280v-197h-13zM587 207h13v-207h-293v14q25 1 49 4.5t67 15.5t74.5 31t58 56t31.5 86zM453 238q-3 34 -19.5 58t-39.5 34
t-39 14t-29 4h-19v15h19q13 0 29 3.5t39 13.5t39.5 34.5t19.5 58.5h13v-235h-13zM268 898l196 -163h-59l-274 120z" />
    <glyph glyph-name="Eacute" unicode="&#xc9;" 
d="M27 692v12h228v-704h-228v13q58 0 58 124v429q0 53 -14 89.5t-44 36.5zM574 507q-2 38 -18.5 68.5t-43.5 49t-54.5 32t-60 20t-52.5 9.5t-38 4v14h280v-197h-13zM587 207h13v-207h-293v14q25 1 49 4.5t67 15.5t74.5 31t58 56t31.5 86zM453 238q-3 34 -19.5 58t-39.5 34
t-39 14t-29 4h-19v15h19q13 0 29 3.5t39 13.5t39.5 34.5t19.5 58.5h13v-235h-13zM183 735l196 163l137 -43l-274 -120h-59z" />
    <glyph glyph-name="Ecircumflex" unicode="&#xca;" 
d="M27 692v12h228v-704h-228v13q58 0 58 124v429q0 53 -14 89.5t-44 36.5zM574 507q-2 38 -18.5 68.5t-43.5 49t-54.5 32t-60 20t-52.5 9.5t-38 4v14h280v-197h-13zM587 207h13v-207h-293v14q25 1 49 4.5t67 15.5t74.5 31t58 56t31.5 86zM453 238q-3 34 -19.5 58t-39.5 34
t-39 14t-29 4h-19v15h19q13 0 29 3.5t39 13.5t39.5 34.5t19.5 58.5h13v-235h-13zM212 735h-39l160 190l160 -190h-39l-121 79z" />
    <glyph glyph-name="Edieresis" unicode="&#xcb;" 
d="M354 833q0 26 19.5 45t45.5 19t45.5 -19t19.5 -45q0 -27 -19.5 -46t-45.5 -19t-45.5 19t-19.5 46zM166 833q0 26 19.5 45t45.5 19t45 -19t19 -45q0 -27 -19 -46t-45 -19t-45.5 19t-19.5 46zM27 692v12h228v-704h-228v13q58 0 58 124v429q0 53 -14 89.5t-44 36.5zM574 507
q-2 38 -18.5 68.5t-43.5 49t-54.5 32t-60 20t-52.5 9.5t-38 4v14h280v-197h-13zM587 207h13v-207h-293v14q25 1 49 4.5t67 15.5t74.5 31t58 56t31.5 86zM453 238q-3 34 -19.5 58t-39.5 34t-39 14t-29 4h-19v15h19q13 0 29 3.5t39 13.5t39.5 34.5t19.5 58.5h13v-235h-13z" />
    <glyph glyph-name="Igrave" unicode="&#xcc;" horiz-adv-x="398" 
d="M362 704h-323v-13q37 0 56 -18.5t19 -70.5v-485q0 -104 -75 -104v-13h323v13q-75 0 -75 104v485q0 52 19 70.5t56 18.5v13zM138 898l196 -163h-59l-274 120z" />
    <glyph glyph-name="Iacute" unicode="&#xcd;" horiz-adv-x="398" 
d="M39 704h323v-13q-37 0 -56 -18.5t-19 -70.5v-485q0 -104 75 -104v-13h-323v13q75 0 75 104v485q0 52 -19 70.5t-56 18.5v13zM54 735l196 163l137 -43l-274 -120h-59z" />
    <glyph glyph-name="Icircumflex" unicode="&#xce;" horiz-adv-x="398" 
d="M362 704h-323v-13q37 0 56 -18.5t19 -70.5v-485q0 -104 -75 -104v-13h323v13q-75 0 -75 104v485q0 52 19 70.5t56 18.5v13zM81 735h-39l160 190l160 -190h-39l-121 79z" />
    <glyph glyph-name="Idieresis" unicode="&#xcf;" horiz-adv-x="398" 
d="M230 833q0 26 19.5 45t45.5 19t45.5 -19t19.5 -45q0 -27 -19.5 -46t-45.5 -19t-45.5 19t-19.5 46zM42 833q0 26 19.5 45t45.5 19t45 -19t19 -45q0 -27 -19 -46t-45 -19t-45.5 19t-19.5 46zM39 704h323v-13q-37 0 -56 -18.5t-19 -70.5v-485q0 -104 75 -104v-13h-323v13
q75 0 75 104v485q0 52 -19 70.5t-56 18.5v13z" />
    <glyph glyph-name="Eth" unicode="&#xd0;" horiz-adv-x="799" 
d="M330 704q64 -1 119.5 -10t112 -33.5t96.5 -62.5t65 -102t25 -147q0 -345 -418 -349v13q38 1 63 6t54.5 24.5t47 54t29 98t11.5 153.5q0 89 -11.5 152.5t-29 99.5t-46 56.5t-55 26.5t-63.5 7v13zM416 359v-13h-138v-346h-236v13q31 0 49 35.5t18 88.5v209h-78v13h78v207
q0 50 -18 87.5t-49 37.5v13h236v-345h138z" />
    <glyph glyph-name="Ntilde" unicode="&#xd1;" horiz-adv-x="840" 
d="M467 761l-120 45q-19 8 -51 10.5t-67 -7.5t-47 -35l-10 3q22 52 50.5 84t54.5 41.5t49 12t36 -2.5l14 -4l119 -45q20 -8 52.5 -10t67.5 8.5t47 35.5l9 -5q-22 -50 -51 -82t-55 -42t-48.5 -12.5t-36.5 1.5zM183 240q0 -16 1 -31t4.5 -45t13.5 -53.5t24.5 -47t40.5 -37
t60 -13.5v-13h-311v13q34 0 61 13.5t43 37t27 48t15.5 52.5t6 45t1.5 31h13zM5 704h282l384 -511v-193h-81l-463 616q-11 15 -22 26.5t-19.5 19t-18 13t-15 8.5t-14.5 5t-11.5 2.5t-11.5 1t-10 0.5v12zM518 692v12h303v-12q-39 0 -68 -19.5t-44 -46.5t-24.5 -61.5
t-11.5 -57.5t-2 -42h-13q0 19 -2.5 42t-11 57.5t-23 61.5t-41.5 46.5t-62 19.5z" />
    <glyph glyph-name="Ograve" unicode="&#xd2;" horiz-adv-x="789" 
d="M751 347q0 -146 -89.5 -246t-240.5 -109v13q73 7 97.5 78t24.5 264t-25 268t-97 84v13q150 -10 240 -114t90 -251zM247 347q0 -192 24.5 -263t97.5 -79v-13q-150 9 -239 109t-89 246q0 147 89.5 251.5t238.5 113.5v-14q-72 -8 -97 -83t-25 -268zM348 898l196 -163h-59
l-274 120z" />
    <glyph glyph-name="Oacute" unicode="&#xd3;" horiz-adv-x="789" 
d="M751 347q0 -146 -89.5 -246t-240.5 -109v13q73 7 97.5 78t24.5 264t-25 268t-97 84v13q150 -10 240 -114t90 -251zM247 347q0 -192 24.5 -263t97.5 -79v-13q-150 9 -239 109t-89 246q0 147 89.5 251.5t238.5 113.5v-14q-72 -8 -97 -83t-25 -268zM254 735l196 163l137 -43
l-274 -120h-59z" />
    <glyph glyph-name="Ocircumflex" unicode="&#xd4;" horiz-adv-x="789" 
d="M751 347q0 -146 -89.5 -246t-240.5 -109v13q73 7 97.5 78t24.5 264t-25 268t-97 84v13q150 -10 240 -114t90 -251zM247 347q0 -192 24.5 -263t97.5 -79v-13q-150 9 -239 109t-89 246q0 147 89.5 251.5t238.5 113.5v-14q-72 -8 -97 -83t-25 -268zM282 735h-39l160 190
l160 -190h-39l-121 79z" />
    <glyph glyph-name="Otilde" unicode="&#xd5;" horiz-adv-x="789" 
d="M447 761l-120 45q-19 8 -51 10.5t-67 -7.5t-47 -35l-10 3q22 52 50.5 84t54.5 41.5t49 12t36 -2.5l14 -4l119 -45q20 -8 52.5 -10t67.5 8.5t47 35.5l9 -5q-22 -50 -51 -82t-55 -42t-48.5 -12.5t-36.5 1.5zM751 347q0 -146 -89.5 -246t-240.5 -109v13q73 7 97.5 78
t24.5 264t-25 268t-97 84v13q150 -10 240 -114t90 -251zM247 347q0 -192 24.5 -263t97.5 -79v-13q-150 9 -239 109t-89 246q0 147 89.5 251.5t238.5 113.5v-14q-72 -8 -97 -83t-25 -268z" />
    <glyph glyph-name="Odieresis" unicode="&#xd6;" horiz-adv-x="789" 
d="M426 833q0 26 19.5 45t45.5 19t45.5 -19t19.5 -45q0 -27 -19.5 -46t-45.5 -19t-45.5 19t-19.5 46zM238 833q0 26 19.5 45t45.5 19t45 -19t19 -45q0 -27 -19 -46t-45 -19t-45.5 19t-19.5 46zM751 347q0 -146 -89.5 -246t-240.5 -109v13q73 7 97.5 78t24.5 264t-25 268
t-97 84v13q150 -10 240 -114t90 -251zM247 347q0 -192 24.5 -263t97.5 -79v-13q-150 9 -239 109t-89 246q0 147 89.5 251.5t238.5 113.5v-14q-72 -8 -97 -83t-25 -268z" />
    <glyph glyph-name="multiply" unicode="&#xd7;" horiz-adv-x="627" 
d="M578 432l-178 -178l178 -178l-81 -82l-178 178l-178 -178l-82 82l178 178l-178 178l82 82l178 -178l178 178z" />
    <glyph glyph-name="Oslash" unicode="&#xd8;" horiz-adv-x="791" 
d="M752 348q0 -146 -89.5 -246t-239.5 -109v13q72 8 96.5 79t24.5 263q0 140 -15 220l-263 -453q12 -55 36.5 -79.5t68.5 -28.5v-14q-83 4 -152 41l-40 -69h-16l44 75q-78 46 -121.5 127t-43.5 181q0 96 39 176t114.5 131.5t175.5 57.5v-13q-72 -9 -97.5 -84t-25.5 -268
q0 -148 13 -213l264 453q-13 55 -37 80.5t-65 30.5v14q83 -4 150 -42l44 74h15l-47 -81q78 -48 122.5 -132.5t44.5 -183.5z" />
    <glyph glyph-name="Ugrave" unicode="&#xd9;" horiz-adv-x="760" 
d="M334 898l196 -163h-59l-274 120zM587 508q0 22 -4 47t-16 59t-40 55.5t-68 21.5v13h282v-13q-37 0 -64.5 -15.5t-41.5 -36.5t-22.5 -49.5t-10.5 -46.5t-2 -35h-13zM424 51q71 0 117 48.5t46 129.5h13q0 -121 -73 -179.5t-182 -58.5t-183.5 64t-74.5 181v367
q0 46 -13.5 67t-46.5 21v13h302v-13q-35 0 -51 -18.5t-16 -69.5v-374q0 -86 44 -132t118 -46z" />
    <glyph glyph-name="Uacute" unicode="&#xda;" horiz-adv-x="760" 
d="M587 508q0 22 -4 47t-16 59t-40 55.5t-68 21.5v13h282v-13q-37 0 -64.5 -15.5t-41.5 -36.5t-22.5 -49.5t-10.5 -46.5t-2 -35h-13zM424 51q71 0 117 48.5t46 129.5h13q0 -121 -73 -179.5t-182 -58.5t-183.5 64t-74.5 181v367q0 46 -13.5 67t-46.5 21v13h302v-13
q-35 0 -51 -18.5t-16 -69.5v-374q0 -86 44 -132t118 -46zM259 735l196 163l137 -43l-274 -120h-59z" />
    <glyph glyph-name="Ucircumflex" unicode="&#xdb;" horiz-adv-x="760" 
d="M278 735h-39l160 190l160 -190h-39l-121 79zM587 508q0 22 -4 47t-16 59t-40 55.5t-68 21.5v13h282v-13q-37 0 -64.5 -15.5t-41.5 -36.5t-22.5 -49.5t-10.5 -46.5t-2 -35h-13zM424 51q71 0 117 48.5t46 129.5h13q0 -121 -73 -179.5t-182 -58.5t-183.5 64t-74.5 181v367
q0 46 -13.5 67t-46.5 21v13h302v-13q-35 0 -51 -18.5t-16 -69.5v-374q0 -86 44 -132t118 -46z" />
    <glyph glyph-name="Udieresis" unicode="&#xdc;" horiz-adv-x="760" 
d="M479 762q-28 0 -48.5 21t-20.5 50q0 28 20 48t49 20t49.5 -20t20.5 -48q0 -29 -20.5 -50t-49.5 -21zM270 762q-29 0 -50 21t-21 50q0 28 21 48t50 20t49 -20t20 -48q0 -29 -20.5 -50t-48.5 -21zM587 508q0 22 -4 47t-16 59t-40 55.5t-68 21.5v13h282v-13
q-37 0 -64.5 -15.5t-41.5 -36.5t-22.5 -49.5t-10.5 -46.5t-2 -35h-13zM424 51q71 0 117 48.5t46 129.5h13q0 -121 -73 -179.5t-182 -58.5t-183.5 64t-74.5 181v367q0 46 -13.5 67t-46.5 21v13h302v-13q-35 0 -51 -18.5t-16 -69.5v-374q0 -86 44 -132t118 -46z" />
    <glyph glyph-name="Yacute" unicode="&#xdd;" horiz-adv-x="788" 
d="M477 117q0 -104 60 -104v-13h-292v13q61 0 61 104v159q-65 116 -114 200t-65 110l-16 27q-21 36 -38.5 54t-27.5 21t-26 4v12h310v-12q-13 0 -19 -0.5t-14.5 -6.5t-7.5 -17t9.5 -34t28.5 -56l151 -251v-210zM476 691v13h295v-13q-19 0 -41 -8.5t-51 -29.5t-62.5 -66
t-66.5 -109l-10 10q5 10 11 30.5t9.5 51t-0.5 57t-25 45.5t-59 19zM271 735l196 163l137 -43l-274 -120h-59z" />
    <glyph glyph-name="Thorn" unicode="&#xde;" horiz-adv-x="689" 
d="M280 602v-485q0 -104 75 -104v-13h-324v13q75 0 75 104v485q0 53 -19 71t-56 18v13h324v-13q-37 0 -56 -18t-19 -71zM467 377q0 51 -5.5 85.5t-15 55t-27.5 31t-37 14t-50 3.5v13q76 -1 130.5 -9.5t103.5 -29.5t74 -61.5t25 -101.5q0 -48 -17.5 -84t-46 -57t-73.5 -34
t-90.5 -17.5t-105.5 -5.5v13q41 1 63 6.5t40 24.5t25 55.5t7 98.5z" />
    <glyph glyph-name="germandbls" unicode="&#xdf;" horiz-adv-x="685" 
d="M70 488q0 122 61 187t167 71v-13q-29 -13 -44.5 -60.5t-17.5 -88.5l-1 -42v-542h-213v12q48 8 48 105v371zM399 420q27 0 57.5 -5t68.5 -20t67.5 -38.5t49.5 -64t20 -92.5q0 -98 -56 -149.5t-172 -58.5v13q49 29 49 195q0 57 -17 100t-44.5 65.5t-55.5 33t-55 10.5v13
q45 0 69 34t24 126q0 130 -55 151v13q43 -2 76.5 -9.5t66 -24.5t50.5 -51.5t18 -84.5q0 -48 -21.5 -82.5t-52.5 -48.5t-52.5 -19.5t-34.5 -5.5zM362 137q25 -8 37.5 -30.5t5.5 -47.5q-8 -27 -30 -38q-4 -2 -6 -5t0.5 -6.5t12.5 -4.5v-13q-59 3 -82 33q-27 29 -17 69
q8 26 31 38.5t48 4.5z" />
    <glyph glyph-name="agrave" unicode="&#xe0;" horiz-adv-x="545" 
d="M173 294q-23 -11 -48 -3.5t-37 30.5q-18 38 4 67q29 37 65 58l6 -12q-22 -17 1 -24q24 -6 36 -30q13 -23 5 -48t-32 -38zM494 52q23 0 28 17l12 -6q-9 -30 -43 -51t-80 -21q-5 0 -12 0.5t-26.5 5.5t-34 14t-26.5 28.5t-12 46.5v155q-106 -24 -106 -123q0 -7 1 -18
t14 -29.5t37 -18.5q19 0 27 7l9 -11q-43 -57 -121 -57q-12 0 -27.5 3t-38.5 12t-38.5 31.5t-15.5 55.5q0 69 47.5 95.5t188.5 60.5q15 4 23 6v63q0 69 -30.5 105t-75.5 25l-6 12q17 6 35 8.5t27 2.5h10q94 0 140 -53.5t46 -146.5v-149v-7.5t2.5 -17t7 -21.5t14.5 -16.5
t24 -7.5zM236 704l196 -163h-59l-274 120z" />
    <glyph glyph-name="aacute" unicode="&#xe1;" horiz-adv-x="545" 
d="M173 294q-23 -11 -48 -3.5t-37 30.5q-18 38 4 67q29 37 65 58l6 -12q-22 -17 1 -24q24 -6 36 -30q13 -23 5 -48t-32 -38zM494 52q23 0 28 17l12 -6q-9 -30 -43 -51t-80 -21q-5 0 -12 0.5t-26.5 5.5t-34 14t-26.5 28.5t-12 46.5v155q-106 -24 -106 -123q0 -7 1 -18
t14 -29.5t37 -18.5q19 0 27 7l9 -11q-43 -57 -121 -57q-12 0 -27.5 3t-38.5 12t-38.5 31.5t-15.5 55.5q0 69 47.5 95.5t188.5 60.5q15 4 23 6v63q0 69 -30.5 105t-75.5 25l-6 12q17 6 35 8.5t27 2.5h10q94 0 140 -53.5t46 -146.5v-149v-7.5t2.5 -17t7 -21.5t14.5 -16.5
t24 -7.5zM148 541l196 163l137 -43l-274 -120h-59z" />
    <glyph glyph-name="acircumflex" unicode="&#xe2;" horiz-adv-x="545" 
d="M173 294q-23 -11 -48 -3.5t-37 30.5q-18 38 4 67q29 37 65 58l6 -12q-22 -17 1 -24q24 -6 36 -30q13 -23 5 -48t-32 -38zM494 52q23 0 28 17l12 -6q-9 -30 -43 -51t-80 -21q-5 0 -12 0.5t-26.5 5.5t-34 14t-26.5 28.5t-12 46.5v155q-106 -24 -106 -123q0 -7 1 -18
t14 -29.5t37 -18.5q19 0 27 7l9 -11q-43 -57 -121 -57q-12 0 -27.5 3t-38.5 12t-38.5 31.5t-15.5 55.5q0 69 47.5 95.5t188.5 60.5q15 4 23 6v63q0 69 -30.5 105t-75.5 25l-6 12q17 6 35 8.5t27 2.5h10q94 0 140 -53.5t46 -146.5v-149v-7.5t2.5 -17t7 -21.5t14.5 -16.5
t24 -7.5zM172 517h-39l160 190l160 -190h-39l-121 79z" />
    <glyph glyph-name="atilde" unicode="&#xe3;" horiz-adv-x="545" 
d="M327 534l-120 45q-19 8 -51 10.5t-67 -7.5t-47 -35l-10 3q22 52 50.5 84t54.5 41.5t49 12t36 -1.5l14 -5l119 -45q20 -8 52.5 -10t67.5 8.5t47 35.5l9 -5q-22 -50 -51 -82t-55 -42t-48.5 -12.5t-36.5 1.5zM173 294q-23 -11 -48 -3.5t-37 30.5q-18 38 4 67q29 37 65 58
l6 -12q-22 -17 1 -24q24 -6 36 -30q13 -23 5 -48t-32 -38zM494 52q23 0 28 17l12 -6q-9 -30 -43 -51t-80 -21q-5 0 -12 0.5t-26.5 5.5t-34 14t-26.5 28.5t-12 46.5v155q-106 -24 -106 -123q0 -7 1 -18t14 -29.5t37 -18.5q19 0 27 7l9 -11q-43 -57 -121 -57q-12 0 -27.5 3
t-38.5 12t-38.5 31.5t-15.5 55.5q0 69 47.5 95.5t188.5 60.5q15 4 23 6v63q0 69 -30.5 105t-75.5 25l-6 12q17 6 35 8.5t27 2.5h10q94 0 140 -53.5t46 -146.5v-149v-7.5t2.5 -17t7 -21.5t14.5 -16.5t24 -7.5z" />
    <glyph glyph-name="adieresis" unicode="&#xe4;" horiz-adv-x="545" 
d="M376 547q-27 0 -46 19t-19 46q0 26 19 45t46 19q26 0 45 -19t19 -45q0 -27 -19 -46t-45 -19zM188 547q-27 0 -46 19t-19 46q0 26 19 45t46 19q26 0 45 -19t19 -45q0 -27 -19 -46t-45 -19zM173 294q-23 -11 -48 -3.5t-37 30.5q-18 38 4 67q29 37 65 58l6 -12
q-22 -17 1 -24q24 -6 36 -30q13 -23 5 -48t-32 -38zM494 52q23 0 28 17l12 -6q-9 -30 -43 -51t-80 -21q-5 0 -12 0.5t-26.5 5.5t-34 14t-26.5 28.5t-12 46.5v155q-106 -24 -106 -123q0 -7 1 -18t14 -29.5t37 -18.5q19 0 27 7l9 -11q-43 -57 -121 -57q-12 0 -27.5 3t-38.5 12
t-38.5 31.5t-15.5 55.5q0 69 47.5 95.5t188.5 60.5q15 4 23 6v63q0 69 -30.5 105t-75.5 25l-6 12q17 6 35 8.5t27 2.5h10q94 0 140 -53.5t46 -146.5v-149v-7.5t2.5 -17t7 -21.5t14.5 -16.5t24 -7.5z" />
    <glyph glyph-name="aring" unicode="&#xe5;" horiz-adv-x="545" 
d="M232 638q0 -21 14.5 -35.5t34.5 -14.5q21 0 35 14.5t14 35.5q0 20 -14 34.5t-35 14.5q-20 0 -34.5 -14.5t-14.5 -34.5zM177 638q0 43 30.5 73.5t73.5 30.5t73.5 -30.5t30.5 -73.5t-30.5 -73.5t-73.5 -30.5t-73.5 30.5t-30.5 73.5zM173 294q-23 -11 -48 -3.5t-37 30.5
q-18 38 4 67q29 37 65 58l6 -12q-22 -17 1 -24q24 -6 36 -30q13 -23 5 -48t-32 -38zM494 52q23 0 28 17l12 -6q-9 -30 -43 -51t-80 -21q-5 0 -12 0.5t-26.5 5.5t-34 14t-26.5 28.5t-12 46.5v155q-106 -24 -106 -123q0 -7 1 -18t14 -29.5t37 -18.5q19 0 27 7l9 -11
q-43 -57 -121 -57q-12 0 -27.5 3t-38.5 12t-38.5 31.5t-15.5 55.5q0 69 47.5 95.5t188.5 60.5q15 4 23 6v63q0 69 -30.5 105t-75.5 25l-6 12q17 6 35 8.5t27 2.5h10q94 0 140 -53.5t46 -146.5v-149v-7.5t2.5 -17t7 -21.5t14.5 -16.5t24 -7.5z" />
    <glyph glyph-name="ae" unicode="&#xe6;" horiz-adv-x="734" 
d="M538 55q41 -8 79 16t49 65l14 -5q-10 -58 -53 -99t-130 -41q-31 0 -64.5 10.5t-67 32t-56 60t-23.5 88.5v60q-40 -11 -71 -48t-31 -77v-7.5t2.5 -15.5t7 -20t15 -16t25.5 -7q35 0 55 19l8 -11q-53 -68 -146 -68q-5 0 -12.5 0.5t-26.5 6t-34 15t-27 30.5t-12 50q0 25 5 44
t21 34.5t31 25.5t49.5 21t60.5 18t80 20v61q0 69 -27.5 105.5t-70.5 25.5l-7 12q16 5 31.5 8t23.5 3h8q78 0 126 -55q61 49 117 54v-13q-56 -24 -56 -204h133q0 95 -8.5 144.5t-34.5 59.5v13q88 -4 129.5 -57t41.5 -173h-261q2 -91 27.5 -133t79.5 -52zM165 294
q-23 -12 -48 -4t-37 31q-18 36 4 67q29 37 66 58l6 -11q-21 -17 1 -24q23 -8 35 -31q13 -23 5 -48t-32 -38z" />
    <glyph glyph-name="ccedilla" unicode="&#xe7;" horiz-adv-x="510" 
d="M461 131l10 -6q-6 -50 -58 -92t-138 -42q-97 0 -163.5 72t-66.5 170q0 97 64.5 164.5t185.5 72.5v-14q-37 -10 -63 -62.5t-26 -145.5q0 -78 34 -120t94 -48q38 -4 75.5 11t51.5 40zM336 388q9 28 35 40q8 4 -5 15t-37 14v13q81 -6 124 -52q13 -12 18 -32t-1 -39
q-8 -28 -34 -42t-54 -4q-28 8 -41.5 34t-4.5 53zM228 -64l-14 -37q49 8 70.5 -17t21.5 -48q1 -20 -11 -34.5t-33 -14.5q-26 2 -26 9q10 4 13 18t-4.5 25.5t-21.5 14.5q-13 3 -25 -4t-16 -21q-3 -22 12 -33q25 -22 70 -22q38 0 71 18t38 63q6 47 -33 75t-112 8z" />
    <glyph glyph-name="egrave" unicode="&#xe8;" horiz-adv-x="530" 
d="M314 55q42 -10 87 11t61 68l13 -5q-13 -55 -67 -96.5t-143 -41.5q-97 0 -163 71t-66 167q0 107 64.5 171t160.5 70v-13q-30 -14 -48.5 -75t-18.5 -129h161q0 180 -59 204v13q193 -8 193 -230h-295q3 -88 34 -130.5t86 -54.5zM217 704l196 -163h-59l-274 120z" />
    <glyph glyph-name="eacute" unicode="&#xe9;" horiz-adv-x="530" 
d="M314 55q42 -10 87 11t61 68l13 -5q-13 -55 -67 -96.5t-143 -41.5q-97 0 -163 71t-66 167q0 107 64.5 171t160.5 70v-13q-30 -14 -48.5 -75t-18.5 -129h161q0 180 -59 204v13q193 -8 193 -230h-295q3 -88 34 -130.5t86 -54.5zM142 541l196 163l137 -43l-274 -120h-59z" />
    <glyph glyph-name="ecircumflex" unicode="&#xea;" horiz-adv-x="530" 
d="M314 55q42 -10 87 11t61 68l13 -5q-13 -55 -67 -96.5t-143 -41.5q-97 0 -163 71t-66 167q0 107 64.5 171t160.5 70v-13q-30 -14 -48.5 -75t-18.5 -129h161q0 180 -59 204v13q193 -8 193 -230h-295q3 -88 34 -130.5t86 -54.5zM162 517h-39l160 190l160 -190h-39l-121 79z
" />
    <glyph glyph-name="edieresis" unicode="&#xeb;" horiz-adv-x="530" 
d="M362 547q-27 0 -46 19t-19 46q0 26 19 45t46 19q26 0 45 -19t19 -45q0 -27 -19 -46t-45 -19zM174 547q-27 0 -46 19t-19 46q0 26 19 45t46 19q26 0 45 -19t19 -45q0 -27 -19 -46t-45 -19zM314 55q42 -10 87 11t61 68l13 -5q-13 -55 -67 -96.5t-143 -41.5q-97 0 -163 71
t-66 167q0 107 64.5 171t160.5 70v-13q-30 -14 -48.5 -75t-18.5 -129h161q0 180 -59 204v13q193 -8 193 -230h-295q3 -88 34 -130.5t86 -54.5z" />
    <glyph glyph-name="igrave" unicode="&#xec;" horiz-adv-x="303" 
d="M266 12q-25 7 -33 32.5t-8 72.5v354l-199 -41v-13q31 -14 41.5 -27.5t10.5 -39.5v-233q0 -47 -7 -72t-33 -33v-12h228v12zM88 704l196 -163h-59l-274 120z" />
    <glyph glyph-name="iacute" unicode="&#xed;" horiz-adv-x="303" 
d="M266 12v-12h-228v12q26 8 33 33t7 72v233q0 26 -10.5 39.5t-41.5 27.5v13l199 41v-354q0 -47 8 -72.5t33 -32.5zM24 541l196 163l137 -43l-274 -120h-59z" />
    <glyph glyph-name="icircumflex" unicode="&#xee;" horiz-adv-x="303" 
d="M266 12q-25 7 -33 32.5t-8 72.5v354l-199 -41v-13q31 -14 41.5 -27.5t10.5 -39.5v-233q0 -47 -7 -72t-33 -33v-12h228v12zM36 517h-39l160 190l160 -190h-39l-121 79z" />
    <glyph glyph-name="idieresis" unicode="&#xef;" horiz-adv-x="303" 
d="M241 547q-27 0 -46 19t-19 46q0 26 19 45t46 19q26 0 45 -19t19 -45q0 -27 -19 -46t-45 -19zM53 547q-27 0 -46 19t-19 46q0 26 19 45t46 19q26 0 45 -19t19 -45q0 -27 -19 -46t-45 -19zM266 12v-12h-227v12q26 8 32.5 32.5t6.5 72.5v233q0 26 -10 40t-41 27v13l198 41
v-354q0 -47 8 -72.5t33 -32.5z" />
    <glyph glyph-name="eth" unicode="&#xf0;" horiz-adv-x="590" 
d="M415 648q143 -101 143 -330q0 -144 -63 -230t-180 -96v14q37 17 49 91.5t14 234.5q-24 69 -88 69q-39 0 -63.5 -54t-24.5 -149q0 -104 12 -144.5t49 -47.5v-14q-103 6 -164 63t-61 163q0 94 49 156.5t161 62.5q40 0 78 -17t52 -51q-3 158 -42 238l-173 -88l-9 11l175 90
q-46 80 -147 80v13q128 0 220 -56l96 50l10 -11z" />
    <glyph glyph-name="ntilde" unicode="&#xf1;" horiz-adv-x="565" 
d="M327 534l-120 45q-19 8 -51.5 10.5t-67.5 -7.5t-47 -35l-9 3q22 52 50.5 84t54.5 41.5t49 12t36 -1.5l14 -5l119 -45q20 -8 52.5 -10t67.5 8.5t47 35.5l9 -5q-22 -50 -51 -82t-55 -42t-48.5 -12.5t-36.5 1.5zM208 116q0 -46 8.5 -71.5t32.5 -32.5v-12h-228v12q18 5 27 22
t10.5 33.5t1.5 48.5v235q0 26 -10 39.5t-41 26.5v13l199 41v-355zM502 118q0 -47 8.5 -73.5t32.5 -32.5v-12h-228v12q26 7 33 33t7 73v197q0 40 -19.5 62t-55.5 22q-21 0 -36 -11l-11 16q56 67 124 67q145 0 145 -152v-201z" />
    <glyph glyph-name="ograve" unicode="&#xf2;" horiz-adv-x="569" 
d="M216 231q0 -128 10.5 -173.5t45.5 -52.5v-13q-111 5 -171 72t-60 167t59.5 167t171.5 72v-14q-35 -6 -45.5 -51.5t-10.5 -173.5zM537 231q0 -99 -60 -166.5t-171 -72.5v13q34 7 45 53.5t11 172.5t-11 172t-45 53v14q111 -5 171 -72t60 -167zM230 704l196 -163h-59
l-274 120z" />
    <glyph glyph-name="oacute" unicode="&#xf3;" horiz-adv-x="569" 
d="M216 231q0 -128 10.5 -173.5t45.5 -52.5v-13q-111 5 -171 72t-60 167t59.5 167t171.5 72v-14q-35 -6 -45.5 -51.5t-10.5 -173.5zM537 231q0 -99 -60 -166.5t-171 -72.5v13q34 7 45 53.5t11 172.5t-11 172t-45 53v14q111 -5 171 -72t60 -167zM154 541l196 163l137 -43
l-274 -120h-59z" />
    <glyph glyph-name="ocircumflex" unicode="&#xf4;" horiz-adv-x="569" 
d="M216 231q0 -128 10.5 -173.5t45.5 -52.5v-13q-111 5 -171 72t-60 167t59.5 167t171.5 72v-14q-35 -6 -45.5 -51.5t-10.5 -173.5zM537 231q0 -99 -60 -166.5t-171 -72.5v13q34 7 45 53.5t11 172.5t-11 172t-45 53v14q111 -5 171 -72t60 -167zM173 517h-39l160 190
l160 -190h-39l-121 79z" />
    <glyph glyph-name="otilde" unicode="&#xf5;" horiz-adv-x="569" 
d="M217 579q-20 8 -52 10t-67 -7.5t-47 -34.5l-9 3q22 52 50.5 84t54.5 41.5t49 12t36 -1.5l14 -5l119 -45q19 -8 51.5 -10t67.5 8.5t47 35.5l10 -5q-22 -50 -51.5 -82t-55.5 -42t-48.5 -12.5t-35.5 1.5l-14 4zM216 231q0 -128 10.5 -173.5t45.5 -52.5v-13q-111 5 -171 72
t-60 167t59.5 167t171.5 72v-14q-35 -6 -45.5 -51.5t-10.5 -173.5zM537 231q0 -99 -60 -166.5t-171 -72.5v13q34 7 45 53.5t11 172.5t-11 172t-45 53v14q111 -5 171 -72t60 -167z" />
    <glyph glyph-name="odieresis" unicode="&#xf6;" horiz-adv-x="569" 
d="M383 547q-27 0 -46 19t-19 46q0 26 19 45t46 19q26 0 45 -19t19 -45q0 -27 -19 -46t-45 -19zM195 547q-27 0 -46 19t-19 46q0 26 19 45t46 19q26 0 45 -19t19 -45q0 -27 -19 -46t-45 -19zM216 231q0 -128 10.5 -173.5t45.5 -52.5v-13q-111 5 -171 72t-60 167t59.5 167
t171.5 72v-14q-35 -6 -45.5 -51.5t-10.5 -173.5zM537 231q0 -99 -60 -166.5t-171 -72.5v13q34 7 45 53.5t11 172.5t-11 172t-45 53v14q111 -5 171 -72t60 -167z" />
    <glyph glyph-name="divide" unicode="&#xf7;" horiz-adv-x="625" 
d="M312 420q-30 0 -51 21.5t-21 51.5t21 51.5t51 21.5t51.5 -22t21.5 -51q0 -30 -21.5 -51.5t-51.5 -21.5zM312 -13q-30 0 -51 21t-21 52q0 29 21 50.5t51 21.5t51.5 -21.5t21.5 -50.5q0 -31 -21.5 -52t-51.5 -21zM581 222h-536v108h536v-108z" />
    <glyph glyph-name="oslash" unicode="&#xf8;" horiz-adv-x="569" 
d="M538 231q0 -99 -60 -166.5t-171 -72.5v14q34 6 44.5 52t10.5 173q0 62 -3 104l-138 -234q5 -49 16.5 -70.5t35.5 -25.5v-13q-60 3 -102 22l-48 -81h-14l51 87q-58 29 -88 85t-30 126q0 100 59.5 167t171.5 72v-14q-36 -6 -46.5 -52t-10.5 -173q0 -66 3 -108l138 233
q-5 50 -16 73t-34 27v14q54 -3 103 -24l46 79h14l-49 -84q58 -30 87.5 -85t29.5 -125z" />
    <glyph glyph-name="ugrave" unicode="&#xf9;" horiz-adv-x="587" 
d="M344 78l11 -16q-21 -31 -58 -51t-79 -20q-144 0 -144 153v218v26.5t-1.5 17.5t-4.5 14.5t-10 8t-16 7t-24 3.5v12l204 20v-324q0 -85 74 -85q27 0 48 16zM519 90q0 -35 9.5 -45.5t41.5 -14.5v-12l-170 -26q-12 -2 -19 3t-8 11l-1 5v348v12q0 41 -6.5 52.5t-40.5 15.5v12
l194 20v-381zM230 704l196 -163h-59l-274 120z" />
    <glyph glyph-name="uacute" unicode="&#xfa;" horiz-adv-x="587" 
d="M344 78l11 -16q-21 -31 -58 -51t-79 -20q-144 0 -144 153v218v26.5t-1.5 17.5t-4.5 14.5t-10 8t-16 7t-24 3.5v12l204 20v-324q0 -85 74 -85q27 0 48 16zM519 90q0 -35 9.5 -45.5t41.5 -14.5v-12l-170 -26q-12 -2 -19 3t-8 11l-1 5v348v12q0 41 -6.5 52.5t-40.5 15.5v12
l194 20v-381zM158 541l196 163l137 -43l-274 -120h-59z" />
    <glyph glyph-name="ucircumflex" unicode="&#xfb;" horiz-adv-x="587" 
d="M344 78l11 -16q-21 -31 -58 -51t-79 -20q-144 0 -144 153v218v26.5t-1.5 17.5t-4.5 14.5t-10 8t-16 7t-24 3.5v12l204 20v-324q0 -85 74 -85q27 0 48 16zM519 90q0 -35 9.5 -45.5t41.5 -14.5v-12l-170 -26q-12 -2 -19 3t-8 11l-1 5v348v12q0 41 -6.5 52.5t-40.5 15.5v12
l194 20v-381zM176 517h-39l160 190l160 -190h-39l-121 79z" />
    <glyph glyph-name="udieresis" unicode="&#xfc;" horiz-adv-x="587" 
d="M387 546q-27 0 -46 19t-19 46q0 26 19 45t46 19q26 0 45 -19t19 -45q0 -27 -19 -46t-45 -19zM199 546q-27 0 -46 19t-19 46q0 26 19 45t46 19q26 0 45 -19t19 -45q0 -27 -19 -46t-45 -19zM344 78l11 -16q-21 -31 -58 -51t-79 -20q-144 0 -144 153v218v26.5t-1.5 17.5
t-4.5 14.5t-10 8t-16 7t-24 3.5v12l204 20v-324q0 -85 74 -85q27 0 48 16zM519 90q0 -35 9.5 -45.5t41.5 -14.5v-12l-170 -26q-12 -2 -19 3t-8 11l-1 5v348v12q0 41 -6.5 52.5t-40.5 15.5v12l194 20v-381z" />
    <glyph glyph-name="yacute" unicode="&#xfd;" horiz-adv-x="570" 
d="M340 462h214v-13q-38 0 -68 -31t-71 -129l-10 9q5 13 8 32t3.5 49t-19 50t-57.5 20v13zM253 -116l13 -3q-29 -73 -69 -107q-15 -13 -41 -16t-46 6q-29 13 -40 43t1 59q14 29 44 40.5t59 -1.5t39 -44q3 -13 17 -6q13 5 23 29zM363 149l-57 -158h-37l-195 408
q-23 47 -72 50v13h274v-13q-26 0 -32 -18t1 -36l7 -18zM111 541l196 163l137 -43l-274 -120h-59z" />
    <glyph glyph-name="thorn" unicode="&#xfe;" horiz-adv-x="634" 
d="M374 471q94 0 153 -66.5t59 -171.5q0 -67 -21.5 -115.5t-59 -75t-81 -38.5t-94.5 -12v14q84 19 84 215q0 214 -110 214q-42 0 -65 -32.5t-27 -83.5v-178q8 -122 84 -135v-14q-50 6 -84 26v-170q0 -47 8 -70.5t33 -29.5v-13h-228v13q26 7 33 30.5t7 69.5v770q0 26 -10 37
t-41 23v13l198 41v-339q43 78 162 78z" />
    <glyph glyph-name="ydieresis" unicode="&#xff;" horiz-adv-x="570" 
d="M194 547q-27 0 -46 19.5t-19 46.5q0 26 19 45t46 19q26 0 45 -19t19 -45q0 -27 -19 -46.5t-45 -19.5zM382 547q-27 0 -46 19.5t-19 46.5q0 26 19 45t46 19q26 0 45 -19t19 -45q0 -27 -19 -46.5t-45 -19.5zM340 462h214v-13q-38 0 -68 -31t-71 -129l-10 9q5 13 8 32
t3.5 49t-19 50t-57.5 20v13zM253 -116q-16 -36 -33 -30q-6 2 -7 7q-10 31 -39 44t-59 1.5t-44 -40.5q-12 -29 -1 -59t40 -43q20 -9 46 -6t41 16q40 34 69 107zM363 149l-57 -158h-37l-195 408q-23 47 -72 50v13h274v-13q-26 0 -32 -18t1 -36l7 -18z" />
    <glyph glyph-name="Abreve" unicode="&#x102;" horiz-adv-x="732" 
d="M633 90q5 -12 10.5 -21.5t9.5 -17t10 -13.5t9 -9.5t9 -6.5t8.5 -4.5t8.5 -3t7.5 -1.5t7.5 -0.5t7 -0.5v-12h-318v12q22 0 32.5 11.5t10 28t-4.5 33t-10 27.5l-5 12l-31 71h-216q-4 -9 -6.5 -28.5t0 -47t12.5 -51.5t36 -40.5t65 -15.5v-12h-267v12q15 1 24.5 5t28.5 20.5
t43 59.5t53 111h222l-116 273l87 223h11zM494 916h9q0 -66 -33 -108t-100 -42q-69 0 -102.5 42t-33.5 108h10q0 -65 126 -65q124 0 124 65z" />
    <glyph glyph-name="abreve" unicode="&#x103;" horiz-adv-x="545" 
d="M173 294q-23 -11 -48 -3.5t-37 30.5q-18 38 4 67q29 37 65 58l6 -12q-22 -17 1 -24q24 -6 36 -30q13 -23 5 -48t-32 -38zM494 52q23 0 28 17l12 -6q-9 -30 -43 -51t-80 -21q-5 0 -12 0.5t-26.5 5.5t-34 14t-26.5 28.5t-12 46.5v155q-106 -24 -106 -123q0 -7 1 -18
t14 -29.5t37 -18.5q19 0 27 7l9 -11q-43 -57 -121 -57q-12 0 -27.5 3t-38.5 12t-38.5 31.5t-15.5 55.5q0 69 47.5 95.5t188.5 60.5q15 4 23 6v63q0 69 -30.5 105t-75.5 25l-6 12q17 6 35 8.5t27 2.5h10q94 0 140 -53.5t46 -146.5v-149v-7.5t2.5 -17t7 -21.5t14.5 -16.5
t24 -7.5zM411 704h9q0 -66 -33 -108t-100 -42q-69 0 -102.5 42t-33.5 108h10q0 -65 126 -65q124 0 124 65z" />
    <glyph glyph-name="Aogonek" unicode="&#x104;" horiz-adv-x="732" 
d="M640 0q-78 -43 -66 -99q5 -18 18.5 -27t24.5 -8h11q31 7 31 28h13q0 -20 -2.5 -34t-17 -29t-41.5 -20q-28 -4 -47.5 -0.5t-32 12t-19 17.5t-8.5 16l-3 7q-22 87 86 137h-185v12q22 0 32.5 11.5t10 28t-4.5 33t-10 27.5l-5 12l-31 71h-216q-4 -9 -6.5 -28.5t0 -47
t12.5 -51.5t36 -40.5t65 -15.5v-12h-267v12q15 1 24.5 5t28.5 20.5t43 59.5t53 111h222l-116 273l87 223h11l262 -614q5 -12 10.5 -21.5t9.5 -17t10 -13.5t9 -9.5t9 -6.5t8.5 -4.5t8.5 -3t7.5 -1.5t7.5 -0.5t7 -0.5v-12h-80z" />
    <glyph glyph-name="aogonek" unicode="&#x105;" horiz-adv-x="545" 
d="M173 294q-23 -11 -48 -3.5t-37 30.5q-18 38 4 67q29 37 65 58l6 -12q-22 -17 1 -24q24 -6 36 -30q13 -23 5 -48t-32 -38zM436 -7q-67 -42 -55 -93q5 -18 18.5 -27t24.5 -9l11 1q31 7 31 28h13q0 -20 -2.5 -34t-17 -29t-41.5 -20q-28 -4 -47.5 -0.5t-32 12t-19 17.5
t-9.5 16l-2 7q-23 84 76 132q-84 18 -84 92v155q-106 -24 -106 -123q0 -7 1 -18t14 -29.5t37 -18.5q19 0 27 7l9 -11q-43 -57 -121 -57q-12 0 -27.5 3t-38.5 12t-38.5 31.5t-15.5 55.5q0 69 47.5 95.5t188.5 60.5q15 4 23 6v63q0 69 -30.5 105t-75.5 25l-6 12q17 6 35 8.5
t27 2.5h10q94 0 140 -53.5t46 -146.5v-149v-7.5t2.5 -17t7 -21.5t14.5 -16.5t24 -7.5q23 0 28 17l12 -6q-8 -25 -34.5 -45t-63.5 -25z" />
    <glyph glyph-name="Cacute" unicode="&#x106;" horiz-adv-x="700" 
d="M253 352q0 -183 32.5 -260t103.5 -86v-14q-152 9 -250.5 109t-98.5 251t98.5 251t250.5 109v-14q-48 -6 -77 -39t-44 -107.5t-15 -199.5zM637 480q-51 203 -196 219v14q159 -5 221 -53l-12 -180h-13zM637 225h13l12 -180q-76 -49 -221 -54v15q69 9 123 64t73 155z
M222 734l196 163l137 -43l-274 -120h-59z" />
    <glyph glyph-name="cacute" unicode="&#x107;" horiz-adv-x="511" 
d="M461 131l10 -6q-6 -50 -58 -92t-138 -42q-97 0 -163.5 72t-66.5 170q0 97 64.5 164.5t185.5 72.5v-14q-37 -10 -63 -62.5t-26 -145.5q0 -78 34 -120t94 -48q38 -4 75.5 11t51.5 40zM336 388q9 28 35 40q8 4 -5 15t-37 14v13q81 -6 124 -52q13 -12 18 -32t-1 -39
q-8 -28 -34 -42t-54 -4q-28 8 -41.5 34t-4.5 53zM138 541l196 163l137 -43l-274 -120h-59z" />
    <glyph glyph-name="Ccaron" unicode="&#x10c;" horiz-adv-x="700" 
d="M253 352q0 -183 32.5 -260t103.5 -86v-14q-152 9 -250.5 109t-98.5 251t98.5 251t250.5 109v-14q-48 -6 -77 -39t-44 -107.5t-15 -199.5zM637 480q-51 203 -196 219v14q159 -5 221 -53l-12 -180h-13zM637 225h13l12 -180q-76 -49 -221 -54v15q69 9 123 64t73 155z
M262 922h39l121 -79l121 79h39l-160 -190z" />
    <glyph glyph-name="ccaron" unicode="&#x10d;" horiz-adv-x="511" 
d="M461 131l10 -6q-6 -50 -58 -92t-138 -42q-97 0 -163.5 72t-66.5 170q0 97 64.5 164.5t185.5 72.5v-14q-37 -10 -63 -62.5t-26 -145.5q0 -78 34 -120t94 -48q38 -4 75.5 11t51.5 40zM336 388q9 28 35 40q8 4 -5 15t-37 14v13q81 -6 124 -52q13 -12 18 -32t-1 -39
q-8 -28 -34 -42t-54 -4q-28 8 -41.5 34t-4.5 53zM141 704h39l121 -79l121 79h39l-160 -190z" />
    <glyph glyph-name="Dcaron" unicode="&#x10e;" horiz-adv-x="784" 
d="M41 704h236v-704h-236v13q31 0 49 35.5t18 88.5v429q0 50 -18 87.5t-49 37.5v13zM321 704q65 0 121.5 -8.5t114.5 -32.5t98.5 -62t66.5 -102.5t26 -149.5q0 -349 -427 -349v13q32 0 53.5 3t49 13t45.5 32.5t34 58.5t24 94t8 135q0 92 -12.5 157t-30.5 100.5t-48.5 55
t-57 24.5t-65.5 5v13zM195 922h39l121 -79l121 79h39l-160 -190z" />
    <glyph glyph-name="dcaron" unicode="&#x10f;" horiz-adv-x="777" 
d="M563 93q0 -36 10 -48.5t41 -16.5v-13l-170 -23q-12 -2 -19 2.5t-8 9.5l-1 6v75q-17 -45 -63.5 -69.5t-95.5 -24.5q-97 0 -156.5 63t-59.5 179q0 64 20.5 111t56 73.5t78 39t93.5 13.5v-14q-76 -16 -76 -207q0 -109 25 -159t82 -50q39 0 66 27t30 65v171q0 71 -26 109.5
t-67 43.5v14q61 -7 93 -36v198q0 26 -10 38.5t-41 23.5v12l198 40v-653zM743 704h-109q0 -71 -12 -121t-24 -65l-12 -14l11 -14q6 3 16 8.5t35 26t44 43.5t35 60t16 76z" />
    <glyph glyph-name="Dcroat" unicode="&#x110;" horiz-adv-x="799" 
d="M330 704q64 -1 119.5 -10t112 -33.5t96.5 -62.5t65 -102t25 -147q0 -345 -418 -349v13q38 1 63 6t54.5 24.5t47 54t29 98t11.5 153.5q0 89 -11.5 152.5t-29 99.5t-46 56.5t-55 26.5t-63.5 7v13zM416 359v-13h-138v-346h-236v13q31 0 49 35.5t18 88.5v209h-78v13h78v207
q0 50 -18 87.5t-49 37.5v13h236v-345h138z" />
    <glyph glyph-name="dcroat" unicode="&#x111;" horiz-adv-x="645" 
d="M324 570v13h92v49q0 26 -10 38.5t-41 23.5v12l198 40v-163h81v-13h-81v-477q0 -36 10 -48.5t41 -16.5v-13l-170 -23q-12 -2 -19 2.5t-8 9.5l-1 6v75q-17 -45 -63.5 -69.5t-95.5 -24.5q-97 0 -156.5 63t-59.5 179q0 64 20.5 111t56 73.5t78 39t93.5 13.5v-14
q-76 -16 -76 -207q0 -109 25 -159t82 -50q39 0 66 27t30 65v171q0 71 -26 109.5t-67 43.5v14q61 -7 93 -36v136h-92z" />
    <glyph glyph-name="Eogonek" unicode="&#x118;" 
d="M453 238q-3 34 -19.5 58t-39.5 34t-39 14t-29 4h-19v15h19q13 0 29 3.5t39 13.5t39.5 34.5t19.5 58.5h13v-235h-13zM557 0q-81 -44 -67 -100q5 -18 18.5 -27t24.5 -9l11 1q31 7 31 28h13q0 -20 -2.5 -34t-17 -29t-41.5 -20q-28 -4 -47.5 -0.5t-32 12t-19 17.5t-8.5 16
l-3 7q-24 89 88 138h-198v14q25 1 49 4.5t67 15.5t74.5 31t58 56t31.5 86h13v-207h-43zM574 507q-2 38 -18.5 68.5t-43.5 49t-54.5 32t-60 20t-52.5 9.5t-38 4v14h280v-197h-13zM27 692v12h228v-704h-228v13q58 0 58 124v429q0 53 -14 89.5t-44 36.5z" />
    <glyph glyph-name="eogonek" unicode="&#x119;" horiz-adv-x="530" 
d="M314 55q42 -10 87 11t61 68l13 -5q-12 -50 -59.5 -90.5t-125.5 -46.5q-65 -41 -53 -92q5 -18 18.5 -27t24.5 -9l11 1q31 7 31 28h13q0 -20 -2.5 -34t-17 -29t-41.5 -20q-28 -4 -47.5 -0.5t-32 12t-19 17.5t-9.5 16l-2 7q-22 84 73 131q-87 11 -144 79.5t-57 156.5
q0 107 64.5 171t160.5 70v-13q-30 -14 -48.5 -75t-18.5 -129h161q0 180 -59 204v13q193 -8 193 -230h-295q3 -88 34 -130.5t86 -54.5z" />
    <glyph glyph-name="Ecaron" unicode="&#x11a;" 
d="M27 692v12h228v-704h-228v13q58 0 58 124v429q0 53 -14 89.5t-44 36.5zM574 507q-2 38 -18.5 68.5t-43.5 49t-54.5 32t-60 20t-52.5 9.5t-38 4v14h280v-197h-13zM587 207h13v-207h-293v14q25 1 49 4.5t67 15.5t74.5 31t58 56t31.5 86zM453 238q-3 34 -19.5 58t-39.5 34
t-39 14t-29 4h-19v15h19q13 0 29 3.5t39 13.5t39.5 34.5t19.5 58.5h13v-235h-13zM192 922h39l121 -79l121 79h39l-160 -190z" />
    <glyph glyph-name="ecaron" unicode="&#x11b;" horiz-adv-x="530" 
d="M314 55q42 -10 87 11t61 68l13 -5q-13 -55 -67 -96.5t-143 -41.5q-97 0 -163 71t-66 167q0 107 64.5 171t160.5 70v-13q-30 -14 -48.5 -75t-18.5 -129h161q0 180 -59 204v13q193 -8 193 -230h-295q3 -88 34 -130.5t86 -54.5zM126 704h39l121 -79l121 79h39l-160 -190z
" />
    <glyph glyph-name="dotlessi" unicode="&#x131;" horiz-adv-x="303" 
d="M266 12v-12h-228v12q26 8 33 33t7 72v233q0 26 -10.5 39.5t-41.5 27.5v13l199 41v-354q0 -47 8 -72.5t33 -32.5z" />
    <glyph glyph-name="Lacute" unicode="&#x139;" 
d="M274 612v-612h-228v13q31 0 43.5 23t12.5 75v507q0 44 -15 59t-49 15v12h308v-12q-37 0 -54.5 -15t-17.5 -65zM595 217v-217h-269v15q37 3 73.5 12.5t78.5 30t70.5 61.5t33.5 98h13zM143 735l196 163l137 -43l-274 -120h-59z" />
    <glyph glyph-name="lacute" unicode="&#x13a;" horiz-adv-x="288" 
d="M261 12v-12h-228v12q26 7 33 32t7 73v512q0 27 -11 40.5t-41 24.5v12l199 40v-629q0 -47 8 -72.5t33 -32.5zM10 764l196 163l137 -43l-274 -120h-59z" />
    <glyph glyph-name="Lcaron" unicode="&#x13d;" 
d="M380 704h109q0 -39 -15 -76t-36.5 -61t-43 -42t-36.5 -27l-15 -8l-10 14q5 5 13 16t21 62t13 122zM274 612v-612h-228v13q31 0 43.5 23t12.5 75v507q0 44 -15 59t-49 15v12h308v-12q-37 0 -54.5 -15t-17.5 -65zM595 217v-217h-269v15q37 3 73.5 12.5t78.5 30t70.5 61.5
t33.5 98h13z" />
    <glyph glyph-name="lcaron" unicode="&#x13e;" horiz-adv-x="456" 
d="M261 12v-12h-228v12q18 5 27 22t10.5 33.5t1.5 49.5v512q0 26 -10.5 40t-40.5 25v12l199 40v-629q0 -47 8 -72.5t33 -32.5zM300 704h110q0 -39 -15 -76t-37 -61t-43.5 -42t-36.5 -27l-15 -8l-10 14q5 5 13 16t21 62t13 122z" />
    <glyph glyph-name="Lslash" unicode="&#x141;" 
d="M446 483v-16l-171 -94v-373h-228v13q31 0 43.5 25t12.5 78v163l-129 -71v16l129 71v323q0 44 -14.5 58.5t-49.5 14.5v13h308v-13q-37 0 -54.5 -15t-17.5 -65v-222zM583 217h13v-217h-269v14q119 7 187.5 70.5t68.5 132.5z" />
    <glyph glyph-name="lslash" unicode="&#x142;" horiz-adv-x="351" 
d="M7 273v16l94 55v285q0 26 -10.5 40t-40.5 25v12l199 40v-316l87 52v-16l-87 -52v-297q0 -47 8 -72.5t32 -32.5v-12h-227v12q18 5 27 22t10.5 33.5t1.5 49.5v211z" />
    <glyph glyph-name="Nacute" unicode="&#x143;" horiz-adv-x="840" 
d="M183 240q0 -16 1 -31t4.5 -45t13.5 -53.5t24.5 -47t40.5 -37t60 -13.5v-13h-311v13q34 0 61 13.5t43 37t27 48t15.5 52.5t6 45t1.5 31h13zM5 704h282l384 -511v-193h-81l-463 616q-11 15 -22 26.5t-19.5 19t-18 13t-15 8.5t-14.5 5t-11.5 2.5t-11.5 1t-10 0.5v12z
M518 692v12h303v-12q-39 0 -68 -19.5t-44 -46.5t-24.5 -61.5t-11.5 -57.5t-2 -42h-13q0 19 -2.5 42t-11 57.5t-23 61.5t-41.5 46.5t-62 19.5zM273 735l196 163l137 -43l-274 -120h-59z" />
    <glyph glyph-name="nacute" unicode="&#x144;" horiz-adv-x="565" 
d="M208 116q0 -46 8.5 -71.5t32.5 -32.5v-12h-228v12q18 5 27 22t10.5 33.5t1.5 48.5v235q0 26 -10 39.5t-41 26.5v13l199 41v-355zM502 118q0 -47 8.5 -73.5t32.5 -32.5v-12h-228v12q26 7 33 33t7 73v197q0 40 -19.5 62t-55.5 22q-21 0 -36 -11l-11 16q56 67 124 67
q145 0 145 -152v-201zM172 541l196 163l137 -43l-274 -120h-59z" />
    <glyph glyph-name="Ncaron" unicode="&#x147;" horiz-adv-x="840" 
d="M183 240q0 -16 1 -31t4.5 -45t13.5 -53.5t24.5 -47t40.5 -37t60 -13.5v-13h-311v13q34 0 61 13.5t43 37t27 48t15.5 52.5t6 45t1.5 31h13zM5 704h282l384 -511v-193h-81l-463 616q-11 15 -22 26.5t-19.5 19t-18 13t-15 8.5t-14.5 5t-11.5 2.5t-11.5 1t-10 0.5v12z
M518 692v12h303v-12q-39 0 -68 -19.5t-44 -46.5t-24.5 -61.5t-11.5 -57.5t-2 -42h-13q0 19 -2.5 42t-11 57.5t-23 61.5t-41.5 46.5t-62 19.5zM253 922h39l121 -79l121 79h39l-160 -190z" />
    <glyph glyph-name="ncaron" unicode="&#x148;" horiz-adv-x="565" 
d="M208 116q0 -46 8.5 -71.5t32.5 -32.5v-12h-228v12q18 5 27 22t10.5 33.5t1.5 48.5v235q0 26 -10 39.5t-41 26.5v13l199 41v-355zM502 118q0 -47 8.5 -73.5t32.5 -32.5v-12h-228v12q26 7 33 33t7 73v197q0 40 -19.5 62t-55.5 22q-21 0 -36 -11l-11 16q56 67 124 67
q145 0 145 -152v-201zM156 704h39l121 -79l121 79h39l-160 -190z" />
    <glyph glyph-name="Ohungarumlaut" unicode="&#x150;" horiz-adv-x="789" 
d="M751 347q0 -146 -89.5 -246t-240.5 -109v13q73 7 97.5 78t24.5 264t-25 268t-97 84v13q150 -10 240 -114t90 -251zM247 347q0 -192 24.5 -263t97.5 -79v-13q-150 9 -239 109t-89 246q0 147 89.5 251.5t238.5 113.5v-14q-72 -8 -97 -83t-25 -268zM431 735l197 163l137 -42
l-275 -121h-59zM196 735l197 163l137 -42l-274 -121h-60z" />
    <glyph glyph-name="ohungarumlaut" unicode="&#x151;" horiz-adv-x="569" 
d="M216 231q0 -128 10.5 -173.5t45.5 -52.5v-13q-111 5 -171 72t-60 167t59.5 167t171.5 72v-14q-35 -6 -45.5 -51.5t-10.5 -173.5zM537 231q0 -99 -60 -166.5t-171 -72.5v13q34 7 45 53.5t11 172.5t-11 172t-45 53v14q111 -5 171 -72t60 -167zM312 541l197 163l137 -42
l-275 -121h-59zM77 541l197 163l137 -42l-274 -121h-60z" />
    <glyph glyph-name="OE" unicode="&#x152;" horiz-adv-x="1039" 
d="M832 238q-8 91 -103 110q-3 1 -4 1h-10v13h10q52 12 76 36q27 28 31 75h13v-235h-13zM953 506q-3 38 -18.5 68.5t-39 49.5t-48 32.5t-53 20t-46 9.5t-33.5 4v14h251v-198h-13zM249 347q0 -190 21.5 -261.5t82.5 -79.5v-14q-148 9 -229 107.5t-81 247.5t81.5 252.5
t228.5 112.5v-14q-61 -10 -82.5 -84.5t-21.5 -266.5zM405 712q20 -3 41 -8h217v-704h-215q-6 -1 -20.5 -4t-22.5 -4v13q43 5 63.5 35.5t20.5 104.5v408q0 76 -20.5 108.5t-63.5 37.5v13zM966 207h13v-207h-264v14q22 1 44 4.5t60.5 16t66.5 31.5t52 56t28 85z" />
    <glyph glyph-name="oe" unicode="&#x153;" horiz-adv-x="800" 
d="M215 230q0 -131 7.5 -174.5t38.5 -49.5v-14q-109 5 -164.5 71t-55.5 167q0 102 55.5 168.5t164.5 71.5v-14q-31 -7 -38.5 -51t-7.5 -175zM602 55q40 -9 77 13.5t53 66.5l14 -5q-31 -139 -181 -139q-72 0 -135 51q-53 -46 -134 -50v14q30 6 37.5 50t7.5 174q0 129 -8 174
t-37 52v14q80 -4 134 -53q62 48 121 53v-13q-49 -26 -49 -205h127q0 184 -44 205v13q86 -5 129.5 -59t43.5 -172h-256q1 -92 24.5 -132t75.5 -52z" />
    <glyph glyph-name="Racute" unicode="&#x154;" horiz-adv-x="755" 
d="M641 121q13 -51 47.5 -78.5t60.5 -29.5v-13h-146q-87 0 -110 30t-54 172q-3 14 -5 22q-18 82 -124 98v14q43 0 65 4.5t41 22.5t25.5 53t6.5 97q0 42 -3 72t-12 49.5t-18 31t-27.5 17t-34 7t-43.5 1.5v13q78 -1 133 -8.5t104.5 -27t74.5 -58.5t25 -97q0 -167 -214 -181
q36 1 64 -7t55 -30t49 -65t40 -109zM258 704v-587q0 -60 13.5 -82t46.5 -22v-13h-295v13q34 0 48 21.5t14 82.5v485q0 47 -14.5 68t-47.5 21v13h235zM199 735l196 163l137 -43l-274 -120h-59z" />
    <glyph glyph-name="racute" unicode="&#x155;" horiz-adv-x="463" 
d="M212 117q0 -47 8 -72.5t33 -32.5v-12h-228v12q26 8 32.5 32.5t6.5 72.5v233q0 26 -10 40t-41 27v13l199 41v-354zM337 465q18 9 44 4.5t44 -19.5q26 -22 29 -57.5t-20 -60.5q-23 -26 -57.5 -28.5t-61.5 19.5q-27 25 -27 55q0 5 -6 6t-17 -3.5t-22 -15.5l-9 11
q23 31 44.5 51t30.5 24.5t28 13.5zM109 541l196 163l137 -43l-274 -120h-59z" />
    <glyph glyph-name="Rcaron" unicode="&#x158;" horiz-adv-x="755" 
d="M641 121q13 -51 47.5 -78.5t60.5 -29.5v-13h-146q-87 0 -110 30t-54 172q-3 14 -5 22q-18 82 -124 98v14q43 0 65 4.5t41 22.5t25.5 53t6.5 97q0 42 -3 72t-12 49.5t-18 31t-27.5 17t-34 7t-43.5 1.5v13q78 -1 133 -8.5t104.5 -27t74.5 -58.5t25 -97q0 -167 -214 -181
q36 1 64 -7t55 -30t49 -65t40 -109zM258 704v-587q0 -60 13.5 -82t46.5 -22v-13h-295v13q34 0 48 21.5t14 82.5v485q0 47 -14.5 68t-47.5 21v13h235zM180 922h39l121 -79l121 79h39l-160 -190z" />
    <glyph glyph-name="rcaron" unicode="&#x159;" horiz-adv-x="463" 
d="M212 117q0 -47 8 -72.5t33 -32.5v-12h-228v12q26 8 32.5 32.5t6.5 72.5v233q0 26 -10 40t-41 27v13l199 41v-354zM337 465q18 9 44 4.5t44 -19.5q26 -22 29 -57.5t-20 -60.5q-23 -26 -57.5 -28.5t-61.5 19.5q-27 25 -27 55q0 5 -6 6t-17 -3.5t-22 -15.5l-9 11
q23 31 44.5 51t30.5 24.5t28 13.5zM56 705h39l121 -79l121 79h39l-160 -190z" />
    <glyph glyph-name="Sacute" unicode="&#x15a;" horiz-adv-x="620" 
d="M523 498q-7 22 -15 42.5t-25.5 49t-39 49.5t-55 38t-73.5 21v14q68 -2 123.5 -13.5t76.5 -22.5l21 -10v-168h-13zM56 239q7 -22 17 -46.5t30 -57t44.5 -58.5t61.5 -46t79 -25v-15q-77 2 -138.5 16t-83.5 27l-23 13v192h13zM430 387q101 -66 129 -148.5t-27 -165.5
q-2 -3 -6 -8t-19.5 -18t-35.5 -23.5t-55 -20t-76 -11.5v13q32 8 50.5 33t20 57.5t-18.5 70t-60 66.5l-154 97q-108 68 -135.5 147t33.5 161q2 3 6 7.5t19.5 16.5t35 21.5t53.5 18.5t73 11v-13q-32 -7 -51 -30t-20.5 -52.5t20 -64.5t64.5 -63zM166 735l196 163l137 -43
l-274 -120h-59z" />
    <glyph glyph-name="sacute" unicode="&#x15b;" horiz-adv-x="448" 
d="M309 269q67 -41 85.5 -107t-20.5 -117q-4 -5 -12.5 -13.5t-42 -23t-76.5 -17.5v15q28 6 38.5 29.5t-1.5 53.5t-45 51l-101 61q-71 46 -88.5 107t25.5 114q4 5 12 12.5t41 20.5t75 15v-14q-27 -6 -39 -25.5t-0.5 -47t48.5 -51.5zM367 335q-11 46 -46.5 81t-86.5 41v14
q45 -1 81.5 -8.5t50.5 -14.5l14 -6v-107h-13zM60 159q14 -54 53.5 -100t95.5 -54v-14q-48 2 -88.5 12t-56.5 19l-17 9v128h13zM91 541l196 163l137 -43l-274 -120h-59z" />
    <glyph glyph-name="Scedilla" unicode="&#x15e;" horiz-adv-x="620" 
d="M523 498q-7 22 -15 42.5t-25.5 49t-39 49.5t-55 38t-73.5 21v14q68 -2 123.5 -13.5t76.5 -22.5l21 -10v-168h-13zM56 239q7 -22 17 -46.5t30 -57t44.5 -58.5t61.5 -46t79 -25v-15q-77 2 -138.5 16t-83.5 27l-23 13v192h13zM430 387q101 -66 129 -148.5t-27 -165.5
q-2 -3 -6 -8t-19.5 -18t-35.5 -23.5t-55 -20t-76 -11.5v13q32 8 50.5 33t20 57.5t-18.5 70t-60 66.5l-154 97q-108 68 -135.5 147t33.5 161q2 3 6 7.5t19.5 16.5t35 21.5t53.5 18.5t73 11v-13q-32 -7 -51 -30t-20.5 -52.5t20 -64.5t64.5 -63zM246 -103l14 37q73 20 112 -8
t33 -75q-5 -45 -38 -63t-71 -18q-45 0 -70 22q-15 11 -12 33q4 14 16 21t25 4q14 -3 21.5 -14.5t4.5 -25.5t-13 -18q-6 -3 5 -7q8 -2 21 -2q21 0 33 14.5t11 34.5q0 23 -21.5 48t-70.5 17z" />
    <glyph glyph-name="scedilla" unicode="&#x15f;" horiz-adv-x="448" 
d="M309 269q67 -41 85.5 -107t-20.5 -117q-4 -5 -12.5 -13.5t-42 -23t-76.5 -17.5v15q28 6 38.5 29.5t-1.5 53.5t-45 51l-101 61q-71 46 -88.5 107t25.5 114q4 5 12 12.5t41 20.5t75 15v-14q-27 -6 -39 -25.5t-0.5 -47t48.5 -51.5zM367 335q-11 46 -46.5 81t-86.5 41v14
q45 -1 81.5 -8.5t50.5 -14.5l14 -6v-107h-13zM60 159q14 -54 53.5 -100t95.5 -54v-14q-48 2 -88.5 12t-56.5 19l-17 9v128h13zM171 -66l-14 -37q49 8 70.5 -17t21.5 -48q1 -20 -11 -34.5t-33 -14.5q-26 2 -26 9q10 4 13 18t-4.5 25.5t-21.5 14.5q-13 3 -25 -4t-16 -21
q-3 -22 12 -33q25 -22 70 -22q38 0 71 18t38 63q6 47 -33 75t-112 8z" />
    <glyph glyph-name="Scaron" unicode="&#x160;" horiz-adv-x="620" 
d="M523 498q-7 22 -15 42.5t-25.5 49t-39 49.5t-55 38t-73.5 21v14q68 -2 123.5 -13.5t76.5 -22.5l21 -10v-168h-13zM56 239q7 -22 17 -46.5t30 -57t44.5 -58.5t61.5 -46t79 -25v-15q-77 2 -138.5 16t-83.5 27l-23 13v192h13zM430 387q101 -66 129 -148.5t-27 -165.5
q-2 -3 -6 -8t-19.5 -18t-35.5 -23.5t-55 -20t-76 -11.5v13q32 8 50.5 33t20 57.5t-18.5 70t-60 66.5l-154 97q-108 68 -135.5 147t33.5 161q2 3 6 7.5t19.5 16.5t35 21.5t53.5 18.5t73 11v-13q-32 -7 -51 -30t-20.5 -52.5t20 -64.5t64.5 -63zM149 922h39l121 -79l121 79h39
l-160 -190z" />
    <glyph glyph-name="scaron" unicode="&#x161;" horiz-adv-x="448" 
d="M309 269q67 -41 85.5 -107t-20.5 -117q-4 -5 -12.5 -13.5t-42 -23t-76.5 -17.5v15q28 6 38.5 29.5t-1.5 53.5t-45 51l-101 61q-71 46 -88.5 107t25.5 114q4 5 12 12.5t41 20.5t75 15v-14q-27 -6 -39 -25.5t-0.5 -47t48.5 -51.5zM367 335q-11 46 -46.5 81t-86.5 41v14
q45 -1 81.5 -8.5t50.5 -14.5l14 -6v-107h-13zM60 159q14 -54 53.5 -100t95.5 -54v-14q-48 2 -88.5 12t-56.5 19l-17 9v128h13zM68 682h39l121 -79l121 79h39l-160 -190z" />
    <glyph glyph-name="uni0162" unicode="&#x162;" horiz-adv-x="727" 
d="M19 704h687v-213h-13q-2 42 -22.5 77t-48.5 57t-60.5 37.5t-57.5 22t-39 6.5h-15v-574q0 -104 65 -104v-13h-305v13q65 0 65 104v574h-15q-19 0 -53 -11t-74 -33t-69.5 -63.5t-31.5 -92.5h-13v213zM310 -98l14 37q73 20 112 -8t33 -75q-5 -45 -38 -63t-71 -18
q-45 0 -70 22q-15 11 -12 33q4 14 16 21t25 4q14 -3 21.5 -14.5t4.5 -25.5t-13 -18q-6 -3 5 -7q8 -2 21 -2q21 0 33 14.5t11 34.5q0 23 -21.5 48t-70.5 17z" />
    <glyph glyph-name="uni0163" unicode="&#x163;" horiz-adv-x="375" 
d="M353 95l11 -6q-13 -39 -54 -68.5t-92 -29.5q-148 0 -148 153v305h-56l-2 13h58v134l147 21v-155h124l-2 -13h-122v-302q0 -84 76 -84q37 0 60 32zM128 -98l14 37q73 20 112 -8t33 -75q-5 -45 -38 -63t-71 -18q-45 0 -70 22q-15 11 -12 33q4 14 16 21t25 4
q14 -3 21.5 -14.5t4.5 -25.5t-13 -18q-6 -3 5 -7q8 -2 21 -2q21 0 33 14.5t11 34.5q0 23 -21.5 48t-70.5 17z" />
    <glyph glyph-name="Tcaron" unicode="&#x164;" horiz-adv-x="727" 
d="M19 704h687v-213h-13q-2 42 -22.5 77t-48.5 57t-60.5 37.5t-57.5 22t-39 6.5h-15v-574q0 -104 65 -104v-13h-305v13q65 0 65 104v574h-15q-19 0 -53 -11t-74 -33t-69.5 -63.5t-31.5 -92.5h-13v213zM208 922h39l121 -79l121 79h39l-160 -190z" />
    <glyph glyph-name="tcaron" unicode="&#x165;" horiz-adv-x="422" 
d="M353 95l11 -6q-13 -39 -54 -68.5t-92 -29.5q-148 0 -148 153v305h-56l-2 13h58v134l147 21v-155h124l-2 -13h-122v-302q0 -84 76 -84q37 0 60 32zM289 704h109q0 -39 -15 -76t-36.5 -61t-43 -42t-36.5 -27l-15 -8l-10 14q5 5 13 16t21 62t13 122z" />
    <glyph glyph-name="Uring" unicode="&#x16e;" horiz-adv-x="760" 
d="M587 508q0 22 -4 47t-16 59t-40 55.5t-68 21.5v13h282v-13q-37 0 -64.5 -15.5t-41.5 -36.5t-22.5 -49.5t-10.5 -46.5t-2 -35h-13zM424 51q71 0 117 48.5t46 129.5h13q0 -121 -73 -179.5t-182 -58.5t-183.5 64t-74.5 181v367q0 46 -13.5 67t-46.5 21v13h302v-13
q-35 0 -51 -18.5t-16 -69.5v-374q0 -86 44 -132t118 -46zM353 880q0 -20 13.5 -33.5t32.5 -13.5q20 0 33.5 13.5t13.5 33.5t-13.5 33.5t-33.5 13.5t-33 -13.5t-13 -33.5zM499 880q0 -40 -29.5 -69t-70.5 -29t-70 29t-29 69q0 41 29 69.5t70 28.5t70.5 -28.5t29.5 -69.5z" />
    <glyph glyph-name="uring" unicode="&#x16f;" horiz-adv-x="587" 
d="M344 78l11 -16q-21 -31 -58 -51t-79 -20q-144 0 -144 153v218v26.5t-1.5 17.5t-4.5 14.5t-10 8t-16 7t-24 3.5v12l204 20v-324q0 -85 74 -85q27 0 48 16zM519 90q0 -35 9.5 -45.5t41.5 -14.5v-12l-170 -26q-12 -2 -19 3t-8 11l-1 5v348v12q0 41 -6.5 52.5t-40.5 15.5v12
l194 20v-381zM262 615q0 -20 13.5 -33.5t32.5 -13.5q20 0 33.5 13.5t13.5 33.5t-13.5 33.5t-33.5 13.5t-33 -13.5t-13 -33.5zM408 615q0 -40 -29.5 -69t-70.5 -29t-70 29t-29 69q0 41 29 69.5t70 28.5t70.5 -28.5t29.5 -69.5z" />
    <glyph glyph-name="Uhungarumlaut" unicode="&#x170;" horiz-adv-x="760" 
d="M587 508q0 22 -4 47t-16 59t-40 55.5t-68 21.5v13h282v-13q-37 0 -64.5 -15.5t-41.5 -36.5t-22.5 -49.5t-10.5 -46.5t-2 -35h-13zM424 51q71 0 117 48.5t46 129.5h13q0 -121 -73 -179.5t-182 -58.5t-183.5 64t-74.5 181v367q0 46 -13.5 67t-46.5 21v13h302v-13
q-35 0 -51 -18.5t-16 -69.5v-374q0 -86 44 -132t118 -46zM444 735l197 163l137 -42l-275 -121h-59zM209 735l197 163l137 -42l-274 -121h-60z" />
    <glyph glyph-name="uhungarumlaut" unicode="&#x171;" horiz-adv-x="587" 
d="M344 78l11 -16q-21 -31 -58 -51t-79 -20q-144 0 -144 153v218v26.5t-1.5 17.5t-4.5 14.5t-10 8t-16 7t-24 3.5v12l204 20v-324q0 -85 74 -85q27 0 48 16zM519 90q0 -35 9.5 -45.5t41.5 -14.5v-12l-170 -26q-12 -2 -19 3t-8 11l-1 5v348v12q0 41 -6.5 52.5t-40.5 15.5v12
l194 20v-381zM314 541l197 163l137 -42l-275 -121h-59zM79 541l197 163l137 -42l-274 -121h-60z" />
    <glyph glyph-name="Ydieresis" unicode="&#x178;" horiz-adv-x="788" 
d="M425 833q0 26 19 45t46 19q26 0 45 -19t19 -45q0 -27 -19 -46t-45 -19q-27 0 -46 19t-19 46zM237 833q0 26 19 45t46 19q26 0 45 -19t19 -45q0 -27 -19 -46t-45 -19q-27 0 -46 19t-19 46zM477 117q0 -104 60 -104v-13h-292v13q61 0 61 104v159q-65 116 -114 200t-65 110
l-16 27q-21 36 -38.5 54t-27.5 21t-26 4v12h310v-12q-13 0 -19 -0.5t-14.5 -6.5t-7.5 -17t9.5 -34t28.5 -56l151 -251v-210zM476 691v13h295v-13q-19 0 -41 -8.5t-51 -29.5t-62.5 -66t-66.5 -109l-10 10q5 10 11 30.5t9.5 51t-0.5 57t-25 45.5t-59 19z" />
    <glyph glyph-name="Zacute" unicode="&#x179;" horiz-adv-x="635" 
d="M66 704h311l-9 -13q-117 0 -200.5 -52t-103.5 -137h-14zM295 13q118 2 197.5 66t95.5 154h13l-20 -233h-293zM613 704l-369 -704h-221l396 704h194zM207 735l196 163l137 -43l-274 -120h-59z" />
    <glyph glyph-name="zacute" unicode="&#x17a;" horiz-adv-x="492" 
d="M64 462h198l-8 -15q-146 -11 -183 -117h-12zM296 462h166l-249 -462h-183zM255 15q131 15 174 137h12l-9 -152h-185zM117 541l196 163l137 -43l-274 -120h-59z" />
    <glyph glyph-name="Zdotaccent" unicode="&#x17b;" horiz-adv-x="635" 
d="M66 704h311l-9 -13q-117 0 -200.5 -52t-103.5 -137h-14zM295 13q118 2 197.5 66t95.5 154h13l-20 -233h-293zM613 704l-369 -704h-221l396 704h194zM361 766q-29 0 -50 21t-21 50q0 28 21 48t50 20t49 -20t20 -48q0 -29 -20.5 -50t-48.5 -21z" />
    <glyph glyph-name="zdotaccent" unicode="&#x17c;" horiz-adv-x="492" 
d="M64 462h198l-8 -15q-146 -11 -183 -117h-12zM296 462h166l-249 -462h-183zM255 15q131 15 174 137h12l-9 -152h-185zM276 546q-29 0 -50 21t-21 50q0 28 21 48t50 20t49 -20t20 -48q0 -29 -20.5 -50t-48.5 -21z" />
    <glyph glyph-name="Zcaron" unicode="&#x17d;" horiz-adv-x="635" 
d="M66 704h311l-9 -13q-117 0 -200.5 -52t-103.5 -137h-14zM295 13q118 2 197.5 66t95.5 154h13l-20 -233h-293zM613 704l-369 -704h-221l396 704h194zM197 922h39l121 -79l121 79h39l-160 -190z" />
    <glyph glyph-name="zcaron" unicode="&#x17e;" horiz-adv-x="492" 
d="M87 682h39l121 -79l121 79h39l-160 -190zM64 462h198l-8 -15q-146 -11 -183 -117h-12zM296 462h166l-249 -462h-183zM255 15q131 15 174 137h12l-9 -152h-185z" />
    <glyph glyph-name="florin" unicode="&#x192;" horiz-adv-x="723" 
d="M680 611q-12 -24 -37.5 -32.5t-48.5 2.5q-25 12 -33.5 37.5t3.5 49.5q13 26 36 32q8 2 4 11q-7 12 -37 12q-31 0 -57 -56.5t-36 -112.5l-11 -56l-16 -118h125l-4 -13h-122l-37 -269q-24 -178 -88 -258t-174 -79q-41 0 -71.5 16.5t-41.5 34.5q-22 37 -4 73q12 25 37.5 34
t49.5 -3t32.5 -37.5t-3.5 -50.5q-13 -25 -36 -31q-8 -2 -4 -10q6 -14 41 -14q30 0 55.5 56t35.5 112l11 56l47 370h-95l2 13h94q27 176 96.5 265.5t173.5 89.5q35 0 66 -17t42 -34q9 -15 11 -35.5t-6 -37.5z" />
    <glyph glyph-name="uni0218" unicode="&#x218;" horiz-adv-x="620" 
d="M260 -340q58 32 89 79q20 31 34 63.5t15 74t-25 67.5q-27 27 -66 27t-66 -27q-27 -28 -27 -67t28 -66q22 -20 63 -26q6 -4 6 -20.5t-17 -44.5t-43 -48zM523 498q-7 22 -15 42.5t-25.5 49t-39 49.5t-55 38t-73.5 21v14q68 -2 123.5 -13.5t76.5 -22.5l21 -10v-168h-13z
M56 239q7 -22 17 -46.5t30 -57t44.5 -58.5t61.5 -46t79 -25v-15q-77 2 -138.5 16t-83.5 27l-23 13v192h13zM430 387q101 -66 129 -148.5t-27 -165.5q-2 -3 -6 -8t-19.5 -18t-35.5 -23.5t-55 -20t-76 -11.5v13q32 8 50.5 33t20 57.5t-18.5 70t-60 66.5l-154 97
q-108 68 -135.5 147t33.5 161q2 3 6 7.5t19.5 16.5t35 21.5t53.5 18.5t73 11v-13q-32 -7 -51 -30t-20.5 -52.5t20 -64.5t64.5 -63z" />
    <glyph glyph-name="uni0219" unicode="&#x219;" horiz-adv-x="448" 
d="M174 -340q58 32 89 79q20 31 34 63.5t15 74t-25 67.5q-27 27 -66 27t-66 -27q-27 -28 -27 -67t28 -66q22 -20 63 -26q6 -4 6 -20.5t-17 -44.5t-43 -48zM309 269q67 -41 85.5 -107t-20.5 -117q-4 -5 -12.5 -13.5t-42 -23t-76.5 -17.5v15q28 6 38.5 29.5t-1.5 53.5t-45 51
l-101 61q-71 46 -88.5 107t25.5 114q4 5 12 12.5t41 20.5t75 15v-14q-27 -6 -39 -25.5t-0.5 -47t48.5 -51.5zM367 335q-11 46 -46.5 81t-86.5 41v14q45 -1 81.5 -8.5t50.5 -14.5l14 -6v-107h-13zM60 159q14 -54 53.5 -100t95.5 -54v-14q-48 2 -88.5 12t-56.5 19l-17 9v128
h13z" />
    <glyph glyph-name="uni021A" unicode="&#x21a;" horiz-adv-x="727" 
d="M316 -340l-9 12q26 20 43 48t17 44.5t-6 20.5q-41 6 -63 26q-28 27 -28 66t27 67q27 27 66 27t66 -27q26 -26 25 -67.5t-15 -74t-34 -63.5q-31 -47 -89 -79zM19 704h687v-213h-13q-2 42 -22.5 77t-48.5 57t-60.5 37.5t-57.5 22t-39 6.5h-15v-574q0 -104 65 -104v-13h-305
v13q65 0 65 104v574h-15q-19 0 -53 -11t-74 -33t-69.5 -63.5t-31.5 -92.5h-13v213z" />
    <glyph glyph-name="uni021B" unicode="&#x21b;" horiz-adv-x="375" 
d="M160 -340l-9 12q26 20 43 48t17 44.5t-6 20.5q-41 6 -63 26q-28 27 -28 66t27 67q27 27 66 27t66 -27q26 -26 25 -67.5t-15 -74t-34 -63.5q-31 -47 -89 -79zM353 95l11 -6q-13 -39 -54 -68.5t-92 -29.5q-148 0 -148 153v305h-56l-2 13h58v134l147 21v-155h124l-2 -13
h-122v-302q0 -84 76 -84q37 0 60 32z" />
    <glyph glyph-name="circumflex" unicode="&#x2c6;" horiz-adv-x="320" 
d="M320 531h-38l-122 80l-121 -80h-39l160 191z" />
    <glyph glyph-name="caron" unicode="&#x2c7;" horiz-adv-x="322" 
d="M0 720h39l121 -79l121 79h39l-160 -190z" />
    <glyph glyph-name="uni02C9" unicode="&#x2c9;" horiz-adv-x="305" 
d="M-25 665h355v-88h-355v88z" />
    <glyph glyph-name="breve" unicode="&#x2d8;" horiz-adv-x="267" 
d="M259 704h9q0 -66 -33 -108t-100 -42q-69 0 -102.5 42t-33.5 108h10q0 -65 126 -65q124 0 124 65z" />
    <glyph glyph-name="dotaccent" unicode="&#x2d9;" horiz-adv-x="290" 
d="M151 565q-29 0 -50 21t-21 50q0 28 21 48t50 20t49 -20t20 -48q0 -29 -20.5 -50t-48.5 -21z" />
    <glyph glyph-name="ring" unicode="&#x2da;" horiz-adv-x="278" 
d="M95 637q0 -20 13.5 -33.5t32.5 -13.5q20 0 33.5 13.5t13.5 33.5t-13.5 33.5t-33.5 13.5t-33 -13.5t-13 -33.5zM241 637q0 -40 -29.5 -69t-70.5 -29t-70 29t-29 69q0 41 29 69.5t70 28.5t70.5 -28.5t29.5 -69.5z" />
    <glyph glyph-name="ogonek" unicode="&#x2db;" horiz-adv-x="278" 
d="M180 -119q5 -18 18.5 -27t24.5 -8h11q31 7 31 28h13q0 -20 -2.5 -34t-17 -29t-41.5 -20q-28 -4 -47.5 -0.5t-32 12t-19 17.5t-8.5 16l-3 7q-28 106 140 157v-19q-81 -44 -67 -100z" />
    <glyph glyph-name="tilde" unicode="&#x2dc;" horiz-adv-x="462" 
d="M276 536l-120 45q-20 8 -51.5 11.5t-66.5 -5t-47 -33.5l-10 3q22 52 50.5 84.5t54.5 43t49 13.5t37 -1l13 -4l119 -45q20 -8 52.5 -11t67.5 6t47 34l9 -5q-22 -50 -51 -82.5t-55 -43t-48.5 -14t-35.5 -0.5z" />
    <glyph glyph-name="hungarumlaut" unicode="&#x2dd;" 
d="M322 557l197 163l137 -42l-275 -121h-59zM87 557l197 163l137 -42l-274 -121h-60z" />
    <glyph glyph-name="uni03A9" unicode="&#x3a9;" horiz-adv-x="753" 
d="M712 185h12l-36 -185h-269q0 2 23 77t40.5 172.5t17.5 195.5q0 151 -24 210t-73 66v14q130 -7 205 -83.5t75 -201.5q0 -158 -147 -267q-53 -39 -59 -54h135q28 0 57 13.5t43 42.5zM70 450q0 125 75 201t206 84v-14q-49 -7 -73 -65.5t-24 -210.5q0 -98 17.5 -195.5
t40.5 -172.5t23 -77h-269l-36 185h12q14 -29 43 -42.5t57 -13.5h136q-5 14 -59 54q-149 109 -149 267z" />
    <glyph glyph-name="uni03BC" unicode="&#x3bc;" horiz-adv-x="590" 
d="M516 90q0 -35 9.5 -45.5t41.5 -14.5v-13l-170 -25q-12 -2 -19 2.5t-8 10.5l-1 6v348v12q0 41 -6.5 52.5t-40.5 15.5v12l194 20v-381zM340 79l10 -13q-18 -39 -57 -57t-75 -18v-153q0 -36 10 -48.5t42 -15.5v-12l-175 -26q-13 -2 -20 2.5t-8 10.5l-1 6v605v9q0 42 -7 53.5
t-44 16.5v12l203 20v-324q0 -43 18 -63t61 -20q25 0 43 15z" />
    <glyph glyph-name="pi" unicode="&#x3c0;" horiz-adv-x="591" 
d="M537 66l11 -7q-7 -27 -32 -47.5t-66 -20.5q-28 0 -48.5 10t-29 24.5t-13.5 29.5t-5 25l-1 10v271h-101l-12 -186q-2 -39 -20.5 -76t-43 -61.5t-50.5 -43t-42 -27.5t-18 -9l-7 10q44 34 69.5 94.5t28.5 118.5l12 180q-31 -1 -51 -4t-48.5 -18t-49.5 -42l-13 7q1 7 4 18
t16 39.5t30 50.5t48.5 40t69.5 19h269q61 0 88.5 10.5t31.5 45.5h13q0 -38 -3 -62.5t-13 -51t-33 -39.5t-59 -13v-246q0 -30 9.5 -47t19.5 -19l9 -2q10 0 17.5 4.5t9.5 9.5z" />
    <glyph glyph-name="uni2010" unicode="&#x2010;" horiz-adv-x="447" 
d="M379 197h-315v113h315v-113z" />
    <glyph glyph-name="endash" unicode="&#x2013;" horiz-adv-x="561" 
d="M0 296h561v-88h-561v88z" />
    <glyph glyph-name="emdash" unicode="&#x2014;" horiz-adv-x="1055" 
d="M0 296h1055v-88h-1055v88z" />
    <glyph glyph-name="quoteleft" unicode="&#x2018;" horiz-adv-x="285" 
d="M199 732l9 -12q-25 -20 -42 -48t-18 -44.5t6 -20.5q39 -3 63 -26q28 -27 28.5 -66t-27.5 -67q-27 -27 -65.5 -27t-65.5 27q-26 26 -25.5 68t14.5 74t34 63q34 48 89 79z" />
    <glyph glyph-name="quoteright" unicode="&#x2019;" horiz-adv-x="289" 
d="M101 422l-9 12q25 20 42 48t18 44.5t-6 20.5q-39 3 -63 26q-28 27 -28.5 66t27.5 67q27 27 65.5 27t65.5 -27q26 -26 25.5 -68t-14.5 -74t-34 -63q-34 -48 -89 -79z" />
    <glyph glyph-name="quotesinglbase" unicode="&#x201a;" horiz-adv-x="287" 
d="M104 -132l-9 12q25 20 42 48t18 44.5t-6 20.5q-39 3 -63 26q-28 27 -28.5 66t27.5 67q27 27 65.5 27t65.5 -27q26 -26 25.5 -68t-14.5 -74t-34 -63q-34 -48 -89 -79z" />
    <glyph glyph-name="quotedblleft" unicode="&#x201c;" horiz-adv-x="551" 
d="M452 737l9 -12q-25 -20 -42 -48t-18 -44.5t6 -20.5q39 -3 63 -26q28 -27 28.5 -66t-27.5 -67q-27 -27 -65.5 -27t-65.5 27q-26 26 -25.5 68t14.5 74t34 63q34 48 89 79zM189 737l9 -12q-26 -20 -43 -48t-17 -44.5t6 -20.5q39 -4 63 -26q28 -27 28 -66t-27 -67
q-27 -27 -66 -27t-66 27q-26 26 -25 68t15 74.5t34 62.5q31 47 89 79z" />
    <glyph glyph-name="quotedblright" unicode="&#x201d;" horiz-adv-x="554" 
d="M101 422l-9 12q25 20 42 48t18 44.5t-6 20.5q-39 3 -63 26q-28 27 -28.5 66t27.5 67q27 27 65.5 27t65.5 -27q26 -26 25.5 -68t-14.5 -74t-34 -63q-34 -48 -89 -79zM364 422l-9 12q26 20 43 48t17 44.5t-6 20.5q-39 4 -63 26q-28 27 -28 66t27 67q27 27 66 27t66 -27
q26 -26 25 -68t-15 -74.5t-34 -62.5q-31 -47 -89 -79z" />
    <glyph glyph-name="quotedblbase" unicode="&#x201e;" horiz-adv-x="556" 
d="M104 -132l-9 12q25 20 42 48t18 44.5t-6 20.5q-39 3 -63 26q-28 27 -28.5 66t27.5 67q27 27 65.5 27t65.5 -27q26 -26 25.5 -68t-14.5 -74t-34 -63q-34 -48 -89 -79zM367 -132l-9 12q26 20 43 48t17 44.5t-6 20.5q-39 4 -63 26q-28 27 -28 66t27 67q27 27 66 27t66 -27
q26 -26 25 -68t-15 -74.5t-34 -62.5q-31 -47 -89 -79z" />
    <glyph glyph-name="dagger" unicode="&#x2020;" horiz-adv-x="449" 
d="M415 404q-14 -13 -32 -13t-32 14q-9 11 -13 30q-2 3 -11 2.5t-24 -9.5t-26 -22l-6 4q20 33 44 47q65 44 100 10q13 -13 13 -31t-13 -32zM129 457q22 -14 42 -47l-5 -4q-11 13 -26 22t-24 9.5t-11 -2.5q-2 -17 -13 -30q-14 -14 -32 -14t-32 13q-13 13 -13 31.5t13 31.5
t33 13.5t36.5 -6t31.5 -17.5zM282 289q-22 -114 -36 -252.5t-17 -220.5l-3 -81h-9q-6 299 -56 554q53 64 53 114q0 26 -14.5 69.5t-14.5 69.5v7t2 15t5 19.5t11 15.5t19 7q17 0 26.5 -16t9.5 -32l1 -16q0 -26 -15 -68.5t-15 -70.5q0 -51 53 -114zM222 645q-22 0 -37.5 15.5
t-15.5 37.5q0 21 15.5 36t37.5 15q21 0 36.5 -15t15.5 -36q0 -22 -15.5 -37.5t-36.5 -15.5z" />
    <glyph glyph-name="daggerdbl" unicode="&#x2021;" horiz-adv-x="569" 
d="M348 390l-5 4q22 40 51 58q18 13 39 21.5t45 7.5t40 -17t16 -38.5t-16 -38.5q-16 -17 -39 -17t-40 17q-13 13 -15 37q-2 4 -13 3.5t-30.5 -11t-32.5 -26.5zM43 387q-16 16 -16 38.5t16 38.5t40 17t44.5 -7.5t39.5 -21.5q26 -17 51 -58l-6 -4q-13 16 -31.5 26.5t-29 11
t-13.5 -3.5q-2 -23 -16 -37q-16 -17 -39 -17t-40 17zM212 108l6 -4q-20 -36 -51 -60q-18 -12 -39 -20t-45.5 -7t-39.5 16q-16 17 -16 39t16 38q17 17 39.5 17t39.5 -17q14 -16 16 -38q2 -3 12.5 -2.5t29.5 11.5t32 27zM289 143q0 -33 18 -71t18 -70v-8t-2 -18t-6.5 -23
t-13.5 -18t-22 -8q-21 0 -32 18.5t-12 37.5l-1 19q0 32 18 69t18 72q0 7 -1.5 18.5t-17 39t-43.5 45.5q28 18 43.5 44t16.5 43l2 17q0 32 -18 70t-18 71v8t2.5 18t6.5 23t13.5 18t22.5 8q20 0 31 -19t12 -37l1 -19q0 -33 -18 -70t-18 -71q0 -7 1.5 -19t16.5 -40t43 -45
q-28 -19 -43 -45t-17 -42zM216 680q0 26 19 45t46 19q26 0 44.5 -19t18.5 -45q0 -27 -18.5 -45.5t-44.5 -18.5q-27 0 -46 18.5t-19 45.5zM344 -185q0 -27 -18.5 -45.5t-44.5 -18.5q-27 0 -46 18.5t-19 45.5q0 26 19 45t46 19q26 0 44.5 -19t18.5 -45zM518 33
q-16 -16 -40.5 -17t-45 7.5t-38.5 20.5q-33 26 -51 60l5 4q13 -16 32.5 -27t30.5 -11.5t13 2.5q2 23 15 38q17 17 39.5 17t39.5 -17q16 -16 16 -38.5t-16 -38.5z" />
    <glyph glyph-name="bullet" unicode="&#x2022;" horiz-adv-x="517" 
d="M259 209q-55 0 -94 38.5t-39 93.5q0 56 39 94.5t94 38.5q56 0 95 -38.5t39 -94.5q0 -55 -39 -93.5t-95 -38.5z" />
    <glyph glyph-name="ellipsis" unicode="&#x2026;" horiz-adv-x="948" 
d="M764 -8q-40 0 -67.5 27t-27.5 67q0 39 27.5 66.5t67.5 27.5q38 0 65.5 -27.5t27.5 -66.5q0 -40 -27.5 -67t-65.5 -27zM467 -8q-40 0 -67.5 27t-27.5 67q0 39 27.5 66.5t67.5 27.5q38 0 65.5 -27.5t27.5 -66.5q0 -40 -27 -67t-66 -27zM180 -8q-39 0 -66.5 27t-27.5 67
q0 39 27.5 66.5t66.5 27.5q38 0 65.5 -27.5t27.5 -66.5q0 -40 -27.5 -67t-65.5 -27z" />
    <glyph glyph-name="perthousand" unicode="&#x2030;" horiz-adv-x="1204" 
d="M121 492q0 -104 9 -133.5t42 -29.5q34 0 42 29t8 134t-9 137t-41 32q-33 0 -42 -31.5t-9 -137.5zM325 492q0 -80 -37 -128t-116 -48q-80 0 -117.5 48t-37.5 128t37.5 131t117.5 51q79 0 116 -51t37 -131zM1015 34q34 0 42 29t8 134t-9 137t-41 32q-33 0 -42 -31.5
t-9 -137.5q0 -104 9 -133.5t42 -29.5zM1015 379q79 0 116 -51t37 -131t-37 -128t-116 -48q-80 0 -117.5 48t-37.5 128t37.5 131t117.5 51zM652 34q34 0 42 29t8 134t-9 137t-41 32q-33 0 -42 -31.5t-9 -137.5q0 -104 9 -133.5t42 -29.5zM652 379q79 0 116 -51t37 -131
t-37 -128t-116 -48q-80 0 -117.5 48t-37.5 128t37.5 131t117.5 51zM634 704h83l-518 -704h-82z" />
    <glyph glyph-name="guilsinglleft" unicode="&#x2039;" horiz-adv-x="364" 
d="M308 505v-44l-120 -195l120 -189v-44l-258 233z" />
    <glyph glyph-name="guilsinglright" unicode="&#x203a;" horiz-adv-x="361" 
d="M48 461v44l259 -239l-259 -233v44l120 189z" />
    <glyph glyph-name="fraction" unicode="&#x2044;" horiz-adv-x="366" 
d="M457 734h80l-605 -734h-79z" />
    <glyph glyph-name="Euro" unicode="&#x20ac;" horiz-adv-x="649" 
d="M302 290q3 -156 22.5 -215.5t78.5 -68.5v-14q-127 8 -197 87t-84 211h-104l8 13h95q-2 16 -2 48t2 50h-103l8 13h96q15 132 85 211t196 87v-14q-59 -8 -78.5 -68t-22.5 -216h207l-9 -13h-198v-50v-48h190l-8 -13h-182zM578 528q-9 85 -39.5 124.5t-83.5 45.5v15
q40 -1 68.5 -8t41 -14t30.5 -21l-5 -142h-12zM590 177l5 -142q-52 -39 -140 -43v14q104 17 123 171h12z" />
    <glyph glyph-name="afii61289" unicode="&#x2113;" horiz-adv-x="373" 
d="M293 48q17 2 31.5 14t17.5 36l12 -5q0 -44 -35 -73t-78 -29q-35 0 -60.5 7.5t-48.5 28t-35 61t-12 101.5v34l-63 -48v62l63 49v205q0 71 15.5 124t40.5 80t54 38t56.5 3.5t48.5 -29.5l-7 -11q-13 20 -29 15q-40 -12 -40 -208v-132l26 25q88 85 74 203q6 0 18 3
q10 -66 -8.5 -135t-65.5 -119l-45 -47l-2 -118q-3 -75 15 -106t57 -29z" />
    <glyph glyph-name="trademark" unicode="&#x2122;" horiz-adv-x="738" 
d="M716 430v-13h-124v13q14 0 19.5 7t5.5 28v199l-98 -250h-15l-118 240v-127q0 -97 55 -97v-13h-125v13q24 0 37.5 20t16.5 38.5t3 38.5v144q-12 20 -39 20v13h109l97 -196l77 196h95v-13q-25 0 -25 -34v-192q0 -20 7 -27.5t22 -7.5zM13 704h280v-84h-13q0 22 -11.5 37.5
t-27 22t-26.5 9t-18 2.5h-8v-219q0 -42 26 -42v-13h-124v13q26 0 26 42v219h-9q-6 0 -17 -2.5t-27 -9t-27 -22t-11 -37.5h-13v84z" />
    <glyph glyph-name="Omega" unicode="&#x2126;" horiz-adv-x="753" 
d="M712 185h12l-36 -185h-269q0 2 23 77t40.5 172.5t17.5 195.5q0 151 -24 210t-73 66v14q130 -7 205 -83.5t75 -201.5q0 -158 -147 -267q-53 -39 -59 -54h135q28 0 57 13.5t43 42.5zM70 450q0 125 75 201t206 84v-14q-49 -7 -73 -65.5t-24 -210.5q0 -98 17.5 -195.5
t40.5 -172.5t23 -77h-269l-36 185h12q14 -29 43 -42.5t57 -13.5h136q-5 14 -59 54q-149 109 -149 267z" />
    <glyph glyph-name="estimated" unicode="&#x212e;" horiz-adv-x="892" 
d="M688 628q-106 80 -245 80q-135 0 -240 -76v-240h485v236zM443 735q171 0 292 -108t121 -260h-653v-264q105 -76 240 -76q171 0 286 113h38q-58 -65 -142.5 -102.5t-181.5 -37.5q-171 0 -292 107.5t-121 259.5t121 260t292 108z" />
    <glyph glyph-name="partialdiff" unicode="&#x2202;" horiz-adv-x="602" 
d="M299 743q127 -11 198.5 -122.5t56.5 -290.5q-12 -153 -76.5 -240.5t-180.5 -97.5v15q36 19 57.5 99t34.5 231q-14 36 -38 56t-48 20q-42 0 -69 -52.5t-36 -154.5q-8 -105 1.5 -148t45.5 -51v-15q-103 7 -158 67.5t-46 170.5q4 46 16.5 85t35.5 73t62.5 53t92.5 19
q43 0 87 -23.5t57 -71.5q15 184 -9.5 267.5t-83.5 95.5v15zM112 564l-48 104q60 68 183 75v-15q-48 -13 -85.5 -62.5t-37.5 -97.5z" />
    <glyph glyph-name="Delta" unicode="&#x2206;" horiz-adv-x="716" 
d="M384 738l289 -706l-15 -32h-620l-6 26l283 694zM86 44h415l-208 483z" />
    <glyph glyph-name="product" unicode="&#x220f;" horiz-adv-x="856" 
d="M740 592v-547q0 -56 24 -86.5t62 -30.5v-13h-355v13q38 0 62 30.5t24 86.5v529q0 117 -86 117h-84q-85 0 -85 -117v-529q0 -56 24 -86.5t61 -30.5v-13h-354v13q37 0 61 30.5t24 86.5v547q0 50 -23 74.5t-62 24.5v13h793v-13q-39 0 -62.5 -24.5t-23.5 -74.5z" />
    <glyph glyph-name="summation" unicode="&#x2211;" horiz-adv-x="703" 
d="M288 690q-2 2 -5 7t-4 7h352l22 -231h-15q-29 82 -132 146t-218 71zM183 -98h-107l193 338l-251 464h213l210 -364zM656 168h14l-27 -266h-409q1 2 3 6.5t3 6.5q83 2 152.5 22.5t112.5 48.5t77 65.5t49 64t25 52.5z" />
    <glyph glyph-name="minus" unicode="&#x2212;" horiz-adv-x="626" 
d="M581 198h-533v113h533v-113z" />
    <glyph glyph-name="uni2215" unicode="&#x2215;" horiz-adv-x="367" 
d="M458 734h80l-605 -734h-79z" />
    <glyph glyph-name="uni2219" unicode="&#x2219;" horiz-adv-x="289" 
d="M145 231q-28 0 -47.5 19.5t-19.5 47.5q0 29 19.5 48.5t47.5 19.5q29 0 48.5 -20t19.5 -48t-20 -47.5t-48 -19.5z" />
    <glyph glyph-name="radical" unicode="&#x221a;" horiz-adv-x="609" 
d="M389 78l137 789l54 -15l-178 -1017l-65 -21l-190 438q-17 41 -46 63.5t-56 11.5l-5 11l202 81z" />
    <glyph glyph-name="infinity" unicode="&#x221e;" horiz-adv-x="772" 
d="M679 416q51 -51 51 -123t-51 -123t-123 -51t-123 51l-45 45l-45 -45q-51 -51 -123 -51q-74 0 -123 51q-51 51 -51 123t50 123h1q49 51 123 51q72 0 123 -51l45 -45l45 45q51 51 123 51t123 -51zM601 248q19 19 19 45t-19 45q-18 18 -45 18t-45 -18l-45 -45l45 -45
q19 -19 45 -19t45 19zM265 248l45 45l-46 45q-16 18 -44 18q-27 0 -45 -18q-19 -19 -19 -45t19 -45t45 -19t45 19z" />
    <glyph glyph-name="integral" unicode="&#x222b;" horiz-adv-x="416" 
d="M101 -181q-3 -1 -3 -4t3 -6t9 -5v-13q-56 6 -77 35q-22 29 -10 65q8 23 30 32.5t44 -0.5q23 -8 33 -30t1 -44q-10 -24 -30 -30zM382 790q10 -12 12.5 -31t-3.5 -33q-8 -23 -30 -32.5t-44 0.5q-22 8 -31.5 29.5t-1.5 44.5q10 26 31 30q6 3 -5 10q-3 2 -7 3v13
q56 -5 79 -34zM125 445q-14 124 2.5 210t53 124.5t89.5 44.5v-13q-45 -35 -30 -201l47 -441q36 -359 -144 -378v13q46 35 29 201z" />
    <glyph glyph-name="approxequal" unicode="&#x2248;" horiz-adv-x="555" 
d="M322 295l-120 45q-20 8 -51.5 11.5t-66.5 -5t-47 -33.5l-10 3q22 52 50.5 84.5t54.5 43t49 13.5t37 -1l13 -4l119 -45q20 -8 52.5 -11t67.5 6t47 34l9 -5q-22 -50 -51 -82.5t-55 -43t-48.5 -14t-35.5 0.5zM322 110l-120 45q-20 8 -51.5 11.5t-66.5 -5t-47 -33.5l-10 3
q22 52 50.5 84.5t54.5 43t49 13.5t37 -1l13 -4l119 -45q20 -8 52.5 -11t67.5 6t47 34l9 -5q-22 -50 -51 -82.5t-55 -43t-48.5 -14t-35.5 -0.5z" />
    <glyph glyph-name="notequal" unicode="&#x2260;" horiz-adv-x="534" 
d="M490 337h-149l-51 -113h200v-78h-237l-56 -123l-72 33l41 90h-120v78h156l51 113h-207v78h244l61 132l71 -34l-45 -98h113v-78z" />
    <glyph glyph-name="lessequal" unicode="&#x2264;" horiz-adv-x="570" 
d="M240 366l281 -142v-118l-465 238v45l465 238v-119zM47 79h474v-97h-474v97z" />
    <glyph glyph-name="greaterequal" unicode="&#x2265;" horiz-adv-x="571" 
d="M47 224l281 142l-281 142v119l465 -238v-45l-465 -238v118zM47 79h474v-97h-474v97z" />
    <glyph glyph-name="lozenge" unicode="&#x25ca;" horiz-adv-x="559" 
d="M406 327l-128 252l-127 -252l127 -251zM301 733l208 -406l-208 -406h-45l-208 406l208 406h45z" />
    <glyph glyph-name="zero.taboldstyle" unicode="&#xf643;" horiz-adv-x="613" 
d="M236 232q0 -116 11 -164.5t39 -58.5v-17q-119 6 -174.5 70.5t-55.5 169.5q0 104 55 168t175 70v-17q-28 -10 -39 -57.5t-11 -163.5zM338 470q232 -12 232 -238q0 -106 -55.5 -170t-176.5 -70v17q28 11 39.5 59.5t11.5 163.5q0 117 -11.5 164.5t-39.5 57.5v16z" />
    <glyph glyph-name="one.taboldstyle" unicode="&#xf644;" horiz-adv-x="515" 
d="M197 92v262q0 35 -16 44t-59 9v13l227 51v-379q0 -28 5.5 -45t16.5 -24t20.5 -8.5t26.5 -1.5v-13h-303v13q19 0 30.5 2t25 9t20 24t6.5 44z" />
    <glyph glyph-name="two.taboldstyle" unicode="&#xf645;" horiz-adv-x="540" 
d="M83 363q15 41 62 74l4 -11q-8 -6 -11 -12t-1.5 -9.5t4.5 -3.5q26 2 42 -16q17 -18 17 -43.5t-18 -41.5q-18 -18 -43 -17.5t-42 18.5q-26 28 -14 62zM356 124q28 0 54.5 14.5t41.5 42.5h12l-47 -181h-345l107 111q83 76 108 132t13 109q-9 41 -39 68.5t-64 26.5l-5 12
q33 10 73 11t80 -7.5t69.5 -35t34.5 -68.5q5 -47 -12.5 -83.5t-50 -59t-65.5 -38t-66 -30.5t-46 -27z" />
    <glyph glyph-name="three.taboldstyle" unicode="&#xf646;" horiz-adv-x="564" 
d="M175 -220q-9 -2 2 -12q16 -15 56 -19v-13q-99 4 -148 66q-13 16 -15.5 39.5t6.5 44.5q13 31 45 42t61 -3q31 -14 42 -45t-3 -62q-14 -28 -46 -38zM527 -26q2 -62 -19.5 -109t-59.5 -73t-78 -39.5t-85 -16.5v14q50 11 70 64.5t10 123.5q-3 23 -11 44.5t-25.5 48
t-52.5 44.5t-84 22v13q69 17 99 63.5t21.5 92t-40.5 69.5q-22 17 -56 19t-65 -14.5t-41 -47.5l-14 1q-1 86 57 132t124 46q61 0 108.5 -34t66.5 -83t-1.5 -109t-84.5 -105q72 -14 115.5 -62.5t45.5 -103.5z" />
    <glyph glyph-name="four.taboldstyle" unicode="&#xf647;" horiz-adv-x="598" 
d="M549 -48h-94v-76q0 -60 8.5 -89t20 -34t36.5 -5v-13h-293v13q25 0 36.5 5.5t20 33t8.5 84.5v81l-243 -1v17l68 95l11 -7q-12 -16 -9 -24t8 -9.5t16 -1.5l149 1v284l120 165l43 -9v-440h94v-70z" />
    <glyph glyph-name="five.taboldstyle" unicode="&#xf648;" horiz-adv-x="572" 
d="M511 462l-46 -149h-340l27 149h359zM101 186q118 19 200 7.5t132 -51.5t72 -87t20 -98q-4 -103 -70 -159t-166 -62v14q67 9 95.5 61t11.5 111q-4 14 -11.5 28t-23.5 33.5t-39.5 33t-58.5 26.5t-80.5 14t-106.5 -5zM199 -221q-12 -7 1 -18q11 -9 38 -12v-13q-88 6 -140 48
q-16 14 -23.5 37.5t-3.5 46.5q8 33 38 51t64 11q33 -8 51.5 -37.5t10.5 -63.5q-9 -33 -36 -50z" />
    <glyph glyph-name="six.taboldstyle" unicode="&#xf649;" horiz-adv-x="604" 
d="M397 546q-25 16 -32 46t10 55q14 24 45 29q6 2 -7 11q-13 8 -34 11v14q86 -10 121 -67q10 -15 10 -36.5t-12 -38.5q-16 -27 -45.5 -33.5t-55.5 9.5zM362 471q58 0 99.5 -21.5t62.5 -58t30 -76t9 -84.5q0 -106 -62.5 -168.5t-164.5 -70.5v15q37 9 48.5 53t11.5 151
q0 101 -20 159.5t-59 58.5q-29 0 -55.5 -23.5t-36.5 -65.5q3 -165 13.5 -240t45.5 -93v-15q-117 9 -178 94t-61 229q0 173 78 279.5t204 117.5v-14q-48 -11 -74.5 -84t-27.5 -237q14 48 54.5 71t82.5 23z" />
    <glyph glyph-name="seven.taboldstyle" unicode="&#xf64a;" horiz-adv-x="556" 
d="M448 315h-287q-28 0 -55 -15t-42 -43h-13l32 205h451zM178 -256q10 299 232 519h13q-28 -64 -45.5 -132.5t-23.5 -145t-7.5 -120t-1.5 -121.5h-167z" />
    <glyph glyph-name="eight.taboldstyle" unicode="&#xf64b;" horiz-adv-x="580" 
d="M545 204q0 -99 -56.5 -153t-165.5 -59v15q37 8 60 35t25 69q3 47 -30 88t-85 70q-3 2 -41 22.5t-42 23.5q-47 -34 -47 -147q0 -145 109 -162v-14q-228 8 -228 169q0 63 45 107t99 59q-126 81 -126 196q0 80 54.5 131t146.5 58v-16q-28 -8 -45.5 -32t-20.5 -60
q-5 -55 40.5 -93t124.5 -73q42 24 42 121q0 121 -89 138v15q88 -5 135.5 -43.5t47.5 -102.5q0 -51 -37.5 -87.5t-84.5 -47.5q79 -37 124 -99t45 -128z" />
    <glyph glyph-name="nine.taboldstyle" unicode="&#xf64c;" horiz-adv-x="585" 
d="M556 142q0 -189 -65.5 -293t-217.5 -113v13q38 4 58 18.5t30 62.5t12 94t2 156q-13 -47 -53.5 -68t-83.5 -21q-58 0 -99 21t-62 58t-30 76t-9 84q0 112 61.5 172.5t165.5 67.5v-15q-38 -9 -49 -52.5t-11 -152.5q0 -100 19.5 -158.5t56.5 -58.5q32 0 58.5 22t35.5 61
q-1 158 -12 237.5t-46 99.5v17q120 -9 179.5 -95.5t59.5 -232.5zM176 -228q-7 -1 7 -10q15 -9 38 -12v-14q-39 4 -69 19t-41 27t-16 23q-11 15 -10.5 38.5t12.5 41.5q16 28 47.5 35t59.5 -10q27 -17 34 -48.5t-10 -58.5q-17 -26 -52 -31z" />
    <glyph glyph-name="dollar.taboldstyle" unicode="&#xf653;" horiz-adv-x="611" 
d="M526 498q-52 166 -173 199v13q56 -4 101 -15t62 -20l18 -9v-168h-8zM301 4q63 0 90.5 39.5t10.5 94t-72 94.5l-29 19v-247zM288 480v220q-53 0 -80.5 -34.5t-11.5 -85.5t78 -91zM428 387q101 -66 129 -148.5t-27 -165.5q-66 -82 -229 -82v-122h-13v390l-112 70
q-108 68 -135.5 147t33.5 161q2 3 6.5 8t22.5 18.5t40 23.5t61 18t84 8v122h13v-364zM50 240q10 -36 30 -76t62.5 -88.5t93.5 -67.5v-13q-61 5 -110 18t-67 23l-18 11v193h9z" />
    <glyph glyph-name="cent.taboldstyle" unicode="&#xf654;" horiz-adv-x="545" 
d="M327 88v369q-38 -9 -65 -61.5t-27 -147.5q0 -127 92 -160zM340 593v-509q39 -12 87 2t63 45l11 -6q-6 -45 -48.5 -85.5t-112.5 -48.5v-109h-13v109q-116 0 -184.5 68t-68.5 174q0 98 65 166t188 72v122h13zM400 428q9 5 -4 16q-10 9 -29 12v14q73 -7 115 -52
q13 -12 18 -32t-1 -39q-8 -28 -34 -42t-54 -4q-28 8 -41.5 34t-4.5 53q9 28 35 40z" />
    <glyph glyph-name="dollar.oldstyle" unicode="&#xf724;" horiz-adv-x="611" 
d="M526 498q-52 166 -173 199v13q56 -4 101 -15t62 -20l18 -9v-168h-8zM301 4q63 0 90.5 39.5t10.5 94t-72 94.5l-29 19v-247zM288 480v220q-53 0 -80.5 -34.5t-11.5 -85.5t78 -91zM428 387q101 -66 129 -148.5t-27 -165.5q-66 -82 -229 -82v-122h-13v390l-112 70
q-108 68 -135.5 147t33.5 161q2 3 6.5 8t22.5 18.5t40 23.5t61 18t84 8v122h13v-364zM50 240q10 -36 30 -76t62.5 -88.5t93.5 -67.5v-13q-61 5 -110 18t-67 23l-18 11v193h9z" />
    <glyph glyph-name="zero.oldstyle" unicode="&#xf730;" horiz-adv-x="613" 
d="M236 232q0 -116 11 -164.5t39 -58.5v-17q-119 6 -174.5 70.5t-55.5 169.5q0 104 55 168t175 70v-17q-28 -10 -39 -57.5t-11 -163.5zM338 470q232 -12 232 -238q0 -106 -55.5 -170t-176.5 -70v17q28 11 39.5 59.5t11.5 163.5q0 117 -11.5 164.5t-39.5 57.5v16z" />
    <glyph glyph-name="one.oldstyle" unicode="&#xf731;" horiz-adv-x="515" 
d="M197 92v262q0 35 -16 44t-59 9v13l227 51v-379q0 -28 5.5 -45t16.5 -24t20.5 -8.5t26.5 -1.5v-13h-303v13q19 0 30.5 2t25 9t20 24t6.5 44z" />
    <glyph glyph-name="two.oldstyle" unicode="&#xf732;" horiz-adv-x="540" 
d="M83 363q15 41 62 74l4 -11q-8 -6 -11 -12t-1.5 -9.5t4.5 -3.5q26 2 42 -16q17 -18 17 -43.5t-18 -41.5q-18 -18 -43 -17.5t-42 18.5q-26 28 -14 62zM356 124q28 0 54.5 14.5t41.5 42.5h12l-47 -181h-345l107 111q83 76 108 132t13 109q-9 41 -39 68.5t-64 26.5l-5 12
q33 10 73 11t80 -7.5t69.5 -35t34.5 -68.5q5 -47 -12.5 -83.5t-50 -59t-65.5 -38t-66 -30.5t-46 -27z" />
    <glyph glyph-name="three.oldstyle" unicode="&#xf733;" horiz-adv-x="564" 
d="M175 -220q-9 -2 2 -12q16 -15 56 -19v-13q-99 4 -148 66q-13 16 -15.5 39.5t6.5 44.5q13 31 45 42t61 -3q31 -14 42 -45t-3 -62q-14 -28 -46 -38zM527 -26q2 -62 -19.5 -109t-59.5 -73t-78 -39.5t-85 -16.5v14q50 11 70 64.5t10 123.5q-3 23 -11 44.5t-25.5 48
t-52.5 44.5t-84 22v13q69 17 99 63.5t21.5 92t-40.5 69.5q-22 17 -56 19t-65 -14.5t-41 -47.5l-14 1q-1 86 57 132t124 46q61 0 108.5 -34t66.5 -83t-1.5 -109t-84.5 -105q72 -14 115.5 -62.5t45.5 -103.5z" />
    <glyph glyph-name="four.oldstyle" unicode="&#xf734;" horiz-adv-x="598" 
d="M549 -48h-94v-76q0 -60 8.5 -89t20 -34t36.5 -5v-13h-293v13q25 0 36.5 5.5t20 33t8.5 84.5v81l-243 -1v17l68 95l11 -7q-12 -16 -9 -24t8 -9.5t16 -1.5l149 1v284l120 165l43 -9v-440h94v-70z" />
    <glyph glyph-name="five.oldstyle" unicode="&#xf735;" horiz-adv-x="572" 
d="M511 462l-46 -149h-340l27 149h359zM101 186q118 19 200 7.5t132 -51.5t72 -87t20 -98q-4 -103 -70 -159t-166 -62v14q67 9 95.5 61t11.5 111q-4 14 -11.5 28t-23.5 33.5t-39.5 33t-58.5 26.5t-80.5 14t-106.5 -5zM199 -221q-12 -7 1 -18q11 -9 38 -12v-13q-88 6 -140 48
q-16 14 -23.5 37.5t-3.5 46.5q8 33 38 51t64 11q33 -8 51.5 -37.5t10.5 -63.5q-9 -33 -36 -50z" />
    <glyph glyph-name="six.oldstyle" unicode="&#xf736;" horiz-adv-x="604" 
d="M397 546q-25 16 -32 46t10 55q14 24 45 29q6 2 -7 11q-13 8 -34 11v14q86 -10 121 -67q10 -15 10 -36.5t-12 -38.5q-16 -27 -45.5 -33.5t-55.5 9.5zM362 471q58 0 99.5 -21.5t62.5 -58t30 -76t9 -84.5q0 -106 -62.5 -168.5t-164.5 -70.5v15q37 9 48.5 53t11.5 151
q0 101 -20 159.5t-59 58.5q-29 0 -55.5 -23.5t-36.5 -65.5q3 -165 13.5 -240t45.5 -93v-15q-117 9 -178 94t-61 229q0 173 78 279.5t204 117.5v-14q-48 -11 -74.5 -84t-27.5 -237q14 48 54.5 71t82.5 23z" />
    <glyph glyph-name="seven.oldstyle" unicode="&#xf737;" horiz-adv-x="556" 
d="M448 315h-287q-28 0 -55 -15t-42 -43h-13l32 205h451zM178 -256q10 299 232 519h13q-28 -64 -45.5 -132.5t-23.5 -145t-7.5 -120t-1.5 -121.5h-167z" />
    <glyph glyph-name="eight.oldstyle" unicode="&#xf738;" horiz-adv-x="580" 
d="M545 204q0 -99 -56.5 -153t-165.5 -59v15q37 8 60 35t25 69q3 47 -30 88t-85 70q-3 2 -41 22.5t-42 23.5q-47 -34 -47 -147q0 -145 109 -162v-14q-228 8 -228 169q0 63 45 107t99 59q-126 81 -126 196q0 80 54.5 131t146.5 58v-16q-28 -8 -45.5 -32t-20.5 -60
q-5 -55 40.5 -93t124.5 -73q42 24 42 121q0 121 -89 138v15q88 -5 135.5 -43.5t47.5 -102.5q0 -51 -37.5 -87.5t-84.5 -47.5q79 -37 124 -99t45 -128z" />
    <glyph glyph-name="nine.oldstyle" unicode="&#xf739;" horiz-adv-x="585" 
d="M556 142q0 -189 -65.5 -293t-217.5 -113v13q38 4 58 18.5t30 62.5t12 94t2 156q-13 -47 -53.5 -68t-83.5 -21q-58 0 -99 21t-62 58t-30 76t-9 84q0 112 61.5 172.5t165.5 67.5v-15q-38 -9 -49 -52.5t-11 -152.5q0 -100 19.5 -158.5t56.5 -58.5q32 0 58.5 22t35.5 61
q-1 158 -12 237.5t-46 99.5v17q120 -9 179.5 -95.5t59.5 -232.5zM176 -228q-7 -1 7 -10q15 -9 38 -12v-14q-39 4 -69 19t-41 27t-16 23q-11 15 -10.5 38.5t12.5 41.5q16 28 47.5 35t59.5 -10q27 -17 34 -48.5t-10 -58.5q-17 -26 -52 -31z" />
    <glyph glyph-name="cent.oldstyle" unicode="&#xf7a2;" horiz-adv-x="545" 
d="M327 88v369q-38 -9 -65 -61.5t-27 -147.5q0 -127 92 -160zM340 593v-509q39 -12 87 2t63 45l11 -6q-6 -45 -48.5 -85.5t-112.5 -48.5v-109h-13v109q-116 0 -184.5 68t-68.5 174q0 98 65 166t188 72v122h13zM400 428q9 5 -4 16q-10 9 -29 12v14q73 -7 115 -52
q13 -12 18 -32t-1 -39q-8 -28 -34 -42t-54 -4q-28 8 -41.5 34t-4.5 53q9 28 35 40z" />
    <glyph glyph-name="fi" unicode="&#xfb01;" horiz-adv-x="618" 
d="M429 698q16 4 -3 16q-21 13 -57 17v13q50 -5 92.5 -24t57.5 -46q11 -19 11 -44.5t-11 -45.5q-16 -28 -47.5 -36.5t-59.5 7.5q-29 17 -37 48t8 60q15 27 46 35zM540 113q0 -48 8 -73.5t33 -31.5v-8h-227v8q26 7 32.5 32t6.5 73v255q0 81 -43 81h-119v-336q0 -47 8.5 -72.5
t32.5 -32.5v-8h-227v8q26 7 32.5 32t6.5 73v336h-64l-1 13h65v11q0 267 253 272v-14q-49 -2 -77.5 -61.5t-28.5 -183.5v-24h119q32 0 79.5 4t78.5 8l32 3v-364z" />
    <glyph glyph-name="fl" unicode="&#xfb02;" horiz-adv-x="598" 
d="M583 12v-12h-228v12q26 7 32.5 30.5t6.5 70.5v519q0 55 -35 68q-20 6 -40 7.5t-38 -11.5t-31.5 -37t-21.5 -69.5t-8 -107.5v-20h107l-1 -13h-106v-336q0 -47 8 -70.5t33 -30.5v-12h-228v12q26 8 33 31.5t7 69.5v336h-65l-1 13h66v80q0 55 16.5 97t43.5 63.5t55.5 32
t57.5 10.5q71 0 113 -32l183 33v-633q0 -47 8 -71t33 -30z" />
    <glyph glyph-name="NULL" horiz-adv-x="0" 
 />
    <glyph glyph-name="CR" horiz-adv-x="278" 
 />
    <glyph glyph-name="two.superior" horiz-adv-x="260" 
d="M210 470h13l-25 -91h-176l98 137q47 73 12 110q-23 25 -57 15q-32 -9 -35 -42h-12q-7 48 24 76.5t67 28.5q34 0 58 -23.5t24 -54.5q0 -23 -11.5 -44t-38.5 -51t-32 -36l-36 -51h86q27 0 41 26z" />
    <glyph glyph-name="one.superior" horiz-adv-x="234" 
d="M188 393v-13h-133v13q34 0 34 37v183q0 16 -9.5 18.5t-19.5 -3.5l-10 -6l-10 12l90 70h30v-274q0 -37 28 -37z" />
    <glyph glyph-name="a.superior" horiz-adv-x="321" 
d="M157 579q-56 -13 -56 -60v-3.5t1.5 -8t4.5 -9.5t8.5 -7.5t13.5 -3.5q18 0 28 24v68zM270 495l10 -4q-4 -16 -21.5 -27t-42.5 -11h-5.5t-13 2.5t-17 6t-14 11.5t-8.5 19q-5 -17 -25.5 -28t-48.5 -11q-10 0 -21.5 2.5t-26.5 15.5t-15 35q0 36 25 50.5t99 32.5l12 3v32
q0 40 -20 56.5t-48 3.5q-12 -5 -9 -10q1 -1 5 -2q12 -3 20 -15q6 -13 2 -25.5t-16 -19.5q-13 -6 -26 -1.5t-19 15.5q-9 17 2 35q10 20 35 33q10 5 23 7.5t22 2.5h8q97 0 97 -104v-78q0 -4 0.5 -10.5t7 -17t18.5 -9.5q8 0 11 10z" />
    <glyph glyph-name="three.superior" horiz-adv-x="276" 
d="M121 373q-50 0 -79 32q-14 18 -5 38q7 14 21 19t28 -1q13 -6 18.5 -20.5t-0.5 -27.5q-7 -15 -21 -19q-6 -1 2 -5q11 -6 36 -6q27 0 39.5 24.5t7.5 57.5q-12 65 -78 70v11q32 7 45.5 27t9.5 39t-19 30q-15 13 -38.5 8t-31.5 -27l-10 1q-1 37 26 58t56 21q38 0 62.5 -24.5
t20.5 -60t-42 -62.5q33 -6 53 -28.5t21 -47.5q1 -58 -36.5 -82.5t-85.5 -24.5z" />
    <glyph glyph-name="o.superior" horiz-adv-x="338" 
d="M198 578q0 68 -10.5 91t-36.5 23t-36 -22.5t-10 -91.5q0 -67 10 -89t36 -22q28 0 37.5 21.5t9.5 89.5zM275 578q0 -124 -124 -124q-123 0 -123 124q0 127 123 127q124 0 124 -127z" />
    </font>
</defs>
</svg>
