<?xml version="1.0" standalone="no"?>
<!DOCTYPE svg PUBLIC "-//W3C//DTD SVG 1.1//EN" "http://www.w3.org/Graphics/SVG/1.1/DTD/svg11.dtd" >
<svg xmlns="http://www.w3.org/2000/svg" xmlns:xlink="http://www.w3.org/1999/xlink" version="1.1">
<metadata>
Created by FontForge 20230101 at Mon Feb 10 11:37:46 2020
 By Pablo Velazquez
Created by Fabian De Smet
</metadata>
<defs>
<font id="ButlerStencil-Light" horiz-adv-x="466" >
  <font-face 
    font-family="Butler Stencil"
    font-weight="300"
    font-stretch="normal"
    units-per-em="1000"
    panose-1="2 0 5 3 9 0 0 2 0 3"
    ascent="735"
    descent="-265"
    x-height="462"
    cap-height="704"
    bbox="-147 -265.297 1055 976"
    underline-thickness="50"
    underline-position="-100"
    unicode-range="U+0020-FB02"
  />
<missing-glyph horiz-adv-x="507" 
d="M278 352l186 -272v544zM67 661l186 -271l185 271h-371zM-1 704h508v-704h-508v704zM226 352l-185 272v-544zM253 314l-186 -272h371z" />
    <glyph glyph-name="f_i" unicode="fi" horiz-adv-x="491" 
d="M412 76q0 -40 6.5 -50t34.5 -17v-9h-150v9q28 8 34 18t6 49v318q0 29 -10.5 43t-39.5 14h-142v-379q0 -38 11 -49t42 -15v-8h-160v8q28 5 33.5 15t5.5 49v379h-64l-1 11h65v6q0 144 44 206t131 69v-11q-107 -20 -107 -258v-12h142h119v-386zM364 681q9 -1 9 8
q-1 18 -30 33q-13 7 -29 10v11q41 -7 67.5 -29t26.5 -61q6 -30 -14 -48q-14 -13 -32.5 -12t-31.5 14q-12 14 -11 32t14 31t31 11z" />
    <glyph glyph-name="f_l" unicode="fl" horiz-adv-x="475" 
d="M464 11v-11h-150v11q29 8 34.5 17.5t5.5 47.5v578q0 66 -86 73q-18 1 -33 -2.5t-33 -18.5t-30 -41.5t-20.5 -76t-8.5 -116.5v-10h107l-2 -11h-105v-379q0 -38 10.5 -48t41.5 -14v-10h-160v10q28 5 33.5 14t5.5 48v379h-64l-1 11h65v20q0 263 166 263q61 0 96 -22l87 23
v-670q0 -40 6.5 -49t34.5 -16z" />
    <glyph glyph-name=".notdef" horiz-adv-x="507" 
d="M278 352l186 -272v544zM67 661l186 -271l185 271h-371zM-1 704h508v-704h-508v704zM226 352l-185 272v-544zM253 314l-186 -272h371z" />
    <glyph glyph-name=".null" horiz-adv-x="0" 
 />
    <glyph glyph-name="nonmarkingreturn" horiz-adv-x="333" 
 />
    <glyph glyph-name="space" unicode=" " horiz-adv-x="242" 
 />
    <glyph glyph-name="exclam" unicode="!" horiz-adv-x="285" 
d="M159 171h-40l-17 574h74zM189 42q0 21 -15 35.5t-36 14.5t-36 -14.5t-15 -35.5t15 -36t36 -15t36 15t15 36z" />
    <glyph glyph-name="quotedbl" unicode="&#x22;" horiz-adv-x="444" 
d="M298 376l-21 328h79l-20 -328h-38zM121 376l-20 328h77l-18 -328h-39z" />
    <glyph glyph-name="numbersign" unicode="#" horiz-adv-x="692" 
d="M445 486h-172l-43 -193h171zM642 486h-148l-44 -193h129v-45h-139l-56 -248h-49l56 248h-172l-56 -248h-49l56 248h-136v45h147l43 193h-127v44h137l50 216h49l-50 -216h172l50 216h49l-50 -216h138v-44z" />
    <glyph glyph-name="dollar" unicode="$" horiz-adv-x="512" 
d="M51 236q7 -179 99 -223v-11q-32 7 -59 17.5t-37 17.5l-11 7v192h8zM441 497q-8 151 -86 190v11q28 -6 52 -14t34 -14l10 -5v-168h-10zM269 1q82 4 118 53.5t20 110t-70 97.5l-68 44v-305zM356 342q48 -32 78 -69.5t38.5 -73.5t4 -68t-20.5 -59q-27 -35 -60 -53
q-51 -27 -127 -29v-121h-33v459l-71 47q-28 20 -46.5 35t-42.5 42t-34 52t-8 60t23 70q2 3 6 8t20 18.5t34.5 23.5t50.5 18.5t68 9.5v123h33v-436zM236 421v280q-32 -1 -62 -16.5t-48 -41.5t-22.5 -57t16 -66.5t66.5 -65.5z" />
    <glyph glyph-name="percent" unicode="%" horiz-adv-x="959" 
d="M772 200q0 176 -80 176q-38 0 -59.5 -38.5t-21.5 -137.5q0 -97 21.5 -133t59.5 -36t59 35.5t21 133.5zM403 495q0 -176 -131 -176q-132 0 -132 176q0 33 5.5 62t19 58t41 45.5t66.5 16.5t66.5 -16.5t40.5 -45.5t18.5 -57.5t5.5 -62.5zM353 495q0 175 -81 175
q-38 0 -59.5 -38t-21.5 -137q0 -98 21.5 -133.5t59.5 -35.5q39 0 60 35.5t21 133.5zM230 0l456 704h47l-456 -704h-47zM824 200q0 -33 -5.5 -61.5t-19 -55.5t-41 -43t-66.5 -16q-132 0 -132 176q0 34 5.5 63t19 58t41 46t66.5 17t66.5 -17t41 -46t19 -58.5t5.5 -62.5z" />
    <glyph glyph-name="ampersand" unicode="&#x26;" horiz-adv-x="764" 
d="M584 292q0 14 -21 8q-23 -7 -44 -32q-3 6 -7 10q36 50 88 61q36 7 56 -10q13 -10 16 -27t-11 -34q-11 -14 -29.5 -15.5t-32.5 10.5q-14 11 -15 29zM641 40q23 0 40.5 11.5t18.5 34.5h9q-1 -44 -28.5 -68.5t-59.5 -26.5q-8 -1 -21 -0.5t-42.5 13t-46.5 37.5l-62 91
q-12 -42 -51 -78t-88 -53.5t-104.5 -5.5t-94.5 58q-38 46 -42.5 95t18 89t52.5 70.5t64 49.5l7 -8q-34 -22 -59 -61.5t-25 -96t42 -106.5q35 -41 89.5 -51t106.5 18t78 90l-224 322q-50 66 -57.5 127.5t22.5 100.5t86 49q92 16 143 -40l-10 -7q-23 24 -56.5 32t-66.5 -3
q-51 -19 -55.5 -79.5t33.5 -112.5l308 -443q14 -21 33 -33t31 -13z" />
    <glyph glyph-name="quotesingle" unicode="'" horiz-adv-x="225" 
d="M96 376l-21 328h78l-19 -328h-38z" />
    <glyph glyph-name="parenleft" unicode="(" horiz-adv-x="314" 
d="M303 745l11 -10q-163 -193 -163 -484q0 -27 0.5 -44t8 -79t22.5 -109.5t48.5 -109t80.5 -103.5l-10 -12q-25 14 -60 53t-72.5 97.5t-63.5 142t-26 167.5t26 171t64 150.5t73.5 108t60.5 61.5z" />
    <glyph glyph-name="parenright" unicode=")" horiz-adv-x="314" 
d="M-2 735l11 10q25 -17 60.5 -61.5t73.5 -108t64 -150.5t26 -171t-26 -167.5t-63.5 -142t-72.5 -97.5t-60 -53l-10 12q47 42 80.5 103.5t48.5 109t22.5 109.5t8 79t0.5 44q0 291 -163 484z" />
    <glyph glyph-name="asterisk" unicode="*" horiz-adv-x="545" 
d="M474 531l-185 -39l127 -139l-53 -40l-94 165l-94 -165l-53 40l127 139l-185 39l21 63l172 -79l-21 189h66l-21 -189l173 79z" />
    <glyph glyph-name="plus" unicode="+" horiz-adv-x="715" 
d="M657 338v-55h-273v-283h-55v283h-273v55h273v281h55v-281h273z" />
    <glyph glyph-name="comma" unicode="," horiz-adv-x="208" 
d="M69 -124l-5 6q33 22 46 48.5t9 43t-13 18.5q-21 4 -32 14q-14 14 -14 32.5t13 32.5q14 14 33.5 14t32.5 -14q20 -23 18 -60.5t-22 -70.5q-24 -42 -66 -64z" />
    <glyph glyph-name="hyphen" unicode="-" horiz-adv-x="444" 
d="M379 227h-315v55h315v-55z" />
    <glyph glyph-name="period" unicode="." horiz-adv-x="202" 
d="M101 -5q-19 0 -32.5 13.5t-13.5 32.5q0 20 13 33.5t33 13.5q19 0 32.5 -13.5t13.5 -33.5q0 -19 -13.5 -32.5t-32.5 -13.5z" />
    <glyph glyph-name="slash" unicode="/" horiz-adv-x="408" 
d="M383 725l-308 -746h-61l308 746h61z" />
    <glyph glyph-name="zero" unicode="0" horiz-adv-x="602" 
d="M341 709q65 -9 111 -45.5t69 -91t32.5 -109.5t9.5 -117q0 -61 -9.5 -114.5t-32.5 -106.5t-69 -87.5t-111 -43.5v11q139 35 139 341q0 308 -139 352v11zM34 346q0 62 9.5 116.5t32 109.5t68.5 91.5t111 45.5v-11q-138 -41 -138 -352q0 -303 138 -341v-11q-65 9 -111 43.5
t-68.5 87.5t-32 106t-9.5 115z" />
    <glyph glyph-name="one" unicode="1" horiz-adv-x="365" 
d="M293 10v-10h-219v10q19 0 30 2t23.5 9t18 23.5t5.5 43.5v498q0 24 -6.5 34t-19.5 7.5t-28.5 -12t-38.5 -27.5l-6 9l134 116h32v-625q0 -27 6 -44t19 -24t23 -8.5t27 -1.5z" />
    <glyph glyph-name="two" unicode="2" 
d="M419 124h10l-33 -124h-357l44 67h242q63 0 94 57zM223 713q74 0 122.5 -49t48.5 -118q0 -92 -127 -223l-10 8q102 147 56 244q-28 60 -97 72q-70 13 -119 -32q-37 -35 -43 -92l-13 1q1 55 20 94.5t46 57t53 27t44 9.5z" />
    <glyph glyph-name="three" unicode="3" horiz-adv-x="495" 
d="M271 380q79 -16 124.5 -67.5t46.5 -113.5q1 -100 -53.5 -148t-132.5 -58v12q122 21 110 179q-2 30 -12.5 56.5t-31.5 52t-59.5 41.5t-90.5 18v14q70 6 112.5 54t39.5 109t-52 103q-40 29 -87 29t-86.5 -31.5t-42.5 -79.5l-13 1q1 46 19.5 79t40.5 48.5t53 24t45 9.5t29 1
q49 0 89 -27t57 -68.5t16.5 -86.5t-32.5 -87t-89 -64zM103 35q-3 0 3 -5.5t23.5 -13t40.5 -11.5v-11q-82 12 -119 57q-15 20 -3 48q9 16 27.5 21t34.5 -3q16 -9 21 -27t-3 -35q-9 -15 -25 -20z" />
    <glyph glyph-name="four" unicode="4" horiz-adv-x="521" 
d="M483 207h-93v-98q0 -46 10 -68t22 -26t38 -4v-11h-216v11q19 0 29 2t21 11t15.5 28.5t4.5 51.5v103h-284v13l45 68l10 -7q-13 -23 -10 -26.5t27 -3.5h212v392l43 63l33 -2v-453h93v-44z" />
    <glyph glyph-name="five" unicode="5" horiz-adv-x="535" 
d="M110 43q-9 -2 8 -14q24 -17 64 -24v-11q-84 13 -123 60q-18 24 -7 50q8 17 26.5 24t36.5 -1q17 -7 23.5 -26t-1.5 -36q-6 -16 -27 -22zM454 704l-18 -74h-340l12 74h346zM66 415q124 36 214 18.5t141.5 -65.5t60.5 -113q8 -61 -7.5 -110.5t-48.5 -79.5t-72.5 -48
t-85.5 -24v11q82 16 127.5 80.5t18.5 152.5q-16 52 -61 85t-120 42.5t-178 -18.5z" />
    <glyph glyph-name="six" unicode="6" horiz-adv-x="527" 
d="M380 678q2 0 2 1q0 8 -26 16q-1 1 -2 1v11q19 -5 33 -12.5t22.5 -19t10 -13.5t6.5 -12t2 -25t-12 -24q-13 -14 -32.5 -14.5t-33.5 13.5q-13 13 -13.5 32t12.5 33q15 13 31 13zM294 431q51 0 89 -19t58.5 -51t30 -67.5t9.5 -75.5q0 -202 -172 -224v11q96 27 96 197
q0 109 -37 153.5t-90 44.5q-70 0 -108 -41t-49 -98q1 -224 102 -256v-10q-181 28 -181 323q0 153 61 266.5t165 127.5v-11q-69 -20 -108 -120.5t-39 -278.5q40 129 173 129z" />
    <glyph glyph-name="seven" unicode="7" horiz-adv-x="549" 
d="M204 -1q26 298 213 553h12q-139 -285 -139 -553h-86zM47 580l16 124h451l-40 -66h-332q-38 0 -54.5 -12.5t-29.5 -45.5h-11z" />
    <glyph glyph-name="eight" unicode="8" horiz-adv-x="532" 
d="M308 395q88 -43 137.5 -91.5t49.5 -119.5q0 -86 -48.5 -133.5t-131.5 -56.5v13q48 11 81.5 46.5t32.5 100.5q-1 53 -38 90.5t-133 88.5q-20 11 -34 19q-125 -54 -125 -186q0 -72 36 -111.5t94 -49.5v-12q-191 16 -191 171q0 62 50 115t124 80q-77 45 -105.5 84.5
t-28.5 102.5q0 67 39.5 109t102.5 54v-13q-37 -11 -61 -40t-24 -69q0 -71 37.5 -110.5t121.5 -73.5q33 9 68 50.5t34 97.5q-3 124 -90 146v13q67 -10 103 -52t36 -105q0 -45 -42 -94.5t-95 -63.5z" />
    <glyph glyph-name="nine" unicode="9" horiz-adv-x="514" 
d="M136 34l-2 -1q3 -10 29 -20q11 -5 24 -7v-11q-71 12 -96 68q-5 10 -2.5 25t11.5 24q14 14 33 14t33 -13q13 -13 13.5 -32t-12.5 -33q-14 -14 -31 -14zM295 710q97 -13 137 -89t40 -219q0 -372 -199 -406v11q64 21 92 113t28 283q-20 -63 -60 -94.5t-108 -31.5
q-51 0 -89 19t-58.5 51t-30.5 68t-10 76q0 97 44 153t128 67v-11q-96 -33 -96 -193q0 -109 37 -154t90 -45q118 0 153 137q0 222 -98 253v12z" />
    <glyph glyph-name="colon" unicode=":" horiz-adv-x="197" 
d="M101 314q-20 0 -33.5 13.5t-13.5 32.5q0 20 13.5 34t33.5 14q19 0 33 -14t14 -34q0 -19 -14 -32.5t-33 -13.5zM101 55q-20 0 -33.5 13.5t-13.5 32.5q0 20 13.5 34t33.5 14q19 0 33 -14t14 -34q0 -19 -14 -32.5t-33 -13.5z" />
    <glyph glyph-name="semicolon" unicode=";" horiz-adv-x="201" 
d="M101 313q-20 0 -33.5 13.5t-13.5 32.5q0 20 13.5 34t33.5 14q19 0 33 -14t14 -34q0 -19 -14 -32.5t-33 -13.5zM64 -61q42 22 66 64q20 33 22 70.5t-18 60.5q-13 14 -32.5 14t-33.5 -14q-13 -14 -13 -32.5t14 -32.5q11 -10 32 -14q9 -2 13 -18.5t-9 -43t-46 -48.5z" />
    <glyph glyph-name="less" unicode="&#x3c;" horiz-adv-x="600" 
d="M119 266l434 -226v-56l-507 260v43l507 260v-58z" />
    <glyph glyph-name="equal" unicode="=" horiz-adv-x="613" 
d="M567 353h-511v53h511v-53zM567 128h-511v53h511v-53z" />
    <glyph glyph-name="greater" unicode="&#x3e;" horiz-adv-x="600" 
d="M47 40l434 226l-434 223v58l507 -260v-43l-507 -260v56z" />
    <glyph glyph-name="question" unicode="?" horiz-adv-x="566" 
d="M261 101q22 0 38 -15.5t16 -37.5t-15.5 -37.5t-38.5 -15.5q-22 0 -37 15.5t-15 37.5t15 37.5t37 15.5zM160 633q11 -15 7.5 -34t-18.5 -29q-15 -11 -33.5 -7.5t-29.5 19.5q-15 19 -5 46q3 15 20.5 38t45.5 37l3 -11q-32 -17 -26 -35q2 -5 8 -6q18 -2 28 -18zM228 731
q101 18 175 -31t79 -145q7 -153 -156 -232q-71 -34 -63 -134l-17 -3q-15 99 52 156q45 39 58 56q46 58 38 153q-8 89 -54 130t-108 38z" />
    <glyph glyph-name="at" unicode="@" horiz-adv-x="857" 
d="M564 262q3 6 1 23t-5.5 34.5t-19 31.5t-39.5 14q-49 0 -89 -45.5t-53 -124.5q-14 -85 11 -124.5t71 -43.5q24 -2 43.5 8.5t27.5 22.5l8 11q8 40 44 193zM805 237q-8 -59 -29 -104.5t-45.5 -71.5t-54.5 -42.5t-54 -22t-46 -5.5q-33 0 -48.5 14t-11.5 42q-11 -18 -40.5 -37
t-73.5 -19q-57 0 -91 45.5t-29 112.5q5 90 62 160.5t146 69.5q32 0 55 -9.5t30 -18.5l7 -9l7 26h56q-58 -263 -66 -299q-11 -53 31 -53q19 0 42 9.5t50 32t49.5 69.5t31.5 112q3 37 2.5 78t-18 82t-44 75t-76.5 57.5t-116 28.5q-170 14 -281.5 -91.5t-131.5 -277.5
q-1 -7 -2.5 -20t-0.5 -49.5t8 -70.5t27.5 -77t52 -75t88 -57t129.5 -32q53 -5 108 9.5t84 30.5l29 17l7 -8q-3 -3 -9 -7.5t-27 -16.5t-46 -21t-67 -16.5t-88 -7.5q-47 0 -96.5 11t-102.5 39.5t-92.5 70.5t-62.5 110.5t-18 153.5q9 136 80.5 235t176.5 144t226 40
q136 -5 220.5 -101.5t62.5 -255.5z" />
    <glyph glyph-name="A" unicode="A" horiz-adv-x="674" 
d="M579 97q12 -29 22 -46.5t20.5 -26t18 -10.5t20.5 -3v-11h-199v11q66 0 18 116l-37 95h-270q-38 -110 -37 -146q1 -62 78 -65h13v-11h-211v11q19 0 30.5 5t28 26.5t36.5 67t48 123.5h280l-145 374l36 97h7z" />
    <glyph glyph-name="B" unicode="B" horiz-adv-x="560" 
d="M513 179q0 -46 -12.5 -78.5t-32.5 -51.5t-54.5 -30t-68 -14.5t-83.5 -4.5v11q37 1 61.5 7t48.5 22.5t36 52t12 90.5q0 44 -9.5 76t-24 49t-37 27t-41.5 13t-46 3v12q54 3 83.5 38t29.5 132q0 142 -113 158v12q48 -2 81.5 -9.5t63 -25.5t44.5 -52t15 -84q0 -44 -15 -78
t-35.5 -51t-45.5 -27t-40 -12.5t-25 -2.5q25 0 47.5 -2.5t53.5 -13.5t53 -29t38 -53.5t16 -83.5zM38 695v9h138v-704h-138v9q31 0 44.5 24.5t13.5 77.5v485q0 99 -58 99z" />
    <glyph glyph-name="C" unicode="C" horiz-adv-x="660" 
d="M429 3q64 8 114 58.5t54 144.5h11l10 -153q-47 -31 -88.5 -44.5t-100.5 -16.5v11zM597 499q-9 98 -57 146.5t-111 55.5v11q62 -2 106 -15.5t83 -44.5l-10 -153h-11zM40 352q0 161 82 254t221 105v-11q-201 -25 -201 -348q0 -327 201 -348v-11q-139 13 -221 106.5
t-82 252.5z" />
    <glyph glyph-name="D" unicode="D" horiz-adv-x="670" 
d="M276 703q74 -4 131.5 -21.5t108 -55.5t77.5 -107.5t27 -167.5q0 -83 -19 -145.5t-49.5 -100t-76.5 -61t-93 -32.5t-106 -11v10q27 1 49 4t49 12t47.5 24t41 40.5t34 60t22 85.5t8.5 114q0 84 -16 146.5t-39.5 98t-59 57.5t-66.5 29.5t-70 9.5v11zM44 704h146v-16v-671
v-17h-146v9l1 1q1 1 2 1q60 1 60 99v486q0 96 -60 97q-1 0 -3 1v10z" />
    <glyph glyph-name="E" unicode="E" horiz-adv-x="578" 
d="M503 203v-203h-253v11q47 1 76 3.5t63 13.5t53 31t33 56t17 88h11zM164 704v-704h-133v11q30 0 40.5 21.5t10.5 74.5v506q0 48 -9.5 64t-41.5 16v11h133zM479 529q-1 43 -14 73.5t-31.5 47.5t-50 27t-60.5 12.5t-73 3.5v11h240v-175h-11zM370 250q-1 26 -9.5 45t-20 29
t-29 16t-31 7.5t-32.5 1.5v13q20 0 33 1.5t31 7t29 15.5t19.5 29t9.5 45h11v-210h-11z" />
    <glyph glyph-name="F" unicode="F" horiz-adv-x="507" 
d="M163 704v-591q0 -63 16.5 -82.5t54.5 -19.5v-11h-204v11q30 0 40.5 21.5t10.5 74.5v506q0 48 -9.5 64t-41.5 16v11h133zM371 250q-1 26 -9.5 45t-20 29t-29 16t-31 7.5t-32.5 1.5v13q20 0 33 1.5t31 7t29 15.5t19.5 29t9.5 45h11v-210h-11zM249 693v11h242v-175h-11
q-2 44 -15.5 75t-32.5 48t-51 26.5t-60 12t-72 2.5z" />
    <glyph glyph-name="G" unicode="G" horiz-adv-x="698" 
d="M139 352q0 -313 176 -346v-13q-135 14 -206 113.5t-71 245.5t71 245t205 113v-12q-175 -35 -175 -346zM461 280h211v-11q-46 0 -55 -32.5t-9 -203.5q-90 -36 -207 -41v12q69 5 103 30.5t34 74.5q0 43 -0.5 67t-4.5 44t-7 28.5t-14 14t-20.5 6t-30.5 0.5v11zM584 497
q-5 105 -53 150.5t-131 52.5v12q129 -5 208 -58l-9 -157h-15z" />
    <glyph glyph-name="H" unicode="H" horiz-adv-x="594" 
d="M521 568v-432q0 -39 0.5 -53.5t5.5 -33t15.5 -26t29.5 -12.5v-11h-160v11q20 7 25.5 30.5t5.5 94.5v194h-291v-194q0 -44 1 -65.5t5 -35t9 -17t17 -7.5v-11h-162v11q39 10 46 28t7 97v432q0 74 -9 96.5t-44 29.5v10h162v-10q-15 -5 -21 -14t-8.5 -32.5t-2.5 -79.5v-222
h291v222q0 80 -5 99.5t-26 26.5v10h160v-10q-25 -5 -34.5 -14.5t-13 -32t-3.5 -79.5z" />
    <glyph glyph-name="I" unicode="I" horiz-adv-x="292" 
d="M49 704h206v-10q-34 0 -48 -15t-14 -59v-520q0 -50 14.5 -69.5t47.5 -19.5v-11h-206v11q33 0 48 19.5t15 69.5v520q0 45 -14 59.5t-49 14.5v10z" />
    <glyph glyph-name="J" unicode="J" horiz-adv-x="364" 
d="M98 704h227v-10q-35 0 -55.5 -23t-20.5 -69v-420q0 -166 -60.5 -248.5t-185.5 -100.5l-3 10q36 13 63.5 33.5t53 56t39 94t13.5 136.5v317q0 147 -10 180.5t-61 33.5v10z" />
    <glyph glyph-name="K" unicode="K" horiz-adv-x="679" 
d="M664 11v-11h-82q-33 0 -56 5.5t-40.5 13.5t-41 34.5t-41 49.5t-55.5 78l-116 160l120 146q42 48 62.5 76t38.5 63t2 51.5t-64 16.5v10h248v-10q-41 0 -76 -20.5t-95 -86t-169 -205.5l238 -320q40 -51 127 -51zM40 704h215v-10q-21 0 -31 -1.5t-22 -8t-17 -22.5t-5 -42
v-523q0 -49 15 -67.5t49 -18.5v-11h-204v11q33 0 46.5 18.5t13.5 67.5v523q0 45 -13 59.5t-47 14.5v10z" />
    <glyph glyph-name="L" unicode="L" horiz-adv-x="592" 
d="M511 217v-217h-251v11q61 1 98.5 8t72 27.5t51 62.5t19.5 108h10zM174 605v-605h-126v11q30 0 38.5 23t8.5 80v497q0 47 -11.5 65t-43.5 18v10h197v-10q-34 0 -48.5 -18.5t-14.5 -70.5z" />
    <glyph glyph-name="M" unicode="M" horiz-adv-x="866" 
d="M162 247q0 -133 26 -184.5t99 -51.5v-11h-273v11q80 0 108.5 52.5t28.5 183.5h11zM759 115q0 -60 22 -82t60 -22v-11h-233v11q36 0 54 21.5t18 82.5v589h156v-11q-36 0 -56.5 -19.5t-20.5 -68.5v-490zM40 704h173l275 -608l-37 -105h-11l-291 640q-37 59 -109 62v11z" />
    <glyph glyph-name="N" unicode="N" horiz-adv-x="771" 
d="M176 247q0 -33 0.5 -49t1.5 -43t4.5 -41t9.5 -34t15.5 -30t22.5 -20.5t31.5 -14.5t42.5 -4v-11h-281v11q26 0 46.5 4t35 14.5t25 20t17 29.5t10 33.5t5 41t2 44t0.5 49.5h12zM4 704h155l458 -602v-102h-22l-472 616q-9 12 -18 21.5t-16 17t-15 13.5t-13 9.5t-12 6.5
t-10 4.5t-10 3t-8.5 1.5t-8.5 0.5t-8 0.5v10zM478 694v10h277v-10q-23 0 -41 -4t-32 -9t-24.5 -16.5t-17 -20t-11.5 -27.5t-7 -30.5t-3.5 -36t-1.5 -38.5v-44v-11h-11q0 34 -0.5 51t-1.5 44.5t-4.5 41.5t-9.5 33.5t-15.5 29t-22.5 19.5t-31.5 14t-42.5 4z" />
    <glyph glyph-name="O" unicode="O" horiz-adv-x="726" 
d="M127 347q0 -311 185 -342v-12q-135 14 -203 110.5t-68 243.5t68.5 247.5t202.5 115.5v-12q-185 -35 -185 -351zM671 347q0 -96 -28 -170.5t-90.5 -124t-154.5 -59.5v12q184 31 184 342q0 316 -184 351v12q69 -7 122.5 -38.5t85.5 -81t48.5 -111t16.5 -132.5z" />
    <glyph glyph-name="P" unicode="P" horiz-adv-x="550" 
d="M428 502q0 107 -43.5 146.5t-125.5 43.5v10q127 -5 188.5 -47t61.5 -153q0 -110 -61.5 -151.5t-188.5 -46.5v11q83 4 126 42.5t43 144.5zM173 704v-567q0 -48 3 -72.5t15 -37t25.5 -14.5t45.5 -2v-11h-230v11q40 0 53 22t13 100v477q0 55 -10.5 69.5t-50.5 14.5v10h136z
" />
    <glyph glyph-name="Q" unicode="Q" horiz-adv-x="727" 
d="M671 347q0 -147 -68.5 -243.5t-204.5 -110.5v12q184 31 184 342q0 316 -184 351v12q136 -15 204.5 -115.5t68.5 -247.5zM127 347q0 -311 185 -342v-12q-135 14 -203 110.5t-68 243.5t68.5 247.5t202.5 115.5v-12q-185 -35 -185 -351zM530 -135q78 -25 142 24l9 -8
l-60 -48q-38 -28 -75 -32.5t-81 9.5t-131 53l-72 32q-28 12 -61.5 7t-57 -13.5t-38.5 -18.5l-9 9q36 29 79.5 43.5t80 14.5t67.5 -4.5t49 -10.5l17 -7z" />
    <glyph glyph-name="R" unicode="R" horiz-adv-x="589" 
d="M481 95q20 -78 103 -84v-11h-68q-70 0 -86.5 20t-44.5 140q-9 37 -14 58q-21 93 -131 104v14q39 1 64.5 8t48 25t33 53.5t10.5 90.5q0 56 -11 93t-34.5 55t-48 24.5t-62.5 7.5v10q129 -4 184.5 -43t55.5 -147q0 -99 -48 -140t-133 -44q3 0 19.5 -1.5t21 -2.5t19 -4.5
t20.5 -8t18.5 -13t19 -20t17.5 -29t17.5 -39.5t14.5 -51.5t15 -64.5zM154 704v-608q0 -50 13.5 -67.5t46.5 -17.5v-11h-190v11q34 0 45.5 19t11.5 86v507q0 45 -11.5 57.5t-45.5 12.5v11h130z" />
    <glyph glyph-name="S" unicode="S" horiz-adv-x="544" 
d="M56 236q5 -110 41 -165.5t126 -66.5v-11q-53 4 -97 16.5t-62 23.5l-18 11v192h10zM359 343q48 -32 78 -69.5t38.5 -73.5t4 -68t-20.5 -59q-1 -3 -4 -7.5t-15 -16.5t-27.5 -22t-43 -20t-60.5 -14v11q64 13 90 62t9 105t-68 92l-172 112q-27 19 -46 34.5t-43 42.5t-34 52.5
t-8 60t23 69.5q2 2 5 6.5t15 15.5t26 20.5t38.5 19t52.5 13.5v-11q-34 -11 -58 -38t-32 -60.5t12.5 -73t69.5 -71.5zM441 498q-4 94 -36 143.5t-122 58.5v11q48 -4 90.5 -15.5t60.5 -20.5l19 -9v-168h-12z" />
    <glyph glyph-name="T" unicode="T" horiz-adv-x="627" 
d="M19 704h589v-164h-11q-1 43 -17 74.5t-36 46t-47.5 23t-40.5 9.5t-26 1h-79v-609q0 -45 15.5 -59.5t50.5 -14.5v-11h-208v11q35 0 50.5 14.5t15.5 59.5v609h-79q-21 0 -35.5 -1t-41.5 -9.5t-44.5 -23t-31 -46t-14.5 -74.5h-10v164z" />
    <glyph glyph-name="U" unicode="U" horiz-adv-x="684" 
d="M350 28q87 0 137.5 54.5t50.5 151.5h11q1 -118 -65 -180.5t-176 -62.5q-99 0 -161.5 64t-62.5 182v370q0 51 -15 68.5t-50 17.5v11h214v-11q-38 0 -55.5 -16t-17.5 -72v-378q0 -94 51.5 -146.5t138.5 -52.5zM429 693v11h238v-11q-25 0 -43.5 -4t-31.5 -9.5t-21 -20
t-12.5 -24.5t-6.5 -36t-2.5 -42.5t-0.5 -53.5v-10h-11q0 50 -1.5 76t-7 54.5t-17 41t-32 20.5t-51.5 8z" />
    <glyph glyph-name="V" unicode="V" horiz-adv-x="720" 
d="M256 693q-28 0 -45 -10t-21 -24t-3.5 -24.5t2.5 -16.5l196 -539l-31 -79h-12q-27 65 -86 221t-104 279l-45 124q-12 32 -28.5 47.5t-29 18.5t-36.5 3v11h243v-11zM468 693v11h231v-11q-28 0 -40 -2.5t-29 -12.5t-30.5 -37.5t-31.5 -70t-45 -117.5l-10 4q40 119 44 151
q9 69 -51 82q-16 3 -38 3z" />
    <glyph glyph-name="W" unicode="W" horiz-adv-x="1019" 
d="M257 693q-25 0 -41 -6.5t-22 -15.5t-7.5 -20t-0.5 -17.5t3 -11.5l193 -536l-30 -86h-13l-229 616q-18 47 -41 62t-56 15v11h244v-11zM590 693q-82 0 -68 -71l180 -538l-30 -84h-13l-216 616q-17 46 -40.5 61.5t-56.5 15.5v11h244v-11zM772 693v11h234v-11
q-20 0 -33.5 -2.5t-25.5 -6.5t-22.5 -18t-19.5 -26.5t-21.5 -44t-23 -59t-29.5 -81.5l-11 2q2 7 6 20q13 43 18.5 63t11.5 51t3 45t-11.5 29.5t-27.5 21.5t-48 6z" />
    <glyph glyph-name="X" unicode="X" horiz-adv-x="682" 
d="M260 247l9 -10q-70 -133 -79 -158q-18 -51 15 -63q17 -6 50 -6v-10h-237v10q30 0 45 4t42.5 26t62.5 70.5t92 136.5zM537 102q26 -42 46 -62t33.5 -24t41.5 -6v-10h-220v10q16 1 25.5 7t10.5 16t-0.5 19.5t-8.5 24.5t-12 23.5t-13 22.5l-298 477q-28 43 -49.5 64t-35 25
t-37.5 4v11h236v-11q-80 0 -9 -116zM397 476q36 66 51 98t22 64t-11.5 43.5t-61.5 11.5v11h253v-11q-36 0 -52.5 -3.5t-45 -25t-60.5 -66.5t-85 -130z" />
    <glyph glyph-name="Y" unicode="Y" horiz-adv-x="652" 
d="M365 108q0 -61 17 -79t54 -18v-11h-209v11q36 0 53 18t17 79v186l-185 322q-13 22 -25 37t-19.5 22.5t-20.5 12t-17 5t-21 1.5v10h225v-10q-15 0 -22 -0.5t-19 -6.5t-13.5 -16.5t5.5 -33.5t26 -56l154 -265v-208zM401 693v11h237v-11q-26 0 -37.5 -3t-34 -22t-50 -64.5
t-68.5 -126.5l-7 10q15 31 23.5 52t17.5 47.5t7.5 43t-8.5 32.5t-27.5 23.5t-52.5 7.5z" />
    <glyph glyph-name="Z" unicode="Z" horiz-adv-x="504" 
d="M49 704h271l-6 -11q-140 -1 -193.5 -38.5t-71.5 -152.5h-16zM209 12q128 3 181 51.5t72 170.5h16l-24 -234h-251zM476 704l-355 -704h-96l376 704h75z" />
    <glyph glyph-name="bracketleft" unicode="[" horiz-adv-x="297" 
d="M113 735h168v-12q-26 0 -40 -1.5t-32 -9t-26 -26t-8 -48.5v-696q0 -26 8.5 -42.5t26 -23t32.5 -8.5t39 -2v-12h-168v881z" />
    <glyph glyph-name="backslash" unicode="\" horiz-adv-x="402" 
d="M323 -16l-308 748h58l308 -748h-58z" />
    <glyph glyph-name="bracketright" unicode="]" horiz-adv-x="298" 
d="M11 735h168v-881h-168v12q24 0 39 2t32.5 8.5t26 23t8.5 42.5v696q0 30 -8 48.5t-26 26t-32 9t-40 1.5v12z" />
    <glyph glyph-name="asciicircum" unicode="^" horiz-adv-x="559" 
d="M288 704l177 -328h-22l-167 231l-164 -231h-23l176 328h23z" />
    <glyph glyph-name="underscore" unicode="_" horiz-adv-x="560" 
d="M0 -81h560v-38h-560v38z" />
    <glyph glyph-name="grave" unicode="`" horiz-adv-x="313" 
d="M69 718l181 -161h-15l-231 142z" />
    <glyph glyph-name="a" unicode="a" 
d="M138 327q-13 -11 -30 -8.5t-27 15.5q-16 21 -6 44q15 31 50 55l5 -9q-7 -6 -10.5 -11.5t-3.5 -8t2 -3.5q17 -3 27 -15q11 -13 8.5 -30.5t-15.5 -28.5zM411 31q25 0 31 30l11 -4q-5 -26 -26.5 -46t-54.5 -20h-8.5t-18.5 4.5t-23 12.5t-18.5 26.5t-8.5 43.5v172
q-94 -23 -139 -56t-45 -82q0 -35 22 -59.5t64 -24.5q34 0 57 15q2 -3 8 -15q-44 -37 -107 -37q-5 0 -12.5 0.5t-27 6t-34.5 15t-27 31t-12 50.5q0 67 55 99t198 69v56q0 73 -30.5 110t-84.5 22l-5 10q16 5 33 8t26 3h9q69 0 96.5 -51.5t27.5 -148.5v-181q0 -7 1 -16.5
t12 -26t31 -16.5z" />
    <glyph glyph-name="b" unicode="b" horiz-adv-x="544" 
d="M281 471q101 0 154.5 -70t53.5 -173q0 -102 -55.5 -164.5t-145.5 -71.5v12q49 11 82.5 61.5t33.5 145.5q0 113 -40.5 172.5t-109.5 59.5q-56 0 -88.5 -36t-32.5 -96v-163q0 -59 26.5 -97t71.5 -47v-11q-62 7 -107 47q-31 -35 -51 -40q-7 -1 -7 5v644q0 26 -10.5 37.5
t-40.5 14.5v11l118 22v-340q21 36 63 56.5t85 20.5z" />
    <glyph glyph-name="c" unicode="c" horiz-adv-x="473" 
d="M381 426l2 1q-2 10 -32 21q-19 7 -43 10v11q40 -4 66.5 -18.5t34 -26t10.5 -22.5q7 -24 -9 -40q-11 -11 -27 -12t-28 10q-11 11 -11.5 27t10.5 27q11 10 27 12zM430 127l9 -3q-10 -49 -53.5 -91t-124.5 -42q-85 0 -150.5 62.5t-65.5 175.5q0 91 56.5 160t149.5 80v-11
q-50 -12 -89.5 -63.5t-39.5 -158.5q0 -101 46.5 -152.5t108.5 -54.5q58 -2 99 28.5t54 69.5z" />
    <glyph glyph-name="d" unicode="d" horiz-adv-x="522" 
d="M459 69q0 -35 9.5 -43.5t41.5 -6.5v-11l-91 -16q-12 -2 -19 2.5t-8 9.5l-1 6v51q-22 -33 -62.5 -51.5t-81.5 -18.5q-103 0 -156 70t-53 175q0 103 55.5 163.5t145.5 69.5v-13q-50 -10 -83 -58.5t-33 -144.5q0 -116 40 -176t109 -60q50 0 84.5 33t34.5 84v192q0 51 -27 86
t-68 44v12q52 -6 95 -37v216q0 27 -10.5 39t-40.5 15v11l119 22v-665z" />
    <glyph glyph-name="e" unicode="e" horiz-adv-x="474" 
d="M264 27q47 -2 90.5 26t54.5 66l9 -3q-8 -43 -53 -84t-119 -41q-91 0 -150 65.5t-59 169.5q0 101 50.5 166t129.5 76v-11q-42 -14 -73 -68t-31 -137h252q0 86 -27 137.5t-64 67.5v11q72 -10 115.5 -68t43.5 -160h-320q3 -206 151 -213z" />
    <glyph glyph-name="f" unicode="f" horiz-adv-x="287" 
d="M244 742q48 -7 65 -31q19 -23 9 -48q-6 -17 -22 -24.5t-33 -1.5t-24.5 22t-1.5 33q8 18 22 23q7 3 -6 12q-4 2 -9 4v11zM77 462q0 139 25 201.5t86 75.5v-11q-43 -38 -43 -266h115l-2 -11h-113v-380q0 -35 11.5 -46t41.5 -15v-10h-160v10q27 4 33 14t6 47v380h-64l-1 11
h65z" />
    <glyph glyph-name="g" unicode="g" horiz-adv-x="528" 
d="M515 461q10 -13 7.5 -29.5t-15.5 -26.5q-13 -11 -29.5 -9t-26.5 15q-11 14 -6 30q1 3 -3 3q-18 5 -39 -15q-6 -5 -10 -12q39 -37 39 -100q0 -58 -43.5 -102t-114.5 -52v11q36 11 61 45.5t25 97.5q0 62 -25 96t-61 45v11q69 -8 112 -46q17 25 42.5 39t45.5 15q28 2 41 -16
zM87 -153q31 -36 98 -48.5t132 11.5l5 -10q-95 -43 -180 -33.5t-115 61.5q-43 75 32 148l9 -6q-33 -51 12 -115zM282 60q85 0 115 -9q71 -22 60 -103q0 -3 -1 -7.5t-5.5 -18.5t-13 -27.5t-25.5 -32t-40 -34.5l-7 12q27 21 41 46t14 40l1 14q0 2 -0.5 5.5t-6 12.5t-14 15.5
t-27.5 12t-45 5.5h-133q-69 0 -105 18.5t-36 71.5v8.5t4 20.5t11.5 27.5t26 26t43.5 19.5q-38 18 -57.5 54.5t-19.5 79.5q0 56 42.5 99.5t112.5 52.5v-11q-83 -21 -83 -141q0 -62 24 -97.5t59 -45.5v-11q-37 3 -66 15q-18 -3 -33.5 -16t-21.5 -30t-3.5 -33.5t23.5 -27.5
t56 -11h110z" />
    <glyph glyph-name="h" unicode="h" horiz-adv-x="485" 
d="M135 79q0 -40 6.5 -50.5t34.5 -17.5v-11h-149v11q28 8 34 18.5t6 49.5v569q0 27 -10 38t-40 14v11l118 23v-655zM430 79q0 -40 7 -51t34 -18v-10h-149v10q28 8 34 19t6 50v224q0 61 -29 95t-85 34q-36 0 -70 -30l-9 13q51 56 117 56q144 0 144 -164v-228z" />
    <glyph glyph-name="i" unicode="i" horiz-adv-x="226" 
d="M103 556q-18 0 -30 12.5t-12 29.5q0 18 12 30.5t30 12.5q17 0 30 -12.5t13 -30.5q0 -17 -13 -29.5t-30 -12.5zM188 11v-11h-149v11q28 8 34 18t6 49v306q0 27 -10 38.5t-40 15.5v10l118 23v-393q0 -40 6.5 -50t34.5 -17z" />
    <glyph glyph-name="j" unicode="j" horiz-adv-x="225" 
d="M102 556q-18 0 -30 12.5t-12 29.5q0 19 12 31t30 12t30.5 -12.5t12.5 -30.5q0 -17 -13 -29.5t-30 -12.5zM77 27v352q0 28 -9.5 41.5t-39.5 17.5v10l118 23v-421q0 -134 -39.5 -196t-119.5 -82v10q90 30 90 245z" />
    <glyph glyph-name="k" unicode="k" horiz-adv-x="493" 
d="M476 11v-11h-63q-51 0 -81 21.5t-87 96.5l-86 103l94 96l10.5 10.5t23.5 24.5t25.5 33.5t12.5 31.5t-10 25.5t-46 9.5v10h217v-10q-34 -1 -59.5 -12t-75 -53.5t-136.5 -133.5q16 -23 62 -75t83 -92l38 -40q31 -35 78 -35zM170 11v-11h-150v11q28 8 34 18t6 49v570
q0 27 -10 38.5t-40 14.5v11l119 22v-656q0 -40 6.5 -50t34.5 -17z" />
    <glyph glyph-name="l" unicode="l" horiz-adv-x="211" 
d="M183 11v-11h-150v11q28 8 34 18t6 49v570q0 27 -10 38.5t-40 14.5v11l119 22v-656q0 -40 6.5 -50t34.5 -17z" />
    <glyph glyph-name="m" unicode="m" horiz-adv-x="721" 
d="M129 78q0 -40 7 -50t34 -17v-11h-149v11q28 8 34 18t6 49v304q0 27 -10 39.5t-40 16.5v10l118 23v-393zM666 78q0 -40 7 -50.5t34 -17.5v-10h-149v10q28 8 34 18.5t6 49.5v226q0 129 -100 129q-34 0 -64 -28q-4 6 -9 11q45 55 108 55q65 0 99 -38t34 -125v-230zM399 78
q0 -40 7 -50.5t34 -17.5v-10h-149v10q28 8 34 18.5t6 49.5v226q0 129 -100 129q-34 0 -63 -27l-9 11q46 54 107 54q65 0 99 -38.5t34 -126.5v-228z" />
    <glyph glyph-name="n" unicode="n" horiz-adv-x="486" 
d="M129 78q0 -40 7 -50t34 -17v-11h-149v11q28 8 34 18t6 49v305q0 27 -10 39t-40 16v10l118 23v-393zM421 78q0 -40 7 -50.5t34 -17.5v-10h-149v10q28 8 34 18.5t6 49.5v226q0 60 -29.5 94.5t-83.5 34.5q-33 0 -65 -25l-11 12q51 51 113 51q144 0 144 -163v-230z" />
    <glyph glyph-name="o" unicode="o" horiz-adv-x="534" 
d="M495 231q0 -97 -51 -163.5t-147 -75.5v12q117 20 117 227t-117 226v12q96 -9 147 -75t51 -163zM121 231q0 -207 119 -227v-12q-96 9 -147.5 75.5t-51.5 163.5t51.5 163t147.5 75v-12q-119 -20 -119 -226z" />
    <glyph glyph-name="p" unicode="p" horiz-adv-x="547" 
d="M282 471q102 0 155 -70t53 -174t-55 -165t-146 -70v13q50 10 83 59t33 146q0 115 -40 174.5t-110 59.5q-52 0 -84 -33t-36 -88v-190q3 -53 29 -87t68 -42v-11q-56 7 -97 39v-221q0 -40 6.5 -49t34.5 -16v-11h-149v11q29 8 34.5 17.5t5.5 47.5v575q0 27 -10 38t-40 14v10
l118 23v-76q21 36 63 56t84 20z" />
    <glyph glyph-name="q" unicode="q" horiz-adv-x="530" 
d="M458 -188q0 -40 6.5 -49.5t34.5 -16.5v-11h-149v11q28 8 34 18t6 48v242q-23 -30 -61.5 -46.5t-77.5 -16.5q-102 0 -155 70.5t-53 175.5q0 103 54 163.5t143 69.5v-13q-50 -10 -82.5 -58.5t-32.5 -144.5q0 -116 39.5 -177.5t108.5 -61.5q47 0 80 29.5t37 77.5v215
q-4 48 -29.5 79.5t-63.5 40.5v12q60 -6 103 -40q17 26 44 34q14 5 14 -4v-647z" />
    <glyph glyph-name="r" unicode="r" horiz-adv-x="336" 
d="M133 471v-393q0 -40 6.5 -50t34.5 -17v-11h-150v11q28 8 34 18t6 49v306q0 27 -10 38.5t-40 15.5v10zM275 469q30 0 45 -22q11 -16 6.5 -35t-20.5 -29q-16 -11 -34.5 -6.5t-29.5 20.5q-9 15 -6 33q2 6 -5 6q-20 1 -52 -25l-8 10q48 48 104 48z" />
    <glyph glyph-name="s" unicode="s" horiz-adv-x="417" 
d="M347 439v-127h-11q-6 133 -123 147v11q42 -2 75.5 -10t45.5 -14zM265 241q69 -43 88.5 -98t-15.5 -104q-3 -4 -9 -10.5t-30 -19t-54 -16.5v12q43 8 54 38.5t-7 65.5t-53 58l-101 61q-71 50 -89.5 91.5t6.5 91.5q2 5 8 13.5t32 25t61 20.5v-13q-59 -13 -55 -64.5t63 -88.5
zM45 28v141h11q1 -25 4 -44.5t12 -41.5t22.5 -37t37.5 -27t56 -15v-11q-44 2 -80 11t-50 16z" />
    <glyph glyph-name="t" unicode="t" horiz-adv-x="298" 
d="M276 75l8 -4q-9 -33 -36.5 -56.5t-65.5 -23.5q-56 0 -84.5 33.5t-28.5 119.5v307h-50l-2 11h52v147l69 9v-156h118l-2 -11h-116v-304q0 -65 20 -91.5t57 -26.5q21 0 38 13.5t23 32.5z" />
    <glyph glyph-name="u" unicode="u" horiz-adv-x="501" 
d="M433 80q0 -35 9.5 -46t41.5 -15v-10l-97 -17q-11 -2 -16.5 1.5t-6.5 7.5v4v371q0 47 -6 56.5t-41 10.5v10l116 18v-391zM323 50l9 -11q-48 -48 -109 -48q-150 0 -150 150v231q0 51 -7 60.5t-49 10.5v10l123 18v-327q0 -59 32 -87t80 -28q44 0 71 21z" />
    <glyph glyph-name="v" unicode="v" horiz-adv-x="515" 
d="M324 462h192v-10q-22 0 -32.5 -2.5t-26.5 -14t-30.5 -39t-31.5 -74.5l-10 7q5 13 7.5 28.5t2 39.5t-18.5 39.5t-52 15.5v10zM197 452q-20 0 -31.5 -7t-13 -17t0 -19.5t4.5 -16.5l3 -7l144 -313l-30 -81h-8l-192 412q-11 22 -26.5 33.5t-23 13t-20.5 2.5v10h193v-10z" />
    <glyph glyph-name="w" unicode="w" horiz-adv-x="716" 
d="M186 452q-25 0 -32.5 -14.5t-2.5 -29.5l5 -14l130 -320l-29 -83h-8l-167 403q-23 52 -66 58v10h170v-10zM540 462h168v-10q-13 0 -22.5 -3t-23 -12.5t-26.5 -33t-25 -59.5l-9 9q3 7 4.5 19.5t0 32.5t-18.5 33.5t-48 13.5v10zM430 452q-29 0 -37.5 -15.5t-2.5 -30.5l5 -16
l128 -315l-29 -84h-7l-168 403q-21 53 -59 58v10h170v-10z" />
    <glyph glyph-name="x" unicode="x" horiz-adv-x="504" 
d="M321 346q13 19 20 32.5t11 28.5t-1 24t-20 15t-42 6v10h207v-10q-23 -1 -33 -2.5t-32 -11t-46 -34.5t-55 -67zM11 10q19 0 28 1.5t30.5 10.5t46.5 34t56 67l10 -8q-19 -29 -27.5 -46t-9 -32t13.5 -21t43 -6v-10h-191v10zM405 66q6 -9 12 -16.5t12.5 -12.5t12 -9.5t12 -7
t10.5 -4.5t10.5 -3t9 -1.5t8 -1t6.5 -0.5v-10h-181v10q15 0 20.5 7.5t3 17.5t-7.5 20.5t-10 18.5l-5 7l-218 315q-29 36 -44.5 45.5t-40.5 10.5v10h185v-10q-14 0 -22.5 -5.5t-6.5 -23t21 -45.5z" />
    <glyph glyph-name="y" unicode="y" horiz-adv-x="531" 
d="M322 462h192v-10q-25 0 -40 -8t-37.5 -44t-48.5 -108l-9 6q4 13 7.5 26t6 38.5t-2 43.5t-21.5 32.5t-47 13.5v10zM311 73l-30 -82h-7l-189 405q-24 53 -74 56v10h192v-10q-20 0 -30.5 -8t-11.5 -19.5t1 -23t6 -19.5l3 -8zM232 -141l-10 2q-12 -36 -29 -42q-6 -2 -8 5
q-5 20 -23 27q-16 8 -33.5 1t-25.5 -24q-7 -16 -0.5 -33.5t23.5 -25.5q27 -12 51 6q37 31 55 84z" />
    <glyph glyph-name="z" unicode="z" horiz-adv-x="397" 
d="M41 462h195l-6 -11q-84 -4 -129.5 -30.5t-52.5 -90.5h-12zM368 462l-254 -462h-84l263 462h75zM176 12q85 5 126 36.5t50 103.5h12l-9 -152h-185z" />
    <glyph glyph-name="braceleft" unicode="{" horiz-adv-x="319" 
d="M263 -157l-1 -7q-64 9 -99 47.5t-35 119.5v117q0 24 -1 43.5t-4.5 34t-6 25.5t-8.5 18.5t-9.5 12.5t-11.5 9t-12 5.5t-13 4t-13 3.5v7q2 1 14.5 5t15 5t12.5 7.5t13 13t9.5 19t8.5 28t4 38.5t2 52v117q0 81 35 119.5t99 47.5l1 -7q-75 -27 -75 -160v-144
q0 -73 -34 -108.5t-68 -35.5q35 0 68.5 -30.5t33.5 -102.5v-144q0 -134 75 -160z" />
    <glyph glyph-name="bar" unicode="|" horiz-adv-x="194" 
d="M73 -164v899h49v-899h-49z" />
    <glyph glyph-name="braceright" unicode="}" horiz-adv-x="320" 
d="M53 -164l-1 7q75 26 75 160v144q0 72 33.5 102.5t68.5 30.5q-34 0 -68 35.5t-34 108.5v144q0 133 -75 160l1 7q64 -9 99 -47.5t35 -119.5v-117q0 -29 2 -52t4 -38.5t8.5 -28t9.5 -19t13 -13t12.5 -7.5t15 -5t14.5 -5v-7q-4 -1 -13 -3.5t-13 -4t-12 -5.5t-11.5 -9
t-9.5 -12.5t-8.5 -18.5t-6 -25.5t-4.5 -34t-1 -43.5v-117q0 -81 -35 -119.5t-99 -47.5z" />
    <glyph glyph-name="asciitilde" unicode="~" horiz-adv-x="567" 
d="M329 221l-111 43q-19 7 -47 7.5t-59 -12t-44 -39.5l-6 2q15 39 39.5 64t48 31.5t45 7.5t34.5 -3l13 -3l113 -43q19 -5 47 -6.5t59 12t42 38.5l6 -2q-15 -40 -39.5 -64.5t-48 -31t-45 -8t-34.5 2.5z" />
    <glyph glyph-name="uni007F" horiz-adv-x="0" 
 />
    <glyph glyph-name="uni00A0" unicode="&#xa0;" horiz-adv-x="242" 
 />
    <glyph glyph-name="exclamdown" unicode="&#xa1;" horiz-adv-x="263" 
d="M114 390h39l17 -565h-74zM134 569q21 0 36 -14.5t15 -35.5t-15 -35.5t-36 -14.5t-35.5 14.5t-14.5 35.5t14.5 35.5t35.5 14.5z" />
    <glyph glyph-name="cent" unicode="&#xa2;" horiz-adv-x="513" 
d="M290 31v429q-22 -3 -43.5 -15t-44.5 -36t-37 -68.5t-14 -103.5q0 -94 40.5 -145t98.5 -61zM460 128l9 -3q-9 -47 -48.5 -88t-111.5 -46v-109h-19v109q-90 2 -152.5 64t-62.5 174q0 94 59 164.5t156 77.5v122h19v-564q58 -1 98 29.5t53 69.5zM411 426l2 1q-3 10 -33 22
q-9 3 -18 5v12q30 -6 50.5 -19.5t27 -24t9.5 -20.5q7 -23 -9 -40q-11 -11 -27.5 -11.5t-27.5 9.5q-11 12 -11.5 28t10.5 27q12 11 27 11z" />
    <glyph glyph-name="sterling" unicode="&#xa3;" horiz-adv-x="635" 
d="M574 124l13 -1q0 -37 -12.5 -64.5t-31.5 -41t-36.5 -20t-30.5 -6.5q-7 -1 -14.5 0t-16.5 3.5t-15.5 5t-17 8.5t-16.5 9.5t-18.5 12.5t-18.5 13t-20.5 15t-20.5 15q-55 -83 -178 -83v11q51 0 92 22.5t62 64.5q-50 37 -95 57q-52 20 -87.5 8t-53.5 -38t-12 -49l-11 -1
q-6 12 -1.5 28.5t11.5 34.5t25.5 32.5t41.5 23.5t58.5 6t76.5 -19q40 -17 59 -32q5 33 -4.5 64.5t-38.5 75.5q-4 6 -22.5 35.5t-30.5 47.5h-98v12h92q-67 130 -50.5 214t75 123.5t130.5 29.5l-3 -10q-48 4 -83.5 -17t-51 -64t2 -115.5t71.5 -160.5h176v-12h-168l33 -49
q57 -90 12 -194q22 -15 48 -28.5t40 -20.5l15 -6q39 -17 80.5 0t42.5 60zM443 675q10 -1 1 13q-5 7 -13 14l5 10q37 -27 51 -73q7 -29 -17 -48q-14 -13 -34 -11t-33 17q-13 16 -11.5 36t17.5 33q14 12 34 9z" />
    <glyph glyph-name="currency" unicode="&#xa4;" horiz-adv-x="530" 
d="M137 471q-52 -52 -52 -126q0 -73 52 -125t125 -52t125 52t52 126q0 71 -52 125q-52 52 -125 52t-125 -52zM437 204l69 -70l-32 -32l-71 69q-62 -51 -141 -51q-77 0 -141 51l-70 -69l-33 32l69 70q-50 62 -50 142q0 78 50 141l-69 69l33 34l70 -70q61 50 141 50
q82 0 141 -50l71 70l32 -34l-69 -69q50 -63 50 -141q0 -80 -50 -142z" />
    <glyph glyph-name="yen" unicode="&#xa5;" horiz-adv-x="571" 
d="M175 581l155 -265h174v-14h-174v-67h174v-14h-174v-114q0 -60 17 -78t53 -18v-11h-209v11q36 0 53 18t17 78v114h-196v14h196v58l-5 9h-191v14h184l-173 300q-21 37 -39.5 54.5t-29 20t-34.5 4.5v9h225v-9q-14 0 -21.5 -0.5t-19 -6.5t-13.5 -17t5 -34t26 -56zM365 704
h237v-10q-24 0 -37 -3.5t-35 -23.5t-50 -66t-69 -126l-7 12q15 30 24 51.5t17.5 47.5t7.5 43.5t-8 33.5t-27.5 23.5t-52.5 7.5v10z" />
    <glyph glyph-name="brokenbar" unicode="&#xa6;" horiz-adv-x="198" 
d="M119 735v-375h-48v375h48zM119 186v-377h-48v377h48z" />
    <glyph glyph-name="section" unicode="&#xa7;" horiz-adv-x="517" 
d="M157 -207l-2 -1q3 -9 35 -24l-1 -13q-27 10 -47.5 28.5t-27.5 37.5q-9 25 9 45q11 13 29.5 14t32.5 -11q13 -12 14 -30.5t-11 -31.5q-14 -14 -31 -14zM330 656q14 14 28 13q10 -1 -5 11q-10 10 -27 18v11q28 -10 49 -29t28 -38q9 -25 -8 -45q-12 -13 -30 -14t-32 12
q-13 12 -14 29.5t11 31.5zM183 413q-53 -34 -74 -72t-12.5 -72t30.5 -62t56 -52q10 -7 57 -39t62 -43q8 -6 16 -11.5t13 -9t6 -4.5q52 35 73 73t12 72t-31 62.5t-56 52.5q-55 39 -124 86q-21 16 -28 19zM364 374q45 -31 71 -71t30 -84t-25.5 -91t-93.5 -88q44 -37 62.5 -73
t11.5 -90q-16 -121 -146 -132v11q40 6 65.5 29.5t30.5 63.5q6 45 -12 75.5t-75 75.5l-129 89q-45 32 -70.5 71t-30 82.5t26 91t94.5 88.5q-44 39 -62 74.5t-12 89.5q15 118 141 131l-1 -11q-83 -13 -95 -92q-5 -44 13.5 -75.5t76.5 -76.5z" />
    <glyph glyph-name="dieresis" unicode="&#xa8;" horiz-adv-x="207" 
d="M136 646q0 17 11.5 29t28.5 12t28.5 -12t11.5 -29q0 -16 -12 -27.5t-28 -11.5t-28 11.5t-12 27.5zM-9 646q0 17 11.5 29t28.5 12q16 0 28 -12t12 -29q0 -16 -12 -27.5t-28 -11.5q-17 0 -28.5 11.5t-11.5 27.5z" />
    <glyph glyph-name="copyright" unicode="&#xa9;" horiz-adv-x="792" 
d="M515 276h8l5 -86q-31 -21 -57.5 -28t-71.5 -7q-89 0 -142.5 53.5t-53.5 150.5t53.5 150t142.5 53q87 0 129 -34l-5 -86h-8q-1 30 -11 51.5t-22.5 33t-29.5 18t-29 8t-24 1.5q-25 0 -45 -6t-43.5 -24t-36.5 -60t-13 -105q0 -64 13.5 -106.5t37 -60.5t43 -23.5t44.5 -5.5
q16 0 31 3.5t36 13.5t34.5 34.5t14.5 61.5zM756 368q0 -150 -106.5 -256.5t-256.5 -106.5q-152 0 -258 106.5t-106 256.5q0 151 106 257.5t258 106.5q150 0 256.5 -106.5t106.5 -257.5zM717 368q0 135 -95.5 230.5t-228.5 95.5q-135 0 -230.5 -95.5t-95.5 -230.5
q0 -134 95.5 -229.5t230.5 -95.5q133 0 228.5 95.5t95.5 229.5z" />
    <glyph glyph-name="ordfeminine" unicode="&#xaa;" horiz-adv-x="283" 
d="M153 586q-97 -22 -97 -69q0 -19 11.5 -31.5t34.5 -12.5q34 0 51 33v80zM228 490l7 -2q-7 -35 -42 -35q-4 0 -10.5 1t-18 12t-11.5 31q-5 -19 -25.5 -31.5t-48.5 -12.5h-6t-14.5 3t-18 8t-14 16.5t-6.5 26.5q0 35 29 52t104 36v29q0 42 -19 60.5t-52 3.5q-20 -11 -22 -20
q8 0 14 -8q5 -7 4 -16t-8 -14q-16 -14 -30 3q-7 10 -2 23q6 20 40 38q10 5 22 7.5t19 2.5h7q36 0 50 -26.5t14 -78.5v-94q0 -4 0.5 -9t6.5 -13.5t16 -8.5q13 0 15 16z" />
    <glyph glyph-name="guillemotleft" unicode="&#xab;" horiz-adv-x="610" 
d="M522 505v-20l-161 -219l161 -214v-19l-231 233zM318 505v-20l-162 -219l162 -214v-19l-231 233z" />
    <glyph glyph-name="logicalnot" unicode="&#xac;" horiz-adv-x="638" 
d="M41 388h550v-302h-52v253h-498v49z" />
    <glyph glyph-name="uni00AD" unicode="&#xad;" horiz-adv-x="444" 
d="M379 227h-315v55h315v-55z" />
    <glyph glyph-name="registered" unicode="&#xae;" horiz-adv-x="802" 
d="M470 455q0 28 -6.5 47.5t-14.5 29t-25.5 14.5t-29 5.5t-34.5 0.5h-7h-17v-195h17q27 0 39 0.5t30.5 5.5t26.5 15t14.5 29t6.5 48zM757 368q0 -150 -106.5 -256.5t-256.5 -106.5q-151 0 -257.5 106.5t-106.5 256.5q0 151 106.5 257.5t257.5 106.5q150 0 256.5 -106.5
t106.5 -257.5zM718 368q0 135 -95.5 230.5t-228.5 95.5q-135 0 -230.5 -95.5t-95.5 -230.5q0 -134 95.5 -229t230.5 -95q133 0 228.5 95t95.5 229zM573 179v-9h-38q-41 0 -50 14t-29 107q-6 28 -29.5 42.5t-44.5 14.5l-20 1h-26v-123q0 -29 7 -38t26 -9v-9h-105v9
q19 0 25 10t6 47v279q0 25 -6 31t-25 6v8h89q90 0 126.5 -20t36.5 -85q0 -56 -26.5 -78.5t-74.5 -24.5q36 -4 48 -13q32 -23 53 -117q10 -43 57 -43z" />
    <glyph glyph-name="macron" unicode="&#xaf;" horiz-adv-x="360" 
d="M377 601h-393v42h393v-42z" />
    <glyph glyph-name="degree" unicode="&#xb0;" horiz-adv-x="381" 
d="M85 607q0 -42 30 -71.5t73 -29.5q41 0 71 29.5t30 71.5q0 41 -30 71t-71 30q-43 0 -73 -30t-30 -71zM57 607q0 54 38.5 92t91.5 38t91.5 -38t38.5 -92q0 -53 -38.5 -90.5t-91.5 -37.5t-91.5 37.5t-38.5 90.5z" />
    <glyph glyph-name="plusminus" unicode="&#xb1;" horiz-adv-x="608" 
d="M326 363h234v-52h-234v-171h-52v171h-233v52h233v173h52v-173zM41 0v52h519v-52h-519z" />
    <glyph glyph-name="twosuperior" unicode="&#xb2;" horiz-adv-x="256" 
d="M203 434h6l-15 -56h-163l99 152q54 78 20 122q-22 29 -61 21t-48 -49q-1 -4 -1 -8l-9 2q1 25 9.5 43t21 26t24.5 12.5t20 4.5h9q34 0 56.5 -22.5t22.5 -53.5q0 -21 -11 -41.5t-42 -63.5l-77 -114h96q28 0 43 25z" />
    <glyph glyph-name="threesuperior" unicode="&#xb3;" horiz-adv-x="257" 
d="M113 374q-54 0 -74 27q-7 12 -2 23q4 8 12.5 10t16.5 -2q18 -11 8 -28q-5 -8 -12 -10l12 -7q17 -7 39 -7q77 0 70 83q-7 71 -88 75v9q50 4 65.5 47t-20.5 73q-25 22 -60.5 9t-37.5 -47l-9 1q1 26 13 42.5t30 22.5t27 7.5t17 1.5q39 0 61 -30t12 -67.5t-53 -54.5
q37 -6 57.5 -30.5t20.5 -52.5t-10 -48t-27.5 -29.5t-34 -13.5t-33.5 -4z" />
    <glyph glyph-name="acute" unicode="&#xb4;" horiz-adv-x="338" 
d="M87 557l181 161l65 -19l-231 -142h-15z" />
    <glyph glyph-name="mu" unicode="&#xb5;" horiz-adv-x="497" 
d="M327 41q-33 -35 -84.5 -44t-108.5 17v-189q0 -36 9.5 -47.5t41.5 -15.5v-10l-96 -16q-11 -2 -16.5 1t-5.5 7v5v622q0 51 -7 60.5t-49 10.5v11l123 18v-338q3 -54 34 -79t78 -25q45 0 73 23zM427 79q0 -35 9.5 -46t41.5 -15v-10l-97 -16q-11 -2 -16.5 1t-6.5 7v5v371
q0 47 -6 56t-41 10v11l116 18v-392z" />
    <glyph glyph-name="paragraph" unicode="&#xb6;" horiz-adv-x="613" 
d="M449 588v-727q0 -115 75 -115v-11h-129v969h136v-12q-38 0 -60 -26.5t-22 -77.5zM288 704h51v-969h-157v11q43 0 74 20t31 68v466q-56 0 -97.5 8.5t-78 29t-55.5 61.5t-19 101q0 202 250 204h1z" />
    <glyph glyph-name="periodcentered" unicode="&#xb7;" horiz-adv-x="241" 
d="M118 259q-16 0 -28 11.5t-12 28.5t12 28.5t28 11.5q17 0 29 -12t12 -28t-12 -28t-29 -12z" />
    <glyph glyph-name="cedilla" unicode="&#xb8;" horiz-adv-x="261" 
d="M83 -72q70 21 108 -5.5t32 -71.5q-6 -46 -36.5 -64.5t-65.5 -18.5q-45 1 -62 27q-9 9 -2 22q3 8 11 10t16 -2q18 -7 11 -27q-6 -8 -11 -8q-2 -1 1.5 -3.5t13 -5t22.5 -2.5q29 0 47 16t18 46q0 32 -25.5 57.5t-84.5 11.5z" />
    <glyph glyph-name="onesuperior" unicode="&#xb9;" horiz-adv-x="191" 
d="M151 386v-6h-102v6q11 0 18 2t12.5 10.5t5.5 24.5v222q-2 20 -11 19t-30 -18l-5 6l62 53h15v-282q0 -16 6 -25t12.5 -10.5t16.5 -1.5z" />
    <glyph glyph-name="ordmasculine" unicode="&#xba;" horiz-adv-x="322" 
d="M246 536q0 163 -86 163t-86 -163q0 -156 86 -156q38 0 62 32.5t24 123.5zM286 536q0 -163 -126 -163t-126 163q0 171 126 171t126 -171z" />
    <glyph glyph-name="guillemotright" unicode="&#xbb;" horiz-adv-x="609" 
d="M84 485v20l231 -239l-231 -233v19l161 214zM288 485v20l231 -239l-231 -233v19l162 214z" />
    <glyph glyph-name="onequarter" unicode="&#xbc;" horiz-adv-x="611" 
d="M453 131v184l-114 -166q-8 -13 -7 -15.5t14 -2.5h107zM572 709h42l-557 -673h-42zM221 382v-7h-112v7q13 0 20 2t13 11t6 27v257q0 12 -3 17t-9.5 3.5t-14 -6t-19.5 -13.5l-4 6l68 60h17v-324q0 -27 9.5 -33.5t28.5 -6.5zM541 108h-48v-50q0 -23 5.5 -34.5t11.5 -13.5
t20 -2v-8h-112v8q13 0 19 2t11 13t5 33v52h-148v7l170 251l18 -1v-234h48v-23z" />
    <glyph glyph-name="onehalf" unicode="&#xbd;" horiz-adv-x="638" 
d="M587 65h8l-18 -65h-187l114 174q60 87 24 138q-23 32 -66 27q-45 -6 -58 -49q-2 -8 -3 -17l-10 2q1 29 11 49.5t23.5 29.5t27.5 14t23 5h10q39 0 64.5 -25.5t25.5 -61.5q0 -23 -13 -46.5t-49 -72.5l-87 -131h110q34 0 50 29zM572 709h42l-557 -673h-42zM221 382v-7h-112
v7q13 0 20 2t13 11t6 27v257q0 12 -3 17t-9.5 3.5t-14 -6t-19.5 -13.5l-4 6l68 60h17v-324q0 -27 9.5 -33.5t28.5 -6.5z" />
    <glyph glyph-name="threequarters" unicode="&#xbe;" horiz-adv-x="606" 
d="M453 131v184l-114 -166q-8 -13 -7 -15.5t14 -2.5h107zM572 709h42l-557 -672h-42zM143 373q-62 0 -83 31q-9 12 -2 24q4 9 14 12t18 -2q21 -11 10 -31q-7 -10 -13 -11q-2 0 3.5 -4t20 -8t32.5 -4q86 0 78 94q-2 33 -25 58.5t-74 26.5v9q56 5 74 54t-22 82q-28 25 -68 10
t-43 -53l-9 2q1 23 11 40t22 25t28 12.5t23 5t13 0.5q32 0 55.5 -21t29 -49t-9.5 -57.5t-52 -43.5q40 -6 63.5 -34t24.5 -60q0 -32 -11.5 -55t-31 -33.5t-38 -15t-38.5 -4.5zM541 108h-48v-50q0 -23 5.5 -34.5t11.5 -13.5t20 -2v-8h-112v8q13 0 19 2t11 13t5 33v52h-148v7
l170 251l18 -1v-234h48v-23z" />
    <glyph glyph-name="questiondown" unicode="&#xbf;" horiz-adv-x="584" 
d="M322 367q-22 0 -37.5 15.5t-15.5 37.5t15.5 37t37.5 15t37.5 -15t15.5 -37t-15.5 -37.5t-37.5 -15.5zM424 -162q-10 16 -7 34.5t18 29.5q15 10 33.5 6.5t29.5 -19.5q13 -18 5 -46q-11 -40 -58 -70l-5 9q26 17 19 33q-2 5 -7 5q-16 1 -28 18zM190 -80q8 -92 56.5 -132
t113.5 -35l5 -11q-104 -23 -181.5 26.5t-81.5 147.5q-7 153 156 232q73 35 65 135l15 2q15 -100 -52 -156q-47 -39 -61 -59q-43 -57 -35 -150z" />
    <glyph glyph-name="Agrave" unicode="&#xc0;" horiz-adv-x="674" 
d="M579 97q12 -29 22 -46.5t20.5 -26t18 -10.5t20.5 -3v-11h-199v11q66 0 18 116l-37 95h-270q-38 -110 -37 -146q1 -62 78 -65h13v-11h-211v11q19 0 30.5 5t28 26.5t36.5 67t48 123.5h280l-145 374l36 97h7zM263 895l181 -161h-15l-231 142z" />
    <glyph glyph-name="Aacute" unicode="&#xc1;" horiz-adv-x="674" 
d="M579 97q12 -29 22 -46.5t20.5 -26t18 -10.5t20.5 -3v-11h-199v11q66 0 18 116l-37 95h-270q-38 -110 -37 -146q1 -62 78 -65h13v-11h-211v11q19 0 30.5 5t28 26.5t36.5 67t48 123.5h280l-145 374l36 97h7zM216 734l181 161l65 -19l-231 -142h-15z" />
    <glyph glyph-name="Acircumflex" unicode="&#xc2;" horiz-adv-x="674" 
d="M579 97q12 -29 22 -46.5t20.5 -26t18 -10.5t20.5 -3v-11h-199v11q66 0 18 116l-37 95h-270q-38 -110 -37 -146q1 -62 78 -65h13v-11h-211v11q19 0 30.5 5t28 26.5t36.5 67t48 123.5h280l-145 374l36 97h7zM448 735l-119 115l-119 -115h-17l136 188l136 -188h-17z" />
    <glyph glyph-name="Atilde" unicode="&#xc3;" horiz-adv-x="674" 
d="M377 775l-112 44q-19 7 -46.5 7.5t-58.5 -12t-43 -40.5l-6 2q15 40 39 64.5t47.5 31.5t45 8t34.5 -2l13 -4l112 -43q19 -5 47.5 -6.5t59 12.5t41.5 39l7 -3q-15 -40 -39.5 -65t-48 -31.5t-45 -8t-34.5 2.5zM579 97q12 -29 22 -46.5t20.5 -26t18 -10.5t20.5 -3v-11h-199
v11q66 0 18 116l-37 95h-270q-38 -110 -37 -146q1 -62 78 -65h13v-11h-211v11q19 0 30.5 5t28 26.5t36.5 67t48 123.5h280l-145 374l36 97h7z" />
    <glyph glyph-name="Adieresis" unicode="&#xc4;" horiz-adv-x="674" 
d="M366 824q0 17 11.5 29t27.5 12q17 0 29 -12t12 -29q0 -16 -12 -28t-29 -12q-16 0 -27.5 11.5t-11.5 28.5zM220 824q0 17 11.5 29t28.5 12t28.5 -12t11.5 -29q0 -16 -12 -28t-28 -12t-28 12t-12 28zM579 97q12 -29 22 -46.5t20.5 -26t18 -10.5t20.5 -3v-11h-199v11
q66 0 18 116l-37 95h-270q-38 -110 -37 -146q1 -62 78 -65h13v-11h-211v11q19 0 30.5 5t28 26.5t36.5 67t48 123.5h280l-145 374l36 97h7z" />
    <glyph glyph-name="Aring" unicode="&#xc5;" horiz-adv-x="674" 
d="M266 880q0 -28 19.5 -47.5t47.5 -19.5t47.5 19.5t19.5 47.5t-19.5 48t-47.5 20t-47.5 -19.5t-19.5 -48.5zM238 880q0 40 27.5 68t67.5 28t67.5 -28t27.5 -68q0 -39 -27.5 -67t-67.5 -28t-67.5 28t-27.5 67zM579 97q12 -29 22 -46.5t20.5 -26t18 -10.5t20.5 -3v-11h-199
v11q66 0 18 116l-37 95h-270q-38 -110 -37 -146q1 -62 78 -65h13v-11h-211v11q19 0 30.5 5t28 26.5t36.5 67t48 123.5h280l-145 374l36 97h7z" />
    <glyph glyph-name="AE" unicode="&#xc6;" horiz-adv-x="926" 
d="M826 529q-1 42 -12.5 71.5t-28.5 47t-45.5 27.5t-56 13t-66.5 4v12h220v-175h-11zM531 704v-704h-138v11q33 0 44.5 19.5t11.5 76.5v126h-231q-38 -69 -55.5 -110t-17.5 -67t18 -35.5t57 -9.5v-11h-214v11q25 0 45.5 12t60.5 65.5t97 155.5h240v388q0 36 -13.5 48.5
t-46.5 12.5v11h142zM850 202v-202h-233v11q41 1 69.5 4.5t58.5 14.5t48.5 31t31 55.5t14.5 85.5h11zM718 250q-2 97 -101 99v12q21 1 35.5 4.5t31 13t25 30t9.5 51.5h11v-210h-11z" />
    <glyph glyph-name="Ccedilla" unicode="&#xc7;" horiz-adv-x="660" 
d="M429 3q64 8 114 58.5t54 144.5h11l10 -153q-47 -31 -88.5 -44.5t-100.5 -16.5v11zM597 499q-9 98 -57 146.5t-111 55.5v11q62 -2 106 -15.5t83 -44.5l-10 -153h-11zM40 352q0 161 82 254t221 105v-11q-201 -25 -201 -348q0 -327 201 -348v-11q-139 13 -221 106.5
t-82 252.5zM329 -68q70 21 108 -5.5t32 -71.5q-6 -46 -36.5 -64.5t-65.5 -18.5q-45 1 -62 27q-9 9 -2 22q3 8 11 10t16 -2q18 -7 11 -27q-6 -8 -11 -8q-2 -1 1.5 -3.5t13 -5t22.5 -2.5q29 0 47 16t18 46q0 32 -25.5 57.5t-84.5 11.5z" />
    <glyph glyph-name="Egrave" unicode="&#xc8;" horiz-adv-x="578" 
d="M503 203v-203h-253v11q47 1 76 3.5t63 13.5t53 31t33 56t17 88h11zM164 704v-704h-133v11q30 0 40.5 21.5t10.5 74.5v506q0 48 -9.5 64t-41.5 16v11h133zM479 529q-1 43 -14 73.5t-31.5 47.5t-50 27t-60.5 12.5t-73 3.5v11h240v-175h-11zM370 250q-1 26 -9.5 45t-20 29
t-29 16t-31 7.5t-32.5 1.5v13q20 0 33 1.5t31 7t29 15.5t19.5 29t9.5 45h11v-210h-11zM233 895l181 -161h-15l-231 142z" />
    <glyph glyph-name="Eacute" unicode="&#xc9;" horiz-adv-x="578" 
d="M503 203v-203h-253v11q47 1 76 3.5t63 13.5t53 31t33 56t17 88h11zM164 704v-704h-133v11q30 0 40.5 21.5t10.5 74.5v506q0 48 -9.5 64t-41.5 16v11h133zM479 529q-1 43 -14 73.5t-31.5 47.5t-50 27t-60.5 12.5t-73 3.5v11h240v-175h-11zM370 250q-1 26 -9.5 45t-20 29
t-29 16t-31 7.5t-32.5 1.5v13q20 0 33 1.5t31 7t29 15.5t19.5 29t9.5 45h11v-210h-11zM148 734l181 161l65 -19l-231 -142h-15z" />
    <glyph glyph-name="Ecircumflex" unicode="&#xca;" horiz-adv-x="578" 
d="M503 203v-203h-253v11q47 1 76 3.5t63 13.5t53 31t33 56t17 88h11zM164 704v-704h-133v11q30 0 40.5 21.5t10.5 74.5v506q0 48 -9.5 64t-41.5 16v11h133zM479 529q-1 43 -14 73.5t-31.5 47.5t-50 27t-60.5 12.5t-73 3.5v11h240v-175h-11zM370 250q-1 26 -9.5 45t-20 29
t-29 16t-31 7.5t-32.5 1.5v13q20 0 33 1.5t31 7t29 15.5t19.5 29t9.5 45h11v-210h-11zM393 735l-119 115l-119 -115h-17l136 188l136 -188h-17z" />
    <glyph glyph-name="Edieresis" unicode="&#xcb;" horiz-adv-x="578" 
d="M304 824q0 17 11.5 29t28.5 12q16 0 28 -12t12 -29q0 -16 -12 -28t-28 -12q-17 0 -28.5 11.5t-11.5 28.5zM159 824q0 17 11.5 29t27.5 12q17 0 29 -12t12 -29q0 -16 -12 -28t-29 -12q-16 0 -27.5 11.5t-11.5 28.5zM503 203v-203h-253v11q47 1 76 3.5t63 13.5t53 31t33 56
t17 88h11zM164 704v-704h-133v11q30 0 40.5 21.5t10.5 74.5v506q0 48 -9.5 64t-41.5 16v11h133zM479 529q-1 43 -14 73.5t-31.5 47.5t-50 27t-60.5 12.5t-73 3.5v11h240v-175h-11zM370 250q-1 26 -9.5 45t-20 29t-29 16t-31 7.5t-32.5 1.5v13q20 0 33 1.5t31 7t29 15.5
t19.5 29t9.5 45h11v-210h-11z" />
    <glyph glyph-name="Igrave" unicode="&#xcc;" horiz-adv-x="292" 
d="M255 704h-206v-10q35 0 49 -14.5t14 -59.5v-520q0 -50 -15 -69.5t-48 -19.5v-11h206v11q-33 0 -47.5 19.5t-14.5 69.5v520q0 44 14 59t48 15v10zM87 895l181 -161h-15l-231 142z" />
    <glyph glyph-name="Iacute" unicode="&#xcd;" horiz-adv-x="292" 
d="M49 704h206v-10q-34 0 -48 -15t-14 -59v-520q0 -50 14.5 -69.5t47.5 -19.5v-11h-206v11q33 0 48 19.5t15 69.5v520q0 45 -14 59.5t-49 14.5v10zM43 734l181 161l65 -19l-231 -142h-15z" />
    <glyph glyph-name="Icircumflex" unicode="&#xce;" horiz-adv-x="292" 
d="M255 704h-206v-10q35 0 49 -14.5t14 -59.5v-520q0 -50 -15 -69.5t-48 -19.5v-11h206v11q-33 0 -47.5 19.5t-14.5 69.5v520q0 44 14 59t48 15v10zM272 735l-119 115l-119 -115h-17l136 188l136 -188h-17z" />
    <glyph glyph-name="Idieresis" unicode="&#xcf;" horiz-adv-x="292" 
d="M225 785q-17 0 -28.5 11.5t-11.5 27.5q0 17 11.5 29t28.5 12t28.5 -12t11.5 -29q0 -16 -11.5 -27.5t-28.5 -11.5zM120 824q0 -16 -12 -27.5t-28 -11.5q-17 0 -28.5 11t-11.5 28t11.5 29t28.5 12q16 0 28 -12t12 -29zM49 694v10h207v-10q-34 0 -48.5 -15t-14.5 -59v-520
q0 -49 15 -69t48 -20v-11h-207v11q33 0 48 19.5t15 69.5v520q0 45 -14 59.5t-49 14.5z" />
    <glyph glyph-name="Eth" unicode="&#xd0;" horiz-adv-x="670" 
d="M195 341v-341h-147v11q64 0 64 99v231h-100v21h100v234q0 98 -64 98v10h147v-342h141v-21h-141zM625 351q0 -83 -19 -145.5t-49.5 -100t-77 -61t-93 -32.5t-105.5 -11v10q32 1 57 5.5t56 16.5t53.5 36t42.5 59.5t30.5 92.5t10.5 130q0 84 -16 147t-39.5 98.5t-58.5 57.5
t-66 29.5t-70 9.5v10q74 -4 131.5 -21.5t107.5 -55.5t77.5 -107.5t27.5 -167.5z" />
    <glyph glyph-name="Ntilde" unicode="&#xd1;" horiz-adv-x="771" 
d="M425 775l-112 44q-19 7 -46.5 7.5t-58.5 -12t-43 -40.5l-6 2q15 40 39 64.5t47.5 31.5t45 8t34.5 -2l13 -4l112 -43q19 -5 47 -6.5t59 12.5t42 39l7 -3q-16 -40 -40 -65t-47.5 -31.5t-45 -8t-34.5 2.5zM176 247q0 -33 0.5 -49t1.5 -43t4.5 -41t9.5 -34t15.5 -30
t22.5 -20.5t31.5 -14.5t42.5 -4v-11h-281v11q26 0 46.5 4t35 14.5t25 20t17 29.5t10 33.5t5 41t2 44t0.5 49.5h12zM4 704h155l458 -602v-102h-22l-472 616q-9 12 -18 21.5t-16 17t-15 13.5t-13 9.5t-12 6.5t-10 4.5t-10 3t-8.5 1.5t-8.5 0.5t-8 0.5v10zM478 694v10h277v-10
q-23 0 -41 -4t-32 -9t-24.5 -16.5t-17 -20t-11.5 -27.5t-7 -30.5t-3.5 -36t-1.5 -38.5v-44v-11h-11q0 34 -0.5 51t-1.5 44.5t-4.5 41.5t-9.5 33.5t-15.5 29t-22.5 19.5t-31.5 14t-42.5 4z" />
    <glyph glyph-name="Ograve" unicode="&#xd2;" horiz-adv-x="726" 
d="M127 347q0 -311 185 -342v-12q-135 14 -203 110.5t-68 243.5t68.5 247.5t202.5 115.5v-12q-185 -35 -185 -351zM671 347q0 -96 -28 -170.5t-90.5 -124t-154.5 -59.5v12q184 31 184 342q0 316 -184 351v12q69 -7 122.5 -38.5t85.5 -81t48.5 -111t16.5 -132.5zM291 895
l181 -161h-15l-231 142z" />
    <glyph glyph-name="Oacute" unicode="&#xd3;" horiz-adv-x="726" 
d="M127 347q0 -311 185 -342v-12q-135 14 -203 110.5t-68 243.5t68.5 247.5t202.5 115.5v-12q-185 -35 -185 -351zM671 347q0 -96 -28 -170.5t-90.5 -124t-154.5 -59.5v12q184 31 184 342q0 316 -184 351v12q69 -7 122.5 -38.5t85.5 -81t48.5 -111t16.5 -132.5zM235 734
l181 161l65 -19l-231 -142h-15z" />
    <glyph glyph-name="Ocircumflex" unicode="&#xd4;" horiz-adv-x="726" 
d="M127 347q0 -311 185 -342v-12q-135 14 -203 110.5t-68 243.5t68.5 247.5t202.5 115.5v-12q-185 -35 -185 -351zM671 347q0 -96 -28 -170.5t-90.5 -124t-154.5 -59.5v12q184 31 184 342q0 316 -184 351v12q69 -7 122.5 -38.5t85.5 -81t48.5 -111t16.5 -132.5zM472 735
l-119 115l-119 -115h-17l136 188l136 -188h-17z" />
    <glyph glyph-name="Otilde" unicode="&#xd5;" horiz-adv-x="726" 
d="M292 818q-19 7 -47 8t-58.5 -11.5t-43.5 -40.5l-6 2q15 40 39.5 64.5t47.5 31.5t44.5 8t34.5 -2l13 -4l113 -44q19 -5 47 -6t59 13t42 39l6 -3q-15 -40 -39.5 -65t-48 -31.5t-45 -8t-34.5 2.5l-13 4zM127 347q0 -311 185 -342v-12q-135 14 -203 110.5t-68 243.5
t68.5 247.5t202.5 115.5v-12q-185 -35 -185 -351zM671 347q0 -96 -28 -170.5t-90.5 -124t-154.5 -59.5v12q184 31 184 342q0 316 -184 351v12q69 -7 122.5 -38.5t85.5 -81t48.5 -111t16.5 -132.5z" />
    <glyph glyph-name="Odieresis" unicode="&#xd6;" horiz-adv-x="726" 
d="M390 824q0 17 11.5 29t27.5 12q17 0 29 -12t12 -29q0 -16 -12 -28t-29 -12q-16 0 -27.5 11.5t-11.5 28.5zM245 824q0 17 11.5 29t27.5 12q17 0 28.5 -12t11.5 -29q0 -16 -12 -28t-28 -12t-27.5 11.5t-11.5 28.5zM127 347q0 -311 185 -342v-12q-135 14 -203 110.5
t-68 243.5t68.5 247.5t202.5 115.5v-12q-185 -35 -185 -351zM671 347q0 -96 -28 -170.5t-90.5 -124t-154.5 -59.5v12q184 31 184 342q0 316 -184 351v12q69 -7 122.5 -38.5t85.5 -81t48.5 -111t16.5 -132.5z" />
    <glyph glyph-name="multiply" unicode="&#xd7;" horiz-adv-x="600" 
d="M343 254l198 -198l-43 -44l-198 199l-197 -199l-44 44l198 198l-198 198l44 44l197 -198l198 197l43 -43z" />
    <glyph glyph-name="Oslash" unicode="&#xd8;" horiz-adv-x="727" 
d="M672 348q0 -147 -68 -244t-204 -111v13q183 29 183 342q0 166 -56 258l-320 -541q40 -49 107 -59v-13q-71 7 -127 40l-40 -68h-21l47 78q-131 88 -131 305q0 148 68.5 248t203.5 114v-12q-186 -33 -186 -350q0 -181 67 -268l321 543q-42 62 -116 75v13q81 -9 139 -50
l49 84h22l-57 -95q59 -49 89 -128t30 -174z" />
    <glyph glyph-name="Ugrave" unicode="&#xd9;" horiz-adv-x="684" 
d="M265 895l181 -161h-15l-231 142zM350 28q87 0 137.5 54.5t50.5 151.5h11q1 -118 -65 -180.5t-176 -62.5q-99 0 -161.5 64t-62.5 182v370q0 51 -15 68.5t-50 17.5v11h214v-11q-38 0 -55.5 -16t-17.5 -72v-378q0 -94 51.5 -146.5t138.5 -52.5zM429 693v11h238v-11
q-25 0 -43.5 -4t-31.5 -9.5t-21 -20t-12.5 -24.5t-6.5 -36t-2.5 -42.5t-0.5 -53.5v-10h-11q0 50 -1.5 76t-7 54.5t-17 41t-32 20.5t-51.5 8z" />
    <glyph glyph-name="Uacute" unicode="&#xda;" horiz-adv-x="684" 
d="M350 28q87 0 137.5 54.5t50.5 151.5h11q1 -118 -65 -180.5t-176 -62.5q-99 0 -161.5 64t-62.5 182v370q0 51 -15 68.5t-50 17.5v11h214v-11q-38 0 -55.5 -16t-17.5 -72v-378q0 -94 51.5 -146.5t138.5 -52.5zM429 693v11h238v-11q-25 0 -43.5 -4t-31.5 -9.5t-21 -20
t-12.5 -24.5t-6.5 -36t-2.5 -42.5t-0.5 -53.5v-10h-11q0 50 -1.5 76t-7 54.5t-17 41t-32 20.5t-51.5 8zM225 734l181 161l65 -19l-231 -142h-15z" />
    <glyph glyph-name="Ucircumflex" unicode="&#xdb;" horiz-adv-x="684" 
d="M456 735l-119 115l-119 -115h-17l136 188l136 -188h-17zM350 28q87 0 137.5 54.5t50.5 151.5h11q1 -118 -65 -180.5t-176 -62.5q-99 0 -161.5 64t-62.5 182v370q0 51 -15 68.5t-50 17.5v11h214v-11q-38 0 -55.5 -16t-17.5 -72v-378q0 -94 51.5 -146.5t138.5 -52.5z
M429 693v11h238v-11q-25 0 -43.5 -4t-31.5 -9.5t-21 -20t-12.5 -24.5t-6.5 -36t-2.5 -42.5t-0.5 -53.5v-10h-11q0 50 -1.5 76t-7 54.5t-17 41t-32 20.5t-51.5 8z" />
    <glyph glyph-name="Udieresis" unicode="&#xdc;" horiz-adv-x="684" 
d="M373 824q0 17 11.5 29t27.5 12q17 0 29 -12t12 -29q0 -16 -12 -28t-29 -12q-16 0 -27.5 11.5t-11.5 28.5zM228 824q0 17 11.5 29t27.5 12q17 0 28.5 -12t11.5 -29q0 -16 -11.5 -28t-28.5 -12q-16 0 -27.5 11.5t-11.5 28.5zM350 28q87 0 137.5 54.5t50.5 151.5h11
q1 -118 -65 -180.5t-176 -62.5q-99 0 -161.5 64t-62.5 182v370q0 51 -15 68.5t-50 17.5v11h214v-11q-38 0 -55.5 -16t-17.5 -72v-378q0 -94 51.5 -146.5t138.5 -52.5zM429 693v11h238v-11q-25 0 -43.5 -4t-31.5 -9.5t-21 -20t-12.5 -24.5t-6.5 -36t-2.5 -42.5t-0.5 -53.5
v-10h-11q0 50 -1.5 76t-7 54.5t-17 41t-32 20.5t-51.5 8z" />
    <glyph glyph-name="Yacute" unicode="&#xdd;" horiz-adv-x="652" 
d="M365 108q0 -61 17 -79t54 -18v-11h-209v11q36 0 53 18t17 79v186l-185 322q-13 22 -25 37t-19.5 22.5t-20.5 12t-17 5t-21 1.5v10h225v-10q-15 0 -22 -0.5t-19 -6.5t-13.5 -16.5t5.5 -33.5t26 -56l154 -265v-208zM401 693v11h237v-11q-26 0 -37.5 -3t-34 -22t-50 -64.5
t-68.5 -126.5l-7 10q15 31 23.5 52t17.5 47.5t7.5 43t-8.5 32.5t-27.5 23.5t-52.5 7.5zM222 734l181 161l65 -19l-231 -142h-15z" />
    <glyph glyph-name="Thorn" unicode="&#xde;" horiz-adv-x="525" 
d="M97 115v490q0 48 -13 68.5t-45 20.5v10h189v-10q-32 0 -45.5 -21t-13.5 -68v-490q0 -104 59 -104v-11h-189v11q58 0 58 104zM424 377q0 107 -43.5 146.5t-125.5 43.5v10q127 -5 188.5 -47t61.5 -153q0 -110 -61 -151t-189 -47v11q84 5 126.5 43t42.5 144z" />
    <glyph glyph-name="germandbls" unicode="&#xdf;" horiz-adv-x="566" 
d="M69 510q0 207 133 232v-10q-28 -16 -43 -58t-17 -76l-1 -34v-564h-112v10q26 8 33 33t7 72v395zM273 24q-8 -1 4 -9q6 -5 17 -8v-12q-51 13 -62 49q-7 24 7 42q9 12 25.5 14t27.5 -7q12 -9 13.5 -27t-7.5 -28q-9 -12 -25 -14zM540 201q0 -83 -39.5 -137t-120.5 -68v11
q72 38 69 200q-1 50 -15.5 88.5t-34.5 59.5t-48.5 34.5t-52.5 17.5t-50 4v10q130 0 130 155q0 131 -90 156v12q165 -18 165 -171q0 -43 -19 -75.5t-46 -48.5t-47.5 -23.5t-31.5 -7.5q25 0 53 -5.5t60.5 -21t58 -38.5t42.5 -62.5t17 -89.5z" />
    <glyph glyph-name="agrave" unicode="&#xe0;" 
d="M138 327q-13 -11 -30 -8.5t-27 15.5q-16 21 -6 44q15 31 50 55l5 -9q-7 -6 -10.5 -11.5t-3.5 -8t2 -3.5q17 -3 27 -15q11 -13 8.5 -30.5t-15.5 -28.5zM411 31q25 0 31 30l11 -4q-5 -26 -26.5 -46t-54.5 -20h-8.5t-18.5 4.5t-23 12.5t-18.5 26.5t-8.5 43.5v172
q-94 -23 -139 -56t-45 -82q0 -35 22 -59.5t64 -24.5q34 0 57 15q2 -3 8 -15q-44 -37 -107 -37q-5 0 -12.5 0.5t-27 6t-34.5 15t-27 31t-12 50.5q0 67 55 99t198 69v56q0 73 -30.5 110t-84.5 22l-5 10q16 5 33 8t26 3h9q69 0 96.5 -51.5t27.5 -148.5v-181q0 -7 1 -16.5
t12 -26t31 -16.5zM169 701l181 -161h-15l-231 142z" />
    <glyph glyph-name="aacute" unicode="&#xe1;" 
d="M138 327q-13 -11 -30 -8.5t-27 15.5q-16 21 -6 44q15 31 50 55l5 -9q-7 -6 -10.5 -11.5t-3.5 -8t2 -3.5q17 -3 27 -15q11 -13 8.5 -30.5t-15.5 -28.5zM411 31q25 0 31 30l11 -4q-5 -26 -26.5 -46t-54.5 -20h-8.5t-18.5 4.5t-23 12.5t-18.5 26.5t-8.5 43.5v172
q-94 -23 -139 -56t-45 -82q0 -35 22 -59.5t64 -24.5q34 0 57 15q2 -3 8 -15q-44 -37 -107 -37q-5 0 -12.5 0.5t-27 6t-34.5 15t-27 31t-12 50.5q0 67 55 99t198 69v56q0 73 -30.5 110t-84.5 22l-5 10q16 5 33 8t26 3h9q69 0 96.5 -51.5t27.5 -148.5v-181q0 -7 1 -16.5
t12 -26t31 -16.5zM115 540l181 161l65 -19l-231 -142h-15z" />
    <glyph glyph-name="acircumflex" unicode="&#xe2;" 
d="M138 327q-13 -11 -30 -8.5t-27 15.5q-16 21 -6 44q15 31 50 55l5 -9q-7 -6 -10.5 -11.5t-3.5 -8t2 -3.5q17 -3 27 -15q11 -13 8.5 -30.5t-15.5 -28.5zM411 31q25 0 31 30l11 -4q-5 -26 -26.5 -46t-54.5 -20h-8.5t-18.5 4.5t-23 12.5t-18.5 26.5t-8.5 43.5v172
q-94 -23 -139 -56t-45 -82q0 -35 22 -59.5t64 -24.5q34 0 57 15q2 -3 8 -15q-44 -37 -107 -37q-5 0 -12.5 0.5t-27 6t-34.5 15t-27 31t-12 50.5q0 67 55 99t198 69v56q0 73 -30.5 110t-84.5 22l-5 10q16 5 33 8t26 3h9q69 0 96.5 -51.5t27.5 -148.5v-181q0 -7 1 -16.5
t12 -26t31 -16.5zM360 517l-119 115l-119 -115h-17l136 188l136 -188h-17z" />
    <glyph glyph-name="atilde" unicode="&#xe3;" 
d="M290 569l-111 43q-19 7 -47 8t-58.5 -11.5t-43.5 -40.5l-6 2q15 39 39.5 64t47.5 32t44.5 8t34.5 -2l13 -4l113 -44q19 -5 47 -6t59 12.5t42 38.5l6 -2q-15 -40 -39.5 -65t-48 -31.5t-45 -8t-34.5 2.5zM138 327q-13 -11 -30 -8.5t-27 15.5q-16 21 -6 44q15 31 50 55l5 -9
q-7 -6 -10.5 -11.5t-3.5 -8t2 -3.5q17 -3 27 -15q11 -13 8.5 -30.5t-15.5 -28.5zM411 31q25 0 31 30l11 -4q-5 -26 -26.5 -46t-54.5 -20h-8.5t-18.5 4.5t-23 12.5t-18.5 26.5t-8.5 43.5v172q-94 -23 -139 -56t-45 -82q0 -35 22 -59.5t64 -24.5q34 0 57 15q2 -3 8 -15
q-44 -37 -107 -37q-5 0 -12.5 0.5t-27 6t-34.5 15t-27 31t-12 50.5q0 67 55 99t198 69v56q0 73 -30.5 110t-84.5 22l-5 10q16 5 33 8t26 3h9q69 0 96.5 -51.5t27.5 -148.5v-181q0 -7 1 -16.5t12 -26t31 -16.5z" />
    <glyph glyph-name="adieresis" unicode="&#xe4;" 
d="M302 576q-16 0 -27.5 11.5t-11.5 28.5t11.5 29t27.5 12q17 0 28.5 -12t11.5 -29q0 -16 -12 -28t-28 -12zM117 616q0 17 11.5 29t28.5 12t28.5 -12t11.5 -29q0 -16 -11.5 -28t-28.5 -12t-28.5 11.5t-11.5 28.5zM138 327q-13 -11 -30 -8.5t-27 15.5q-16 21 -6 44
q15 31 50 55l5 -9q-7 -6 -10.5 -11.5t-3.5 -8t2 -3.5q17 -3 27 -15q11 -13 8.5 -30.5t-15.5 -28.5zM411 31q25 0 31 30l11 -4q-5 -26 -26.5 -46t-54.5 -20h-8.5t-18.5 4.5t-23 12.5t-18.5 26.5t-8.5 43.5v172q-94 -23 -139 -56t-45 -82q0 -35 22 -59.5t64 -24.5q34 0 57 15
q2 -3 8 -15q-44 -37 -107 -37q-5 0 -12.5 0.5t-27 6t-34.5 15t-27 31t-12 50.5q0 67 55 99t198 69v56q0 73 -30.5 110t-84.5 22l-5 10q16 5 33 8t26 3h9q69 0 96.5 -51.5t27.5 -148.5v-181q0 -7 1 -16.5t12 -26t31 -16.5z" />
    <glyph glyph-name="aring" unicode="&#xe5;" 
d="M229 705q-28 0 -47.5 -19.5t-19.5 -47.5t19.5 -47.5t47.5 -19.5q27 0 46.5 19.5t19.5 47.5t-19.5 47.5t-46.5 19.5zM229 543q-40 0 -68 28t-28 67q0 40 28 68t68 28q39 0 67 -28t28 -68q0 -39 -28 -67t-67 -28zM138 327q-13 -11 -30 -8.5t-27 15.5q-16 21 -6 44
q15 31 50 55l5 -9q-7 -6 -10.5 -11.5t-3.5 -8t2 -3.5q17 -3 27 -15q11 -13 8.5 -30.5t-15.5 -28.5zM411 31q25 0 31 30l11 -4q-5 -26 -26.5 -46t-54.5 -20h-8.5t-18.5 4.5t-23 12.5t-18.5 26.5t-8.5 43.5v172q-94 -23 -139 -56t-45 -82q0 -35 22 -59.5t64 -24.5q34 0 57 15
q2 -3 8 -15q-44 -37 -107 -37q-5 0 -12.5 0.5t-27 6t-34.5 15t-27 31t-12 50.5q0 67 55 99t198 69v56q0 73 -30.5 110t-84.5 22l-5 10q16 5 33 8t26 3h9q69 0 96.5 -51.5t27.5 -148.5v-181q0 -7 1 -16.5t12 -26t31 -16.5z" />
    <glyph glyph-name="ae" unicode="&#xe6;" horiz-adv-x="690" 
d="M71 378q15 30 48 54l5 -10q-6 -6 -9 -10.5t-2.5 -6.5t1.5 -3q17 -2 27 -16q11 -13 8.5 -30t-15.5 -28t-30 -9t-27 15q-16 21 -6 44zM489 29q46 -2 82 27t49 65l9 -5q-4 -18 -14 -37t-28 -40t-49.5 -34.5t-71.5 -13.5q-51 0 -88 20t-57 54t-29.5 71.5t-10.5 79.5v29
l-14 -4q-14 -4 -21 -6.5t-23 -8.5t-26.5 -11.5t-25 -13.5t-24 -17t-18.5 -20t-13.5 -24t-4.5 -27q0 -36 21.5 -60.5t63.5 -24.5t68 26l11 -12q-43 -51 -120 -51q-5 0 -12.5 0.5t-27 6t-34.5 15.5t-27 31t-12 50q0 62 52.5 94t186.5 69v61q0 74 -27 111t-80 21l-6 9
q15 5 30 8t22 3l8 1q74 0 103 -76q51 64 113 73v-12q-40 -14 -65 -66.5t-25 -141.5h228q0 92 -23 142.5t-59 64.5v14q149 -20 149 -232h-296q2 -106 33.5 -155.5t102.5 -52.5z" />
    <glyph glyph-name="ccedilla" unicode="&#xe7;" horiz-adv-x="473" 
d="M381 426l2 1q-2 10 -32 21q-19 7 -43 10v11q40 -4 66.5 -18.5t34 -26t10.5 -22.5q7 -24 -9 -40q-11 -11 -27 -12t-28 10q-11 11 -11.5 27t10.5 27q11 10 27 12zM430 127l9 -3q-10 -49 -53.5 -91t-124.5 -42q-85 0 -150.5 62.5t-65.5 175.5q0 91 56.5 160t149.5 80v-11
q-50 -12 -89.5 -63.5t-39.5 -158.5q0 -101 46.5 -152.5t108.5 -54.5q58 -2 99 28.5t54 69.5zM216 -68q70 21 108 -5.5t32 -71.5q-6 -46 -36.5 -64.5t-65.5 -18.5q-45 1 -62 27q-9 9 -2 22q3 8 11 10t16 -2q18 -7 11 -27q-6 -8 -11 -8q-2 -1 1.5 -3.5t13 -5t22.5 -2.5
q29 0 47 16t18 46q0 32 -25.5 57.5t-84.5 11.5z" />
    <glyph glyph-name="egrave" unicode="&#xe8;" horiz-adv-x="474" 
d="M264 27q47 -2 90.5 26t54.5 66l9 -3q-8 -43 -53 -84t-119 -41q-91 0 -150 65.5t-59 169.5q0 101 50.5 166t129.5 76v-11q-42 -14 -73 -68t-31 -137h252q0 86 -27 137.5t-64 67.5v11q72 -10 115.5 -68t43.5 -160h-320q3 -206 151 -213zM189 701l181 -161h-15l-231 142z
" />
    <glyph glyph-name="eacute" unicode="&#xe9;" horiz-adv-x="474" 
d="M264 27q47 -2 90.5 26t54.5 66l9 -3q-8 -43 -53 -84t-119 -41q-91 0 -150 65.5t-59 169.5q0 101 50.5 166t129.5 76v-11q-42 -14 -73 -68t-31 -137h252q0 86 -27 137.5t-64 67.5v11q72 -10 115.5 -68t43.5 -160h-320q3 -206 151 -213zM113 540l181 161l65 -19l-231 -142
h-15z" />
    <glyph glyph-name="ecircumflex" unicode="&#xea;" horiz-adv-x="474" 
d="M264 27q47 -2 90.5 26t54.5 66l9 -3q-8 -43 -53 -84t-119 -41q-91 0 -150 65.5t-59 169.5q0 101 50.5 166t129.5 76v-11q-42 -14 -73 -68t-31 -137h252q0 86 -27 137.5t-64 67.5v11q72 -10 115.5 -68t43.5 -160h-320q3 -206 151 -213zM355 517l-119 115l-119 -115h-17
l136 188l136 -188h-17z" />
    <glyph glyph-name="edieresis" unicode="&#xeb;" horiz-adv-x="474" 
d="M315 576q-16 0 -27.5 11.5t-11.5 28.5t11.5 29t27.5 12q17 0 29 -12t12 -29q0 -16 -12 -28t-29 -12zM170 576q-16 0 -28 12t-12 28q0 17 11.5 29t28.5 12t28.5 -12t11.5 -29q0 -16 -12 -28t-28 -12zM264 27q47 -2 90.5 26t54.5 66l9 -3q-8 -43 -53 -84t-119 -41
q-91 0 -150 65.5t-59 169.5q0 101 50.5 166t129.5 76v-11q-42 -14 -73 -68t-31 -137h252q0 86 -27 137.5t-64 67.5v11q72 -10 115.5 -68t43.5 -160h-320q3 -206 151 -213z" />
    <glyph glyph-name="igrave" unicode="&#xec;" horiz-adv-x="226" 
d="M188 11q-28 7 -34.5 17t-6.5 50v393l-118 -23v-10q30 -4 40 -15.5t10 -38.5v-306q0 -39 -6 -49t-34 -18v-11h149v11zM44 701l181 -161h-15l-231 142z" />
    <glyph glyph-name="iacute" unicode="&#xed;" horiz-adv-x="226" 
d="M188 11v-11h-149v11q28 8 34 18t6 49v306q0 27 -10 38.5t-40 15.5v10l118 23v-393q0 -40 6.5 -50t34.5 -17zM-9 540l181 161l65 -19l-231 -142h-15z" />
    <glyph glyph-name="icircumflex" unicode="&#xee;" horiz-adv-x="226" 
d="M188 11q-28 7 -34.5 17t-6.5 50v393l-118 -23v-10q30 -4 40 -15.5t10 -38.5v-306q0 -39 -6 -49t-34 -18v-11h149v11zM233 517l-119 115l-119 -115h-17l136 188l136 -188h-17z" />
    <glyph glyph-name="idieresis" unicode="&#xef;" horiz-adv-x="226" 
d="M180 576q-17 0 -28.5 11.5t-11.5 28.5t11.5 29t28.5 12t28.5 -12t11.5 -29q0 -16 -12 -28t-28 -12zM35 576q-17 0 -28.5 11.5t-11.5 28.5t11.5 29t28.5 12q16 0 28 -12t12 -29q0 -16 -12 -28t-28 -12zM188 11v-11h-149v11q28 8 34 18t6 49v306q0 26 -10 38t-40 16v10
l118 23v-393q0 -40 6.5 -50t34.5 -17z" />
    <glyph glyph-name="eth" unicode="&#xf0;" horiz-adv-x="513" 
d="M360 634q48 -52 82 -132.5t34 -167.5q0 -143 -49 -232.5t-149 -106.5v12q62 17 90.5 95t28.5 228q-7 13 -20 29t-44.5 35t-65.5 19q-65 0 -101.5 -54.5t-40.5 -153.5q-7 -164 67 -198v-12q-69 15 -113.5 70.5t-39.5 147.5q6 95 59.5 159.5t147.5 64.5q45 0 86.5 -20
t64.5 -65q-1 68 -22 143t-52 120l-153 -79l-14 10l159 83q-62 75 -153 75v9q104 0 186 -68l100 54l14 -10z" />
    <glyph glyph-name="ntilde" unicode="&#xf1;" horiz-adv-x="486" 
d="M296 569l-111 43q-19 7 -47 8t-58.5 -11.5t-43.5 -40.5l-6 2q15 39 39.5 64t47.5 32t44.5 8t34.5 -2l13 -4l113 -44q19 -5 47 -6t59 12.5t42 38.5l6 -2q-15 -40 -39.5 -65t-48 -31.5t-45 -8t-34.5 2.5zM129 78q0 -40 7 -50t34 -17v-11h-149v11q28 8 34 18t6 49v305
q0 27 -10 39t-40 16v10l118 23v-393zM421 78q0 -40 7 -50.5t34 -17.5v-10h-149v10q28 8 34 18.5t6 49.5v226q0 60 -29.5 94.5t-83.5 34.5q-33 0 -65 -25l-11 12q51 51 113 51q144 0 144 -163v-230z" />
    <glyph glyph-name="ograve" unicode="&#xf2;" horiz-adv-x="534" 
d="M495 231q0 -97 -51 -163.5t-147 -75.5v12q117 20 117 227t-117 226v12q96 -9 147 -75t51 -163zM121 231q0 -207 119 -227v-12q-96 9 -147.5 75.5t-51.5 163.5t51.5 163t147.5 75v-12q-119 -20 -119 -226zM215 701l181 -161h-15l-231 142z" />
    <glyph glyph-name="oacute" unicode="&#xf3;" horiz-adv-x="534" 
d="M495 231q0 -97 -51 -163.5t-147 -75.5v12q117 20 117 227t-117 226v12q96 -9 147 -75t51 -163zM121 231q0 -207 119 -227v-12q-96 9 -147.5 75.5t-51.5 163.5t51.5 163t147.5 75v-12q-119 -20 -119 -226zM138 540l181 161l65 -19l-231 -142h-15z" />
    <glyph glyph-name="ocircumflex" unicode="&#xf4;" horiz-adv-x="534" 
d="M495 231q0 -97 -51 -163.5t-147 -75.5v12q117 20 117 227t-117 226v12q96 -9 147 -75t51 -163zM121 231q0 -207 119 -227v-12q-96 9 -147.5 75.5t-51.5 163.5t51.5 163t147.5 75v-12q-119 -20 -119 -226zM384 517l-119 115l-119 -115h-17l136 188l136 -188h-17z" />
    <glyph glyph-name="otilde" unicode="&#xf5;" horiz-adv-x="534" 
d="M210 612q-19 7 -46.5 8t-58.5 -11.5t-43 -40.5l-6 2q15 39 39 64t47.5 32t45 8t34.5 -2l13 -4l112 -44q19 -5 47 -6t59 12.5t42 38.5l7 -2q-16 -40 -40 -65t-47.5 -31.5t-45 -8t-34.5 2.5l-13 4zM495 231q0 -97 -51 -163.5t-147 -75.5v12q117 20 117 227t-117 226v12
q96 -9 147 -75t51 -163zM121 231q0 -207 119 -227v-12q-96 9 -147.5 75.5t-51.5 163.5t51.5 163t147.5 75v-12q-119 -20 -119 -226z" />
    <glyph glyph-name="odieresis" unicode="&#xf6;" horiz-adv-x="534" 
d="M343 576q-16 0 -27.5 11.5t-11.5 28.5t11.5 29t27.5 12q17 0 29 -12t12 -29q0 -16 -12 -28t-29 -12zM198 576q-16 0 -28 12t-12 28q0 17 11.5 29t28.5 12t28.5 -12t11.5 -29q0 -16 -12 -28t-28 -12zM495 231q0 -97 -51 -163.5t-147 -75.5v12q117 20 117 227t-117 226v12
q96 -9 147 -75t51 -163zM121 231q0 -207 119 -227v-12q-96 9 -147.5 75.5t-51.5 163.5t51.5 163t147.5 75v-12q-119 -20 -119 -226z" />
    <glyph glyph-name="divide" unicode="&#xf7;" horiz-adv-x="625" 
d="M313 445q-20 0 -34.5 14.5t-14.5 34.5t14.5 34.5t34.5 14.5t34 -14.5t14 -34.5t-14 -34.5t-34 -14.5zM581 251h-536v52h536v-52zM313 12q-20 0 -34.5 14.5t-14.5 34.5t14.5 34.5t34.5 14.5t34 -14.5t14 -34.5t-14 -34.5t-34 -14.5z" />
    <glyph glyph-name="oslash" unicode="&#xf8;" horiz-adv-x="534" 
d="M494 229q0 -96 -51 -162t-147 -75v12q118 20 118 225q0 115 -43 172l-200 -354q24 -35 68 -43v-12q-50 6 -85 25l-48 -84h-16l52 91q-101 61 -101 205q0 98 51 164.5t147 75.5v-12q-119 -20 -119 -228q0 -114 43 -170l199 355q-24 35 -66 43v12q49 -5 85 -24l46 80h15
l-49 -86q50 -30 75.5 -85.5t25.5 -124.5z" />
    <glyph glyph-name="ugrave" unicode="&#xf9;" horiz-adv-x="501" 
d="M433 80q0 -35 9.5 -46t41.5 -15v-10l-97 -17q-11 -2 -16.5 1.5t-6.5 7.5v4v371q0 47 -6 56.5t-41 10.5v10l116 18v-391zM323 50l9 -11q-48 -48 -109 -48q-150 0 -150 150v231q0 51 -7 60.5t-49 10.5v10l123 18v-327q0 -59 32 -87t80 -28q44 0 71 21zM199 701l181 -161
h-15l-231 142z" />
    <glyph glyph-name="uacute" unicode="&#xfa;" horiz-adv-x="501" 
d="M433 80q0 -35 9.5 -46t41.5 -15v-10l-97 -17q-11 -2 -16.5 1.5t-6.5 7.5v4v371q0 47 -6 56.5t-41 10.5v10l116 18v-391zM323 50l9 -11q-48 -48 -109 -48q-150 0 -150 150v231q0 51 -7 60.5t-49 10.5v10l123 18v-327q0 -59 32 -87t80 -28q44 0 71 21zM128 540l181 161
l65 -19l-231 -142h-15z" />
    <glyph glyph-name="ucircumflex" unicode="&#xfb;" horiz-adv-x="501" 
d="M433 80q0 -35 9.5 -46t41.5 -15v-10l-97 -17q-11 -2 -16.5 1.5t-6.5 7.5v4v371q0 47 -6 56.5t-41 10.5v10l116 18v-391zM323 50l9 -11q-48 -48 -109 -48q-150 0 -150 150v231q0 51 -7 60.5t-49 10.5v10l123 18v-327q0 -59 32 -87t80 -28q44 0 71 21zM364 517l-119 115
l-119 -115h-17l136 188l136 -188h-17z" />
    <glyph glyph-name="udieresis" unicode="&#xfc;" horiz-adv-x="501" 
d="M319 576q-17 0 -28.5 11.5t-11.5 28.5t11.5 29t28.5 12q16 0 28 -12t12 -29q0 -16 -12 -28t-28 -12zM173 576q-16 0 -27.5 11.5t-11.5 28.5t11.5 29t27.5 12q17 0 29 -12t12 -29q0 -16 -12 -28t-29 -12zM433 80q0 -35 9.5 -46t41.5 -15v-10l-97 -17q-11 -2 -16.5 1.5
t-6.5 7.5v4v371q0 47 -6 56.5t-41 10.5v10l116 18v-391zM323 50l9 -11q-48 -48 -109 -48q-150 0 -150 150v231q0 51 -7 60.5t-49 10.5v10l123 18v-327q0 -59 32 -87t80 -28q44 0 71 21z" />
    <glyph glyph-name="yacute" unicode="&#xfd;" horiz-adv-x="531" 
d="M322 462h192v-10q-25 0 -40 -8t-37.5 -44t-48.5 -108l-9 6q4 13 7.5 26t6 38.5t-2 43.5t-21.5 32.5t-47 13.5v10zM311 73l-30 -82h-7l-189 405q-24 53 -74 56v10h192v-10q-20 0 -30.5 -8t-11.5 -19.5t1 -23t6 -19.5l3 -8zM222 -139l10 -2q-18 -53 -55 -84q-24 -18 -51 -6
q-17 8 -23.5 25.5t0.5 33.5q8 17 25.5 24t33.5 -1q18 -7 23 -27q4 -15 20 4q10 13 17 33zM149 543l181 161l65 -19l-231 -142h-15z" />
    <glyph glyph-name="thorn" unicode="&#xfe;" horiz-adv-x="541" 
d="M489 227q0 -104 -55 -165t-145 -70v12q49 11 82 60.5t33 145.5q0 115 -40 174.5t-110 59.5q-52 0 -84 -32.5t-36 -87.5v-191q3 -53 29.5 -87t68.5 -42v-11q-57 7 -98 39v-221q0 -40 6.5 -49t34.5 -16v-11h-149v11q29 8 34.5 17.5t5.5 47.5v835q0 26 -10 37t-40 14v10
l118 23v-335q21 36 63 56t84 20q102 0 155 -70t53 -174z" />
    <glyph glyph-name="ydieresis" unicode="&#xff;" horiz-adv-x="531" 
d="M340 576q-16 0 -27.5 11.5t-11.5 28.5t11.5 29t27.5 12q17 0 28.5 -12t11.5 -29q0 -16 -12 -28t-28 -12zM195 576q-17 0 -28.5 11.5t-11.5 28.5t11.5 29t28.5 12t28.5 -12t11.5 -29q0 -16 -11.5 -28t-28.5 -12zM322 462h192v-10q-25 0 -40 -8t-37.5 -44t-48.5 -108l-9 6
q4 13 7.5 26t6 38.5t-2 43.5t-21.5 32.5t-47 13.5v10zM311 73l-30 -82h-7l-189 405q-24 53 -74 56v10h192v-10q-20 0 -30.5 -8t-11.5 -19.5t1 -23t6 -19.5l3 -8zM222 -139l10 -2q-18 -53 -55 -84q-24 -18 -51 -6q-17 8 -23.5 25.5t0.5 33.5q8 17 25.5 24t33.5 -1
q18 -7 23 -27q4 -15 20 4q10 13 17 33z" />
    <glyph glyph-name="Abreve" unicode="&#x102;" horiz-adv-x="674" 
d="M579 97q12 -29 22 -46.5t20.5 -26t18 -10.5t20.5 -3v-11h-199v11q66 0 18 116l-37 95h-270q-38 -110 -37 -146q1 -62 78 -65h13v-11h-211v11q19 0 30.5 5t28 26.5t36.5 67t48 123.5h280l-145 374l36 97h7zM452 903h6q0 -137 -125 -137q-129 0 -129 137h7q0 -36 27 -62
t95 -26q66 0 92.5 26.5t26.5 61.5z" />
    <glyph glyph-name="abreve" unicode="&#x103;" 
d="M138 327q-13 -11 -30 -8.5t-27 15.5q-16 21 -6 44q15 31 50 55l5 -9q-7 -6 -10.5 -11.5t-3.5 -8t2 -3.5q17 -3 27 -15q11 -13 8.5 -30.5t-15.5 -28.5zM411 31q25 0 31 30l11 -4q-5 -26 -26.5 -46t-54.5 -20h-8.5t-18.5 4.5t-23 12.5t-18.5 26.5t-8.5 43.5v172
q-94 -23 -139 -56t-45 -82q0 -35 22 -59.5t64 -24.5q34 0 57 15q2 -3 8 -15q-44 -37 -107 -37q-5 0 -12.5 0.5t-27 6t-34.5 15t-27 31t-12 50.5q0 67 55 99t198 69v56q0 73 -30.5 110t-84.5 22l-5 10q16 5 33 8t26 3h9q69 0 96.5 -51.5t27.5 -148.5v-181q0 -7 1 -16.5
t12 -26t31 -16.5zM364 704h6q0 -137 -125 -137q-129 0 -129 137h7q0 -36 27 -62t95 -26q66 0 92.5 26.5t26.5 61.5z" />
    <glyph glyph-name="Aogonek" unicode="&#x104;" horiz-adv-x="674" 
d="M615 0q-42 -19 -69.5 -58t-19.5 -68q5 -20 21 -30.5t29 -11.5h13q21 0 34 18t13 37h10q0 -80 -69 -80q-31 0 -53 10.5t-28 20.5l-7 10q-37 95 104 152h-132v11q66 0 18 116l-37 95h-270q-38 -110 -37 -146q1 -62 78 -65h13v-11h-211v11q19 0 30.5 5t28 26.5t36.5 67
t48 123.5h280l-145 374l36 97h7l243 -607q12 -29 22 -46.5t20.5 -26t18 -10.5t20.5 -3v-11h-45z" />
    <glyph glyph-name="aogonek" unicode="&#x105;" 
d="M138 327q-13 -11 -30 -8.5t-27 15.5q-16 21 -6 44q15 31 50 55l5 -9q-7 -6 -10.5 -11.5t-3.5 -8t2 -3.5q17 -3 27 -15q11 -13 8.5 -30.5t-15.5 -28.5zM382 -168q21 0 34 18t13 37h10q0 -80 -69 -80q-31 0 -53 10.5t-29 20.5l-6 10q-33 88 84 143q-71 8 -71 87v172
q-94 -23 -139 -56t-45 -82q0 -35 22 -59.5t64 -24.5q34 0 57 15l8 -15q-44 -37 -107 -37q-5 0 -12.5 0.5t-27 6t-34.5 15t-27 31t-12 50.5q0 67 55 99t198 69v56q0 73 -30.5 110t-84.5 22l-5 10q16 5 33 8t26 3h9q69 0 96.5 -51.5t27.5 -148.5v-181q0 -7 1 -16.5t12 -26
t31 -16.5q25 0 31 30l11 -4q-10 -48 -55 -62q-39 -21 -62.5 -57.5t-16.5 -63.5q5 -20 21 -30.5t29 -11.5h13z" />
    <glyph glyph-name="Cacute" unicode="&#x106;" horiz-adv-x="660" 
d="M429 3q64 8 114 58.5t54 144.5h11l10 -153q-47 -31 -88.5 -44.5t-100.5 -16.5v11zM597 499q-9 98 -57 146.5t-111 55.5v11q62 -2 106 -15.5t83 -44.5l-10 -153h-11zM40 352q0 161 82 254t221 105v-11q-201 -25 -201 -348q0 -327 201 -348v-11q-139 13 -221 106.5
t-82 252.5zM223 734l181 161l65 -19l-231 -142h-15z" />
    <glyph glyph-name="cacute" unicode="&#x107;" horiz-adv-x="473" 
d="M381 426l2 1q-2 10 -32 21q-19 7 -43 10v11q40 -4 66.5 -18.5t34 -26t10.5 -22.5q7 -24 -9 -40q-11 -11 -27 -12t-28 10q-11 11 -11.5 27t10.5 27q11 10 27 12zM430 127l9 -3q-10 -49 -53.5 -91t-124.5 -42q-85 0 -150.5 62.5t-65.5 175.5q0 91 56.5 160t149.5 80v-11
q-50 -12 -89.5 -63.5t-39.5 -158.5q0 -101 46.5 -152.5t108.5 -54.5q58 -2 99 28.5t54 69.5zM133 540l181 161l65 -19l-231 -142h-15z" />
    <glyph glyph-name="Ccaron" unicode="&#x10c;" horiz-adv-x="660" 
d="M429 3q64 8 114 58.5t54 144.5h11l10 -153q-47 -31 -88.5 -44.5t-100.5 -16.5v11zM597 499q-9 98 -57 146.5t-111 55.5v11q62 -2 106 -15.5t83 -44.5l-10 -153h-11zM40 352q0 161 82 254t221 105v-11q-201 -25 -201 -348q0 -327 201 -348v-11q-139 13 -221 106.5
t-82 252.5zM362 807l119 115h17l-136 -188l-136 188h17z" />
    <glyph glyph-name="ccaron" unicode="&#x10d;" horiz-adv-x="473" 
d="M381 426l2 1q-2 10 -32 21q-19 7 -43 10v11q40 -4 66.5 -18.5t34 -26t10.5 -22.5q7 -24 -9 -40q-11 -11 -27 -12t-28 10q-11 11 -11.5 27t10.5 27q11 10 27 12zM430 127l9 -3q-10 -49 -53.5 -91t-124.5 -42q-85 0 -150.5 62.5t-65.5 175.5q0 91 56.5 160t149.5 80v-11
q-50 -12 -89.5 -63.5t-39.5 -158.5q0 -101 46.5 -152.5t108.5 -54.5q58 -2 99 28.5t54 69.5zM263 589l119 115h17l-136 -188l-136 188h17z" />
    <glyph glyph-name="Dcaron" unicode="&#x10e;" horiz-adv-x="670" 
d="M276 703q74 -4 131.5 -21.5t108 -55.5t77.5 -107.5t27 -167.5q0 -83 -19 -145.5t-49.5 -100t-76.5 -61t-93 -32.5t-106 -11v10q27 1 49 4t49 12t47.5 24t41 40.5t34 60t22 85.5t8.5 114q0 84 -16 146.5t-39.5 98t-59 57.5t-66.5 29.5t-70 9.5v11zM44 704h146v-16v-671
v-17h-146v9l1 1q1 1 2 1q60 1 60 99v486q0 96 -60 97q-1 0 -3 1v10zM280 807l119 115h17l-136 -188l-136 188h17z" />
    <glyph glyph-name="dcaron" unicode="&#x10f;" horiz-adv-x="628" 
d="M580 704h-59q0 -61 -10.5 -104t-20.5 -56l-11 -12l6 -9q4 2 10.5 7t22.5 22t28.5 36.5t23 50.5t10.5 65zM459 69q0 -35 9.5 -43.5t41.5 -6.5v-11l-91 -16q-12 -2 -19 2.5t-8 9.5l-1 6v51q-22 -33 -62.5 -51.5t-81.5 -18.5q-103 0 -156 70t-53 175q0 103 55.5 163.5
t145.5 69.5v-13q-50 -10 -83 -58.5t-33 -144.5q0 -116 40 -176t109 -60q50 0 84.5 33t34.5 84v192q0 51 -27 86t-68 44v12q52 -6 95 -37v216q0 27 -10.5 39t-40.5 15v11l119 22v-665z" />
    <glyph glyph-name="Dcroat" unicode="&#x110;" horiz-adv-x="673" 
d="M195 341v-341h-147v11q64 0 64 99v231h-100v21h100v234q0 98 -64 98v10h147v-342h141v-21h-141zM625 351q0 -83 -19 -145.5t-49.5 -100t-77 -61t-93 -32.5t-105.5 -11v10q32 1 57 5.5t56 16.5t53.5 36t42.5 59.5t30.5 92.5t10.5 130q0 84 -16 147t-39.5 98.5t-58.5 57.5
t-66 29.5t-70 9.5v10q74 -4 131.5 -21.5t107.5 -55.5t77.5 -107.5t27.5 -167.5z" />
    <glyph glyph-name="dcroat" unicode="&#x111;" horiz-adv-x="547" 
d="M265 556v20h126v71q0 27 -10.5 39t-40.5 15v11l119 22v-158h121v-20h-121v-487q0 -35 9.5 -43.5t41.5 -6.5v-11l-91 -16q-12 -2 -19 2.5t-8 9.5l-1 6v51q-22 -33 -62.5 -51.5t-81.5 -18.5q-103 0 -156 70t-53 175q0 103 55.5 163.5t145.5 69.5v-13q-50 -10 -83 -58.5
t-33 -144.5q0 -116 40 -176t109 -60q50 0 84.5 33t34.5 84v192q0 51 -27 86t-68 44v12q52 -6 95 -37v125h-126z" />
    <glyph glyph-name="Eogonek" unicode="&#x118;" horiz-adv-x="578" 
d="M31 693v11h133v-704h-133v11q30 0 40.5 21.5t10.5 74.5v506q0 48 -9.5 64t-41.5 16zM370 250q-1 26 -9.5 45t-20 29t-29 16t-31 7.5t-32.5 1.5v13q20 0 33 1.5t31 7t29 15.5t19.5 29t9.5 45h11v-210h-11zM479 529q-1 43 -14 73.5t-31.5 47.5t-50 27t-60.5 12.5t-73 3.5
v11h240v-175h-11zM512 -113h10q0 -80 -69 -80q-31 0 -53 10.5t-28 20.5l-7 10q-37 95 104 152h-219v11q47 1 76 3.5t63 13.5t53 31t33 56t17 88h11v-203h-12q-42 -19 -69.5 -58t-19.5 -68q5 -20 21 -30.5t29 -11.5h13q21 0 34 18t13 37z" />
    <glyph glyph-name="eogonek" unicode="&#x119;" horiz-adv-x="474" 
d="M264 27q47 -2 90.5 26t54.5 66l9 -3q-5 -33 -36.5 -68.5t-82.5 -49.5q-41 -20 -66.5 -58t-18.5 -66q5 -20 21 -30.5t29 -11.5h13q21 0 34 18t13 37h10q0 -80 -69 -80q-31 0 -53 10.5t-28 20.5l-7 10q-17 45 7 81.5t78 62.5q-2 0 -7.5 -0.5t-8.5 -0.5q-91 0 -150 65.5
t-59 169.5q0 101 50.5 166t129.5 76v-11q-42 -14 -73 -68t-31 -137h252q0 86 -27 137.5t-64 67.5v11q72 -10 115.5 -68t43.5 -160h-320q3 -206 151 -213z" />
    <glyph glyph-name="Ecaron" unicode="&#x11a;" horiz-adv-x="578" 
d="M503 203v-203h-253v11q47 1 76 3.5t63 13.5t53 31t33 56t17 88h11zM164 704v-704h-133v11q30 0 40.5 21.5t10.5 74.5v506q0 48 -9.5 64t-41.5 16v11h133zM479 529q-1 43 -14 73.5t-31.5 47.5t-50 27t-60.5 12.5t-73 3.5v11h240v-175h-11zM370 250q-1 26 -9.5 45t-20 29
t-29 16t-31 7.5t-32.5 1.5v13q20 0 33 1.5t31 7t29 15.5t19.5 29t9.5 45h11v-210h-11zM288 807l119 115h17l-136 -188l-136 188h17z" />
    <glyph glyph-name="ecaron" unicode="&#x11b;" horiz-adv-x="474" 
d="M264 27q47 -2 90.5 26t54.5 66l9 -3q-8 -43 -53 -84t-119 -41q-91 0 -150 65.5t-59 169.5q0 101 50.5 166t129.5 76v-11q-42 -14 -73 -68t-31 -137h252q0 86 -27 137.5t-64 67.5v11q72 -10 115.5 -68t43.5 -160h-320q3 -206 151 -213zM237 589l119 115h17l-136 -188
l-136 188h17z" />
    <glyph glyph-name="dotlessi" unicode="&#x131;" horiz-adv-x="227" 
d="M189 11v-11h-150v11q28 8 34 18t6 49v306q0 27 -10 38.5t-40 15.5v10l119 23v-393q0 -40 6.5 -50t34.5 -17z" />
    <glyph glyph-name="Lacute" unicode="&#x139;" horiz-adv-x="592" 
d="M511 217v-217h-251v11q61 1 98.5 8t72 27.5t51 62.5t19.5 108h10zM174 605v-605h-126v11q30 0 38.5 23t8.5 80v497q0 47 -11.5 65t-43.5 18v10h197v-10q-34 0 -48.5 -18.5t-14.5 -70.5zM143 734l181 161l65 -19l-231 -142h-15z" />
    <glyph glyph-name="lacute" unicode="&#x13a;" horiz-adv-x="211" 
d="M183 11v-11h-150v11q28 8 34 18t6 49v570q0 27 -10 38.5t-40 14.5v11l119 22v-656q0 -40 6.5 -50t34.5 -17zM-19 763l181 161l65 -19l-231 -142h-15z" />
    <glyph glyph-name="Lcaron" unicode="&#x13d;" horiz-adv-x="553" 
d="M277 704h59q0 -34 -10 -65t-24 -51t-27.5 -35.5t-23.5 -22.5l-10 -7l-7 9q5 4 12 13.5t19 53.5t12 105zM511 217v-217h-251v11q61 1 98.5 8t72 27.5t51 62.5t19.5 108h10zM174 605v-605h-126v11q30 0 38.5 23t8.5 80v497q0 47 -11.5 65t-43.5 18v10h197v-10
q-34 0 -48.5 -18.5t-14.5 -70.5z" />
    <glyph glyph-name="lcaron" unicode="&#x13e;" horiz-adv-x="331" 
d="M183 11v-11h-150v11q28 8 34 18t6 49v570q0 27 -10 38.5t-40 14.5v11l119 22v-656q0 -40 6.5 -50t34.5 -17zM218 704h59q0 -34 -10 -65t-23.5 -51t-27.5 -35.5t-24 -22.5l-10 -7l-7 9q5 4 12 13.5t19 53.5t12 105z" />
    <glyph glyph-name="Lslash" unicode="&#x141;" horiz-adv-x="606" 
d="M550 217v-217h-252v11q139 3 190.5 50t51.5 156h10zM212 340v-340h-126v11q30 0 38.5 24t8.5 81v179l-124 -70v17l124 70v299q0 47 -11.5 65t-43.5 18v10h198v-10q-34 0 -49 -18.5t-15 -70.5v-247l209 116v-17z" />
    <glyph glyph-name="lslash" unicode="&#x142;" horiz-adv-x="272" 
d="M12 259v17l89 52v325q0 28 -10 39.5t-40 13.5v10l119 30v-377l82 50v-17l-82 -50v-274q0 -40 6.5 -50t34.5 -17v-11h-150v11q28 8 34 18t6 49v233z" />
    <glyph glyph-name="Nacute" unicode="&#x143;" horiz-adv-x="771" 
d="M176 247q0 -33 0.5 -49t1.5 -43t4.5 -41t9.5 -34t15.5 -30t22.5 -20.5t31.5 -14.5t42.5 -4v-11h-281v11q26 0 46.5 4t35 14.5t25 20t17 29.5t10 33.5t5 41t2 44t0.5 49.5h12zM4 704h155l458 -602v-102h-22l-472 616q-9 12 -18 21.5t-16 17t-15 13.5t-13 9.5t-12 6.5
t-10 4.5t-10 3t-8.5 1.5t-8.5 0.5t-8 0.5v10zM478 694v10h277v-10q-23 0 -41 -4t-32 -9t-24.5 -16.5t-17 -20t-11.5 -27.5t-7 -30.5t-3.5 -36t-1.5 -38.5v-44v-11h-11q0 34 -0.5 51t-1.5 44.5t-4.5 41.5t-9.5 33.5t-15.5 29t-22.5 19.5t-31.5 14t-42.5 4zM244 734l181 161
l65 -19l-231 -142h-15z" />
    <glyph glyph-name="nacute" unicode="&#x144;" horiz-adv-x="486" 
d="M129 78q0 -40 7 -50t34 -17v-11h-149v11q28 8 34 18t6 49v305q0 27 -10 39t-40 16v10l118 23v-393zM421 78q0 -40 7 -50.5t34 -17.5v-10h-149v10q28 8 34 18.5t6 49.5v226q0 60 -29.5 94.5t-83.5 34.5q-33 0 -65 -25l-11 12q51 51 113 51q144 0 144 -163v-230zM125 540
l181 161l65 -19l-231 -142h-15z" />
    <glyph glyph-name="Ncaron" unicode="&#x147;" horiz-adv-x="771" 
d="M176 247q0 -33 0.5 -49t1.5 -43t4.5 -41t9.5 -34t15.5 -30t22.5 -20.5t31.5 -14.5t42.5 -4v-11h-281v11q26 0 46.5 4t35 14.5t25 20t17 29.5t10 33.5t5 41t2 44t0.5 49.5h12zM4 704h155l458 -602v-102h-22l-472 616q-9 12 -18 21.5t-16 17t-15 13.5t-13 9.5t-12 6.5
t-10 4.5t-10 3t-8.5 1.5t-8.5 0.5t-8 0.5v10zM478 694v10h277v-10q-23 0 -41 -4t-32 -9t-24.5 -16.5t-17 -20t-11.5 -27.5t-7 -30.5t-3.5 -36t-1.5 -38.5v-44v-11h-11q0 34 -0.5 51t-1.5 44.5t-4.5 41.5t-9.5 33.5t-15.5 29t-22.5 19.5t-31.5 14t-42.5 4zM358 807l119 115
h17l-136 -188l-136 188h17z" />
    <glyph glyph-name="ncaron" unicode="&#x148;" horiz-adv-x="486" 
d="M129 78q0 -40 7 -50t34 -17v-11h-149v11q28 8 34 18t6 49v305q0 27 -10 39t-40 16v10l118 23v-393zM421 78q0 -40 7 -50.5t34 -17.5v-10h-149v10q28 8 34 18.5t6 49.5v226q0 60 -29.5 94.5t-83.5 34.5q-33 0 -65 -25l-11 12q51 51 113 51q144 0 144 -163v-230zM253 589
l119 115h17l-136 -188l-136 188h17z" />
    <glyph glyph-name="Ohungarumlaut" unicode="&#x150;" horiz-adv-x="716" 
d="M127 347q0 -311 185 -342v-12q-135 14 -203 110.5t-68 243.5t68.5 247.5t202.5 115.5v-12q-185 -35 -185 -351zM671 347q0 -96 -28 -170.5t-90.5 -124t-154.5 -59.5v12q184 31 184 342q0 316 -184 351v12q69 -7 122.5 -38.5t85.5 -81t48.5 -111t16.5 -132.5zM387 735
l173 161l72 -20l-230 -141h-15zM222 735l173 161l72 -20l-230 -141h-15z" />
    <glyph glyph-name="ohungarumlaut" unicode="&#x151;" horiz-adv-x="534" 
d="M495 231q0 -97 -51 -163.5t-147 -75.5v12q117 20 117 227t-117 226v12q96 -9 147 -75t51 -163zM121 231q0 -207 119 -227v-12q-96 9 -147.5 75.5t-51.5 163.5t51.5 163t147.5 75v-12q-119 -20 -119 -226zM269 541l173 161l72 -20l-230 -141h-15zM104 541l173 161l72 -20
l-230 -141h-15z" />
    <glyph glyph-name="OE" unicode="&#x152;" horiz-adv-x="889" 
d="M129 346q0 -170 43 -248.5t122 -92.5v-11q-90 9 -147.5 59t-80.5 123t-23 170q0 151 60 250t191 114v-13q-165 -32 -165 -351zM597 11q52 1 84.5 7.5t64.5 25t48.5 58t19.5 101.5h11v-203h-228v11zM692 251q-1 57 -27.5 77t-67.5 22v11q27 2 45 8t33.5 29t16.5 63h11
v-210h-11zM801 529q-3 52 -18 85.5t-44.5 49.5t-61 22t-80.5 7v11h215v-175h-11zM514 704v-704h-110q-4 -1 -12 -2.5t-12 -2.5v11q52 16 52 76v531q0 68 -52 84v11q12 -2 21 -4h113z" />
    <glyph glyph-name="oe" unicode="&#x153;" horiz-adv-x="789" 
d="M120 230q0 -112 25 -163.5t73 -61.5v-13q-92 10 -134.5 74.5t-42.5 163.5q0 100 43 165t134 74v-12q-48 -10 -73 -62.5t-25 -164.5zM590 29q46 -2 84.5 28.5t47.5 64.5l10 -4q-5 -19 -14 -37.5t-26 -40.5t-48 -35.5t-70 -13.5q-100 0 -159 96q-25 -43 -57.5 -66.5
t-82.5 -28.5v12q49 9 74 60.5t25 165.5q0 113 -25.5 165t-73.5 62v12q91 -10 142 -101q53 88 127 100v-12q-39 -14 -64 -68.5t-25 -143.5h227q0 91 -23.5 144t-57.5 68v12q70 -9 109 -68t39 -168h-294q1 -104 34.5 -152t100.5 -51z" />
    <glyph glyph-name="Racute" unicode="&#x154;" horiz-adv-x="589" 
d="M481 95q20 -78 103 -84v-11h-68q-70 0 -86.5 20t-44.5 140q-9 37 -14 58q-21 93 -131 104v14q39 1 64.5 8t48 25t33 53.5t10.5 90.5q0 56 -11 93t-34.5 55t-48 24.5t-62.5 7.5v10q129 -4 184.5 -43t55.5 -147q0 -99 -48 -140t-133 -44q3 0 19.5 -1.5t21 -2.5t19 -4.5
t20.5 -8t18.5 -13t19 -20t17.5 -29t17.5 -39.5t14.5 -51.5t15 -64.5zM154 704v-608q0 -50 13.5 -67.5t46.5 -17.5v-11h-190v11q34 0 45.5 19t11.5 86v507q0 45 -11.5 57.5t-45.5 12.5v11h130zM145 734l181 161l65 -19l-231 -142h-15z" />
    <glyph glyph-name="racute" unicode="&#x155;" horiz-adv-x="336" 
d="M133 471v-393q0 -40 6.5 -50t34.5 -17v-11h-150v11q28 8 34 18t6 49v306q0 27 -10 38.5t-40 15.5v10zM275 469q30 0 45 -22q11 -16 6.5 -35t-20.5 -29q-16 -11 -34.5 -6.5t-29.5 20.5q-9 15 -6 33q2 6 -5 6q-20 1 -52 -25l-8 10q48 48 104 48zM48 540l181 161l65 -19
l-231 -142h-15z" />
    <glyph glyph-name="Rcaron" unicode="&#x158;" horiz-adv-x="589" 
d="M481 95q20 -78 103 -84v-11h-68q-70 0 -86.5 20t-44.5 140q-9 37 -14 58q-21 93 -131 104v14q39 1 64.5 8t48 25t33 53.5t10.5 90.5q0 56 -11 93t-34.5 55t-48 24.5t-62.5 7.5v10q129 -4 184.5 -43t55.5 -147q0 -99 -48 -140t-133 -44q3 0 19.5 -1.5t21 -2.5t19 -4.5
t20.5 -8t18.5 -13t19 -20t17.5 -29t17.5 -39.5t14.5 -51.5t15 -64.5zM154 704v-608q0 -50 13.5 -67.5t46.5 -17.5v-11h-190v11q34 0 45.5 19t11.5 86v507q0 45 -11.5 57.5t-45.5 12.5v11h130zM241 807l119 115h17l-136 -188l-136 188h17z" />
    <glyph glyph-name="rcaron" unicode="&#x159;" horiz-adv-x="336" 
d="M133 471v-393q0 -40 6.5 -50t34.5 -17v-11h-150v11q28 8 34 18t6 49v306q0 27 -10 38.5t-40 15.5v10zM275 469q30 0 45 -22q11 -16 6.5 -35t-20.5 -29q-16 -11 -34.5 -6.5t-29.5 20.5q-9 15 -6 33q2 6 -5 6q-20 1 -52 -25l-8 10q48 48 104 48zM161 590l119 115h17
l-136 -188l-136 188h17z" />
    <glyph glyph-name="Sacute" unicode="&#x15a;" horiz-adv-x="544" 
d="M56 236q5 -110 41 -165.5t126 -66.5v-11q-53 4 -97 16.5t-62 23.5l-18 11v192h10zM359 343q48 -32 78 -69.5t38.5 -73.5t4 -68t-20.5 -59q-1 -3 -4 -7.5t-15 -16.5t-27.5 -22t-43 -20t-60.5 -14v11q64 13 90 62t9 105t-68 92l-172 112q-27 19 -46 34.5t-43 42.5t-34 52.5
t-8 60t23 69.5q2 2 5 6.5t15 15.5t26 20.5t38.5 19t52.5 13.5v-11q-34 -11 -58 -38t-32 -60.5t12.5 -73t69.5 -71.5zM441 498q-4 94 -36 143.5t-122 58.5v11q48 -4 90.5 -15.5t60.5 -20.5l19 -9v-168h-12zM138 734l181 161l65 -19l-231 -142h-15z" />
    <glyph glyph-name="sacute" unicode="&#x15b;" horiz-adv-x="417" 
d="M347 439v-127h-11q-6 133 -123 147v11q42 -2 75.5 -10t45.5 -14zM265 241q69 -43 88.5 -98t-15.5 -104q-3 -4 -9 -10.5t-30 -19t-54 -16.5v12q43 8 54 38.5t-7 65.5t-53 58l-101 61q-71 50 -89.5 91.5t6.5 91.5q2 5 8 13.5t32 25t61 20.5v-13q-59 -13 -55 -64.5t63 -88.5
zM45 28v141h11q1 -25 4 -44.5t12 -41.5t22.5 -37t37.5 -27t56 -15v-11q-44 2 -80 11t-50 16zM71 540l181 161l65 -19l-231 -142h-15z" />
    <glyph glyph-name="Scedilla" unicode="&#x15e;" horiz-adv-x="544" 
d="M56 236q5 -110 41 -165.5t126 -66.5v-11q-53 4 -97 16.5t-62 23.5l-18 11v192h10zM359 343q48 -32 78 -69.5t38.5 -73.5t4 -68t-20.5 -59q-1 -3 -4 -7.5t-15 -16.5t-27.5 -22t-43 -20t-60.5 -14v11q64 13 90 62t9 105t-68 92l-172 112q-27 19 -46 34.5t-43 42.5t-34 52.5
t-8 60t23 69.5q2 2 5 6.5t15 15.5t26 20.5t38.5 19t52.5 13.5v-11q-34 -11 -58 -38t-32 -60.5t12.5 -73t69.5 -71.5zM441 498q-4 94 -36 143.5t-122 58.5v11q48 -4 90.5 -15.5t60.5 -20.5l19 -9v-168h-12zM214 -68q70 21 108 -5.5t32 -71.5q-6 -46 -36.5 -64.5t-65.5 -18.5
q-45 1 -62 27q-9 9 -2 22q3 8 11 10t16 -2q18 -7 11 -27q-6 -8 -11 -8q-2 -1 1.5 -3.5t13 -5t22.5 -2.5q29 0 47 16t18 46q0 32 -25.5 57.5t-84.5 11.5z" />
    <glyph glyph-name="scedilla" unicode="&#x15f;" horiz-adv-x="417" 
d="M347 439v-127h-11q-6 133 -123 147v11q42 -2 75.5 -10t45.5 -14zM265 241q69 -43 88.5 -98t-15.5 -104q-3 -4 -9 -10.5t-30 -19t-54 -16.5v12q43 8 54 38.5t-7 65.5t-53 58l-101 61q-71 50 -89.5 91.5t6.5 91.5q2 5 8 13.5t32 25t61 20.5v-13q-59 -13 -55 -64.5t63 -88.5
zM45 28v141h11q1 -25 4 -44.5t12 -41.5t22.5 -37t37.5 -27t56 -15v-11q-44 2 -80 11t-50 16zM150 -68q70 21 108 -5.5t32 -71.5q-6 -46 -36.5 -64.5t-65.5 -18.5q-45 1 -62 27q-9 9 -2 22q3 8 11 10t16 -2q18 -7 11 -27q-6 -8 -11 -8q-2 -1 1.5 -3.5t13 -5t22.5 -2.5
q29 0 47 16t18 46q0 32 -25.5 57.5t-84.5 11.5z" />
    <glyph glyph-name="Scaron" unicode="&#x160;" horiz-adv-x="544" 
d="M56 236q5 -110 41 -165.5t126 -66.5v-11q-53 4 -97 16.5t-62 23.5l-18 11v192h10zM359 343q48 -32 78 -69.5t38.5 -73.5t4 -68t-20.5 -59q-1 -3 -4 -7.5t-15 -16.5t-27.5 -22t-43 -20t-60.5 -14v11q64 13 90 62t9 105t-68 92l-172 112q-27 19 -46 34.5t-43 42.5t-34 52.5
t-8 60t23 69.5q2 2 5 6.5t15 15.5t26 20.5t38.5 19t52.5 13.5v-11q-34 -11 -58 -38t-32 -60.5t12.5 -73t69.5 -71.5zM441 498q-4 94 -36 143.5t-122 58.5v11q48 -4 90.5 -15.5t60.5 -20.5l19 -9v-168h-12zM247 807l119 115h17l-136 -188l-136 188h17z" />
    <glyph glyph-name="scaron" unicode="&#x161;" horiz-adv-x="417" 
d="M191 567l119 115h17l-136 -188l-136 188h17zM347 439v-127h-11q-6 133 -123 147v11q42 -2 75.5 -10t45.5 -14zM265 241q69 -43 88.5 -98t-15.5 -104q-3 -4 -9 -10.5t-30 -19t-54 -16.5v12q43 8 54 38.5t-7 65.5t-53 58l-101 61q-71 50 -89.5 91.5t6.5 91.5q2 5 8 13.5
t32 25t61 20.5v-13q-59 -13 -55 -64.5t63 -88.5zM45 28v141h11q1 -25 4 -44.5t12 -41.5t22.5 -37t37.5 -27t56 -15v-11q-44 2 -80 11t-50 16z" />
    <glyph glyph-name="uni0162" unicode="&#x162;" horiz-adv-x="627" 
d="M19 704h589v-164h-11q-1 43 -17 74.5t-36 46t-47.5 23t-40.5 9.5t-26 1h-79v-609q0 -45 15.5 -59.5t50.5 -14.5v-11h-208v11q35 0 50.5 14.5t15.5 59.5v609h-79q-21 0 -35.5 -1t-41.5 -9.5t-44.5 -23t-31 -46t-14.5 -74.5h-10v164zM268 -68q70 21 108 -5.5t32 -71.5
q-6 -46 -36.5 -64.5t-65.5 -18.5q-45 1 -62 27q-9 9 -2 22q3 8 11 10t16 -2q18 -7 11 -27q-6 -8 -11 -8q-2 -1 1.5 -3.5t13 -5t22.5 -2.5q29 0 47 16t18 46q0 32 -25.5 57.5t-84.5 11.5z" />
    <glyph glyph-name="uni0163" unicode="&#x163;" horiz-adv-x="297" 
d="M279 74l6 -2q-9 -34 -37.5 -57.5t-66.5 -23.5q-56 0 -84 33.5t-28 119.5v305h-51l-2 13h53v145l68 10v-155h119l-3 -13h-116v-302q0 -65 20.5 -91.5t59.5 -26.5q21 0 38.5 13.5t23.5 31.5zM122 -69q70 21 108 -5.5t32 -71.5q-6 -46 -36.5 -64.5t-65.5 -18.5q-45 1 -62 27
q-9 9 -2 22q3 8 11 10t16 -2q18 -7 11 -27q-6 -8 -11 -8q-2 -1 1.5 -3.5t13 -5t22.5 -2.5q29 0 47 16t18 46q0 32 -25.5 57.5t-84.5 11.5z" />
    <glyph glyph-name="Tcaron" unicode="&#x164;" horiz-adv-x="627" 
d="M19 704h589v-164h-11q-1 43 -17 74.5t-36 46t-47.5 23t-40.5 9.5t-26 1h-79v-609q0 -45 15.5 -59.5t50.5 -14.5v-11h-208v11q35 0 50.5 14.5t15.5 59.5v609h-79q-21 0 -35.5 -1t-41.5 -9.5t-44.5 -23t-31 -46t-14.5 -74.5h-10v164zM313 807l119 115h17l-136 -188
l-136 188h17z" />
    <glyph glyph-name="tcaron" unicode="&#x165;" horiz-adv-x="299" 
d="M207 704h58q0 -34 -10 -65t-23.5 -51t-27.5 -35.5t-24 -22.5l-10 -7l-6 9q5 4 12 13.5t19 53.5t12 105zM276 75l8 -4q-9 -33 -36.5 -56.5t-65.5 -23.5q-56 0 -84.5 33.5t-28.5 119.5v307h-50l-2 11h52v147l69 9v-156h118l-2 -11h-116v-304q0 -65 20 -91.5t57 -26.5
q21 0 38 13.5t23 32.5z" />
    <glyph glyph-name="Uring" unicode="&#x16e;" horiz-adv-x="684" 
d="M350 28q87 0 137.5 54.5t50.5 151.5h11q1 -118 -65 -180.5t-176 -62.5q-99 0 -161.5 64t-62.5 182v370q0 51 -15 68.5t-50 17.5v11h214v-11q-38 0 -55.5 -16t-17.5 -72v-378q0 -94 51.5 -146.5t138.5 -52.5zM429 693v11h238v-11q-25 0 -43.5 -4t-31.5 -9.5t-21 -20
t-12.5 -24.5t-6.5 -36t-2.5 -42.5t-0.5 -53.5v-10h-11q0 50 -1.5 76t-7 54.5t-17 41t-32 20.5t-51.5 8zM266 880q0 -27 19 -46.5t46 -19.5t46.5 19.5t19.5 46.5q0 28 -19.5 47t-46.5 19q-28 0 -46.5 -19t-18.5 -47zM238 880q0 38 27.5 65.5t65.5 27.5q39 0 66 -27.5
t27 -65.5t-27 -65.5t-66 -27.5q-38 0 -65.5 27.5t-27.5 65.5z" />
    <glyph glyph-name="uring" unicode="&#x16f;" horiz-adv-x="501" 
d="M433 80q0 -35 9.5 -46t41.5 -15v-10l-97 -17q-11 -2 -16.5 1.5t-6.5 7.5v4v371q0 47 -6 56.5t-41 10.5v10l116 18v-391zM323 50l9 -11q-48 -48 -109 -48q-150 0 -150 150v231q0 51 -7 60.5t-49 10.5v10l123 18v-327q0 -59 32 -87t80 -28q44 0 71 21zM189 615
q0 -27 19 -46.5t46 -19.5t46.5 19.5t19.5 46.5q0 28 -19.5 47t-46.5 19q-28 0 -46.5 -19t-18.5 -47zM161 615q0 38 27.5 65.5t65.5 27.5q39 0 66 -27.5t27 -65.5t-27 -65.5t-66 -27.5q-38 0 -65.5 27.5t-27.5 65.5z" />
    <glyph glyph-name="Uhungarumlaut" unicode="&#x170;" horiz-adv-x="684" 
d="M350 28q87 0 137.5 54.5t50.5 151.5h11q1 -118 -65 -180.5t-176 -62.5q-99 0 -161.5 64t-62.5 182v370q0 51 -15 68.5t-50 17.5v11h214v-11q-38 0 -55.5 -16t-17.5 -72v-378q0 -94 51.5 -146.5t138.5 -52.5zM429 693v11h238v-11q-25 0 -43.5 -4t-31.5 -9.5t-21 -20
t-12.5 -24.5t-6.5 -36t-2.5 -42.5t-0.5 -53.5v-10h-11q0 50 -1.5 76t-7 54.5t-17 41t-32 20.5t-51.5 8zM355 735l173 161l72 -20l-230 -141h-15zM190 735l173 161l72 -20l-230 -141h-15z" />
    <glyph glyph-name="uhungarumlaut" unicode="&#x171;" horiz-adv-x="501" 
d="M433 80q0 -35 9.5 -46t41.5 -15v-10l-97 -17q-11 -2 -16.5 1.5t-6.5 7.5v4v371q0 47 -6 56.5t-41 10.5v10l116 18v-391zM323 50l9 -11q-48 -48 -109 -48q-150 0 -150 150v231q0 51 -7 60.5t-49 10.5v10l123 18v-327q0 -59 32 -87t80 -28q44 0 71 21zM271 541l173 161
l72 -20l-230 -141h-15zM106 541l173 161l72 -20l-230 -141h-15z" />
    <glyph glyph-name="Ydieresis" unicode="&#x178;" horiz-adv-x="652" 
d="M364 825q0 17 11.5 29t28.5 12t28.5 -12t11.5 -29t-12 -28.5t-28 -11.5t-28 11.5t-12 28.5zM219 825q0 17 11.5 29t28.5 12q16 0 28 -12t12 -29q0 -16 -12 -28t-28 -12q-17 0 -28.5 11.5t-11.5 28.5zM365 108q0 -61 17 -79t54 -18v-11h-209v11q36 0 53 18t17 79v186
l-185 322q-13 22 -25 37t-19.5 22.5t-20.5 12t-17 5t-21 1.5v10h225v-10q-15 0 -22 -0.5t-19 -6.5t-13.5 -16.5t5.5 -33.5t26 -56l154 -265v-208zM401 693v11h237v-11q-26 0 -37.5 -3t-34 -22t-50 -64.5t-68.5 -126.5l-7 10q15 31 23.5 52t17.5 47.5t7.5 43t-8.5 32.5
t-27.5 23.5t-52.5 7.5z" />
    <glyph glyph-name="Zacute" unicode="&#x179;" horiz-adv-x="504" 
d="M49 704h271l-6 -11q-140 -1 -193.5 -38.5t-71.5 -152.5h-16zM209 12q128 3 181 51.5t72 170.5h16l-24 -234h-251zM476 704l-355 -704h-96l376 704h75zM149 734l181 161l65 -19l-231 -142h-15z" />
    <glyph glyph-name="zacute" unicode="&#x17a;" horiz-adv-x="397" 
d="M41 462h195l-6 -11q-84 -4 -129.5 -30.5t-52.5 -90.5h-12zM368 462l-254 -462h-84l263 462h75zM176 12q85 5 126 36.5t50 103.5h12l-9 -152h-185zM80 540l181 161l65 -19l-231 -142h-15z" />
    <glyph glyph-name="Zdotaccent" unicode="&#x17b;" horiz-adv-x="504" 
d="M49 704h271l-6 -11q-140 -1 -193.5 -38.5t-71.5 -152.5h-16zM209 12q128 3 181 51.5t72 170.5h16l-24 -234h-251zM476 704l-355 -704h-96l376 704h75zM278 797q-22 0 -36.5 14.5t-14.5 35.5t14.5 35.5t36.5 14.5q20 0 35 -14.5t15 -35.5t-15 -35.5t-35 -14.5z" />
    <glyph glyph-name="zdotaccent" unicode="&#x17c;" horiz-adv-x="397" 
d="M41 462h195l-6 -11q-84 -4 -129.5 -30.5t-52.5 -90.5h-12zM368 462l-254 -462h-84l263 462h75zM176 12q85 5 126 36.5t50 103.5h12l-9 -152h-185zM211 577q-22 0 -36.5 14.5t-14.5 35.5t14.5 35.5t36.5 14.5q20 0 35 -14.5t15 -35.5t-15 -35.5t-35 -14.5z" />
    <glyph glyph-name="Zcaron" unicode="&#x17d;" horiz-adv-x="504" 
d="M49 704h271l-6 -11q-140 -1 -193.5 -38.5t-71.5 -152.5h-16zM209 12q128 3 181 51.5t72 170.5h16l-24 -234h-251zM476 704l-355 -704h-96l376 704h75zM264 807l119 115h17l-136 -188l-136 188h17z" />
    <glyph glyph-name="zcaron" unicode="&#x17e;" horiz-adv-x="397" 
d="M204 567l119 115h17l-136 -188l-136 188h17zM41 462h195l-6 -11q-84 -4 -129.5 -30.5t-52.5 -90.5h-12zM368 462l-254 -462h-84l263 462h75zM176 12q85 5 126 36.5t50 103.5h12l-9 -152h-185z" />
    <glyph glyph-name="florin" unicode="&#x192;" horiz-adv-x="589" 
d="M270 380q10 78 19 128t26.5 103t44.5 82.5t65 37.5v-11q-16 -14 -29.5 -47.5t-18.5 -59.5l-5 -26l-28 -207h105l-6 -14h-100l-37 -268q-9 -65 -15 -102.5t-15 -79.5t-19.5 -65t-25.5 -44t-35.5 -31t-47.5 -13v11q19 15 33 52t19 66l5 30l65 444h-76l1 14h75zM78 -204
q-2 -1 -2.5 -4.5t3.5 -8t13 -7.5v-12q-42 9 -61 41q-14 22 -3 46q7 15 23 20.5t31 -1.5q15 -8 20.5 -24t-2.5 -31q-8 -16 -22 -19zM541 692q14 -23 3 -47q-7 -15 -23.5 -20t-30.5 2q-15 7 -20.5 23t1.5 31q8 17 24 20q1 1 1.5 4t-4 8t-11.5 8v11q39 -9 60 -40z" />
    <glyph glyph-name="uni0218" unicode="&#x218;" horiz-adv-x="544" 
d="M226 -238q42 22 66 64q20 33 22 70.5t-18 60.5q-14 14 -33 14t-33 -14q-13 -14 -13 -32.5t14 -32.5q11 -10 32 -14q9 -2 13 -18.5t-9 -43t-46 -48.5zM56 236q5 -110 41 -165.5t126 -66.5v-11q-53 4 -97 16.5t-62 23.5l-18 11v192h10zM359 343q48 -32 78 -69.5t38.5 -73.5
t4 -68t-20.5 -59q-1 -3 -4 -7.5t-15 -16.5t-27.5 -22t-43 -20t-60.5 -14v11q64 13 90 62t9 105t-68 92l-172 112q-27 19 -46 34.5t-43 42.5t-34 52.5t-8 60t23 69.5q2 2 5 6.5t15 15.5t26 20.5t38.5 19t52.5 13.5v-11q-34 -11 -58 -38t-32 -60.5t12.5 -73t69.5 -71.5z
M441 498q-4 94 -36 143.5t-122 58.5v11q48 -4 90.5 -15.5t60.5 -20.5l19 -9v-168h-12z" />
    <glyph glyph-name="uni0219" unicode="&#x219;" horiz-adv-x="417" 
d="M177 -238q42 22 66 64q20 33 22 70.5t-18 60.5q-13 14 -32.5 14t-33.5 -14q-13 -14 -13 -32.5t14 -32.5q11 -10 32 -14q9 -2 13 -18.5t-9 -43t-46 -48.5zM347 439v-127h-11q-6 133 -123 147v11q42 -2 75.5 -10t45.5 -14zM265 241q69 -43 88.5 -98t-15.5 -104
q-3 -4 -9 -10.5t-30 -19t-54 -16.5v12q43 8 54 38.5t-7 65.5t-53 58l-101 61q-71 50 -89.5 91.5t6.5 91.5q2 5 8 13.5t32 25t61 20.5v-13q-59 -13 -55 -64.5t63 -88.5zM45 28v141h11q1 -25 4 -44.5t12 -41.5t22.5 -37t37.5 -27t56 -15v-11q-44 2 -80 11t-50 16z" />
    <glyph glyph-name="uni021A" unicode="&#x21a;" horiz-adv-x="627" 
d="M281 -238l-5 6q33 22 46 48.5t9 43t-13 18.5q-21 4 -32 14q-14 14 -14 32.5t13 32.5q14 14 33.5 14t32.5 -14q20 -23 18 -60.5t-22 -70.5q-24 -42 -66 -64zM19 704h589v-164h-11q-1 43 -17 74.5t-36 46t-47.5 23t-40.5 9.5t-26 1h-79v-609q0 -45 15.5 -59.5t50.5 -14.5
v-11h-208v11q35 0 50.5 14.5t15.5 59.5v609h-79q-21 0 -35.5 -1t-41.5 -9.5t-44.5 -23t-31 -46t-14.5 -74.5h-10v164z" />
    <glyph glyph-name="uni021B" unicode="&#x21b;" horiz-adv-x="298" 
d="M133 -238l-5 6q33 22 46 48.5t9 43t-13 18.5q-21 4 -32 14q-14 14 -14 32.5t13 32.5q14 14 33.5 14t32.5 -14q20 -23 18 -60.5t-22 -70.5q-24 -42 -66 -64zM276 75l8 -4q-9 -33 -36.5 -56.5t-65.5 -23.5q-56 0 -84.5 33.5t-28.5 119.5v307h-50l-2 11h52v147l69 9v-156
h118l-2 -11h-116v-304q0 -65 20 -91.5t57 -26.5q21 0 38 13.5t23 32.5z" />
    <glyph glyph-name="circumflex" unicode="&#x2c6;" horiz-adv-x="272" 
d="M136 645l-119 -114h-17l136 188l136 -188h-17z" />
    <glyph glyph-name="caron" unicode="&#x2c7;" horiz-adv-x="274" 
d="M136 605l119 115h17l-136 -188l-136 188h17z" />
    <glyph glyph-name="uni02C9" unicode="&#x2c9;" horiz-adv-x="305" 
d="M330 598h-355v46h355v-46z" />
    <glyph glyph-name="breve" unicode="&#x2d8;" horiz-adv-x="252" 
d="M247 704h6q0 -137 -125 -137q-129 0 -129 137h7q0 -36 27 -62t95 -26q66 0 92.5 26.5t26.5 61.5z" />
    <glyph glyph-name="dotaccent" unicode="&#x2d9;" horiz-adv-x="258" 
d="M131 596q-22 0 -36.5 14.5t-14.5 35.5t14.5 35.5t36.5 14.5q20 0 35 -14.5t15 -35.5t-15 -35.5t-35 -14.5z" />
    <glyph glyph-name="ring" unicode="&#x2da;" horiz-adv-x="271" 
d="M73 637q0 -27 19 -46.5t46 -19.5t46.5 19.5t19.5 46.5q0 28 -19.5 47t-46.5 19q-28 0 -46.5 -19t-18.5 -47zM45 637q0 38 27.5 65.5t65.5 27.5q39 0 66 -27.5t27 -65.5t-27 -65.5t-66 -27.5q-38 0 -65.5 27.5t-27.5 65.5z" />
    <glyph glyph-name="ogonek" unicode="&#x2db;" horiz-adv-x="267" 
d="M147 -134q5 -20 21 -30.5t29 -11.5h13q21 0 34 18t13 37h10q0 -80 -69 -80q-31 0 -53 10.5t-29 20.5l-6 10q-21 53 15.5 94t110.5 66v-8q-42 -19 -69.5 -58t-19.5 -68z" />
    <glyph glyph-name="tilde" unicode="&#x2dc;" horiz-adv-x="412" 
d="M248 573l-111 43q-19 7 -47 7.5t-58.5 -12t-43.5 -39.5l-6 2q15 39 39.5 64t47.5 31.5t44.5 7.5t34.5 -3l13 -3l113 -43q19 -5 47 -6.5t59 12.5t42 39l6 -3q-15 -40 -39.5 -64.5t-48 -31t-45 -8t-34.5 2.5z" />
    <glyph glyph-name="hungarumlaut" unicode="&#x2dd;" horiz-adv-x="501" 
d="M252 557l173 161l72 -20l-230 -141h-15zM87 557l173 161l72 -20l-230 -141h-15z" />
    <glyph glyph-name="uni03A9" unicode="&#x3a9;" horiz-adv-x="690" 
d="M619 120h10l-23 -120h-236q7 35 26 70.5t40.5 67.5t42.5 72t34.5 100t13.5 135q0 248 -154 276v12q114 -14 175 -92t61 -191q0 -162 -111 -280l-26 -26l-27 -27t-20 -25t-14 -28h110q43 0 63.5 11t34.5 45zM51 450q0 113 61 191t175 92v-12q-153 -28 -153 -276
q0 -75 13.5 -135t34.5 -100t42 -72t40 -67.5t26 -70.5h-235l-23 120h10q14 -34 34.5 -45t62.5 -11h110q-3 13 -13 28t-20 25t-27.5 27t-25.5 26q-112 119 -112 280z" />
    <glyph glyph-name="uni03BC" unicode="&#x3bc;" horiz-adv-x="497" 
d="M327 41q-33 -35 -84.5 -44t-108.5 17v-189q0 -36 9.5 -47.5t41.5 -15.5v-10l-96 -16q-11 -2 -16.5 1t-5.5 7v5v622q0 51 -7 60.5t-49 10.5v11l123 18v-338q3 -54 34 -79t78 -25q45 0 73 23zM427 79q0 -35 9.5 -46t41.5 -15v-10l-97 -16q-11 -2 -16.5 1t-6.5 7v5v371
q0 47 -6 56t-41 10v11l116 18v-392z" />
    <glyph glyph-name="pi" unicode="&#x3c0;" horiz-adv-x="575" 
d="M500 44l9 -2q-14 -51 -75 -51q-36 0 -56 18t-22 36l-2 18v338h-134l-10 -226q-2 -44 -16.5 -82.5t-34.5 -62t-39 -41t-32 -24.5l-14 -7l-5 7q93 72 101 216l9 220h-13q-108 -3 -147 -61l-7 5q2 4 5.5 11.5t18 26.5t32 34t48 27t65.5 12h241q48 0 72.5 3.5t40.5 17
t17 40.5h7q0 -64 -28.5 -90t-95.5 -26h-21v-313q0 -63 54 -63q11 0 19 4.5t11 9.5z" />
    <glyph glyph-name="uni2010" unicode="&#x2010;" horiz-adv-x="447" 
d="M64 281h315v-50h-315v50z" />
    <glyph glyph-name="endash" unicode="&#x2013;" horiz-adv-x="561" 
d="M0 274h561v-43h-561v43z" />
    <glyph glyph-name="emdash" unicode="&#x2014;" horiz-adv-x="1055" 
d="M0 274h1055v-43h-1055v43z" />
    <glyph glyph-name="quoteleft" unicode="&#x2018;" horiz-adv-x="204" 
d="M148 689l5 -5q-33 -23 -46 -49.5t-9 -43t13 -18.5q21 -4 32 -14q14 -14 14 -32.5t-13 -32.5q-14 -14 -33 -14t-33 14q-20 22 -18 60t22 71q7 13 13 21t19.5 20.5t33.5 22.5z" />
    <glyph glyph-name="quoteright" unicode="&#x2019;" horiz-adv-x="207" 
d="M65 477l-5 5q33 23 46 49.5t9 43t-13 18.5q-21 4 -32 14q-14 14 -14 32.5t13 32.5q14 14 33 14t33 -14q20 -22 18 -60t-22 -71q-7 -13 -13 -21t-19.5 -20.5t-33.5 -22.5z" />
    <glyph glyph-name="quotesinglbase" unicode="&#x201a;" horiz-adv-x="204" 
d="M64 -122l-5 5q33 23 46 49.5t9 43t-13 18.5q-21 4 -32 14q-14 14 -14 32.5t13 32.5q14 14 33 14t33 -14q20 -22 18 -60t-22 -71q-7 -13 -13 -21t-19.5 -20.5t-33.5 -22.5z" />
    <glyph glyph-name="quotedblleft" unicode="&#x201c;" horiz-adv-x="383" 
d="M314 693l5 -5q-33 -23 -46 -49.5t-9 -43t13 -18.5q21 -4 32 -14q14 -14 14 -32.5t-13 -32.5q-14 -14 -33 -14t-33 14q-20 22 -18 60t22 71q7 13 13 21t19.5 20.5t33.5 22.5zM141 693l4 -5q-33 -23 -45.5 -49.5t-8.5 -43t13 -18.5q21 -4 31 -14q14 -13 14.5 -32.5
t-13.5 -32.5q-14 -14 -33 -14t-33 14q-20 23 -18 60.5t22 70.5q25 42 67 64z" />
    <glyph glyph-name="quotedblright" unicode="&#x201d;" horiz-adv-x="378" 
d="M64 485l-5 5q33 23 46 49.5t9 43t-13 18.5q-21 4 -32 14q-14 14 -14 32.5t13 32.5q14 14 33 14t33 -14q20 -22 18 -60t-22 -71q-7 -13 -13 -21t-19.5 -20.5t-33.5 -22.5zM237 485l-4 5q33 23 45.5 49.5t8.5 43t-13 18.5q-21 4 -31 14q-14 13 -14.5 32.5t13.5 32.5
q14 14 33 14t33 -14q20 -23 18 -60.5t-22 -70.5q-25 -42 -67 -64z" />
    <glyph glyph-name="quotedblbase" unicode="&#x201e;" horiz-adv-x="378" 
d="M64 -121l-5 5q33 23 46 49.5t9 43t-13 18.5q-21 4 -32 14q-14 14 -14 32.5t13 32.5q14 14 33 14t33 -14q20 -22 18 -60t-22 -71q-7 -13 -13 -21t-19.5 -20.5t-33.5 -22.5zM237 -121l-4 5q33 23 45.5 49.5t8.5 43t-13 18.5q-21 4 -31 14q-14 13 -14.5 32.5t13.5 32.5
q14 14 33 14t33 -14q20 -23 18 -60.5t-22 -70.5q-25 -42 -67 -64z" />
    <glyph glyph-name="dagger" unicode="&#x2020;" horiz-adv-x="374" 
d="M186 645q-16 0 -27.5 11.5t-11.5 27.5q0 17 11.5 28.5t27.5 11.5t28 -12t12 -28t-12 -27.5t-28 -11.5zM103 445q17 -12 31 -36l-4 -3q-8 10 -19.5 16.5t-18 7t-8.5 -1.5q-2 -16 -10 -23q-10 -10 -24 -10.5t-24 9.5t-10 24t10 24q26 27 77 -7zM194 403q-3 -51 33 -111
q-38 -240 -38 -557h-6q0 317 -37 557q16 27 24 55t8 42v14q0 34 -8.5 78.5t-8.5 63.5q1 2 -0.5 15.5t5 29.5t20.5 16t20.5 -15t5.5 -31l-1 -15q0 -19 -8.5 -63t-8.5 -79zM346 452q10 -10 10 -24t-10 -24t-24 -9.5t-24 10.5q-8 7 -10 23q-2 2 -8.5 1.5t-18 -7t-19.5 -16.5
l-4 3q12 21 32 36q11 8 24 13t28 4.5t24 -10.5z" />
    <glyph glyph-name="daggerdbl" unicode="&#x2021;" horiz-adv-x="426" 
d="M221 357q0 -75 57 -112q-56 -36 -56 -110q0 -37 10 -81t10 -64q-1 -2 0.5 -16.5t-5.5 -31.5t-22 -17q-16 0 -23 16.5t-6 32.5l1 16q0 20 9.5 64t9.5 81q0 80 -57 110q56 37 56 112q0 37 -9 80.5t-9 64.5q0 3 -0.5 7t0 15.5t2.5 20t8 15.5t16 7q16 0 23 -16.5t6 -32.5
l-1 -16q0 -21 -10 -64.5t-10 -80.5zM324 393q-2 2 -9 1.5t-20 -7.5t-21 -18l-5 3q14 25 35 39q53 38 83 8q11 -11 11 -26t-11 -26t-27 -10.5t-26 11.5q-8 8 -10 25zM213 609q-17 0 -30 13t-13 30q0 18 13 31t30 13q18 0 30.5 -13t12.5 -31t-12.5 -30.5t-30.5 -12.5z
M215 -117q17 0 29.5 -13t12.5 -30q0 -18 -12.5 -30.5t-29.5 -12.5q-19 0 -31.5 12.5t-12.5 30.5t12.5 30.5t31.5 12.5zM93 368q-11 -11 -26.5 -11.5t-26.5 10.5q-10 11 -10 26t10 26q20 15 41.5 11t41.5 -19q21 -14 35 -39l-5 -3q-8 11 -20.5 18t-19.5 7.5t-9 -1.5
q-2 -16 -11 -25zM335 125q10 11 25.5 11.5t27.5 -10.5q10 -12 10 -27t-10 -26q-21 -14 -42.5 -10t-41.5 18q-22 19 -34 40l4 3q9 -11 21.5 -18t19.5 -7.5t9 1.5q2 17 11 25zM104 100q2 -2 9 -1.5t19.5 7.5t21.5 18l4 -3q-12 -20 -34 -40q-20 -14 -41.5 -18t-42.5 10
q-10 11 -10 26t10 27q12 11 27.5 10.5t25.5 -11.5q9 -9 11 -25z" />
    <glyph glyph-name="bullet" unicode="&#x2022;" horiz-adv-x="410" 
d="M195 255q-36 0 -62 25.5t-26 60.5q0 37 26 62.5t62 25.5t61.5 -25.5t25.5 -62.5q0 -35 -25.5 -60.5t-61.5 -25.5z" />
    <glyph glyph-name="ellipsis" unicode="&#x2026;" horiz-adv-x="625" 
d="M530 38q0 -19 -14 -32.5t-33 -13.5t-32.5 13t-13.5 33t13.5 33.5t32.5 13.5t33 -14t14 -33zM353 38q0 -19 -13.5 -32.5t-32.5 -13.5t-32.5 13t-13.5 33t13.5 33.5t32.5 13.5t32.5 -14t13.5 -33zM178 38q0 -19 -13.5 -32.5t-33.5 -13.5q-19 0 -32 13.5t-13 32.5
q0 20 13 33.5t32 13.5t33 -13.5t14 -33.5z" />
    <glyph glyph-name="perthousand" unicode="&#x2030;" horiz-adv-x="1050" 
d="M962 200q0 176 -81 176q-80 0 -80 -176q0 -97 21.5 -133t58.5 -36q39 0 60 35.5t21 133.5zM280 495q0 -176 -131 -176q-132 0 -132 176q0 33 5.5 62t19 58t41 45.5t66.5 16.5q51 0 82 -30.5t40 -68t9 -83.5zM229 495q0 175 -80 175q-38 0 -59.5 -38t-21.5 -137
q0 -98 21.5 -133.5t59.5 -35.5q39 0 59.5 35.5t20.5 133.5zM107 0l456 704h47l-456 -704h-47zM700 200q0 -176 -132 -176q-131 0 -131 176q0 34 5.5 63t18.5 58t40.5 46t66.5 17t66.5 -17t41 -46t19 -58t5.5 -63zM649 200q0 176 -81 176q-80 0 -80 -176q0 -97 21.5 -133
t58.5 -36q39 0 60 35.5t21 133.5zM1013 200q0 -176 -132 -176q-131 0 -131 176q0 34 5.5 63t18.5 58t40.5 46t66.5 17t66.5 -17t41 -46t19 -58t5.5 -63z" />
    <glyph glyph-name="guilsinglleft" unicode="&#x2039;" horiz-adv-x="339" 
d="M281 505v-20l-162 -219l162 -214v-19l-231 233z" />
    <glyph glyph-name="guilsinglright" unicode="&#x203a;" horiz-adv-x="339" 
d="M48 485v20l231 -239l-231 -233v19l161 214z" />
    <glyph glyph-name="fraction" unicode="&#x2044;" horiz-adv-x="324" 
d="M457 734h35l-605 -734h-34z" />
    <glyph glyph-name="Euro" unicode="&#x20ac;" horiz-adv-x="583" 
d="M122 412q18 269 196 298v-11q-105 -38 -117 -287h217l-9 -14h-209v-47v-43h201l-8 -13h-192q10 -246 117 -289v-12q-177 30 -196 301h-107l9 13h97q-2 28 -2 43t2 47h-106l9 14h98zM403 711q62 -6 122 -54v-133h-11q0 82 -32 123.5t-79 51.5v12zM525 47
q-40 -27 -64.5 -38t-57.5 -15v11q47 11 79 52t32 121h11v-131z" />
    <glyph glyph-name="afii61289" unicode="&#x2113;" horiz-adv-x="332" 
d="M213 333l-59 -57l-2 -108q-1 -68 18.5 -106.5t55.5 -34.5q47 10 67 72l8 -3q-7 -46 -35 -75.5t-63 -29.5q-60 0 -89 50t-29 165v28l-63 -48v27l63 50v272q0 61 12.5 105.5t32 66t42.5 28.5t46 -1.5t41 -29.5l-8 -8q-14 18 -37 18q-58 -4 -59 -165v-243l51 49
q70 66 77 180q1 0 6.5 0.5t6.5 0.5q-7 -137 -83 -203z" />
    <glyph glyph-name="trademark" unicode="&#x2122;" horiz-adv-x="649" 
d="M622 424v-7h-96v7q15 0 22.5 8.5t7.5 33.5v215l-91 -268h-6l-111 248v-141q0 -55 9.5 -75.5t38.5 -20.5v-7h-110v7q32 0 42.5 21t10.5 75v155q-13 21 -44 21v8h71l108 -241l82 241h64v-8q-31 0 -31 -36v-194q0 -25 8.5 -33.5t24.5 -8.5zM13 704h240v-82h-8q0 21 -6 36.5
t-13.5 22.5t-19 11t-16 4.5t-10.5 0.5h-31v-243q0 -19 6 -24.5t20 -5.5v-7h-84v7q14 0 20.5 5.5t6.5 24.5v243h-33q-11 0 -18.5 -1.5t-20 -7.5t-19.5 -23t-7 -43h-7v82z" />
    <glyph glyph-name="Omega" unicode="&#x2126;" horiz-adv-x="690" 
d="M619 120h10l-23 -120h-236q7 35 26 70.5t40.5 67.5t42.5 72t34.5 100t13.5 135q0 248 -154 276v12q114 -14 175 -92t61 -191q0 -162 -111 -280l-26 -26l-27 -27t-20 -25t-14 -28h110q43 0 63.5 11t34.5 45zM51 450q0 113 61 191t175 92v-12q-153 -28 -153 -276
q0 -75 13.5 -135t34.5 -100t42 -72t40 -67.5t26 -70.5h-235l-23 120h10q14 -34 34.5 -45t62.5 -11h110q-3 13 -13 28t-20 25t-27.5 27t-25.5 26q-112 119 -112 280z" />
    <glyph glyph-name="estimated" unicode="&#x212e;" horiz-adv-x="892" 
d="M167 613v-225h560v222q-116 105 -282 105q-163 0 -278 -102zM445 735q171 0 292 -108t121 -260h-691v-245q115 -102 278 -102q180 0 297 120h27q-58 -65 -142.5 -102.5t-181.5 -37.5q-171 0 -292 107.5t-121 259.5t121 260t292 108z" />
    <glyph glyph-name="partialdiff" unicode="&#x2202;" horiz-adv-x="472" 
d="M71 644q12 33 47.5 58t79.5 35v-14q-46 -19 -75.5 -61.5t-19.5 -88.5l-8 -3zM284 738q170 -39 147 -401q-6 -82 -25.5 -151t-57.5 -120.5t-90 -67.5v19q75 61 99 323q-10 36 -35 59t-56 23q-50 0 -93 -49.5t-55 -161.5q-20 -174 54 -202v-14q-71 13 -104.5 72t-25.5 156
q8 88 65.5 158t129.5 70q35 0 71.5 -22t49.5 -69q26 321 -74 364v14z" />
    <glyph glyph-name="Delta" unicode="&#x2206;" horiz-adv-x="714" 
d="M63 32h514l-256 613zM375 738l294 -706l-15 -32h-616l-6 26l1 2l287 692z" />
    <glyph glyph-name="product" unicode="&#x220f;" horiz-adv-x="604" 
d="M506 594v-551q0 -61 13 -89t47 -28v-11h-201v11q34 0 47 28t13 89v547q0 55 -12.5 78.5t-47.5 23.5h-138q-34 0 -43.5 -22t-9.5 -80v-547q0 -64 10 -90.5t43 -26.5v-11h-195v11q35 0 49 28.5t14 88.5v551q0 54 -13.5 76.5t-49.5 22.5v11h534v-11q-35 0 -47.5 -22.5
t-12.5 -76.5z" />
    <glyph glyph-name="summation" unicode="&#x2211;" horiz-adv-x="655" 
d="M582 514q-12 49 -33.5 82t-48.5 52.5t-73 29t-91 12.5t-118 3l-6 11h369l19 -190h-18zM355 305l-245 -403h-34l202 338l-257 464h105zM620 129l-27 -227h-398l7 12h73q61 0 108 6.5t79.5 14.5t56.5 26t37 31.5t23.5 41.5t14 44.5t10.5 50.5h16z" />
    <glyph glyph-name="minus" unicode="&#x2212;" horiz-adv-x="626" 
d="M581 233h-533v47h533v-47z" />
    <glyph glyph-name="uni2215" unicode="&#x2215;" horiz-adv-x="329" 
d="M458 734h41l-605 -734h-40z" />
    <glyph glyph-name="uni2219" unicode="&#x2219;" horiz-adv-x="238" 
d="M120 256q-18 0 -30 12.5t-12 29.5t12 29.5t30 12.5q17 0 29.5 -12.5t12.5 -29.5t-12.5 -29.5t-29.5 -12.5z" />
    <glyph glyph-name="radical" unicode="&#x221a;" horiz-adv-x="565" 
d="M362 -50l155 909l25 -7l-180 -1031l-18 -7l-200 469q-16 39 -41.5 54t-54.5 4l-3 9l125 52z" />
    <glyph glyph-name="infinity" unicode="&#x221e;" horiz-adv-x="755" 
d="M607 220q28 30 28 72q0 41 -28 72q-27 29 -67 29t-66 -29l-62 -73q58 -66 62 -71q27 -29 66 -29q38 0 67 29zM271 220l61 72l-62 72q-27 29 -67 29t-67 -29q-28 -30 -28 -72q2 -45 29 -72q26 -29 66 -29q37 0 68 29zM650 404q44 -46 44 -112t-44 -113q-45 -47 -110 -47
q-64 0 -109 47l-59 68q-57 -65 -60 -68q-45 -47 -109 -47q-63 0 -110 47q-43 46 -43 112.5t43 113.5q47 47 110 47q64 0 109 -48l60 -67q56 64 59 67q45 48 109 48q65 0 110 -48z" />
    <glyph glyph-name="integral" unicode="&#x222b;" horiz-adv-x="327" 
d="M72 -184q-8 -1 2 -10q2 -1 3 -2v-11q-31 7 -47 28q-14 20 -6 40q5 14 18.5 20.5t27.5 -0.5q14 -5 20 -18.5t1 -27.5q-7 -16 -19 -19zM120 445q-16 185 2 275.5t84 102.5v-11q-44 -42 -29 -201l35 -442q16 -184 -2.5 -274.5t-85.5 -102.5v12q47 38 31 201zM299 797
q16 -19 5 -41q-4 -14 -18 -20t-27 0q-14 5 -20.5 18.5t-1.5 27.5q8 16 20 19q7 4 -4 10v12q28 -5 46 -26z" />
    <glyph glyph-name="approxequal" unicode="&#x2248;" horiz-adv-x="505" 
d="M293 326l-111 43q-19 7 -47 8t-58.5 -11.5t-43.5 -40.5l-6 2q15 39 39.5 64t47.5 32t44.5 8t34.5 -3l13 -3l113 -44q19 -5 47 -6t59 12.5t42 38.5l6 -2q-15 -40 -39.5 -65t-48 -31.5t-45 -8t-34.5 2.5zM293 149l-111 43q-19 7 -47 7.5t-58.5 -12t-43.5 -39.5l-6 2
q15 39 39.5 64t47.5 31.5t44.5 7.5t34.5 -3l13 -3l113 -43q19 -5 47 -6.5t59 12.5t42 39l6 -3q-15 -40 -39.5 -64.5t-48 -31t-45 -8t-34.5 2.5z" />
    <glyph glyph-name="notequal" unicode="&#x2260;" horiz-adv-x="527" 
d="M480 352h-149l-66 -140h215v-55h-241l-61 -129l-49 23l50 106h-133v55h159l66 140h-225v54h250l66 139l49 -23l-54 -116h123v-54z" />
    <glyph glyph-name="lessequal" unicode="&#x2264;" horiz-adv-x="532" 
d="M133 345l346 -180v-59l-423 217v44l423 217v-61zM47 40h432v-44h-432v44z" />
    <glyph glyph-name="greaterequal" unicode="&#x2265;" horiz-adv-x="532" 
d="M55 165l346 180l-346 178v61l423 -217v-44l-423 -217v59zM55 40h432v-44h-432v44z" />
    <glyph glyph-name="lozenge" unicode="&#x25ca;" horiz-adv-x="559" 
d="M448 327l-170 334l-171 -334l171 -335zM301 733l208 -406l-208 -406h-45l-208 406l208 406h45z" />
    <glyph glyph-name="zero.taboldstyle" unicode="&#xf643;" horiz-adv-x="536" 
d="M136 229q0 -195 93 -222v-13q-82 12 -127.5 71.5t-45.5 163.5q0 102 46 163.5t127 74.5v-13q-93 -27 -93 -225zM490 229q0 -106 -45.5 -164.5t-129.5 -70.5v14q94 28 94 221q0 196 -94 225v13q83 -11 129 -71.5t46 -166.5z" />
    <glyph glyph-name="one.taboldstyle" unicode="&#xf644;" horiz-adv-x="436" 
d="M194 88v274q0 42 -19.5 48t-70.5 -26l-4 10l140 77h22v-383q0 -27 6 -44t18.5 -24t22.5 -8.5t27 -1.5v-10h-218v10q19 0 30 2t23 9t17.5 23.5t5.5 43.5z" />
    <glyph glyph-name="two.taboldstyle" unicode="&#xf645;" horiz-adv-x="462" 
d="M77 379q3 30 46 59l4 -8q-23 -16 -19 -22q16 4 28 -5q13 -9 15.5 -24t-6.5 -27q-9 -13 -24.5 -15.5t-28.5 7.5q-19 12 -15 35zM370 110h9l-31 -110h-276l99 109q153 159 107 271q-14 35 -40 54.5t-55 19.5l-4 11q25 6 51.5 6t54 -7.5t48.5 -29t29 -55.5q2 -21 4 -35
t-4.5 -31.5t-12.5 -30.5t-20 -30.5t-26.5 -31t-32 -33l-36.5 -36.5l-41 -41t-44 -47l154 1q25 0 38.5 9t28.5 37z" />
    <glyph glyph-name="three.taboldstyle" unicode="&#xf646;" horiz-adv-x="515" 
d="M129 -218q-3 -1 3.5 -6.5t24 -13.5t40.5 -12v-12q-83 12 -118 59q-15 20 -3 48q9 16 27.5 21t34.5 -3q16 -9 21 -27t-4 -35q-7 -14 -26 -19zM470 -49q1 -99 -54.5 -150.5t-132.5 -62.5v12q59 11 88 58t23 128q-5 65 -50.5 115.5t-143.5 53.5v14q70 6 112.5 55t39.5 111.5
t-52 105.5q-26 23 -64 27t-71 -8.5t-57.5 -40.5t-26.5 -64l-13 1q1 46 19 79.5t39.5 49.5t51.5 25t45 10t30 1q49 0 89.5 -27t58 -69.5t18 -88t-31 -88t-88.5 -64.5q79 -14 124.5 -67t46.5 -116z" />
    <glyph glyph-name="four.taboldstyle" unicode="&#xf647;" horiz-adv-x="561" 
d="M503 -48h-93v-108q0 -46 10 -68t22 -26t38 -4v-11h-216v11q19 0 29 2t21 11t15.5 28.5t4.5 51.5v113h-291v13l44 66l9 -7q-12 -21 -9 -24.5t26 -3.5h221v400l45 68l31 -2v-466h93v-44z" />
    <glyph glyph-name="five.taboldstyle" unicode="&#xf648;" horiz-adv-x="553" 
d="M473 462l-18 -73h-339l11 73h346zM84 164q170 54 286.5 -0.5t130.5 -159.5q8 -62 -7.5 -111.5t-48 -80.5t-72.5 -49.5t-86 -24.5v12q82 17 127.5 82.5t18.5 153.5q-16 52 -61 85t-120 43t-178 -18zM128 -212q-8 -3 13 -16q24 -15 60 -22v-12q-48 8 -79.5 26.5t-43.5 33.5
q-18 25 -7 51q8 17 26.5 24t36.5 -1q17 -8 23.5 -26.5t-1.5 -35.5q-6 -17 -28 -22z" />
    <glyph glyph-name="six.taboldstyle" unicode="&#xf649;" horiz-adv-x="546" 
d="M385 678l2 1q-2 10 -34 17q-2 1 -4 1v11q10 -2 19 -5t16 -6.5t12.5 -7t10 -8l7.5 -7.5t5.5 -7.5t3.5 -6.5l3 -6l2 -4q5 -10 2 -24.5t-12 -22.5q-13 -13 -31.5 -13.5t-31.5 12.5t-13 31.5t12 31.5q17 13 31 13zM484 239q0 -104 -44.5 -168t-127.5 -77v12q44 16 70 71.5
t26 145.5q0 110 -38 163.5t-89 53.5q-116 0 -157 -160q2 -237 102 -274v-12q-181 28 -181 323q0 149 59 262t159 131v-11q-139 -49 -139 -377q21 67 64 108t109 41q51 0 89 -22t58.5 -57.5t30 -74t9.5 -78.5z" />
    <glyph glyph-name="seven.taboldstyle" unicode="&#xf64a;" horiz-adv-x="550" 
d="M486 396h-334q-38 0 -53.5 -12.5t-28.5 -45.5h-11l16 124h451zM211 -263q8 179 56.5 304t159.5 269h11q-78 -151 -110 -280t-32 -293h-85z" />
    <glyph glyph-name="eight.taboldstyle" unicode="&#xf64b;" horiz-adv-x="542" 
d="M503 183q0 -86 -48.5 -133.5t-131.5 -56.5v13q48 11 81.5 46.5t32.5 100.5q-1 53 -38 91t-133 88l-35 20q-124 -57 -124 -187q0 -72 36 -111t94 -49v-12q-191 16 -191 170q0 62 49.5 115t125.5 80q-78 45 -106.5 84.5t-28.5 102.5q0 68 40 110.5t102 53.5v-13
q-37 -12 -61 -41t-24 -69q0 -71 37.5 -110t121.5 -73q32 8 67.5 50t34.5 97q-3 122 -90 146v13q67 -10 103 -52t36 -105q0 -44 -42 -93.5t-95 -63.5q89 -44 138 -93t49 -119z" />
    <glyph glyph-name="nine.taboldstyle" unicode="&#xf64c;" horiz-adv-x="512" 
d="M477 143q0 -376 -210 -405v11q69 17 99.5 105t31.5 283q-20 -65 -63.5 -105.5t-109.5 -40.5q-41 0 -74 14.5t-53.5 38t-34.5 54.5t-19.5 61.5t-5.5 61.5q0 107 43.5 169.5t126.5 76.5v-13q-43 -18 -69 -72.5t-26 -143.5q0 -110 38 -163t89 -53q118 0 158 157
q0 235 -104 275v13q66 -10 107.5 -53.5t58.5 -110t17 -160.5zM135 -219l-1 -2q4 -13 31 -25q8 -3 16 -5v-11q-67 13 -90 71q-11 29 9 49q13 14 32.5 14.5t33.5 -12.5q13 -13 13.5 -32.5t-12.5 -32.5q-14 -14 -32 -14z" />
    <glyph glyph-name="dollar.taboldstyle" unicode="&#xf653;" horiz-adv-x="512" 
d="M51 236q7 -179 99 -223v-11q-32 7 -59 17.5t-37 17.5l-11 7v192h8zM441 497q-8 151 -86 190v11q28 -6 52 -14t34 -14l10 -5v-168h-10zM269 1q82 4 118 53.5t20 110t-70 97.5l-68 44v-305zM356 342q48 -32 78 -69.5t38.5 -73.5t4 -68t-20.5 -59q-27 -35 -60 -53
q-51 -27 -127 -29v-121h-33v459l-71 47q-28 20 -46.5 35t-42.5 42t-34 52t-8 60t23 70q2 3 6 8t20 18.5t34.5 23.5t50.5 18.5t68 9.5v123h33v-436zM236 421v280q-32 -1 -62 -16.5t-48 -41.5t-22.5 -57t16 -66.5t66.5 -65.5z" />
    <glyph glyph-name="cent.taboldstyle" unicode="&#xf654;" horiz-adv-x="513" 
d="M290 31v429q-22 -3 -43.5 -15t-44.5 -36t-37 -68.5t-14 -103.5q0 -94 40.5 -145t98.5 -61zM460 128l9 -3q-9 -47 -48.5 -88t-111.5 -46v-109h-19v109q-90 2 -152.5 64t-62.5 174q0 94 59 164.5t156 77.5v122h19v-564q58 -1 98 29.5t53 69.5zM411 426l2 1q-3 10 -33 22
q-9 3 -18 5v12q30 -6 50.5 -19.5t27 -24t9.5 -20.5q7 -23 -9 -40q-11 -11 -27.5 -11.5t-27.5 9.5q-11 12 -11.5 28t10.5 27q12 11 27 11z" />
    <glyph glyph-name="dollar.oldstyle" unicode="&#xf724;" horiz-adv-x="512" 
d="M51 236q7 -179 99 -223v-11q-32 7 -59 17.5t-37 17.5l-11 7v192h8zM441 497q-8 151 -86 190v11q28 -6 52 -14t34 -14l10 -5v-168h-10zM269 1q82 4 118 53.5t20 110t-70 97.5l-68 44v-305zM356 342q48 -32 78 -69.5t38.5 -73.5t4 -68t-20.5 -59q-27 -35 -60 -53
q-51 -27 -127 -29v-121h-33v459l-71 47q-28 20 -46.5 35t-42.5 42t-34 52t-8 60t23 70q2 3 6 8t20 18.5t34.5 23.5t50.5 18.5t68 9.5v123h33v-436zM236 421v280q-32 -1 -62 -16.5t-48 -41.5t-22.5 -57t16 -66.5t66.5 -65.5z" />
    <glyph glyph-name="zero.oldstyle" unicode="&#xf730;" horiz-adv-x="536" 
d="M136 229q0 -195 93 -222v-13q-82 12 -127.5 71.5t-45.5 163.5q0 102 46 163.5t127 74.5v-13q-93 -27 -93 -225zM490 229q0 -106 -45.5 -164.5t-129.5 -70.5v14q94 28 94 221q0 196 -94 225v13q83 -11 129 -71.5t46 -166.5z" />
    <glyph glyph-name="one.oldstyle" unicode="&#xf731;" horiz-adv-x="436" 
d="M194 88v274q0 42 -19.5 48t-70.5 -26l-4 10l140 77h22v-383q0 -27 6 -44t18.5 -24t22.5 -8.5t27 -1.5v-10h-218v10q19 0 30 2t23 9t17.5 23.5t5.5 43.5z" />
    <glyph glyph-name="two.oldstyle" unicode="&#xf732;" horiz-adv-x="462" 
d="M77 379q3 30 46 59l4 -8q-23 -16 -19 -22q16 4 28 -5q13 -9 15.5 -24t-6.5 -27q-9 -13 -24.5 -15.5t-28.5 7.5q-19 12 -15 35zM370 110h9l-31 -110h-276l99 109q153 159 107 271q-14 35 -40 54.5t-55 19.5l-4 11q25 6 51.5 6t54 -7.5t48.5 -29t29 -55.5q2 -21 4 -35
t-4.5 -31.5t-12.5 -30.5t-20 -30.5t-26.5 -31t-32 -33l-36.5 -36.5l-41 -41t-44 -47l154 1q25 0 38.5 9t28.5 37z" />
    <glyph glyph-name="three.oldstyle" unicode="&#xf733;" horiz-adv-x="515" 
d="M129 -218q-3 -1 3.5 -6.5t24 -13.5t40.5 -12v-12q-83 12 -118 59q-15 20 -3 48q9 16 27.5 21t34.5 -3q16 -9 21 -27t-4 -35q-7 -14 -26 -19zM470 -49q1 -99 -54.5 -150.5t-132.5 -62.5v12q59 11 88 58t23 128q-5 65 -50.5 115.5t-143.5 53.5v14q70 6 112.5 55t39.5 111.5
t-52 105.5q-26 23 -64 27t-71 -8.5t-57.5 -40.5t-26.5 -64l-13 1q1 46 19 79.5t39.5 49.5t51.5 25t45 10t30 1q49 0 89.5 -27t58 -69.5t18 -88t-31 -88t-88.5 -64.5q79 -14 124.5 -67t46.5 -116z" />
    <glyph glyph-name="four.oldstyle" unicode="&#xf734;" horiz-adv-x="561" 
d="M503 -48h-93v-108q0 -46 10 -68t22 -26t38 -4v-11h-216v11q19 0 29 2t21 11t15.5 28.5t4.5 51.5v113h-291v13l44 66l9 -7q-12 -21 -9 -24.5t26 -3.5h221v400l45 68l31 -2v-466h93v-44z" />
    <glyph glyph-name="five.oldstyle" unicode="&#xf735;" horiz-adv-x="553" 
d="M473 462l-18 -73h-339l11 73h346zM84 164q170 54 286.5 -0.5t130.5 -159.5q8 -62 -7.5 -111.5t-48 -80.5t-72.5 -49.5t-86 -24.5v12q82 17 127.5 82.5t18.5 153.5q-16 52 -61 85t-120 43t-178 -18zM128 -212q-8 -3 13 -16q24 -15 60 -22v-12q-48 8 -79.5 26.5t-43.5 33.5
q-18 25 -7 51q8 17 26.5 24t36.5 -1q17 -8 23.5 -26.5t-1.5 -35.5q-6 -17 -28 -22z" />
    <glyph glyph-name="six.oldstyle" unicode="&#xf736;" horiz-adv-x="546" 
d="M385 678l2 1q-2 10 -34 17q-2 1 -4 1v11q10 -2 19 -5t16 -6.5t12.5 -7t10 -8l7.5 -7.5t5.5 -7.5t3.5 -6.5l3 -6l2 -4q5 -10 2 -24.5t-12 -22.5q-13 -13 -31.5 -13.5t-31.5 12.5t-13 31.5t12 31.5q17 13 31 13zM484 239q0 -104 -44.5 -168t-127.5 -77v12q44 16 70 71.5
t26 145.5q0 110 -38 163.5t-89 53.5q-116 0 -157 -160q2 -237 102 -274v-12q-181 28 -181 323q0 149 59 262t159 131v-11q-139 -49 -139 -377q21 67 64 108t109 41q51 0 89 -22t58.5 -57.5t30 -74t9.5 -78.5z" />
    <glyph glyph-name="seven.oldstyle" unicode="&#xf737;" horiz-adv-x="550" 
d="M486 396h-334q-38 0 -53.5 -12.5t-28.5 -45.5h-11l16 124h451zM211 -263q8 179 56.5 304t159.5 269h11q-78 -151 -110 -280t-32 -293h-85z" />
    <glyph glyph-name="eight.oldstyle" unicode="&#xf738;" horiz-adv-x="542" 
d="M503 183q0 -86 -48.5 -133.5t-131.5 -56.5v13q48 11 81.5 46.5t32.5 100.5q-1 53 -38 91t-133 88l-35 20q-124 -57 -124 -187q0 -72 36 -111t94 -49v-12q-191 16 -191 170q0 62 49.5 115t125.5 80q-78 45 -106.5 84.5t-28.5 102.5q0 68 40 110.5t102 53.5v-13
q-37 -12 -61 -41t-24 -69q0 -71 37.5 -110t121.5 -73q32 8 67.5 50t34.5 97q-3 122 -90 146v13q67 -10 103 -52t36 -105q0 -44 -42 -93.5t-95 -63.5q89 -44 138 -93t49 -119z" />
    <glyph glyph-name="nine.oldstyle" unicode="&#xf739;" horiz-adv-x="512" 
d="M477 143q0 -376 -210 -405v11q69 17 99.5 105t31.5 283q-20 -65 -63.5 -105.5t-109.5 -40.5q-41 0 -74 14.5t-53.5 38t-34.5 54.5t-19.5 61.5t-5.5 61.5q0 107 43.5 169.5t126.5 76.5v-13q-43 -18 -69 -72.5t-26 -143.5q0 -110 38 -163t89 -53q118 0 158 157
q0 235 -104 275v13q66 -10 107.5 -53.5t58.5 -110t17 -160.5zM135 -219l-1 -2q4 -13 31 -25q8 -3 16 -5v-11q-67 13 -90 71q-11 29 9 49q13 14 32.5 14.5t33.5 -12.5q13 -13 13.5 -32.5t-12.5 -32.5q-14 -14 -32 -14z" />
    <glyph glyph-name="cent.oldstyle" unicode="&#xf7a2;" horiz-adv-x="513" 
d="M290 31v429q-22 -3 -43.5 -15t-44.5 -36t-37 -68.5t-14 -103.5q0 -94 40.5 -145t98.5 -61zM460 128l9 -3q-9 -47 -48.5 -88t-111.5 -46v-109h-19v109q-90 2 -152.5 64t-62.5 174q0 94 59 164.5t156 77.5v122h19v-564q58 -1 98 29.5t53 69.5zM411 426l2 1q-3 10 -33 22
q-9 3 -18 5v12q30 -6 50.5 -19.5t27 -24t9.5 -20.5q7 -23 -9 -40q-11 -11 -27.5 -11.5t-27.5 9.5q-11 12 -11.5 28t10.5 27q12 11 27 11z" />
    <glyph glyph-name="fi" unicode="&#xfb01;" horiz-adv-x="491" 
d="M412 76q0 -40 6.5 -50t34.5 -17v-9h-150v9q28 8 34 18t6 49v318q0 29 -10.5 43t-39.5 14h-142v-379q0 -38 11 -49t42 -15v-8h-160v8q28 5 33.5 15t5.5 49v379h-64l-1 11h65v6q0 144 44 206t131 69v-11q-107 -20 -107 -258v-12h142h119v-386zM364 681q9 -1 9 8
q-1 18 -30 33q-13 7 -29 10v11q41 -7 67.5 -29t26.5 -61q6 -30 -14 -48q-14 -13 -32.5 -12t-31.5 14q-12 14 -11 32t14 31t31 11z" />
    <glyph glyph-name="fl" unicode="&#xfb02;" horiz-adv-x="475" 
d="M464 11v-11h-150v11q29 8 34.5 17.5t5.5 47.5v578q0 66 -86 73q-18 1 -33 -2.5t-33 -18.5t-30 -41.5t-20.5 -76t-8.5 -116.5v-10h107l-2 -11h-105v-379q0 -38 10.5 -48t41.5 -14v-10h-160v10q28 5 33.5 14t5.5 48v379h-64l-1 11h65v20q0 263 166 263q61 0 96 -22l87 23
v-670q0 -40 6.5 -49t34.5 -16z" />
    <glyph glyph-name="NULL" horiz-adv-x="0" 
 />
    <glyph glyph-name="CR" horiz-adv-x="278" 
 />
    <glyph glyph-name="two.superior" horiz-adv-x="256" 
d="M203 434h6l-15 -56h-163l99 152q54 78 20 122q-22 29 -61 21t-48 -49q-1 -4 -1 -8l-9 2q1 25 9.5 43t21 26t24.5 12.5t20 4.5h9q34 0 56.5 -22.5t22.5 -53.5q0 -21 -11 -41.5t-42 -63.5l-77 -114h96q28 0 43 25z" />
    <glyph glyph-name="one.superior" horiz-adv-x="192" 
d="M151 386v-6h-102v6q11 0 18 2t12.5 10.5t5.5 24.5v222q-2 20 -11 19t-30 -18l-5 6l62 53h15v-282q0 -16 6 -25t12.5 -10.5t16.5 -1.5z" />
    <glyph glyph-name="a.superior" horiz-adv-x="283" 
d="M153 586q-97 -22 -97 -69q0 -19 11.5 -31.5t34.5 -12.5q34 0 51 33v80zM228 490l7 -2q-7 -35 -42 -35q-4 0 -10.5 1t-18 12t-11.5 31q-5 -19 -25.5 -31.5t-48.5 -12.5h-6t-14.5 3t-18 8t-14 16.5t-6.5 26.5q0 35 29 52t104 36v29q0 42 -19 60.5t-52 3.5q-20 -11 -22 -20
q8 0 14 -8q5 -7 4 -16t-8 -14q-16 -14 -30 3q-7 10 -2 23q6 20 40 38q10 5 22 7.5t19 2.5h7q36 0 50 -26.5t14 -78.5v-94q0 -4 0.5 -9t6.5 -13.5t16 -8.5q13 0 15 16z" />
    <glyph glyph-name="three.superior" horiz-adv-x="257" 
d="M113 374q-54 0 -74 27q-7 12 -2 23q4 8 12.5 10t16.5 -2q18 -11 8 -28q-5 -8 -12 -10l12 -7q17 -7 39 -7q77 0 70 83q-7 71 -88 75v9q50 4 65.5 47t-20.5 73q-25 22 -60.5 9t-37.5 -47l-9 1q1 26 13 42.5t30 22.5t27 7.5t17 1.5q39 0 61 -30t12 -67.5t-53 -54.5
q37 -6 57.5 -30.5t20.5 -52.5t-10 -48t-27.5 -29.5t-34 -13.5t-33.5 -4z" />
    <glyph glyph-name="o.superior" horiz-adv-x="306" 
d="M211 575q0 41 -6.5 67.5t-19 37t-23 14t-26.5 3.5t-26 -3t-22.5 -14t-19 -37.5t-6.5 -67.5q0 -40 6.5 -65t19 -35t22.5 -13t26 -3q17 0 27.5 3t23 13t18.5 35t6 65zM245 575q0 -122 -109 -122q-108 0 -108 122q0 129 108 129q109 0 109 -129z" />
    </font>
</defs>
</svg>
